<?xml version="1.0" encoding="UTF-8"?>
<svg width="24px" height="24px" viewBox="0 0 24 24" version="1.1" xmlns="http://www.w3.org/2000/svg" xmlns:xlink="http://www.w3.org/1999/xlink">
    <title>Icon/Essential/Menu</title>
    <g id="Icon/Essential/Menu" stroke="none" stroke-width="1" fill="none" fill-rule="evenodd" fill-opacity="0.84">
        <path d="M20.125,16.3775 C20.470178,16.3775 20.75,16.657322 20.75,17.0025 C20.75,17.3162982 20.5187421,17.5760831 20.2173579,17.6207234 L20.125,17.6275 L3.875,17.6275 C3.52982203,17.6275 3.25,17.347678 3.25,17.0025 C3.25,16.6887018 3.48125788,16.4289169 3.78264208,16.3842766 L3.875,16.3775 L20.125,16.3775 Z M20.125,11.3775 C20.470178,11.3775 20.75,11.657322 20.75,12.0025 C20.75,12.3162982 20.5187421,12.5760831 20.2173579,12.6207234 L20.125,12.6275 L3.875,12.6275 C3.52982203,12.6275 3.25,12.347678 3.25,12.0025 C3.25,11.6887018 3.48125788,11.4289169 3.78264208,11.3842766 L3.875,11.3775 L20.125,11.3775 Z M20.125,6.3775 C20.470178,6.3775 20.75,6.65732203 20.75,7.0025 C20.75,7.31629815 20.5187421,7.57608314 20.2173579,7.6207234 L20.125,7.6275 L3.875,7.6275 C3.52982203,7.6275 3.25,7.34767797 3.25,7.0025 C3.25,6.68870185 3.48125788,6.42891686 3.78264208,6.3842766 L3.875,6.3775 L20.125,6.3775 Z" id="Menu" fill="#000000"></path>
    </g>
</svg>