<?xml version="1.0" encoding="UTF-8"?>
<svg width="24px" height="24px" viewBox="0 0 24 24" version="1.1" xmlns="http://www.w3.org/2000/svg" xmlns:xlink="http://www.w3.org/1999/xlink">
    <title>Icon/SBU/New/Systems</title>
    <defs>
        <path d="M15,17.5 L17,17.5 C17.2761424,17.5 17.5,17.2761424 17.5,17 L17.5,16 C17.5,15.7238576 17.2761424,15.5 17,15.5 L15,15.5 C14.7238576,15.5 14.5,15.7238576 14.5,16 L14.5,17 C14.5,17.2761424 14.7238576,17.5 15,17.5 Z M15,14.5 L17,14.5 C17.2761424,14.5 17.5,14.2761424 17.5,14 L17.5,13 C17.5,12.7238576 17.2761424,12.5 17,12.5 L15,12.5 C14.7238576,12.5 14.5,12.7238576 14.5,13 L14.5,14 C14.5,14.2761424 14.7238576,14.5 15,14.5 Z M11,14.5 L13,14.5 C13.2761424,14.5 13.5,14.2761424 13.5,14 L13.5,13 C13.5,12.7238576 13.2761424,12.5 13,12.5 L11,12.5 C10.7238576,12.5 10.5,12.7238576 10.5,13 L10.5,14 C10.5,14.2761424 10.7238576,14.5 11,14.5 Z M11,17.5 L13,17.5 C13.2761424,17.5 13.5,17.2761424 13.5,17 L13.5,16 C13.5,15.7238576 13.2761424,15.5 13,15.5 L11,15.5 C10.7238576,15.5 10.5,15.7238576 10.5,16 L10.5,17 C10.5,17.2761424 10.7238576,17.5 11,17.5 Z M7,14.5 L9,14.5 C9.27614237,14.5 9.5,14.2761424 9.5,14 L9.5,13 C9.5,12.7238576 9.27614237,12.5 9,12.5 L7,12.5 C6.72385763,12.5 6.5,12.7238576 6.5,13 L6.5,14 C6.5,14.2761424 6.72385763,14.5 7,14.5 Z M7,17.5 L9,17.5 C9.27614237,17.5 9.5,17.2761424 9.5,17 L9.5,16 C9.5,15.7238576 9.27614237,15.5 9,15.5 L7,15.5 C6.72385763,15.5 6.5,15.7238576 6.5,16 L6.5,17 C6.5,17.2761424 6.72385763,17.5 7,17.5 Z M15.4998877,10.6429359 L15.4998877,9.02662823 C15.4998877,8.78500366 15.3040123,8.58912823 15.0623877,8.58912823 C14.9564175,8.58912823 14.854049,8.62759073 14.7742972,8.69737135 L12.3625707,10.8075643 C12.2716489,10.8871183 12.133451,10.8779029 12.053897,10.7869811 C12.0190067,10.7471052 11.9997755,10.695921 11.9997755,10.6429359 L11.9997755,9.02662823 C11.9997755,8.78500366 11.8039,8.58912823 11.5622755,8.58912823 C11.4563052,8.58912823 11.3539368,8.62759073 11.2741849,8.69737135 L8.81915522,10.8454534 C8.72823344,10.9250074 8.59003551,10.915792 8.51048151,10.8248703 C8.48051079,10.7906169 8.46197074,10.7478681 8.45744438,10.7025796 L7.92687742,5.39399082 C7.90452361,5.17032975 7.71632165,5 7.49154628,5 L6.00843206,5 C5.7836658,5 5.59546837,5.17031634 5.57310329,5.39396712 L5.08684917,10.2565083 C5.02898569,10.8351431 5,11.4163025 5,11.9978234 L5,18.5625 C5,18.8041246 5.19587542,19 5.4375,19 L18.5625,19 C18.8041246,19 19,18.8041246 19,18.5625 L19,9.02662823 C19,8.78500366 18.8041246,8.58912823 18.5625,8.58912823 C18.4565298,8.58912823 18.3541613,8.62759073 18.2744095,8.69737135 L15.862683,10.8075643 C15.7717612,10.8871183 15.6335633,10.8779029 15.5540093,10.7869811 C15.519119,10.7471052 15.4998877,10.695921 15.4998877,10.6429359 Z" id="path-1"></path>
    </defs>
    <g id="Icon/SBU/New/Systems" stroke="none" stroke-width="1" fill="none" fill-rule="evenodd">
        <mask id="mask-2" fill="white">
            <use xlink:href="#path-1"></use>
        </mask>
        <use id="Factory" fill-opacity="0.84" fill="#000000" xlink:href="#path-1"></use>
    </g>
</svg>