<?xml version="1.0" encoding="UTF-8"?>
<svg width="24px" height="24px" viewBox="0 0 24 24" version="1.1" xmlns="http://www.w3.org/2000/svg" xmlns:xlink="http://www.w3.org/1999/xlink">
    <title>Icon/Essential/Avatar</title>
    <g id="Icon/Essential/Avatar" stroke="none" stroke-width="1" fill="none" fill-rule="evenodd" fill-opacity="0.84">
        <path d="M12,12.625 C16.8324916,12.625 20.75,16.5425084 20.75,21.375 C20.75,21.720178 20.470178,22 20.125,22 C19.779822,22 19.5,21.720178 19.5,21.375 C19.5,17.2328644 16.1421356,13.875 12,13.875 C7.85786438,13.875 4.5,17.2328644 4.5,21.375 C4.5,21.720178 4.22017797,22 3.875,22 C3.52982203,22 3.25,21.720178 3.25,21.375 C3.25,16.5425084 7.16750844,12.625 12,12.625 Z M12,2 C14.7614237,2 17,4.23857625 17,7 C17,9.76142375 14.7614237,12 12,12 C9.23857625,12 7,9.76142375 7,7 C7,4.23857625 9.23857625,2 12,2 Z M8.439032,5.82219123 L8.42935339,5.85084378 C8.31289444,6.21298611 8.25,6.59914817 8.25,7 C8.25,9.07106781 9.92893219,10.75 12,10.75 C13.9742635,10.75 15.5921924,9.22435064 15.7391273,7.28771151 C14.9999191,7.51170533 14.2320254,7.62521992 13.4584681,7.6250006 C11.617594,7.62539719 9.84467853,6.98206566 8.439032,5.82219123 Z M12,3.25 C10.7993003,3.25 9.73040091,3.81430426 9.04404561,4.69216901 C10.2541004,5.77307043 11.8243672,6.37535255 13.4585107,6.37500032 C14.1948135,6.37520925 14.924849,6.25306524 15.6190477,6.01465357 C15.1853041,4.42061574 13.7293581,3.25 12,3.25 Z" id="Avatar" fill="#000000"></path>
    </g>
</svg>