<?xml version="1.0" encoding="UTF-8"?>
<svg width="24px" height="24px" viewBox="0 0 24 24" version="1.1" xmlns="http://www.w3.org/2000/svg" xmlns:xlink="http://www.w3.org/1999/xlink">
    <title>Icon/Essential/Info</title>
    <g id="Icon/Essential/Info" stroke="none" stroke-width="1" fill="none" fill-rule="evenodd" fill-opacity="0.84">
        <path d="M12,2 C17.5228475,2 22,6.4771525 22,12 C22,17.5228475 17.5228475,22 12,22 C6.4771525,22 2,17.5228475 2,12 C2,6.4771525 6.4771525,2 12,2 Z M12,3.25 C7.16750844,3.25 3.25,7.16750844 3.25,12 C3.25,16.8324916 7.16750844,20.75 12,20.75 C16.8324916,20.75 20.75,16.8324916 20.75,12 C20.75,7.16750844 16.8324916,3.25 12,3.25 Z M11.375,10.125 C12.0222087,10.125 12.5545339,10.6168747 12.6185464,11.2471948 L12.625,11.375 L12.625,14.5 C12.625,14.8137982 12.8562579,15.0735831 13.1576421,15.1182234 L13.25,15.125 L13.875,15.125 C14.220178,15.125 14.5,15.404822 14.5,15.75 C14.5,16.0637982 14.2687421,16.3235831 13.9673579,16.3682234 L13.875,16.375 L13.25,16.375 C12.2637772,16.375 11.4553938,15.6135795 11.3806412,14.6465301 L11.375,14.5 L11.375,11.375 L10.75,11.375 C10.404822,11.375 10.125,11.095178 10.125,10.75 C10.125,10.4362018 10.3562579,10.1764169 10.6576421,10.1317766 L10.75,10.125 L11.375,10.125 Z M11.6875,7 L11.7968323,7.00630725 C12.2630873,7.06046204 12.625,7.4567164 12.625,7.9375 C12.625,8.45526695 12.205267,8.875 11.6875,8.875 C11.169733,8.875 10.75,8.45526695 10.75,7.9375 C10.75,7.4567164 11.1119127,7.06046204 11.5781677,7.00630725 L11.6875,7 Z" id="Combined-Shape" fill="#000000"></path>
    </g>
</svg>