<?xml version="1.0" encoding="UTF-8"?>
<svg width="24px" height="24px" viewBox="0 0 24 24" version="1.1" xmlns="http://www.w3.org/2000/svg" xmlns:xlink="http://www.w3.org/1999/xlink">
    <title>Icon/Essential/Check</title>
    <g id="Icon/Essential/Check" stroke="none" stroke-width="1" fill="none" fill-rule="evenodd" fill-opacity="0.84">
        <path d="M20.8629879,2.26560438 C21.0609406,1.98282788 21.4506486,1.91406463 21.7334251,2.11201736 C21.987924,2.29017481 22.0690721,2.62365407 21.9384492,2.89471241 L21.8870121,2.98245462 L9.31133391,20.9468718 C8.85994741,21.5954872 8.12428004,21.9875724 7.33416541,22.000634 C6.60482882,22.0126908 5.91118504,21.7004357 5.43783212,21.1551769 L5.32419011,21.0140608 L2.12502345,16.7490608 C1.9178994,16.4729313 1.97383931,16.081177 2.24996874,15.8740529 C2.49848522,15.6876413 2.84065789,15.7143115 3.05760069,15.922808 L3.12497655,15.9989982 L6.32508655,20.2652592 C6.55737106,20.5765624 6.92514275,20.7572248 7.31350418,20.7508047 C7.65332043,20.7451872 7.97264686,20.5969338 8.1964652,20.3454311 L8.28632119,20.2314377 L20.8629879,2.26560438 Z" id="Check" fill="#000000"></path>
    </g>
</svg>