<?xml version="1.0" encoding="UTF-8"?>
<svg width="24px" height="24px" viewBox="0 0 24 24" version="1.1" xmlns="http://www.w3.org/2000/svg" xmlns:xlink="http://www.w3.org/1999/xlink">
    <title>Icon/SBU/New/ZRD</title>
    <g id="Icon/SBU/New/ZRD" stroke="none" stroke-width="1" fill="none" fill-rule="evenodd" fill-opacity="0.84">
        <path d="M7.49999996,10.1054038 C7.53171244,10.1054038 7.56335301,10.1084208 7.59449401,10.1144141 L12.1025183,10.9814248 C12.1646989,10.9933838 12.2278747,10.9994098 12.2911948,10.9994217 L14.8464396,10.9998937 C15.1225819,10.9999447 15.3463472,11.2238437 15.3463472,11.499986 L15.3451114,11.5350255 L15.3451114,11.5350255 L15.21,12.4994038 L10.2500087,12.5 C10.131662,12.5 10.0325219,12.5822334 10.0066114,12.6926773 L9.99999996,12.75 C9.99999996,12.8683467 10.0822421,12.9674868 10.192686,12.9933973 L10.2500087,13 L15.139,12.9994038 L14.9917766,14.0400156 C14.8319489,14.0136917 14.6678639,14 14.500581,14 C12.9029001,14 11.5969201,15.24892 11.5056737,16.8237272 L11.5,17 L11.5,17.4994038 L9.49999996,17.4994038 L9.49999996,17 C9.49999996,15.5137043 8.41915109,14.2798543 7.00057961,14.0415765 L6.99999996,10.6054038 C6.99999996,10.3292614 7.22385759,10.1054038 7.49999996,10.1054038 Z M6.5,14.5 C7.88071187,14.5 9,15.6192881 9,17 C9,18.3807119 7.88071187,19.5 6.5,19.5 C5.11928813,19.5 4,18.3807119 4,17 C4,15.6192881 5.11928813,14.5 6.5,14.5 Z M14.5,14.5 C15.8807119,14.5 17,15.6192881 17,17 C17,18.3807119 15.8807119,19.5 14.5,19.5 C13.1192881,19.5 12,18.3807119 12,17 C12,15.6192881 13.1192881,14.5 14.5,14.5 Z M6.5,15.5 C5.67157288,15.5 5,16.1715729 5,17 C5,17.8284271 5.67157288,18.5 6.5,18.5 C7.32842712,18.5 8,17.8284271 8,17 C8,16.1715729 7.32842712,15.5 6.5,15.5 Z M14.5,15.5 C13.6715729,15.5 13,16.1715729 13,17 C13,17.8284271 13.6715729,18.5 14.5,18.5 C15.3284271,18.5 16,17.8284271 16,17 C16,16.1715729 15.3284271,15.5 14.5,15.5 Z M6,9.5 C6.27614237,9.5 6.5,9.72385763 6.5,10 L6.5,14 C4.84314575,14 3.5,15.3431458 3.5,17 L3.5,17.5 C3.25454011,17.5 3.05039163,17.3231248 3.00805567,17.0898756 L3,17 C3,16.7545401 2.82312484,16.5503916 2.58987563,16.5080557 L2.5,16.5 C2.22385763,16.5 2,16.2761424 2,16 L2,11 C2,10.7545401 2.17687516,10.5503916 2.41012437,10.5080557 L2.5,10.5 C2.77614237,10.5 3,10.2761424 3,10 C3,9.72385763 3.22385763,9.5 3.5,9.5 L6,9.5 Z M16.5,10.5 C16.7761424,10.5 17,10.7238576 17,11 L17,12.0857864 C17,12.3510029 17.1053568,12.6053568 17.2928932,12.7928932 L19.7071068,15.2071068 C19.8946432,15.3946432 20.1489971,15.5 20.4142136,15.5 L21.5,15.5 C21.7761424,15.5 22,15.7238576 22,16 L22,16.0663523 C22,16.3151775 21.817035,16.5261379 21.5707107,16.561327 L17.6398653,17.1228764 L17.4969079,17.1374338 C17.4989619,17.0918797 17.5,17.0460611 17.5,17 C17.5,15.6859047 16.6550942,14.5691477 15.4788858,14.163332 L15.938673,10.9292893 C15.9738621,10.682965 16.1848225,10.5 16.4336477,10.5 L16.5,10.5 Z M13.9404688,4.5 C14.1325391,4.5 14.2882429,4.65570376 14.2882429,4.84777408 C14.2882429,4.90116823 14.2759485,4.95384539 14.2523125,5.00172311 L14.1033223,5.30352216 C14.0405053,5.43076607 14.034715,5.57870841 14.0873945,5.71047277 L15.88844,9.27476211 C15.9600156,9.41641095 15.9600933,9.58362824 15.8886493,9.72534349 L15.6367116,10.2250834 C15.5517242,10.3936633 15.3790303,10.5 15.1902394,10.5 L12.0986034,10.5 C12.032746,10.5 11.9670496,10.4934942 11.9024713,10.4805775 L7.49171479,9.5983513 C7.25102235,9.55020873 7.08552985,9.33672885 7.08968443,9.09970649 L7.09977901,9.00857293 L7.09977901,9.00857293 L7.93036658,4.91780051 C7.97054891,4.67670652 8.17914397,4.5 8.42356354,4.5 L13.9404688,4.5 Z M13.052,5.5 L8.832,5.5 L8.22237239,8.50145904 L14.3777904,8.50117672 L13.1588542,6.08170433 C13.0995897,5.93346942 13.0649922,5.77840943 13.0548334,5.62235832 L13.052,5.5 Z" id="Dozer" fill="#000000"></path>
    </g>
</svg>