<?xml version="1.0" encoding="UTF-8"?>
<svg width="24px" height="24px" viewBox="0 0 24 24" version="1.1" xmlns="http://www.w3.org/2000/svg" xmlns:xlink="http://www.w3.org/1999/xlink">
    <title>Icon/Essential/Download</title>
    <g id="Icon/Essential/Download" stroke="none" stroke-width="1" fill="none" fill-rule="evenodd" fill-opacity="0.84">
        <path d="M21.25,14.375 C21.5637982,14.375 21.8235831,14.6062579 21.8682234,14.9076421 L21.875,15 L21.875,16.25 C21.875,17.9163764 20.5707166,19.2781211 18.9273307,19.3700531 L18.75,19.375 L5,19.375 C3.3336236,19.375 1.97187892,18.0707166 1.87994691,16.4273307 L1.875,16.25 L1.875,15 C1.875,14.654822 2.15482203,14.375 2.5,14.375 C2.81379815,14.375 3.07358314,14.6062579 3.1182234,14.9076421 L3.125,15 L3.125,16.25 C3.125,17.2362228 3.88642049,18.0446062 4.85346985,18.1193588 L5,18.125 L18.75,18.125 C19.7362228,18.125 20.5446062,17.3635795 20.6193588,16.3965301 L20.625,16.25 L20.625,15 C20.625,14.654822 20.904822,14.375 21.25,14.375 Z M11.875,4.375 C12.1887982,4.375 12.4485831,4.60625788 12.4932234,4.90764208 L12.5,5 L12.5,13.492 L15.1830583,10.8080583 C15.4000162,10.5911003 15.7367967,10.5669939 15.9803819,10.7357389 L16.0669417,10.8080583 C16.2838997,11.0250162 16.3080061,11.3617967 16.1392611,11.6053819 L16.0669417,11.6919417 L12.2742218,15.4809348 L12.207807,15.5291259 L12.1441887,15.5642476 L12.0639701,15.5958834 C12.0041946,15.6148366 11.9407842,15.625 11.875,15.625 C11.8289906,15.625 11.7841425,15.6200285 11.7409633,15.6105934 L11.6517842,15.5839611 L11.5686244,15.5448829 L11.5196181,15.5142611 L11.4673223,15.4736082 L7.68305826,11.6919417 C7.43898058,11.4478641 7.43898058,11.0521359 7.68305826,10.8080583 C7.9000162,10.5911003 8.2367967,10.5669939 8.48038188,10.7357389 L8.56694174,10.8080583 L11.25,13.492 L11.25,5 C11.25,4.65482203 11.529822,4.375 11.875,4.375 Z" id="Download" fill="#000000"></path>
    </g>
</svg>