<?xml version="1.0" encoding="UTF-8"?>
<svg width="24px" height="24px" viewBox="0 0 24 24" version="1.1" xmlns="http://www.w3.org/2000/svg" xmlns:xlink="http://www.w3.org/1999/xlink">
    <title>Icon/SBU/Systems/Default 2</title>
    <g id="Icon/SBU/Systems/Default-2" stroke="none" stroke-width="1" fill="none" fill-rule="evenodd" fill-opacity="0.84">
        <path d="M21.7441,9.848 L21.7441,22 L2.2559,22 L2.2559,15.848 L8.8719,9.848 L8.8719,15.692 L15.2801,9.848 L15.2801,15.692 L21.7441,9.848 Z M20.9239,18.924 L19.6399,18.924 L19.6399,20.872 L20.9239,20.872 L20.9239,18.924 Z M18.9719,18.924 L17.6919,18.924 L17.6919,20.872 L18.9719,20.872 L18.9719,18.924 Z M17.0239,18.924 L15.7441,18.924 L15.7441,20.872 L17.0239,20.872 L17.0239,18.924 Z M14.6159,18.924 L13.3319,18.924 L13.3319,20.872 L14.6159,20.872 L14.6159,18.924 Z M12.6679,18.924 L11.3839,18.924 L11.3839,20.872 L12.6679,20.872 L12.6679,18.924 Z M10.7159,18.924 L9.4361,18.924 L9.4361,20.872 L10.7159,20.872 L10.7159,18.924 Z M8.2559,18.924 L6.9719,18.924 L6.9719,20.872 L8.2559,20.872 L8.2559,18.924 Z M6.3079,18.924 L5.0239,18.924 L5.0239,20.872 L6.3079,20.872 L6.3079,18.924 Z M4.3599,18.924 L3.0759,18.924 L3.0759,20.872 L4.3599,20.872 L4.3599,18.924 Z M20.9239,16.412 L19.6399,16.412 L19.6399,18.36 L20.9239,18.36 L20.9239,16.412 Z M18.9719,16.412 L17.6919,16.412 L17.6919,18.36 L18.9719,18.36 L18.9719,16.412 Z M17.0239,16.412 L15.7441,16.412 L15.7441,18.36 L17.0239,18.36 L17.0239,16.412 Z M14.6159,16.412 L13.3319,16.412 L13.3319,18.36 L14.6159,18.36 L14.6159,16.412 Z M12.6679,16.412 L11.3839,16.412 L11.3839,18.36 L12.6679,18.36 L12.6679,16.412 Z M10.7159,16.412 L9.4361,16.412 L9.4361,18.36 L10.7159,18.36 L10.7159,16.412 Z M8.2559,16.412 L6.9719,16.412 L6.9719,18.36 L8.2559,18.36 L8.2559,16.412 Z M6.3079,16.412 L5.0239,16.412 L5.0239,18.36 L6.3079,18.36 L6.3079,16.412 Z M4.3599,16.412 L3.0759,16.412 L3.0759,18.36 L4.3599,18.36 L4.3599,16.412 Z M7.0239,2 L7.3319,10.564 L4.2041,13.384 L4.6159,2 L7.0239,2 Z M13.6399,2 L13.9479,10.564 L10.8201,13.384 L11.2319,2 L13.6399,2 Z M19.8961,2 L20.2041,10.564 L17.0759,13.384 L17.4881,2 L19.8961,2 Z" id="Factory" fill="#000000"></path>
    </g>
</svg>