<?xml version="1.0" encoding="UTF-8"?>
<svg width="24px" height="24px" viewBox="0 0 24 24" version="1.1" xmlns="http://www.w3.org/2000/svg" xmlns:xlink="http://www.w3.org/1999/xlink">
    <title>Icon/Essential/Filter 2</title>
    <g id="Icon/Essential/Filter-2" stroke="none" stroke-width="1" fill="none" fill-rule="evenodd" fill-opacity="0.84">
        <path d="M20.7491561,2.33663785 C21.0953724,2.3372842 21.4259016,2.48110776 21.6623569,2.73400115 C21.8988122,2.98689454 22.0201305,3.32633028 21.9972659,3.6758121 C21.6889243,7.96884338 18.6799751,11.5625511 14.5584114,12.6488593 L14.5584114,12.6488593 L14.5032156,12.662348 L14.5035779,18.3228819 C14.5038638,18.6486226 14.377185,18.9596645 14.1541633,19.1913075 L14.1541633,19.1913075 L14.0527734,19.2855333 L11.5475453,21.3732234 C11.1742113,21.6841833 10.6547242,21.7511849 10.2147072,21.5451282 C9.77469022,21.3390714 9.49353509,20.8971349 9.49335292,20.4110254 L9.49335292,20.4110254 L9.4929904,12.662348 L9.15914577,12.5705346 C5.27348198,11.4237652 2.43570616,8.02907688 2.02733263,3.95796184 L2.02733263,3.95796184 L2.00278941,3.67269797 C1.97968235,3.32686362 2.10091161,2.98691461 2.33763226,2.73373745 C2.57441269,2.48049634 2.90557178,2.33663785 3.25228236,2.33663785 L3.25228236,2.33663785 Z M3.25225386,3.58883008 L3.27552415,3.85247093 C3.66446854,7.65526485 6.47962048,10.7820088 10.2450141,11.5514309 C10.5365434,11.6110021 10.7459092,11.8674762 10.7459092,12.1650297 L10.7459092,12.1650297 L10.7459092,20.4107906 L13.2516249,18.322695 L13.2510218,12.1650297 C13.2510218,11.8673737 13.4605286,11.6108411 13.7521842,11.5513764 C17.6064892,10.7655348 20.4661279,7.50957363 20.7476533,3.59008259 L20.7476533,3.59008259 L3.25225386,3.58883008 Z" id="Filter" fill="#000000"></path>
    </g>
</svg>