<?xml version="1.0" encoding="UTF-8"?>
<svg width="24px" height="24px" viewBox="0 0 24 24" version="1.1" xmlns="http://www.w3.org/2000/svg" xmlns:xlink="http://www.w3.org/1999/xlink">
    <title>Icon/Media/Play</title>
    <g id="Icon/Media/Play" stroke="none" stroke-width="1" fill="none" fill-rule="evenodd" fill-opacity="0.84">
        <path d="M4.23578464,3.10349424 C4.80163053,2.76485764 5.50377017,2.74836393 6.08462849,3.05991588 L6.08462849,3.05991588 L19.6872855,10.3475 C20.2962912,10.6739964 20.6763573,11.308995 20.6763573,12 C20.6763573,12.691005 20.2962912,13.3260036 19.6871285,13.6525841 L19.6871285,13.6525841 L6.08489273,20.9399425 C5.50377017,21.2516361 4.80163053,21.2351424 4.23578464,20.8965058 C3.66996495,20.5578848 3.32364273,19.9469259 3.32364273,19.2875 L3.32364273,19.2875 L3.32364273,4.7125 C3.32364273,4.0530741 3.66996495,3.44211517 4.23578464,3.10349424 Z M5.49405939,4.16160914 C5.30035187,4.05771128 5.06630532,4.06320918 4.87769003,4.17608805 C4.68909291,4.28895604 4.57364273,4.49262567 4.57364273,4.7125 L4.57364273,4.7125 L4.57364273,19.2875 C4.57364273,19.5073743 4.68909291,19.711044 4.87769003,19.823912 C5.06630532,19.9367908 5.30035187,19.9422887 5.49432363,19.8382492 L5.49432363,19.8382492 L19.0966667,12.5508333 C19.2996686,12.4420012 19.4263573,12.230335 19.4263573,12 C19.4263573,11.769665 19.2996686,11.5579988 19.0968236,11.4492508 L19.0968236,11.4492508 Z" id="Play" fill="#000000"></path>
    </g>
</svg>