<?xml version="1.0" encoding="UTF-8"?>
<svg width="24px" height="24px" viewBox="0 0 24 24" version="1.1" xmlns="http://www.w3.org/2000/svg" xmlns:xlink="http://www.w3.org/1999/xlink">
    <title>Icon/Essential/Close</title>
    <g id="Icon/Essential/Close" stroke="none" stroke-width="1" fill="none" fill-rule="evenodd" fill-opacity="0.84">
        <path d="M2.98038188,2.11073895 L3.06694174,2.18305826 L12,11.117 L20.9330583,2.18305826 C21.1771359,1.93898058 21.5728641,1.93898058 21.8169417,2.18305826 C22.0338997,2.4000162 22.0580061,2.7367967 21.8892611,2.98038188 L21.8169417,3.06694174 L12.883,12 L21.8169417,20.9330583 C22.0610194,21.1771359 22.0610194,21.5728641 21.8169417,21.8169417 C21.5999838,22.0338997 21.2632033,22.0580061 21.0196181,21.8892611 L20.9330583,21.8169417 L12,12.883 L3.06694174,21.8169417 C2.82286406,22.0610194 2.42713594,22.0610194 2.18305826,21.8169417 C1.96610032,21.5999838 1.94199388,21.2632033 2.11073895,21.0196181 L2.18305826,20.9330583 L11.117,12 L2.18305826,3.06694174 C1.93898058,2.82286406 1.93898058,2.42713594 2.18305826,2.18305826 C2.4000162,1.96610032 2.7367967,1.94199388 2.98038188,2.11073895 Z" id="Path" fill="#000000"></path>
    </g>
</svg>