<?xml version="1.0" encoding="UTF-8"?>
<svg width="24px" height="24px" viewBox="0 0 24 24" version="1.1" xmlns="http://www.w3.org/2000/svg" xmlns:xlink="http://www.w3.org/1999/xlink">
    <title>Icon/Essential/Loading Spinner</title>
    <g id="Icon/Essential/Loading-Spinner" stroke="none" stroke-width="1" fill="none" fill-rule="evenodd" fill-opacity="0.84">
        <path d="M2.62,11.375 C2.96517797,11.375 3.245,11.654822 3.245,12 C3.245,16.835253 7.16474702,20.755 12,20.755 C12.345178,20.755 12.625,21.034822 12.625,21.38 C12.625,21.725178 12.345178,22.005 12,22.005 C6.47439108,22.005 1.995,17.5256089 1.995,12 C1.995,11.654822 2.27482203,11.375 2.62,11.375 Z M12,1.995 C17.5256089,1.995 22.005,6.47439108 22.005,12 C22.005,12.345178 21.725178,12.625 21.38,12.625 C21.034822,12.625 20.755,12.345178 20.755,12 C20.755,7.16474702 16.835253,3.245 12,3.245 C11.654822,3.245 11.375,2.96517797 11.375,2.62 C11.375,2.27482203 11.654822,1.995 12,1.995 Z" id="Loading-Spinner" fill="#000000"></path>
    </g>
</svg>