<?xml version="1.0" encoding="UTF-8"?>
<svg width="24px" height="24px" viewBox="0 0 24 24" version="1.1" xmlns="http://www.w3.org/2000/svg" xmlns:xlink="http://www.w3.org/1999/xlink">
    <title>Icon/Social/Xing</title>
    <defs>
        <path d="M17.1518437,2 C16.7218437,2 16.5318437,2.27 16.3818437,2.55 C16.3818437,2.55 10.1618437,13.57 9.98184373,13.93 L14.0618437,21.45 C14.2018437,21.71 14.4218437,22 14.8618437,22 L17.7418437,22 C17.9218437,22 18.0518437,21.93 18.1218437,21.82 C18.2018437,21.69 18.2018437,21.53 18.1218437,21.37 L14.0518437,13.92 L20.4418437,2.63 C20.5218437,2.47 20.5218437,2.31 20.4518437,2.18 C20.3718437,2.07 20.2418437,2 20.0618437,2 C18.6068437,2 18.6068437,2 17.1518437,2 Z M5.03184373,5.95 C4.86184373,5.95 4.71184373,6 4.64184373,6.13 C4.56184373,6.26 4.57184373,6.41 4.66184373,6.57 L6.60184373,9.97 L3.54184373,15.37 C3.48184373,15.53 3.48184373,15.69 3.54184373,15.82 C3.61184373,15.94 3.74184373,16 3.91184373,16 L6.80184373,16 C7.23184373,16 7.44184373,15.72 7.59184373,15.45 C7.59184373,15.45 10.5818437,10.16 10.7018437,9.95 L8.72184373,6.5 C8.58184373,6.24 8.36184373,5.95 7.91184373,5.95 C6.47184373,5.95 6.47184373,5.95 5.03184373,5.95 Z" id="path-1"></path>
    </defs>
    <g id="Icon/Social/Xing" stroke="none" stroke-width="1" fill="none" fill-rule="evenodd">
        <mask id="mask-2" fill="white">
            <use xlink:href="#path-1"></use>
        </mask>
        <use id="Xing" fill-opacity="0.84" fill="#000000" xlink:href="#path-1"></use>
    </g>
</svg>