<?xml version="1.0" encoding="UTF-8"?>
<svg width="24px" height="24px" viewBox="0 0 24 24" version="1.1" xmlns="http://www.w3.org/2000/svg" xmlns:xlink="http://www.w3.org/1999/xlink">
    <!-- Generator: Sketch 53.2 (72643) - https://sketchapp.com -->
    <title>IconsSocialKununu</title>
    <desc>Created with Sketch.</desc>
    <defs>
        <path d="M13.4757763,16.3344162 L13.4256442,19.4940305 C13.4256442,19.7717214 13.1970756,20 12.9100903,20 L9.82292711,20 C9.54008407,20 9.30875395,19.7717214 9.30875395,19.4940305 L9.30875395,16.3344162 L9.29653955,16.3344162 L9.29653955,15.3138327 C9.29653955,14.214275 8.38290239,13.3196237 7.26353224,13.3196237 L6.17273317,13.3196237 C5.05081393,13.3196237 4.1400445,14.214275 4.1400445,15.3138327 L4.11837722,15.3138327 L4.11837722,19.4940305 C4.11837722,19.7717214 3.88832164,20 3.6028233,20 L0.514066943,20 C0.230055578,20 0,19.7717214 0,19.4940305 L0,0.689063548 C0,0.412333153 0.230055578,0.183947866 0.514066943,0.183947866 L3.6028233,0.183947866 C3.88832164,0.183947866 4.11837722,0.412333153 4.11837722,0.689063548 L4.11837722,9.56428653 C4.76255408,9.34326507 5.45282703,9.22021449 6.17273317,9.22021449 L7.21764858,9.22021449 L7.21764858,9.20804817 C8.34094858,9.20804817 9.25171801,8.31318339 9.25171801,7.21597352 L9.31682608,6.19346911 C9.35867367,5.95537212 9.56844273,5.77373111 9.82292711,5.77373111 L12.9100903,5.77373111 C13.1658492,5.77373111 13.3756183,5.95537212 13.4174659,6.19346911 L13.431061,6.19346911 L13.431061,7.21597352 C13.431061,8.75672042 12.8437077,10.1640647 11.8788762,11.2383293 C12.8695172,12.3199578 13.4757763,13.7477927 13.4757763,15.3138327 L13.4757763,16.3344162 Z M17.0166779,4.43159402 L16.2592789,5.17502015 C15.8695864,5.55836592 15.2397482,5.56242136 14.849206,5.1796092 L14.7247253,5.05730568 C14.3357764,4.67556074 14.3400248,4.05689274 14.7304608,3.67514781 L15.4367718,2.98124073 L15.4836114,2.9356704 C15.585044,2.83556507 15.7526468,2.83556507 15.8537608,2.9356704 L15.949458,3.02958584 C16.0506782,3.12926428 16.0599186,3.29521714 15.9576363,3.39585608 L15.2018305,4.13650743 C15.0734199,4.26158572 15.0734199,4.46563837 15.2018305,4.59028978 L15.3263111,4.71270003 C15.4532347,4.83745816 15.6635348,4.84033965 15.7902459,4.71536808 L16.5460518,3.97332934 C16.6484403,3.87397107 16.8155121,3.87791979 16.9177944,3.97759823 L17.0125357,4.07258089 C17.1156677,4.17215261 17.1180044,4.3324492 17.0166779,4.43159402 L17.0166779,4.43159402 Z M17.0166779,1.39236216 L16.9211932,1.48563728 C16.8196544,1.58499555 16.6489714,1.59331987 16.5477512,1.49321454 L15.7936447,0.75074892 C15.6650218,0.626097512 15.4574832,0.626097512 15.3296037,0.75074892 L15.2050168,0.872838998 C15.0784119,0.997917295 15.0758628,1.20495816 15.2026802,1.33003646 L15.9585922,2.07036764 C16.0605559,2.17132675 16.0556702,2.33450483 15.9533878,2.43396982 L15.858859,2.52873905 C15.7565767,2.6279906 15.593541,2.63257965 15.4928518,2.53162054 L14.7347093,1.78979525 C14.3438485,1.40783687 14.3400248,0.789168875 14.7304608,0.405929827 L14.8549415,0.283946471 C15.2438905,-0.0976917461 15.8736225,-0.0935295843 16.2634212,0.289816186 L16.9702632,0.983509812 L17.0166779,1.02908015 C17.1180044,1.12801153 17.1180044,1.29140306 17.0166779,1.39236216 L17.0166779,1.39236216 Z M19.7034212,5.0545309 L19.5806399,5.17502015 C19.1900978,5.55836592 18.5594098,5.55431048 18.1705671,5.17075126 L17.4627691,4.47695092 L17.4164606,4.43159402 C17.3141783,4.3324492 17.3141783,4.16927111 17.4164606,4.06863217 L17.5118391,3.97461001 C17.6132718,3.8755719 17.783105,3.86682069 17.8845377,3.96745963 L18.6411932,4.70949836 C18.7680106,4.83468338 18.9765051,4.83468338 19.1034286,4.70949836 L19.2280155,4.5879419 C19.3565322,4.46115605 19.3583378,4.25571601 19.2304584,4.13063771 L18.4744401,3.38859898 C18.3725826,3.28945415 18.3773622,3.12616934 18.4795383,3.02510352 L18.5751292,2.93172168 C18.6775178,2.83225669 18.8394914,2.82809453 18.9410302,2.9274528 L19.6984292,3.67109237 C20.0891838,4.0528373 20.0933261,4.6715053 19.7034212,5.0545309 L19.7034212,5.0545309 Z M19.7059703,1.79545152 L18.9979599,2.48903843 L18.9511204,2.53450204 C18.8489442,2.63343342 18.6838905,2.63343342 18.5817144,2.53450204 L18.4851675,2.43919921 C18.3840535,2.34037455 18.3766187,2.17378135 18.4780513,2.07431636 L19.2347069,1.33259779 C19.361418,1.20751949 19.361418,1.00442734 19.2347069,0.879882657 L19.1102262,0.756725358 C18.9831964,0.632821004 18.7721528,0.630259673 18.6451231,0.755231248 L17.8894234,1.49566915 C17.7872473,1.59662826 17.6199631,1.59086526 17.5185305,1.49150699 L17.4230457,1.39801843 C17.3217193,1.29705933 17.3174708,1.13772324 17.4190097,1.03889858 L18.1754528,0.293978348 C18.5653577,-0.087659869 19.1958332,-0.0918220308 19.5856319,0.289816186 L19.7091567,0.411479376 C20.0999113,0.79503859 20.0950255,1.41370658 19.7059703,1.79545152 L19.7059703,1.79545152 Z" id="path-1"></path>
    </defs>
    <g id="ZDS-icons" stroke="none" stroke-width="1" fill="none" fill-rule="evenodd">
        <g id="IconsSocialKununu">
            <g id="ic_kununu">
                <g id="Icon-24px">
                    <polygon id="Shape" points="0 0 24 0 24 24 0 24"></polygon>
                    <g id="grayscale-/-black" transform="translate(2.000000, 2.000000)">
                        <mask id="mask-2" fill="white">
                            <use xlink:href="#path-1"></use>
                        </mask>
                        <use id="Mask" fill="#000000" xlink:href="#path-1"></use>
                        <g mask="url(#mask-2)" fill="#000000" id="color-/-grayscale-/-black">
                            <g transform="translate(-2.000000, -2.000000)">
                                <rect x="0" y="0" width="24" height="24"></rect>
                            </g>
                        </g>
                    </g>
                </g>
            </g>
        </g>
    </g>
</svg>