<svg xmlns="http://www.w3.org/2000/svg" width="24" height="24" viewBox="0 0 24 24">
  <path d="M20.7,13.35 L19.7,14.35 L17.65,12.3 L18.65,11.3 C18.86,11.09 19.21,11.09 19.42,11.3 L20.7,12.58 C20.91,12.79 20.91,13.14 20.7,13.35 L20.7,13.35 Z M11,18.94 L17.06,12.88 L19.11,14.93 L13.06,21 L11,21 L11,18.94 L11,18.94 Z M11,14 C6.58,14 3,15.79 3,18 L3,20 L9,20 L9,18.11 L13,14.11 C12.34,14.03 11.67,14 11,14 L11,14 Z M11,4 C8.790861,4 7,5.790861 7,8 C7,10.209139 8.790861,12 11,12 C13.209139,12 15,10.209139 15,8 C15,5.790861 13.209139,4 11,4 Z"/>
</svg>
