<?xml version="1.0" encoding="UTF-8"?>
<svg width="24px" height="24px" viewBox="0 0 24 24" version="1.1" xmlns="http://www.w3.org/2000/svg" xmlns:xlink="http://www.w3.org/1999/xlink">
    <!-- Generator: Sketch 53.2 (72643) - https://sketchapp.com -->
    <title>IconsSgeAbAviation</title>
    <desc>Created with Sketch.</desc>
    <defs>
        <path d="M11.864509,6.05453867 C10.0848326,7.84759058 10.0848326,10.7642884 11.864509,12.5573403 C12.3746829,13.0593948 12.9796542,13.4299589 13.5967273,13.6331714 L13.8340175,14.6731416 L12.517057,16 L8.89838176,9.03100486 L5.27970647,12.6768771 L5.61191276,14.9958909 L4.62715853,15.9880463 L2.97799175,12.9996264 L0.0118645118,11.338065 L0.996500112,10.3459096 L3.29833349,10.6806126 L6.91700876,7.03474038 L0,3.38886815 L1.31696049,2.06200972 L9.883136,4.05827419 L13.5018112,0.412401942 C14.04746,-0.137467314 14.9372982,-0.137467314 15.4831842,0.412401942 C16.0289516,0.962271199 16.0289516,1.85879715 15.4831842,2.40866643 L11.864509,6.05453867 Z M15.5543238,4.45273363 C16.6339941,4.5603168 17.6899354,5.02651028 18.5204511,5.85131413 C20.406908,7.75194921 20.406908,10.8479522 18.5204511,12.7485872 C17.6187484,13.6570668 16.444162,14.135214 15.2458466,14.1710751 L15.1746595,13.8722331 C16.3255169,13.8602794 17.4526452,13.4179933 18.3187544,12.533421 C20.0984308,10.7403691 20.0984308,7.83562495 18.3187544,6.05452669 C17.4763743,5.20581547 16.3967039,4.7635293 15.2933046,4.71571461 L15.5543238,4.45273363 Z M16.8515655,10.95948 C16.374019,10.95948 15.9834394,10.5659649 15.9834394,10.0849488 L14.2471871,10.0849488 C14.2471871,10.5659649 13.8567261,10.95948 13.379061,10.95948 C12.9017518,10.95948 12.5110535,10.5659649 12.5110535,10.0849488 L11.9323028,10.0849488 L11.9323028,9.21029807 L13.379061,7.46099662 L16.2728148,7.46099662 L17.1408222,8.62719763 L17.719573,8.62719763 C18.0380164,8.62719763 18.2983237,8.88958086 18.2983237,9.21029807 L18.2983237,10.0849488 L17.719573,10.0849488 C17.719573,10.5659649 17.3288747,10.95948 16.8515655,10.95948 Z M15.1153132,7.89838175 L15.1153132,8.62719763 L16.6923438,8.62719763 L16.1280678,7.89838175 L15.1153132,7.89838175 Z M14.6813095,8.62719763 L14.6813095,7.89838175 L13.523808,7.89838175 L12.9450573,8.62719763 L14.6813095,8.62719763 Z M13.379061,10.5222144 C13.6251309,10.5222144 13.8130648,10.3327486 13.8130648,10.0849488 C13.8130648,9.83714904 13.6251309,9.64756367 13.379061,9.64756367 C13.1332284,9.64756367 12.9450573,9.83714904 12.9450573,10.0849488 C12.9450573,10.3327486 13.1332284,10.5222144 13.379061,10.5222144 Z M17.2855692,10.0849488 C17.2855692,9.83714904 17.0973981,9.64756367 16.8515655,9.64756367 C16.6056142,9.64756367 16.4175618,9.83714904 16.4175618,10.0849488 C16.4175618,10.3327486 16.6056142,10.5222144 16.8515655,10.5222144 C17.0973981,10.5222144 17.2855692,10.3327486 17.2855692,10.0849488 Z" id="path-1"></path>
    </defs>
    <g id="ZDS-icons" stroke="none" stroke-width="1" fill="none" fill-rule="evenodd">
        <g id="IconsSgeAbAviation">
            <g id="ic_ab_aviation">
                <g id="Icon-24px">
                    <polygon id="Shape" points="0 0 24 0 24 24 0 24"></polygon>
                    <g id="grayscale-/-black" transform="translate(2.000000, 4.000000)">
                        <mask id="mask-2" fill="white">
                            <use xlink:href="#path-1"></use>
                        </mask>
                        <use id="Mask" fill="#000000" fill-rule="nonzero" xlink:href="#path-1"></use>
                        <g mask="url(#mask-2)" fill="#000000" id="color-/-grayscale-/-black">
                            <g transform="translate(-2.000000, -4.000000)">
                                <rect x="0" y="0" width="24" height="24"></rect>
                            </g>
                        </g>
                    </g>
                </g>
            </g>
        </g>
    </g>
</svg>