<svg xmlns="http://www.w3.org/2000/svg" width="24" height="24" viewBox="0 0 24 24">
  <path fill="#131516" d="M18.6213152,15.919797 C19.0340136,15.919797 19.4331066,15.8649746 19.814059,15.7598985 L19.814059,20.9451777 L2,20.9451777 L2,11.9725888 L2.82086168,3.71725888 C2.861678,3.3106599 3.20181406,3 3.60544218,3 L4.84807256,3 C5.25170068,3 5.59183673,3.3106599 5.63265306,3.71725888 L6.45351474,11.9725888 L9.41043084,9.58781726 C10.0136054,9.1035533 10.9070295,9.53756345 10.9070295,10.3142132 L10.9070295,11.9725888 L13.8639456,9.58781726 C14.0589569,9.43248731 14.2857143,9.37309645 14.4988662,9.38680203 C14.2222222,9.97614213 14.0680272,10.6385787 14.0680272,11.3329949 C14.0680272,13.8685279 16.1088435,15.919797 18.6213152,15.919797 Z M7.34693878,19.1497462 L7.34693878,17.3543147 L3.78231293,17.3543147 L3.78231293,19.1497462 L7.34693878,19.1497462 Z M7.34693878,15.5634518 L7.34693878,13.7680203 L3.78231293,13.7680203 L3.78231293,15.5634518 L7.34693878,15.5634518 Z M12.6893424,19.1497462 L12.6893424,17.3543147 L9.12471655,17.3543147 L9.12471655,19.1497462 L12.6893424,19.1497462 Z M12.6893424,15.5634518 L12.6893424,13.7680203 L9.12471655,13.7680203 L9.12471655,15.5634518 L12.6893424,15.5634518 Z M18.031746,19.1497462 L18.031746,17.3543147 L14.4671202,17.3543147 L14.4671202,19.1497462 L18.031746,19.1497462 Z M18.6213152,8.60101523 C17.1247166,8.60101523 15.9092971,9.82538071 15.9092971,11.3329949 C15.9092971,12.8406091 17.1247166,14.0649746 18.6213152,14.0649746 C20.1179138,14.0649746 21.3333333,12.8406091 21.3333333,11.3329949 C21.3333333,9.82538071 20.1179138,8.60101523 18.6213152,8.60101523 Z M18.6213152,7.94771574 C20.4807256,7.94771574 21.9818594,9.46446701 21.9818594,11.3329949 C21.9818594,13.2015228 20.4761905,14.7182741 18.6213152,14.7182741 C16.7664399,14.7182741 15.260771,13.2015228 15.260771,11.3329949 C15.260771,9.46446701 16.7619048,7.94771574 18.6213152,7.94771574 Z M18.6213152,11.8675127 C18.9206349,11.8675127 19.1564626,11.6253807 19.1564626,11.3284264 C19.1564626,11.0314721 18.9160998,10.7893401 18.6213152,10.7893401 C18.3265306,10.7893401 18.0861678,11.0314721 18.0861678,11.3284264 C18.0861678,11.6253807 18.3265306,11.8675127 18.6213152,11.8675127 Z M19.7596372,11.4791878 L20.0816327,11.7350254 C20.1088435,11.757868 20.1179138,11.8035533 20.0997732,11.835533 L19.7959184,12.3700508 C19.7777778,12.4020305 19.7324263,12.415736 19.7006803,12.4020305 L19.3197279,12.2467005 C19.2380952,12.3060914 19.1564626,12.3563452 19.0612245,12.3974619 L19.0068027,12.8040609 C19.0022676,12.8406091 18.9659864,12.8680203 18.9297052,12.8680203 L18.3174603,12.8680203 C18.276644,12.8680203 18.244898,12.8406091 18.2403628,12.8040609 L18.185941,12.3974619 C18.0907029,12.3609137 18.0090703,12.3060914 17.9274376,12.2467005 L17.5464853,12.4020305 C17.5102041,12.415736 17.4693878,12.4020305 17.4512472,12.3700508 L17.1473923,11.835533 C17.1292517,11.7989848 17.138322,11.757868 17.1655329,11.7350254 L17.4875283,11.4791878 C17.4829932,11.428934 17.478458,11.3786802 17.478458,11.3284264 C17.478458,11.2781726 17.4829932,11.2233503 17.4875283,11.1730964 L17.1655329,10.9218274 C17.138322,10.8989848 17.1292517,10.8532995 17.1473923,10.8213198 L17.4512472,10.286802 C17.4693878,10.2548223 17.5147392,10.2411168 17.5464853,10.2548223 L17.9274376,10.4101523 C18.0090703,10.3507614 18.0907029,10.2959391 18.185941,10.2593909 L18.2403628,9.85279188 C18.244898,9.81624365 18.2811791,9.78883249 18.3174603,9.78883249 L18.9297052,9.78883249 C18.9705215,9.78883249 19.0022676,9.81624365 19.0068027,9.85279188 L19.0612245,10.2593909 C19.1564626,10.2959391 19.2380952,10.3507614 19.3197279,10.4101523 L19.7006803,10.2548223 C19.7369615,10.2411168 19.7777778,10.2548223 19.7959184,10.286802 L20.0997732,10.8213198 C20.1179138,10.857868 20.1088435,10.8989848 20.0816327,10.9218274 L19.7596372,11.1730964 C19.7641723,11.2279188 19.7687075,11.2781726 19.7687075,11.3284264 C19.7687075,11.3786802 19.7641723,11.428934 19.7596372,11.4791878 Z"/>
</svg>
