<?xml version="1.0" encoding="UTF-8"?>
<svg width="24px" height="24px" viewBox="0 0 24 24" version="1.1" xmlns="http://www.w3.org/2000/svg" xmlns:xlink="http://www.w3.org/1999/xlink">
    <!-- Generator: Sketch 53.2 (72643) - https://sketchapp.com -->
    <title>IconsSocialYoutube</title>
    <desc>Created with Sketch.</desc>
    <defs>
        <path d="M8,10 L13.19,7 L8,4 L8,10 L8,10 Z M19.56,2.17 C19.69,2.64 19.78,3.27 19.84,4.07 C19.91,4.87 19.94,5.56 19.94,6.16 L20,7 C20,9.19 19.84,10.8 19.56,11.83 C19.31,12.73 18.73,13.31 17.83,13.56 C17.36,13.69 16.5,13.78 15.18,13.84 C13.88,13.91 12.69,13.94 11.59,13.94 L10,14 C5.81,14 3.2,13.84 2.17,13.56 C1.27,13.31 0.69,12.73 0.44,11.83 C0.31,11.36 0.22,10.73 0.16,9.93 C0.09,9.13 0.06,8.44 0.06,7.84 L0,7 C0,4.81 0.16,3.2 0.44,2.17 C0.69,1.27 1.27,0.69 2.17,0.44 C2.64,0.31 3.5,0.22 4.82,0.16 C6.12,0.09 7.31,0.06 8.41,0.06 L10,0 C14.19,0 16.8,0.16 17.83,0.44 C18.73,0.69 19.31,1.27 19.56,2.17 Z" id="path-1"></path>
    </defs>
    <g id="ZDS-icons" stroke="none" stroke-width="1" fill="none" fill-rule="evenodd">
        <g id="IconsSocialYoutube">
            <g id="ic_youtube">
                <g id="Icon-24px">
                    <polygon id="Shape" points="0 0 24 0 24 24 0 24"></polygon>
                    <g id="grayscale-/-black" transform="translate(2.000000, 5.000000)">
                        <mask id="mask-2" fill="white">
                            <use xlink:href="#path-1"></use>
                        </mask>
                        <use id="Mask" fill="#000000" fill-rule="nonzero" xlink:href="#path-1"></use>
                        <g mask="url(#mask-2)" fill="#000000" id="color-/-grayscale-/-black">
                            <g transform="translate(-2.000000, -5.000000)">
                                <rect x="0" y="0" width="24" height="24"></rect>
                            </g>
                        </g>
                    </g>
                </g>
            </g>
        </g>
    </g>
</svg>