<svg xmlns="http://www.w3.org/2000/svg" width="24" height="24" viewBox="0 0 24 24">
  <path d="M11.83,9 L15,12.16 C15,12.11 15,12.05 15,12 C15,10.3431458 13.6568542,9 12,9 C11.94,9 11.89,9 11.83,9 L11.83,9 Z M7.53,9.8 L9.08,11.35 C9.03,11.56 9,11.77 9,12 C9,13.6568542 10.3431458,15 12,15 C12.22,15 12.44,14.97 12.65,14.92 L14.2,16.47 C13.53,16.8 12.79,17 12,17 C9.23857625,17 7,14.7614237 7,12 C7,11.21 7.2,10.47 7.53,9.8 L7.53,9.8 Z M2,4.27 L4.28,6.55 L4.73,7 C3.08,8.3 1.78,10 1,12 C2.73,16.39 7,19.5 12,19.5 C13.55,19.5 15.03,19.2 16.38,18.66 L16.81,19.08 L19.73,22 L21,20.73 L3.27,3 L2,4.27 Z M12,7 C14.7614237,7 17,9.23857625 17,12 C17,12.64 16.87,13.26 16.64,13.82 L19.57,16.75 C21.07,15.5 22.27,13.86 23,12 C21.27,7.61 17,4.5 12,4.5 C10.6,4.5 9.26,4.75 8,5.2 L10.17,7.35 C10.74,7.13 11.35,7 12,7 Z"/>
</svg>
