<svg xmlns="http://www.w3.org/2000/svg" width="24" height="24" viewBox="0 0 24 24">
  <path fill="#131516" fill-rule="evenodd" d="M2.58784313,6.89542444 C1.14919931,8.34050936 1.14919931,10.6913996 2.58784313,12.1175174 C4.02699747,13.5626023 6.36823969,13.5626023 7.78850481,12.1175174 C9.22765915,10.6719199 9.22765915,8.32102968 7.78850481,6.89542444 C6.34883995,5.45033952 4.02699747,5.45033952 2.58784313,6.89542444 Z M8.14331583,12.4830178 C6.51220618,14.1213617 3.86414177,14.1213617 2.22333224,12.4830178 C0.592222586,10.8359593 0.592222586,8.17698255 2.22333224,6.53915129 C3.8544419,4.9008074 6.50250631,4.9008074 8.14331583,6.53915129 C9.77442549,8.17698255 9.77442549,10.8359593 8.14331583,12.4830178 Z M11.6161755,5.92272184 L10.2883144,5.92272184 L10.5435741,7.05049297 L11.8714352,7.05049297 L11.6161755,5.92272184 Z M12.2798508,8.94771159 L11.9730286,7.51185389 L10.6461885,7.51185389 L10.9519897,8.94771159 L12.2798508,8.94771159 Z M14.0151064,5.92272184 L12.0751325,5.92272184 L12.3303922,7.05049297 L14.2703661,7.05049297 L14.2703661,6.99923065 L14.2203352,6.84544367 L14.1687727,6.53786973 L14.1687727,6.4866074 L14.0151064,5.92272184 Z M14.7808856,8.94771159 L14.4240325,7.51185389 L12.483548,7.51185389 L12.7903702,8.94771159 L14.7808856,8.94771159 Z M10.6135153,9.84480227 C10.7059193,8.33358895 10.1841684,6.79366873 9.03703119,5.6418043 C8.98444768,5.58900411 8.92675899,5.54338064 8.87264392,5.49314356 L8.90991184,5.30757395 C8.96147431,5.10303727 9.11463014,5 9.26727546,5 L14.832448,5 C15.0877078,5 15.2413741,5.25631162 15.1898116,5.46136092 L14.832448,6.4866074 L16.3124439,11.9716761 L15.4450714,11.7671394 L14.832448,9.51108454 L12.7903702,9.51108454 L13.1477338,10.9464296 L12.6372144,10.7418929 L12.3303922,9.51108454 L11.0035521,9.51108454 L11.156708,10.2292697 L10.6461885,10.0237078 L10.6135153,9.84480227 Z M14.220131,18.1230525 C14.7811919,18.1230525 15.2411699,17.6627168 15.2411699,17.097806 C15.2411699,16.5339204 14.7811919,16.0725595 14.220131,16.0725595 C13.6580491,16.0725595 13.1985816,16.5339204 13.1985816,17.097806 C13.1985816,17.6627168 13.6580491,18.1230525 14.220131,18.1230525 Z M14.220131,14.843289 C15.4448672,14.843289 16.4659061,15.8685355 16.4659061,17.097806 C16.4659061,18.3281018 15.4448672,19.3533483 14.220131,19.3533483 C12.9943738,19.3533483 11.9733349,18.3281018 11.9733349,17.097806 C11.9733349,15.8685355 12.9943738,14.843289 14.220131,14.843289 Z M21.9796183,16.9441216 L22.693835,17.5085198 L17.8439002,18.123155 C17.3849432,18.17493 17.0280901,17.8668434 16.9254757,17.4567448 L16.9254757,17.0979085 C16.9254757,16.124437 16.3639043,15.2524649 15.5981251,14.7911039 L15.5981251,13.7145951 L10.1554772,11.7312558 C10.3474325,11.2960387 10.4806781,10.8428797 10.5547034,10.3799809 L17.3849432,12.8431356 L17.3849432,13.8683821 L17.5886405,13.8683821 L21.1622766,17.0466462 L21.9796183,16.9441216 Z M5.82050337,14.9386882 C5.35848326,15.2847089 5.00367224,15.7686252 4.82601147,16.3289224 L3.49866089,16.0213485 L2.73288171,15.2524136 L2.83141196,14.4378553 C3.77025724,14.8884511 4.80814329,15.0565915 5.82050337,14.9386882 Z M14.220131,14.3810053 C12.7391141,14.3810053 11.5138674,15.6118138 11.5138674,17.0979085 C11.5138674,17.4059951 11.5649193,17.6623067 11.6159713,17.969368 L9.98230901,17.969368 C10.0844129,17.7130564 10.1354648,17.4567448 10.1354648,17.1496835 C10.1354648,15.9188751 9.26758177,14.8428789 8.14443897,14.5347923 L8.09338703,14.48353 L8.09338703,14.1339209 C8.42777727,13.9216949 8.74532037,13.6730726 9.0373375,13.3803648 C9.40031683,13.0138392 9.69641811,12.6063037 9.9348307,12.1757002 L15.1896074,14.073944 L15.1896074,14.5865673 C14.8832958,14.4327803 14.5769841,14.3810053 14.220131,14.3810053 Z M7.48066158,18.1230525 C8.0427435,18.1230525 8.50170049,17.6627168 8.50170049,17.097806 C8.50170049,16.5339204 8.0427435,16.0725595 7.48066158,16.0725595 C6.91909018,16.0725595 6.45962267,16.5339204 6.45962267,17.097806 C6.45962267,17.6627168 6.91909018,18.1230525 7.48066158,18.1230525 Z M7.42960963,14.843289 C8.65485632,14.843289 9.67589523,15.8685355 9.67589523,17.097806 C9.67589523,18.3281018 8.70590827,19.3533483 7.42960963,19.3533483 C6.20436294,19.3533483 5.18332404,18.3281018 5.18332404,17.097806 C5.18332404,15.8685355 6.20436294,14.843289 7.42960963,14.843289 Z M4.01482241,11.1698035 C4.13247386,11.0915229 4.18584245,10.9291715 4.13892784,10.7913187 C4.12454131,10.7458214 4.11225117,10.7284737 4.05267525,10.6677837 C3.99143857,10.6055161 3.97758983,10.5958275 3.92982646,10.5810262 C3.86507782,10.5598599 3.76916599,10.5620376 3.70470666,10.5849534 C3.66728761,10.5985728 3.64335697,10.6149202 3.59386395,10.6640289 C3.53949078,10.7176415 3.52865164,10.7341337 3.51040676,10.7855071 C3.48456146,10.8592856 3.48856382,10.9598415 3.51996466,11.0296954 C3.54300571,11.0840442 3.61408763,11.1629128 3.65925011,11.1884802 C3.77215149,11.2494001 3.90911799,11.2420991 4.01482241,11.1698035 Z M5.4337551,10.2589416 C5.46103517,10.3712095 5.47322199,10.4867887 5.4681288,10.6026566 C5.44967269,11.2803665 4.88850509,11.8282938 4.21491616,11.8285207 C3.93506827,11.8283643 3.68890704,11.7461201 3.45530492,11.5774765 C3.36539407,11.5125529 3.1971376,11.3293993 3.13750363,11.2327259 C2.88151027,10.8174731 2.87832566,10.3042048 3.12784533,9.89862068 C3.28966552,9.63569762 3.52959796,9.45453953 3.85004129,9.35427336 C4.05019144,9.29069854 4.28276537,9.28187615 4.49897678,9.32810623 C4.57165928,9.3442027 4.62983798,9.3503035 4.64872283,9.3439755 C4.67515431,9.33599179 4.80250798,9.21272021 5.67273672,8.35264268 L6.66665661,7.37117213 L7.00731099,7.35628853 C7.19463206,7.34702564 7.35176664,7.34438556 7.35692428,7.34960012 C7.36439776,7.3566994 7.29789422,8.16809333 7.28720351,8.19544189 C7.28407664,8.20476281 7.1925749,8.20860852 7.04276537,8.20749145 C6.70614139,8.20508796 6.71559727,8.19673661 6.71264229,8.52894414 L6.71009505,8.76226375 L6.47789867,8.76167484 C6.33568202,8.76052181 6.23597859,8.76571612 6.22054436,8.77406134 C6.15746075,8.81120547 6.15496205,8.8312082 6.15254814,9.12012254 L6.15063119,9.39249034 L5.7937647,9.74495221 C5.37564315,10.1589867 5.40197999,10.1193971 5.4337551,10.2589416 Z"/>
</svg>
