<svg xmlns="http://www.w3.org/2000/svg" width="24" height="24" viewBox="0 0 24 24">
  <g fill="none" transform="translate(2 2)">
    <polygon fill="#F93" points="0 0 20 0 20 6.668 0 6.668"/>
    <polygon fill="#FFF" points="0 6.668 20 6.668 20 13.332 0 13.332"/>
    <polygon fill="#128807" points="0 13.332 20 13.332 20 20 0 20"/>
    <g transform="translate(4.933 3.733)">
      <circle cx="5.067" cy="6.267" r="2.667" fill="#008"/>
      <circle cx="5.067" cy="6.267" r="2.333" fill="#FFF"/>
      <circle cx="5.067" cy="6.267" r="1" fill="#008"/>
      <g fill="#008" transform="translate(.4 4)">
        <g transform="translate(2.4 1.867)">
          <g transform="translate(1.467 .4)">
            <g transform="translate(.667 .133)">
              <circle cx="2.447" cy=".172" r="1" transform="rotate(7.5 2.447 .172)"/>
              <polygon points=".133 2.2 .213 .8 .133 .133 .053 .8"/>
            </g>
            <g transform="rotate(15 -.04 2.465)">
              <circle cx="2.447" cy=".172" r="1" transform="rotate(7.5 2.447 .172)"/>
              <polygon points=".133 2.2 .213 .8 .133 .133 .053 .8"/>
            </g>
          </g>
          <g transform="rotate(30 .787 2.937)">
            <g transform="translate(.667 .133)">
              <circle cx="2.447" cy=".172" r="1" transform="rotate(7.5 2.447 .172)"/>
              <polygon points=".133 2.2 .213 .8 .133 .133 .053 .8"/>
            </g>
            <g transform="rotate(15 -.04 2.465)">
              <circle cx="2.447" cy=".172" r="1" transform="rotate(7.5 2.447 .172)"/>
              <polygon points=".133 2.2 .213 .8 .133 .133 .053 .8"/>
            </g>
          </g>
        </g>
        <g transform="rotate(60 1.85 3.412)">
          <g transform="translate(1.467 .4)">
            <g transform="translate(.667 .133)">
              <circle cx="2.447" cy=".172" r="1" transform="rotate(7.5 2.447 .172)"/>
              <polygon points=".133 2.2 .213 .8 .133 .133 .053 .8"/>
            </g>
            <g transform="rotate(15 -.04 2.465)">
              <circle cx="2.447" cy=".172" r="1" transform="rotate(7.5 2.447 .172)"/>
              <polygon points=".133 2.2 .213 .8 .133 .133 .053 .8"/>
            </g>
          </g>
          <g transform="rotate(30 .787 2.937)">
            <g transform="translate(.667 .133)">
              <circle cx="2.447" cy=".172" r="1" transform="rotate(7.5 2.447 .172)"/>
              <polygon points=".133 2.2 .213 .8 .133 .133 .053 .8"/>
            </g>
            <g transform="rotate(15 -.04 2.465)">
              <circle cx="2.447" cy=".172" r="1" transform="rotate(7.5 2.447 .172)"/>
              <polygon points=".133 2.2 .213 .8 .133 .133 .053 .8"/>
            </g>
          </g>
        </g>
      </g>
      <g fill="#008" transform="rotate(120 3.712 4.382)">
        <g transform="translate(2.4 1.867)">
          <g transform="translate(1.467 .4)">
            <g transform="translate(.667 .133)">
              <circle cx="2.447" cy=".172" r="1" transform="rotate(7.5 2.447 .172)"/>
              <polygon points=".133 2.2 .213 .8 .133 .133 .053 .8"/>
            </g>
            <g transform="rotate(15 -.04 2.465)">
              <circle cx="2.447" cy=".172" r="1" transform="rotate(7.5 2.447 .172)"/>
              <polygon points=".133 2.2 .213 .8 .133 .133 .053 .8"/>
            </g>
          </g>
          <g transform="rotate(30 .787 2.937)">
            <g transform="translate(.667 .133)">
              <circle cx="2.447" cy=".172" r="1" transform="rotate(7.5 2.447 .172)"/>
              <polygon points=".133 2.2 .213 .8 .133 .133 .053 .8"/>
            </g>
            <g transform="rotate(15 -.04 2.465)">
              <circle cx="2.447" cy=".172" r="1" transform="rotate(7.5 2.447 .172)"/>
              <polygon points=".133 2.2 .213 .8 .133 .133 .053 .8"/>
            </g>
          </g>
        </g>
        <g transform="rotate(60 1.85 3.412)">
          <g transform="translate(1.467 .4)">
            <g transform="translate(.667 .133)">
              <circle cx="2.447" cy=".172" r="1" transform="rotate(7.5 2.447 .172)"/>
              <polygon points=".133 2.2 .213 .8 .133 .133 .053 .8"/>
            </g>
            <g transform="rotate(15 -.04 2.465)">
              <circle cx="2.447" cy=".172" r="1" transform="rotate(7.5 2.447 .172)"/>
              <polygon points=".133 2.2 .213 .8 .133 .133 .053 .8"/>
            </g>
          </g>
          <g transform="rotate(30 .787 2.937)">
            <g transform="translate(.667 .133)">
              <circle cx="2.447" cy=".172" r="1" transform="rotate(7.5 2.447 .172)"/>
              <polygon points=".133 2.2 .213 .8 .133 .133 .053 .8"/>
            </g>
            <g transform="rotate(15 -.04 2.465)">
              <circle cx="2.447" cy=".172" r="1" transform="rotate(7.5 2.447 .172)"/>
              <polygon points=".133 2.2 .213 .8 .133 .133 .053 .8"/>
            </g>
          </g>
        </g>
      </g>
      <g fill="#008" transform="rotate(-120 6.021 4.151)">
        <g transform="translate(2.4 1.867)">
          <g transform="translate(1.467 .4)">
            <g transform="translate(.667 .133)">
              <circle cx="2.447" cy=".172" r="1" transform="rotate(7.5 2.447 .172)"/>
              <polygon points=".133 2.2 .213 .8 .133 .133 .053 .8"/>
            </g>
            <g transform="rotate(15 -.04 2.465)">
              <circle cx="2.447" cy=".172" r="1" transform="rotate(7.5 2.447 .172)"/>
              <polygon points=".133 2.2 .213 .8 .133 .133 .053 .8"/>
            </g>
          </g>
          <g transform="rotate(30 .787 2.937)">
            <g transform="translate(.667 .133)">
              <circle cx="2.447" cy=".172" r="1" transform="rotate(7.5 2.447 .172)"/>
              <polygon points=".133 2.2 .213 .8 .133 .133 .053 .8"/>
            </g>
            <g transform="rotate(15 -.04 2.465)">
              <circle cx="2.447" cy=".172" r="1" transform="rotate(7.5 2.447 .172)"/>
              <polygon points=".133 2.2 .213 .8 .133 .133 .053 .8"/>
            </g>
          </g>
        </g>
        <g transform="rotate(60 1.85 3.412)">
          <g transform="translate(1.467 .4)">
            <g transform="translate(.667 .133)">
              <circle cx="2.447" cy=".172" r="1" transform="rotate(7.5 2.447 .172)"/>
              <polygon points=".133 2.2 .213 .8 .133 .133 .053 .8"/>
            </g>
            <g transform="rotate(15 -.04 2.465)">
              <circle cx="2.447" cy=".172" r="1" transform="rotate(7.5 2.447 .172)"/>
              <polygon points=".133 2.2 .213 .8 .133 .133 .053 .8"/>
            </g>
          </g>
          <g transform="rotate(30 .787 2.937)">
            <g transform="translate(.667 .133)">
              <circle cx="2.447" cy=".172" r="1" transform="rotate(7.5 2.447 .172)"/>
              <polygon points=".133 2.2 .213 .8 .133 .133 .053 .8"/>
            </g>
            <g transform="rotate(15 -.04 2.465)">
              <circle cx="2.447" cy=".172" r="1" transform="rotate(7.5 2.447 .172)"/>
              <polygon points=".133 2.2 .213 .8 .133 .133 .053 .8"/>
            </g>
          </g>
        </g>
      </g>
    </g>
  </g>
</svg>
