<?xml version="1.0" encoding="UTF-8"?>
<svg width="24px" height="24px" viewBox="0 0 24 24" version="1.1" xmlns="http://www.w3.org/2000/svg" xmlns:xlink="http://www.w3.org/1999/xlink">
    <!-- Generator: Sketch 53.2 (72643) - https://sketchapp.com -->
    <title>IconsMiscActionCopy</title>
    <desc>Created with Sketch.</desc>
    <defs>
        <path d="M17,20 L6,20 L6,6 L17,6 L17,20 Z M17,4 L6,4 C4.8954305,4 4,4.8954305 4,6 L4,20 C4,21.1045695 4.8954305,22 6,22 L17,22 C18.1045695,22 19,21.1045695 19,20 L19,6 C19,4.8954305 18.1045695,4 17,4 L17,4 Z M14,0 L2,0 C0.8954305,-1.11022302e-16 0,0.8954305 0,2 L0,16 L2,16 L2,2 L14,2 L14,0 Z" id="path-1"></path>
    </defs>
    <g id="ZDS-icons" stroke="none" stroke-width="1" fill="none" fill-rule="evenodd">
        <g id="IconsMiscActionCopy">
            <g id="ic_copy">
                <g id="Icon-24px">
                    <polygon id="Shape" points="0 0 24 0 24 24 0 24"></polygon>
                    <g id="grayscale-/-black" transform="translate(3.000000, 1.000000)">
                        <mask id="mask-2" fill="white">
                            <use xlink:href="#path-1"></use>
                        </mask>
                        <use id="Mask" fill="#000000" fill-rule="nonzero" xlink:href="#path-1"></use>
                        <g mask="url(#mask-2)" fill="#000000" id="color-/-grayscale-/-black">
                            <g transform="translate(-3.000000, -1.000000)">
                                <rect x="0" y="0" width="24" height="24"></rect>
                            </g>
                        </g>
                    </g>
                </g>
            </g>
        </g>
    </g>
</svg>