<?xml version="1.0" encoding="UTF-8"?>
<svg width="24px" height="24px" viewBox="0 0 24 24" version="1.1" xmlns="http://www.w3.org/2000/svg" xmlns:xlink="http://www.w3.org/1999/xlink">
    <!-- Generator: Sketch 53.2 (72643) - https://sketchapp.com -->
    <title>IconsSgeRentalRent</title>
    <desc>Created with Sketch.</desc>
    <defs>
        <path d="M1.58784313,1.89542444 C0.14919931,3.34050936 0.14919931,5.69139956 1.58784313,7.11751742 C3.02699747,8.56260234 5.36823969,8.56260234 6.78850481,7.11751742 C8.22765915,5.67191987 8.22765915,3.32102968 6.78850481,1.89542444 C5.34883995,0.450339519 3.02699747,0.450339519 1.58784313,1.89542444 Z M7.14331583,7.48301779 C5.51220618,9.12136168 2.86414177,9.12136168 1.22333224,7.48301779 C-0.407777414,5.83595931 -0.407777414,3.17698255 1.22333224,1.53915129 C2.8544419,-0.0991925975 5.50250631,-0.0991925975 7.14331583,1.53915129 C8.77442549,3.17698255 8.77442549,5.83595931 7.14331583,7.48301779 Z M10.6161755,0.922721837 L9.28831437,0.922721837 L9.5435741,2.05049297 L10.8714352,2.05049297 L10.6161755,0.922721837 Z M11.2798508,3.94771159 L10.9730286,2.51185389 L9.64618851,2.51185389 L9.95198966,3.94771159 L11.2798508,3.94771159 Z M13.0151064,0.922721837 L11.0751325,0.922721837 L11.3303922,2.05049297 L13.2703661,2.05049297 L13.2703661,1.99923065 L13.2203352,1.84544367 L13.1687727,1.53786973 L13.1687727,1.4866074 L13.0151064,0.922721837 Z M13.7808856,3.94771159 L13.4240325,2.51185389 L11.483548,2.51185389 L11.7903702,3.94771159 L13.7808856,3.94771159 Z M9.61351526,4.84480227 C9.70591928,3.33358895 9.1841684,1.79366873 8.03703119,0.6418043 C7.98444768,0.589004106 7.92675899,0.543380638 7.87264392,0.49314356 L7.90991184,0.307573946 C7.96147431,0.103037272 8.11463014,3.55271368e-15 8.26727546,3.55271368e-15 L13.832448,3.55271368e-15 C14.0877078,3.55271368e-15 14.2413741,0.256311622 14.1898116,0.461360919 L13.832448,1.4866074 L15.3124439,6.97167611 L14.4450714,6.76713943 L13.832448,4.51108454 L11.7903702,4.51108454 L12.1477338,5.94642962 L11.6372144,5.74189295 L11.3303922,4.51108454 L10.0035521,4.51108454 L10.156708,5.2292697 L9.64618851,5.02370778 L9.61351526,4.84480227 Z M13.220131,13.1230525 C13.7811919,13.1230525 14.2411699,12.6627168 14.2411699,12.097806 C14.2411699,11.5339204 13.7811919,11.0725595 13.220131,11.0725595 C12.6580491,11.0725595 12.1985816,11.5339204 12.1985816,12.097806 C12.1985816,12.6627168 12.6580491,13.1230525 13.220131,13.1230525 Z M13.220131,9.84328899 C14.4448672,9.84328899 15.4659061,10.8685355 15.4659061,12.097806 C15.4659061,13.3281018 14.4448672,14.3533483 13.220131,14.3533483 C11.9943738,14.3533483 10.9733349,13.3281018 10.9733349,12.097806 C10.9733349,10.8685355 11.9943738,9.84328899 13.220131,9.84328899 Z M20.9796183,11.9441216 L21.693835,12.5085198 L16.8439002,13.123155 C16.3849432,13.17493 16.0280901,12.8668434 15.9254757,12.4567448 L15.9254757,12.0979085 C15.9254757,11.124437 15.3639043,10.2524649 14.5981251,9.79110394 L14.5981251,8.71459513 L9.15547721,6.7312558 C9.34743252,6.29603867 9.4806781,5.84287972 9.55470342,5.37998094 L16.3849432,7.84313562 L16.3849432,8.8683821 L16.5886405,8.8683821 L20.1622766,12.0466462 L20.9796183,11.9441216 Z M4.82050337,9.93868817 C4.35848326,10.2847089 4.00367224,10.7686252 3.82601147,11.3289224 L2.49866089,11.0213485 L1.73288171,10.2524136 L1.83141196,9.43785527 C2.77025724,9.8884511 3.80814329,10.0565915 4.82050337,9.93868817 Z M13.220131,9.38100535 C11.7391141,9.38100535 10.5138674,10.6118138 10.5138674,12.0979085 C10.5138674,12.4059951 10.5649193,12.6623067 10.6159713,12.969368 L8.98230901,12.969368 C9.0844129,12.7130564 9.13546485,12.4567448 9.13546485,12.1496835 C9.13546485,10.9188751 8.26758177,9.84287889 7.14443897,9.53479232 L7.09338703,9.48353 L7.09338703,9.13392094 C7.42777727,8.92169492 7.74532037,8.67307265 8.0373375,8.38036478 C8.40031683,8.01383916 8.69641811,7.60630368 8.9348307,7.17570016 L14.1896074,9.07394403 L14.1896074,9.58656727 C13.8832958,9.4327803 13.5769841,9.38100535 13.220131,9.38100535 Z M6.48066158,13.1230525 C7.0427435,13.1230525 7.50170049,12.6627168 7.50170049,12.097806 C7.50170049,11.5339204 7.0427435,11.0725595 6.48066158,11.0725595 C5.91909018,11.0725595 5.45962267,11.5339204 5.45962267,12.097806 C5.45962267,12.6627168 5.91909018,13.1230525 6.48066158,13.1230525 Z M6.42960963,9.84328899 C7.65485632,9.84328899 8.67589523,10.8685355 8.67589523,12.097806 C8.67589523,13.3281018 7.70590827,14.3533483 6.42960963,14.3533483 C5.20436294,14.3533483 4.18332404,13.3281018 4.18332404,12.097806 C4.18332404,10.8685355 5.20436294,9.84328899 6.42960963,9.84328899 Z M3.01482241,6.16980347 C3.13247386,6.0915229 3.18584245,5.92917149 3.13892784,5.79131869 C3.12454131,5.74582139 3.11225117,5.72847374 3.05267525,5.66778374 C2.99143857,5.60551612 2.97758983,5.59582755 2.92982646,5.58102618 C2.86507782,5.55985993 2.76916599,5.56203765 2.70470666,5.5849534 C2.66728761,5.59857282 2.64335697,5.61492017 2.59386395,5.66402893 C2.53949078,5.71764152 2.52865164,5.73413366 2.51040676,5.78550708 C2.48456146,5.85928563 2.48856382,5.95984155 2.51996466,6.0296954 C2.54300571,6.0840442 2.61408763,6.16291277 2.65925011,6.18848018 C2.77215149,6.24940011 2.90911799,6.24209911 3.01482241,6.16980347 Z M4.4337551,5.25894161 C4.46103517,5.37120947 4.47322199,5.48678872 4.4681288,5.60265664 C4.44967269,6.2803665 3.88850509,6.82829383 3.21491616,6.82852065 C2.93506827,6.82836429 2.68890704,6.74612014 2.45530492,6.57747651 C2.36539407,6.5125529 2.1971376,6.32939927 2.13750363,6.23272593 C1.88151027,5.81747315 1.87832566,5.30420476 2.12784533,4.89862068 C2.28966552,4.63569762 2.52959796,4.45453953 2.85004129,4.35427336 C3.05019144,4.29069854 3.28276537,4.28187615 3.49897678,4.32810623 C3.57165928,4.3442027 3.62983798,4.3503035 3.64872283,4.3439755 C3.67515431,4.33599179 3.80250798,4.21272021 4.67273672,3.35264268 L5.66665661,2.37117213 L6.00731099,2.35628853 C6.19463206,2.34702564 6.35176664,2.34438556 6.35692428,2.34960012 C6.36439776,2.3566994 6.29789422,3.16809333 6.28720351,3.19544189 C6.28407664,3.20476281 6.1925749,3.20860852 6.04276537,3.20749145 C5.70614139,3.20508796 5.71559727,3.19673661 5.71264229,3.52894414 L5.71009505,3.76226375 L5.47789867,3.76167484 C5.33568202,3.76052181 5.23597859,3.76571612 5.22054436,3.77406134 C5.15746075,3.81120547 5.15496205,3.8312082 5.15254814,4.12012254 L5.15063119,4.39249034 L4.7937647,4.74495221 C4.37564315,5.15898669 4.40197999,5.11939714 4.4337551,5.25894161 Z" id="path-1"></path>
    </defs>
    <g id="ZDS-icons" stroke="none" stroke-width="1" fill="none" fill-rule="evenodd">
        <g id="IconsSgeRentalRent">
            <g id="ic_rental_rent">
                <g id="Icon-24px">
                    <polygon id="Shape" points="0 0 24 0 24 24 0 24"></polygon>
                    <g id="grayscale-/-black" transform="translate(1.000000, 5.000000)">
                        <mask id="mask-2" fill="white">
                            <use xlink:href="#path-1"></use>
                        </mask>
                        <use id="Mask" fill="#131516" xlink:href="#path-1"></use>
                        <g mask="url(#mask-2)" fill="#000000" id="color-/-grayscale-/-black">
                            <g transform="translate(-1.000000, -5.000000)">
                                <rect x="0" y="0" width="24" height="24"></rect>
                            </g>
                        </g>
                    </g>
                </g>
            </g>
        </g>
    </g>
</svg>