<?xml version="1.0" encoding="UTF-8"?>
<svg width="24px" height="24px" viewBox="0 0 24 24" version="1.1" xmlns="http://www.w3.org/2000/svg" xmlns:xlink="http://www.w3.org/1999/xlink">
    <!-- Generator: Sketch 53.2 (72643) - https://sketchapp.com -->
    <title>IconsMiscActionGlobal</title>
    <desc>Created with Sketch.</desc>
    <defs>
        <path d="M15.9,15.39 C15.64,14.59 14.89,14 14,14 L13,14 L13,11 C13,10.4477153 12.5522847,10 12,10 L6,10 L6,8 L8,8 C8.55228475,8 9,7.55228475 9,7 L9,5 L11,5 C12.1045695,5 13,4.1045695 13,3 L13,2.59 C15.93,3.77 18,6.64 18,10 C18,12.08 17.2,13.97 15.9,15.39 L15.9,15.39 Z M9,17.93 C5.05,17.44 2,14.08 2,10 C2,9.38 2.08,8.78 2.21,8.21 L7,13 L7,14 C7,15.1045695 7.8954305,16 9,16 L9,17.93 Z M10,4.4408921e-16 C4.4771525,-1.77635684e-15 4.4408921e-16,4.4771525 0,10 C-1.33226763e-15,12.6521649 1.0535684,15.195704 2.92893219,17.0710678 C4.80429597,18.9464316 7.3478351,20 10,20 C12.6521649,20 15.195704,18.9464316 17.0710678,17.0710678 C18.9464316,15.195704 20,12.6521649 20,10 C20,7.3478351 18.9464316,4.80429597 17.0710678,2.92893219 C15.195704,1.0535684 12.6521649,2.22044605e-16 10,4.4408921e-16 Z" id="path-1"></path>
    </defs>
    <g id="ZDS-icons" stroke="none" stroke-width="1" fill="none" fill-rule="evenodd">
        <g id="IconsMiscActionGlobal">
            <g id="ic_global">
                <g id="Icon-24px">
                    <polygon id="Shape" points="0 0 24 0 24 24 0 24"></polygon>
                    <g id="grayscale-/-black" transform="translate(2.000000, 2.000000)">
                        <mask id="mask-2" fill="white">
                            <use xlink:href="#path-1"></use>
                        </mask>
                        <use id="Mask" fill="#000000" fill-rule="nonzero" xlink:href="#path-1"></use>
                        <g mask="url(#mask-2)" fill="#000000" id="color-/-grayscale-/-black">
                            <g transform="translate(-2.000000, -2.000000)">
                                <rect x="0" y="0" width="24" height="24"></rect>
                            </g>
                        </g>
                    </g>
                </g>
            </g>
        </g>
    </g>
</svg>