<?xml version="1.0" encoding="UTF-8"?>
<svg width="24px" height="24px" viewBox="0 0 24 24" version="1.1" xmlns="http://www.w3.org/2000/svg" xmlns:xlink="http://www.w3.org/1999/xlink">
    <!-- Generator: Sketch 53.2 (72643) - https://sketchapp.com -->
    <title>IconsSgeAbProducts</title>
    <desc>Created with Sketch.</desc>
    <defs>
        <path d="M9.94031891,10.73125 C8.78747153,10.73125 7.8546697,9.78948864 7.8546697,8.62556818 C7.8546697,7.46164773 8.78747153,6.51988636 9.94031891,6.51988636 C11.0931663,6.51988636 12.0259681,7.46164773 12.0259681,8.62556818 C12.0259681,9.78948864 11.0931663,10.73125 9.94031891,10.73125 Z M17.4123007,8.43721591 C17.7567198,8.43721591 18.0963554,8.39857955 18.4168565,8.32130682 L18.4168565,11.0065341 L17.2640091,11.0065341 L15.7332574,14.1795455 L15.0013667,14.1795455 C13.6667426,15.4159091 11.8920273,16.1693182 9.94031891,16.1693182 C8.4191344,16.1693182 7.00318907,15.7105114 5.82164009,14.9232955 L4.1856492,15.8698864 L4.53963554,16.4928977 L3.6738041,16.9951705 L0.143507973,10.7698864 L1.00933941,10.2676136 L1.49726651,11.1224432 L2.67881549,10.4414773 C2.53530752,9.85710227 2.45876993,9.24857955 2.45876993,8.62073864 C2.45876993,8.59176136 2.45876993,8.56278409 2.45876993,8.53380682 L1.0284738,8.53380682 L1.0284738,9.25340909 L0.0334851936,9.25340909 L0.0334851936,2.07670455 L1.0284738,2.07670455 L1.0284738,3.06193182 L4.87448747,3.06193182 C5.72118451,2.27471591 6.74487472,1.68551136 7.8833713,1.35710227 L7.8833713,0.854829545 L11.9924829,0.854829545 L11.9924829,1.36193182 C12.3321185,1.45852273 12.6621868,1.57926136 12.9779043,1.72414773 C12.743508,2.29886364 12.6095672,2.92670455 12.6095672,3.58835227 C12.6095672,4.05681818 12.6765376,4.50596591 12.8009112,4.93579545 C12.0116173,4.31278409 11.0214123,3.94090909 9.94031891,3.94090909 C7.37630979,3.94090909 5.30022779,6.03693182 5.30022779,8.62556818 C5.30022779,11.2142045 7.37630979,13.3102273 9.94031891,13.3102273 C12.504328,13.3102273 14.58041,11.2142045 14.58041,8.62556818 C14.58041,8.19090909 14.5230068,7.77556818 14.4129841,7.37471591 C15.2357631,8.03636364 16.2785877,8.43721591 17.4123007,8.43721591 Z M17.4123007,0.700284091 C15.833713,0.700284091 14.5517084,1.99460227 14.5517084,3.58835227 C14.5517084,5.18210227 15.833713,6.47642045 17.4123007,6.47642045 C18.9908884,6.47642045 20.2728929,5.18210227 20.2728929,3.58835227 C20.2728929,1.99460227 18.9908884,0.700284091 17.4123007,0.700284091 Z M17.4123007,0.00965909091 C19.3735763,0.00965909091 20.9617312,1.60823864 20.9569476,3.58835227 C20.9569476,5.56363636 19.3687927,7.16704545 17.4123007,7.16704545 C15.4558087,7.16704545 13.8676538,5.56363636 13.8676538,3.58835227 C13.8676538,1.61306818 15.4558087,0.00965909091 17.4123007,0.00965909091 Z M17.4123007,4.15340909 C17.7232346,4.15340909 17.9767654,3.89744318 17.9767654,3.58352273 C17.9767654,3.26960227 17.7232346,3.01363636 17.4123007,3.01363636 C17.1013667,3.01363636 16.847836,3.26960227 16.847836,3.58352273 C16.847836,3.89744318 17.1013667,4.15340909 17.4123007,4.15340909 Z M18.6129841,3.74289773 L18.9526196,4.01335227 C18.9813212,4.0375 18.9908884,4.08579545 18.971754,4.11960227 L18.6512528,4.68465909 C18.6321185,4.71846591 18.5842825,4.73295455 18.5507973,4.71846591 L18.1489749,4.55426136 C18.0628702,4.61704545 17.9767654,4.67017045 17.8763098,4.71363636 L17.8189066,5.14346591 C17.814123,5.18210227 17.7758542,5.21107955 17.7375854,5.21107955 L17.0917995,5.21107955 C17.0487472,5.21107955 17.015262,5.18210227 17.0104784,5.14346591 L16.9530752,4.71363636 C16.8526196,4.675 16.7665148,4.61704545 16.68041,4.55426136 L16.2785877,4.71846591 C16.2403189,4.73295455 16.1972665,4.71846591 16.1781321,4.68465909 L15.857631,4.11960227 C15.8384966,4.08096591 15.8480638,4.0375 15.8767654,4.01335227 L16.2164009,3.74289773 C16.2116173,3.68977273 16.2068337,3.63664773 16.2068337,3.58352273 C16.2068337,3.53039773 16.2116173,3.47244318 16.2164009,3.41931818 L15.8767654,3.15369318 C15.8480638,3.12954545 15.8384966,3.08125 15.857631,3.04744318 L16.1781321,2.48238636 C16.1972665,2.44857955 16.2451025,2.43409091 16.2785877,2.44857955 L16.68041,2.61278409 C16.7665148,2.55 16.8526196,2.49204545 16.9530752,2.45340909 L17.0104784,2.02357955 C17.015262,1.98494318 17.0535308,1.95596591 17.0917995,1.95596591 L17.7375854,1.95596591 C17.7806378,1.95596591 17.814123,1.98494318 17.8189066,2.02357955 L17.8763098,2.45340909 C17.9767654,2.49204545 18.0628702,2.55 18.1489749,2.61278409 L18.5507973,2.44857955 C18.5890661,2.43409091 18.6321185,2.44857955 18.6512528,2.48238636 L18.971754,3.04744318 C18.9908884,3.08607955 18.9813212,3.12954545 18.9526196,3.15369318 L18.6129841,3.41931818 C18.6177677,3.47727273 18.6225513,3.53039773 18.6225513,3.58352273 C18.6225513,3.63664773 18.6177677,3.68977273 18.6129841,3.74289773 Z" id="path-1"></path>
    </defs>
    <g id="ZDS-icons" stroke="none" stroke-width="1" fill="none" fill-rule="evenodd">
        <g id="IconsSgeAbProducts">
            <g id="ic_ab_products">
                <g id="Icon-24px">
                    <polygon id="Shape" points="0 0 24 0 24 24 0 24"></polygon>
                    <g id="grayscale-/-black" transform="translate(2.000000, 3.000000)">
                        <mask id="mask-2" fill="white">
                            <use xlink:href="#path-1"></use>
                        </mask>
                        <use id="Mask" fill="#131516" fill-rule="nonzero" xlink:href="#path-1"></use>
                        <g mask="url(#mask-2)" fill="#000000" id="color-/-grayscale-/-black">
                            <g transform="translate(-2.000000, -3.000000)">
                                <rect x="0" y="0" width="24" height="24"></rect>
                            </g>
                        </g>
                    </g>
                </g>
            </g>
        </g>
    </g>
</svg>