<?xml version="1.0" encoding="UTF-8"?>
<svg width="24px" height="24px" viewBox="0 0 24 24" version="1.1" xmlns="http://www.w3.org/2000/svg" xmlns:xlink="http://www.w3.org/1999/xlink">
    <!-- Generator: Sketch 53.2 (72643) - https://sketchapp.com -->
    <title>IconsSgeZbmUsed</title>
    <desc>Created with Sketch.</desc>
    <defs>
        <path d="M20.6930994,4.92047255 L20.6930994,4.88332863 L18.3268626,4.88332863 L18.3268626,4.92047255 L18.3268626,5.0327485 L18.3268626,5.40587611 L19.9206747,5.40587611 L20.076848,6.26440727 L20.6930994,6.26440727 L20.6930994,5.0327485 L20.6930994,4.92047255 Z M16.8157802,5.44808511 L16.8157802,3.6246561 L16.4654455,3.6246561 L15.7267879,5.44808511 L16.8157802,5.44808511 Z M21.1658403,6.27453743 L21.67066,6.27453743 L21.67066,11.6013139 L21.67066,11.6325485 L21.6655949,11.6325485 L20.8484286,11.6325485 L20.8484286,9.58541178 C20.1874356,8.31660909 18.8316823,7.42684327 17.2378703,7.42684327 C16.3042071,7.42684327 15.4541177,7.72483884 14.7542924,8.24738633 L14.7542924,6.31168136 L15.9986139,3.14431762 L19.5323518,3.14431762 L19.6100164,3.59342143 L17.3991087,3.59342143 L17.3991087,5.45399437 L17.9436049,5.45399437 L17.9436049,5.04372285 C17.9436049,4.85631486 17.9824371,4.70689499 18.098934,4.59546321 C18.1377663,4.52033118 18.2154308,4.48318726 18.3319277,4.48318726 L20.7766733,4.48318726 C20.8931701,4.48318726 20.9708347,4.55747511 21.009667,4.59546321 C21.1261638,4.70689499 21.1658403,4.89430297 21.1658403,5.04372285 L21.1658403,6.27453743 Z M12.3489701,7.79431487 L12.854634,6.52551218 L8.69873532,6.52551218 L12.3489701,7.79431487 Z M7.1640159,4.58980721 C7.2830453,4.27155131 7.35648897,3.93641181 7.39616543,3.58776543 L13.8600525,3.58776543 L14.6375423,1.57777261 L15.2985353,1.57777261 L20.7325227,1.57777261 L20.7325227,2.47344769 L15.5712055,2.47344769 L12.9711308,9.10617074 L5.64871262,6.58122806 C6.02774949,6.30855789 6.35951227,5.97679511 6.63302662,5.59691406 L13.243801,5.59691406 L13.6321238,4.58980721 L7.1640159,4.58980721 Z M7.22125131,12.5608934 C7.99874119,12.5608934 8.66057838,11.9260699 8.66057838,11.1798147 C8.66057838,10.4327154 7.99874119,9.79958028 7.22125131,9.79958028 C6.44376144,9.79958028 5.78276842,10.4327154 5.78276842,11.1798147 C5.7878335,11.9319792 6.40999424,12.5608934 7.22125131,12.5608934 Z M7.22125131,8.12979204 C8.9653274,8.12979204 10.4046545,9.51087068 10.4046545,11.1848798 C10.4046545,12.8597331 8.97123666,14.2399676 7.22125131,14.2399676 C5.47717523,14.2399676 4.03784816,12.8597331 4.03784816,11.1848798 C4.03784816,9.51087068 5.47717523,8.12979204 7.22125131,8.12979204 Z M10.7933994,8.90888585 L13.6264678,9.87884879 L13.6264678,12.7473728 L11.6105657,12.7473728 L11.6105657,12.0011176 L10.7933994,12.0011176 C10.8322317,11.7765657 10.871064,11.4785701 10.871064,11.2168742 C10.871064,10.5086071 10.6769026,9.87378371 10.3265678,9.35630131 L10.7933994,8.90888585 Z M17.1989536,12.5608934 C17.9764435,12.5608934 18.6374365,11.9260699 18.6374365,11.1798147 C18.6374365,10.4327154 17.9764435,9.79958028 17.1989536,9.79958028 C16.4214637,9.79958028 15.7596265,10.4327154 15.7596265,11.1798147 C15.7655358,11.9319792 16.4265288,12.5608934 17.1989536,12.5608934 Z M17.2377859,8.12979204 C18.981862,8.12979204 20.421189,9.5058056 20.421189,11.1848798 C20.421189,12.863954 18.9877712,14.2399676 17.2377859,14.2399676 C15.4928656,14.2399676 14.0543827,12.8597331 14.0543827,11.1848798 C14.0543827,9.51087068 15.4928656,8.12979204 17.2377859,8.12979204 Z M2.76710385,3.46291119 L5.44737567,0.798678793 L5.88381678,1.24018499 L2.76710385,4.34423521 L1.3649207,2.94627297 L1.80558272,2.50561096 L2.76710385,3.46291119 Z M0.0325512513,2.65916732 C0.257103158,1.11262937 1.59090772,-3.55271368e-15 3.11634116,-3.55271368e-15 C3.26491686,0.0008441801 3.41433673,0.0101301612 3.56460079,0.0329230239 C3.94026094,0.0869505503 4.2897515,0.206824125 4.60125395,0.380725225 L4.1369549,0.84249174 C3.92928659,0.749631929 3.70557887,0.679564981 3.4708968,0.646641957 C2.10754594,0.450792174 0.846340868,1.38614372 0.643737644,2.74611787 C0.4419786,4.10440365 1.38661613,5.36560872 2.75081117,5.5614585 C4.03903001,5.74633394 5.23945411,4.91481654 5.53491714,3.67556016 L5.1423734,3.68569032 L5.83544526,2.39325058 L6.60955841,3.63672787 L6.18493582,3.65361147 C5.88525189,5.29554177 4.33955812,6.41998966 2.6689257,6.17517743 C0.966214442,5.93120938 -0.213949338,4.35428096 0.0325512513,2.65916732 Z" id="path-1"></path>
    </defs>
    <g id="ZDS-icons" stroke="none" stroke-width="1" fill="none" fill-rule="evenodd">
        <g id="IconsSgeZbmUsed">
            <g id="ic_zbm_used">
                <g id="Icon-24px">
                    <polygon id="Shape" points="0 0 24 0 24 24 0 24"></polygon>
                    <g id="grayscale-/-black" transform="translate(1.000000, 5.000000)">
                        <mask id="mask-2" fill="white">
                            <use xlink:href="#path-1"></use>
                        </mask>
                        <use id="Mask" fill="#000000" xlink:href="#path-1"></use>
                        <g mask="url(#mask-2)" fill="#000000" id="color-/-grayscale-/-black">
                            <g transform="translate(-1.000000, -5.000000)">
                                <rect x="0" y="0" width="24" height="24"></rect>
                            </g>
                        </g>
                    </g>
                </g>
            </g>
        </g>
    </g>
</svg>