<?xml version="1.0" encoding="UTF-8"?>
<svg width="24px" height="24px" viewBox="0 0 24 24" version="1.1" xmlns="http://www.w3.org/2000/svg" xmlns:xlink="http://www.w3.org/1999/xlink">
    <!-- Generator: Sketch 53.2 (72643) - https://sketchapp.com -->
    <title>IconsSgePsUsed</title>
    <desc>Created with Sketch.</desc>
    <defs>
        <path d="M17.5086755,8.50572362 C18.4961625,8.50572362 19.4126923,8.19159318 20.1813947,7.66188304 L20.1813947,16.2234772 L19.5073018,16.2234772 L18.4961625,16.2234772 L17.5855458,16.2234772 L17.5855458,14.622028 L16.4797969,14.622028 L16.4797969,16.0756512 C16.4797969,16.5252888 16.1900552,16.9256512 15.8530088,16.9256512 L12.6776766,16.9256512 L9.31312528,16.9256512 L6.14370614,16.9256512 L4.1273406,14.8252888 L2.40071674,14.8252888 C1.96906077,14.8252888 1.58470957,14.3263758 1.58470957,13.6734772 L1.58470957,11.7702164 L0.957921457,11.7702164 L0.957921457,14.5727526 L2.13162821e-14,14.5727526 L2.13162821e-14,5.51840478 L0.963834553,5.51840478 L0.963834553,8.32094101 L1.53740481,8.32094101 L1.53740481,7.16912942 C1.53740481,6.51623087 1.92175601,6.01731782 2.35341198,6.01731782 L3.89081678,6.01731782 L3.89081678,5.01949173 C3.89081678,4.56985405 4.18055846,4.16949173 4.56490966,4.16949173 L7.87624309,4.16949173 L7.97085262,4.16949173 L7.97085262,3.41804246 L5.28039421,3.41804246 L5.28039421,2.42021637 L12.8314171,2.42021637 C12.7545468,2.77130333 12.7131551,3.13470913 12.7131551,3.51043376 C12.7131551,6.26985405 14.8596088,8.50572362 17.5086755,8.50572362 Z M9.17121099,15.428912 L12.9733313,9.72528884 L9.56147529,9.72528884 L11.2407944,6.42383956 L9.36634314,6.42383956 L6.77049425,11.4252888 L10.6140063,11.4252888 L9.17121099,15.428912 Z M16.0954457,2.83289753 L17.1420636,3.92311492 L20.0394804,0.898839561 L20.5184411,1.3977526 L17.1420636,4.91478159 L15.6223981,3.33181058 L16.0954457,2.83289753 Z M21.2989697,4.12021637 L20.8377482,4.13869463 C20.512528,5.99883956 18.839122,7.27383956 17.0297148,6.99666565 C15.184829,6.71949173 13.9076004,4.93325985 14.1736897,3.01152072 C14.439779,1.08978159 16.1545767,-0.240653193 17.9994624,0.0365207202 C18.407466,0.0981149231 18.7859041,0.233622169 19.1229506,0.430723619 L18.6203375,0.954274343 C18.3956398,0.849564198 18.1532029,0.769491735 17.8989398,0.732535213 C16.420666,0.510796083 15.0547409,1.57021637 14.8359564,3.11007144 C14.6171719,4.64992652 15.6401374,6.07891202 17.1184112,6.30065115 C18.5139017,6.51007144 19.8147827,5.56768014 20.1340899,4.16333231 L19.708347,4.17565115 L20.4593101,2.70970913 L21.2989697,4.12021637 Z" id="path-1"></path>
    </defs>
    <g id="ZDS-icons" stroke="none" stroke-width="1" fill="none" fill-rule="evenodd">
        <g id="IconsSgePsUsed">
            <g id="ic_ps_used">
                <g id="Icon-24px">
                    <polygon id="Shape" points="0 0 24 0 24 24 0 24"></polygon>
                    <g id="grayscale-/-black" transform="translate(1.000000, 4.000000)">
                        <mask id="mask-2" fill="white">
                            <use xlink:href="#path-1"></use>
                        </mask>
                        <use id="Mask" fill="#131516" fill-rule="nonzero" xlink:href="#path-1"></use>
                        <g mask="url(#mask-2)" fill="#000000" id="color-/-grayscale-/-black">
                            <g transform="translate(-1.000000, -4.000000)">
                                <rect x="0" y="0" width="24" height="24"></rect>
                            </g>
                        </g>
                    </g>
                </g>
            </g>
        </g>
    </g>
</svg>