<?xml version="1.0" encoding="UTF-8"?>
<svg width="24px" height="24px" viewBox="0 0 24 24" version="1.1" xmlns="http://www.w3.org/2000/svg" xmlns:xlink="http://www.w3.org/1999/xlink">
    <!-- Generator: Sketch 53.2 (72643) - https://sketchapp.com -->
    <title>IconsMiscActionCalenderRange</title>
    <desc>Created with Sketch.</desc>
    <defs>
        <path d="M6,9 L4,9 L4,11 L6,11 L6,9 L6,9 Z M10,9 L8,9 L8,11 L10,11 L10,9 L10,9 Z M14,9 L12,9 L12,11 L14,11 L14,9 L14,9 Z M16,2 L15,2 L15,0 L13,0 L13,2 L5,2 L5,0 L3,0 L3,2 L2,2 C0.89,2 0,2.9 0,4 L0,18 C0,19.1045695 0.8954305,20 2,20 L16,20 C17.1045695,20 18,19.1045695 18,18 L18,4 C18,2.8954305 17.1045695,2 16,2 L16,2 Z M16,18 L2,18 L2,7 L16,7 L16,18 Z" id="path-1"></path>
    </defs>
    <g id="ZDS-icons" stroke="none" stroke-width="1" fill="none" fill-rule="evenodd">
        <g id="IconsMiscActionCalenderRange">
            <g id="ic_calender_range">
                <g id="Icon-24px">
                    <polygon id="Shape" points="0 0 24 0 24 24 0 24"></polygon>
                    <g id="grayscale-/-black" transform="translate(3.000000, 2.000000)">
                        <mask id="mask-2" fill="white">
                            <use xlink:href="#path-1"></use>
                        </mask>
                        <use id="Mask" fill="#000000" fill-rule="nonzero" xlink:href="#path-1"></use>
                        <g mask="url(#mask-2)" fill="#000000" id="color-/-grayscale-/-black">
                            <g transform="translate(-3.000000, -2.000000)">
                                <rect x="0" y="0" width="24" height="24"></rect>
                            </g>
                        </g>
                    </g>
                </g>
            </g>
        </g>
    </g>
</svg>