<?xml version="1.0" encoding="UTF-8"?>
<svg width="24px" height="24px" viewBox="0 0 24 24" version="1.1" xmlns="http://www.w3.org/2000/svg" xmlns:xlink="http://www.w3.org/1999/xlink">
    <!-- Generator: Sketch 53.2 (72643) - https://sketchapp.com -->
    <title>IconsSocialTwitter</title>
    <desc>Created with Sketch.</desc>
    <defs>
        <path d="M20.92,2 C20.15,2.35 19.32,2.58 18.46,2.69 C19.34,2.16 20.02,1.32 20.34,0.31 C19.51,0.81 18.59,1.16 17.62,1.36 C16.83,0.5 15.72,0 14.46,0 C12.11,0 10.19,1.92 10.19,4.29 C10.19,4.63 10.23,4.96 10.3,5.27 C6.74,5.09 3.57,3.38 1.46,0.79 C1.09,1.42 0.88,2.16 0.88,2.94 C0.88,4.43 1.63,5.75 2.79,6.5 C2.08,6.5 1.42,6.3 0.84,6 C0.84,6 0.84,6 0.84,6.03 C0.84,8.11 2.32,9.85 4.28,10.24 C3.92,10.34 3.54,10.39 3.15,10.39 C2.88,10.39 2.61,10.36 2.35,10.31 C2.89,12 4.46,13.26 6.35,13.29 C4.89,14.45 3.04,15.13 1.02,15.13 C0.68,15.13 0.34,15.11 0,15.07 C1.9,16.29 4.16,17 6.58,17 C14.46,17 18.79,10.46 18.79,4.79 C18.79,4.6 18.79,4.42 18.78,4.23 C19.62,3.63 20.34,2.87 20.92,2 Z" id="path-1"></path>
    </defs>
    <g id="ZDS-icons" stroke="none" stroke-width="1" fill="none" fill-rule="evenodd">
        <g id="IconsSocialTwitter">
            <g id="ic_twitter">
                <g id="Icon-24px">
                    <polygon id="Shape" points="0 0 24 0 24 24 0 24"></polygon>
                    <g id="grayscale-/-black" transform="translate(2.000000, 4.000000)">
                        <mask id="mask-2" fill="white">
                            <use xlink:href="#path-1"></use>
                        </mask>
                        <use id="Mask" fill="#000000" fill-rule="nonzero" xlink:href="#path-1"></use>
                        <g mask="url(#mask-2)" fill="#000000" id="color-/-grayscale-/-black">
                            <g transform="translate(-2.000000, -4.000000)">
                                <rect x="0" y="0" width="24" height="24"></rect>
                            </g>
                        </g>
                    </g>
                </g>
            </g>
        </g>
    </g>
</svg>