<?xml version="1.0" encoding="UTF-8"?>
<svg width="24px" height="24px" viewBox="0 0 24 24" version="1.1" xmlns="http://www.w3.org/2000/svg" xmlns:xlink="http://www.w3.org/1999/xlink">
    <!-- Generator: Sketch 53.2 (72643) - https://sketchapp.com -->
    <title>IconsMiscActionShare</title>
    <desc>Created with Sketch.</desc>
    <defs>
        <path d="M15,14.08 C14.24,14.08 13.56,14.38 13.04,14.85 L5.91,10.7 C5.96,10.47 6,10.24 6,10 C6,9.76 5.96,9.53 5.91,9.3 L12.96,5.19 C13.5,5.69 14.21,6 15,6 C16.6568542,6 18,4.65685425 18,3 C18,1.34314575 16.6568542,0 15,0 C13.3431458,0 12,1.34314575 12,3 C12,3.24 12.04,3.47 12.09,3.7 L5.04,7.81 C4.5,7.31 3.79,7 3,7 C1.34314575,7 0,8.34314575 0,10 C0,11.6568542 1.34314575,13 3,13 C3.79,13 4.5,12.69 5.04,12.19 L12.16,16.34 C12.11,16.55 12.08,16.77 12.08,17 C12.08,18.61 13.39,19.91 15,19.91 C16.61,19.91 17.92,18.61 17.92,17 C17.92,15.3873285 16.6126715,14.08 15,14.08 Z" id="path-1"></path>
    </defs>
    <g id="ZDS-icons" stroke="none" stroke-width="1" fill="none" fill-rule="evenodd">
        <g id="IconsMiscActionShare">
            <g id="ic_share">
                <g id="Icon-24px">
                    <polygon id="Shape" points="0 0 24 0 24 24 0 24"></polygon>
                    <g id="grayscale-/-black" transform="translate(3.000000, 2.000000)">
                        <mask id="mask-2" fill="white">
                            <use xlink:href="#path-1"></use>
                        </mask>
                        <use id="Mask" fill="#000000" fill-rule="nonzero" xlink:href="#path-1"></use>
                        <g mask="url(#mask-2)" fill="#000000" id="color-/-grayscale-/-black">
                            <g transform="translate(-3.000000, -2.000000)">
                                <rect x="0" y="0" width="24" height="24"></rect>
                            </g>
                        </g>
                    </g>
                </g>
            </g>
        </g>
    </g>
</svg>