<?xml version="1.0" encoding="UTF-8"?>
<svg width="24px" height="24px" viewBox="0 0 24 24" version="1.1" xmlns="http://www.w3.org/2000/svg" xmlns:xlink="http://www.w3.org/1999/xlink">
    <!-- Generator: Sketch 53.2 (72643) - https://sketchapp.com -->
    <title>IconsMiscActionUsers</title>
    <desc>Created with Sketch.</desc>
    <defs>
        <path d="M15,8 C14.71,8 14.38,8 14.03,8.05 C15.19,8.89 16,10 16,11.5 L16,14 L22,14 L22,11.5 C22,9.17 17.33,8 15,8 L15,8 Z M7,8 C4.67,8 0,9.17 0,11.5 L0,14 L14,14 L14,11.5 C14,9.17 9.33,8 7,8 L7,8 Z M7,6 C8.65685425,6 10,4.65685425 10,3 C10,1.34314575 8.65685425,0 7,0 C5.34314575,0 4,1.34314575 4,3 C4,4.65685425 5.34314575,6 7,6 L7,6 Z M15,6 C16.6568542,6 18,4.65685425 18,3 C18,1.34314575 16.6568542,0 15,0 C13.3431458,0 12,1.34314575 12,3 C12,4.65685425 13.3431458,6 15,6 Z" id="path-1"></path>
    </defs>
    <g id="ZDS-icons" stroke="none" stroke-width="1" fill="none" fill-rule="evenodd">
        <g id="IconsMiscActionUsers">
            <g id="ic_users">
                <g id="Icon-24px">
                    <polygon id="Shape" points="0 0 24 0 24 24 0 24"></polygon>
                    <g id="grayscale-/-black" transform="translate(1.000000, 5.000000)">
                        <mask id="mask-2" fill="white">
                            <use xlink:href="#path-1"></use>
                        </mask>
                        <use id="Mask" fill="#000000" fill-rule="nonzero" xlink:href="#path-1"></use>
                        <g mask="url(#mask-2)" fill="#000000" id="color-/-grayscale-/-black">
                            <g transform="translate(-1.000000, -5.000000)">
                                <rect x="0" y="0" width="24" height="24"></rect>
                            </g>
                        </g>
                    </g>
                </g>
            </g>
        </g>
    </g>
</svg>