<?xml version="1.0" encoding="UTF-8"?>
<svg width="24px" height="24px" viewBox="0 0 24 24" version="1.1" xmlns="http://www.w3.org/2000/svg" xmlns:xlink="http://www.w3.org/1999/xlink">
    <!-- Generator: Sketch 53.2 (72643) - https://sketchapp.com -->
    <title>IconsMiscActionLogout</title>
    <desc>Created with Sketch.</desc>
    <defs>
        <path d="M11.08,12.59 L13.67,10 L4,10 L4,8 L13.67,8 L11.08,5.41 L12.5,4 L17.5,9 L12.5,14 L11.08,12.59 L11.08,12.59 Z M16,0 C17.1045695,0 18,0.8954305 18,2 L18,6.67 L16,4.67 L16,2 L2,2 L2,16 L16,16 L16,13.33 L18,11.33 L18,16 C18,17.1045695 17.1045695,18 16,18 L2,18 C0.89,18 0,17.1 0,16 L0,2 C0,0.89 0.89,0 2,0 L16,0 Z" id="path-1"></path>
    </defs>
    <g id="ZDS-icons" stroke="none" stroke-width="1" fill="none" fill-rule="evenodd">
        <g id="IconsMiscActionLogout">
            <g id="ic_logout">
                <g id="Icon-24px">
                    <polygon id="Shape" points="0 0 24 0 24 24 0 24"></polygon>
                    <g id="grayscale-/-black" transform="translate(3.000000, 3.000000)">
                        <mask id="mask-2" fill="white">
                            <use xlink:href="#path-1"></use>
                        </mask>
                        <use id="Mask" fill="#000000" fill-rule="nonzero" xlink:href="#path-1"></use>
                        <g mask="url(#mask-2)" fill="#000000" id="color-/-grayscale-/-black">
                            <g transform="translate(-3.000000, -3.000000)">
                                <rect x="0" y="0" width="24" height="24"></rect>
                            </g>
                        </g>
                    </g>
                </g>
            </g>
        </g>
    </g>
</svg>