<?xml version="1.0" encoding="UTF-8"?>
<svg width="24px" height="24px" viewBox="0 0 24 24" version="1.1" xmlns="http://www.w3.org/2000/svg" xmlns:xlink="http://www.w3.org/1999/xlink">
    <!-- Generator: Sketch 53.2 (72643) - https://sketchapp.com -->
    <title>IconsMiscActionChat</title>
    <desc>Created with Sketch.</desc>
    <defs>
        <path d="M15,10 L15,1 C15,0.44771525 14.5522847,0 14,0 L1,0 C0.44771525,0 0,0.44771525 0,1 L0,15 L4,11 L14,11 C14.5522847,11 15,10.5522847 15,10 L15,10 Z M19,4 L17,4 L17,13 L4,13 L4,15 C4,15.5522847 4.44771525,16 5,16 L16,16 L20,20 L20,5 C20,4.44771525 19.5522847,4 19,4 Z" id="path-1"></path>
    </defs>
    <g id="ZDS-icons" stroke="none" stroke-width="1" fill="none" fill-rule="evenodd">
        <g id="IconsMiscActionChat">
            <g id="ic_chat">
                <g id="Icon-24px">
                    <polygon id="Shape" points="0 0 24 0 24 24 0 24"></polygon>
                    <g id="grayscale-/-black" transform="translate(2.000000, 2.000000)">
                        <mask id="mask-2" fill="white">
                            <use xlink:href="#path-1"></use>
                        </mask>
                        <use id="Mask" fill="#000000" fill-rule="nonzero" xlink:href="#path-1"></use>
                        <g mask="url(#mask-2)" fill="#000000" id="color-/-grayscale-/-black">
                            <g transform="translate(-2.000000, -2.000000)">
                                <rect x="0" y="0" width="24" height="24"></rect>
                            </g>
                        </g>
                    </g>
                </g>
            </g>
        </g>
    </g>
</svg>