<?xml version="1.0" encoding="UTF-8"?>
<svg width="24px" height="24px" viewBox="0 0 24 24" version="1.1" xmlns="http://www.w3.org/2000/svg" xmlns:xlink="http://www.w3.org/1999/xlink">
    <!-- Generator: Sketch 53.2 (72643) - https://sketchapp.com -->
    <title>IconsSgeRentalInfrastructure</title>
    <desc>Created with Sketch.</desc>
    <defs>
        <path d="M10.0737651,15.4909091 L10.0737651,17.2315152 C10.079919,17.4375758 10.247919,17.6024242 10.4565343,17.6084848 C10.6749959,17.6151515 10.855919,17.4466667 10.8626882,17.2315152 L10.8626882,15.4909091 C10.8565343,15.2848485 10.6885343,15.1193939 10.479919,15.1133333 C10.2620728,15.1072727 10.0805343,15.2763636 10.0737651,15.4909091 Z M10.0737651,11.590303 L10.0737651,13.3315152 L10.0737651,13.3545455 C10.0805343,13.5690909 10.2620728,13.7375758 10.479919,13.7315152 C10.6977651,13.7254545 10.8694574,13.5460606 10.8626882,13.3315152 L10.8626882,11.590303 C10.8565343,11.3848485 10.6885343,11.2193939 10.479919,11.2133333 C10.2620728,11.2072727 10.0805343,11.3757576 10.0737651,11.590303 Z M10.0737651,8.06424242 L10.0737651,9.80545455 C10.079919,10.0115152 10.247919,10.1763636 10.4565343,10.1824242 C10.6749959,10.1890909 10.855919,10.02 10.8626882,9.80545455 L10.8626882,8.06424242 L10.8626882,8.04181818 C10.855919,7.82666667 10.6749959,7.65818182 10.4565343,7.66424242 C10.2393036,7.67090909 10.0669959,7.85030303 10.0737651,8.06424242 Z M5.22576511,18.7351515 L8.46884204,8.61272727 L6.48545742,8.61272727 C6.44176511,8.61272727 6.39991896,8.59575758 6.36914973,8.56545455 C6.30576511,8.50242424 6.3063805,8.40060606 6.3703805,8.33757576 L10.3531497,4.44363636 C10.4171497,4.38181818 10.519919,4.38181818 10.5833036,4.44363636 L14.5666882,8.33757576 C14.5980728,8.36787879 14.6153036,8.40909091 14.6153036,8.45212121 C14.6153036,8.54060606 14.5420728,8.61272727 14.4516113,8.61272727 L12.468842,8.61272727 L15.7113036,18.7351515 C15.7162267,18.7509091 15.7193036,18.7666667 15.7193036,18.7836364 C15.7193036,18.8727273 15.6454574,18.9454545 15.5543805,18.9454545 L5.38268819,18.9454545 C5.36607281,18.9454545 5.34884204,18.9430303 5.33345742,18.9381818 C5.24607281,18.9115152 5.19807281,18.82 5.22576511,18.7351515 Z M3.81050358,4.0769697 L3.80988819,4.0769697 L3.81050358,4.0769697 C4.57234973,4.0769697 5.1895805,3.46848485 5.1895805,2.71878788 C5.1895805,1.96848485 4.57234973,1.36 3.81050358,1.36 C3.04865742,1.36 2.43081127,1.96848485 2.43081127,2.71878788 C2.43081127,3.46848485 3.04865742,4.0769697 3.81050358,4.0769697 Z M3.81050358,8.15333333 L3.80988819,8.15333333 L3.81050358,8.15333333 C4.57234973,8.15333333 5.1895805,7.54484848 5.1895805,6.79393939 C5.1895805,6.04424242 4.57234973,5.43575758 3.81050358,5.43575758 C3.04865742,5.43575758 2.43081127,6.04363636 2.43081127,6.79393939 C2.43081127,7.54484848 3.04865742,8.15333333 3.81050358,8.15333333 Z M5.1895805,10.870303 C5.1895805,10.1206061 4.57173435,9.51212121 3.81050358,9.51212121 C3.04865742,9.51212121 2.43081127,10.12 2.43081127,10.870303 C2.43081127,11.6206061 3.04865742,12.2290909 3.81050358,12.2290909 C4.57234973,12.2290909 5.1895805,11.6206061 5.1895805,10.870303 Z M7.65911896,5.43575758 L5.53727281,7.50969697 C5.28311896,7.75878788 5.13973435,8.09757576 5.13911896,8.45090909 C5.13911896,9.18363636 5.74281127,9.77757576 6.48681127,9.77757576 L6.84865742,9.77757576 L5.65542665,13.5 C5.50527281,13.5563636 5.34527281,13.5854545 5.18404204,13.5866667 L2.42527281,13.5866667 C1.66342665,13.5866667 1.0455805,12.9787879 1.0455805,12.2278788 L1.0455805,10.8715152 L0.0708112686,9.91212121 C0.0246574225,9.86787879 -0.00118873138,9.80606061 4.20378485e-05,9.74242424 C0.00188819169,9.61333333 0.108965115,9.51030303 0.240042038,9.51272727 L1.04681127,9.51272727 L1.04681127,6.79454545 L0.0720420378,5.83515152 C0.0258881917,5.79090909 0.000657422464,5.72969697 0.00127280708,5.66545455 C0.00311896093,5.53636364 0.110195884,5.43393939 0.241272807,5.43575758 L1.04865742,5.43575758 L1.04865742,2.71878788 L0.0738881917,1.75878788 C0.0277343455,1.71454545 0.00188819169,1.65272727 0.00250357631,1.58909091 C0.00434973016,1.46 0.111426653,1.35757576 0.242503576,1.35939394 L1.04988819,1.35939394 C1.04988819,0.608484848 1.66773435,1.77635684e-15 2.42896511,1.77635684e-15 L5.18834973,1.77635684e-15 C5.95019588,0.000606060606 6.56742665,0.608484848 6.56742665,1.35939394 L7.37419588,1.35939394 C7.43881127,1.35818182 7.5015805,1.38363636 7.54711896,1.42909091 C7.63881127,1.52060606 7.63696511,1.66848485 7.54342665,1.75878788 L6.56865742,2.71878788 L6.56865742,5.43575758 L7.65911896,5.43575758 Z" id="path-1"></path>
    </defs>
    <g id="ZDS-icons" stroke="none" stroke-width="1" fill="none" fill-rule="evenodd">
        <g id="IconsSgeRentalInfrastructure">
            <g id="ic_rental_infrastructure">
                <g id="Icon-24px">
                    <polygon id="Shape" points="0 0 24 0 24 24 0 24"></polygon>
                    <g id="grayscale-/-black" transform="translate(4.000000, 3.000000)">
                        <mask id="mask-2" fill="white">
                            <use xlink:href="#path-1"></use>
                        </mask>
                        <use id="Mask" fill="#131516" xlink:href="#path-1"></use>
                        <g mask="url(#mask-2)" fill="#000000" id="color-/-grayscale-/-black">
                            <g transform="translate(-4.000000, -3.000000)">
                                <rect x="0" y="0" width="24" height="24"></rect>
                            </g>
                        </g>
                    </g>
                </g>
            </g>
        </g>
    </g>
</svg>