<svg xmlns="http://www.w3.org/2000/svg" xmlns:xlink="http://www.w3.org/1999/xlink" width="24" height="24" viewBox="0 0 24 24">
  <defs>
    <polygon id="iconslanguagessa-a" points="0 0 20 0 20 20 0 20"/>
  </defs>
  <g fill="none" fill-rule="evenodd" transform="translate(2 2)">
    <mask id="iconslanguagessa-b" fill="#fff">
      <use xlink:href="#iconslanguagessa-a"/>
    </mask>
    <g fill-rule="nonzero" mask="url(#iconslanguagessa-b)">
      <g transform="translate(-5)">
        <polygon fill="#199D00" points="0 0 30.963 0 30.963 20.642 0 20.642"/>
        <path fill="#FFF" d="M7.8031754,5.85134113 C7.76988185,6.33409758 7.72410323,7.18308306 8.13611089,7.27047863 C8.63135242,7.31625726 8.35668065,6.42981653 8.53563347,6.27167218 C8.57308871,6.18843831 8.63551411,6.18843831 8.63967581,6.29248065 L8.63967581,7.04158548 C8.63551411,7.2912871 8.79365847,7.35787419 8.91850927,7.41197621 C9.05168347,7.39949113 9.13491734,7.40365282 9.18901935,7.52850363 L9.24728306,8.83111371 C9.24728306,8.83111371 9.55108669,8.91434758 9.56357177,8.09865565 C9.58021855,7.62006089 9.46785282,7.21637661 9.53443992,7.12481935 C9.53443992,7.0332621 9.65096734,7.0291004 9.73420121,7.07071734 C9.86321371,7.1622746 9.92147742,7.27880202 10.1212387,7.22886169 C10.429204,7.14562782 10.6123185,6.99580685 10.6206419,6.76275202 C10.6100554,6.53322102 10.5622677,6.30693202 10.4791444,6.09271935 C10.4916294,6.05110242 10.416719,5.94706008 10.4333657,5.90544315 C10.4874677,5.98867702 10.5707016,5.98451532 10.5915101,5.90544315 C10.5374081,5.73065202 10.4583359,5.56834597 10.3251617,5.49759718 C10.2169577,5.40187823 10.0588133,5.42268669 10.0005496,5.62244798 C9.99372498,5.88477807 10.0824664,6.14064907 10.2502512,6.34242097 C10.3025813,6.45550683 10.3241159,6.58040773 10.3126766,6.70448831 C10.225281,6.75859032 10.1378855,6.73362016 10.062975,6.65870968 C10.062975,6.65870968 9.81743508,6.47143347 9.81743508,6.43397823 C9.88402218,6.01780887 9.83408185,5.97203024 9.79662661,5.85550282 C9.77165645,5.69735847 9.69674597,5.64741815 9.63432056,5.53921411 C9.57189516,5.47262702 9.49282298,5.47262702 9.45120605,5.53921411 C9.34300202,5.72649032 9.39294234,6.1260129 9.47201452,6.30496573 C9.53027823,6.47143347 9.6135121,6.57547581 9.57189516,6.57547581 C9.53860161,6.66703306 9.47201452,6.6462246 9.42207419,6.53802056 C9.36030649,6.30879724 9.3308899,6.07206375 9.33467863,5.83469435 C9.31387016,5.64741815 9.29306169,5.25205726 9.16821089,5.15217661 C9.0933004,5.05229597 8.98093468,5.10223629 8.94347944,5.19379355 C8.93295342,5.37417361 8.9371289,5.55511122 8.95596452,5.73481371 C9.03919839,6.02613226 9.06416855,6.29248065 9.10578548,6.59628427 C9.11827056,7.00413024 8.86856895,6.7752371 8.88105403,6.57131411 C8.93931774,6.30912742 8.92267097,5.89295806 8.87273065,5.78891573 C8.83111371,5.68487339 8.78533508,5.65990323 8.68961613,5.67655 C8.60638226,5.66822661 8.41078266,5.88463468 8.35668065,6.25086371 C8.35668065,6.25086371 8.30674032,6.43813992 8.28593185,6.60044597 C8.2568,6.78772218 8.13611089,6.92089637 8.04871532,6.57547581 C7.97380484,6.32577419 7.92802621,5.70568185 7.8031754,5.85134113 L7.8031754,5.85134113 Z"/>
        <path fill="#FFF" d="M9.15156411,7.83230726 L7.86143911,8.4523996 C7.87392419,8.16108105 8.47320806,7.62838427 8.88105403,7.62006089 C9.14740242,7.62838427 9.08081532,7.72410323 9.15156411,7.82814556 L9.15156411,7.83230726 Z"/>
        <path fill="#FFF" d="M8.92683266,8.23599153 C8.24431492,9.98806452 10.5165996,10.2336044 10.7704629,8.30674032 C10.7954331,8.22766815 10.8953137,8.14859597 10.9077988,8.27760847 C10.8536968,10.0255198 9.15156411,10.1420472 8.86024556,9.59270363 C8.78949677,9.46785282 8.76868831,9.17653427 8.76036492,9.00174315 C8.71874798,8.66048427 8.53563347,8.79365847 8.51066331,9.13491734 C8.48153145,9.32219355 8.48569315,9.37629556 8.48569315,9.55941008 C8.5772504,10.932769 10.7746246,10.3418085 11.1325302,9.20566613 C11.3198065,8.5772504 11.0992367,8.11114073 11.203279,8.11114073 C11.4196871,8.34835726 11.7276524,8.14443427 11.7942395,8.0612004 C11.8233714,8.01958347 11.8941202,7.99461331 11.9440605,8.04871532 C12.1105282,8.17356613 12.4143319,8.11114073 12.4767573,7.89889435 C12.5100508,7.68664798 12.5391827,7.47023992 12.547506,7.24550847 C12.4101702,7.2871254 12.3061278,7.31625726 12.2978044,7.37035927 L12.2686726,7.56179718 C12.2561875,7.62006089 12.1354984,7.62422258 12.1313367,7.5451504 C12.0772347,7.30793387 11.8608266,7.27464032 11.7276524,7.64503105 C11.6402569,7.71994153 11.4779508,7.72826492 11.461304,7.62422258 C11.4821125,7.37452097 11.3822319,7.34122742 11.1824706,7.45775484 L10.986871,6.0011621 C11.0701048,6.0011621 11.149177,6.05942581 11.2240875,5.96370685 C11.1408536,5.70152016 10.9619008,5.17298508 10.8661819,5.13136815 C10.8162415,5.07310444 10.7787863,5.11055968 10.7163609,5.12304476 C10.6081569,5.15633831 10.5082762,5.24789556 10.5415698,5.42684839 L10.8745052,7.51601855 C10.891152,7.60341411 10.8162415,7.72410323 10.7205226,7.71161815 C10.5582165,7.59925242 10.5165996,7.37868266 10.2419278,7.38700605 C10.0380048,7.38700605 9.80911169,7.60757581 9.78414153,7.81982218 C9.74668629,7.98628992 9.73420121,8.16940444 9.78414153,8.31506371 C9.92147742,8.48153145 10.0921069,8.46904637 10.2419278,8.42742944 C10.3626169,8.37748911 10.4624976,8.2568 10.5082762,8.28593185 C10.5374081,8.3233871 10.5124379,8.72290968 9.92980081,9.03503669 C9.58021855,9.19318105 9.29722339,9.2264746 9.14740242,8.93931774 C9.05584516,8.76036492 9.15572581,8.07784718 8.92683266,8.23182984 L8.92683266,8.23599153 Z"/>
        <path fill="#FFF" d="M11.8108863,6.450625 C11.9482222,6.40484637 12.5932847,5.65990323 12.5932847,5.65990323 L12.4975657,5.58499274 C12.4601105,5.55169919 12.4642722,5.52256734 12.4975657,5.48927379 C12.6557101,5.39771653 12.6057698,5.18963185 12.5225359,5.0980746 C12.4124892,5.04311352 12.2830003,5.04311352 12.1729536,5.0980746 C12.0605879,5.21044032 12.0356177,5.38106976 12.1230133,5.48927379 C12.2062472,5.53089073 12.2978044,5.6141246 12.2395407,5.66406492 C11.9731923,5.94706008 11.2490577,6.43397823 11.3322915,6.45478669 C11.3489383,6.47559516 11.7984012,6.47559516 11.8108863,6.45478669 L11.8108863,6.450625 Z M7.90305605,9.07249194 C7.66167782,9.45952944 7.64086935,10.0380048 7.77820524,10.2086343 C7.84479234,10.2918681 7.96131976,10.3251617 8.04871532,10.3001915 C8.20269798,10.2336044 8.26928508,9.92563911 8.23182984,9.81327339 C8.18188952,9.73003952 8.14027258,9.72171613 8.09033226,9.78830323 C7.98212823,10.0047113 7.9363496,9.85489032 7.92802621,9.73420121 C7.91137944,9.50530806 7.9321879,9.2889 7.95715806,9.12243226 C7.98628992,8.95180282 7.95715806,9.00174315 7.90305605,9.07249194 L7.90305605,9.07249194 Z M18.2698347,8.4482379 C18.0367798,7.94467298 17.7121677,7.44526976 17.6081254,7.25383185 C17.294277,6.75683577 16.9610862,6.27232085 16.609319,5.80140081 C16.3596173,5.50175887 17.0213266,5.92625161 16.5260851,5.33112944 C16.3388089,5.16466169 16.3263238,5.1605 16.1681794,5.02732581 C16.0891073,4.9690621 15.8976694,4.86918145 15.8643758,5.03564919 C15.8478376,5.15495828 15.8534812,5.27629597 15.8810226,5.39355484 C15.8976694,5.47678871 16.0183585,5.6141246 16.0807839,5.69735847 C16.8715056,6.75859032 17.5748319,7.83646895 18.2490262,9.18485766 C18.3572302,9.13491734 18.3322601,8.53563347 18.2698347,8.4482379 L18.2698347,8.4482379 Z"/>
        <path fill="#FFF" d="M17.2418964,10.1420472 C17.1961177,10.1961492 17.3542621,10.416719 17.5623468,10.416719 C17.911929,10.375102 18.2157327,10.1795024 18.4987278,9.66761411 C18.5736383,9.54276331 18.7068125,9.29306169 18.7109742,9.08913871 C18.740106,7.92386452 18.6527105,7.01661532 18.4779194,6.17595323 C18.469596,6.09271935 18.4779194,5.99283871 18.4904044,5.96786855 C18.5112129,5.94289839 18.5861234,5.96786855 18.6277403,5.90544315 C18.686004,5.84301774 18.469596,5.33945282 18.3489069,5.14801492 C18.3031282,5.06061935 18.2864815,5.00235565 18.2157327,5.15633831 C18.1366605,5.28118911 18.0908819,5.50175887 18.0908819,5.70568185 C18.2573496,6.85430927 18.3114516,7.86143911 18.4196556,9.00590484 C18.427979,9.11827056 18.4113323,9.28057661 18.3364218,9.34300202 C18.0320277,9.68357449 17.6590169,9.95588652 17.2418964,10.1420472 L17.2418964,10.1420472 Z M21.9362867,10.1378855 C21.6865851,10.2793831 21.6865851,10.4458508 21.8905081,10.4541742 C22.2359286,10.4125573 22.6479363,10.3834254 22.9309315,9.95477097 C23.0058419,9.83408185 23.0973992,9.50946976 23.1015609,9.31387016 C23.126531,8.14859597 23.0849141,7.27464032 22.910123,6.43397823 C22.9017996,6.35074435 22.8643444,6.16346815 22.8768294,6.13849798 C22.9017996,6.08023427 23.0141653,6.14265968 23.0557823,6.07607258 C23.114046,6.01780887 22.7644637,5.56418427 22.6396129,5.36858468 C22.5938343,5.28535081 22.5771875,5.2270871 22.5064387,5.38106976 C22.4273665,5.50592056 22.4023964,5.73065202 22.4315282,5.92625161 C22.6188044,7.17475968 22.7561403,8.11114073 22.7811105,9.21398952 C22.7686254,9.32219355 22.7644637,9.38045726 22.7145234,9.50946976 C22.6063194,9.65096734 22.4856302,9.82575847 22.3691028,9.90899234 C22.2567371,9.99222621 22.0153589,10.0754601 21.9362867,10.1378855 L21.9362867,10.1378855 Z"/>
        <path fill="#FFF" d="M22.1235629,9.01838992 L22.1235629,8.2568 C22.1203534,8.06702547 22.0778422,7.87997629 21.9987121,7.70745645 C21.9238016,7.54098871 21.9695802,7.41197621 21.9362867,7.23302339 C21.9029931,7.05823226 21.9113165,6.79188387 21.8613762,6.58379919 C21.8447294,6.50056532 21.8031125,6.24254032 21.8197593,6.21757016 C21.836406,6.15930645 21.9154782,6.21757016 21.9529335,6.15098306 C22.0111972,6.08855766 21.7531722,5.42268669 21.6241597,5.23541048 C21.578381,5.15217661 21.4951472,5.17714677 21.3869431,5.31864435 C21.2912242,5.40603992 21.3286794,5.6141246 21.3661347,5.80972419 C21.6158363,7.11233427 21.7989508,8.29425524 21.7614956,9.53027823 C21.7490105,9.63848226 22.1277246,9.21815121 22.1235629,9.01838992 L22.1235629,9.01838992 Z M20.2799327,7.40365282 C20.12595,7.40365282 19.7971762,7.0956875 19.6972956,6.92089637 C19.6681544,6.83572338 19.6756906,6.74227383 19.718104,6.66287137 C19.7763677,6.62125444 19.867925,6.5796375 19.9345121,6.62125444 C19.9345121,6.62125444 20.0010992,6.72113508 19.9886141,6.73362016 C20.071848,6.7752371 20.1134649,6.75026694 20.1217883,6.71281169 C20.12595,6.65454798 20.0926565,6.61709274 20.0926565,6.54634395 C20.1342734,6.36739113 20.3423581,6.33825927 20.4172685,6.45478669 C20.4755323,6.52553548 20.4963407,6.67535645 20.5046641,6.77939879 C20.5046641,6.82933911 20.4214302,6.76691371 20.3714899,6.77939879 C20.3257113,6.79604556 20.3132262,6.85014758 20.3090645,6.9000879 C20.3007411,7.0332621 20.2840944,7.24550847 20.2799327,7.39949113 L20.2799327,7.40365282 Z M17.383394,9.34300202 C17.4250109,8.94347944 17.3709089,8.24015323 17.3667472,8.00709839 C17.3501004,7.45359315 17.2585431,6.3840379 17.2169262,6.20924677 C17.1669859,5.8721496 17.3542621,6.24670202 17.3292919,6.05110242 C17.2668665,5.71816694 17.0795903,5.4851121 16.8631823,5.17714677 C16.7924335,5.08142782 16.7965952,5.06061935 16.6842294,5.20211694 C16.567702,5.47678871 16.6717444,5.66406492 16.7008762,5.87631129 C16.8590206,6.57131411 16.9505778,7.20805323 16.9921948,7.84063065 C17.0388334,8.49857866 17.0443932,9.15879494 17.0088415,9.81743508 C17.1295306,9.82575847 17.3209685,9.62599718 17.383394,9.34300202 L17.383394,9.34300202 Z"/>
        <path fill="#FFF" d="M22.6604214,8.7062629 C22.3815879,8.24431492 21.9654185,7.74075 21.8530528,7.55347379 C21.4804199,7.03035928 21.0889641,6.52091156 20.6794552,6.02613226 C20.3340347,5.66406492 20.8375996,5.96786855 20.6128681,5.68903508 C20.4214302,5.4809504 20.3631665,5.41436331 20.2050222,5.2895125 C20.1217883,5.23541048 20.071848,5.13552984 20.0468778,5.30615927 C20.0343927,5.45598024 20.0260694,5.63077137 20.0343927,5.75978387 C20.0343927,5.83053266 20.1093032,5.95954516 20.1717286,6.03861734 C21.0040673,7.06655565 21.9196399,8.11946411 22.6562597,9.43872097 C22.760302,9.38045726 22.7270085,8.78949677 22.6562597,8.7062629 L22.6604214,8.7062629 Z"/>
        <path fill="#1BA400" d="M10.1045919,7.84895403 C10.0837835,7.88640927 10.0380048,7.9321879 10.0546516,7.97380484 C10.0879452,8.01542177 10.1129153,8.02790685 10.1628556,8.03206855 C10.2044726,8.03206855 10.2710597,8.04039194 10.2835448,8.01542177 C10.3140924,7.97807705 10.3220527,7.92713092 10.3043532,7.88224758 C10.2627363,7.76572016 10.1295621,7.8073371 10.1045919,7.84895403 Z"/>
        <path fill="#FFF" d="M19.4434323,14.6200294 C19.813823,14.6325145 20.0552012,14.6366762 20.383975,14.6741315 L20.7668508,14.6325145 C21.1955052,14.5908976 21.2163137,15.2442835 21.2163137,15.2442835 C21.212152,15.6271593 21.062331,15.643806 20.8750548,15.685423 C20.7668508,15.7020698 20.7085871,15.6229976 20.6544851,15.5397637 C20.5837363,15.5688956 20.4880173,15.5730573 20.3673282,15.5564105 C20.2133456,15.5480871 20.0593629,15.5480871 19.9095419,15.535602 C19.7430742,15.5231169 19.6556786,15.5564105 19.4933726,15.5397637 C19.4559173,15.5938657 19.4101387,15.6646145 19.3144198,15.643806 C19.2311859,15.6354827 19.1313052,15.3982661 19.1604371,15.223475 C19.2187008,15.0944625 19.202054,15.1360794 19.1978923,15.0778157 C17.6830359,15.0403605 16.159856,14.9737734 14.6741315,14.9945819 C13.5088573,14.9945819 12.3643915,15.0445222 11.2199258,15.0944625 C10.6081569,15.0861391 10.1378855,14.9862585 9.81743508,14.5118254 C9.84656694,14.5118254 11.3780702,14.6033827 11.8233714,14.5742508 C12.6557101,14.5617657 13.4089766,14.4951786 14.2538004,14.4702085 C15.9184778,14.4993403 17.5623468,14.4993403 19.2270242,14.6158677 C19.0688798,14.5076637 19.0605565,14.2496387 19.3102581,14.1872133 C19.3269048,14.1747282 19.3393899,14.3120641 19.3768452,14.3120641 C19.5682831,14.299579 19.4850492,14.5617657 19.4434323,14.6200294 L19.4434323,14.6200294 Z M12.7680758,5.45181855 C12.5183742,6.17179153 12.9095734,6.95835161 13.1842452,6.88344113 C13.3840065,6.966675 13.5088573,6.58796089 13.5920911,6.17595323 C13.6461931,6.05942581 13.6878101,6.04694073 13.7169419,6.10520444 C13.7086185,6.65454798 13.7585589,6.7752371 13.9000565,6.94170484 C14.0682804,7.09187273 14.3208047,7.09717044 14.4951786,6.95418992 L14.7407185,6.70448831 C14.7948206,6.65038629 14.8655694,6.6462246 14.9446415,6.69616492 C15.019552,6.76691371 15.0070669,6.88344113 15.169373,6.966675 C15.3025472,7.02077702 15.5938657,6.97916008 15.6604528,6.86263266 C15.7478484,6.70865 15.7728185,6.65454798 15.8144355,6.59628427 C15.8768609,6.5130504 15.9850649,6.54634395 15.9850649,6.57547581 C15.9767415,6.62125444 15.9143161,6.67119476 15.9559331,6.75442863 C16.0308435,6.81269234 16.051652,6.7752371 16.0974306,6.76275202 C16.255575,6.68784153 16.3762641,6.33825927 16.3762641,6.33825927 C16.3804258,6.21340847 16.309677,6.22173185 16.2638984,6.24670202 L16.1390476,6.33409758 C16.0558137,6.34658266 15.9059927,6.39652298 15.8310823,6.27999556 C15.7561718,6.14265968 15.7520101,5.94706008 15.6937464,5.8055625 C15.6937464,5.79723911 15.5938657,5.58499274 15.6895847,5.57250766 C15.7353633,5.58083105 15.8394056,5.60580121 15.8560524,5.52256734 C15.9059927,5.43933347 15.7478484,5.20211694 15.6396444,5.08142782 C15.5480871,4.98154718 15.4149129,4.9690621 15.2900621,5.07310444 C15.2068282,5.15633831 15.2151516,5.23957218 15.1985048,5.32696774 C15.1693205,5.45010099 15.2001965,5.5797802 15.2817387,5.67655 C15.3691343,5.84717944 15.5314403,6.06774919 15.4773383,6.3840379 C15.4773383,6.3840379 15.3816194,6.52969718 15.2193133,6.50888871 C15.1527262,6.49224194 15.0445222,6.46727177 14.9862585,6.03445565 C14.9446415,5.70568185 14.9945819,5.24789556 14.857246,5.03564919 C14.8073056,4.902475 14.7740121,4.77762419 14.6491613,5.00235565 C14.6158677,5.08558952 14.4743702,5.21876371 14.5742508,5.49343548 C14.6694567,5.73532359 14.6981955,5.99828301 14.6574847,6.2550254 C14.599221,6.34242097 14.5867359,6.37571452 14.5076637,6.46311008 C14.4036214,6.57547581 14.287094,6.54634395 14.1996984,6.50472702 C14.1164645,6.450625 14.0498774,6.42149315 14.0124222,6.24254032 C14.0207456,5.95954516 14.0332306,5.49759718 13.9832903,5.39771653 C13.9083798,5.24789556 13.783529,5.30199758 13.729427,5.34777621 C13.4879411,5.61557887 13.3264494,5.94577154 13.2633173,6.30080403 C13.1925685,6.52969718 13.1176581,6.46727177 13.063556,6.37155282 C12.9345435,6.24670202 12.9262202,5.29367419 12.7680758,5.45181855 L12.7680758,5.45181855 Z"/>
        <path fill="#FFF" d="M13.525504,7.02077702 C13.6420315,6.93754315 13.5879294,6.88344113 13.7585589,7.05407056 C13.978191,7.44023094 14.1063269,7.87162181 14.1331113,8.31506371 C14.1206262,8.41910605 14.1955367,8.48153145 14.2288302,8.46072298 C14.245477,8.21934476 14.8405992,7.87808589 15.3816194,7.82814556 C15.4648532,7.81149879 15.4232363,7.65335444 15.4357214,7.57012056 C15.4024278,7.27047863 15.6021891,6.99580685 15.889346,6.97499839 C16.2722218,7.0332621 16.4012343,7.23718508 16.4095577,7.5493121 C16.3679407,8.15275766 15.739525,8.2568 15.385781,8.29841694 C15.331679,8.3233871 15.3108706,8.34835726 15.385781,8.37748911 L16.8631823,8.38165081 L16.9380927,8.42326774 C16.9464161,8.46488468 16.9172843,8.43159113 16.8548589,8.52731008 C16.7924335,8.62302903 16.7133613,8.84776048 16.7091996,8.99341976 C16.266275,9.12270299 15.8119481,9.20910873 15.3524875,9.25144476 C15.1943431,9.33467863 15.115271,9.44288266 15.1444028,9.56357177 C15.1985048,9.70090766 15.5564105,9.83408185 15.5564105,9.84240524 C15.6229976,9.88402218 15.7020698,9.98390282 15.535602,10.1836641 C14.815629,10.1545323 14.2579621,9.84656694 14.0665242,9.41375081 C14.0082605,9.37213387 13.9416734,9.41375081 13.9042181,9.47201452 C13.6536549,9.85717228 13.2924024,10.1574906 12.8679565,10.3334851 C12.5807996,10.4042339 12.289481,10.2918681 12.1521452,10.1045919 C12.0605879,9.9963879 12.0647496,9.87986048 12.0272944,9.85489032 C11.8733117,9.92147742 10.5457315,10.4874677 10.7163609,10.225281 C11.0368113,9.87569879 11.5986399,9.62183548 12.0897198,9.28057661 C12.1313367,9.16821089 12.1937621,8.78117339 12.3893617,8.65632258 C12.3976851,8.65632258 12.3560681,8.88105403 12.3602298,8.97677298 C12.3602298,9.05584516 12.3560681,9.08497702 12.3727149,9.06416855 C12.4060085,9.04336008 13.0052923,8.57308871 13.051071,8.42742944 C13.1093347,8.34419556 13.0677177,8.13611089 13.0677177,8.1277875 C12.9595137,7.83646895 12.8013694,7.81566048 12.7431056,7.67000121 C12.6890036,7.47856331 12.7139738,7.26215524 12.8221778,7.19972984 C12.9178968,7.11233427 13.0302625,7.12065766 13.1384665,7.21637661 C13.2633173,7.32458065 13.3673597,7.53682702 13.4006532,7.69497137 C13.3798448,7.75739677 13.2425089,7.65335444 13.1925685,7.68664798 C13.2758024,7.76988185 13.3174194,7.87392419 13.3465512,7.998775 C13.4297851,8.33171048 13.4006532,8.45656129 13.3257427,8.67296935 C13.0593944,9.23063629 12.7181355,9.40126573 12.4184935,9.60518871 C12.4101702,9.6093504 12.4060085,9.75084798 12.5183742,9.82575847 C12.5599911,9.8673754 12.7139738,9.88402218 12.8929266,9.82575847 C13.2821837,9.61083724 13.59708,9.28288073 13.7960141,8.88521573 C13.8501161,8.58557379 13.7752056,8.26928508 13.6961335,7.99461331 C13.6054167,7.7755348 13.5221352,7.55345087 13.4464319,7.32874234 C13.4381085,7.1622746 13.4505935,7.10401089 13.5296657,7.02077702 L13.525504,7.02077702 Z M9.66345242,5.46430363 C9.82992016,5.54337581 10.1503706,5.50592056 10.1378855,5.23541048 L10.1295621,5.10639798 C10.0962685,5.02316411 10.0005496,5.04397258 9.97974113,5.13136815 C9.97141774,5.15633831 9.99222621,5.20211694 9.96725605,5.21460202 C9.95060927,5.2270871 9.89650726,5.21876371 9.90066895,5.14385323 C9.90066895,5.11888306 9.88402218,5.0939129 9.8715371,5.07726613 C9.85905202,5.07310444 9.85489032,5.06894274 9.83408185,5.06894274 C9.80911169,5.06894274 9.81327339,5.07726613 9.79662661,5.0980746 L9.78414153,5.1605 C9.78414153,5.18963185 9.77165645,5.19795524 9.75084798,5.20211694 C9.73003952,5.20211694 9.73420121,5.20211694 9.71755444,5.19379355 C9.70506935,5.18130847 9.69258427,5.17714677 9.69258427,5.15633831 L9.68426089,5.08975121 C9.67317714,5.07747839 9.65868879,5.06878538 9.64264395,5.06478105 C9.546925,5.06478105 9.54276331,5.17298508 9.546925,5.21460202 C9.53860161,5.21876371 9.53443992,5.41020161 9.66345242,5.46430363 Z"/>
        <path fill="#FFF" d="M14.6408379,7.57012056 C14.8073056,7.65335444 15.2151516,7.60341411 15.115271,7.34122742 L15.1069476,7.21637661 C15.073654,7.13314274 14.9820968,7.15395121 14.9571266,7.23718508 C14.9529649,7.26215524 14.9696117,7.30793387 14.9446415,7.32041895 C14.9321565,7.33706573 14.8780544,7.32874234 14.8780544,7.25383185 C14.8780544,7.22886169 14.8614077,7.20389153 14.8489226,7.18724476 C14.8405992,7.17892137 14.8322758,7.17892137 14.8114673,7.17892137 C14.7906589,7.17892137 14.7906589,7.18308306 14.7781738,7.20389153 L14.7656887,7.26631694 C14.761527,7.29544879 14.7490419,7.30793387 14.7323952,7.30793387 C14.707425,7.30793387 14.7157484,7.30793387 14.6949399,7.29961048 C14.6866165,7.2871254 14.6699698,7.28296371 14.6699698,7.26215524 C14.6699698,7.24134677 14.6699698,7.20805323 14.6616464,7.19556815 C14.653323,7.18308306 14.6366762,7.17892137 14.6200294,7.17475968 C14.5284722,7.17475968 14.5201488,7.27880202 14.5243105,7.32041895 C14.5201488,7.32874234 14.5159871,7.51601855 14.6408379,7.57012056 L14.6408379,7.57012056 Z M17.5457,6.69616492 C17.7121677,6.77939879 18.0326181,6.74194355 18.0201331,6.47143347 L18.0118097,6.34242097 C17.9785161,6.2591871 17.8827972,6.27999556 17.8619887,6.36322944 C17.8536653,6.39236129 17.8744738,6.43397823 17.8495036,6.44646331 C17.8328569,6.46311008 17.7787548,6.45478669 17.7829165,6.37987621 C17.7829165,6.35490605 17.7621081,6.32993589 17.7537847,6.31328911 C17.7412996,6.30912742 17.7371379,6.30496573 17.7121677,6.30496573 C17.6913593,6.30496573 17.6913593,6.31328911 17.6788742,6.33409758 L17.6663891,6.39652298 C17.6663891,6.42149315 17.653904,6.43397823 17.6330956,6.43813992 C17.6122871,6.43813992 17.6164488,6.43813992 17.599802,6.42565484 C17.5873169,6.41733145 17.5748319,6.40900806 17.5748319,6.39236129 C17.5748319,6.37155282 17.5706702,6.33825927 17.5623468,6.3216125 C17.5540234,6.30912742 17.5415383,6.30496573 17.5207298,6.30080403 C17.4291726,6.30080403 17.4250109,6.40900806 17.4291726,6.44646331 C17.4208492,6.45478669 17.4166875,6.6462246 17.5457,6.69616492 L17.5457,6.69616492 Z M19.0439097,8.88937742 C18.7525911,9.2223129 18.8816036,9.77165645 18.9481907,9.88818387 C19.0480714,10.0879452 19.1229819,10.212796 19.3144198,10.3085149 C19.4892109,10.4333657 19.6223851,10.3542935 19.6972956,10.266898 C19.8720867,10.0879452 19.8720867,9.62599718 19.9553206,9.53443992 C20.0135843,9.36797218 20.1550819,9.39710403 20.2258306,9.47201452 C20.2900828,9.56246077 20.3759162,9.63541914 20.4755323,9.68426089 C20.6378383,9.82575847 20.8292762,9.85072863 21.0207141,9.72587782 C21.1497266,9.65096734 21.2371222,9.55524839 21.3120327,9.36797218 C21.3952665,9.13907903 21.3536496,8.09033226 21.3328411,7.47023992 C21.3286794,7.4202996 21.1663734,6.61293105 21.1663734,6.60460766 C21.1663734,6.59628427 21.1414032,6.1926 21.1247565,6.09688105 C21.1247565,6.05942581 21.1122714,6.04694073 21.1538883,6.05526411 C21.1955052,6.08855766 21.2038286,6.09271935 21.2287988,6.10520444 C21.2704157,6.11352782 21.3120327,6.03861734 21.2870625,5.96786855 L20.8792165,5.21876371 C20.8500847,5.18963185 20.8084677,5.15633831 20.7543657,5.23124879 C20.6906473,5.28679844 20.6542,5.36728622 20.6544851,5.45181855 C20.6669702,5.63077137 20.696102,5.80972419 20.7085871,5.98867702 L20.8750548,6.89592621 C20.9249952,7.5451504 20.9374802,8.07368548 20.9874206,8.72707137 C20.9790972,8.99758145 20.8958633,9.23895968 20.8126294,9.26809153 C20.8126294,9.26809153 20.6919403,9.34300202 20.6128681,9.26809153 C20.5504427,9.23895968 20.3132262,8.86856895 20.3132262,8.86856895 C20.1883754,8.75620323 20.1134649,8.78533508 20.0219077,8.86856895 C19.7888528,9.0974621 19.6806488,9.53027823 19.5183427,9.82575847 C19.4767258,9.89234556 19.3560367,9.95060927 19.2270242,9.82159677 C18.8940887,9.36381048 19.0896883,8.72290968 19.0480714,8.88937742 L19.0439097,8.88937742 Z M17.6206105,5.10639798 C17.7745931,5.16882339 17.8786355,5.4809504 17.8453419,5.63077137 C17.8162101,5.81388589 17.7329762,6.01780887 17.6788742,5.98867702 C17.6122871,5.96786855 17.7204911,5.8055625 17.6580657,5.63493306 C17.6247722,5.52672903 17.4166875,5.32280605 17.437496,5.26454234 C17.395879,5.13969153 17.5290532,5.08558952 17.6206105,5.10639798 L17.6206105,5.10639798 Z"/>
        <path fill="#FFF" d="M19.5391512,9.07249194 C19.5682831,8.69793952 19.514181,8.47320806 19.5058577,8.2568 C19.4975343,8.04039194 19.256156,6.3840379 19.2145391,6.21757016 C19.1521137,5.90544315 19.4434323,6.17595323 19.4101387,5.99283871 C19.3102581,5.76394556 19.0647181,5.43101008 18.985646,5.23541048 C18.9398673,5.15217661 18.9565141,5.07310444 18.8524718,5.21044032 C18.7626365,5.45794494 18.7312998,5.72288221 18.7609145,5.98451532 C19.0106161,7.2871254 19.2644794,8.36916573 19.2228625,9.6093504 C19.3435516,9.6093504 19.4808875,9.33884032 19.5391512,9.06833024 L19.5391512,9.07249194 Z M22.136048,5.63077137 C22.2775456,5.70152016 22.3566177,6.08855766 22.3441327,6.19676169 C22.3150008,6.40068468 22.2400903,6.61293105 22.1859883,6.58796089 C22.1318863,6.56299073 22.1984734,6.28831895 22.1693415,6.20508508 C22.1402097,6.08439597 21.9529335,5.8679879 21.9695802,5.80140081 C21.932125,5.66822661 22.0528141,5.6099629 22.136048,5.63493306 L22.136048,5.63077137 Z M11.8275331,8.36916573 C11.9607073,8.42326774 12.0356177,8.70210121 12.0231327,8.78533508 C11.9981625,8.93515605 11.9274137,9.0933004 11.8774734,9.07665363 C11.8233714,9.05584516 11.8857968,8.85608387 11.8608266,8.79365847 C11.8483415,8.63967581 11.665227,8.56060363 11.6693887,8.49817823 C11.6360952,8.37332742 11.7484609,8.35251895 11.8275331,8.37332742 L11.8275331,8.36916573 Z"/>
        <path fill="#1B9D00" d="M15.0361988,8.79782016 C15.2026665,8.80614355 15.2900621,8.94347944 15.1319177,8.99758145 C14.9737734,9.05168347 14.8197907,9.0933004 14.8197907,9.32219355 C14.8780544,9.64264395 14.7365569,9.53027823 14.653323,9.48866129 C14.557604,9.4179125 14.2829323,9.25144476 14.245477,8.88521573 C14.2413153,8.80198185 14.3079024,8.72707137 14.4161065,8.72707137 C14.5825742,8.76868831 14.8239524,8.77701169 15.0320371,8.79782016 L15.0361988,8.79782016 Z"/>
        <path fill="#FFF" d="M8.28177016,5.01484073 C8.47736976,5.07310444 8.48985484,5.36026129 8.47320806,5.44765685 C8.4482379,5.60163952 8.37748911,5.76394556 8.32754879,5.7431371 C8.27344677,5.72649032 8.32754879,5.51840565 8.30257863,5.45181855 C8.27344677,5.36026129 8.10697903,5.19379355 8.1277875,5.14385323 C8.08617056,5.04397258 8.20269798,4.99819395 8.28177016,5.01900242 L8.28177016,5.01484073 Z M12.1479835,6.37155282 C11.9981625,6.45478669 11.9398988,6.69616492 12.031456,6.8376625 C12.1188516,6.96251331 12.2561875,6.91673468 12.276996,6.91673468 C12.4226552,6.93338145 12.5100508,6.63790121 12.5100508,6.63790121 C12.5100508,6.63790121 12.5142125,6.55466734 12.3435831,6.71281169 C12.2686726,6.72529677 12.2603492,6.70032661 12.2395407,6.65870968 C12.2217932,6.58040496 12.230577,6.49842226 12.2645109,6.42565484 C12.289481,6.35490605 12.2312173,6.3216125 12.1479835,6.37155282 L12.1479835,6.37155282 Z M13.2716407,4.902475 C13.2008919,4.95657702 13.0469093,5.11055968 13.0427476,5.2895125 C13.0427476,5.38939315 13.0219391,5.38939315 13.0843645,5.45598024 C13.1343048,5.52256734 13.1842452,5.51840565 13.2799641,5.46846532 C13.3281109,5.43726596 13.3612399,5.38757234 13.3715214,5.33112944 C13.3964915,5.21460202 13.2508323,5.38523145 13.2341855,5.25621895 C13.2008919,5.13969153 13.2924492,5.08975121 13.3798448,4.97322379 C13.3798448,4.89415161 13.3798448,4.8400496 13.2758024,4.902475 L13.2716407,4.902475 Z M14.1830516,5.06894274 C14.1467627,5.21492462 14.1244662,5.3640322 14.1164645,5.51424395 C14.0914944,5.62660968 14.2329919,5.67238831 14.299579,5.52672903 C14.395298,5.26454234 14.395298,5.15217661 14.4036214,5.03981089 C14.3744895,4.87334315 14.2579621,4.87334315 14.1830516,5.06478105 L14.1830516,5.06894274 Z M19.9053802,7.97796653 C19.922027,7.95715806 20.7127488,7.39532944 20.7127488,7.39532944 C20.791821,7.37035927 20.7751742,7.68664798 20.737719,7.68664798 C20.4935024,7.92336302 20.2123796,8.11874337 19.9053802,8.26512339 C19.8637633,8.29009355 19.8263081,8.04871532 19.9053802,7.97380484 L19.9053802,7.97796653 Z M20.6211915,7.97380484 C20.7585274,8.04039194 20.8167911,8.4482379 20.8001444,8.55644194 C20.804306,8.77285 20.6669702,8.94347944 20.6128681,8.91434758 C20.5546044,8.88937742 20.6170298,8.64799919 20.5920597,8.56476532 C20.5629278,8.44407621 20.4422387,8.21934476 20.4630472,8.15691935 C20.4214302,8.01958347 20.5379577,7.94883468 20.6211915,7.97380484 L20.6211915,7.97380484 Z M15.943448,9.72171613 C15.99755,9.63848226 16.1640177,9.52611653 16.1681794,9.52611653 C16.2472516,9.4844996 16.3221621,9.55524839 16.3180004,9.55108669 C16.3304855,9.63015887 16.2680601,9.70090766 16.2888685,9.80495 C16.3055153,9.84656694 16.3180004,9.89234556 16.3970726,9.87569879 C16.5219234,9.77997984 16.6384508,9.77165645 16.7633016,9.76333306 C16.8590206,9.77165645 16.8590206,9.92980081 16.8007569,9.9339625 C16.567702,9.98390282 16.4678214,10.0463282 16.3013536,10.1087536 C16.2222815,10.1545323 16.1556944,10.0962685 16.1556944,10.0921069 C16.1556944,10.0879452 16.1140774,10.0463282 16.1432093,9.94228589 C16.147371,9.85905202 16.1140774,9.81743508 16.0474903,9.82575847 C15.9933883,9.85072863 15.9476097,9.8673754 15.9226395,9.80911169 C15.9101544,9.76749476 15.9101544,9.74668629 15.943448,9.72171613 L15.943448,9.72171613 Z M21.4493685,9.93812419 C21.4826621,9.97974113 21.5076323,10.0213581 21.4493685,10.0921069 L21.2995476,10.2169577 C21.2704157,10.266898 21.2579306,10.3334851 21.3370028,10.3542935 C21.4826621,10.3959105 21.823921,10.1753407 21.823921,10.171179 C21.878023,10.1295621 21.8613762,10.0504899 21.8530528,10.0504899 C21.823921,10.0130347 21.7490105,10.0338431 21.7032319,10.0296815 C21.6782617,10.0296815 21.6033512,10.0171964 21.6366448,9.95060927 C21.6699383,9.90899234 21.6782617,9.88402218 21.6990702,9.82992016 C21.7240403,9.77997984 21.7032319,9.74668629 21.619998,9.71755444 C21.5367641,9.70506935 21.5034706,9.71339274 21.4119133,9.71755444 C21.3578113,9.73003952 21.3411645,9.75084798 21.3286794,9.81327339 C21.3370028,9.90483065 21.3911048,9.90066895 21.4535302,9.93812419 L21.4493685,9.93812419 Z"/>
        <path fill="#259F00" d="M15.9725798,7.64919274 C15.9517714,7.69080968 15.8768609,7.68664798 15.8061121,7.64919274 C15.7353633,7.6117375 15.7020698,7.5451504 15.7228782,7.50769516 C15.7436867,7.47023992 15.8185972,7.47023992 15.889346,7.50769516 C15.9600948,7.5451504 15.9933883,7.6117375 15.9725798,7.64919274 Z M12.3810383,5.49343548 C12.3394214,5.50592056 12.2853194,5.46846532 12.2603492,5.41020161 C12.235379,5.3519379 12.2478641,5.30615927 12.289481,5.29367419 C12.331098,5.28118911 12.3852,5.32280605 12.4101702,5.37690806 C12.4351403,5.43101008 12.4226552,5.4851121 12.3810383,5.49343548 Z"/>
        <path fill="#209000" d="M19.4850492,15.1194327 C19.8596016,15.1360794 20.2175073,15.1235944 20.5920597,15.1444028 C20.6628085,15.1985048 20.6128681,15.3441641 20.5670895,15.331679 L20.2508008,15.3233556 C20.2508008,15.2026665 19.9386738,15.223475 19.9511589,15.3275173 C19.7846911,15.3483258 19.6348702,15.3233556 19.4684024,15.3150323 C19.4184621,15.2526069 19.4267855,15.1444028 19.4850492,15.1194327 L19.4850492,15.1194327 Z"/>
      </g>
    </g>
  </g>
</svg>
