<?xml version="1.0" encoding="UTF-8"?>
<svg width="24px" height="24px" viewBox="0 0 24 24" version="1.1" xmlns="http://www.w3.org/2000/svg" xmlns:xlink="http://www.w3.org/1999/xlink">
    <!-- Generator: Sketch 53.2 (72643) - https://sketchapp.com -->
    <title>IconsMiscActionZoomOut</title>
    <desc>Created with Sketch.</desc>
    <defs>
        <path d="M12.5,11 L11.71,11 L11.43,10.73 C12.41,9.59 13,8.11 13,6.5 C13,2.91014913 10.0898509,4.4408921e-16 6.5,0 C2.91014913,-4.4408921e-16 4.4408921e-16,2.91014913 0,6.5 C4.4408921e-16,10.0898509 2.91014913,13 6.5,13 C8.11,13 9.59,12.41 10.73,11.43 L11,11.71 L11,12.5 L16,17.5 L17.5,16 L12.5,11 L12.5,11 Z M6.5,11 C4,11 2,9 2,6.5 C2,4 4,2 6.5,2 C9,2 11,4 11,6.5 C11,9 9,11 6.5,11 L6.5,11 Z M4,6 L9,6 L9,7 L4,7 L4,6 Z" id="path-1"></path>
    </defs>
    <g id="ZDS-icons" stroke="none" stroke-width="1" fill="none" fill-rule="evenodd">
        <g id="IconsMiscActionZoomOut">
            <g id="ic_zoom_out">
                <g id="Icon-24px">
                    <polygon id="Shape" points="0 0 24 0 24 24 0 24"></polygon>
                    <g id="grayscale-/-black" transform="translate(3.000000, 3.000000)">
                        <mask id="mask-2" fill="white">
                            <use xlink:href="#path-1"></use>
                        </mask>
                        <use id="Mask" fill="#000000" fill-rule="nonzero" xlink:href="#path-1"></use>
                        <g mask="url(#mask-2)" fill="#000000" id="color-/-grayscale-/-black">
                            <g transform="translate(-3.000000, -3.000000)">
                                <rect x="0" y="0" width="24" height="24"></rect>
                            </g>
                        </g>
                    </g>
                </g>
            </g>
        </g>
    </g>
</svg>