<?xml version="1.0" encoding="UTF-8"?>
<svg width="24px" height="24px" viewBox="0 0 24 24" version="1.1" xmlns="http://www.w3.org/2000/svg" xmlns:xlink="http://www.w3.org/1999/xlink">
    <!-- Generator: Sketch 53.2 (72643) - https://sketchapp.com -->
    <title>IconsMiscActionUserEdit</title>
    <desc>Created with Sketch.</desc>
    <defs>
        <path d="M17.7,9.35 L16.7,10.35 L14.65,8.3 L15.65,7.3 C15.86,7.09 16.21,7.09 16.42,7.3 L17.7,8.58 C17.91,8.79 17.91,9.14 17.7,9.35 L17.7,9.35 Z M8,14.94 L14.06,8.88 L16.11,10.93 L10.06,17 L8,17 L8,14.94 L8,14.94 Z M8,10 C3.58,10 0,11.79 0,14 L0,16 L6,16 L6,14.11 L10,10.11 C9.34,10.03 8.67,10 8,10 L8,10 Z M8,0 C5.790861,0 4,1.790861 4,4 C4,6.209139 5.790861,8 8,8 C10.209139,8 12,6.209139 12,4 C12,1.790861 10.209139,0 8,0 Z" id="path-1"></path>
    </defs>
    <g id="ZDS-icons" stroke="none" stroke-width="1" fill="none" fill-rule="evenodd">
        <g id="IconsMiscActionUserEdit">
            <g id="ic_user_edit">
                <g id="Icon-24px">
                    <polygon id="Shape" points="0 0 24 0 24 24 0 24"></polygon>
                    <g id="grayscale-/-black" transform="translate(3.000000, 4.000000)">
                        <mask id="mask-2" fill="white">
                            <use xlink:href="#path-1"></use>
                        </mask>
                        <use id="Mask" fill="#000000" fill-rule="nonzero" xlink:href="#path-1"></use>
                        <g mask="url(#mask-2)" fill="#000000" id="color-/-grayscale-/-black">
                            <g transform="translate(-3.000000, -4.000000)">
                                <rect x="0" y="0" width="24" height="24"></rect>
                            </g>
                        </g>
                    </g>
                </g>
            </g>
        </g>
    </g>
</svg>