<?xml version="1.0" encoding="UTF-8"?>
<svg width="24px" height="24px" viewBox="0 0 24 24" version="1.1" xmlns="http://www.w3.org/2000/svg" xmlns:xlink="http://www.w3.org/1999/xlink">
    <!-- Generator: Sketch 53.2 (72643) - https://sketchapp.com -->
    <title>IconsMiscActionMapMarker</title>
    <desc>Created with Sketch.</desc>
    <defs>
        <path d="M7,9.5 C5.61928813,9.5 4.5,8.38071187 4.5,7 C4.5,6.33695878 4.7633921,5.70107399 5.23223305,5.23223305 C5.70107399,4.7633921 6.33695878,4.5 7,4.5 C8.38071187,4.5 9.5,5.61928813 9.5,7 C9.5,7.66304122 9.2366079,8.29892601 8.76776695,8.76776695 C8.29892601,9.2366079 7.66304122,9.5 7,9.5 L7,9.5 Z M7,8.8817842e-16 C3.13400675,-4.4408921e-16 8.8817842e-16,3.13400675 0,7 C8.8817842e-16,12.25 7,20 7,20 C7,20 14,12.25 14,7 C14,3.13400675 10.8659932,1.33226763e-15 7,8.8817842e-16 Z" id="path-1"></path>
    </defs>
    <g id="ZDS-icons" stroke="none" stroke-width="1" fill="none" fill-rule="evenodd">
        <g id="IconsMiscActionMapMarker">
            <g id="ic_map_marker">
                <g id="Icon-24px">
                    <polygon id="Shape" points="0 0 24 0 24 24 0 24"></polygon>
                    <g id="grayscale-/-black" transform="translate(5.000000, 2.000000)">
                        <mask id="mask-2" fill="white">
                            <use xlink:href="#path-1"></use>
                        </mask>
                        <use id="Mask" fill="#000000" fill-rule="nonzero" xlink:href="#path-1"></use>
                        <g mask="url(#mask-2)" fill="#000000" id="color-/-grayscale-/-black">
                            <g transform="translate(-5.000000, -2.000000)">
                                <rect x="0" y="0" width="24" height="24"></rect>
                            </g>
                        </g>
                    </g>
                </g>
            </g>
        </g>
    </g>
</svg>