<?xml version="1.0" encoding="UTF-8"?>
<svg width="24px" height="24px" viewBox="0 0 24 24" version="1.1" xmlns="http://www.w3.org/2000/svg" xmlns:xlink="http://www.w3.org/1999/xlink">
    <!-- Generator: Sketch 53.2 (72643) - https://sketchapp.com -->
    <title>IconsMiscActionCrosshair</title>
    <desc>Created with Sketch.</desc>
    <defs>
        <path d="M11,7 C13.209139,7 15,8.790861 15,11 C15,13.209139 13.209139,15 11,15 C8.790861,15 7,13.209139 7,11 C7,8.790861 8.790861,7 11,7 L11,7 Z M2.05,12 L0,12 L0,10 L2.05,10 C2.5,5.83 5.83,2.5 10,2.05 L10,0 L12,0 L12,2.05 C16.17,2.5 19.5,5.83 19.95,10 L22,10 L22,12 L19.95,12 C19.5,16.17 16.17,19.5 12,19.95 L12,22 L10,22 L10,19.95 C5.83,19.5 2.5,16.17 2.05,12 L2.05,12 Z M11,4 C7.13400675,4 4,7.13400675 4,11 C4,14.8659932 7.13400675,18 11,18 C14.8659932,18 18,14.8659932 18,11 C18,7.13400675 14.8659932,4 11,4 Z" id="path-1"></path>
    </defs>
    <g id="ZDS-icons" stroke="none" stroke-width="1" fill="none" fill-rule="evenodd">
        <g id="IconsMiscActionCrosshair">
            <g id="ic_crosshair">
                <g id="Icon-24px">
                    <polygon id="Shape" points="0 0 24 0 24 24 0 24"></polygon>
                    <g id="grayscale-/-black" transform="translate(1.000000, 1.000000)">
                        <mask id="mask-2" fill="white">
                            <use xlink:href="#path-1"></use>
                        </mask>
                        <use id="Mask" fill="#000000" fill-rule="nonzero" xlink:href="#path-1"></use>
                        <g mask="url(#mask-2)" fill="#000000" id="color-/-grayscale-/-black">
                            <g transform="translate(-1.000000, -1.000000)">
                                <rect x="0" y="0" width="24" height="24"></rect>
                            </g>
                        </g>
                    </g>
                </g>
            </g>
        </g>
    </g>
</svg>