<?xml version="1.0" encoding="UTF-8"?>
<svg width="24px" height="24px" viewBox="0 0 24 24" version="1.1" xmlns="http://www.w3.org/2000/svg" xmlns:xlink="http://www.w3.org/1999/xlink">
    <!-- Generator: Sketch 53.2 (72643) - https://sketchapp.com -->
    <title>IconsSgePsPs</title>
    <desc>Created with Sketch.</desc>
    <defs>
        <path d="M9.04373178,12.4759494 L10.4664723,8.63628692 L6.67638484,8.63628692 L9.2361516,3.83966245 L11.0845481,3.83966245 L9.42857143,7.00590717 L12.7930029,7.00590717 L9.04373178,12.4759494 Z M19.8950437,2.7350211 L17.335277,2.7350211 L17.335277,3.36118143 L17.335277,3.93417722 L16.8629738,3.93417722 L14.5422741,1.72489451 L11.2769679,1.72489451 L11.1370262,1.72489451 L11.1370262,0.956962025 L13.7434402,0.956962025 L13.7434402,0 L5.20699708,0 L5.20699708,0.956962025 L7.86005831,0.956962025 L7.86005831,1.67763713 L7.76676385,1.67763713 L4.50145773,1.67763713 C4.12244898,1.67763713 3.83673469,2.06160338 3.83673469,2.492827 L3.83673469,3.44978903 L2.32069971,3.44978903 C1.89504373,3.44978903 1.51603499,3.92827004 1.51603499,4.55443038 L1.51603499,5.65907173 L0.950437318,5.65907173 L0.950437318,2.97130802 L0,2.97130802 L0,11.6548523 L0.944606414,11.6548523 L0.944606414,8.96708861 L1.56268222,8.96708861 L1.56268222,10.7924051 C1.56268222,11.4185654 1.94169096,11.8970464 2.36734694,11.8970464 L4.06997085,11.8970464 L6.05830904,13.9113924 L9.18367347,13.9113924 L12.5014577,13.9113924 L15.6326531,13.9113924 C15.9650146,13.9113924 16.2507289,13.5274262 16.2507289,13.0962025 L16.2507289,11.7021097 L17.3411079,11.7021097 L17.3411079,13.2379747 L18.2390671,13.2379747 L19.2361516,13.2379747 L19.9008746,13.2379747 L19.9008746,3.31392405 L19.9008746,2.7350211 L19.8950437,2.7350211 Z" id="path-1"></path>
    </defs>
    <g id="ZDS-icons" stroke="none" stroke-width="1" fill="none" fill-rule="evenodd">
        <g id="IconsSgePsPs">
            <g id="ic_ps">
                <g id="Icon-24px">
                    <polygon id="Shape" points="0 0 24 0 24 24 0 24"></polygon>
                    <g id="grayscale-/-black" transform="translate(2.000000, 5.000000)">
                        <mask id="mask-2" fill="white">
                            <use xlink:href="#path-1"></use>
                        </mask>
                        <use id="Mask" fill="#131516" fill-rule="nonzero" xlink:href="#path-1"></use>
                        <g mask="url(#mask-2)" fill="#000000" id="color-/-grayscale-/-black">
                            <g transform="translate(-2.000000, -5.000000)">
                                <rect x="0" y="0" width="24" height="24"></rect>
                            </g>
                        </g>
                    </g>
                </g>
            </g>
        </g>
    </g>
</svg>