<svg xmlns="http://www.w3.org/2000/svg" width="24" height="24" viewBox="0 0 24 24">
  <path fill="#131516" d="M11.9403189,13.73125 C10.7874715,13.73125 9.8546697,12.7894886 9.8546697,11.6255682 C9.8546697,10.4616477 10.7874715,9.51988636 11.9403189,9.51988636 C13.0931663,9.51988636 14.0259681,10.4616477 14.0259681,11.6255682 C14.0259681,12.7894886 13.0931663,13.73125 11.9403189,13.73125 Z M19.4123007,11.4372159 C19.7567198,11.4372159 20.0963554,11.3985795 20.4168565,11.3213068 L20.4168565,14.0065341 L19.2640091,14.0065341 L17.7332574,17.1795455 L17.0013667,17.1795455 C15.6667426,18.4159091 13.8920273,19.1693182 11.9403189,19.1693182 C10.4191344,19.1693182 9.00318907,18.7105114 7.82164009,17.9232955 L6.1856492,18.8698864 L6.53963554,19.4928977 L5.6738041,19.9951705 L2.14350797,13.7698864 L3.00933941,13.2676136 L3.49726651,14.1224432 L4.67881549,13.4414773 C4.53530752,12.8571023 4.45876993,12.2485795 4.45876993,11.6207386 C4.45876993,11.5917614 4.45876993,11.5627841 4.45876993,11.5338068 L3.0284738,11.5338068 L3.0284738,12.2534091 L2.03348519,12.2534091 L2.03348519,5.07670455 L3.0284738,5.07670455 L3.0284738,6.06193182 L6.87448747,6.06193182 C7.72118451,5.27471591 8.74487472,4.68551136 9.8833713,4.35710227 L9.8833713,3.85482955 L13.9924829,3.85482955 L13.9924829,4.36193182 C14.3321185,4.45852273 14.6621868,4.57926136 14.9779043,4.72414773 C14.743508,5.29886364 14.6095672,5.92670455 14.6095672,6.58835227 C14.6095672,7.05681818 14.6765376,7.50596591 14.8009112,7.93579545 C14.0116173,7.31278409 13.0214123,6.94090909 11.9403189,6.94090909 C9.37630979,6.94090909 7.30022779,9.03693182 7.30022779,11.6255682 C7.30022779,14.2142045 9.37630979,16.3102273 11.9403189,16.3102273 C14.504328,16.3102273 16.58041,14.2142045 16.58041,11.6255682 C16.58041,11.1909091 16.5230068,10.7755682 16.4129841,10.3747159 C17.2357631,11.0363636 18.2785877,11.4372159 19.4123007,11.4372159 Z M19.4123007,3.70028409 C17.833713,3.70028409 16.5517084,4.99460227 16.5517084,6.58835227 C16.5517084,8.18210227 17.833713,9.47642045 19.4123007,9.47642045 C20.9908884,9.47642045 22.2728929,8.18210227 22.2728929,6.58835227 C22.2728929,4.99460227 20.9908884,3.70028409 19.4123007,3.70028409 Z M19.4123007,3.00965909 C21.3735763,3.00965909 22.9617312,4.60823864 22.9569476,6.58835227 C22.9569476,8.56363636 21.3687927,10.1670455 19.4123007,10.1670455 C17.4558087,10.1670455 15.8676538,8.56363636 15.8676538,6.58835227 C15.8676538,4.61306818 17.4558087,3.00965909 19.4123007,3.00965909 Z M19.4123007,7.15340909 C19.7232346,7.15340909 19.9767654,6.89744318 19.9767654,6.58352273 C19.9767654,6.26960227 19.7232346,6.01363636 19.4123007,6.01363636 C19.1013667,6.01363636 18.847836,6.26960227 18.847836,6.58352273 C18.847836,6.89744318 19.1013667,7.15340909 19.4123007,7.15340909 Z M20.6129841,6.74289773 L20.9526196,7.01335227 C20.9813212,7.0375 20.9908884,7.08579545 20.971754,7.11960227 L20.6512528,7.68465909 C20.6321185,7.71846591 20.5842825,7.73295455 20.5507973,7.71846591 L20.1489749,7.55426136 C20.0628702,7.61704545 19.9767654,7.67017045 19.8763098,7.71363636 L19.8189066,8.14346591 C19.814123,8.18210227 19.7758542,8.21107955 19.7375854,8.21107955 L19.0917995,8.21107955 C19.0487472,8.21107955 19.015262,8.18210227 19.0104784,8.14346591 L18.9530752,7.71363636 C18.8526196,7.675 18.7665148,7.61704545 18.68041,7.55426136 L18.2785877,7.71846591 C18.2403189,7.73295455 18.1972665,7.71846591 18.1781321,7.68465909 L17.857631,7.11960227 C17.8384966,7.08096591 17.8480638,7.0375 17.8767654,7.01335227 L18.2164009,6.74289773 C18.2116173,6.68977273 18.2068337,6.63664773 18.2068337,6.58352273 C18.2068337,6.53039773 18.2116173,6.47244318 18.2164009,6.41931818 L17.8767654,6.15369318 C17.8480638,6.12954545 17.8384966,6.08125 17.857631,6.04744318 L18.1781321,5.48238636 C18.1972665,5.44857955 18.2451025,5.43409091 18.2785877,5.44857955 L18.68041,5.61278409 C18.7665148,5.55 18.8526196,5.49204545 18.9530752,5.45340909 L19.0104784,5.02357955 C19.015262,4.98494318 19.0535308,4.95596591 19.0917995,4.95596591 L19.7375854,4.95596591 C19.7806378,4.95596591 19.814123,4.98494318 19.8189066,5.02357955 L19.8763098,5.45340909 C19.9767654,5.49204545 20.0628702,5.55 20.1489749,5.61278409 L20.5507973,5.44857955 C20.5890661,5.43409091 20.6321185,5.44857955 20.6512528,5.48238636 L20.971754,6.04744318 C20.9908884,6.08607955 20.9813212,6.12954545 20.9526196,6.15369318 L20.6129841,6.41931818 C20.6177677,6.47727273 20.6225513,6.53039773 20.6225513,6.58352273 C20.6225513,6.63664773 20.6177677,6.68977273 20.6129841,6.74289773 Z"/>
</svg>
