<svg xmlns="http://www.w3.org/2000/svg" width="24" height="24" viewBox="0 0 24 24">
  <path d="M15.6363636,6.54545455 L15.6363636,17 C15.6363636,19.0083082 14.0083082,20.6363636 12,20.6363636 C9.99169182,20.6363636 8.36363636,19.0083082 8.36363636,17 L8.36363636,5.63636364 C8.36363636,4.38117102 9.38117102,3.36363636 10.6363636,3.36363636 C11.8915562,3.36363636 12.9090909,4.38117102 12.9090909,5.63636364 L12.9090909,15.1818182 C12.9090909,15.6838952 12.502077,16.0909091 12,16.0909091 C11.497923,16.0909091 11.0909091,15.6838952 11.0909091,15.1818182 L11.0909091,6.54545455 L9.72727273,6.54545455 L9.72727273,15.1818182 C9.72727273,16.4370108 10.7448074,17.4545455 12,17.4545455 C13.2551926,17.4545455 14.2727273,16.4370108 14.2727273,15.1818182 L14.2727273,5.63636364 C14.2727273,3.62805546 12.6446718,2 10.6363636,2 C8.62805546,2 7,3.62805546 7,5.63636364 L7,17 C7,19.7614237 9.23857625,22 12,22 C14.7614237,22 17,19.7614237 17,17 L17,6.54545455 L15.6363636,6.54545455 Z"/>
</svg>
