<?xml version="1.0" encoding="UTF-8"?>
<svg width="24px" height="24px" viewBox="0 0 24 24" version="1.1" xmlns="http://www.w3.org/2000/svg" xmlns:xlink="http://www.w3.org/1999/xlink">
    <!-- Generator: Sketch 53.2 (72643) - https://sketchapp.com -->
    <title>IconsSgeZbmNew</title>
    <desc>Created with Sketch.</desc>
    <defs>
        <path d="M5.50157368,4.38590389 L5.50157368,2.31981693 L5.8981402,2.31981693 L6.73533619,4.38590389 L5.50157368,4.38590389 Z M9.5490701,4.55505721 L9.10844063,3.41327231 L20.8103004,3.41327231 L20.8103004,3.5401373 L17.8643777,4.55505721 C17.8643777,4.55505721 9.5490701,4.55505721 9.5490701,4.55505721 Z M1.10786838,5.31020595 L1.10786838,3.91469108 C1.10786838,3.87240275 1.10786838,3.83011442 1.10786838,3.78782609 L1.10786838,3.74553776 L3.78941345,3.74553776 L3.78941345,3.78782609 C3.78941345,3.83011442 3.78941345,3.87240275 3.78941345,3.91469108 L3.78941345,4.33757437 L1.98283262,4.33757437 L1.80658083,5.31020595 L1.10786838,5.31020595 Z M9.98969957,5.60622426 L14.6981402,5.60622426 L10.5625179,7.04402746 L9.98969957,5.60622426 Z M22,4.34361556 L22,2.2775286 L16.8949928,2.2775286 L16.8949928,2.2775286 L8.85035765,2.2775286 L7.96909871,0 L7.22002861,0 L7.22002861,0 L1.06380544,0 L1.06380544,1.01491991 L6.91158798,1.01491991 L9.85751073,8.53016018 L22,4.34361556 Z M0.00629470672,11.3936842 L0.931616595,11.3936842 L0.931616595,9.07386728 C1.6806867,7.63606407 3.21659514,6.62718535 5.02317597,6.62718535 C6.0806867,6.62718535 7.04377682,6.96549199 7.83690987,7.5575286 L7.83690987,5.36457666 L6.42689557,1.77610984 L2.42346209,1.77610984 L2.33533619,2.28356979 L4.84062947,2.28356979 L4.84062947,4.39194508 L4.22374821,4.39194508 L4.22374821,3.92677346 C4.22374821,3.71533181 4.17968526,3.54617849 4.04749642,3.4193135 C4.00343348,3.33473684 3.91530758,3.29244851 3.78311874,3.29244851 L1.01344778,3.29244851 C0.881258941,3.29244851 0.793133047,3.37702517 0.7490701,3.4193135 C0.616881259,3.54617849 0.572818312,3.75762014 0.572818312,3.92677346 L0.572818312,5.32228833 L0,5.32228833 L0,11.3574371 L0,11.3936842 L0.00629470672,11.3936842 Z M16.3725322,12.4448513 C15.4912732,12.4448513 14.7422031,11.7259497 14.7422031,10.8801831 C14.7422031,10.0344165 15.4912732,9.31551487 16.3725322,9.31551487 C17.2537911,9.31551487 18.0028612,10.0344165 18.0028612,10.8801831 C17.9965665,11.7319908 17.2915594,12.4448513 16.3725322,12.4448513 Z M5.06723891,12.4448513 C4.18597997,12.4448513 3.43690987,11.7259497 3.43690987,10.8801831 C3.43690987,10.0344165 4.18597997,9.31551487 5.06723891,9.31551487 C5.94849785,9.31551487 6.69756795,10.0344165 6.69756795,10.8801831 C6.69127325,11.7319908 5.94220315,12.4448513 5.06723891,12.4448513 Z M11.3997139,12.6562929 L11.3997139,11.8105263 L12.3250358,11.8105263 C12.2809728,11.5567963 12.2369099,11.2184897 12.2369099,10.9224714 C12.2369099,10.1189931 12.4572246,9.40009153 12.8537911,8.81409611 L12.3250358,8.30663616 L9.11473534,9.40613272 L9.11472239,12.6562929 C9.10844063,12.6562929 11.3997139,12.6562929 11.3997139,12.6562929 Z M16.3725322,14.3478261 C18.3490701,14.3478261 19.9793991,12.7831579 19.9793991,10.8862243 C19.9793991,8.98929062 18.3490701,7.42462243 16.3725322,7.42462243 C14.3959943,7.42462243 12.7656652,8.98929062 12.7656652,10.8862243 C12.7656652,12.7831579 14.3896996,14.3478261 16.3725322,14.3478261 Z M5.02317597,14.3478261 C6.99971388,14.3478261 8.63004292,12.7831579 8.63004292,10.8862243 C8.63004292,8.98929062 6.99971388,7.42462243 5.02317597,7.42462243 C3.04663805,7.42462243 1.41630901,8.98324943 1.41630901,10.8862243 C1.41630901,12.7891991 3.04034335,14.3478261 5.02317597,14.3478261 Z" id="path-1"></path>
    </defs>
    <g id="ZDS-icons" stroke="none" stroke-width="1" fill="none" fill-rule="evenodd">
        <g id="IconsSgeZbmNew">
            <g id="ic_zbm_new">
                <g id="Icon-24px">
                    <polygon id="Shape" points="0 0 24 0 24 24 0 24"></polygon>
                    <g id="grayscale-/-black" transform="translate(1.000000, 5.000000)">
                        <mask id="mask-2" fill="white">
                            <use xlink:href="#path-1"></use>
                        </mask>
                        <use id="Mask" fill="#131516" fill-rule="nonzero" transform="translate(11.000000, 7.173913) scale(-1, 1) translate(-11.000000, -7.173913) " xlink:href="#path-1"></use>
                        <g mask="url(#mask-2)" fill="#000000" id="color-/-grayscale-/-black">
                            <g transform="translate(-1.000000, -5.000000)">
                                <rect x="0" y="0" width="24" height="24"></rect>
                            </g>
                        </g>
                    </g>
                </g>
            </g>
        </g>
    </g>
</svg>