<?xml version="1.0" encoding="UTF-8"?>
<svg width="24px" height="24px" viewBox="0 0 24 24" version="1.1" xmlns="http://www.w3.org/2000/svg" xmlns:xlink="http://www.w3.org/1999/xlink">
    <!-- Generator: Sketch 53.2 (72643) - https://sketchapp.com -->
    <title>IconsSgeAbService</title>
    <desc>Created with Sketch.</desc>
    <defs>
        <path d="M16.6213152,12.919797 C17.0340136,12.919797 17.4331066,12.8649746 17.814059,12.7598985 L17.814059,17.9451777 L2.13162821e-14,17.9451777 L2.13162821e-14,8.97258883 L0.820861678,0.717258883 C0.861678005,0.310659898 1.20181406,8.8817842e-15 1.60544218,8.8817842e-15 L2.84807256,8.8817842e-15 C3.25170068,8.8817842e-15 3.59183673,0.310659898 3.63265306,0.717258883 L4.45351474,8.97258883 L7.41043084,6.58781726 C8.01360544,6.1035533 8.90702948,6.53756345 8.90702948,7.3142132 L8.90702948,8.97258883 L11.8639456,6.58781726 C12.0589569,6.43248731 12.2857143,6.37309645 12.4988662,6.38680203 C12.2222222,6.97614213 12.0680272,7.63857868 12.0680272,8.33299492 C12.0680272,10.8685279 14.1088435,12.919797 16.6213152,12.919797 Z M5.34693878,16.1497462 L5.34693878,14.3543147 L1.78231293,14.3543147 L1.78231293,16.1497462 L5.34693878,16.1497462 Z M5.34693878,12.5634518 L5.34693878,10.7680203 L1.78231293,10.7680203 L1.78231293,12.5634518 L5.34693878,12.5634518 Z M10.6893424,16.1497462 L10.6893424,14.3543147 L7.12471655,14.3543147 L7.12471655,16.1497462 L10.6893424,16.1497462 Z M10.6893424,12.5634518 L10.6893424,10.7680203 L7.12471655,10.7680203 L7.12471655,12.5634518 L10.6893424,12.5634518 Z M16.031746,16.1497462 L16.031746,14.3543147 L12.4671202,14.3543147 L12.4671202,16.1497462 L16.031746,16.1497462 Z M16.6213152,5.60101523 C15.1247166,5.60101523 13.9092971,6.82538071 13.9092971,8.33299492 C13.9092971,9.84060914 15.1247166,11.0649746 16.6213152,11.0649746 C18.1179138,11.0649746 19.3333333,9.84060914 19.3333333,8.33299492 C19.3333333,6.82538071 18.1179138,5.60101523 16.6213152,5.60101523 Z M16.6213152,4.94771574 C18.4807256,4.94771574 19.9818594,6.46446701 19.9818594,8.33299492 C19.9818594,10.2015228 18.4761905,11.7182741 16.6213152,11.7182741 C14.7664399,11.7182741 13.260771,10.2015228 13.260771,8.33299492 C13.260771,6.46446701 14.7619048,4.94771574 16.6213152,4.94771574 Z M16.6213152,8.86751269 C16.9206349,8.86751269 17.1564626,8.62538071 17.1564626,8.3284264 C17.1564626,8.03147208 16.9160998,7.7893401 16.6213152,7.7893401 C16.3265306,7.7893401 16.0861678,8.03147208 16.0861678,8.3284264 C16.0861678,8.62538071 16.3265306,8.86751269 16.6213152,8.86751269 Z M17.7596372,8.47918782 L18.0816327,8.73502538 C18.1088435,8.75786802 18.1179138,8.8035533 18.0997732,8.83553299 L17.7959184,9.37005076 C17.7777778,9.40203046 17.7324263,9.41573604 17.7006803,9.40203046 L17.3197279,9.24670051 C17.2380952,9.30609137 17.1564626,9.35634518 17.0612245,9.39746193 L17.0068027,9.80406091 C17.0022676,9.84060914 16.9659864,9.8680203 16.9297052,9.8680203 L16.3174603,9.8680203 C16.276644,9.8680203 16.244898,9.84060914 16.2403628,9.80406091 L16.185941,9.39746193 C16.0907029,9.36091371 16.0090703,9.30609137 15.9274376,9.24670051 L15.5464853,9.40203046 C15.5102041,9.41573604 15.4693878,9.40203046 15.4512472,9.37005076 L15.1473923,8.83553299 C15.1292517,8.79898477 15.138322,8.75786802 15.1655329,8.73502538 L15.4875283,8.47918782 C15.4829932,8.42893401 15.478458,8.3786802 15.478458,8.3284264 C15.478458,8.27817259 15.4829932,8.22335025 15.4875283,8.17309645 L15.1655329,7.92182741 C15.138322,7.89898477 15.1292517,7.85329949 15.1473923,7.8213198 L15.4512472,7.28680203 C15.4693878,7.25482234 15.5147392,7.24111675 15.5464853,7.25482234 L15.9274376,7.41015228 C16.0090703,7.35076142 16.0907029,7.29593909 16.185941,7.25939086 L16.2403628,6.85279188 C16.244898,6.81624365 16.2811791,6.78883249 16.3174603,6.78883249 L16.9297052,6.78883249 C16.9705215,6.78883249 17.0022676,6.81624365 17.0068027,6.85279188 L17.0612245,7.25939086 C17.1564626,7.29593909 17.2380952,7.35076142 17.3197279,7.41015228 L17.7006803,7.25482234 C17.7369615,7.24111675 17.7777778,7.25482234 17.7959184,7.28680203 L18.0997732,7.8213198 C18.1179138,7.85786802 18.1088435,7.89898477 18.0816327,7.92182741 L17.7596372,8.17309645 C17.7641723,8.22791878 17.7687075,8.27817259 17.7687075,8.3284264 C17.7687075,8.3786802 17.7641723,8.42893401 17.7596372,8.47918782 Z" id="path-1"></path>
    </defs>
    <g id="ZDS-icons" stroke="none" stroke-width="1" fill="none" fill-rule="evenodd">
        <g id="IconsSgeAbService">
            <g id="ic_ab_service">
                <g id="Icon-24px">
                    <polygon id="Shape" points="0 0 24 0 24 24 0 24"></polygon>
                    <g id="grayscale-/-black" transform="translate(2.000000, 3.000000)">
                        <mask id="mask-2" fill="white">
                            <use xlink:href="#path-1"></use>
                        </mask>
                        <use id="Mask" fill="#131516" fill-rule="nonzero" xlink:href="#path-1"></use>
                        <g mask="url(#mask-2)" fill="#000000" id="color-/-grayscale-/-black">
                            <g transform="translate(-2.000000, -3.000000)">
                                <rect x="0" y="0" width="24" height="24"></rect>
                            </g>
                        </g>
                    </g>
                </g>
            </g>
        </g>
    </g>
</svg>