<?xml version="1.0" encoding="UTF-8"?>
<svg width="24px" height="24px" viewBox="0 0 24 24" version="1.1" xmlns="http://www.w3.org/2000/svg" xmlns:xlink="http://www.w3.org/1999/xlink">
    <!-- Generator: Sketch 53.2 (72643) - https://sketchapp.com -->
    <title>IconsSgePsService</title>
    <desc>Created with Sketch.</desc>
    <defs>
        <path d="M9.426,15.7661 L13.334,10.0621 L9.827,10.0621 L11.553,6.7611 L9.627,6.7611 L6.959,11.7621 L10.909,11.7621 L9.426,15.7661 Z M13.067,3.8471 C13.067,6.6071 15.273,8.8421 17.995,8.8421 C19.01,8.8421 19.952,8.5291 20.742,7.9981 L20.742,16.5601 L20.049,16.5601 L19.01,16.5601 L18.074,16.5601 L18.074,14.9591 L16.938,14.9591 L16.938,16.4121 C16.938,16.8621 16.64,17.2621 16.293,17.2621 L13.03,17.2621 L9.572,17.2621 L6.315,17.2621 L4.242,15.1621 L2.468,15.1621 C2.024,15.1621 1.629,14.6631 1.629,14.0101 L1.629,12.1071 L0.985,12.1071 L0.985,14.9101 L-5.32907052e-15,14.9101 L-5.32907052e-15,5.8551 L0.99,5.8551 L0.99,8.6581 L1.58,8.6581 L1.58,7.5061 C1.58,6.8531 1.975,6.3541 2.419,6.3541 L3.999,6.3541 L3.999,5.3571 C3.999,4.9071 4.297,4.5061 4.692,4.5061 L8.095,4.5061 L8.193,4.5061 L8.193,3.7551 L5.427,3.7551 L5.427,2.7571 L13.188,2.7571 C13.109,3.1081 13.067,3.4721 13.067,3.8471 Z M19.3015,3.2046 L20.1555,2.3756 C20.3885,2.8386 20.2915,3.4166 19.9035,3.8036 C19.5345,4.1696 19.0105,4.2666 18.5645,4.0926 L16.7975,5.8486 C16.7195,5.9256 16.6025,5.9256 16.5255,5.8486 L16.0785,5.4036 C15.9815,5.3266 15.9815,5.1916 16.0595,5.1346 L17.8265,3.3786 C17.6515,2.9346 17.7485,2.4146 18.1175,2.0476 C18.5055,1.6616 19.0885,1.5846 19.5545,1.7966 L18.7195,2.6256 L19.3015,3.2046 Z M18.1257,6.982 C19.8977,6.982 21.3397,5.55 21.3397,3.791 C21.3397,2.031 19.8977,0.599 18.1257,0.599 C16.3537,0.599 14.9117,2.031 14.9117,3.791 C14.9117,5.55 16.3537,6.982 18.1257,6.982 Z M18.1257,-3.55271368e-15 C20.2287,-3.55271368e-15 21.9397,1.7 21.9397,3.791 C21.9397,5.881 20.2287,7.582 18.1257,7.582 C16.0227,7.582 14.3127,5.881 14.3127,3.791 C14.3127,1.7 16.0227,-3.55271368e-15 18.1257,-3.55271368e-15 Z" id="path-1"></path>
    </defs>
    <g id="ZDS-icons" stroke="none" stroke-width="1" fill="none" fill-rule="evenodd">
        <g id="IconsSgePsService">
            <g id="ic_ps_service">
                <g id="Icon-24px">
                    <polygon id="Shape" points="0 0 24 0 24 24 0 24"></polygon>
                    <g id="grayscale-/-black" transform="translate(1.000000, 3.000000)">
                        <mask id="mask-2" fill="white">
                            <use xlink:href="#path-1"></use>
                        </mask>
                        <use id="Mask" fill="#131516" xlink:href="#path-1"></use>
                        <g mask="url(#mask-2)" fill="#000000" id="color-/-grayscale-/-black">
                            <g transform="translate(-1.000000, -3.000000)">
                                <rect x="0" y="0" width="24" height="24"></rect>
                            </g>
                        </g>
                    </g>
                </g>
            </g>
        </g>
    </g>
</svg>