<?xml version="1.0" encoding="UTF-8"?>
<svg width="24px" height="24px" viewBox="0 0 24 24" version="1.1" xmlns="http://www.w3.org/2000/svg" xmlns:xlink="http://www.w3.org/1999/xlink">
    <!-- Generator: Sketch 53.2 (72643) - https://sketchapp.com -->
    <title>IconsSgeRentalLogistics</title>
    <desc>Created with Sketch.</desc>
    <defs>
        <path d="M8.43681602,13.1194007 C8.54677778,13.0143165 8.69742539,12.8378649 8.59681038,12.7282851 C8.38953246,12.5018201 8.15201506,11.8415315 7.91229842,10.9575877 L7.62254919,9.77693551 C7.27012175,8.24562789 6.93968666,6.41873576 6.72086276,5.00656107 C6.69722098,4.85652102 6.40912117,4.7514368 6.26067279,4.77560055 C6.11277422,4.7997643 5.79003646,4.94193708 5.81367824,5.09310103 C5.92473962,5.81127025 6.92539163,12.1303727 7.83202634,13.1081618 C7.88315856,13.1643565 7.9546337,13.1963876 8.0294077,13.1958256 C8.09538475,13.1958256 8.38623361,13.1710999 8.43681602,13.1194007 Z M21.0543781,13.0581484 C21.4788305,13.0581484 21.8235607,13.4088038 21.8252101,13.8426275 L21.8252101,15.277842 C21.8241105,15.7116657 21.4793803,16.063445 21.0543781,16.0640069 L18.4218936,16.0640069 C18.0898091,16.9799817 17.2365058,17.5891331 16.2809381,17.5930667 L5.5426225,17.5930667 C4.58705481,17.5885712 3.73375155,16.9799817 3.40111723,16.0640069 L0.770831936,16.0640069 C0.345829734,16.062883 0.0016494264,15.7116657 4.08562073e-14,15.277842 L4.08562073e-14,13.8426275 C0.00274904399,13.4093658 0.346929352,13.0587104 0.770831936,13.0581484 L1.33163691,13.0581484 C1.43665039,9.3048994 3.13555958,6.02312455 5.66632948,4.09339598 C5.58550759,3.6533909 5.53492518,3.30835498 5.52722785,3.10661574 C5.52063015,2.91499155 9.05809996,1.90404756 9.96418486,1.85852979 C9.92349901,1.93832637 9.87621545,2.10859654 9.8289319,2.34686238 C10.5145435,2.25357905 11.208952,2.25189321 11.8956632,2.33618537 C11.6141611,3.03637227 11.4569157,3.80118315 11.4569157,4.60420649 C11.4569157,6.65419187 12.4685639,8.46310167 14.0102278,9.54428914 C13.9942834,9.61340871 13.9794385,9.68477608 13.9634941,9.75277175 L13.6720954,10.9323001 C13.4340282,11.8173678 13.1965108,12.4776564 12.9908823,12.7013116 C12.8864186,12.8125772 13.0403651,12.9890288 13.1492272,13.0957989 C13.2020089,13.1441264 13.4400761,13.1958256 13.5082524,13.1958256 C13.5830264,13.1958256 13.6545015,13.1643565 13.7056337,13.1081618 C14.0740056,12.7097408 14.458322,11.427938 14.7920559,10.0000288 C15.5579396,10.3765338 16.4134421,10.5945695 17.3206266,10.5973792 C18.2926885,10.5945695 19.2064708,10.3473125 20.0135901,9.91967024 C20.295642,10.911508 20.4649831,11.9634742 20.4957724,13.0581484 L21.0543781,13.0581484 Z M17.3169978,0.552394636 C15.1249102,0.552394636 13.3567251,2.35961859 13.3567251,4.60010427 C13.3567251,6.84058994 15.139755,8.66298649 17.3169978,8.6478139 C19.5090855,8.6478139 21.2915657,6.82541735 21.2772706,4.60010427 C21.2772706,2.35961859 19.4942407,0.537783995 17.3169978,0.552394636 Z M17.3169978,9.21538112 C14.8252644,9.20751385 12.8085657,7.14628951 12.8085657,4.60797154 C12.8085657,2.06852966 14.8252644,0.00730532073 17.3169978,-3.55271368e-15 C19.8015838,-3.55271368e-15 21.8182825,2.06122434 21.82543,4.60797154 C21.82543,7.14628951 19.8087313,9.20751385 17.3169978,9.21538112 Z M14.9188418,4.2028634 L14.9188418,3.64484929 L14.2315808,3.64484929 L15.2234359,2.27875431 L16.2147412,3.64484929 L15.5258307,3.64484929 L15.5258307,4.07473932 L16.7859925,5.36272356 L16.7859925,2.45183422 L16.0998311,2.45183422 L17.0916862,1.08573924 L18.0824417,2.45183422 L17.3929814,2.45183422 L17.3929814,5.99435282 L18.0533018,5.31889163 C18.1099321,5.26101101 18.1869053,5.2278561 18.2677272,5.2278561 L19.0737469,5.2278561 L19.0737469,4.44899652 L20.4097823,5.46275025 L19.0737469,6.47594204 L19.0737469,5.84880836 L18.3930836,5.84880836 L17.3929814,6.87099131 L17.3929814,7.80157678 C17.3929814,7.97297085 17.2566288,8.11177194 17.089487,8.11177194 C16.9217953,8.11177194 16.7859925,7.97297085 16.7859925,7.80157678 L16.7859925,6.23992399 L15.0084607,4.42258497 C14.9512806,4.36414241 14.9188418,4.28490777 14.9188418,4.2028634 Z" id="path-1"></path>
    </defs>
    <g id="ZDS-icons" stroke="none" stroke-width="1" fill="none" fill-rule="evenodd">
        <g id="IconsSgeRentalLogistics">
            <g id="ic_rental_logistics">
                <g id="Icon-24px">
                    <polygon id="Shape" points="0 0 24 0 24 24 0 24"></polygon>
                    <g id="grayscale-/-black" transform="translate(1.000000, 3.000000)">
                        <mask id="mask-2" fill="white">
                            <use xlink:href="#path-1"></use>
                        </mask>
                        <use id="Mask" fill="#131516" xlink:href="#path-1"></use>
                        <g mask="url(#mask-2)" fill="#000000" id="color-/-grayscale-/-black">
                            <g transform="translate(-1.000000, -3.000000)">
                                <rect x="0" y="0" width="24" height="24"></rect>
                            </g>
                        </g>
                    </g>
                </g>
            </g>
        </g>
    </g>
</svg>