<?xml version="1.0" encoding="UTF-8"?>
<svg width="24px" height="24px" viewBox="0 0 24 24" version="1.1" xmlns="http://www.w3.org/2000/svg" xmlns:xlink="http://www.w3.org/1999/xlink">
    <!-- Generator: Sketch 53.2 (72643) - https://sketchapp.com -->
    <title>IconsMiscActionSettings</title>
    <desc>Created with Sketch.</desc>
    <defs>
        <path d="M9.7293316,13.5 C7.79633498,13.5 6.2293316,11.9329966 6.2293316,10 C6.2293316,8.06700338 7.79633498,6.5 9.7293316,6.5 C11.6623282,6.5 13.2293316,8.06700338 13.2293316,10 C13.2293316,11.9329966 11.6623282,13.5 9.7293316,13.5 L9.7293316,13.5 Z M17.1593316,10.97 C17.1993316,10.65 17.2293316,10.33 17.2293316,10 C17.2293316,9.67 17.1993316,9.34 17.1593316,9 L19.2693316,7.37 C19.4593316,7.22 19.5093316,6.95 19.3893316,6.73 L17.3893316,3.27 C17.2693316,3.05 16.9993316,2.96 16.7793316,3.05 L14.2893316,4.05 C13.7693316,3.66 13.2293316,3.32 12.5993316,3.07 L12.2293316,0.42 C12.1893316,0.18 11.9793316,0 11.7293316,0 L7.7293316,0 C7.4793316,0 7.2693316,0.18 7.2293316,0.42 L6.8593316,3.07 C6.2293316,3.32 5.6893316,3.66 5.1693316,4.05 L2.6793316,3.05 C2.4593316,2.96 2.1893316,3.05 2.0693316,3.27 L0.0693316039,6.73 C-0.0606683961,6.95 -0.000668396068,7.22 0.189331604,7.37 L2.2993316,9 C2.2593316,9.34 2.2293316,9.67 2.2293316,10 C2.2293316,10.33 2.2593316,10.65 2.2993316,10.97 L0.189331604,12.63 C-0.000668396068,12.78 -0.0606683961,13.05 0.0693316039,13.27 L2.0693316,16.73 C2.1893316,16.95 2.4593316,17.03 2.6793316,16.95 L5.1693316,15.94 C5.6893316,16.34 6.2293316,16.68 6.8593316,16.93 L7.2293316,19.58 C7.2693316,19.82 7.4793316,20 7.7293316,20 L11.7293316,20 C11.9793316,20 12.1893316,19.82 12.2293316,19.58 L12.5993316,16.93 C13.2293316,16.67 13.7693316,16.34 14.2893316,15.94 L16.7793316,16.95 C16.9993316,17.03 17.2693316,16.95 17.3893316,16.73 L19.3893316,13.27 C19.5093316,13.05 19.4593316,12.78 19.2693316,12.63 L17.1593316,10.97 Z" id="path-1"></path>
    </defs>
    <g id="ZDS-icons" stroke="none" stroke-width="1" fill="none" fill-rule="evenodd">
        <g id="IconsMiscActionSettings">
            <g id="ic_settings">
                <g id="Icon-24px">
                    <polygon id="Shape" points="0 0 24 0 24 24 0 24"></polygon>
                    <g id="grayscale-/-black" transform="translate(2.000000, 2.000000)">
                        <mask id="mask-2" fill="white">
                            <use xlink:href="#path-1"></use>
                        </mask>
                        <use id="Mask" fill="#000000" fill-rule="nonzero" xlink:href="#path-1"></use>
                        <g mask="url(#mask-2)" fill="#000000" id="color-/-grayscale-/-black">
                            <g transform="translate(-2.000000, -2.000000)">
                                <rect x="0" y="0" width="24" height="24"></rect>
                            </g>
                        </g>
                    </g>
                </g>
            </g>
        </g>
    </g>
</svg>