<?xml version="1.0" encoding="UTF-8"?>
<svg width="24px" height="24px" viewBox="0 0 24 24" version="1.1" xmlns="http://www.w3.org/2000/svg" xmlns:xlink="http://www.w3.org/1999/xlink">
    <!-- Generator: Sketch 53.2 (72643) - https://sketchapp.com -->
    <title>IconsMiscActionPhone</title>
    <desc>Created with Sketch.</desc>
    <defs>
        <path d="M3.62,7.79 C5.06,10.62 7.38,12.94 10.21,14.38 L12.41,12.18 C12.69,11.9 13.08,11.82 13.43,11.93 C14.55,12.3 15.75,12.5 17,12.5 C17.5522847,12.5 18,12.9477153 18,13.5 L18,17 C18,17.5522847 17.5522847,18 17,18 C7.61115925,18 8.8817842e-16,10.3888407 0,1 C-8.8817842e-16,0.73478351 0.10535684,0.480429597 0.292893219,0.292893219 C0.480429597,0.10535684 0.73478351,4.4408921e-16 1,0 L4.5,0 C5.05228475,0 5.5,0.44771525 5.5,1 C5.5,2.25 5.7,3.45 6.07,4.57 C6.18,4.92 6.1,5.31 5.82,5.59 L3.62,7.79 Z" id="path-1"></path>
    </defs>
    <g id="ZDS-icons" stroke="none" stroke-width="1" fill="none" fill-rule="evenodd">
        <g id="IconsMiscActionPhone">
            <g id="ic_phone">
                <g id="Icon-24px">
                    <polygon id="Shape" points="0 0 24 0 24 24 0 24"></polygon>
                    <g id="grayscale-/-black" transform="translate(3.000000, 3.000000)">
                        <mask id="mask-2" fill="white">
                            <use xlink:href="#path-1"></use>
                        </mask>
                        <use id="Mask" fill="#000000" fill-rule="nonzero" xlink:href="#path-1"></use>
                        <g mask="url(#mask-2)" fill="#000000" id="color-/-grayscale-/-black">
                            <g transform="translate(-3.000000, -3.000000)">
                                <rect x="0" y="0" width="24" height="24"></rect>
                            </g>
                        </g>
                    </g>
                </g>
            </g>
        </g>
    </g>
</svg>