<?xml version="1.0" encoding="UTF-8"?>
<svg width="24px" height="24px" viewBox="0 0 24 24" version="1.1" xmlns="http://www.w3.org/2000/svg" xmlns:xlink="http://www.w3.org/1999/xlink">
    <!-- Generator: Sketch 53.2 (72643) - https://sketchapp.com -->
    <title>IconsSgeAbAb</title>
    <desc>Created with Sketch.</desc>
    <defs>
        <path d="M11.1976905,15.2461561 L14.3992302,15.2461561 L14.3992302,13.5511357 L11.1976905,13.5511357 L11.1976905,15.2461561 Z M11.1976905,11.8603635 L14.3992302,11.8603635 L14.3992302,10.1653431 L11.1976905,10.1653431 L11.1976905,11.8603635 Z M6.39948677,11.8603635 L9.60102646,11.8603635 L9.60102646,10.1653431 L6.39948677,10.1653431 L6.39948677,11.8603635 Z M6.39948677,15.2461561 L9.60102646,15.2461561 L9.60102646,13.5511357 L6.39948677,13.5511357 L6.39948677,15.2461561 Z M1.60076985,11.8603635 L4.80230954,11.8603635 L4.80230954,10.1653431 L1.60076985,10.1653431 L1.60076985,11.8603635 Z M1.60076985,15.2461561 L4.80230954,15.2461561 L4.80230954,13.5511357 L1.60076985,13.5511357 L1.60076985,15.2461561 Z M14.655846,6.21932291 L11.9998717,8.47085375 L11.9998717,6.90487157 C11.9998717,6.17153098 11.1976905,5.76211347 10.6557177,6.21932291 L7.99974338,8.47085375 L7.99974338,6.90487157 C7.99974338,6.17153098 7.19756215,5.76211347 6.65558941,6.21932291 L3.99961508,8.47085375 L3.26261427,0.677583336 C3.22617482,0.293654847 2.92028869,4.54747351e-13 2.55794707,4.54747351e-13 L1.44218123,4.54747351e-13 C1.07932638,4.54747351e-13 0.773953488,0.293654847 0.737514034,0.677583336 L0,8.47085375 L0,16.9411765 L16,16.9411765 L16,12.046221 L16,8.47085375 L16,6.90487157 C16,6.17153098 15.1978188,5.76211347 14.655846,6.21932291 L14.655846,6.21932291 Z" id="path-1"></path>
    </defs>
    <g id="ZDS-icons" stroke="none" stroke-width="1" fill="none" fill-rule="evenodd">
        <g id="IconsSgeAbAb">
            <g id="ic_ab_ab">
                <g id="Icon-24px">
                    <polygon id="Shape" points="0 0 24 0 24 24 0 24"></polygon>
                    <g id="grayscale-/-black" transform="translate(4.000000, 4.000000)">
                        <mask id="mask-2" fill="white">
                            <use xlink:href="#path-1"></use>
                        </mask>
                        <use id="Mask" fill="#231F20" xlink:href="#path-1"></use>
                        <g mask="url(#mask-2)" fill="#000000" id="color-/-grayscale-/-black">
                            <g transform="translate(-4.000000, -4.000000)">
                                <rect x="0" y="0" width="24" height="24"></rect>
                            </g>
                        </g>
                    </g>
                </g>
            </g>
        </g>
    </g>
</svg>