<svg xmlns="http://www.w3.org/2000/svg" width="24" height="24" viewBox="0 0 24 24">
  <path d="M11,17 C11,17.5522847 11.4477153,18 12,18 C12.5522847,18 13,17.5522847 13,17 C13,16.4477153 12.5522847,16 12,16 C11.4477153,16 11,16.4477153 11,17 L11,17 Z M11,3 L11,7 L13,7 L13,5.08 C16.39,5.57 19,8.47 19,12 C19,15.8659932 15.8659932,19 12,19 C8.13400675,19 5,15.8659932 5,12 C5,10.32 5.59,8.78 6.58,7.58 L12,13 L13.41,11.59 L6.61,4.79 L6.61,4.81 C4.42,6.45 3,9.05 3,12 C3,16.9705627 7.02943725,21 12,21 C16.9705627,21 21,16.9705627 21,12 C21,7.02943725 16.9705627,3 12,3 L11,3 Z M18,12 C18,11.4477153 17.5522847,11 17,11 C16.4477153,11 16,11.4477153 16,12 C16,12.5522847 16.4477153,13 17,13 C17.5522847,13 18,12.5522847 18,12 L18,12 Z M6,12 C6,12.5522847 6.44771525,13 7,13 C7.55228475,13 8,12.5522847 8,12 C8,11.4477153 7.55228475,11 7,11 C6.44771525,11 6,11.4477153 6,12 Z"/>
</svg>
