<?xml version="1.0" encoding="UTF-8"?>
<svg width="24px" height="24px" viewBox="0 0 24 24" version="1.1" xmlns="http://www.w3.org/2000/svg" xmlns:xlink="http://www.w3.org/1999/xlink">
    <!-- Generator: Sketch 53.2 (72643) - https://sketchapp.com -->
    <title>IconsSgeZbmService</title>
    <desc>Created with Sketch.</desc>
    <defs>
        <path d="M3.71320841,5.11881735 L1.94809898,4.3539366 L0.00647860536,1.41208755 L1.35972917,3.55271368e-15 L4.30157822,1.94162037 L5.06645898,3.70672981 L9.06737369,7.70764452 C8.89086274,7.94299244 8.7143518,8.17834037 8.59667784,8.35485131 L7.71412312,9.06089508 L3.71320841,5.11881735 Z M3.18373442,18.0629532 C3.65443027,17.5922573 3.65443027,16.8273766 3.18373442,16.2978438 C2.71303857,15.8271479 1.88932084,15.8271479 1.41862499,16.2978438 C0.947929139,16.8273766 0.947929139,17.5922573 1.41862499,18.0629532 C1.88932084,18.533649 2.71303857,18.533649 3.18373442,18.0629532 Z M17.9518167,9.29624301 C17.9518167,9.29624301 12.4799774,9.9434498 11.2444008,11.1790264 L3.83094121,18.8278339 C3.83094121,18.8278339 2.12466876,20.2987585 0.653744234,18.8278339 C-0.817180292,17.3569094 0.653744234,15.7094739 0.653744234,15.7094739 L9.24394347,8.88438414 C11.2444008,6.94276376 11.8327706,3.11836 12.2446295,1.88278339 C12.6564884,0.647206792 13.0683472,0.588369811 14.9511306,0.176510943 C16.833914,-0.235347924 18.6578604,0.882554716 18.6578604,0.882554716 L15.4218265,2.29464226 L15.3629895,3.17719698 L16.1278703,4.94230641 L20.011111,3.29487094 C20.011111,3.29487094 19.1873933,6.11904603 17.0692619,7.11927471 L17.9518167,9.29624301 Z M18.304662,17.1217968 L18.6582723,16.7681866 L14.2454987,12.4736753 L13.8918885,12.8261088 L18.304662,17.1217968 Z M17.3050217,18.1214371 L17.6574552,17.7690036 L12.5386379,12.8261088 L12.1862044,13.1797191 L17.3050217,18.1214371 Z M13.8918885,10.9439138 L19.7755866,16.592264 C19.7755866,16.592264 20.5410557,17.3565564 19.1872168,18.709807 C17.7757176,20.0636459 17.0108368,19.2981768 17.0108368,19.2981768 L10.4793436,13.0620451 L11.7737571,11.7670432 C12.067942,11.4728583 12.8922482,11.1786734 13.8918885,10.9439138 Z" id="path-1"></path>
    </defs>
    <g id="ZDS-icons" stroke="none" stroke-width="1" fill="none" fill-rule="evenodd">
        <g id="IconsSgeZbmService">
            <g id="ic_zbm_service">
                <g id="Icon-24px">
                    <polygon id="Shape" points="0 0 24 0 24 24 0 24"></polygon>
                    <g id="grayscale-/-black" transform="translate(2.000000, 2.000000)">
                        <mask id="mask-2" fill="white">
                            <use xlink:href="#path-1"></use>
                        </mask>
                        <use id="Mask" fill="#000000" xlink:href="#path-1"></use>
                        <g mask="url(#mask-2)" fill="#000000" id="color-/-grayscale-/-black">
                            <g transform="translate(-2.000000, -2.000000)">
                                <rect x="0" y="0" width="24" height="24"></rect>
                            </g>
                        </g>
                    </g>
                </g>
            </g>
        </g>
    </g>
</svg>