<svg xmlns="http://www.w3.org/2000/svg" width="24" height="24" viewBox="0 0 24 24">
  <path fill-rule="evenodd" d="M5.71320841,7.11881735 L3.94809898,6.3539366 L2.00647861,3.41208755 L3.35972917,2 L6.30157822,3.94162037 L7.06645898,5.70672981 L11.0673737,9.70764452 C10.8908627,9.94299244 10.7143518,10.1783404 10.5966778,10.3548513 L9.71412312,11.0608951 L5.71320841,7.11881735 Z M5.18373442,20.0629532 C5.65443027,19.5922573 5.65443027,18.8273766 5.18373442,18.2978438 C4.71303857,17.8271479 3.88932084,17.8271479 3.41862499,18.2978438 C2.94792914,18.8273766 2.94792914,19.5922573 3.41862499,20.0629532 C3.88932084,20.533649 4.71303857,20.533649 5.18373442,20.0629532 Z M19.9518167,11.296243 C19.9518167,11.296243 14.4799774,11.9434498 13.2444008,13.1790264 L5.83094121,20.8278339 C5.83094121,20.8278339 4.12466876,22.2987585 2.65374423,20.8278339 C1.18281971,19.3569094 2.65374423,17.7094739 2.65374423,17.7094739 L11.2439435,10.8843841 C13.2444008,8.94276376 13.8327706,5.11836 14.2446295,3.88278339 C14.6564884,2.64720679 15.0683472,2.58836981 16.9511306,2.17651094 C18.833914,1.76465208 20.6578604,2.88255472 20.6578604,2.88255472 L17.4218265,4.29464226 L17.3629895,5.17719698 L18.1278703,6.94230641 L22.011111,5.29487094 C22.011111,5.29487094 21.1873933,8.11904603 19.0692619,9.11927471 L19.9518167,11.296243 Z M20.304662,19.1217968 L20.6582723,18.7681866 L16.2454987,14.4736753 L15.8918885,14.8261088 L20.304662,19.1217968 Z M19.3050217,20.1214371 L19.6574552,19.7690036 L14.5386379,14.8261088 L14.1862044,15.1797191 L19.3050217,20.1214371 Z M15.8918885,12.9439138 L21.7755866,18.592264 C21.7755866,18.592264 22.5410557,19.3565564 21.1872168,20.709807 C19.7757176,22.0636459 19.0108368,21.2981768 19.0108368,21.2981768 L12.4793436,15.0620451 L13.7737571,13.7670432 C14.067942,13.4728583 14.8922482,13.1786734 15.8918885,12.9439138 Z"/>
</svg>
