<?xml version="1.0" encoding="UTF-8"?>
<svg width="24px" height="24px" viewBox="0 0 24 24" version="1.1" xmlns="http://www.w3.org/2000/svg" xmlns:xlink="http://www.w3.org/1999/xlink">
    <!-- Generator: Sketch 53.2 (72643) - https://sketchapp.com -->
    <title>IconsSocialXing</title>
    <desc>Created with Sketch.</desc>
    <defs>
        <path d="M13.655,0 C13.225,0 13.035,0.27 12.885,0.55 C12.885,0.55 6.665,11.57 6.485,11.93 L10.565,19.45 C10.705,19.71 10.925,20 11.365,20 L14.245,20 C14.425,20 14.555,19.93 14.625,19.82 C14.705,19.69 14.705,19.53 14.625,19.37 L10.555,11.92 L16.945,0.63 C17.025,0.47 17.025,0.31 16.955,0.18 C16.875,0.07 16.745,0 16.565,0 M1.535,3.95 C1.365,3.95 1.215,4 1.145,4.13 C1.065,4.26 1.075,4.41 1.165,4.57 L3.105,7.97 L0.045,13.37 C-0.015,13.53 -0.015,13.69 0.045,13.82 C0.115,13.94 0.245,14 0.415,14 L3.305,14 C3.735,14 3.945,13.72 4.095,13.45 C4.095,13.45 7.085,8.16 7.205,7.95 L5.225,4.5 C5.085,4.24 4.865,3.95 4.415,3.95" id="path-1"></path>
    </defs>
    <g id="ZDS-icons" stroke="none" stroke-width="1" fill="none" fill-rule="evenodd">
        <g id="IconsSocialXing">
            <g id="ic_xing">
                <g id="Icon-24px">
                    <polygon id="Shape" points="0 0 24 0 24 24 0 24"></polygon>
                    <g id="grayscale-/-black" transform="translate(3.000000, 2.000000)">
                        <mask id="mask-2" fill="white">
                            <use xlink:href="#path-1"></use>
                        </mask>
                        <use id="Mask" fill="#000000" fill-rule="nonzero" xlink:href="#path-1"></use>
                        <g mask="url(#mask-2)" fill="#000000" id="color-/-grayscale-/-black">
                            <g transform="translate(-3.000000, -2.000000)">
                                <rect x="0" y="0" width="24" height="24"></rect>
                            </g>
                        </g>
                    </g>
                </g>
            </g>
        </g>
    </g>
</svg>