<?xml version="1.0" encoding="UTF-8"?>
<svg width="24px" height="24px" viewBox="0 0 24 24" version="1.1" xmlns="http://www.w3.org/2000/svg" xmlns:xlink="http://www.w3.org/1999/xlink">
    <!-- Generator: Sketch 53.2 (72643) - https://sketchapp.com -->
    <title>IconsMiscActionHide</title>
    <desc>Created with Sketch.</desc>
    <defs>
        <path d="M10.83,6 L14,9.16 C14,9.11 14,9.05 14,9 C14,7.34314575 12.6568542,6 11,6 C10.94,6 10.89,6 10.83,6 L10.83,6 Z M6.53,6.8 L8.08,8.35 C8.03,8.56 8,8.77 8,9 C8,10.6568542 9.34314575,12 11,12 C11.22,12 11.44,11.97 11.65,11.92 L13.2,13.47 C12.53,13.8 11.79,14 11,14 C8.23857625,14 6,11.7614237 6,9 C6,8.21 6.2,7.47 6.53,6.8 L6.53,6.8 Z M1,1.27 L3.28,3.55 L3.73,4 C2.08,5.3 0.78,7 0,9 C1.73,13.39 6,16.5 11,16.5 C12.55,16.5 14.03,16.2 15.38,15.66 L15.81,16.08 L18.73,19 L20,17.73 L2.27,0 L1,1.27 Z M11,4 C13.7614237,4 16,6.23857625 16,9 C16,9.64 15.87,10.26 15.64,10.82 L18.57,13.75 C20.07,12.5 21.27,10.86 22,9 C20.27,4.61 16,1.5 11,1.5 C9.6,1.5 8.26,1.75 7,2.2 L9.17,4.35 C9.74,4.13 10.35,4 11,4 Z" id="path-1"></path>
    </defs>
    <g id="ZDS-icons" stroke="none" stroke-width="1" fill="none" fill-rule="evenodd">
        <g id="IconsMiscActionHide">
            <g id="ic_hide">
                <g id="Icon-24px">
                    <polygon id="Shape" points="0 0 24 0 24 24 0 24"></polygon>
                    <g id="grayscale-/-black" transform="translate(1.000000, 3.000000)">
                        <mask id="mask-2" fill="white">
                            <use xlink:href="#path-1"></use>
                        </mask>
                        <use id="Mask" fill="#000000" fill-rule="nonzero" xlink:href="#path-1"></use>
                        <g mask="url(#mask-2)" fill="#000000" id="color-/-grayscale-/-black">
                            <g transform="translate(-1.000000, -3.000000)">
                                <rect x="0" y="0" width="24" height="24"></rect>
                            </g>
                        </g>
                    </g>
                </g>
            </g>
        </g>
    </g>
</svg>