<?xml version="1.0" encoding="UTF-8"?>
<svg width="24px" height="24px" viewBox="0 0 24 24" version="1.1" xmlns="http://www.w3.org/2000/svg" xmlns:xlink="http://www.w3.org/1999/xlink">
    <!-- Generator: Sketch 53.2 (72643) - https://sketchapp.com -->
    <title>IconsMiscActionDirection</title>
    <desc>Created with Sketch.</desc>
    <defs>
        <path d="M12.0025,12.5025 L12.0025,10.0025 L8.0025,10.0025 L8.0025,13.0025 L6.0025,13.0025 L6.0025,9.0025 C6.0025,8.45021525 6.45021525,8.0025 7.0025,8.0025 L12.0025,8.0025 L12.0025,5.5025 L15.5025,9.0025 L12.0025,12.5025 Z M19.7125,9.2925 L10.7125,0.2925 L10.7025,0.2925 C10.3125,-0.0975 9.6825,-0.0975 9.2925,0.2925 L0.2925,9.2925 C-0.0975,9.6825 -0.0975,10.3225 0.2925,10.7125 L9.2925,19.7125 C9.6825,20.0925 10.3125,20.1025 10.7125,19.7125 L19.7125,10.7125 C20.1025,10.3225 20.1025,9.6825 19.7125,9.2925 Z" id="path-1"></path>
    </defs>
    <g id="ZDS-icons" stroke="none" stroke-width="1" fill="none" fill-rule="evenodd">
        <g id="IconsMiscActionDirection">
            <g id="ic_direction">
                <g id="Icon-24px">
                    <polygon id="Shape" points="0 0 24 0 24 24 0 24"></polygon>
                    <g id="grayscale-/-black" transform="translate(2.000000, 2.000000)">
                        <mask id="mask-2" fill="white">
                            <use xlink:href="#path-1"></use>
                        </mask>
                        <use id="Mask" fill="#000000" fill-rule="nonzero" xlink:href="#path-1"></use>
                        <g mask="url(#mask-2)" fill="#000000" id="color-/-grayscale-/-black">
                            <g transform="translate(-2.000000, -2.000000)">
                                <rect x="0" y="0" width="24" height="24"></rect>
                            </g>
                        </g>
                    </g>
                </g>
            </g>
        </g>
    </g>
</svg>