<svg xmlns="http://www.w3.org/2000/svg" width="24" height="24" viewBox="0 0 24 24">
  <path fill="#131516" fill-rule="evenodd" d="M10.426,18.7661 L14.334,13.0621 L10.827,13.0621 L12.553,9.7611 L10.627,9.7611 L7.959,14.7621 L11.909,14.7621 L10.426,18.7661 Z M14.067,6.8471 C14.067,9.6071 16.273,11.8421 18.995,11.8421 C20.01,11.8421 20.952,11.5291 21.742,10.9981 L21.742,19.5601 L21.049,19.5601 L20.01,19.5601 L19.074,19.5601 L19.074,17.9591 L17.938,17.9591 L17.938,19.4121 C17.938,19.8621 17.64,20.2621 17.293,20.2621 L14.03,20.2621 L10.572,20.2621 L7.315,20.2621 L5.242,18.1621 L3.468,18.1621 C3.024,18.1621 2.629,17.6631 2.629,17.0101 L2.629,15.1071 L1.985,15.1071 L1.985,17.9101 L1,17.9101 L1,8.8551 L1.99,8.8551 L1.99,11.6581 L2.58,11.6581 L2.58,10.5061 C2.58,9.8531 2.975,9.3541 3.419,9.3541 L4.999,9.3541 L4.999,8.3571 C4.999,7.9071 5.297,7.5061 5.692,7.5061 L9.095,7.5061 L9.193,7.5061 L9.193,6.7551 L6.427,6.7551 L6.427,5.7571 L14.188,5.7571 C14.109,6.1081 14.067,6.4721 14.067,6.8471 Z M20.3015,6.2046 L21.1555,5.3756 C21.3885,5.8386 21.2915,6.4166 20.9035,6.8036 C20.5345,7.1696 20.0105,7.2666 19.5645,7.0926 L17.7975,8.8486 C17.7195,8.9256 17.6025,8.9256 17.5255,8.8486 L17.0785,8.4036 C16.9815,8.3266 16.9815,8.1916 17.0595,8.1346 L18.8265,6.3786 C18.6515,5.9346 18.7485,5.4146 19.1175,5.0476 C19.5055,4.6616 20.0885,4.5846 20.5545,4.7966 L19.7195,5.6256 L20.3015,6.2046 Z M19.1257,9.982 C20.8977,9.982 22.3397,8.55 22.3397,6.791 C22.3397,5.031 20.8977,3.599 19.1257,3.599 C17.3537,3.599 15.9117,5.031 15.9117,6.791 C15.9117,8.55 17.3537,9.982 19.1257,9.982 Z M19.1257,3 C21.2287,3 22.9397,4.7 22.9397,6.791 C22.9397,8.881 21.2287,10.582 19.1257,10.582 C17.0227,10.582 15.3127,8.881 15.3127,6.791 C15.3127,4.7 17.0227,3 19.1257,3 Z"/>
</svg>
