<?xml version="1.0" encoding="UTF-8"?>
<svg width="24px" height="24px" viewBox="0 0 24 24" version="1.1" xmlns="http://www.w3.org/2000/svg" xmlns:xlink="http://www.w3.org/1999/xlink">
    <!-- Generator: Sketch 53.2 (72643) - https://sketchapp.com -->
    <title>IconsMiscActionContacts</title>
    <desc>Created with Sketch.</desc>
    <defs>
        <path d="M18,0 L2,0 L2,2 L18,2 L18,0 L18,0 Z M2,24 L18,24 L18,22 L2,22 L2,24 L2,24 Z M18,4 L2,4 C0.8954305,4 0,4.8954305 0,6 L0,18 C0,19.1045695 0.8954305,20 2,20 L18,20 C19.1045695,20 20,19.1045695 20,18 L20,6 C20,4.8954305 19.1045695,4 18,4 L18,4 Z M10,6.75 C11.2426407,6.75 12.25,7.75735931 12.25,9 C12.25,10.2426407 11.2426407,11.25 10,11.25 C8.75735931,11.25 7.75,10.2426407 7.75,9 C7.75,7.75735931 8.75735931,6.75 10,6.75 L10,6.75 Z M15,17 L5,17 L5,15.5 C5,13.83 8.33,13 10,13 C11.67,13 15,13.83 15,15.5 L15,17 Z" id="path-1"></path>
    </defs>
    <g id="ZDS-icons" stroke="none" stroke-width="1" fill="none" fill-rule="evenodd">
        <g id="IconsMiscActionContacts">
            <g id="ic_contacts">
                <g id="Icon-24px">
                    <polygon id="Shape" points="0 0 24 0 24 24 0 24"></polygon>
                    <g id="grayscale-/-black" transform="translate(2.000000, 0.000000)">
                        <mask id="mask-2" fill="white">
                            <use xlink:href="#path-1"></use>
                        </mask>
                        <use id="Mask" fill="#000000" fill-rule="nonzero" xlink:href="#path-1"></use>
                        <g mask="url(#mask-2)" fill="#000000" id="color-/-grayscale-/-black">
                            <g transform="translate(-2.000000, 0.000000)">
                                <rect x="0" y="0" width="24" height="24"></rect>
                            </g>
                        </g>
                    </g>
                </g>
            </g>
        </g>
    </g>
</svg>