<svg xmlns="http://www.w3.org/2000/svg" width="24" height="24" viewBox="0 0 24 24">
  <path d="M13.864509,10.0545387 C12.0848326,11.8475906 12.0848326,14.7642884 13.864509,16.5573403 C14.3746829,17.0593948 14.9796542,17.4299589 15.5967273,17.6331714 L15.8340175,18.6731416 L14.517057,20 L10.8983818,13.0310049 L7.27970647,16.6768771 L7.61191276,18.9958909 L6.62715853,19.9880463 L4.97799175,16.9996264 L2.01186451,15.338065 L2.99650011,14.3459096 L5.29833349,14.6806126 L8.91700876,11.0347404 L2,7.38886815 L3.31696049,6.06200972 L11.883136,8.05827419 L15.5018112,4.41240194 C16.04746,3.86253269 16.9372982,3.86253269 17.4831842,4.41240194 C18.0289516,4.9622712 18.0289516,5.85879715 17.4831842,6.40866643 L13.864509,10.0545387 Z M17.5543238,8.45273363 C18.6339941,8.5603168 19.6899354,9.02651028 20.5204511,9.85131413 C22.406908,11.7519492 22.406908,14.8479522 20.5204511,16.7485872 C19.6187484,17.6570668 18.444162,18.135214 17.2458466,18.1710751 L17.1746595,17.8722331 C18.3255169,17.8602794 19.4526452,17.4179933 20.3187544,16.533421 C22.0984308,14.7403691 22.0984308,11.8356249 20.3187544,10.0545267 C19.4763743,9.20581547 18.3967039,8.7635293 17.2933046,8.71571461 L17.5543238,8.45273363 Z M18.8515655,14.95948 C18.374019,14.95948 17.9834394,14.5659649 17.9834394,14.0849488 L16.2471871,14.0849488 C16.2471871,14.5659649 15.8567261,14.95948 15.379061,14.95948 C14.9017518,14.95948 14.5110535,14.5659649 14.5110535,14.0849488 L13.9323028,14.0849488 L13.9323028,13.2102981 L15.379061,11.4609966 L18.2728148,11.4609966 L19.1408222,12.6271976 L19.719573,12.6271976 C20.0380164,12.6271976 20.2983237,12.8895809 20.2983237,13.2102981 L20.2983237,14.0849488 L19.719573,14.0849488 C19.719573,14.5659649 19.3288747,14.95948 18.8515655,14.95948 Z M17.1153132,11.8983817 L17.1153132,12.6271976 L18.6923438,12.6271976 L18.1280678,11.8983817 L17.1153132,11.8983817 Z M16.6813095,12.6271976 L16.6813095,11.8983817 L15.523808,11.8983817 L14.9450573,12.6271976 L16.6813095,12.6271976 Z M15.379061,14.5222144 C15.6251309,14.5222144 15.8130648,14.3327486 15.8130648,14.0849488 C15.8130648,13.837149 15.6251309,13.6475637 15.379061,13.6475637 C15.1332284,13.6475637 14.9450573,13.837149 14.9450573,14.0849488 C14.9450573,14.3327486 15.1332284,14.5222144 15.379061,14.5222144 Z M19.2855692,14.0849488 C19.2855692,13.837149 19.0973981,13.6475637 18.8515655,13.6475637 C18.6056142,13.6475637 18.4175618,13.837149 18.4175618,14.0849488 C18.4175618,14.3327486 18.6056142,14.5222144 18.8515655,14.5222144 C19.0973981,14.5222144 19.2855692,14.3327486 19.2855692,14.0849488 Z"/>
</svg>
