<svg xmlns="http://www.w3.org/2000/svg" width="24" height="24" viewBox="0 0 24 24">
  <path d="M15.2941176,6 L15.2941176,11.5384615 L20,11.5384615 L20,6 L15.2941176,6 Z M9.64705882,11.5384615 L14.3529412,11.5384615 L14.3529412,6 L9.64705882,6 L9.64705882,11.5384615 Z M15.2941176,18 L20,18 L20,12.4615385 L15.2941176,12.4615385 L15.2941176,18 Z M9.64705882,18 L14.3529412,18 L14.3529412,12.4615385 L9.64705882,12.4615385 L9.64705882,18 Z M4,18 L8.70588235,18 L8.70588235,12.4615385 L4,12.4615385 L4,18 Z M4,11.5384615 L8.70588235,11.5384615 L8.70588235,6 L4,6 L4,11.5384615 Z"/>
</svg>
