<svg xmlns="http://www.w3.org/2000/svg" width="24" height="24" viewBox="0 0 24 24">
  <path fill-rule="evenodd" d="M21,18 C19.9,17.65 18.7,17.5 17.5,17.5 C16.161,17.5 14.365,17.906 13,18.492 L13,6.992 C14.365,6.406 16.161,6 17.5,6 C18.7,6 19.9,6.15 21,6.5 L21,18 Z M3,18 L3,6.5 C4.1,6.15 5.3,6 6.5,6 C7.838,6 9.635,6.406 11,6.992 L11,18.492 C9.635,17.906 7.838,17.5 6.5,17.5 C5.3,17.5 4.1,17.65 3,18 L3,18 Z M21,4.5 C19.89,4.15 18.67,4 17.5,4 C15.55,4 13.45,4.4 12,5.5 C10.55,4.4 8.45,4 6.5,4 C4.55,4 2.45,4.4 1,5.5 L1,20.15 C1,20.4 1.25,20.65 1.5,20.65 C1.6,20.65 1.65,20.6 1.75,20.6 C3.1,19.95 5.05,19.5 6.5,19.5 C8.45,19.5 10.55,19.9 12,21 C13.35,20.15 15.8,19.5 17.5,19.5 C19.15,19.5 20.85,19.8 22.25,20.55 C22.35,20.6 22.4,20.6 22.5,20.6 C22.75,20.6 23,20.35 23,20.1 L23,5.5 C22.4,5.05 21.75,4.75 21,4.5 L21,4.5 Z"/>
</svg>
