<svg xmlns="http://www.w3.org/2000/svg" width="24" height="24" viewBox="0 0 24 24">
  <path d="M14.0025,14.5025 L14.0025,12.0025 L10.0025,12.0025 L10.0025,15.0025 L8.0025,15.0025 L8.0025,11.0025 C8.0025,10.4502153 8.45021525,10.0025 9.0025,10.0025 L14.0025,10.0025 L14.0025,7.5025 L17.5025,11.0025 L14.0025,14.5025 Z M21.7125,11.2925 L12.7125,2.2925 L12.7025,2.2925 C12.3125,1.9025 11.6825,1.9025 11.2925,2.2925 L2.2925,11.2925 C1.9025,11.6825 1.9025,12.3225 2.2925,12.7125 L11.2925,21.7125 C11.6825,22.0925 12.3125,22.1025 12.7125,21.7125 L21.7125,12.7125 C22.1025,12.3225 22.1025,11.6825 21.7125,11.2925 Z"/>
</svg>
