<?xml version="1.0" encoding="UTF-8"?>
<svg width="24px" height="24px" viewBox="0 0 24 24" version="1.1" xmlns="http://www.w3.org/2000/svg" xmlns:xlink="http://www.w3.org/1999/xlink">
    <!-- Generator: Sketch 53.2 (72643) - https://sketchapp.com -->
    <title>IconsMiscActionTimer</title>
    <desc>Created with Sketch.</desc>
    <defs>
        <path d="M8,14 C8,14.5522847 8.44771525,15 9,15 C9.55228475,15 10,14.5522847 10,14 C10,13.4477153 9.55228475,13 9,13 C8.44771525,13 8,13.4477153 8,14 L8,14 Z M8,8.8817842e-16 L8,4 L10,4 L10,2.08 C13.39,2.57 16,5.47 16,9 C16,12.8659932 12.8659932,16 9,16 C5.13400675,16 2,12.8659932 2,9 C2,7.32 2.59,5.78 3.58,4.58 L9,10 L10.41,8.59 L3.61,1.79 L3.61,1.81 C1.42,3.45 0,6.05 0,9 C0,13.9705627 4.02943725,18 9,18 C13.9705627,18 18,13.9705627 18,9 C18,4.02943725 13.9705627,3.55271368e-15 9,0 L8,8.8817842e-16 Z M15,9 C15,8.44771525 14.5522847,8 14,8 C13.4477153,8 13,8.44771525 13,9 C13,9.55228475 13.4477153,10 14,10 C14.5522847,10 15,9.55228475 15,9 L15,9 Z M3,9 C3,9.55228475 3.44771525,10 4,10 C4.55228475,10 5,9.55228475 5,9 C5,8.44771525 4.55228475,8 4,8 C3.44771525,8 3,8.44771525 3,9 Z" id="path-1"></path>
    </defs>
    <g id="ZDS-icons" stroke="none" stroke-width="1" fill="none" fill-rule="evenodd">
        <g id="IconsMiscActionTimer">
            <g id="ic_timer">
                <g id="Icon-24px">
                    <polygon id="Shape" points="0 0 24 0 24 24 0 24"></polygon>
                    <g id="grayscale-/-black" transform="translate(3.000000, 3.000000)">
                        <mask id="mask-2" fill="white">
                            <use xlink:href="#path-1"></use>
                        </mask>
                        <use id="Mask" fill="#000000" fill-rule="nonzero" xlink:href="#path-1"></use>
                        <g mask="url(#mask-2)" fill="#000000" id="color-/-grayscale-/-black">
                            <g transform="translate(-3.000000, -3.000000)">
                                <rect x="0" y="0" width="24" height="24"></rect>
                            </g>
                        </g>
                    </g>
                </g>
            </g>
        </g>
    </g>
</svg>