<svg xmlns="http://www.w3.org/2000/svg" width="24" height="24" viewBox="0 0 24 24">
  <path fill="#131516" fill-rule="evenodd" d="M14.0737651,18.4909091 L14.0737651,20.2315152 C14.079919,20.4375758 14.247919,20.6024242 14.4565343,20.6084848 C14.6749959,20.6151515 14.855919,20.4466667 14.8626882,20.2315152 L14.8626882,18.4909091 C14.8565343,18.2848485 14.6885343,18.1193939 14.479919,18.1133333 C14.2620728,18.1072727 14.0805343,18.2763636 14.0737651,18.4909091 Z M14.0737651,14.590303 L14.0737651,16.3315152 L14.0737651,16.3545455 C14.0805343,16.5690909 14.2620728,16.7375758 14.479919,16.7315152 C14.6977651,16.7254545 14.8694574,16.5460606 14.8626882,16.3315152 L14.8626882,14.590303 C14.8565343,14.3848485 14.6885343,14.2193939 14.479919,14.2133333 C14.2620728,14.2072727 14.0805343,14.3757576 14.0737651,14.590303 Z M14.0737651,11.0642424 L14.0737651,12.8054545 C14.079919,13.0115152 14.247919,13.1763636 14.4565343,13.1824242 C14.6749959,13.1890909 14.855919,13.02 14.8626882,12.8054545 L14.8626882,11.0642424 L14.8626882,11.0418182 C14.855919,10.8266667 14.6749959,10.6581818 14.4565343,10.6642424 C14.2393036,10.6709091 14.0669959,10.850303 14.0737651,11.0642424 Z M9.22576511,21.7351515 L12.468842,11.6127273 L10.4854574,11.6127273 C10.4417651,11.6127273 10.399919,11.5957576 10.3691497,11.5654545 C10.3057651,11.5024242 10.3063805,11.4006061 10.3703805,11.3375758 L14.3531497,7.44363636 C14.4171497,7.38181818 14.519919,7.38181818 14.5833036,7.44363636 L18.5666882,11.3375758 C18.5980728,11.3678788 18.6153036,11.4090909 18.6153036,11.4521212 C18.6153036,11.5406061 18.5420728,11.6127273 18.4516113,11.6127273 L16.468842,11.6127273 L19.7113036,21.7351515 C19.7162267,21.7509091 19.7193036,21.7666667 19.7193036,21.7836364 C19.7193036,21.8727273 19.6454574,21.9454545 19.5543805,21.9454545 L9.38268819,21.9454545 C9.36607281,21.9454545 9.34884204,21.9430303 9.33345742,21.9381818 C9.24607281,21.9115152 9.19807281,21.82 9.22576511,21.7351515 Z M7.81050358,7.0769697 L7.80988819,7.0769697 L7.81050358,7.0769697 C8.57234973,7.0769697 9.1895805,6.46848485 9.1895805,5.71878788 C9.1895805,4.96848485 8.57234973,4.36 7.81050358,4.36 C7.04865742,4.36 6.43081127,4.96848485 6.43081127,5.71878788 C6.43081127,6.46848485 7.04865742,7.0769697 7.81050358,7.0769697 Z M7.81050358,11.1533333 L7.80988819,11.1533333 L7.81050358,11.1533333 C8.57234973,11.1533333 9.1895805,10.5448485 9.1895805,9.79393939 C9.1895805,9.04424242 8.57234973,8.43575758 7.81050358,8.43575758 C7.04865742,8.43575758 6.43081127,9.04363636 6.43081127,9.79393939 C6.43081127,10.5448485 7.04865742,11.1533333 7.81050358,11.1533333 Z M9.1895805,13.870303 C9.1895805,13.1206061 8.57173435,12.5121212 7.81050358,12.5121212 C7.04865742,12.5121212 6.43081127,13.12 6.43081127,13.870303 C6.43081127,14.6206061 7.04865742,15.2290909 7.81050358,15.2290909 C8.57234973,15.2290909 9.1895805,14.6206061 9.1895805,13.870303 Z M11.659119,8.43575758 L9.53727281,10.509697 C9.28311896,10.7587879 9.13973435,11.0975758 9.13911896,11.4509091 C9.13911896,12.1836364 9.74281127,12.7775758 10.4868113,12.7775758 L10.8486574,12.7775758 L9.65542665,16.5 C9.50527281,16.5563636 9.34527281,16.5854545 9.18404204,16.5866667 L6.42527281,16.5866667 C5.66342665,16.5866667 5.0455805,15.9787879 5.0455805,15.2278788 L5.0455805,13.8715152 L4.07081127,12.9121212 C4.02465742,12.8678788 3.99881127,12.8060606 4.00004204,12.7424242 C4.00188819,12.6133333 4.10896511,12.510303 4.24004204,12.5127273 L5.04681127,12.5127273 L5.04681127,9.79454545 L4.07204204,8.83515152 C4.02588819,8.79090909 4.00065742,8.72969697 4.00127281,8.66545455 C4.00311896,8.53636364 4.11019588,8.43393939 4.24127281,8.43575758 L5.04865742,8.43575758 L5.04865742,5.71878788 L4.07388819,4.75878788 C4.02773435,4.71454545 4.00188819,4.65272727 4.00250358,4.58909091 C4.00434973,4.46 4.11142665,4.35757576 4.24250358,4.35939394 L5.04988819,4.35939394 C5.04988819,3.60848485 5.66773435,3 6.42896511,3 L9.18834973,3 C9.95019588,3.00060606 10.5674267,3.60848485 10.5674267,4.35939394 L11.3741959,4.35939394 C11.4388113,4.35818182 11.5015805,4.38363636 11.547119,4.42909091 C11.6388113,4.52060606 11.6369651,4.66848485 11.5434267,4.75878788 L10.5686574,5.71878788 L10.5686574,8.43575758 L11.659119,8.43575758 Z"/>
</svg>
