<?xml version="1.0" encoding="UTF-8"?>
<svg width="24px" height="24px" viewBox="0 0 24 24" version="1.1" xmlns="http://www.w3.org/2000/svg" xmlns:xlink="http://www.w3.org/1999/xlink">
    <!-- Generator: Sketch 53.2 (72643) - https://sketchapp.com -->
    <title>IconsMiscActionCart</title>
    <desc>Created with Sketch.</desc>
    <defs>
        <path d="M16,16 C17.1045695,16 18,16.8954305 18,18 C18,19.1045695 17.1045695,20 16,20 C14.89,20 14,19.1 14,18 C14,16.89 14.89,16 16,16 L16,16 Z M0,0 L3.27,0 L4.21,2 L19,2 C19.5522847,2 20,2.44771525 20,3 C20,3.17 19.95,3.34 19.88,3.5 L16.3,9.97 C15.96,10.58 15.3,11 14.55,11 L7.1,11 L6.2,12.63 L6.17,12.75 C6.17,12.8880712 6.28192881,13 6.42,13 L18,13 L18,15 L6,15 C4.89,15 4,14.1 4,13 C4,12.65 4.09,12.32 4.24,12.04 L5.6,9.59 L2,2 L0,2 L0,0 L0,0 Z M6,16 C7.1045695,16 8,16.8954305 8,18 C8,19.1045695 7.1045695,20 6,20 C4.89,20 4,19.1 4,18 C4,16.89 4.89,16 6,16 L6,16 Z M15,9 L17.78,4 L5.14,4 L7.5,9 L15,9 Z" id="path-1"></path>
    </defs>
    <g id="ZDS-icons" stroke="none" stroke-width="1" fill="none" fill-rule="evenodd">
        <g id="IconsMiscActionCart">
            <g id="ic_cart">
                <g id="Icon-24px">
                    <polygon id="Shape" points="0 0 24 0 24 24 0 24"></polygon>
                    <g id="grayscale-/-black" transform="translate(2.000000, 2.000000)">
                        <mask id="mask-2" fill="white">
                            <use xlink:href="#path-1"></use>
                        </mask>
                        <use id="Mask" fill="#000000" fill-rule="nonzero" xlink:href="#path-1"></use>
                        <g mask="url(#mask-2)" fill="#000000" id="color-/-grayscale-/-black">
                            <g transform="translate(-2.000000, -2.000000)">
                                <rect x="0" y="0" width="24" height="24"></rect>
                            </g>
                        </g>
                    </g>
                </g>
            </g>
        </g>
    </g>
</svg>