<svg xmlns="http://www.w3.org/2000/svg" width="24" height="24" viewBox="0 0 24 24">
  <path d="M18,18 C19.1045695,18 20,18.8954305 20,20 C20,21.1045695 19.1045695,22 18,22 C16.89,22 16,21.1 16,20 C16,18.89 16.89,18 18,18 L18,18 Z M2,2 L5.27,2 L6.21,4 L21,4 C21.5522847,4 22,4.44771525 22,5 C22,5.17 21.95,5.34 21.88,5.5 L18.3,11.97 C17.96,12.58 17.3,13 16.55,13 L9.1,13 L8.2,14.63 L8.17,14.75 C8.17,14.8880712 8.28192881,15 8.42,15 L20,15 L20,17 L8,17 C6.89,17 6,16.1 6,15 C6,14.65 6.09,14.32 6.24,14.04 L7.6,11.59 L4,4 L2,4 L2,2 L2,2 Z M8,18 C9.1045695,18 10,18.8954305 10,20 C10,21.1045695 9.1045695,22 8,22 C6.89,22 6,21.1 6,20 C6,18.89 6.89,18 8,18 L8,18 Z M17,11 L19.78,6 L7.14,6 L9.5,11 L17,11 Z"/>
</svg>
