<svg xmlns="http://www.w3.org/2000/svg" width="24" height="24" viewBox="0 0 24 24">
  <path fill="#131516" d="M18.5086755,12.5057236 C19.4961625,12.5057236 20.4126923,12.1915932 21.1813947,11.661883 L21.1813947,20.2234772 L20.5073018,20.2234772 L19.4961625,20.2234772 L18.5855458,20.2234772 L18.5855458,18.622028 L17.4797969,18.622028 L17.4797969,20.0756512 C17.4797969,20.5252888 17.1900552,20.9256512 16.8530088,20.9256512 L13.6776766,20.9256512 L10.3131253,20.9256512 L7.14370614,20.9256512 L5.1273406,18.8252888 L3.40071674,18.8252888 C2.96906077,18.8252888 2.58470957,18.3263758 2.58470957,17.6734772 L2.58470957,15.7702164 L1.95792146,15.7702164 L1.95792146,18.5727526 L1,18.5727526 L1,9.51840478 L1.96383455,9.51840478 L1.96383455,12.320941 L2.53740481,12.320941 L2.53740481,11.1691294 C2.53740481,10.5162309 2.92175601,10.0173178 3.35341198,10.0173178 L4.89081678,10.0173178 L4.89081678,9.01949173 C4.89081678,8.56985405 5.18055846,8.16949173 5.56490966,8.16949173 L8.87624309,8.16949173 L8.97085262,8.16949173 L8.97085262,7.41804246 L6.28039421,7.41804246 L6.28039421,6.42021637 L13.8314171,6.42021637 C13.7545468,6.77130333 13.7131551,7.13470913 13.7131551,7.51043376 C13.7131551,10.2698541 15.8596088,12.5057236 18.5086755,12.5057236 Z M10.171211,19.428912 L13.9733313,13.7252888 L10.5614753,13.7252888 L12.2407944,10.4238396 L10.3663431,10.4238396 L7.77049425,15.4252888 L11.6140063,15.4252888 L10.171211,19.428912 Z M17.0954457,6.83289753 L18.1420636,7.92311492 L21.0394804,4.89883956 L21.5184411,5.3977526 L18.1420636,8.91478159 L16.6223981,7.33181058 L17.0954457,6.83289753 Z M22.2989697,8.12021637 L21.8377482,8.13869463 C21.512528,9.99883956 19.839122,11.2738396 18.0297148,10.9966656 C16.184829,10.7194917 14.9076004,8.93325985 15.1736897,7.01152072 C15.439779,5.08978159 17.1545767,3.75934681 18.9994624,4.03652072 C19.407466,4.09811492 19.7859041,4.23362217 20.1229506,4.43072362 L19.6203375,4.95427434 C19.3956398,4.8495642 19.1532029,4.76949173 18.8989398,4.73253521 C17.420666,4.51079608 16.0547409,5.57021637 15.8359564,7.11007144 C15.6171719,8.64992652 16.6401374,10.078912 18.1184112,10.3006512 C19.5139017,10.5100714 20.8147827,9.56768014 21.1340899,8.16333231 L20.708347,8.17565115 L21.4593101,6.70970913 L22.2989697,8.12021637 Z"/>
</svg>
