<svg xmlns="http://www.w3.org/2000/svg" width="24" height="24" viewBox="0 0 24 24">
  <path fill="#131516" fill-rule="evenodd" d="M9.43681602,16.1194007 C9.54677778,16.0143165 9.69742539,15.8378649 9.59681038,15.7282851 C9.38953246,15.5018201 9.15201506,14.8415315 8.91229842,13.9575877 L8.62254919,12.7769355 C8.27012175,11.2456279 7.93968666,9.41873576 7.72086276,8.00656107 C7.69722098,7.85652102 7.40912117,7.7514368 7.26067279,7.77560055 C7.11277422,7.7997643 6.79003646,7.94193708 6.81367824,8.09310103 C6.92473962,8.81127025 7.92539163,15.1303727 8.83202634,16.1081618 C8.88315856,16.1643565 8.9546337,16.1963876 9.0294077,16.1958256 C9.09538475,16.1958256 9.38623361,16.1710999 9.43681602,16.1194007 Z M22.0543781,16.0581484 C22.4788305,16.0581484 22.8235607,16.4088038 22.8252101,16.8426275 L22.8252101,18.277842 C22.8241105,18.7116657 22.4793803,19.063445 22.0543781,19.0640069 L19.4218936,19.0640069 C19.0898091,19.9799817 18.2365058,20.5891331 17.2809381,20.5930667 L6.5426225,20.5930667 C5.58705481,20.5885712 4.73375155,19.9799817 4.40111723,19.0640069 L1.77083194,19.0640069 C1.34582973,19.062883 1.00164943,18.7116657 1,18.277842 L1,16.8426275 C1.00274904,16.4093658 1.34692935,16.0587104 1.77083194,16.0581484 L2.33163691,16.0581484 C2.43665039,12.3048994 4.13555958,9.02312455 6.66632948,7.09339598 C6.58550759,6.6533909 6.53492518,6.30835498 6.52722785,6.10661574 C6.52063015,5.91499155 10.0581,4.90404756 10.9641849,4.85852979 C10.923499,4.93832637 10.8762155,5.10859654 10.8289319,5.34686238 C11.5145435,5.25357905 12.208952,5.25189321 12.8956632,5.33618537 C12.6141611,6.03637227 12.4569157,6.80118315 12.4569157,7.60420649 C12.4569157,9.65419187 13.4685639,11.4631017 15.0102278,12.5442891 C14.9942834,12.6134087 14.9794385,12.6847761 14.9634941,12.7527718 L14.6720954,13.9323001 C14.4340282,14.8173678 14.1965108,15.4776564 13.9908823,15.7013116 C13.8864186,15.8125772 14.0403651,15.9890288 14.1492272,16.0957989 C14.2020089,16.1441264 14.4400761,16.1958256 14.5082524,16.1958256 C14.5830264,16.1958256 14.6545015,16.1643565 14.7056337,16.1081618 C15.0740056,15.7097408 15.458322,14.427938 15.7920559,13.0000288 C16.5579396,13.3765338 17.4134421,13.5945695 18.3206266,13.5973792 C19.2926885,13.5945695 20.2064708,13.3473125 21.0135901,12.9196702 C21.295642,13.911508 21.4649831,14.9634742 21.4957724,16.0581484 L22.0543781,16.0581484 Z M18.3169978,3.55239464 C16.1249102,3.55239464 14.3567251,5.35961859 14.3567251,7.60010427 C14.3567251,9.84058994 16.139755,11.6629865 18.3169978,11.6478139 C20.5090855,11.6478139 22.2915657,9.82541735 22.2772706,7.60010427 C22.2772706,5.35961859 20.4942407,3.537784 18.3169978,3.55239464 Z M18.3169978,12.2153811 C15.8252644,12.2075139 13.8085657,10.1462895 13.8085657,7.60797154 C13.8085657,5.06852966 15.8252644,3.00730532 18.3169978,3 C20.8015838,3 22.8182825,5.06122434 22.82543,7.60797154 C22.82543,10.1462895 20.8087313,12.2075139 18.3169978,12.2153811 Z M15.9188418,7.2028634 L15.9188418,6.64484929 L15.2315808,6.64484929 L16.2234359,5.27875431 L17.2147412,6.64484929 L16.5258307,6.64484929 L16.5258307,7.07473932 L17.7859925,8.36272356 L17.7859925,5.45183422 L17.0998311,5.45183422 L18.0916862,4.08573924 L19.0824417,5.45183422 L18.3929814,5.45183422 L18.3929814,8.99435282 L19.0533018,8.31889163 C19.1099321,8.26101101 19.1869053,8.2278561 19.2677272,8.2278561 L20.0737469,8.2278561 L20.0737469,7.44899652 L21.4097823,8.46275025 L20.0737469,9.47594204 L20.0737469,8.84880836 L19.3930836,8.84880836 L18.3929814,9.87099131 L18.3929814,10.8015768 C18.3929814,10.9729708 18.2566288,11.1117719 18.089487,11.1117719 C17.9217953,11.1117719 17.7859925,10.9729708 17.7859925,10.8015768 L17.7859925,9.23992399 L16.0084607,7.42258497 C15.9512806,7.36414241 15.9188418,7.28490777 15.9188418,7.2028634 Z"/>
</svg>
