<?xml version="1.0" encoding="UTF-8"?>
<svg width="24px" height="24px" viewBox="0 0 24 24" version="1.1" xmlns="http://www.w3.org/2000/svg" xmlns:xlink="http://www.w3.org/1999/xlink">
    <!-- Generator: Sketch 53.2 (72643) - https://sketchapp.com -->
    <title>IconsMiscActionReload</title>
    <desc>Created with Sketch.</desc>
    <defs>
        <path d="M18,4 L14,8 L17,8 C17,11.3137085 14.3137085,14 11,14 C10,14 9.03,13.75 8.2,13.3 L6.74,14.76 C7.97,15.54 9.43,16 11,16 C15.418278,16 19,12.418278 19,8 L22,8 M5,8 C5,4.6862915 7.6862915,2 11,2 C12,2 12.97,2.25 13.8,2.7 L15.26,1.24 C14.03,0.46 12.57,0 11,0 C6.581722,-4.4408921e-16 3,3.581722 3,8 L0,8 L4,12 L8,8" id="path-1"></path>
    </defs>
    <g id="ZDS-icons" stroke="none" stroke-width="1" fill="none" fill-rule="evenodd">
        <g id="IconsMiscActionReload">
            <g id="ic_reload">
                <g id="Icon-24px">
                    <polygon id="Shape" points="0 0 24 0 24 24 0 24"></polygon>
                    <g id="grayscale-/-black" transform="translate(1.000000, 4.000000)">
                        <mask id="mask-2" fill="white">
                            <use xlink:href="#path-1"></use>
                        </mask>
                        <use id="Mask" fill="#000000" fill-rule="nonzero" xlink:href="#path-1"></use>
                        <g mask="url(#mask-2)" fill="#000000" id="color-/-grayscale-/-black">
                            <g transform="translate(-1.000000, -4.000000)">
                                <rect x="0" y="0" width="24" height="24"></rect>
                            </g>
                        </g>
                    </g>
                </g>
            </g>
        </g>
    </g>
</svg>