<svg xmlns="http://www.w3.org/2000/svg" width="24" height="24" viewBox="0 0 24 24">
  <path d="M12,11.5 C10.6192881,11.5 9.5,10.3807119 9.5,9 C9.5,8.33695878 9.7633921,7.70107399 10.232233,7.23223305 C10.701074,6.7633921 11.3369588,6.5 12,6.5 C13.3807119,6.5 14.5,7.61928813 14.5,9 C14.5,9.66304122 14.2366079,10.298926 13.767767,10.767767 C13.298926,11.2366079 12.6630412,11.5 12,11.5 L12,11.5 Z M12,2 C8.13400675,2 5,5.13400675 5,9 C5,14.25 12,22 12,22 C12,22 19,14.25 19,9 C19,5.13400675 15.8659932,2 12,2 Z"/>
</svg>
