<svg xmlns="http://www.w3.org/2000/svg" width="24" height="24" viewBox="0 0 24 24">
  <path d="M20,0 L4,0 L4,2 L20,2 L20,0 L20,0 Z M4,24 L20,24 L20,22 L4,22 L4,24 L4,24 Z M20,4 L4,4 C2.8954305,4 2,4.8954305 2,6 L2,18 C2,19.1045695 2.8954305,20 4,20 L20,20 C21.1045695,20 22,19.1045695 22,18 L22,6 C22,4.8954305 21.1045695,4 20,4 L20,4 Z M12,6.75 C13.2426407,6.75 14.25,7.75735931 14.25,9 C14.25,10.2426407 13.2426407,11.25 12,11.25 C10.7573593,11.25 9.75,10.2426407 9.75,9 C9.75,7.75735931 10.7573593,6.75 12,6.75 L12,6.75 Z M17,17 L7,17 L7,15.5 C7,13.83 10.33,13 12,13 C13.67,13 17,13.83 17,15.5 L17,17 Z"/>
</svg>
