<?xml version="1.0" encoding="UTF-8"?>
<svg width="24px" height="24px" viewBox="0 0 24 24" version="1.1" xmlns="http://www.w3.org/2000/svg" xmlns:xlink="http://www.w3.org/1999/xlink">
    <!-- Generator: Sketch 53.2 (72643) - https://sketchapp.com -->
    <title>IconsSocialInstagram</title>
    <desc>Created with Sketch.</desc>
    <defs>
        <path d="M5.8,0 L14.2,0 C17.4,0 20,2.6 20,5.8 L20,14.2 C20,17.4032515 17.4032515,20 14.2,20 L5.8,20 C2.6,20 0,17.4 0,14.2 L0,5.8 C-2.22044605e-16,2.59674845 2.59674845,8.8817842e-16 5.8,0 L5.8,0 Z M5.6,2 C3.6117749,2 2,3.6117749 2,5.6 L2,14.4 C2,16.39 3.61,18 5.6,18 L14.4,18 C16.3882251,18 18,16.3882251 18,14.4 L18,5.6 C18,3.61 16.39,2 14.4,2 L5.6,2 L5.6,2 Z M15.25,3.5 C15.9403559,3.5 16.5,4.05964406 16.5,4.75 C16.5,5.44035594 15.9403559,6 15.25,6 C14.5596441,6 14,5.44035594 14,4.75 C14,4.05964406 14.5596441,3.5 15.25,3.5 L15.25,3.5 Z M10,5 C12.7614237,5 15,7.23857625 15,10 C15,12.7614237 12.7614237,15 10,15 C7.23857625,15 5,12.7614237 5,10 C5,7.23857625 7.23857625,5 10,5 L10,5 Z M10,7 C8.34314575,7 7,8.34314575 7,10 C7,11.6568542 8.34314575,13 10,13 C11.6568542,13 13,11.6568542 13,10 C13,8.34314575 11.6568542,7 10,7 Z" id="path-1"></path>
    </defs>
    <g id="ZDS-icons" stroke="none" stroke-width="1" fill="none" fill-rule="evenodd">
        <g id="IconsSocialInstagram">
            <g id="ic_instagram">
                <g id="Icon-24px">
                    <polygon id="Shape" points="0 0 24 0 24 24 0 24"></polygon>
                    <g id="grayscale-/-black" transform="translate(2.000000, 2.000000)">
                        <mask id="mask-2" fill="white">
                            <use xlink:href="#path-1"></use>
                        </mask>
                        <use id="Mask" fill="#000000" fill-rule="nonzero" xlink:href="#path-1"></use>
                        <g mask="url(#mask-2)" fill="#000000" id="color-/-grayscale-/-black">
                            <g transform="translate(-2.000000, -2.000000)">
                                <rect x="0" y="0" width="24" height="24"></rect>
                            </g>
                        </g>
                    </g>
                </g>
            </g>
        </g>
    </g>
</svg>