<svg xmlns="http://www.w3.org/2000/svg" width="24" height="24" viewBox="0 0 24 24">
  <path d="M11.7293316,15.5 C9.79633498,15.5 8.2293316,13.9329966 8.2293316,12 C8.2293316,10.0670034 9.79633498,8.5 11.7293316,8.5 C13.6623282,8.5 15.2293316,10.0670034 15.2293316,12 C15.2293316,13.9329966 13.6623282,15.5 11.7293316,15.5 L11.7293316,15.5 Z M19.1593316,12.97 C19.1993316,12.65 19.2293316,12.33 19.2293316,12 C19.2293316,11.67 19.1993316,11.34 19.1593316,11 L21.2693316,9.37 C21.4593316,9.22 21.5093316,8.95 21.3893316,8.73 L19.3893316,5.27 C19.2693316,5.05 18.9993316,4.96 18.7793316,5.05 L16.2893316,6.05 C15.7693316,5.66 15.2293316,5.32 14.5993316,5.07 L14.2293316,2.42 C14.1893316,2.18 13.9793316,2 13.7293316,2 L9.7293316,2 C9.4793316,2 9.2693316,2.18 9.2293316,2.42 L8.8593316,5.07 C8.2293316,5.32 7.6893316,5.66 7.1693316,6.05 L4.6793316,5.05 C4.4593316,4.96 4.1893316,5.05 4.0693316,5.27 L2.0693316,8.73 C1.9393316,8.95 1.9993316,9.22 2.1893316,9.37 L4.2993316,11 C4.2593316,11.34 4.2293316,11.67 4.2293316,12 C4.2293316,12.33 4.2593316,12.65 4.2993316,12.97 L2.1893316,14.63 C1.9993316,14.78 1.9393316,15.05 2.0693316,15.27 L4.0693316,18.73 C4.1893316,18.95 4.4593316,19.03 4.6793316,18.95 L7.1693316,17.94 C7.6893316,18.34 8.2293316,18.68 8.8593316,18.93 L9.2293316,21.58 C9.2693316,21.82 9.4793316,22 9.7293316,22 L13.7293316,22 C13.9793316,22 14.1893316,21.82 14.2293316,21.58 L14.5993316,18.93 C15.2293316,18.67 15.7693316,18.34 16.2893316,17.94 L18.7793316,18.95 C18.9993316,19.03 19.2693316,18.95 19.3893316,18.73 L21.3893316,15.27 C21.5093316,15.05 21.4593316,14.78 21.2693316,14.63 L19.1593316,12.97 Z"/>
</svg>
