<?xml version="1.0" encoding="UTF-8"?>
<svg width="24px" height="24px" viewBox="0 0 24 24" version="1.1" xmlns="http://www.w3.org/2000/svg" xmlns:xlink="http://www.w3.org/1999/xlink">
    <!-- Generator: Sketch 53.2 (72643) - https://sketchapp.com -->
    <title>IconsLanguagesEnglish</title>
    <desc>Created with Sketch.</desc>
    <defs>
        <polygon id="path-1" points="0 0 20 0 20 20 0 20"></polygon>
    </defs>
    <g id="ZDS-icons" stroke="none" stroke-width="1" fill="none" fill-rule="evenodd">
        <g id="IconsLanguagesEnglish">
            <g id="ic_english">
                <g id="Icon-24px">
                    <polygon id="Shape" points="0 0 24 0 24 24 0 24"></polygon>
                    <g id="gb" transform="translate(2.000000, 2.000000)">
                        <mask id="mask-2" fill="white">
                            <use xlink:href="#path-1"></use>
                        </mask>
                        <g id="Path"></g>
                        <g id="Group" mask="url(#mask-2)">
                            <g transform="translate(-10.500000, 0.000000)">
                                <g>
                                    <polygon id="Path" fill="#012169" fill-rule="nonzero" points="0 0 40.96 0 40.96 20.48 0 20.48"></polygon>
                                    <path d="M0,0 L0,2.289664 L36.380672,20.48 L40.96,20.48 L40.96,18.190336 L4.579328,0.004096 L0,0.004096 L0,0 Z M40.96,0 L40.96,2.289664 L4.579328,20.48 L0,20.48 L0,18.190336 L36.380672,0 L40.96,0 Z" id="Shape" fill="#FFFFFF" fill-rule="nonzero"></path>
                                    <path d="M17.068032,0 L17.068032,20.48 L23.891968,20.48 L23.891968,0 L17.068032,0 Z M0,6.828032 L0,13.651968 L40.96,13.651968 L40.96,6.828032 L0,6.828032 Z" id="Shape" fill="#FFFFFF" fill-rule="nonzero"></path>
                                    <path d="M0,8.192 L0,12.288 L40.96,12.288 L40.96,8.192 L0,8.192 Z M18.432,0 L18.432,20.48 L22.528,20.48 L22.528,0 L18.432,0 Z M0,20.48 L13.651968,13.651968 L16.71168,13.651968 L3.05152,20.48 L0,20.48 Z M0,0 L13.651968,6.828032 L10.600448,6.828032 L0,1.527808 L0,0 Z M24.252416,6.828032 L37.90848,0 L40.96,0 L27.308032,6.828032 L24.24832,6.828032 L24.252416,6.828032 Z M40.964096,20.48 L27.303936,13.651968 L30.355456,13.651968 L40.96,18.952192 L40.96,20.48 L40.964096,20.48 Z" id="Shape" fill="#C8102E" fill-rule="nonzero"></path>
                                </g>
                            </g>
                        </g>
                    </g>
                </g>
            </g>
        </g>
    </g>
</svg>