<svg xmlns="http://www.w3.org/2000/svg" width="24" height="24" viewBox="0 0 24 24">
  <path d="M15.5,14 L20.5,19 L19,20.5 L14,15.5 L14,14.71 L13.73,14.43 C12.59,15.41 11.11,16 9.5,16 C5.91014913,16 3,13.0898509 3,9.5 C3,5.91014913 5.91014913,3 9.5,3 C11.2239072,3 12.8772076,3.68481946 14.0961941,4.90380592 C15.3151805,6.12279238 16,7.77609282 16,9.5 C16,11.11 15.41,12.59 14.43,13.73 L14.71,14 L15.5,14 L15.5,14 Z M9.5,14 C12,14 14,12 14,9.5 C14,7 12,5 9.5,5 C7,5 5,7 5,9.5 C5,12 7,14 9.5,14 L9.5,14 Z M12,10 L10,10 L10,12 L9,12 L9,10 L7,10 L7,9 L9,9 L9,7 L10,7 L10,9 L12,9 L12,10 Z"/>
</svg>
