<svg xmlns="http://www.w3.org/2000/svg" xmlns:xlink="http://www.w3.org/1999/xlink" width="24" height="24" viewBox="0 0 24 24">
  <defs>
    <polygon id="iconslanguagessg-a" points=".02 0 19.98 0 19.98 19.963 .02 19.963"/>
  </defs>
  <g fill="none" fill-rule="evenodd" transform="translate(2 2)">
    <mask id="iconslanguagessg-b" fill="#fff">
      <use xlink:href="#iconslanguagessg-a"/>
    </mask>
    <g fill-rule="nonzero" mask="url(#iconslanguagessg-b)">
      <polygon fill="#FFF" points="0 0 30.634 0 30.634 20.424 0 20.424"/>
      <polygon fill="#DF0000" points="0 0 30.634 0 30.634 10.21 0 10.21"/>
      <path fill="#FFF" d="M7.06628017,1.71181502 C5.40470065,2.06783006 4.22017197,3.53982142 4.22783577,5.23909612 C4.23549958,6.93837081 5.4332573,8.39961795 7.09798045,8.74063122 C5.60666035,9.17706725 4.00237827,8.62344395 3.09762193,7.3601435 C2.19286559,6.09684306 2.18521158,4.39973931 3.07853626,3.12832943 C3.97186094,1.85691956 5.57108412,1.28884831 7.06628017,1.71181502 L7.06628017,1.71181502 Z"/>
      <path fill="#FFF" d="M5.82132379,4.68011378 L5.27665538,4.28241938 L5.95388859,4.2766557 L6.16138132,3.63400461 L6.37751958,4.2766557 L7.05187095,4.2766557 L6.51008438,4.68011378 L6.71757711,5.32276487 L6.16714501,4.92795232 L5.61959475,5.32564672 L5.82132379,4.68011378 Z M6.57060309,6.8962514 L6.02305284,6.49855701 L6.70028605,6.49279332 L6.91066062,5.85014223 L7.12391704,6.48991148 L7.80115025,6.48991148 L7.25359999,6.89336956 L7.46397457,7.53602065 L6.91642431,7.14408994 L6.36887405,7.54178434 L6.57060309,6.8962514 Z M9.057634,6.87896034 L8.51008374,6.48126595 L9.18443511,6.47550226 L9.39480969,5.83285117 L9.6080661,6.47550226 L10.2881812,6.47550226 L9.74351274,6.87896034 L9.95388732,7.52161144 L9.40345522,7.12679888 L8.85590496,7.52449328 L9.057634,6.87896034 Z M9.79826777,4.68299563 L9.25071751,4.28530123 L9.92795073,4.27953754 L10.1354435,3.63688645 L10.3515817,4.2766557 L11.0259331,4.2766557 L10.4841465,4.68011378 L10.6916392,5.32276487 L10.1412071,4.93083416 L9.59365688,5.32852856 L9.79826777,4.68299563 Z M7.82996869,3.22766468 L7.28241843,2.82997028 L7.95965164,2.82420659 L8.17002621,2.1815555 L8.38328263,2.82420659 L9.06051584,2.82420659 L8.51296559,3.22766468 L8.72334016,3.86743393 L8.1757899,3.47550322 L7.62823964,3.87319761 L7.82996869,3.22766468 Z"/>
    </g>
  </g>
</svg>
