<svg xmlns="http://www.w3.org/2000/svg" width="24" height="24" viewBox="0 0 24 24">
  <path d="M12,9 L14,9 L14,6 L17,6 L17,4 L14,4 L14,1 L12,1 L12,4 L9,4 L9,6 L12,6 L12,9 Z M8,18 C6.8954305,18 6,18.8954305 6,20 C6,21.1045695 6.8954305,22 8,22 C9.1045695,22 10,21.1045695 10,20 C10,18.8954305 9.1045695,18 8,18 L8,18 Z M18,18 C16.8954305,18 16,18.8954305 16,20 C16,21.1045695 16.8954305,22 18,22 C19.1045695,22 20,21.1045695 20,20 C20,18.8954305 19.1045695,18 18,18 L18,18 Z M8.17,14.75 L8.2,14.63 L9.1,13 L16.55,13 C17.3,13 17.96,12.59 18.3,11.97 L22.16,4.96 L20.42,4 L20.41,4 L19.31,6 L16.55,11 L9.53,11 L9.4,10.73 L7.16,6 L6.21,4 L5.27,2 L2,2 L2,4 L4,4 L7.6,11.59 L6.25,14.04 C6.09,14.32 6,14.65 6,15 C6,16.1045695 6.8954305,17 8,17 L20,17 L20,15 L8.42,15 C8.29,15 8.17,14.89 8.17,14.75 Z"/>
</svg>
