<svg xmlns="http://www.w3.org/2000/svg" width="24" height="24" viewBox="0 0 24 24">
  <path fill="#231F20" fill-rule="evenodd" d="M15.1976905,19.2461561 L18.3992302,19.2461561 L18.3992302,17.5511357 L15.1976905,17.5511357 L15.1976905,19.2461561 Z M15.1976905,15.8603635 L18.3992302,15.8603635 L18.3992302,14.1653431 L15.1976905,14.1653431 L15.1976905,15.8603635 Z M10.3994868,15.8603635 L13.6010265,15.8603635 L13.6010265,14.1653431 L10.3994868,14.1653431 L10.3994868,15.8603635 Z M10.3994868,19.2461561 L13.6010265,19.2461561 L13.6010265,17.5511357 L10.3994868,17.5511357 L10.3994868,19.2461561 Z M5.60076985,15.8603635 L8.80230954,15.8603635 L8.80230954,14.1653431 L5.60076985,14.1653431 L5.60076985,15.8603635 Z M5.60076985,19.2461561 L8.80230954,19.2461561 L8.80230954,17.5511357 L5.60076985,17.5511357 L5.60076985,19.2461561 Z M18.655846,10.2193229 L15.9998717,12.4708537 L15.9998717,10.9048716 C15.9998717,10.171531 15.1976905,9.76211347 14.6557177,10.2193229 L11.9997434,12.4708537 L11.9997434,10.9048716 C11.9997434,10.171531 11.1975621,9.76211347 10.6555894,10.2193229 L7.99961508,12.4708537 L7.26261427,4.67758334 C7.22617482,4.29365485 6.92028869,4 6.55794707,4 L5.44218123,4 C5.07932638,4 4.77395349,4.29365485 4.73751403,4.67758334 L4,12.4708537 L4,20.9411765 L20,20.9411765 L20,16.046221 L20,12.4708537 L20,10.9048716 C20,10.171531 19.1978188,9.76211347 18.655846,10.2193229 L18.655846,10.2193229 Z"/>
</svg>
