<?xml version="1.0" encoding="UTF-8"?>
<svg width="24px" height="24px" viewBox="0 0 24 24" version="1.1" xmlns="http://www.w3.org/2000/svg" xmlns:xlink="http://www.w3.org/1999/xlink">
    <!-- Generator: Sketch 53.2 (72643) - https://sketchapp.com -->
    <title>IconsMiscActionClock</title>
    <desc>Created with Sketch.</desc>
    <defs>
        <path d="M10,18 C14.418278,18 18,14.418278 18,10 C18,5.581722 14.418278,2 10,2 C5.581722,2 2,5.581722 2,10 C2,14.418278 5.581722,18 10,18 L10,18 Z M10,4.4408921e-16 C12.6521649,2.22044605e-16 15.195704,1.0535684 17.0710678,2.92893219 C18.9464316,4.80429597 20,7.3478351 20,10 C20,15.5228475 15.5228475,20 10,20 C4.47,20 0,15.5 0,10 C-8.8817842e-16,4.4771525 4.4771525,1.33226763e-15 10,0 L10,4.4408921e-16 Z M10.5,5 L10.5,10.25 L15,12.92 L14.25,14.15 L9,11 L9,5 L10.5,5 Z" id="path-1"></path>
    </defs>
    <g id="ZDS-icons" stroke="none" stroke-width="1" fill="none" fill-rule="evenodd">
        <g id="IconsMiscActionClock">
            <g id="ic_clock">
                <g id="Icon-24px">
                    <polygon id="Shape" points="0 0 24 0 24 24 0 24"></polygon>
                    <g id="grayscale-/-black" transform="translate(2.000000, 2.000000)">
                        <mask id="mask-2" fill="white">
                            <use xlink:href="#path-1"></use>
                        </mask>
                        <use id="Mask" fill="#000000" fill-rule="nonzero" xlink:href="#path-1"></use>
                        <g mask="url(#mask-2)" fill="#000000" id="color-/-grayscale-/-black">
                            <g transform="translate(-2.000000, -2.000000)">
                                <rect x="0" y="0" width="24" height="24"></rect>
                            </g>
                        </g>
                    </g>
                </g>
            </g>
        </g>
    </g>
</svg>