<svg xmlns="http://www.w3.org/2000/svg" width="24" height="24" viewBox="0 0 24 24">
  <path fill-rule="evenodd" d="M21.6930994,9.92047255 L21.6930994,9.88332863 L19.3268626,9.88332863 L19.3268626,9.92047255 L19.3268626,10.0327485 L19.3268626,10.4058761 L20.9206747,10.4058761 L21.076848,11.2644073 L21.6930994,11.2644073 L21.6930994,10.0327485 L21.6930994,9.92047255 Z M17.8157802,10.4480851 L17.8157802,8.6246561 L17.4654455,8.6246561 L16.7267879,10.4480851 L17.8157802,10.4480851 Z M22.1658403,11.2745374 L22.67066,11.2745374 L22.67066,16.6013139 L22.67066,16.6325485 L22.6655949,16.6325485 L21.8484286,16.6325485 L21.8484286,14.5854118 C21.1874356,13.3166091 19.8316823,12.4268433 18.2378703,12.4268433 C17.3042071,12.4268433 16.4541177,12.7248388 15.7542924,13.2473863 L15.7542924,11.3116814 L16.9986139,8.14431762 L20.5323518,8.14431762 L20.6100164,8.59342143 L18.3991087,8.59342143 L18.3991087,10.4539944 L18.9436049,10.4539944 L18.9436049,10.0437228 C18.9436049,9.85631486 18.9824371,9.70689499 19.098934,9.59546321 C19.1377663,9.52033118 19.2154308,9.48318726 19.3319277,9.48318726 L21.7766733,9.48318726 C21.8931701,9.48318726 21.9708347,9.55747511 22.009667,9.59546321 C22.1261638,9.70689499 22.1658403,9.89430297 22.1658403,10.0437228 L22.1658403,11.2745374 Z M13.3489701,12.7943149 L13.854634,11.5255122 L9.69873532,11.5255122 L13.3489701,12.7943149 Z M8.1640159,9.58980721 C8.2830453,9.27155131 8.35648897,8.93641181 8.39616543,8.58776543 L14.8600525,8.58776543 L15.6375423,6.57777261 L16.2985353,6.57777261 L21.7325227,6.57777261 L21.7325227,7.47344769 L16.5712055,7.47344769 L13.9711308,14.1061707 L6.64871262,11.5812281 C7.02774949,11.3085579 7.35951227,10.9767951 7.63302662,10.5969141 L14.243801,10.5969141 L14.6321238,9.58980721 L8.1640159,9.58980721 Z M8.22125131,17.5608934 C8.99874119,17.5608934 9.66057838,16.9260699 9.66057838,16.1798147 C9.66057838,15.4327154 8.99874119,14.7995803 8.22125131,14.7995803 C7.44376144,14.7995803 6.78276842,15.4327154 6.78276842,16.1798147 C6.7878335,16.9319792 7.40999424,17.5608934 8.22125131,17.5608934 Z M8.22125131,13.129792 C9.9653274,13.129792 11.4046545,14.5108707 11.4046545,16.1848798 C11.4046545,17.8597331 9.97123666,19.2399676 8.22125131,19.2399676 C6.47717523,19.2399676 5.03784816,17.8597331 5.03784816,16.1848798 C5.03784816,14.5108707 6.47717523,13.129792 8.22125131,13.129792 Z M11.7933994,13.9088859 L14.6264678,14.8788488 L14.6264678,17.7473728 L12.6105657,17.7473728 L12.6105657,17.0011176 L11.7933994,17.0011176 C11.8322317,16.7765657 11.871064,16.4785701 11.871064,16.2168742 C11.871064,15.5086071 11.6769026,14.8737837 11.3265678,14.3563013 L11.7933994,13.9088859 Z M18.1989536,17.5608934 C18.9764435,17.5608934 19.6374365,16.9260699 19.6374365,16.1798147 C19.6374365,15.4327154 18.9764435,14.7995803 18.1989536,14.7995803 C17.4214637,14.7995803 16.7596265,15.4327154 16.7596265,16.1798147 C16.7655358,16.9319792 17.4265288,17.5608934 18.1989536,17.5608934 Z M18.2377859,13.129792 C19.981862,13.129792 21.421189,14.5058056 21.421189,16.1848798 C21.421189,17.863954 19.9877712,19.2399676 18.2377859,19.2399676 C16.4928656,19.2399676 15.0543827,17.8597331 15.0543827,16.1848798 C15.0543827,14.5108707 16.4928656,13.129792 18.2377859,13.129792 Z M3.76710385,8.46291119 L6.44737567,5.79867879 L6.88381678,6.24018499 L3.76710385,9.34423521 L2.3649207,7.94627297 L2.80558272,7.50561096 L3.76710385,8.46291119 Z M1.03255125,7.65916732 C1.25710316,6.11262937 2.59090772,5 4.11634116,5 C4.26491686,5.00084418 4.41433673,5.01013016 4.56460079,5.03292302 C4.94026094,5.08695055 5.2897515,5.20682412 5.60125395,5.38072523 L5.1369549,5.84249174 C4.92928659,5.74963193 4.70557887,5.67956498 4.4708968,5.64664196 C3.10754594,5.45079217 1.84634087,6.38614372 1.64373764,7.74611787 C1.4419786,9.10440365 2.38661613,10.3656087 3.75081117,10.5614585 C5.03903001,10.7463339 6.23945411,9.91481654 6.53491714,8.67556016 L6.1423734,8.68569032 L6.83544526,7.39325058 L7.60955841,8.63672787 L7.18493582,8.65361147 C6.88525189,10.2955418 5.33955812,11.4199897 3.6689257,11.1751774 C1.96621444,10.9312094 0.786050662,9.35428096 1.03255125,7.65916732 Z"/>
</svg>
