<svg xmlns="http://www.w3.org/2000/svg" width="24" height="24" viewBox="0 0 24 24">
  <path fill="#131516" d="M11.0437318,17.4759494 L12.4664723,13.6362869 L8.67638484,13.6362869 L11.2361516,8.83966245 L13.0845481,8.83966245 L11.4285714,12.0059072 L14.7930029,12.0059072 L11.0437318,17.4759494 Z M21.8950437,7.7350211 L19.335277,7.7350211 L19.335277,8.36118143 L19.335277,8.93417722 L18.8629738,8.93417722 L16.5422741,6.72489451 L13.2769679,6.72489451 L13.1370262,6.72489451 L13.1370262,5.95696203 L15.7434402,5.95696203 L15.7434402,5 L7.20699708,5 L7.20699708,5.95696203 L9.86005831,5.95696203 L9.86005831,6.67763713 L9.76676385,6.67763713 L6.50145773,6.67763713 C6.12244898,6.67763713 5.83673469,7.06160338 5.83673469,7.492827 L5.83673469,8.44978903 L4.32069971,8.44978903 C3.89504373,8.44978903 3.51603499,8.92827004 3.51603499,9.55443038 L3.51603499,10.6590717 L2.95043732,10.6590717 L2.95043732,7.97130802 L2,7.97130802 L2,16.6548523 L2.94460641,16.6548523 L2.94460641,13.9670886 L3.56268222,13.9670886 L3.56268222,15.7924051 C3.56268222,16.4185654 3.94169096,16.8970464 4.36734694,16.8970464 L6.06997085,16.8970464 L8.05830904,18.9113924 L11.1836735,18.9113924 L14.5014577,18.9113924 L17.6326531,18.9113924 C17.9650146,18.9113924 18.2507289,18.5274262 18.2507289,18.0962025 L18.2507289,16.7021097 L19.3411079,16.7021097 L19.3411079,18.2379747 L20.2390671,18.2379747 L21.2361516,18.2379747 L21.9008746,18.2379747 L21.9008746,8.31392405 L21.9008746,7.7350211 L21.8950437,7.7350211 Z"/>
</svg>
