<?xml version="1.0" encoding="UTF-8"?>
<svg width="24px" height="24px" viewBox="0 0 24 24" version="1.1" xmlns="http://www.w3.org/2000/svg" xmlns:xlink="http://www.w3.org/1999/xlink">
    <!-- Generator: Sketch 53.2 (72643) - https://sketchapp.com -->
    <title>IconsMiscActionEmail</title>
    <desc>Created with Sketch.</desc>
    <defs>
        <path d="M18,4 L10,9 L2,4 L2,2 L10,7 L18,2 L18,4 Z M18,0 L2,0 C0.89,0 0,0.89 0,2 L0,14 C0,15.1045695 0.8954305,16 2,16 L18,16 C19.1045695,16 20,15.1045695 20,14 L20,2 C20,0.89 19.1,0 18,0 Z" id="path-1"></path>
    </defs>
    <g id="ZDS-icons" stroke="none" stroke-width="1" fill="none" fill-rule="evenodd">
        <g id="IconsMiscActionEmail">
            <g id="ic_email">
                <g id="Icon-24px">
                    <polygon id="Shape" points="0 0 24 0 24 24 0 24"></polygon>
                    <g id="grayscale-/-black" transform="translate(2.000000, 4.000000)">
                        <mask id="mask-2" fill="white">
                            <use xlink:href="#path-1"></use>
                        </mask>
                        <use id="Mask" fill="#000000" fill-rule="nonzero" xlink:href="#path-1"></use>
                        <g mask="url(#mask-2)" fill="#000000" id="color-/-grayscale-/-black">
                            <g transform="translate(-2.000000, -4.000000)">
                                <rect x="0" y="0" width="24" height="24"></rect>
                            </g>
                        </g>
                    </g>
                </g>
            </g>
        </g>
    </g>
</svg>