<svg xmlns="http://www.w3.org/2000/svg" width="24" height="24" viewBox="0 0 24 24">
  <path d="M21,8 L21,7 L18,9 L15,7 L15,8 L18,10 M22,3 L2,3 C0.8954305,3 1.3527075e-16,3.8954305 0,5 L0,19 C1.3527075e-16,20.1045695 0.8954305,21 2,21 L22,21 C23.1045695,21 24,20.1045695 24,19 L24,5 C24,3.8954305 23.1045695,3 22,3 M8,6 C9.65685425,6 11,7.34314575 11,9 C11,10.6568542 9.65685425,12 8,12 C6.34314575,12 5,10.6568542 5,9 C5,7.34314575 6.34314575,6 8,6 M14,18 L2,18 L2,17 C2,15 6,13.9 8,13.9 C10,13.9 14,15 14,17 M22,12 L14,12 L14,6 L22,6"/>
</svg>
