<svg xmlns="http://www.w3.org/2000/svg" width="24" height="24" viewBox="0 0 24 24">
  <path fill-rule="evenodd" d="M15.4757763,18.3344162 L15.4256442,21.4940305 C15.4256442,21.7717214 15.1970756,22 14.9100903,22 L11.8229271,22 C11.5400841,22 11.3087539,21.7717214 11.3087539,21.4940305 L11.3087539,18.3344162 L11.2965395,18.3344162 L11.2965395,17.3138327 C11.2965395,16.214275 10.3829024,15.3196237 9.26353224,15.3196237 L8.17273317,15.3196237 C7.05081393,15.3196237 6.1400445,16.214275 6.1400445,17.3138327 L6.11837722,17.3138327 L6.11837722,21.4940305 C6.11837722,21.7717214 5.88832164,22 5.6028233,22 L2.51406694,22 C2.23005558,22 2,21.7717214 2,21.4940305 L2,2.68906355 C2,2.41233315 2.23005558,2.18394787 2.51406694,2.18394787 L5.6028233,2.18394787 C5.88832164,2.18394787 6.11837722,2.41233315 6.11837722,2.68906355 L6.11837722,11.5642865 C6.76255408,11.3432651 7.45282703,11.2202145 8.17273317,11.2202145 L9.21764858,11.2202145 L9.21764858,11.2080482 C10.3409486,11.2080482 11.251718,10.3131834 11.251718,9.21597352 L11.3168261,8.19346911 C11.3586737,7.95537212 11.5684427,7.77373111 11.8229271,7.77373111 L14.9100903,7.77373111 C15.1658492,7.77373111 15.3756183,7.95537212 15.4174659,8.19346911 L15.431061,8.19346911 L15.431061,9.21597352 C15.431061,10.7567204 14.8437077,12.1640647 13.8788762,13.2383293 C14.8695172,14.3199578 15.4757763,15.7477927 15.4757763,17.3138327 L15.4757763,18.3344162 Z M19.0166779,6.43159402 L18.2592789,7.17502015 C17.8695864,7.55836592 17.2397482,7.56242136 16.849206,7.1796092 L16.7247253,7.05730568 C16.3357764,6.67556074 16.3400248,6.05689274 16.7304608,5.67514781 L17.4367718,4.98124073 L17.4836114,4.9356704 C17.585044,4.83556507 17.7526468,4.83556507 17.8537608,4.9356704 L17.949458,5.02958584 C18.0506782,5.12926428 18.0599186,5.29521714 17.9576363,5.39585608 L17.2018305,6.13650743 C17.0734199,6.26158572 17.0734199,6.46563837 17.2018305,6.59028978 L17.3263111,6.71270003 C17.4532347,6.83745816 17.6635348,6.84033965 17.7902459,6.71536808 L18.5460518,5.97332934 C18.6484403,5.87397107 18.8155121,5.87791979 18.9177944,5.97759823 L19.0125357,6.07258089 C19.1156677,6.17215261 19.1180044,6.3324492 19.0166779,6.43159402 L19.0166779,6.43159402 Z M19.0166779,3.39236216 L18.9211932,3.48563728 C18.8196544,3.58499555 18.6489714,3.59331987 18.5477512,3.49321454 L17.7936447,2.75074892 C17.6650218,2.62609751 17.4574832,2.62609751 17.3296037,2.75074892 L17.2050168,2.872839 C17.0784119,2.9979173 17.0758628,3.20495816 17.2026802,3.33003646 L17.9585922,4.07036764 C18.0605559,4.17132675 18.0556702,4.33450483 17.9533878,4.43396982 L17.858859,4.52873905 C17.7565767,4.6279906 17.593541,4.63257965 17.4928518,4.53162054 L16.7347093,3.78979525 C16.3438485,3.40783687 16.3400248,2.78916887 16.7304608,2.40592983 L16.8549415,2.28394647 C17.2438905,1.90230825 17.8736225,1.90647042 18.2634212,2.28981619 L18.9702632,2.98350981 L19.0166779,3.02908015 C19.1180044,3.12801153 19.1180044,3.29140306 19.0166779,3.39236216 L19.0166779,3.39236216 Z M21.7034212,7.0545309 L21.5806399,7.17502015 C21.1900978,7.55836592 20.5594098,7.55431048 20.1705671,7.17075126 L19.4627691,6.47695092 L19.4164606,6.43159402 C19.3141783,6.3324492 19.3141783,6.16927111 19.4164606,6.06863217 L19.5118391,5.97461001 C19.6132718,5.8755719 19.783105,5.86682069 19.8845377,5.96745963 L20.6411932,6.70949836 C20.7680106,6.83468338 20.9765051,6.83468338 21.1034286,6.70949836 L21.2280155,6.5879419 C21.3565322,6.46115605 21.3583378,6.25571601 21.2304584,6.13063771 L20.4744401,5.38859898 C20.3725826,5.28945415 20.3773622,5.12616934 20.4795383,5.02510352 L20.5751292,4.93172168 C20.6775178,4.83225669 20.8394914,4.82809453 20.9410302,4.9274528 L21.6984292,5.67109237 C22.0891838,6.0528373 22.0933261,6.6715053 21.7034212,7.0545309 L21.7034212,7.0545309 Z M21.7059703,3.79545152 L20.9979599,4.48903843 L20.9511204,4.53450204 C20.8489442,4.63343342 20.6838905,4.63343342 20.5817144,4.53450204 L20.4851675,4.43919921 C20.3840535,4.34037455 20.3766187,4.17378135 20.4780513,4.07431636 L21.2347069,3.33259779 C21.361418,3.20751949 21.361418,3.00442734 21.2347069,2.87988266 L21.1102262,2.75672536 C20.9831964,2.632821 20.7721528,2.63025967 20.6451231,2.75523125 L19.8894234,3.49566915 C19.7872473,3.59662826 19.6199631,3.59086526 19.5185305,3.49150699 L19.4230457,3.39801843 C19.3217193,3.29705933 19.3174708,3.13772324 19.4190097,3.03889858 L20.1754528,2.29397835 C20.5653577,1.91234013 21.1958332,1.90817797 21.5856319,2.28981619 L21.7091567,2.41147938 C22.0999113,2.79503859 22.0950255,3.41370658 21.7059703,3.79545152 L21.7059703,3.79545152 Z"/>
</svg>
