<svg xmlns="http://www.w3.org/2000/svg" width="24" height="24" viewBox="0 0 24 24">
  <g fill="none" fill-rule="evenodd" transform="translate(2 2)">
    <polygon fill="#229E45" points="0 0 20 0 20 20 0 20"/>
    <polygon fill="#F8E509" points="10.211 15.836 19.188 10.008 10.156 4.164 1.145 10.023 10.207 15.836"/>
    <path fill="#2B49A3" d="M14.1210937,10 C14.1640805,11.3848603 13.4493058,12.6831846 12.2561501,13.3875036 C11.0629943,14.0918225 9.58091924,14.090297 8.38921596,13.3835232 C7.19751269,12.6767494 6.48541236,11.3769564 6.53125,9.9921875 C6.59905644,7.94373447 8.28038098,6.31881749 10.3299549,6.32092719 C12.3795287,6.32303689 14.0575045,7.95141172 14.1210937,10 L14.1210937,10 Z"/>
    <path fill="#FFFFEF" d="M9.07421875,12.2734375 L8.95703125,12.203125 L8.8359375,12.265625 L8.86328125,12.1289062 L8.76953125,12.03125 L8.90234375,12.015625 L8.96484375,11.890625 L9.0234375,12.0195313 L9.15625,12.0429688 L9.0546875,12.1367188 M11.6210938,12.9179688 L11.5039062,12.8476563 L11.3789062,12.9101563 L11.40625,12.7734375 L11.3125,12.6757813 L11.4492188,12.6601563 L11.5117188,12.5351563 L11.5664062,12.6640625 L11.6992188,12.6875 L11.6015625,12.78125 M10.5234375,11.8867188 L10.421875,11.828125 L10.3164062,11.8789063 L10.3398438,11.7617188 L10.2617188,11.6757813 L10.375,11.6640625 L10.4296875,11.5585938 L10.4765625,11.6679688 L10.59375,11.6875 L10.5078125,11.765625 M13.09375,11.515625 L12.9921875,11.4570313 L12.890625,11.5078125 L12.9140625,11.3945313 L12.8359375,11.3125 L12.9492187,11.296875 L13,11.1953125 L13.0507812,11.3007813 L13.1640625,11.3203125 L13.078125,11.3984375 M10.4765625,10.7460938 L10.359375,10.6757813 L10.2382812,10.7382813 L10.265625,10.6015625 L10.171875,10.5039063 L10.3046875,10.4882813 L10.3671875,10.3671875 L10.4257812,10.4921875 L10.5585937,10.515625 L10.4570312,10.609375 M7.34375,9.5703125 L7.2265625,9.5 L7.109375,9.5625 L7.1328125,9.42578125 L7.0390625,9.328125 L7.17578125,9.3125 L7.23828125,9.1875 L7.29296875,9.31640625 L7.42578125,9.33984375 L7.328125,9.43359375 M7.72265625,11.1328125 L7.60546875,11.0664062 L7.484375,11.125 L7.51171875,10.9921875 L7.41796875,10.890625 L7.55078125,10.875 L7.61328125,10.7578125 L7.671875,10.8789063 L7.8046875,10.90625 L7.703125,10.9960938 M11.6328125,8.9921875 L11.53125,8.93359375 L11.421875,8.984375 L11.4453125,8.8671875 L11.3671875,8.77734375 L11.484375,8.765625 L11.5390625,8.65625 L11.5898437,8.76953125 L11.7070312,8.7890625 L11.6171875,8.87109375 M11.421875,10.0117188 L11.328125,9.9609375 L11.2460938,10 L11.2617187,9.90625 L11.1992187,9.83984375 L11.2929687,9.828125 L11.3359375,9.7421875 L11.375,9.83203125 L11.46875,9.84765625 L11.3984375,9.91015625 M7.1640625,11.4140625 L7.0859375,11.3671875 L7.00390625,11.40625 L7.01953125,11.3164063 L6.95703125,11.25 L7.05078125,11.2421875 L7.08984375,11.1640625 L7.12890625,11.2421875 L7.21875,11.2617188 L7.15234375,11.3242188 M13.1132812,11.7734375 L13.046875,11.7421875 L12.9804687,11.7695313 L12.9960937,11.703125 L12.9453125,11.6523438 L13.0195312,11.6445313 L13.0546875,11.5859375 L13.0820312,11.6484375 L13.15625,11.6601563 L13.1015625,11.7070313"/>
    <polyline fill="#FFFFEF" points="7.168 11.418 7.09 11.371 7.008 11.41 7.027 11.32 6.961 11.254 7.051 11.246 7.094 11.168 7.133 11.246 7.223 11.266 7.156 11.328"/>
    <path fill="#FFFFEF" d="M7.16796875,11.4179687 L7.08984375,11.3710937 L7.0078125,11.4101562 L7.02734375,11.3203125 L6.9609375,11.2539062 L7.05078125,11.2460938 L7.09375,11.1679688 L7.1328125,11.2460938 L7.22265625,11.265625 L7.15625,11.328125 M8.4140625,11.4179688 L8.3359375,11.3710938 L8.2578125,11.4101562 L8.2734375,11.3203125 L8.2109375,11.2539062 L8.30078125,11.2460938 L8.33984375,11.1640625 L8.37890625,11.2460938 L8.46875,11.265625 L8.40234375,11.328125 M8.2578125,11.8359375 L8.1796875,11.7890625 L8.1015625,11.828125 L8.1171875,11.7382813 L8.0546875,11.671875 L8.14453125,11.6601563 L8.18359375,11.5820313 L8.22265625,11.6601563 L8.3125,11.6796875 L8.24609375,11.7421875 M10.8515625,11.078125 L10.7734375,11.03125 L10.6914063,11.0703125 L10.7070313,10.9804688 L10.6445313,10.9140625 L10.734375,10.90625 L10.7773438,10.8242188 L10.8164063,10.90625 L10.9023438,10.921875 L10.8359375,10.984375 M10.0898438,11.078125 L10.0117188,11.03125 L9.9296875,11.0703125 L9.94921875,10.9804688 L9.88671875,10.9140625 L9.9765625,10.90625 L10.015625,10.8242188 L10.0546875,10.90625 L10.1445313,10.921875 L10.078125,10.984375 M8.02734375,10.8125 L7.98046875,10.7851563 L7.9296875,10.8085938 L7.9375,10.75 L7.8984375,10.7109375 L7.95703125,10.703125 L7.984375,10.6523438 L8.00390625,10.7070313 L8.0625,10.7148438 L8.0234375,10.7539063 M13.015625,12.109375 L12.9375,12.0664062 L12.8554688,12.1054687 L12.875,12.015625 L12.8125,11.9492187 L12.9023437,11.9375 L12.9414062,11.859375 L12.9804688,11.9375 L13.0703125,11.9570312 L13.0039062,12.0195312 M12.3789062,12.1914062 L12.3164062,12.1523437 L12.25,12.1914062 L12.265625,12.1132812 L12.2109375,12.0585937 L12.2890625,12.0507812 L12.3203125,11.984375 L12.3515625,12.0507812 L12.4296875,12.0664062 L12.3710938,12.1171875 M12.6835938,12.1875 L12.6210938,12.1484375 L12.5585938,12.1835937 L12.5703125,12.1132812 L12.5234375,12.0625 L12.59375,12.0546875 L12.625,11.9921875 L12.6523438,12.0546875 L12.7226562,12.0664062 L12.671875,12.1171875 M13.5390625,11.4375 L13.4804687,11.4023438 L13.4179687,11.4335938 L13.4335937,11.3671875 L13.3867187,11.3164062 L13.453125,11.3085938 L13.484375,11.25 L13.5117187,11.3125 L13.578125,11.3242188 L13.5273437,11.3710938 M12.3828125,12.6132812 L12.3046875,12.5703125 L12.2265625,12.609375 L12.2460938,12.5234375 L12.1835938,12.4648437 L12.2695312,12.453125 L12.3125,12.3789062 L12.3515625,12.4570312 L12.4335938,12.4726562 L12.3710938,12.5273437 M12.3867187,12.953125 L12.3164062,12.9140625 L12.2460937,12.9492187 L12.2617187,12.8632812 L12.2070312,12.8046875 L12.2851562,12.7929687 L12.3242187,12.71875 L12.3554687,12.796875 L12.4335937,12.8125 L12.375,12.8671875 M11.8085938,12.1875 L11.75,12.1523437 L11.6875,12.1835938 L11.703125,12.1132812 L11.65625,12.0664062 L11.7226562,12.0585938 L11.7539062,11.9960937 L11.78125,12.0585938 L11.8476562,12.0703125 L11.796875,12.1171875 M11.2695312,12.1875 L11.2109375,12.1523438 L11.1484375,12.1835938 L11.1640625,12.1132812 L11.1171875,12.0664062 L11.1835937,12.0585938 L11.2148437,11.9960938 L11.2421875,12.0585938 L11.3085937,12.0703125 L11.2617187,12.1171875 M10.3515625,11.3828125 L10.2929688,11.3476562 L10.2304688,11.3789062 L10.2460937,11.3125 L10.1992187,11.2617187 L10.265625,11.2539062 L10.296875,11.1953125 L10.3242187,11.2578125 L10.390625,11.2695312 L10.3398437,11.3125 M10.453125,13.0117188 L10.4023437,12.984375 L10.3515625,13.0117188 L10.3632812,12.953125 L10.3242187,12.9140625 L10.3789062,12.9023438 L10.40625,12.8515625 L10.4296875,12.90625 L10.4882812,12.9140625 L10.4453125,12.953125 M9.0703125,10.375 L8.953125,10.3085938 L8.83203125,10.3671875 L8.859375,10.234375 L8.765625,10.1328125 L8.8984375,10.1171875 L8.9609375,9.99609375 L9.01953125,10.1210938 L9.15234375,10.1445313 L9.05078125,10.2382813"/>
    <path fill="#FFF" d="M13.8710938,11.3671875 C13.9445905,11.1756616 14.0020791,10.9783711 14.0429688,10.7773438 C12.0273438,9.00390625 9.77734375,8.09375 6.93359375,8.28125 C6.8317164,8.48032556 6.74804261,8.68820263 6.68359375,8.90234375 C9.32361204,8.63572468 11.9485312,9.53447416 13.8710938,11.3632812 L13.8710938,11.3671875 Z"/>
    <path fill="#309E3A" fill-rule="nonzero" d="M12.9648438,10.3671875 L13.0351562,10.40625 C13.0242095,10.4279938 13.021437,10.4529461 13.0273437,10.4765625 C13.03125,10.4921875 13.046875,10.5117187 13.0664062,10.5234375 C13.0898437,10.5390625 13.109375,10.546875 13.1289062,10.546875 C13.1445312,10.546875 13.1601562,10.5351562 13.1679687,10.5234375 C13.171875,10.515625 13.1757812,10.5078125 13.171875,10.4960938 L13.1601562,10.4648438 L13.1132812,10.4140625 C13.0883707,10.3887301 13.0696542,10.3579816 13.0585938,10.3242187 C13.044473,10.2716865 13.0711037,10.2167608 13.1210938,10.1953125 C13.1419389,10.1860861 13.1650827,10.1833633 13.1875,10.1875 C13.215708,10.1936435 13.2423193,10.2056186 13.265625,10.2226562 C13.2994882,10.2464593 13.3264436,10.2788058 13.34375,10.3164062 C13.3533387,10.3514575 13.346124,10.388974 13.3242187,10.4179688 L13.2539062,10.375 C13.2617187,10.3554687 13.265625,10.3359375 13.2617187,10.3203125 C13.2578125,10.3085938 13.2421875,10.2929688 13.2226562,10.28125 C13.203125,10.265625 13.1835937,10.2617188 13.1679687,10.2617188 C13.1588167,10.2620027 13.1502496,10.2662862 13.1445312,10.2734375 C13.1390531,10.2814507 13.1376097,10.2915547 13.140625,10.3007812 C13.140625,10.3164062 13.1601562,10.3398438 13.1875,10.3671875 L13.2460937,10.4453125 C13.2678409,10.4849931 13.2647999,10.5336485 13.2382812,10.5703125 C13.2246458,10.5896748 13.2056323,10.6046139 13.1835937,10.6132812 C13.1603666,10.6239038 13.1343049,10.6266471 13.109375,10.6210938 C13.079745,10.6135483 13.0518778,10.6002782 13.0273437,10.5820312 C12.9904488,10.559884 12.9627269,10.5252317 12.9492187,10.484375 C12.9375,10.4492188 12.9414062,10.4101562 12.9648437,10.3671875 L12.9648438,10.3671875 Z M12.6210937,10.1445312 L12.6992187,10.1835938 C12.690057,10.2030727 12.6873212,10.2249589 12.6914062,10.2460938 C12.6953125,10.265625 12.7109375,10.2851563 12.7304687,10.296875 C12.7539062,10.3125 12.7734375,10.3164063 12.7929687,10.3125 C12.8085937,10.3125 12.8242187,10.3046875 12.8320312,10.2890625 C12.8357355,10.2818452 12.8371007,10.2736536 12.8359375,10.265625 C12.8359375,10.2539062 12.8320312,10.2460938 12.8203125,10.234375 L12.7734375,10.1835937 C12.7477163,10.159698 12.727692,10.1303291 12.7148438,10.0976562 C12.7043554,10.0662437 12.7086646,10.0317706 12.7265625,10.0039062 C12.7381656,9.98670241 12.7544233,9.9731543 12.7734375,9.96484375 C12.7943445,9.95584589 12.8174193,9.9531312 12.8398438,9.95703125 C12.8632813,9.95703125 12.8867188,9.96875 12.9179688,9.98828125 C12.9570313,10.015625 12.9882813,10.0429688 12.9960938,10.078125 C13.0079394,10.1119882 13.0036213,10.1494118 12.984375,10.1796875 L12.9101563,10.1367188 C12.921875,10.1171875 12.921875,10.0976562 12.9179688,10.0859375 C12.9101563,10.0703125 12.8984375,10.0585938 12.8789063,10.046875 C12.8621418,10.0339331 12.8414892,10.0270489 12.8203125,10.0273438 C12.8104625,10.0285361 12.801764,10.034335 12.796875,10.0429688 C12.7926758,10.0515997 12.7926758,10.0616816 12.796875,10.0703125 C12.796875,10.0820312 12.8164062,10.1054687 12.84375,10.1367187 C12.875,10.1640625 12.8945312,10.1914062 12.90625,10.2070312 C12.9308347,10.2469172 12.9292984,10.2976134 12.9023437,10.3359375 C12.8751769,10.3773043 12.8261625,10.3987481 12.7773437,10.390625 C12.7466698,10.3846548 12.7174696,10.3727093 12.6914062,10.3554688 C12.6539723,10.3347339 12.6249573,10.3015739 12.609375,10.2617188 C12.5982558,10.2225856 12.6024456,10.1806876 12.6210937,10.1445312 Z M12.1992187,10.0273438 L12.4179688,9.67578125 L12.6796875,9.83203125 L12.640625,9.89453125 L12.453125,9.77734375 L12.4023437,9.85546875 L12.5820312,9.96484375 L12.5429687,10.0273438 L12.3671875,9.91796875 L12.3085937,10.015625 L12.5039062,10.1328125 L12.46875,10.1953125 L12.1992188,10.03125 L12.1992187,10.0273438 Z M11.5820312,9.5234375 L11.6171875,9.4609375 L11.7734375,9.546875 L11.6992187,9.69140625 C11.6358861,9.70545131 11.5696454,9.69717122 11.5117188,9.66796875 C11.4767714,9.64983642 11.4471523,9.62291003 11.4257812,9.58984375 C11.4051364,9.56002415 11.3942209,9.52454861 11.3945312,9.48828125 C11.3945312,9.44921875 11.40625,9.4140625 11.4257812,9.37890625 C11.4438009,9.34282996 11.4706816,9.31191707 11.5039062,9.2890625 C11.53125,9.265625 11.5703125,9.25390625 11.609375,9.25390625 C11.6367188,9.25390625 11.671875,9.265625 11.7070312,9.28125 C11.7455404,9.29934496 11.7770872,9.3295202 11.796875,9.3671875 C11.8125,9.3984375 11.8164062,9.43359375 11.8085938,9.47265625 L11.7265625,9.44921875 C11.7309689,9.42937816 11.7282009,9.40861795 11.71875,9.390625 C11.7083564,9.3714736 11.6918562,9.35634846 11.671875,9.34765625 C11.6438231,9.33028284 11.6095903,9.32600374 11.578125,9.3359375 C11.5507813,9.34765625 11.5234375,9.375 11.5,9.4140625 C11.4809591,9.44997523 11.4741045,9.49110308 11.4804688,9.53125 C11.4882812,9.5625 11.5078125,9.5859375 11.5429688,9.6015625 L11.59375,9.6171875 L11.6445313,9.6171875 L11.6679688,9.5703125 L11.5820313,9.5234375 L11.5820312,9.5234375 Z M8.89453125,8.859375 L8.95703125,8.4453125 L9.08203125,8.46484375 L9.11328125,8.7578125 L9.23046875,8.484375 L9.3515625,8.50390625 L9.29296875,8.91796875 L9.21484375,8.90625 L9.26171875,8.58203125 L9.1328125,8.89453125 L9.0546875,8.8828125 L9.01953125,8.54296875 L8.97265625,8.87109375 L8.89453125,8.859375 L8.89453125,8.859375 Z M8.4765625,8.80859375 L8.515625,8.39453125 L8.8203125,8.421875 L8.81640625,8.4921875 L8.58984375,8.47265625 L8.58203125,8.5625 L8.7890625,8.58203125 L8.78515625,8.65234375 L8.578125,8.6328125 L8.56640625,8.75 L8.796875,8.76953125 L8.7890625,8.83984375 L8.4765625,8.80859375 L8.4765625,8.80859375 Z"/>
    <g fill-rule="nonzero" transform="translate(7.07 8.32)">
      <path fill="#309E3A" d="M0.0363636364,0.483333333 C0.0363636364,0.4 0.0545454545,0.316666667 0.0818181818,0.258333333 L0.172727273,0.141666667 L0.309090909,0.0583333333 C0.376240616,0.0371797648 0.447359474,0.0286764232 0.518181818,0.0333333333 C0.645746351,0.0325420619 0.767802507,0.0809246825 0.854545455,0.166666667 C0.945454545,0.25 0.972727273,0.358333333 0.972727273,0.5 C0.972727273,0.65 0.918181818,0.758333333 0.836363636,0.833333333 C0.74431472,0.91514161 0.61885674,0.957511191 0.490909091,0.95 C0.364716998,0.952955056 0.242867569,0.907673173 0.154545455,0.825 C0.0636068256,0.735219095 0.0203813526,0.613301094 0.0363636364,0.491666667 L0.0363636364,0.483333333 Z"/>
      <path fill="#F7FFFF" d="M0.236363636,0.483333333 C0.236363636,0.583333333 0.254545455,0.666666667 0.309090909,0.716666667 C0.354545455,0.775 0.418181818,0.8 0.490909091,0.8 C0.565997392,0.801308943 0.638351353,0.774176208 0.690909091,0.725 C0.736363636,0.675 0.763636364,0.6 0.772727273,0.5 C0.772727273,0.391666667 0.754545455,0.316666667 0.7,0.266666667 C0.655379552,0.216108357 0.589077703,0.18572001 0.518181818,0.183333333 C0.427272727,0.183333333 0.363636364,0.208333333 0.318181818,0.258333333 C0.263636364,0.308333333 0.236363636,0.383333333 0.227272727,0.483333333 L0.236363636,0.483333333 Z"/>
    </g>
    <g fill-rule="nonzero" transform="translate(7.578 8.32)">
      <path fill="#309E3A" d="M0,0.95 L0.01,0.0583333333 L0.46,0.0583333333 C0.58,0.0583333333 0.66,0.075 0.71,0.0916666667 C0.76,0.108333333 0.81,0.133333333 0.83,0.175 C0.85,0.216666667 0.88,0.258333333 0.88,0.316666667 C0.88,0.383333333 0.85,0.433333333 0.81,0.483333333 C0.76,0.525 0.69,0.55 0.59,0.566666667 C0.64,0.583333333 0.68,0.608333333 0.71,0.633333333 L0.83,0.783333333 L0.96,0.95 L0.7,0.95 L0.55,0.758333333 C0.513375734,0.711847005 0.473297456,0.667315585 0.43,0.625 C0.413304336,0.610228933 0.392783206,0.598828305 0.37,0.591666667 C0.33782189,0.582072362 0.304131011,0.576457215 0.27,0.575 L0.22,0.575 L0.22,0.95 L0,0.95 L0,0.95 Z"/>
      <path fill="#FFF" d="M0.22,0.433333333 L0.38,0.433333333 C0.446410686,0.440218379 0.513589314,0.440218379 0.58,0.433333333 L0.63,0.391666667 C0.65,0.375 0.66,0.35 0.66,0.325 C0.66,0.291666667 0.65,0.266666667 0.63,0.25 C0.608903927,0.231353327 0.58055845,0.219542712 0.55,0.216666667 L0.23,0.216666667 L0.23,0.433333333 L0.22,0.433333333 Z"/>
    </g>
    <g fill-rule="nonzero" transform="translate(8.008 8.36)">
      <path fill="#309E3A" d="M0.12,0.0166666667 L0.51,0.0333333333 C0.577705434,0.0342047294 0.644967468,0.0426124836 0.71,0.0583333333 C0.766958015,0.0762374302 0.818260841,0.104739 0.86,0.141666667 C0.906698731,0.187787232 0.940818635,0.241810414 0.96,0.3 C0.98,0.358333333 0.98,0.425 0.98,0.508333333 C0.986043403,0.637463077 0.923919113,0.762320719 0.81,0.85 C0.77,0.875 0.72,0.9 0.66,0.916666667 L0.46,0.916666667 L0.06,0.908333333 L0.12,0.0166666667 Z"/>
      <path fill="#FFF" d="M0.32,0.175 L0.29,0.758333333 L0.45,0.775 L0.58,0.775 L0.67,0.733333333 C0.7,0.716666667 0.71,0.691666667 0.73,0.65 L0.76,0.483333333 L0.75,0.333333333 C0.73,0.291666667 0.72,0.266666667 0.69,0.25 C0.663367228,0.225425037 0.628553618,0.208018232 0.59,0.2 C0.534041916,0.190237159 0.477149153,0.184659437 0.42,0.183333333 L0.32,0.183333333 L0.32,0.175 Z"/>
    </g>
    <g fill-rule="nonzero" transform="translate(10.078 8.672)">
      <path fill="#309E3A" d="M0.0454545455,0.941666667 L0.272727273,0.075 L0.572727273,0.141666667 C0.690909091,0.166666667 0.763636364,0.191666667 0.8,0.208333333 C0.845454545,0.233333333 0.890909091,0.266666667 0.909090909,0.316666667 C0.936363636,0.375 0.936363636,0.433333333 0.918181818,0.5 C0.901797418,0.587462446 0.836060037,0.660407874 0.745454545,0.691666667 C0.71417112,0.705783215 0.680224816,0.714269791 0.645454545,0.716666667 C0.577801397,0.711285875 0.510844116,0.700126328 0.445454545,0.683333333 L0.318181818,0.658333333 L0.227272727,0.983333333 L0.0454545455,0.941666667 L0.0454545455,0.941666667 Z"/>
      <path fill="#FFF" d="M0.418181818,0.266666667 L0.354545455,0.516666667 L0.463636364,0.533333333 C0.536363636,0.55 0.590909091,0.558333333 0.618181818,0.55 C0.669642281,0.545128063 0.71276526,0.512186898 0.727272727,0.466666667 L0.718181818,0.375 C0.702520498,0.348069313 0.676652422,0.327320961 0.645454545,0.316666667 L0.509090909,0.283333333 L0.418181818,0.266666667 L0.418181818,0.266666667 Z"/>
    </g>
    <g fill-rule="nonzero" transform="translate(10.469 8.828)">
      <path fill="#309E3A" d="M0.0333333333,0.735714286 L0.325,0.0142857143 L0.683333333,0.121428571 C0.748311594,0.137143575 0.810127819,0.161227818 0.866666667,0.192857143 C0.9,0.221428571 0.925,0.257142857 0.941666667,0.3 C0.958333333,0.342857143 0.941666667,0.378571429 0.925,0.421428571 C0.908333333,0.478571429 0.866666667,0.514285714 0.816666667,0.535714286 C0.758713515,0.564594338 0.689656742,0.572314971 0.625,0.557142857 L0.691666667,0.642857143 L0.741666667,0.785714286 L0.783333333,0.957142857 L0.583333333,0.9 L0.525,0.707142857 C0.51198351,0.660975594 0.495277412,0.615630472 0.475,0.571428571 C0.467838361,0.555154853 0.456437733,0.540496903 0.441666667,0.528571429 C0.416378409,0.512806723 0.388220013,0.500738839 0.358333333,0.492857143 L0.325,0.485714286 L0.2,0.785714286 L0.0333333333,0.735714286 L0.0333333333,0.735714286 Z"/>
      <path fill="#FFF" d="M0.366666667,0.371428571 L0.491666667,0.407142857 L0.65,0.442857143 C0.675,0.442857143 0.691666667,0.442857143 0.708333333,0.428571429 L0.75,0.378571429 L0.75,0.307142857 C0.739394839,0.288465775 0.721789929,0.273375853 0.7,0.264285714 L0.575,0.228571429 L0.441666667,0.185714286 L0.366666667,0.371428571 L0.366666667,0.371428571 Z"/>
    </g>
    <g fill-rule="nonzero" transform="translate(10.938 9.023)">
      <path fill="#309E3A" d="M0.075,0.408333333 C0.0961689156,0.332086637 0.133072216,0.261118751 0.183333333,0.2 C0.208333333,0.158333333 0.25,0.133333333 0.291666667,0.108333333 C0.332859755,0.0856260989 0.378207256,0.0714550048 0.425,0.0666666667 C0.483333333,0.0666666667 0.55,0.0666666667 0.616666667,0.0916666667 C0.731023225,0.120263738 0.827915758,0.19596103 0.883333333,0.3 C0.933333333,0.4 0.941666667,0.525 0.891666667,0.658333333 C0.863815927,0.779411598 0.788834154,0.884386079 0.683333333,0.95 C0.579397698,1.0017566 0.458580006,1.00779748 0.35,0.966666667 C0.235643441,0.938069595 0.138750909,0.862372304 0.0833333333,0.758333333 C0.0343514616,0.647365676 0.0313548121,0.521506397 0.075,0.408333333 L0.075,0.408333333 Z"/>
      <path fill="#FFF" d="M0.25,0.458333333 C0.225,0.55 0.225,0.625 0.25,0.691666667 C0.283333333,0.758333333 0.333333333,0.8 0.4,0.825 C0.466666667,0.841666667 0.525,0.833333333 0.583333333,0.8 C0.641666667,0.766666667 0.691666667,0.7 0.725,0.6 C0.75,0.5 0.75,0.425 0.725,0.358333333 C0.696626223,0.296012048 0.641416207,0.250003702 0.575,0.233333333 C0.510604073,0.212401662 0.440205659,0.221584064 0.383333333,0.258333333 C0.325,0.291666667 0.283333333,0.358333333 0.25,0.458333333 L0.25,0.458333333 Z"/>
    </g>
    <g fill-rule="nonzero" transform="translate(11.758 9.414)">
      <path fill="#309E3A" d="M0.0538461538,0.653333333 L0.430769231,0.02 L0.738461538,0.153333333 C0.815384615,0.193333333 0.869230769,0.22 0.892307692,0.246666667 C0.923076923,0.28 0.938461538,0.313333333 0.946153846,0.346666667 C0.953846154,0.38 0.946153846,0.426666667 0.915384615,0.46 C0.892307692,0.506666667 0.853846154,0.54 0.8,0.56 C0.746153846,0.573333333 0.692307692,0.573333333 0.623076923,0.553333333 C0.646153846,0.58 0.661538462,0.613333333 0.669230769,0.64 L0.692307692,0.78 L0.707692308,0.946666667 L0.530769231,0.866666667 L0.507692308,0.68 L0.484615385,0.546666667 C0.478004641,0.531477863 0.467480984,0.517797109 0.453846154,0.506666667 C0.433300305,0.490304745 0.409944532,0.476810299 0.384615385,0.466666667 L0.353846154,0.453333333 L0.2,0.72 L0.0538461538,0.653333333 L0.0538461538,0.653333333 Z"/>
      <path fill="#FFF" d="M0.415384615,0.353333333 L0.523076923,0.4 L0.661538462,0.453333333 C0.684615385,0.453333333 0.7,0.453333333 0.715384615,0.44 C0.757816055,0.420930554 0.782288794,0.381162354 0.776923077,0.34 C0.768633412,0.320080081 0.752215516,0.303479763 0.730769231,0.293333333 C0.698192669,0.274511155 0.664837307,0.256721628 0.630769231,0.24 L0.515384615,0.193333333 L0.415384615,0.353333333 L0.415384615,0.353333333 Z"/>
    </g>
    <g fill-rule="nonzero" transform="translate(13.281 10.43)">
      <path fill="#309E3A" d="M0.109090909,0.275 C0.163636364,0.191666667 0.218181818,0.141666667 0.290909091,0.108333333 C0.335285271,0.0812174648 0.384521009,0.0614718824 0.436363636,0.05 C0.48440055,0.0414561806 0.533781269,0.0414561806 0.581818182,0.05 C0.645454545,0.0583333333 0.718181818,0.0833333333 0.781818182,0.133333333 C0.890439898,0.194125742 0.966283586,0.293876679 0.990909091,0.408333333 C1.00410855,0.529587334 0.968547879,0.6510863 0.890909091,0.75 C0.821134278,0.858658356 0.706363569,0.936811743 0.572727273,0.966666667 C0.448308506,0.988008968 0.319816463,0.960827959 0.218181818,0.891666667 C0.109560102,0.830874258 0.0337164143,0.731123321 0.00909090909,0.616666667 C-0.0113740075,0.496227672 0.0213401525,0.373276954 0.1,0.275 L0.109090909,0.275 Z"/>
      <path fill="#FFF" d="M0.272727273,0.366666667 C0.218181818,0.45 0.190909091,0.533333333 0.2,0.6 C0.21257029,0.668141065 0.255350832,0.7284726 0.318181818,0.766666667 C0.376460714,0.803750062 0.449392748,0.815905401 0.518181818,0.8 C0.590909091,0.783333333 0.663636364,0.733333333 0.727272727,0.641666667 C0.790909091,0.558333333 0.818181818,0.483333333 0.8,0.416666667 C0.8,0.35 0.754545455,0.3 0.690909091,0.25 C0.627272727,0.2 0.554545455,0.2 0.481818182,0.216666667 C0.409090909,0.233333333 0.345454545,0.283333333 0.281818182,0.366666667 L0.272727273,0.366666667 Z"/>
    </g>
    <polygon fill="#309E3A" fill-rule="nonzero" points="9.625 8.945 9.691 8.648 9.91 8.699 9.898 8.75 9.742 8.711 9.727 8.777 9.871 8.813 9.859 8.863 9.715 8.824 9.695 8.906 9.859 8.945 9.848 8.996 9.625 8.945"/>
  </g>
</svg>
