<svg xmlns="http://www.w3.org/2000/svg" width="24" height="24" viewBox="0 0 24 24">
  <path d="M10.9939626,19.0741711 L17.3461157,15.2286213 L18.9879251,16.1596859 L10.9939626,21 L3,16.1596859 L4.64180935,15.2286213 L10.9939626,19.0741711 Z M16.7501533,5.36038395 L16.7501533,7.2486911 L18.6984576,7.2486911 L18.6984576,8.19197206 L16.7501533,8.19197206 L16.7501533,10.0811518 L15.7768973,10.0811518 L15.7768973,8.19197206 L13.8276968,8.19197206 L13.8276968,7.2486911 L15.7768973,7.2486911 L15.7768973,5.36038395 L16.7501533,5.36038395 Z M16.2635253,3 C18.9529739,3 21.1351823,5.11343805 21.1351823,7.72076789 C21.1351823,10.3280977 18.9538701,12.4415358 16.2635253,12.4415358 C13.5740767,12.4415358 11.3927645,10.3280977 11.3927645,7.72076789 C11.3927645,5.11343805 13.5740767,3 16.2635253,3 Z M16.2635253,11.4965096 L16.2635253,11.495637 C18.4125749,11.495637 20.1610301,9.80191974 20.1610301,7.71989529 C20.1610301,5.63787086 18.4125749,3.94240838 16.2635253,3.94240838 C14.1144757,3.94240838 12.3669167,5.63874346 12.3669167,7.72076789 C12.3669167,9.80279233 14.1153719,11.4965096 16.2635253,11.4965096 Z M10.0529692,7.72076789 C10.0529692,10.1719023 11.5737937,12.2809773 13.7470402,13.2181501 L10.9939626,14.8848168 L3,10.0462478 L10.3567757,5.86910995 C10.1605113,6.45375218 10.0529692,7.07504363 10.0529692,7.72076789 Z M16.2635253,13.7390925 L16.2635253,13.7399651 C17.1599518,13.7388546 18.0454506,13.548314 18.8588746,13.1815009 L10.9939626,17.9424084 L3,13.1047121 L4.64180935,12.1710297 L10.9939626,16.017452 L14.9748125,13.6073298 C15.390642,13.6928447 15.8217065,13.7390925 16.2635253,13.7390925 Z"/>
</svg>
