<svg xmlns="http://www.w3.org/2000/svg" width="24" height="24" viewBox="0 0 24 24">
  <path d="M17.9,17.39 C17.64,16.59 16.89,16 16,16 L15,16 L15,13 C15,12.4477153 14.5522847,12 14,12 L8,12 L8,10 L10,10 C10.5522847,10 11,9.55228475 11,9 L11,7 L13,7 C14.1045695,7 15,6.1045695 15,5 L15,4.59 C17.93,5.77 20,8.64 20,12 C20,14.08 19.2,15.97 17.9,17.39 L17.9,17.39 Z M11,19.93 C7.05,19.44 4,16.08 4,12 C4,11.38 4.08,10.78 4.21,10.21 L9,15 L9,16 C9,17.1045695 9.8954305,18 11,18 L11,19.93 Z M12,2 C6.4771525,2 2,6.4771525 2,12 C2,14.6521649 3.0535684,17.195704 4.92893219,19.0710678 C6.80429597,20.9464316 9.3478351,22 12,22 C14.6521649,22 17.195704,20.9464316 19.0710678,19.0710678 C20.9464316,17.195704 22,14.6521649 22,12 C22,9.3478351 20.9464316,6.80429597 19.0710678,4.92893219 C17.195704,3.0535684 14.6521649,2 12,2 Z"/>
</svg>
