<svg xmlns="http://www.w3.org/2000/svg" xmlns:xlink="http://www.w3.org/1999/xlink" width="24" height="24" viewBox="0 0 24 24">
  <defs>
    <rect id="iconslanguagesgb-a" width="20" height="20" x="2" y="2"/>
    <polygon id="iconslanguagesgb-c" points=".5 0 41.46 0 41.46 20.48 .5 20.48"/>
  </defs>
  <g fill="none" fill-rule="evenodd">
    <mask id="iconslanguagesgb-b" fill="#fff">
      <use xlink:href="#iconslanguagesgb-a"/>
    </mask>
    <use fill="#D8D8D8" xlink:href="#iconslanguagesgb-a"/>
    <g mask="url(#iconslanguagesgb-b)">
      <g transform="translate(-9 2)">
        <use fill="#012169" fill-rule="nonzero" xlink:href="#iconslanguagesgb-c"/>
        <path fill="#FFF" fill-rule="nonzero" d="M0.5,0 L0.5,2.289664 L36.880672,20.48 L41.46,20.48 L41.46,18.190336 L5.079328,0.004096 L0.5,0.004096 L0.5,0 Z M41.46,0 L41.46,2.289664 L5.079328,20.48 L0.5,20.48 L0.5,18.190336 L36.880672,0 L41.46,0 Z"/>
        <path fill="#FFF" fill-rule="nonzero" d="M17.568032,0 L17.568032,20.48 L24.391968,20.48 L24.391968,0 L17.568032,0 Z M0.5,6.828032 L0.5,13.651968 L41.46,13.651968 L41.46,6.828032 L0.5,6.828032 Z"/>
        <path fill="#C8102E" fill-rule="nonzero" d="M0.5,8.192 L0.5,12.288 L41.46,12.288 L41.46,8.192 L0.5,8.192 Z M18.932,0 L18.932,20.48 L23.028,20.48 L23.028,0 L18.932,0 Z M0.5,20.48 L14.151968,13.651968 L17.21168,13.651968 L3.55152,20.48 L0.5,20.48 Z M0.5,0 L14.151968,6.828032 L11.100448,6.828032 L0.5,1.527808 L0.5,0 Z M24.752416,6.828032 L38.40848,0 L41.46,0 L27.808032,6.828032 L24.74832,6.828032 L24.752416,6.828032 Z M41.464096,20.48 L27.803936,13.651968 L30.855456,13.651968 L41.46,18.952192 L41.46,20.48 L41.464096,20.48 Z"/>
      </g>
    </g>
  </g>
</svg>
