<svg xmlns="http://www.w3.org/2000/svg" width="24" height="24" viewBox="0 0 24 24">
  <path fill="#131516" d="M6.50157368,9.38590389 L6.50157368,7.31981693 L6.8981402,7.31981693 L7.73533619,9.38590389 L6.50157368,9.38590389 Z M10.5490701,9.55505721 L10.1084406,8.41327231 L21.8103004,8.41327231 L21.8103004,8.5401373 L18.8643777,9.55505721 C18.8643777,9.55505721 10.5490701,9.55505721 10.5490701,9.55505721 Z M2.10786838,10.3102059 L2.10786838,8.91469108 C2.10786838,8.87240275 2.10786838,8.83011442 2.10786838,8.78782609 L2.10786838,8.74553776 L4.78941345,8.74553776 L4.78941345,8.78782609 C4.78941345,8.83011442 4.78941345,8.87240275 4.78941345,8.91469108 L4.78941345,9.33757437 L2.98283262,9.33757437 L2.80658083,10.3102059 L2.10786838,10.3102059 Z M10.9896996,10.6062243 L15.6981402,10.6062243 L11.5625179,12.0440275 L10.9896996,10.6062243 Z M23,9.34361556 L23,7.2775286 L17.8949928,7.2775286 L17.8949928,7.2775286 L9.85035765,7.2775286 L8.96909871,5 L8.22002861,5 L8.22002861,5 L2.06380544,5 L2.06380544,6.01491991 L7.91158798,6.01491991 L10.8575107,13.5301602 L23,9.34361556 Z M1.00629471,16.3936842 L1.9316166,16.3936842 L1.9316166,14.0738673 C2.6806867,12.6360641 4.21659514,11.6271854 6.02317597,11.6271854 C7.0806867,11.6271854 8.04377682,11.965492 8.83690987,12.5575286 L8.83690987,10.3645767 L7.42689557,6.77610984 L3.42346209,6.77610984 L3.33533619,7.28356979 L5.84062947,7.28356979 L5.84062947,9.39194508 L5.22374821,9.39194508 L5.22374821,8.92677346 C5.22374821,8.71533181 5.17968526,8.54617849 5.04749642,8.4193135 C5.00343348,8.33473684 4.91530758,8.29244851 4.78311874,8.29244851 L2.01344778,8.29244851 C1.88125894,8.29244851 1.79313305,8.37702517 1.7490701,8.4193135 C1.61688126,8.54617849 1.57281831,8.75762014 1.57281831,8.92677346 L1.57281831,10.3222883 L1,10.3222883 L1,16.3574371 L1,16.3936842 L1.00629471,16.3936842 Z M17.3725322,17.4448513 C16.4912732,17.4448513 15.7422031,16.7259497 15.7422031,15.8801831 C15.7422031,15.0344165 16.4912732,14.3155149 17.3725322,14.3155149 C18.2537911,14.3155149 19.0028612,15.0344165 19.0028612,15.8801831 C18.9965665,16.7319908 18.2915594,17.4448513 17.3725322,17.4448513 Z M6.06723891,17.4448513 C5.18597997,17.4448513 4.43690987,16.7259497 4.43690987,15.8801831 C4.43690987,15.0344165 5.18597997,14.3155149 6.06723891,14.3155149 C6.94849785,14.3155149 7.69756795,15.0344165 7.69756795,15.8801831 C7.69127325,16.7319908 6.94220315,17.4448513 6.06723891,17.4448513 Z M12.3997139,17.6562929 L12.3997139,16.8105263 L13.3250358,16.8105263 C13.2809728,16.5567963 13.2369099,16.2184897 13.2369099,15.9224714 C13.2369099,15.1189931 13.4572246,14.4000915 13.8537911,13.8140961 L13.3250358,13.3066362 L10.1147353,14.4061327 L10.1147224,17.6562929 C10.1084406,17.6562929 12.3997139,17.6562929 12.3997139,17.6562929 Z M17.3725322,19.3478261 C19.3490701,19.3478261 20.9793991,17.7831579 20.9793991,15.8862243 C20.9793991,13.9892906 19.3490701,12.4246224 17.3725322,12.4246224 C15.3959943,12.4246224 13.7656652,13.9892906 13.7656652,15.8862243 C13.7656652,17.7831579 15.3896996,19.3478261 17.3725322,19.3478261 Z M6.02317597,19.3478261 C7.99971388,19.3478261 9.63004292,17.7831579 9.63004292,15.8862243 C9.63004292,13.9892906 7.99971388,12.4246224 6.02317597,12.4246224 C4.04663805,12.4246224 2.41630901,13.9832494 2.41630901,15.8862243 C2.41630901,17.7891991 4.04034335,19.3478261 6.02317597,19.3478261 Z" transform="matrix(-1 0 0 1 24 0)"/>
</svg>
