<?xml version="1.0" encoding="UTF-8"?>
<svg width="24px" height="24px" viewBox="0 0 24 24" version="1.1" xmlns="http://www.w3.org/2000/svg" xmlns:xlink="http://www.w3.org/1999/xlink">
    <!-- Generator: Sketch 53.2 (72643) - https://sketchapp.com -->
    <title>IconsMiscActionAddSolution</title>
    <desc>Created with Sketch.</desc>
    <defs>
        <path d="M7.99396256,16.0741711 L14.3461157,12.2286213 L15.9879251,13.1596859 L7.99396256,18 L1.95399252e-14,13.1596859 L1.64180935,12.2286213 L7.99396256,16.0741711 Z M13.7501533,2.36038395 L13.7501533,4.2486911 L15.6984576,4.2486911 L15.6984576,5.19197206 L13.7501533,5.19197206 L13.7501533,7.08115184 L12.7768973,7.08115184 L12.7768973,5.19197206 L10.8276968,5.19197206 L10.8276968,4.2486911 L12.7768973,4.2486911 L12.7768973,2.36038395 L13.7501533,2.36038395 Z M13.2635253,1.77635684e-15 C15.9529739,1.77635684e-15 18.1351823,2.11343805 18.1351823,4.72076789 C18.1351823,7.32809772 15.9538701,9.44153578 13.2635253,9.44153578 C10.5740767,9.44153578 8.39276451,7.32809772 8.39276451,4.72076789 C8.39276451,2.11343805 10.5740767,1.77635684e-15 13.2635253,1.77635684e-15 Z M13.2635253,8.4965096 L13.2635253,8.49563701 C15.4125749,8.49563701 17.1610301,6.80191974 17.1610301,4.71989529 C17.1610301,2.63787086 15.4125749,0.94240838 13.2635253,0.94240838 C11.1144757,0.94240838 9.36691668,2.63874346 9.36691668,4.72076789 C9.36691668,6.80279233 11.1153719,8.4965096 13.2635253,8.4965096 Z M7.05296921,4.72076789 C7.05296921,7.17190229 8.5737937,9.28097731 10.7470402,10.2181501 L7.99396256,11.8848168 L1.95399252e-14,7.0462478 L7.35677565,2.86910995 C7.16051128,3.45375218 7.05296921,4.07504363 7.05296921,4.72076789 Z M13.2635253,10.7390925 L13.2635253,10.7399651 C14.1599518,10.7388546 15.0454506,10.548314 15.8588746,10.1815009 L7.99396256,14.9424084 L-3.64153152e-14,10.1047121 L1.64180935,9.17102967 L7.99396256,13.017452 L11.9748125,10.6073298 C12.390642,10.6928447 12.8217065,10.7390925 13.2635253,10.7390925 Z" id="path-1"></path>
    </defs>
    <g id="ZDS-icons" stroke="none" stroke-width="1" fill="none" fill-rule="evenodd">
        <g id="IconsMiscActionAddSolution">
            <g id="ic_add_solutions">
                <g id="Icon-24px">
                    <polygon id="Shape" points="0 0 24 0 24 24 0 24"></polygon>
                    <g id="grayscale-/-black" transform="translate(3.000000, 3.000000)">
                        <mask id="mask-2" fill="white">
                            <use xlink:href="#path-1"></use>
                        </mask>
                        <use id="Mask" fill="#000000" fill-rule="nonzero" xlink:href="#path-1"></use>
                        <g mask="url(#mask-2)" fill="#000000" id="color-/-grayscale-/-black">
                            <g transform="translate(-3.000000, -3.000000)">
                                <rect x="0" y="0" width="24" height="24"></rect>
                            </g>
                        </g>
                    </g>
                </g>
            </g>
        </g>
    </g>
</svg>