<?xml version="1.0" encoding="UTF-8"?>
<svg width="24px" height="24px" viewBox="0 0 24 24" version="1.1" xmlns="http://www.w3.org/2000/svg" xmlns:xlink="http://www.w3.org/1999/xlink">
    <title>Icon/Essential/Question Circle</title>
    <g id="Icon/Essential/Question-Circle" stroke="none" stroke-width="1" fill="none" fill-rule="evenodd" fill-opacity="0.84">
        <path d="M12,2 C17.5228475,2 22,6.4771525 22,12 C22,17.5228475 17.5228475,22 12,22 C6.4771525,22 2,17.5228475 2,12 C2,6.4771525 6.4771525,2 12,2 Z M12,3.25 C7.16750844,3.25 3.25,7.16750844 3.25,12 C3.25,16.8324916 7.16750844,20.75 12,20.75 C16.8324916,20.75 20.75,16.8324916 20.75,12 C20.75,7.16750844 16.8324916,3.25 12,3.25 Z M12,15.75 L12.1093323,15.7563072 C12.5755873,15.810462 12.9375,16.2067164 12.9375,16.6875 C12.9375,17.205267 12.517767,17.625 12,17.625 C11.482233,17.625 11.0625,17.205267 11.0625,16.6875 C11.0625,16.2067164 11.4244127,15.810462 11.8906677,15.7563072 L12,15.75 Z M15.0451863,8.79871883 C15.4020471,10.347268 14.5399187,11.9170435 13.0416666,12.4467557 C12.8230654,12.5240428 12.6678995,12.7145984 12.6326168,12.9387681 L12.625,13.0366667 L12.625,13.875 C12.625,14.220178 12.345178,14.5 12,14.5 C11.6862018,14.5 11.4264169,14.2687421 11.3817766,13.9673579 L11.375,13.875 L11.375,13.0369943 C11.3746111,12.2950374 11.8109482,11.6281199 12.4784911,11.327053 L12.625,11.2682444 C13.5239512,10.9504171 14.0412282,10.0085518 13.8271118,9.07942227 C13.6129953,8.15029277 12.7356774,7.52980973 11.788293,7.6374677 C10.8935411,7.73914468 10.2054222,8.45972224 10.1315728,9.34270577 L10.125,9.50011935 C10.1249341,9.84529732 9.84505861,10.1250659 9.49988065,10.125 C9.15470268,10.1249341 8.87493409,9.84505861 8.875,9.49988065 C8.87530348,7.91074439 10.068181,6.5748912 11.6471551,6.39546123 C13.2261291,6.21603127 14.6883255,7.25016967 15.0451863,8.79871883 Z" id="Question-Circle" fill="currentColor"></path>
    </g>
</svg>