<?xml version="1.0" encoding="UTF-8"?>
<svg width="24px" height="24px" viewBox="0 0 24 24" version="1.1" xmlns="http://www.w3.org/2000/svg" xmlns:xlink="http://www.w3.org/1999/xlink">
    <title>Icon/Essential/Remove</title>
    <g id="Icon/Essential/Remove" stroke="none" stroke-width="1" fill="none" fill-rule="evenodd" fill-opacity="0.84">
        <path d="M6.10538188,5.23573895 L6.19194174,5.30805826 L12,11.117 L17.8080583,5.30805826 C18.0521359,5.06398058 18.4478641,5.06398058 18.6919417,5.30805826 C18.9088997,5.5250162 18.9330061,5.8617967 18.7642611,6.10538188 L18.6919417,6.19194174 L12.883,12 L18.6919417,17.8080583 C18.9360194,18.0521359 18.9360194,18.4478641 18.6919417,18.6919417 C18.4749838,18.9088997 18.1382033,18.9330061 17.8946181,18.7642611 L17.8080583,18.6919417 L12,12.883 L6.19194174,18.6919417 C5.94786406,18.9360194 5.55213594,18.9360194 5.30805826,18.6919417 C5.09110032,18.4749838 5.06699388,18.1382033 5.23573895,17.8946181 L5.30805826,17.8080583 L11.117,12 L5.30805826,6.19194174 C5.06398058,5.94786406 5.06398058,5.55213594 5.30805826,5.30805826 C5.5250162,5.09110032 5.8617967,5.06699388 6.10538188,5.23573895 Z" id="Remove" fill="currentColor"></path>
    </g>
</svg>