<?xml version="1.0" encoding="UTF-8"?>
<svg width="24px" height="24px" viewBox="0 0 24 24" version="1.1" xmlns="http://www.w3.org/2000/svg" xmlns:xlink="http://www.w3.org/1999/xlink">
    <title>Icon/Ecom/Offer</title>
    <g id="Icons" stroke="none" stroke-width="1" fill="none" fill-rule="evenodd">
        <g id="Overview" transform="translate(-453.000000, -322.000000)" fill="currentColor">
            <g id="Icons" transform="translate(368.500000, 100.000000)">
                <g id="Icon/Ecom/Offer" transform="translate(84.500000, 222.000000)">
                    <path d="M16.25,2 C16.595178,2 16.875,2.27982203 16.875,2.625 C16.875,2.93879815 16.6437421,3.19858314 16.3423579,3.2432234 L16.25,3.25 L10.151,3.249 L11.4137139,12.082413 C11.4581077,12.393055 11.2659282,12.6829438 10.9738906,12.7697726 L10.8834203,12.7895472 C10.5727783,12.833941 10.2828896,12.6417615 10.1960607,12.349724 L10.191,12.328 L9.487456,13.2053337 C9.19687075,13.5674489 8.77868142,13.8008196 8.30799021,13.8607454 L8.12916667,13.875 L7.767,13.875 L7.766,18.797 L7.77633355,18.8054671 C9.38447841,19.9944013 10.7005636,20.6793015 11.4912257,20.7448191 L11.6116667,20.75 L16.9564106,20.7496297 L17.1419006,20.7439571 C17.3502153,20.7296007 17.4146388,20.6816482 17.4807243,20.5230111 L17.5328743,20.3820755 C17.9478155,18.2988629 18.235473,16.1923085 18.3925,14.1208333 C18.3925,14.0574777 18.311988,13.9743528 18.1263092,13.9228236 L18.1097872,13.9222519 C18.076538,13.9172645 18.0442957,13.9097437 18.013227,13.8999149 C17.9650119,13.8896948 17.9093505,13.8831463 17.8479357,13.8792143 L17.7108333,13.875 L12.7675,13.875 C12.422322,13.875 12.1425,13.595178 12.1425,13.25 C12.1425,12.9362018 12.3737579,12.6764169 12.6751421,12.6317766 L12.7675,12.625 L12.841,12.625 L12.1476889,5.68375992 C12.1162539,5.38891923 12.2119597,5.09465479 12.4108204,4.87471481 C12.5812447,4.68622558 12.8135856,4.56763739 13.0610547,4.5386013 L13.1858333,4.5316369 L18.9285224,4.53167967 C19.2349116,4.52809543 19.5273592,4.65956262 19.7280296,4.89113626 C19.9000591,5.08965833 19.9896734,5.34447979 19.9823766,5.60166998 L19.9705852,5.73021278 L18.893098,12.913909 C19.3559841,13.1815205 19.6417839,13.6202916 19.6407515,14.167551 C19.4781816,16.3363643 19.1836498,18.4932609 18.7388202,20.7016295 C18.4207162,21.6569056 17.934663,21.9641286 17.0164587,21.996967 L16.8391667,22 L11.6116667,22 C10.6370864,22 9.33506337,21.4092415 7.76641084,20.3339701 L7.76531397,20.8911054 C7.78991227,21.1844383 7.6875219,21.4742342 7.48410733,21.6870059 C7.30975198,21.8693816 7.07552878,21.9801537 6.8421634,22.0012029 L6.72583333,22.0041667 L4.6425,22.0041667 C4.29732203,22.0041667 4.0175,21.7243446 4.0175,21.3791667 C4.0175,21.0653685 4.24875788,20.8055835 4.55014208,20.7609433 L4.6425,20.7541667 L6.517,20.754 L6.519,13.291 L4.6425,13.2916667 C4.32870185,13.2916667 4.06891686,13.0604088 4.0242766,12.7590246 L4.0175,12.6666667 C4.0175,12.3214887 4.29732203,12.0416667 4.6425,12.0416667 L6.70164938,12.0421347 C6.99579139,12.0307446 7.28069276,12.1460558 7.48410733,12.3588274 C7.56069332,12.4389364 7.62295875,12.5299638 7.66963456,12.6252002 L8.10822852,12.6253508 C8.23448827,12.6211186 8.35424135,12.5729764 8.44778101,12.4907225 L8.51271283,12.4227893 L9.944,10.639 L8.88624633,3.232308 C8.84213055,2.92261448 8.93446195,2.60900697 9.13935169,2.37262492 C9.31497146,2.17001174 9.55849702,2.04119907 9.82187759,2.00833423 L9.955,2 L16.25,2 Z M18.698,5.781 L13.414,5.781 L14.098,12.625 L17.672,12.625 L18.698,5.781 Z M15.9233693,8.55920261 C16.438491,8.56472718 16.8526509,8.98485204 16.8508155,9.50000006 C16.8489678,10.0151481 16.4318147,10.4323012 15.9166667,10.4341488 C15.4015187,10.4359843 14.9813938,10.0218243 14.9758333,9.5 C14.9758333,9.05619975 15.2842086,8.68442442 15.6983732,8.58726004 L15.830944,8.56498836 L15.9233693,8.55920261 Z" id="Offer"></path>
                </g>
            </g>
        </g>
    </g>
</svg>
