<?xml version="1.0" encoding="UTF-8"?>
<svg width="24px" height="24px" viewBox="0 0 24 24" version="1.1" xmlns="http://www.w3.org/2000/svg" xmlns:xlink="http://www.w3.org/1999/xlink">
    <title>Icon/Flag/GB</title>
    <defs>
        <rect id="path-1" x="2" y="4.5" width="20" height="15" rx="1"></rect>
    </defs>
    <g id="Icon/Flag/GB" stroke="none" stroke-width="1" fill="none" fill-rule="evenodd">
        <mask id="mask-2" fill="white">
            <use xlink:href="#path-1"></use>
        </mask>
        <g id="Mask"></g>
        <g id="Great-Britain" mask="url(#mask-2)" fill-rule="nonzero">
            <g transform="translate(2.000000, 4.500000)">
                <polygon id="#00247D" fill="#00247D" points="0 0 20 0 20 15 0 15"></polygon>
                <polygon id="#FFFFFF" fill="#FFFFFF" points="2.34375 0 9.96875 5.65625 17.5625 0 20 0 20 1.9375 12.5 7.53125 20 13.09375 20 15 17.5 15 10 9.40625 2.53125 15 0 15 0 13.125 7.46875 7.5625 0 2 0 0"></polygon>
                <path d="M13.25,8.78125 L20,13.75 L20,15 L11.53125,8.78125 L13.25,8.78125 Z M7.5,9.40625 L7.6875,10.5 L1.6875,15 L0,15 L7.5,9.40625 Z M20,0 L20,0.09375 L12.21875,5.96875 L12.28125,4.59375 L18.4375,0 L20,0 Z M0,0 L7.46875,5.5 L5.59375,5.5 L0,1.3125 L0,0 Z" id="#CF142B" fill="#CF142B"></path>
                <path d="M7.53125,0 L7.53125,15 L12.53125,15 L12.53125,0 L7.53125,0 Z M0,5 L0,10 L20,10 L20,5 L0,5 Z" id="#FFFFFF" fill="#FFFFFF"></path>
                <path d="M0,6.03125 L0,9.03125 L20,9.03125 L20,6.03125 L0,6.03125 Z M8.53125,0 L8.53125,15 L11.53125,15 L11.53125,0 L8.53125,0 Z" id="#CF142B" fill="#CF142B"></path>
            </g>
        </g>
    </g>
</svg>