<?xml version="1.0" encoding="UTF-8"?>
<svg width="24px" height="24px" viewBox="0 0 24 24" version="1.1" xmlns="http://www.w3.org/2000/svg" xmlns:xlink="http://www.w3.org/1999/xlink">
    <title>Icon/Product/Container Mixer</title>
    <g id="Icon/Product/Container-Mixer" stroke="none" stroke-width="1" fill="none" fill-rule="evenodd" fill-opacity="0.84">
        <path d="M19.625,2.99979533 C19.970178,2.99979533 20.25,3.27961736 20.25,3.62479533 L20.25,3.62479533 L20.25,5.6292802 C20.25,5.97445817 19.970178,6.2542802 19.625,6.2542802 L19.625,6.2542802 L18.25,6.25379533 L18.25,13.4966714 C18.25,13.5959857 18.2263424,13.6933753 18.1815859,13.7809915 L18.1298914,13.8650594 L14.876,18.3227953 L14.88,18.3716714 L14.88,20.3752047 C14.88,20.7203826 14.600178,21.0002047 14.255,21.0002047 L14.255,21.0002047 L9.755,21.0002047 C9.40982203,21.0002047 9.13,20.7203826 9.13,20.3752047 L9.13,20.3752047 L9.13,18.3716714 C9.13,18.3597334 9.1303347,18.3478736 9.13099523,18.3361009 L5.87010861,13.8650594 C5.79205804,13.7580877 5.75,13.6290905 5.75,13.4966714 L5.75,13.4966714 L5.75,6.25379533 L4.375,6.2542802 C4.06120185,6.2542802 3.80141686,6.02302233 3.7567766,5.72163812 L3.75,5.6292802 L3.75,3.62479533 C3.75,3.27961736 4.02982203,2.99979533 4.375,2.99979533 L4.375,2.99979533 Z M13.63,18.9957953 L10.38,18.9957953 L10.38,19.7497953 L13.63,19.7497953 L13.63,18.9957953 Z M16.999,6.25379533 L6.999,6.25379533 L6.999,13.2917953 L10.248,17.7457953 L13.751,17.7457953 L16.999,13.2937953 L16.999,6.25379533 Z M14.825,8.99979533 C15.170178,8.99979533 15.45,9.27961736 15.45,9.62479533 C15.45,9.93859348 15.2187421,10.1983785 14.9173579,10.2430187 L14.825,10.2497953 L9.185,10.2497953 C8.83982203,10.2497953 8.56,9.9699733 8.56,9.62479533 C8.56,9.31099717 8.79125788,9.05121219 9.09264208,9.00657193 L9.185,8.99979533 L14.825,8.99979533 Z M18.999,4.24979533 L4.999,4.24979533 L4.999,5.00379533 L6.26423745,5.00275631 C6.30018687,4.99632714 6.33720159,4.99297175 6.375,4.99297175 L6.375,4.99297175 L17.625,4.99297175 C17.6627984,4.99297175 17.6998131,4.99632714 17.7357626,5.00275631 L18.999,5.00379533 L18.999,4.24979533 Z" id="Combined-Shape-Copy" fill="currentColor"></path>
    </g>
</svg>