<?xml version="1.0" encoding="UTF-8"?>
<svg width="24px" height="24px" viewBox="0 0 24 24" version="1.1" xmlns="http://www.w3.org/2000/svg" xmlns:xlink="http://www.w3.org/1999/xlink">
    <title>Icon/Flag/US</title>
    <defs>
        <rect id="path-1" x="2" y="4.5" width="20" height="15" rx="1"></rect>
    </defs>
    <g id="Icon/Flag/US" stroke="none" stroke-width="1" fill="none" fill-rule="evenodd">
        <mask id="mask-2" fill="white">
            <use xlink:href="#path-1"></use>
        </mask>
        <g id="Mask"></g>
        <g id="USA" mask="url(#mask-2)" fill-rule="nonzero">
            <g transform="translate(2.000000, 4.500000)">
                <path d="M0,1.15429688 L20,1.15429688 L20,2.30859375 L0,2.30859375 L0,1.15429688 Z M0,3.46289062 L20,3.46289062 L20,4.61425781 L0,4.61425781 L0,3.46289062 Z M0,5.76855469 L20,5.76855469 L20,6.92285156 L0,6.92285156 L0,5.76855469 Z M0,8.07714844 L20,8.07714844 L20,9.23144531 L0,9.23144531 L0,8.07714844 Z M0,10.3857422 L20,10.3857422 L20,11.5400391 L0,11.5400391 L0,10.3857422 Z M0,12.6914062 L20,12.6914062 L20,13.8457031 L0,13.8457031 L0,12.6914062 Z" id="#FFFFFF" fill="#FFFFFF"></path>
                <path d="M0,0 L20,0 L20,1.15429688 L0,1.15429688 L0,0 Z M0,2.30859375 L20,2.30859375 L20,3.46289062 L0,3.46289062 L0,2.30859375 Z M0,4.61425781 L20,4.61425781 L20,5.77148437 L0,5.77148437 L0,4.61425781 Z M0,6.92285156 L20,6.92285156 L20,8.07714844 L0,8.07714844 L0,6.92285156 Z M0,9.23144531 L20,9.23144531 L20,10.3857422 L0,10.3857422 L0,9.23144531 Z M0,11.5371094 L20,11.5371094 L20,12.6914062 L0,12.6914062 L0,11.5371094 Z M0,13.8457031 L20,13.8457031 L20,15 L0,15 L0,13.8457031 Z" id="#B22234" fill="#B22234"></path>
                <polygon id="#3C3B6E" fill="#3C3B6E" points="5.32907052e-15 0 10.3 0 10.3 8.07714844 5.32907052e-15 8.07714844"></polygon>
                <path d="M0.949765625,6.80859375 L1.05536562,7.12792969 L1.38976562,7.12792969 L1.11989896,7.32421875 L1.22256562,7.64355469 L0.949765625,7.44726562 L0.679898958,7.64355469 L0.782565625,7.32128906 L0.509765625,7.125 L0.850032292,7.125 L0.949765625,6.80859375 Z M2.62976563,6.80859375 L2.73243229,7.12792969 L3.06976563,7.12792969 L2.79696563,7.32421875 L2.90256563,7.64355469 L2.62976563,7.44726562 L2.35696563,7.64355469 L2.46256563,7.32128906 L2.18976563,7.125 L2.52416563,7.125 L2.62976563,6.80859375 Z M4.30976563,6.80859375 L4.41607435,7.12792969 L4.74976563,7.12792969 L4.48399381,7.32421875 L4.58734952,7.64355469 L4.31271865,7.44726562 L4.04104079,7.64355469 L4.1443965,7.32128906 L3.86976563,7.125 L4.20936294,7.125 L4.30976563,6.80859375 Z M5.98976563,6.80859375 L6.09243229,7.12792969 L6.42976563,7.12792969 L6.15696563,7.32421875 L6.26256563,7.64355469 L5.98976563,7.44726562 L5.71696563,7.64355469 L5.82256563,7.32128906 L5.54976563,7.125 L5.88416563,7.125 L5.98976563,6.80859375 Z M7.66829405,6.80859375 L7.77424723,7.12792969 L8.10976562,7.12792969 L7.83899639,7.32421875 L7.94200643,7.64355469 L7.66829405,7.44726562 L7.39752482,7.64355469 L7.50053486,7.32128906 L7.22976562,7.125 L7.56528402,7.125 L7.66829405,6.80859375 Z M9.34976562,6.80859375 L9.45243229,7.12792969 L9.78976563,7.12792969 L9.51696562,7.32421875 L9.62256563,7.64355469 L9.34976562,7.44726562 L9.07696562,7.64355469 L9.18256562,7.32128906 L8.90976563,7.125 L9.24709896,7.125 L9.34976562,6.80859375 Z M3.46976562,6 L3.57536562,6.31933594 L3.90976562,6.31933594 L3.63696562,6.515625 L3.74256562,6.83789062 L3.46976562,6.63867188 L3.19696562,6.83496094 L3.30256562,6.515625 L3.02976562,6.31933594 L3.36709896,6.31933594 L3.46976562,6 Z M5.14976562,6 L5.25243229,6.31933594 L5.58976562,6.31933594 L5.31696562,6.515625 L5.41963229,6.83789062 L5.14976562,6.63867188 L4.87696562,6.83496094 L4.97963229,6.515625 L4.70976562,6.31933594 L5.04416562,6.31933594 L5.14976562,6 Z M8.50976562,6 L8.61243229,6.31933594 L8.94976562,6.31933594 L8.67696562,6.515625 L8.77963229,6.83789062 L8.50976562,6.63867188 L8.23696562,6.83496094 L8.33963229,6.515625 L8.06976562,6.31933594 L8.40416562,6.31933594 L8.50976562,6 Z M6.82976562,6 L6.93536562,6.31933594 L7.26976562,6.31933594 L6.99989896,6.515625 L7.10256562,6.83789062 L6.82976562,6.63867188 L6.55989896,6.83496094 L6.66256562,6.515625 L6.38976562,6.31933594 L6.73003229,6.31933594 L6.82976562,6 Z M1.78976562,5.99853516 L1.89243229,6.31787109 L2.22976562,6.31787109 L1.95696562,6.51416016 L2.05963229,6.83642578 L1.78976562,6.63720703 L1.51696562,6.83349609 L1.61963229,6.51416016 L1.34976562,6.31787109 L1.68416562,6.31787109 L1.78976562,5.99853516 Z M0.94921875,5.19140625 L1.0546875,5.51367188 L1.38867187,5.51367188 L1.11914062,5.70996094 L1.22167969,6.02636719 L0.94921875,5.83007812 L0.6796875,6.02636719 L0.782226562,5.70703125 L0.509765625,5.51074219 L0.849609375,5.51074219 L0.94921875,5.19140625 Z M2.62921875,5.19140625 L2.73175781,5.51367188 L3.06867188,5.51367188 L2.79621094,5.70996094 L2.90167969,6.02636719 L2.62921875,5.83007812 L2.35675781,6.02636719 L2.46222656,5.70703125 L2.18976563,5.51074219 L2.52375,5.51074219 L2.62921875,5.19140625 Z M4.31214844,5.19140625 L4.41761719,5.51367188 L4.74867188,5.51367188 L4.47914063,5.70996094 L4.58167969,6.02636719 L4.30921875,5.83007812 L4.0396875,6.02636719 L4.14222656,5.70703125 L3.86976563,5.51074219 L4.20667969,5.51074219 L4.31214844,5.19140625 Z M5.98921875,5.19140625 L6.09175781,5.51367188 L6.42867188,5.51367188 L6.15621094,5.70996094 L6.26167969,6.02636719 L5.98921875,5.83007812 L5.71675781,6.02636719 L5.82222656,5.70703125 L5.54976563,5.51074219 L5.88375,5.51074219 L5.98921875,5.19140625 Z M7.66628906,5.19140625 L7.77175781,5.51367188 L8.10574219,5.51367188 L7.83621094,5.70996094 L7.93875,6.02636719 L7.66628906,5.83007812 L7.39675781,6.02636719 L7.49929687,5.70703125 L7.22976562,5.51074219 L7.56375,5.51074219 L7.66628906,5.19140625 Z M9.34921875,5.19140625 L9.45175781,5.51367188 L9.78867188,5.51367188 L9.51621094,5.70996094 L9.62167969,6.02636719 L9.34921875,5.83007812 L9.07675781,6.02636719 L9.18222656,5.70703125 L8.90976563,5.51074219 L9.24667969,5.51074219 L9.34921875,5.19140625 Z M6.82921875,4.38574219 L6.9346875,4.70507812 L7.26867187,4.70507812 L6.99914062,4.90136719 L7.10167969,5.22070312 L6.82921875,5.02148437 L6.5596875,5.22070312 L6.66222656,4.8984375 L6.38976562,4.70214844 L6.72960937,4.70214844 L6.82921875,4.38574219 Z M3.46921875,4.38574219 L3.5746875,4.70507812 L3.90867188,4.70507812 L3.63621094,4.90136719 L3.74167969,5.22070312 L3.46921875,5.02148437 L3.19675781,5.22070312 L3.30222656,4.8984375 L3.02976563,4.70214844 L3.36667969,4.70214844 L3.46921875,4.38574219 Z M5.14921875,4.38574219 L5.25175781,4.70507812 L5.58867187,4.70507812 L5.31621094,4.90136719 L5.41875,5.22070312 L5.14921875,5.02148437 L4.87675781,5.22070312 L4.97929687,4.8984375 L4.70976563,4.70214844 L5.04375,4.70214844 L5.14921875,4.38574219 Z M1.78921875,4.38574219 L1.89175781,4.70507812 L2.22867188,4.70507812 L1.95621094,4.90136719 L2.05875,5.22070312 L1.78921875,5.02148437 L1.51675781,5.22070312 L1.61929688,4.8984375 L1.34976563,4.70214844 L1.68375,4.70214844 L1.78921875,4.38574219 Z M8.50921875,4.38574219 L8.61175781,4.70507812 L8.94867187,4.70507812 L8.67621094,4.90136719 L8.77875,5.22070312 L8.50921875,5.02148437 L8.23675781,5.22070312 L8.33929687,4.8984375 L8.06976562,4.70214844 L8.40375,4.70214844 L8.50921875,4.38574219 Z M5.98921875,3.57714844 L6.09175781,3.89648438 L6.42867188,3.89648438 L6.15621094,4.09277344 L6.26167969,4.41503906 L5.98921875,4.21582031 L5.71675781,4.41210937 L5.82222656,4.09277344 L5.54976563,3.89648438 L5.88375,3.89648438 L5.98921875,3.57714844 Z M9.34921875,3.57714844 L9.45175781,3.89648438 L9.78867188,3.89648438 L9.51621094,4.09277344 L9.62167969,4.41503906 L9.34921875,4.21582031 L9.07675781,4.41210937 L9.18222656,4.09277344 L8.90976563,3.89648438 L9.24667969,3.89648438 L9.34921875,3.57714844 Z M0.94921875,3.57714844 L1.0546875,3.89648438 L1.38867187,3.89648438 L1.11914062,4.09277344 L1.22167969,4.41503906 L0.94921875,4.21582031 L0.6796875,4.41210937 L0.782226562,4.09277344 L0.509765625,3.89648438 L0.849609375,3.89648438 L0.94921875,3.57714844 Z M4.31214844,3.57714844 L4.41761719,3.89648438 L4.74867188,3.89648438 L4.47914063,4.09277344 L4.58167969,4.41503906 L4.30921875,4.21582031 L4.0396875,4.41210937 L4.14222656,4.09277344 L3.86976563,3.89648438 L4.20667969,3.89648438 L4.31214844,3.57714844 Z M7.66628906,3.57714844 L7.77175781,3.89648438 L8.10574219,3.89648438 L7.83621094,4.09277344 L7.93875,4.41503906 L7.66628906,4.21582031 L7.39675781,4.41210937 L7.49929687,4.09277344 L7.22976562,3.89648438 L7.56375,3.89648438 L7.66628906,3.57714844 Z M2.62921875,3.57714844 L2.73175781,3.89648438 L3.06867188,3.89648438 L2.79621094,4.09277344 L2.89875,4.41210938 L2.62921875,4.21582031 L2.35675781,4.41210938 L2.45929688,4.09277344 L2.18976563,3.89648438 L2.52375,3.89648438 L2.62921875,3.57714844 Z M1.78921875,2.76855469 L1.89175781,3.08789063 L2.22867188,3.08789063 L1.95621094,3.28417969 L2.05875,3.60644531 L1.78921875,3.40722656 L1.51675781,3.60351563 L1.61929688,3.28417969 L1.34976563,3.08789063 L1.68375,3.08789063 L1.78921875,2.76855469 Z M5.14921875,2.76855469 L5.25175781,3.08789063 L5.58867187,3.08789063 L5.31621094,3.28417969 L5.41875,3.60644531 L5.14921875,3.40722656 L4.87675781,3.60351563 L4.97929687,3.28417969 L4.70976563,3.08789063 L5.04375,3.08789063 L5.14921875,2.76855469 Z M3.46921875,2.76855469 L3.5746875,3.08789063 L3.90867188,3.08789063 L3.63621094,3.28417969 L3.74167969,3.60644531 L3.46921875,3.40722656 L3.19675781,3.60351563 L3.30222656,3.28417969 L3.02976563,3.08789063 L3.36667969,3.08789063 L3.46921875,2.76855469 Z M6.82921875,2.76855469 L6.9346875,3.08789063 L7.26867187,3.08789063 L6.99914062,3.28417969 L7.10167969,3.60644531 L6.82921875,3.40722656 L6.5596875,3.60351563 L6.66222656,3.28417969 L6.38976562,3.08789063 L6.72960937,3.08789063 L6.82921875,2.76855469 Z M8.50921875,2.76855469 L8.61175781,3.08789063 L8.94867187,3.08789063 L8.67621094,3.28417969 L8.77875,3.60644531 L8.50921875,3.40722656 L8.23675781,3.60351563 L8.33929687,3.28417969 L8.06976562,3.08789063 L8.40375,3.08789063 L8.50921875,2.76855469 Z M0.94921875,1.95996094 L1.0546875,2.28515625 L1.38867187,2.28515625 L1.11914062,2.48144531 L1.22167969,2.80078125 L0.94921875,2.6015625 L0.6796875,2.80078125 L0.782226562,2.47851563 L0.509765625,2.28222656 L0.849609375,2.28222656 L0.94921875,1.95996094 Z M7.66628906,1.95996094 L7.77175781,2.28222656 L8.10574219,2.28222656 L7.83621094,2.47851563 L7.93875,2.79785156 L7.66628906,2.59863281 L7.39675781,2.79785156 L7.49929687,2.47558594 L7.22976562,2.27929688 L7.56375,2.27929688 L7.66628906,1.95996094 Z M9.34921875,1.95996094 L9.45175781,2.28222656 L9.78867188,2.28222656 L9.51621094,2.47851563 L9.62167969,2.79785156 L9.34921875,2.59863281 L9.07675781,2.79785156 L9.18222656,2.47558594 L8.90976563,2.27929688 L9.24667969,2.27929688 L9.34921875,1.95996094 Z M4.31214844,1.95996094 L4.41761719,2.28222656 L4.74867188,2.28222656 L4.47914063,2.47851563 L4.58167969,2.79785156 L4.30921875,2.59863281 L4.0396875,2.79785156 L4.14222656,2.47558594 L3.86976563,2.27929688 L4.20667969,2.27929688 L4.31214844,1.95996094 Z M5.98921875,1.95996094 L6.09175781,2.28222656 L6.42867188,2.28222656 L6.15621094,2.47851563 L6.26167969,2.79785156 L5.98921875,2.59863281 L5.71675781,2.79785156 L5.82222656,2.47558594 L5.54976563,2.27929688 L5.88375,2.27929688 L5.98921875,1.95996094 Z M2.62921875,1.95996094 L2.73175781,2.28222656 L3.06867188,2.28222656 L2.79621094,2.47851563 L2.89875,2.79785156 L2.62921875,2.59863281 L2.35675781,2.79785156 L2.45929688,2.47558594 L2.18976563,2.27929688 L2.52375,2.27929688 L2.62921875,1.95996094 Z M3.46921875,1.15429688 L3.5746875,1.47363281 L3.90867188,1.47363281 L3.63621094,1.66992188 L3.74167969,1.98925781 L3.46921875,1.79296875 L3.19675781,1.98925781 L3.30222656,1.66992188 L3.02976563,1.47363281 L3.36667969,1.47363281 L3.46921875,1.15429688 Z M5.14921875,1.15429688 L5.25175781,1.47363281 L5.58867187,1.47363281 L5.31621094,1.66992188 L5.41875,1.98925781 L5.14921875,1.79296875 L4.87675781,1.98925781 L4.97929687,1.66992188 L4.70976563,1.47363281 L5.04375,1.47363281 L5.14921875,1.15429688 Z M8.50921875,1.15429688 L8.61175781,1.47363281 L8.94867187,1.47363281 L8.67621094,1.66992188 L8.77875,1.98925781 L8.50921875,1.79296875 L8.23675781,1.98925781 L8.33929687,1.66992188 L8.06976562,1.47363281 L8.40375,1.47363281 L8.50921875,1.15429688 Z M6.82921875,1.15429688 L6.9346875,1.47363281 L7.26867187,1.47363281 L6.99621094,1.66992188 L7.10167969,1.98925781 L6.82921875,1.79296875 L6.5596875,1.98925781 L6.66222656,1.66992188 L6.38976562,1.47363281 L6.72960937,1.47363281 L6.82921875,1.15429688 Z M1.78628906,1.15429688 L1.88882813,1.47363281 L2.22574219,1.47363281 L1.95328125,1.66992188 L2.05289063,1.98925781 L1.78921875,1.79296875 L1.51675781,1.98925781 L1.6134375,1.66992188 L1.34976563,1.47363281 L1.68375,1.47363281 L1.78628906,1.15429688 Z M0.94921875,0.345703125 L1.0546875,0.665039062 L1.38867187,0.665039062 L1.11914062,0.861328125 L1.22167969,1.18359375 L0.94921875,0.984375 L0.6796875,1.18066406 L0.782226562,0.861328125 L0.509765625,0.665039063 L0.849609375,0.665039063 L0.94921875,0.345703125 Z M2.62921875,0.345703125 L2.73175781,0.665039063 L3.06867188,0.665039063 L2.79621094,0.861328125 L2.89875,1.18359375 L2.62921875,0.984375 L2.35675781,1.18066406 L2.45929688,0.861328125 L2.18976563,0.665039063 L2.52375,0.665039063 L2.62921875,0.345703125 Z M4.31214844,0.345703125 L4.41761719,0.665039063 L4.74867188,0.665039063 L4.47914063,0.861328125 L4.58167969,1.18359375 L4.30921875,0.984375 L4.0396875,1.18066406 L4.14222656,0.861328125 L3.86976563,0.665039063 L4.20667969,0.665039063 L4.31214844,0.345703125 Z M5.98921875,0.345703125 L6.09175781,0.665039063 L6.42867188,0.665039063 L6.15621094,0.861328125 L6.26167969,1.18359375 L5.98921875,0.984375 L5.71675781,1.18066406 L5.82222656,0.861328125 L5.54976563,0.665039063 L5.88375,0.665039063 L5.98921875,0.345703125 Z M7.66628906,0.345703125 L7.77175781,0.665039063 L8.10574219,0.665039063 L7.83621094,0.861328125 L7.93875,1.18359375 L7.66628906,0.984375 L7.39675781,1.18066406 L7.49929687,0.861328125 L7.22976562,0.665039063 L7.56375,0.665039063 L7.66628906,0.345703125 Z M9.34921875,0.345703125 L9.45175781,0.665039063 L9.78867188,0.665039063 L9.51621094,0.861328125 L9.62167969,1.18359375 L9.34921875,0.984375 L9.07675781,1.18066406 L9.18222656,0.861328125 L8.90976563,0.665039063 L9.24667969,0.665039063 L9.34921875,0.345703125 Z" id="#FFFFFF" fill="#FFFFFF"></path>
            </g>
        </g>
    </g>
</svg>