<?xml version="1.0" encoding="UTF-8"?>
<svg width="24px" height="24px" viewBox="0 0 24 24" version="1.1" xmlns="http://www.w3.org/2000/svg" xmlns:xlink="http://www.w3.org/1999/xlink">
    <title>Icon/Social/Instagram</title>
    <g id="Icons" stroke="none" stroke-width="1" fill="none" fill-rule="evenodd">
        <g id="Overview" transform="translate(-453.000000, -1096.000000)" fill="currentColor">
            <g id="Icons" transform="translate(368.500000, 100.000000)">
                <g id="Icon/Social/Instagram" transform="translate(84.500000, 996.000000)">
                    <path d="M13.2450599,2.00057254 C14.8603714,2.00462147 15.2466185,2.01952788 16.1227889,2.05950499 C17.1872083,2.10805369 17.9141685,2.27712066 18.5502636,2.52434985 C19.2078742,2.77987559 19.7655689,3.1218204 20.3215567,3.6777685 C20.8775048,4.23375631 21.2194497,4.79145105 21.4750151,5.44906165 C21.7222046,6.08515679 21.8912716,6.81211699 21.9398203,7.87653631 C21.9815355,8.79080115 21.9959526,9.1716144 21.9992204,10.9720946 L21.9999548,11.7176362 L21.9999548,11.7176362 L22,11.9996825 C22,12.0966792 21.9999853,12.1906462 21.9999548,12.2817246 L21.9992204,13.0272557 C21.9959526,14.8277108 21.9815355,15.2085241 21.9398203,16.1227889 C21.8912716,17.1872083 21.7222046,17.9141685 21.4750151,18.5502636 C21.2194497,19.2078742 20.8775048,19.7655689 20.3215567,20.3215567 C19.7655689,20.8775048 19.2078742,21.2194497 18.5502636,21.4750151 C17.9141685,21.7222046 17.1872083,21.8912716 16.1227889,21.9398203 C15.2085241,21.9815355 14.8277108,21.9959526 13.0272557,21.9992204 L12.2817246,21.9999548 L12.2817246,21.9999548 L11.9996825,22 C11.9026843,22 11.808716,21.9999853 11.7176362,21.9999548 L10.9720946,21.9992204 C9.1716144,21.9959526 8.79080115,21.9815355 7.87653631,21.9398203 C6.81211699,21.8912716 6.08515679,21.7222046 5.44906165,21.4750151 C4.79145105,21.2194497 4.23375631,20.8775048 3.6777685,20.3215567 C3.1218204,19.7655689 2.77987559,19.2078742 2.52434985,18.5502636 C2.27712066,17.9141685 2.10805369,17.1872083 2.05950499,16.1227889 C2.01952788,15.2466185 2.00462147,14.8603714 2.00057254,13.2450599 L2.00057254,10.7542874 C2.00462147,9.13895383 2.01952788,8.75270678 2.05950499,7.87653631 C2.10805369,6.81211699 2.27712066,6.08515679 2.52434985,5.44906165 C2.77987559,4.79145105 3.1218204,4.23375631 3.6777685,3.6777685 C4.23375631,3.1218204 4.79145105,2.77987559 5.44906165,2.52434985 C6.08515679,2.27712066 6.81211699,2.10805369 7.87653631,2.05950499 C8.75270678,2.01952788 9.13895383,2.00462147 10.7542874,2.00057254 Z M13.0414946,3.80194644 L10.9578552,3.80194644 C9.21954372,3.80503947 8.85694187,3.8185143 7.95866816,3.85949863 C6.98364514,3.9039586 6.45413484,4.06687263 6.10174988,4.20382522 C5.63495989,4.38523777 5.30182769,4.60194043 4.95190391,4.95190391 C4.60194043,5.30182769 4.38523777,5.63495989 4.20382522,6.10174988 C4.06687263,6.45413484 3.9039586,6.98364514 3.85949863,7.95866816 C3.8185143,8.85694187 3.80503947,9.21954372 3.80194644,10.9578552 L3.80194644,13.0414946 C3.80503947,14.7797815 3.8185143,15.1423834 3.85949863,16.0406571 C3.9039586,17.0156801 4.06687263,17.5451904 4.20382522,17.8975754 C4.38523777,18.3643653 4.60198013,18.6974976 4.95190391,19.0474213 C5.30182769,19.3973848 5.63495989,19.6140875 6.10174988,19.7955 C6.45413484,19.9324526 6.98364514,20.0953666 7.95866816,20.1398266 C8.85684042,20.1808109 9.21936963,20.1942858 10.9577845,20.1973788 L11.4437519,20.1979614 C11.6169826,20.1980847 11.8018738,20.1981406 11.9996825,20.1981406 L12.2868604,20.1980972 C12.3794619,20.1980678 12.4689912,20.198023 12.5556055,20.1979614 L13.0415675,20.1973788 C14.2508879,20.1952271 14.794393,20.1880514 15.3155625,20.1700855 L15.5112108,20.1628313 C15.6754733,20.1563458 15.8454096,20.1487363 16.0406571,20.1398266 C17.0156801,20.0953666 17.5451904,19.9324526 17.8975754,19.7955 C18.3643653,19.6140875 18.6974976,19.3973848 19.0474213,19.0474213 C19.3973848,18.6974976 19.6140875,18.3643653 19.7955,17.8975754 C19.9324526,17.5451904 20.0953666,17.0156801 20.1398266,16.0406571 C20.1487363,15.8453802 20.1563458,15.6754186 20.1628313,15.5111356 L20.1700855,15.315465 C20.1880514,14.7942428 20.1952271,14.2507377 20.1973788,13.0414946 L20.1979614,12.5555653 C20.1980847,12.3823488 20.1981406,12.1974735 20.1981406,11.9996825 L20.1980972,11.7125214 C20.1980678,11.6199252 20.198023,11.530401 20.1979614,11.4437915 L20.1973788,10.9578552 C20.1954961,9.89975255 20.1897668,9.35136463 20.1763282,8.88162127 L20.1700855,8.68386089 C20.1622255,8.45582546 20.1523001,8.23205581 20.1398266,7.95866816 C20.0953666,6.98364514 19.9324526,6.45413484 19.7955,6.10174988 C19.6140875,5.63495989 19.3973848,5.30182769 19.0474213,4.95190391 C18.6974976,4.60194043 18.3643653,4.38523777 17.8975754,4.20382522 C17.5451904,4.06687263 17.0156801,3.9039586 16.0406571,3.85949863 C15.1423834,3.8185143 14.7797815,3.80503947 13.0414946,3.80194644 Z M11.9996825,6.86435746 C14.8358316,6.86435746 17.1349678,9.16349365 17.1349678,11.9996825 C17.1349678,14.8358316 14.8358316,17.1349678 11.9996825,17.1349678 C9.16349365,17.1349678 6.86435746,14.8358316 6.86435746,11.9996825 C6.86435746,9.16349365 9.16349365,6.86435746 11.9996825,6.86435746 Z M11.9996825,8.66621683 C10.1586427,8.66621683 8.66621683,10.1586427 8.66621683,11.9996825 C8.66621683,13.8406825 10.1586427,15.3331084 11.9996825,15.3331084 C13.8406825,15.3331084 15.3331084,13.8406825 15.3331084,11.9996825 C15.3331084,10.1586427 13.8406825,8.66621683 11.9996825,8.66621683 Z M17.3378561,5.46140723 C18.0006272,5.46140723 18.537918,5.99869802 18.537918,6.66146915 C18.537918,7.32424027 18.0006272,7.86149137 17.3378561,7.86149137 C16.6751247,7.86149137 16.1378339,7.32424027 16.1378339,6.66146915 C16.1378339,5.99869802 16.6751247,5.46140723 17.3378561,5.46140723 Z" id="Instagram"></path>
                </g>
            </g>
        </g>
    </g>
</svg>
