<?xml version="1.0" encoding="UTF-8"?>
<svg width="24px" height="24px" viewBox="0 0 24 24" version="1.1" xmlns="http://www.w3.org/2000/svg" xmlns:xlink="http://www.w3.org/1999/xlink">
    <title>Icon/Location/Pin Red</title>
    <g id="Icon/Location/Pin-Red" stroke="none" stroke-width="1" fill="none" fill-rule="evenodd">
        <path d="M12,1.99999531 C8.31981507,2.00412855 5.33746657,4.98647705 5.33333333,8.66666198 C5.33333333,11.591662 9.5,18.6874953 11.29,21.6033286 C11.4416987,21.8499023 11.7104986,21.9999953 12,21.9999953 C12.2900505,22.0013745 12.5595616,21.8504863 12.71,21.6024953 C14.5,18.6883286 18.6666667,11.5949953 18.6666667,8.66666198 C18.6625334,4.98647705 15.6801849,2.00412855 12,1.99999531 Z" id="Pin" fill="#AF0E0E"></path>
        <path d="M12,11 C10.6192881,11 9.5,9.88071187 9.5,8.5 C9.5,7.11928813 10.6192881,6 12,6 C13.3807119,6 14.5,7.11928813 14.5,8.5 C14.5,9.88071187 13.3807119,11 12,11 Z" id="Dot" fill-opacity="0.84" fill="#FFFFFF"></path>
        <path d="M12,1.99999531 C15.6801849,2.00412855 18.6625334,4.98647705 18.6666667,8.66666198 C18.6666667,11.5949953 14.5,18.6883286 12.71,21.6024953 C12.5595616,21.8504863 12.2900505,22.0013745 12,21.9999953 C11.7104986,21.9999953 11.4416987,21.8499023 11.29,21.6033286 L10.837712,20.8600439 C8.88362919,17.6205081 5.33333333,11.366662 5.33333333,8.66666198 C5.33746657,4.98647705 8.31981507,2.00412855 12,1.99999531 Z M11.9988769,2.99999468 C10.4367343,3.00175166 9.02066523,3.63650488 7.99525406,4.66191604 C6.9698429,5.68732721 6.33508968,7.10339632 6.3333327,8.66778508 C6.3333327,11.2616809 9.82268586,17.2412258 11.6939943,20.3435357 L12.0003129,20.8469263 C13.7908547,17.9230658 17.6666667,11.4113764 17.6666667,8.66666198 C17.6649103,7.10339632 17.0301571,5.68732721 16.0047459,4.66191604 C14.9793348,3.63650488 13.5632657,3.00175166 11.9988769,2.99999468 Z" id="Border" fill-opacity="0.84" fill="#FFFFFF"></path>
    </g>
</svg>