<?xml version="1.0" encoding="UTF-8"?>
<svg width="24px" height="24px" viewBox="0 0 24 24" version="1.1" xmlns="http://www.w3.org/2000/svg" xmlns:xlink="http://www.w3.org/1999/xlink">
    <title>Icon/Ecom/Barcode Tag</title>
    <g id="Icon/Ecom/Barcode-Tag" stroke="none" stroke-width="1" fill="none" fill-rule="evenodd" fill-opacity="0.84">
        <path d="M11.4320132,4.30354645 C11.8890808,4.29160736 12.3326671,4.44704413 12.6810074,4.73722401 L12.8070106,4.85229381 L20.8261751,12.8739583 C21.5174765,13.5654685 21.5558821,14.6625494 20.9412773,15.3992377 L20.8260389,15.5253445 L15.52375,20.8259668 C15.1720848,21.1778574 14.6949891,21.3755665 14.1975,21.3755665 C13.7552874,21.3755665 13.3291882,21.2193519 12.9930727,20.937593 L12.8713916,20.8261084 L4.95459148,12.9093083 C4.64017129,12.5946981 4.44912731,12.1799731 4.41659246,11.6814304 L4.41189063,11.4905798 L4.86690695,8.25057975 C4.91491168,7.90875615 5.23092998,7.67056889 5.57275358,7.71857361 C5.88350231,7.76221428 6.10860117,8.02735376 6.1108934,8.33201741 L6.10475972,8.42442025 L5.65580902,11.5806612 C5.65513401,11.7141153 5.69715211,11.8433529 5.77428916,11.950049 L5.8386084,12.0255583 L13.7554167,19.9423666 C13.8726384,20.0596634 14.0316703,20.1255665 14.1975,20.1255665 C14.3301638,20.1255665 14.4584769,20.0833885 14.5646212,20.0063533 L14.6397944,19.9421555 L19.9421582,14.6414583 C20.1590371,14.424514 20.1831347,14.0878163 20.0144496,13.8442586 L19.9421561,13.7577062 L11.9229868,5.73603689 C11.8260107,5.63902945 11.7005592,5.57730187 11.6082135,5.55495128 L11.5461238,5.54563555 L8.34779045,6.05230222 C8.00686385,6.10631039 7.68670596,5.87371705 7.63269778,5.53279045 C7.58359944,5.22285718 7.77136186,4.93008812 8.06204945,4.83884168 L8.15220955,4.81769778 L11.4320132,4.30354645 Z M10.1329425,12.7982808 L10.2194938,12.8706103 L13.7544938,16.4064437 C13.9985427,16.6505501 13.9984961,17.0462782 13.7543897,17.2903272 C13.5374061,17.5072595 13.2006228,17.5313263 12.9570575,17.3625525 L12.8705062,17.290223 L9.33550618,13.7543897 C9.09145726,13.5102832 9.0915039,13.1145551 9.33561035,12.8705062 C9.55259386,12.6535738 9.8893772,12.6295071 10.1329425,12.7982808 Z M17.2902751,12.8705583 C17.507233,13.0875162 17.5313394,13.4242967 17.3625944,13.6678819 L17.2902751,13.7544417 L15.5227751,15.5219417 C15.2786974,15.7660194 14.8829693,15.7660194 14.6388916,15.5219417 C14.4219337,15.3049838 14.3978272,14.9682033 14.5665723,14.7246181 L14.6388916,14.6380583 L16.4063916,12.8705583 C16.6504693,12.6264806 17.0461974,12.6264806 17.2902751,12.8705583 Z M15.5228792,11.1031624 C15.739786,11.3201715 15.7638131,11.6569577 15.5950106,11.9005031 L15.5226709,11.9870459 L13.7543376,13.7545459 C13.5102024,13.998566 13.1144743,13.9984728 12.8704541,13.7543376 C12.6535473,13.5373285 12.6295203,13.2005423 12.7983227,12.9569969 L12.8706624,12.8704541 L14.6389958,11.1029541 C14.883131,10.858934 15.2788591,10.8590272 15.5228792,11.1031624 Z M13.7544417,9.33555826 C13.9713997,9.5525162 13.9955061,9.8892967 13.8267611,10.1328819 L13.7544417,10.2194417 L11.9869417,11.9869417 C11.7428641,12.2310194 11.3471359,12.2310194 11.1030583,11.9869417 C10.8861003,11.7699838 10.8619939,11.4332033 11.0307389,11.1896181 L11.1030583,11.1030583 L12.8705583,9.33555826 C13.1146359,9.09148058 13.5103641,9.09148058 13.7544417,9.33555826 Z M3.60538188,2.73573895 L3.69194174,2.80805826 L8.2271239,7.34248859 C8.47176709,7.22550428 8.74573387,7.16 9.035,7.16 C10.0705339,7.16 10.91,7.99946609 10.91,9.035 C10.91,10.0705339 10.0705339,10.91 9.035,10.91 C7.99946609,10.91 7.16,10.0705339 7.16,9.035 C7.16,8.74573387 7.22550428,8.47176709 7.34248859,8.2271239 L2.80805826,3.69194174 C2.56398058,3.44786406 2.56398058,3.05213594 2.80805826,2.80805826 C3.0250162,2.59110032 3.3617967,2.56699388 3.60538188,2.73573895 Z M9.035,8.41 C8.68982203,8.41 8.41,8.68982203 8.41,9.035 C8.41,9.38017797 8.68982203,9.66 9.035,9.66 C9.38017797,9.66 9.66,9.38017797 9.66,9.035 C9.66,8.68982203 9.38017797,8.41 9.035,8.41 Z" id="Barcode-Tag" fill="currentColor"></path>
    </g>
</svg>