<?xml version="1.0" encoding="UTF-8"?>
<svg width="24px" height="24px" viewBox="0 0 24 24" version="1.1" xmlns="http://www.w3.org/2000/svg" xmlns:xlink="http://www.w3.org/1999/xlink">
    <title>Icon/SBU/ZPS/Default</title>
    <g id="Icons" stroke="none" stroke-width="1" fill="none" fill-rule="evenodd">
        <g id="Overview" transform="translate(-369.000000, -948.000000)" fill="currentColor">
            <g id="Icons" transform="translate(368.500000, 100.000000)">
                <g id="Icon/SBU/ZPS/Default" transform="translate(0.500000, 848.000000)">
                    <path d="M15.5577155,5.38662629 L15.5577155,6.28379569 L13.0937503,6.28379569 L13.0937503,7.01193317 L16.344364,7.01193317 L18.5874501,9.08582476 L19.0326216,9.08582476 L19.0326216,7.96436301 L21.5,7.96436301 L21.5,17.9990077 L19.0326216,17.9990077 L19.0326216,16.5394821 L17.9696709,16.5394821 L17.9696709,17.8299758 C17.9696709,17.9773911 17.946429,18.1111539 17.8997827,18.2314266 C17.8531364,18.3518618 17.787149,18.4454795 17.7016578,18.5126047 C17.6158416,18.5797299 17.5179981,18.6133737 17.4073147,18.6133737 L8.27325258,18.6133737 L6.36823038,16.708514 L4.7429235,16.708514 C4.59778359,16.708514 4.46337072,16.6576419 4.34000992,16.5557352 C4.22298783,16.4603297 4.13034533,16.3309553 4.06208245,16.1672868 C3.99381956,16.0036184 3.95968811,15.8287354 3.95968811,15.6423127 L3.95968811,13.906485 L3.39733193,13.906485 L3.39733193,16.4289613 L2.5,16.4289613 L2.5,8.24716641 L3.34190897,8.24716641 L3.34190897,10.7663921 L3.90101453,10.7663921 L3.90101453,9.70344137 C3.90101453,9.50417875 3.94018443,9.32100666 4.01803663,9.15408765 C4.08971266,8.99594529 4.18593083,8.87030906 4.30734125,8.77701645 C4.42875168,8.68388637 4.55552562,8.63724006 4.68766307,8.63724006 L6.14393803,8.63724006 L6.14393803,7.74007066 C6.14393803,7.61004611 6.17335609,7.48440989 6.2317046,7.36299946 C6.29037818,7.24175157 6.3693681,7.14520834 6.46899941,7.07369484 C6.57529448,6.99568011 6.69117886,6.95667274 6.81697761,6.95667274 L10.0121684,6.95667274 L10.0121684,6.28379569 L7.48985466,6.28379569 L7.48985466,5.38662629 L15.5577155,5.38662629 Z M13.0937503,8.97530389 L11.299574,8.97530389 L8.83560876,13.5131607 L12.4761337,13.5131607 L11.1305421,17.1570987 L14.7190572,11.9463649 L11.5238663,11.9463649 L13.0937503,8.97530389 Z" id="Gear-Box"></path>
                </g>
            </g>
        </g>
    </g>
</svg>
