<?xml version="1.0" encoding="UTF-8"?>
<svg width="24px" height="24px" viewBox="0 0 24 24" version="1.1" xmlns="http://www.w3.org/2000/svg" xmlns:xlink="http://www.w3.org/1999/xlink">
    <title>Icon/Essential/Home</title>
    <g id="Icons" stroke="none" stroke-width="1" fill="none" fill-rule="evenodd">
        <g id="Overview" transform="translate(-1461.000000, -396.000000)" fill="currentColor">
            <g id="Icons" transform="translate(368.500000, 100.000000)">
                <g id="Icon/Essential/Home" transform="translate(1092.500000, 296.000000)">
                    <path d="M18.8775,12.995 C19.1912982,12.995 19.4510831,13.2262579 19.4957234,13.5276421 L19.5025,13.62 L19.5025,20.495 C19.5025,20.8087982 19.2712421,21.0685831 18.9698579,21.1132234 L18.8775,21.12 L13.8775,21.12 C13.5637018,21.12 13.3039169,20.8887421 13.2592766,20.5873579 L13.2525,20.495 L13.2525,15.495 C13.2525,15.1812018 13.0212421,14.9214169 12.7198579,14.8767766 L12.6275,14.87 L11.3775,14.87 C11.0637018,14.87 10.8039169,15.1012579 10.7592766,15.4026421 L10.7525,15.495 L10.7525,20.495 C10.7525,20.8087982 10.5212421,21.0685831 10.2198579,21.1132234 L10.1275,21.12 L5.1275,21.12 C4.81370185,21.12 4.55391686,20.8887421 4.5092766,20.5873579 L4.5025,20.495 L4.5025,13.62 C4.5025,13.274822 4.78232203,12.995 5.1275,12.995 C5.44129815,12.995 5.70108314,13.2262579 5.7457234,13.5276421 L5.7525,13.62 L5.752,19.869 L9.502,19.869 L9.5025,15.495 C9.5025,14.5087772 10.2639205,13.7003938 11.2309699,13.6256412 L11.3775,13.62 L12.6275,13.62 C13.6137228,13.62 14.4221062,14.3814205 14.4968588,15.3484699 L14.5025,15.495 L14.502,19.869 L18.252,19.869 L18.2525,13.62 C18.2525,13.3062018 18.4837579,13.0464169 18.7851421,13.0017766 L18.8775,12.995 Z M12.0025,2.88776686 C12.4447126,2.88776686 12.8708118,3.04398143 13.2069273,3.32574035 L13.3286084,3.43722493 L21.8194417,11.9280583 C22.0635194,12.1721359 22.0635194,12.5678641 21.8194417,12.8119417 C21.6024838,13.0288997 21.2657033,13.0530061 21.0221181,12.8842611 L20.9355583,12.8119417 L12.4445833,4.32096676 C12.3273616,4.20366988 12.1683297,4.13776686 12.0025,4.13776686 C11.8698362,4.13776686 11.7415231,4.1799448 11.6354143,4.25694449 L11.5602751,4.3211084 L3.06944174,12.8119417 C2.82536406,13.0560194 2.42963594,13.0560194 2.18555826,12.8119417 C1.96860032,12.5949838 1.94449388,12.2582033 2.11323895,12.0146181 L2.18555826,11.9280583 L10.67625,3.43736657 C11.0279152,3.08547593 11.5050109,2.88776686 12.0025,2.88776686 Z" id="Home"></path>
                </g>
            </g>
        </g>
    </g>
</svg>
