<?xml version="1.0" encoding="UTF-8"?>
<svg width="24px" height="24px" viewBox="0 0 24 24" version="1.1" xmlns="http://www.w3.org/2000/svg" xmlns:xlink="http://www.w3.org/1999/xlink">
    <title>Icon/Essential/Logout</title>
    <g id="Icons" stroke="none" stroke-width="1" fill="none" fill-rule="evenodd">
        <g id="Overview" transform="translate(-621.000000, -450.000000)" fill="currentColor">
            <g id="Icons" transform="translate(368.500000, 100.000000)">
                <g id="Icon/Essential/Logout" transform="translate(252.500000, 350.000000)">
                    <path d="M4.76083333,2.625 L15.0194481,2.62577498 C15.9712969,2.67322027 16.7166983,3.44297773 16.7506287,4.35491323 L16.75,8.25 C16.75,8.59517797 16.470178,8.875 16.125,8.875 C15.8112018,8.875 15.5514169,8.64374212 15.5067766,8.34235792 L15.5,8.25 L15.5006354,4.47182418 C15.5134213,4.1884946 15.3179646,3.94381051 15.0719824,3.88683514 L14.9883333,3.875 L4.79194952,3.87422495 C4.50895018,3.88833182 4.28415726,4.1059857 4.25302062,4.39951998 L4.25,4.5 L4.24936359,19.5281976 C4.23657383,19.8113941 4.43183915,20.0560135 4.67735139,20.1131154 L4.76083333,20.125 L14.9572186,20.125775 C15.2404848,20.1116555 15.4655468,19.8938924 15.4969067,19.6004438 L15.5,19.5 L15.5,15.75 C15.5,15.404822 15.779822,15.125 16.125,15.125 C16.4387982,15.125 16.6985831,15.3562579 16.7432234,15.6576421 L16.75,15.75 L16.7493646,19.4718242 C16.7923284,20.4238858 16.0966677,21.2388741 15.1412737,21.3614766 L14.9883333,21.375 L4.72928463,21.3742032 C3.77791446,21.3261187 3.03321448,20.5565119 2.99936397,19.6450152 L2.99983497,4.3795183 C3.03092366,3.49263621 3.70274576,2.75471767 4.60788611,2.63852726 L4.76083333,2.625 Z M19.6053819,8.36407228 L19.6919417,8.4363916 L22.8244619,11.5690411 C22.8401668,11.5852911 22.8549985,11.6023904 22.8688814,11.6202633 L22.8169417,11.5613916 L22.8563164,11.6045706 L22.8563164,11.6045706 L22.9171502,11.692158 L22.9171502,11.692158 L22.9646155,11.7955778 L22.9646155,11.7955778 L22.9708834,11.8143632 C22.9898366,11.8741387 23,11.9375491 23,12.0033333 C23,12.0493427 22.9950285,12.0941909 22.9855934,12.13737 L22.9593521,12.2255242 L22.9593521,12.2255242 C22.9418315,12.2717289 22.9184269,12.3166141 22.8892611,12.3587152 L22.8486082,12.411011 L22.8486082,12.411011 L19.6919417,15.5702751 C19.4478641,15.8143528 19.0521359,15.8143528 18.8080583,15.5702751 C18.5911003,15.3533171 18.5669939,15.0165366 18.7357389,14.7729515 L18.8080583,14.6863916 L20.864,12.6283333 L9.25,12.6283333 C8.90482203,12.6283333 8.625,12.3485113 8.625,12.0033333 C8.625,11.6895352 8.85625788,11.4297502 9.15764208,11.3851099 L9.25,11.3783333 L20.866,11.3783333 L18.8080583,9.32027507 C18.5911003,9.10331713 18.5669939,8.76653663 18.7357389,8.52295145 L18.8080583,8.4363916 C19.0250162,8.21943366 19.3617967,8.19532722 19.6053819,8.36407228 Z" id="Logout"></path>
                </g>
            </g>
        </g>
    </g>
</svg>
