<?xml version="1.0" encoding="UTF-8"?>
<svg width="24px" height="24px" viewBox="0 0 24 24" version="1.1" xmlns="http://www.w3.org/2000/svg" xmlns:xlink="http://www.w3.org/1999/xlink">
    <title>Icon/Ecom/Certified Ribbon</title>
    <g id="Icon/Ecom/Certified-Ribbon" stroke="none" stroke-width="1" fill="none" fill-rule="evenodd" fill-opacity="0.84">
        <path d="M12,2 C16.1421356,2 19.5,5.35786438 19.5,9.5 C19.5,10.6814298 19.2268317,11.7990577 18.740211,12.7931677 L21.8587016,16.6041998 C22.1373244,16.9447007 21.98393,17.4477251 21.586421,17.5884453 L21.4975726,17.6128629 L18.727,18.166 L17.5929271,21.5726424 C17.4372236,22.0397528 16.8400836,22.1418241 16.5324681,21.7904939 L16.4712484,21.7082368 L13.4192073,16.8659092 C12.9596576,16.9539242 12.4852096,17 12,17 C11.5147904,17 11.0403424,16.9539242 10.5807927,16.8659092 L7.52875156,21.7082368 C7.26622618,22.1247895 6.66196471,22.0816291 6.44692826,21.6671179 L6.40707294,21.5726424 L5.272,18.166 L2.50242742,17.6128629 C2.07100365,17.5265782 1.87027279,17.0405015 2.08813756,16.6794606 L2.14129842,16.6041998 L5.25978901,12.7931677 C4.77316833,11.7990577 4.5,10.6814298 4.5,9.5 C4.5,5.35786438 7.85786438,2 12,2 Z M5.94574195,13.9275972 L3.766,16.591 L5.87257258,17.0121371 C6.06108406,17.0498394 6.21989117,17.171644 6.30608179,17.3396689 L6.34292706,17.4273576 L7.175,19.925 L9.32760385,16.5098993 C7.96540956,15.9902854 6.79363002,15.0850258 5.94574195,13.9275972 Z M18.054258,13.9275972 C17.20637,15.0850258 16.0345904,15.9902854 14.6723962,16.5098993 L16.824,19.925 L17.6570729,17.4273576 C17.7178661,17.2449783 17.8584277,17.1025055 18.0358457,17.0378214 L18.1274274,17.0121371 L20.233,16.591 Z M12,3.25 C8.54822031,3.25 5.75,6.04822031 5.75,9.5 C5.75,12.9517797 8.54822031,15.75 12,15.75 C15.4517797,15.75 18.25,12.9517797 18.25,9.5 C18.25,6.04822031 15.4517797,3.25 12,3.25 Z M15.625,6.5 C15.8735281,6.6863961 15.9437121,7.0223539 15.8042828,7.28898929 L15.75,7.375 L12,12.375 C11.79254,12.6516133 11.406083,12.7028843 11.1354715,12.5078591 L11.0580583,12.4419417 L8.55805826,9.94194174 C8.31398058,9.69786406 8.31398058,9.30213594 8.55805826,9.05805826 C8.7750162,8.84110032 9.1117967,8.81699388 9.35538188,8.98573895 L9.44194174,9.05805826 L11.432,11.049 L14.75,6.625 C14.9571068,6.34885763 15.3488576,6.29289322 15.625,6.5 Z" id="Certified-Ribbon" fill="currentColor"></path>
    </g>
</svg>