<?xml version="1.0" encoding="UTF-8"?>
<svg width="24px" height="24px" viewBox="0 0 24 24" version="1.1" xmlns="http://www.w3.org/2000/svg" xmlns:xlink="http://www.w3.org/1999/xlink">
    <title>Icon/Ecom/Cart</title>
    <g id="Icon/Ecom/Cart" stroke="none" stroke-width="1" fill="none" fill-rule="evenodd" fill-opacity="0.84">
        <path d="M7.33349574,17.2916667 C8.57225469,17.2916667 9.54182907,18.2971512 9.54121941,19.5276056 L9.54121941,19.5276056 L9.53329175,19.6931299 C9.43370046,20.8178428 8.49870589,21.7083333 7.33349574,21.7083333 C6.09473679,21.7083333 5.1251624,20.7028488 5.1251624,19.5 C5.1251624,18.2381554 6.0716511,17.2916667 7.33349574,17.2916667 Z M13.5834957,17.2916667 C14.8222547,17.2916667 15.7918291,18.2971512 15.7913156,19.5253355 L15.7913156,19.5253355 L15.7836367,19.7014733 C15.6878652,20.8693436 14.7692685,21.7083333 13.5834957,21.7083333 C12.3447368,21.7083333 11.3751624,20.7028488 11.3751624,19.5 C11.3751624,18.2381554 12.3216511,17.2916667 13.5834957,17.2916667 Z M7.33349574,18.5416667 C6.76200704,18.5416667 6.3751624,18.9285113 6.3751624,19.5 C6.3751624,20.0224599 6.79546897,20.4583333 7.33349574,20.4583333 C7.8400988,20.4583333 8.24477084,20.072923 8.28633763,19.6103974 L8.28633763,19.6103974 L8.29182907,19.5 C8.29182907,18.9775401 7.8715225,18.5416667 7.33349574,18.5416667 Z M13.5834957,18.5416667 C13.012007,18.5416667 12.6251624,18.9285113 12.6251624,19.5 C12.6251624,20.0224599 13.045469,20.4583333 13.5834957,20.4583333 C14.1208781,20.4583333 14.4954274,20.1162431 14.5362414,19.6250561 L14.5362414,19.6250561 L14.5418291,19.5 C14.5418291,18.9775401 14.1215225,18.5416667 13.5834957,18.5416667 Z M21.3334957,2.29166667 C21.6786737,2.29166667 21.9584957,2.5714887 21.9584957,2.91666667 C21.9584957,3.23046482 21.7272379,3.4902498 21.4258537,3.53489006 L21.3334957,3.54166667 L20.5001624,3.54166667 C19.9919137,3.54166667 19.5169707,3.87909657 19.316767,4.36326478 L19.2725795,4.48725352 L16.6764228,14.6976424 C16.4348419,15.422385 15.7610976,15.9695066 14.9891053,16.0350657 L14.8334957,16.0416667 L5.83349574,16.0416667 C5.01537202,16.0416667 4.31618007,15.5787672 4.03416337,14.828534 L3.98341073,14.6747083 L2.06674407,8.09137496 C1.97025534,7.75995716 2.16070298,7.41307039 2.49212078,7.31658166 C2.55036997,7.29962304 2.609097,7.29152809 2.66685842,7.29150432 L2.66682907,7.29166667 L17.2706667,7.29166667 L18.0681876,4.1537409 C18.3793756,3.11644784 19.2850997,2.37332764 20.3255801,2.29797785 L20.5001624,2.29166667 L21.3334957,2.29166667 Z M16.9526667,8.54166667 L3.49966667,8.54166667 L5.1844482,14.3282993 C5.25897846,14.5891552 5.45520334,14.7523847 5.72778636,14.7854375 L5.83349574,14.7916667 L14.8334957,14.7916667 C15.0858896,14.7916667 15.3363731,14.6221887 15.4442507,14.4222241 L15.4777453,14.3460798 L16.9526667,8.54166667 Z" id="Cart" fill="currentColor" transform="translate(12.000081, 12.000000) scale(-1, 1) translate(-12.000081, -12.000000) "></path>
    </g>
</svg>