<?xml version="1.0" encoding="UTF-8"?>
<svg width="24px" height="24px" viewBox="0 0 24 24" version="1.1" xmlns="http://www.w3.org/2000/svg" xmlns:xlink="http://www.w3.org/1999/xlink">
    <title>Icon/SBU/ZBM/Service</title>
    <g id="Icons" stroke="none" stroke-width="1" fill="none" fill-rule="evenodd">
        <g id="Overview" transform="translate(-537.000000, -874.000000)" fill="currentColor">
            <g id="Icons" transform="translate(368.500000, 100.000000)">
                <g id="Icon/SBU/ZBM/Service" transform="translate(168.500000, 774.000000)">
                    <path d="M15.8845848,13.1866092 L21.7647917,18.8316078 L21.7930167,18.8692411 C21.818184,18.9005238 21.8414696,18.9350995 21.8635792,18.9727328 C21.8918042,19.0261251 21.915325,19.0839863 21.9341417,19.1467869 C21.9590738,19.2220536 21.9734215,19.3003779 21.9764792,19.3819952 C21.9828298,19.4793714 21.9764792,19.5795701 21.9576625,19.6830618 C21.9357881,19.8023124 21.8965084,19.9229742 21.8400584,20.0452825 C21.7772578,20.1833498 21.6942292,20.3244747 21.5907376,20.4686574 C21.4778376,20.6255413 21.3397704,20.785483 21.176771,20.9484823 C21.0074211,21.1114816 20.8411288,21.2495489 20.6781295,21.3624489 C20.5306539,21.4659405 20.3848248,21.5492042 20.2406421,21.6117696 C20.1119832,21.6682196 19.9880284,21.7074994 19.869013,21.7293738 C19.7622285,21.7481904 19.658972,21.7545411 19.5585381,21.7481904 C19.4738631,21.7451327 19.3938923,21.7310202 19.3186257,21.7058529 C19.255825,21.6870363 19.1979638,21.6635155 19.1445715,21.6352905 C19.1038805,21.6134161 19.0676584,21.5898953 19.0363757,21.564728 L19.0363757,21.564728 L18.9987424,21.536503 L12.4740648,15.3034837 L13.7677104,14.0098382 C13.9088353,13.8687132 14.173915,13.7245305 14.5627143,13.5770549 C14.9232886,13.4389877 15.3638337,13.3089175 15.8845848,13.1866092 L15.8845848,13.1866092 Z M18.3166384,2.36232436 C18.520564,2.38419873 18.7289585,2.42042081 18.9422924,2.47052017 C19.1271661,2.5112112 19.3139215,2.56295702 19.5020881,2.62575763 C19.658972,2.675857 19.8156207,2.73395344 19.9725047,2.79981176 C20.094813,2.85014633 20.2154748,2.90494986 20.3347254,2.96445755 C20.4163427,3.00538379 20.4930206,3.04442836 20.5652295,3.08206169 L20.6499045,3.12910334 L17.4134386,4.540353 L17.3522845,5.42473611 L18.1190635,7.18879818 L22,5.54234025 L21.9623667,5.66464855 C21.9247334,5.77143311 21.8840423,5.88268663 21.8400584,5.9986443 C21.7742001,6.16187885 21.7036376,6.32487818 21.6283709,6.48787752 C21.5342876,6.69180309 21.4324424,6.88937804 21.3226002,7.08060237 C21.1972342,7.30334461 21.0638711,7.51503206 20.9227461,7.71566472 C20.7597468,7.94475758 20.5903968,8.15456336 20.4146962,8.34602289 C20.2138284,8.5593568 20.0068451,8.74916988 19.7937464,8.91522692 C19.5585381,9.09398521 19.3139215,9.24287205 19.0598966,9.36212265 L19.9395755,11.5401513 L19.7043672,11.5683763 C19.5004417,11.5966013 19.2887542,11.627884 19.0693049,11.6624596 C18.75883,11.7064435 18.4514127,11.7548964 18.1472884,11.8082887 C17.7678975,11.874147 17.4023838,11.9447095 17.0512179,12.0199762 C16.640309,12.1046511 16.2578604,12.1923838 15.9034015,12.2834094 C15.4957856,12.3869011 15.1302719,12.4950969 14.8073309,12.6079968 C14.4434637,12.7303052 14.1346353,12.8559064 13.8806103,12.9843301 C13.6014181,13.128748 13.3883194,13.2743419 13.2408438,13.4218175 L5.83178314,21.0660864 L5.75181233,21.1272406 C5.68595401,21.1775752 5.61539153,21.2260281 5.54012488,21.2730697 C5.43334032,21.338928 5.32373326,21.3984357 5.21083329,21.451828 C5.07276603,21.5209792 4.93328753,21.5757828 4.79216256,21.6164738 C4.62892802,21.6668084 4.46592868,21.6980911 4.30292935,21.7105571 C4.12087814,21.7263161 3.94376631,21.7184148 3.77135865,21.6870363 C3.5768414,21.649403 3.39032124,21.5835446 3.21156295,21.4894613 C3.01704571,21.382912 2.83123117,21.241787 2.65411934,21.0660864 C2.4767723,20.8906211 2.33658816,20.7055122 2.23309652,20.5109949 C2.13595551,20.3322366 2.07009719,20.1487742 2.03552157,19.9606075 C2.00094596,19.7879647 1.99177283,19.6124993 2.00729658,19.433741 C2.01976262,19.2770923 2.05128053,19.1185619 2.10137989,18.9586203 C2.14536384,18.820553 2.20016736,18.6841322 2.26602568,18.5493579 C2.31918275,18.4395156 2.38057211,18.3329663 2.44948814,18.2294746 C2.49652979,18.1575009 2.5449827,18.0883497 2.59531727,18.0224914 L2.65647142,17.9472247 L11.2415735,11.1308889 C11.614849,10.7672569 11.9596643,10.3170682 12.2764899,9.78079338 C12.5493315,9.31978516 12.8019452,8.79127216 13.0338605,8.1954896 C13.2220272,7.71566472 13.4021967,7.17938985 13.5748396,6.58666499 C13.6750383,6.24184966 13.8020508,5.76814019 13.955877,5.16600701 C14.0875936,4.64243339 14.1816769,4.29738285 14.2381269,4.1310906 C14.3416185,3.82367338 14.4484031,3.5854074 14.5580102,3.41605744 C14.6770255,3.23729915 14.8277941,3.09476294 15.0096101,2.98797838 C15.1756671,2.88777965 15.4094641,2.79510759 15.7105307,2.71043261 C15.905048,2.65704033 16.2672687,2.57236536 16.7971929,2.45640768 L16.9430221,2.42347852 C17.168822,2.37643686 17.4023838,2.34821187 17.6439427,2.33880354 C17.8633921,2.32939521 18.0875455,2.33715708 18.3166384,2.36232436 Z M3.97834193,18.2247705 C3.7586574,18.2779275 3.57213724,18.3816544 3.41854623,18.5352454 C3.26495523,18.710946 3.16052275,18.9059336 3.10571923,19.120914 C3.0509157,19.3358944 3.0509157,19.5473466 3.10571923,19.7559763 C3.16052275,19.9643709 3.26495523,20.1464221 3.41854623,20.3016595 C3.57213724,20.456897 3.7586574,20.5613295 3.97834193,20.6144865 C4.19473354,20.6678788 4.4094787,20.6678788 4.6228126,20.6144865 C4.84226192,20.5613295 5.02901729,20.4561914 5.1826083,20.2993075 C5.3361993,20.1457165 5.44063178,19.9643709 5.4954353,19.7559763 C5.55023883,19.5473466 5.55023883,19.3358944 5.4954353,19.120914 C5.44063178,18.9059336 5.3361993,18.710946 5.1826083,18.5352454 C5.02901729,18.3816544 4.84226192,18.2779275 4.6228126,18.2247705 C4.4094787,18.1713782 4.19473354,18.1713782 3.97834193,18.2247705 Z M14.5344893,15.0682754 L14.1816769,15.4210878 L19.2951048,20.3604616 L19.6479172,20.0076492 L14.5344893,15.0682754 Z M16.2373972,14.715463 L15.8845848,15.0682754 L20.2970921,19.3584744 L20.6499045,19.0056619 L16.2373972,14.715463 Z M3.35739208,2.24942439 L6.29749552,4.18754058 L7.0642745,5.95160265 L11.0628152,9.95014333 C10.8276069,10.263676 10.670723,10.4800676 10.5923986,10.5993182 L9.71271969,11.304943 L5.714179,7.3628523 L3.95011693,6.60077749 L2.00729658,3.66067405 L3.35739208,2.24942439 Z" id="Tools"></path>
                </g>
            </g>
        </g>
    </g>
</svg>
