<?xml version="1.0" encoding="UTF-8"?>
<svg width="24px" height="24px" viewBox="0 0 24 24" version="1.1" xmlns="http://www.w3.org/2000/svg" xmlns:xlink="http://www.w3.org/1999/xlink">
    <title>Icon/Essential/Edit</title>
    <g id="Icons" stroke="none" stroke-width="1" fill="none" fill-rule="evenodd">
        <g id="Overview" transform="translate(-1041.000000, -396.000000)" fill="currentColor">
            <g id="Icons" transform="translate(368.500000, 100.000000)">
                <g id="Icon/Essential/Edit" transform="translate(672.500000, 296.000000)">
                    <path d="M18.3268485,1.99986879 L18.5513931,2.00525149 C19.4456998,2.05418758 20.2941886,2.43012616 20.9341065,3.06732341 C21.6229308,3.7585998 22.0067964,4.69659881 22.0003536,5.67259816 C21.9935799,6.64848968 21.5970475,7.58120456 20.9041553,8.25792097 L20.9041553,8.25792097 L8.82082197,20.3412543 C8.74163627,20.42044 8.64262936,20.4768956 8.5341549,20.5047172 L8.5341549,20.5047172 L2.77998824,21.9805505 C2.31974058,22.0985952 1.90130568,21.6802172 2.01928783,21.2199535 L2.01928783,21.2199535 L3.49428783,15.4657868 C3.50253933,15.4335967 3.51331233,15.4022399 3.52645259,15.371987 C3.53088612,15.3623881 3.535401,15.3526293 3.54018104,15.3429683 C3.55051419,15.3217167 3.56216243,15.3012657 3.57493488,15.2815202 C3.58082896,15.2726051 3.58696347,15.2636214 3.59335835,15.2547674 C3.61271478,15.2278524 3.63423959,15.2025697 3.65777183,15.1790375 L3.65777183,15.1790375 L15.736094,3.10077279 C16.4182234,2.40290488 17.3509683,2.00655926 18.3268485,1.99986879 L18.3268485,1.99986879 Z M4.43211205,16.8348688 L3.49171357,20.5068541 L7.16611205,19.5628688 L4.43211205,16.8348688 Z M15.837112,4.76586879 L4.98311205,15.6188688 L8.38211205,19.0098688 L19.232112,8.16086879 L15.837112,4.76586879 Z M18.3353106,3.24978628 L18.1436798,3.25880268 C17.5718111,3.30845955 17.0336103,3.56159039 16.6249886,3.97958764 L16.723112,3.88486879 L20.115036,7.27662053 C20.4321824,6.93190198 20.6405782,6.50337889 20.7173359,6.0449347 L20.7413407,5.85579451 L20.7503542,5.66413444 C20.754594,5.02187206 20.5019664,4.40456121 20.0503831,3.9513636 C19.595192,3.49811222 18.9777176,3.24554641 18.3353106,3.24978628 L18.3353106,3.24978628 Z" id="Edit"></path>
                </g>
            </g>
        </g>
    </g>
</svg>
