<?xml version="1.0" encoding="UTF-8"?>
<svg width="24px" height="24px" viewBox="0 0 24 24" version="1.1" xmlns="http://www.w3.org/2000/svg" xmlns:xlink="http://www.w3.org/1999/xlink">
    <title>Icon/SBU/ZPS/Service</title>
    <g id="Icon/SBU/ZPS/Service" stroke="none" stroke-width="1" fill="none" fill-rule="evenodd" fill-opacity="0.84">
        <path d="M14.0819063,6.77715528 C14.0525687,6.95641215 14.0318901,7.0899178 14.0198708,7.17780148 C14.0025525,7.32772071 13.9940226,7.46213105 13.9940226,7.5810325 C13.9940226,8.07382733 14.0878514,8.54607289 14.2757674,8.99751069 C14.4567044,9.43524898 14.7133764,9.82297111 15.046042,10.1606771 C15.3785784,10.4985123 15.7611309,10.760354 16.1936995,10.9464606 C16.6416478,11.1377369 17.1113086,11.233375 17.6024233,11.233375 C17.9591276,11.233375 18.3101454,11.1799986 18.6557351,11.0731165 C19.0011955,10.9663637 19.3187399,10.8120503 19.6082391,10.6104348 L19.6082391,16.8501763 L17.6928918,16.8501763 L17.6928918,15.6921795 L16.8450727,15.6921795 L16.8450727,16.7597078 C16.8450727,16.8631004 16.8225848,16.9631327 16.7778675,17.0595462 C16.733021,17.156089 16.674475,17.2336335 16.6021002,17.2921795 C16.5245557,17.3542151 16.4418417,17.3852328 16.3538288,17.3852328 L9.09063005,17.3852328 L7.57592892,15.824005 L6.32746365,15.824005 C6.21024233,15.824005 6.10426494,15.7878176 6.00940226,15.7154428 C5.91466882,15.643068 5.84061389,15.543165 5.78723748,15.4156044 C5.7320517,15.2846836 5.70452342,15.1390293 5.70452342,14.9787708 L5.70452342,13.5958952 L5.21340872,13.5958952 L5.21340872,15.6456529 L4.5,15.6456529 L4.5,9.00526513 L5.16933764,9.00526513 L5.16933764,11.1015495 L5.61405493,11.1015495 L5.61405493,10.2537304 C5.61405493,10.0969614 5.6450727,9.95130714 5.70710824,9.8168968 C5.76397415,9.69114559 5.84061389,9.59163024 5.9371567,9.51835076 C6.03369952,9.44520051 6.13437803,9.40849615 6.23957997,9.40849615 L7.44151858,9.40849615 L7.44151858,8.64856077 C7.44151858,8.54684833 7.46387722,8.44784995 7.50872375,8.35130714 C7.55357027,8.25489357 7.613021,8.17734914 7.68707593,8.11867386 C7.76462036,8.05663832 7.84642973,8.02562055 7.93263328,8.02562055 L10.4733764,8.02562055 L10.4733764,7.490564 L8.46768982,7.490564 L8.46768982,6.77715528 L14.0819063,6.77715528 Z M12.9237803,9.71867386 L11.4970921,9.71867386 L9.53780291,13.3736012 L12.4327948,13.3736012 L11.3626817,16.3151197 L14.2161874,12.1251359 L11.6754443,12.1251359 L12.9237803,9.71867386 Z M17.7355412,4.72739761 C18.1086591,4.72739761 18.4657512,4.80067709 18.8069467,4.94710681 C19.1378029,5.08668678 19.4311793,5.28442507 19.6870759,5.54032168 C19.9429725,5.79621828 20.1407108,6.0895947 20.2802908,6.42045092 C20.4267205,6.76164639 20.5,7.11835076 20.5,7.490564 C20.5,7.86277725 20.4267205,8.22206643 20.2802908,8.56843153 C20.1407108,8.90445738 19.9424556,9.20300342 19.6857835,9.46406966 C19.4289822,9.72513589 19.1361228,9.92804381 18.8069467,10.0727934 C18.4640711,10.2227126 18.1073667,10.2976722 17.7368336,10.2976722 C17.3646204,10.2976722 17.007916,10.2252974 16.6667205,10.0805478 C16.3358643,9.93747838 16.0424879,9.73676756 15.7865913,9.47828614 C15.5306947,9.21980471 15.3329564,8.92255108 15.1933764,8.58652523 C15.0468174,8.23848 14.9736672,7.87311651 14.9736672,7.490564 C14.9736672,7.1080115 15.0468174,6.74536206 15.1933764,6.40235722 C15.3329564,6.06982087 15.5301777,5.7772199 15.7852989,5.52481279 C16.0402908,5.27240568 16.3340549,5.07725221 16.6667205,4.93935237 C17.0061066,4.79809227 17.3624233,4.72739761 17.7355412,4.72739761 Z M17.7368336,5.17457047 C17.4198061,5.17457047 17.1173829,5.23660601 16.8295638,5.36067709 C16.552084,5.47957854 16.3069144,5.64720374 16.0941842,5.86342345 C15.8813247,6.0797724 15.7164136,6.32571748 15.5991922,6.60138791 C15.4784814,6.88752685 15.4182553,7.1838758 15.4182553,7.490564 C15.4182553,7.79738145 15.4811955,8.09631521 15.6069467,8.38749454 C15.7258481,8.66665447 15.8938611,8.91738145 16.1109855,9.13967547 C16.3281099,9.3619695 16.5736672,9.53515205 16.8476575,9.65922313 C17.1353473,9.78846384 17.4322132,9.8530842 17.7379968,9.8530842 C18.0440388,9.8530842 18.34,9.79027321 18.6260097,9.66439276 C18.9016801,9.54381118 19.1477544,9.37398888 19.3639742,9.15518436 C19.5801939,8.93637984 19.7478191,8.68655754 19.8667205,8.40558824 C19.9907916,8.11272879 20.0528271,7.80810843 20.0528271,7.49185641 C20.0528271,7.17573363 19.9907916,6.87279341 19.8667205,6.58329421 C19.7478191,6.30762378 19.5801939,6.06284187 19.3639742,5.84920698 C19.1477544,5.63557208 18.9016801,5.47014397 18.6260097,5.35292265 C18.34,5.23402119 18.0435218,5.17457047 17.7368336,5.17457047 Z M18.7164782,5.97586287 L18.0934087,6.5988031 L18.538126,7.04597596 L19.1636511,6.42045092 C19.220517,6.53767224 19.25063,6.66342345 19.2541195,6.79783379 C19.2574798,6.9270745 19.2355089,7.05282572 19.1882068,7.17521667 C19.1407754,7.29760762 19.0731826,7.40268032 18.9852989,7.490564 C18.8974152,7.57844769 18.7966074,7.64694526 18.6828756,7.69605673 C18.5691438,7.7451682 18.4532149,7.77140407 18.3352181,7.77489357 C18.2170921,7.77838307 18.106462,7.75770455 18.0030695,7.71285803 L16.7106624,9.00526513 C16.6881745,9.02775302 16.6585784,9.03886772 16.6214863,9.03886772 C16.5843942,9.03886772 16.5546688,9.02775302 16.5323102,9.00526513 L16.2221325,8.69508743 C16.1927948,8.67957854 16.173021,8.66058016 16.1626817,8.63822152 C16.1523425,8.61586287 16.1523425,8.59337499 16.1626817,8.57101635 C16.173021,8.5486577 16.1927948,8.530564 16.2221325,8.51673525 L17.4240711,7.13385964 C17.358546,6.95809227 17.345622,6.784522 17.3852989,6.61301958 C17.4249758,6.44151715 17.5118255,6.28862539 17.6462359,6.15421505 C17.8066236,6.01631521 17.9798061,5.93101635 18.1659128,5.89831845 C18.3588691,5.86213105 18.542391,5.88797919 18.7164782,5.97586287 Z" id="Gear-Box" fill="currentColor"></path>
    </g>
</svg>