<?xml version="1.0" encoding="UTF-8"?>
<svg width="24px" height="24px" viewBox="0 0 24 24" version="1.1" xmlns="http://www.w3.org/2000/svg" xmlns:xlink="http://www.w3.org/1999/xlink">
    <title>Icon/Essential/Sort</title>
    <g id="Icon/Essential/Sort" stroke="none" stroke-width="1" fill="none" fill-rule="evenodd" fill-opacity="0.84">
        <path d="M9.5,10.125 C9.81379815,10.125 10.0735831,10.3562579 10.1182234,10.6576421 L10.125,10.75 L10.125,19.867 L11.5580583,18.4330583 C11.7750162,18.2161003 12.1117967,18.1919939 12.3553819,18.3607389 L12.4419417,18.4330583 C12.6588997,18.6500162 12.6830061,18.9867967 12.5142611,19.2303819 L12.4419417,19.3169417 L9.94194174,21.8169417 C9.9128237,21.8460598 9.88154736,21.8717041 9.84862768,21.8938747 L9.77691366,21.935462 L9.73469629,21.9544346 L9.64069562,21.9840436 L9.53934407,21.9987681 L9.5,22 C9.45150392,22 9.40429791,21.9944766 9.35897674,21.9840245 L9.2648588,21.9542582 L9.186489,21.9158014 L9.12887128,21.8779304 L9.05805826,21.8169417 L6.55805826,19.3169417 C6.31398058,19.0728641 6.31398058,18.6771359 6.55805826,18.4330583 C6.7750162,18.2161003 7.1117967,18.1919939 7.35538188,18.3607389 L7.44194174,18.4330583 L8.875,19.867 L8.875,10.75 C8.875,10.404822 9.15482203,10.125 9.5,10.125 Z M14.4320962,2.00364612 L14.5,2 C14.5484961,2 14.5957021,2.00552343 14.6410233,2.01597553 L14.7351412,2.04574176 L14.813511,2.08419863 L14.8711287,2.12206963 L14.9419417,2.18305826 L17.4419417,4.68305826 C17.6860194,4.92713594 17.6860194,5.32286406 17.4419417,5.56694174 C17.2249838,5.78389968 16.8882033,5.80800612 16.6446181,5.63926105 L16.5580583,5.56694174 L15.125,4.133 L15.125,13.25 C15.125,13.595178 14.845178,13.875 14.5,13.875 C14.1862018,13.875 13.9264169,13.6437421 13.8817766,13.3423579 L13.875,13.25 L13.875,4.133 L12.4419417,5.56694174 C12.2249838,5.78389968 11.8882033,5.80800612 11.6446181,5.63926105 L11.5580583,5.56694174 C11.3411003,5.3499838 11.3169939,5.0132033 11.4857389,4.76961812 L11.5580583,4.68305826 L14.0580583,2.18305826 C14.0871763,2.15394022 14.1184526,2.12829591 14.1513723,2.10612534 L14.2230863,2.06453804 L14.2653037,2.04556537 L14.3593044,2.01595637 L14.4320962,2.00364612 Z" id="Sort" fill="currentColor"></path>
    </g>
</svg>