<?xml version="1.0" encoding="UTF-8"?>
<svg width="24px" height="24px" viewBox="0 0 24 24" version="1.1" xmlns="http://www.w3.org/2000/svg" xmlns:xlink="http://www.w3.org/1999/xlink">
    <title>Icon/Communication/Email Check</title>
    <g id="Icon/Communication/Email-Check" stroke="none" stroke-width="1" fill="none" fill-rule="evenodd" fill-opacity="0.84">
        <path d="M16.375,10.75 C19.4816017,10.75 22,13.2683983 22,16.375 C22,19.4816017 19.4816017,22 16.375,22 C13.2683983,22 10.75,19.4816017 10.75,16.375 C10.75,13.2683983 13.2683983,10.75 16.375,10.75 Z M16.375,12 C13.9587542,12 12,13.9587542 12,16.375 C12,18.7912458 13.9587542,20.75 16.375,20.75 C18.7912458,20.75 20.75,18.7912458 20.75,16.375 C20.75,13.9587542 18.7912458,12 16.375,12 Z M18.978354,14.4216822 C19.2268744,14.6080885 19.2970445,14.9440492 19.1576042,15.2106789 L19.1033178,15.2966873 L16.6818282,18.5250608 C16.4642147,18.814133 16.1321552,18.994892 15.7712532,19.0207391 C15.4554639,19.0433553 15.1446301,18.9454306 14.8991076,18.748839 L14.7980583,18.6586084 L13.5480583,17.4086084 C13.3039806,17.1645307 13.3039806,16.7688026 13.5480583,16.5247249 C13.7650162,16.307767 14.1017967,16.2836606 14.3453819,16.4524056 L14.4319417,16.5247249 L15.6825155,17.774146 L18.1033488,14.546646 C18.310467,14.2705122 18.7022202,14.214564 18.978354,14.4216822 Z M18.875,2 C19.4628179,2 19.9874582,2.27049556 20.3312374,2.69380324 C20.3334575,2.69655214 20.3356929,2.69940756 20.3379081,2.70228763 C20.5693453,2.9929615 20.7146787,3.3445075 20.7443588,3.72846985 L20.75,3.875 L20.75,9.5 C20.75,9.84517797 20.470178,10.125 20.125,10.125 C19.8112018,10.125 19.5514169,9.89374212 19.5067766,9.59235792 L19.5,9.5 L19.5,4.134 L13.4369171,8.79871216 C12.2765936,9.69132282 10.6815542,9.73189603 9.48174415,8.92045724 L9.31312096,8.79874142 L3.25,4.135 L3.25,13.875 C3.25,14.1887982 3.48125788,14.4485831 3.78264208,14.4932234 L3.875,14.5 L8.875,14.5 C9.22017797,14.5 9.5,14.779822 9.5,15.125 C9.5,15.4387982 9.26874212,15.6985831 8.96735792,15.7432234 L8.875,15.75 L3.875,15.75 C2.88877723,15.75 2.08039375,14.9885795 2.00564118,14.0215301 L2,13.875 L2,3.875 C2,3.43494345 2.15159731,3.03029435 2.40541632,2.7104283 C2.40766475,2.70809496 2.40986367,2.70518463 2.41209192,2.70228763 L2.42225481,2.68951601 C2.73714764,2.3040939 3.20238059,2.04630769 3.72846985,2.00564118 L3.875,2 L18.875,2 Z M18.599,3.25 L4.15,3.25 L10.0752504,7.8079545 C10.7936106,8.36057275 11.7762988,8.3951114 12.5277314,7.91154632 L12.6747876,7.80792525 L18.599,3.25 Z" id="Email-Check" fill="currentColor"></path>
    </g>
</svg>