<?xml version="1.0" encoding="UTF-8"?>
<svg width="24px" height="24px" viewBox="0 0 24 24" version="1.1" xmlns="http://www.w3.org/2000/svg" xmlns:xlink="http://www.w3.org/1999/xlink">
    <title>Icon/Essential/Settings</title>
    <g id="Icons" stroke="none" stroke-width="1" fill="none" fill-rule="evenodd">
        <g id="Overview" transform="translate(-1125.000000, -450.000000)" fill="currentColor">
            <g id="Icons" transform="translate(368.500000, 100.000000)">
                <g id="Icon/Essential/Settings" transform="translate(756.500000, 350.000000)">
                    <path d="M16.0754651,2.17559053 C16.9057732,2.51964488 17.4478011,3.32037502 17.4682079,4.20838743 L17.4658645,4.37582241 L17.4067114,5.54222025 C17.3924342,5.8261601 17.4988845,6.10289821 17.699767,6.30407453 C17.871952,6.47651137 18.0997531,6.57965072 18.3394019,6.59690747 L18.4600109,6.59830218 L19.6275576,6.53909151 C20.5806192,6.49210458 21.4602922,7.04942511 21.8249112,7.93123419 C22.1667415,8.7579302 21.9866665,9.70241394 21.3791515,10.3447559 L21.2519773,10.4690713 L20.3839364,11.2521407 C20.1722783,11.443322 20.0514871,11.7151985 20.0514871,12.0004167 C20.0514871,12.2448894 20.1402317,12.4795601 20.2986922,12.6618474 L20.383644,12.7484287 L21.2523482,13.5320969 C21.9608942,14.1723125 22.1899672,15.1890961 21.8244095,16.0712984 C21.4803551,16.9016065 20.679625,17.4436344 19.7916126,17.4640412 L19.6241776,17.4616978 L18.4570595,17.4025081 C18.1724763,17.3878693 17.8950215,17.494528 17.6935247,17.6960247 C17.5208132,17.8687362 17.4177787,18.0972537 17.4010981,18.3385167 L17.4000311,18.4600109 L17.4593807,19.6305161 C17.5016454,20.5791845 16.9457155,21.4528808 16.0684679,21.8164666 C15.2460483,22.1573283 14.3060785,21.9815235 13.661257,21.3786802 L13.5363503,21.2524442 L12.7519487,20.3846842 C12.5609211,20.1731178 12.2892139,20.0523718 12.0041667,20.0523718 C11.7598405,20.0523718 11.5253151,20.1410831 11.3422912,20.3004399 L11.2552641,20.3859218 L10.4673068,21.253925 C9.8270463,21.9576879 8.81427825,22.1844904 7.93501675,21.8210142 C7.10747651,21.4789189 6.5654029,20.6830673 6.54095328,19.7953373 L6.54249156,19.6278996 L6.60249191,18.4612262 C6.61713069,18.176643 6.510472,17.8991882 6.30897525,17.6976914 C6.13626375,17.5249799 5.90774632,17.4219454 5.66648334,17.4052647 L5.54498908,17.4041978 L4.37924405,17.4633171 C3.42578682,17.5130825 2.54418702,16.9574402 2.17776377,16.0757989 C1.83424198,15.2492602 2.01321175,14.3039017 2.62063219,13.6606304 L2.74780109,13.5361287 L3.61523028,12.7528593 C3.82688837,12.561678 3.94767957,12.2898015 3.94767957,12.0045833 C3.94767957,11.7601106 3.85893502,11.5254399 3.69956484,11.3423294 L3.61407817,11.2552641 L2.74674889,10.4679191 C2.04126763,9.82797108 1.81354942,8.8139818 2.177652,7.93383037 C2.52033677,7.10545255 3.31780864,6.56352614 4.20514876,6.54062392 L4.37248908,6.54246885 L5.54031452,6.60169536 C5.82544794,6.61668647 6.10353408,6.50988844 6.30533424,6.30789217 C6.47830581,6.1347525 6.58128139,5.90563397 6.59744428,5.66190967 L6.59821348,5.53902191 L6.54235334,4.3709561 C6.49774414,3.42009727 7.05437007,2.54342828 7.93388937,2.17932898 C8.75843871,1.83798589 9.70065702,2.01591476 10.3437605,2.6205471 L10.4682695,2.74713553 L11.252692,3.61334145 C11.4434299,3.82506858 11.7150275,3.94595007 12,3.94595007 C12.2442621,3.94595007 12.4786978,3.85713918 12.6623333,3.69675015 L12.749728,3.61067058 L13.5362635,2.74765177 C14.1764791,2.03910578 15.1932628,1.81003278 16.0754651,2.17559053 Z M14.5529561,3.49873164 L14.4619386,3.58766275 L13.6760254,4.44999188 C13.2482479,4.92484304 12.6391222,5.19595007 12,5.19595007 C11.42479,5.19595007 10.8738772,4.97635337 10.458391,4.58714666 L10.3250638,4.45119781 L9.54266197,3.58722409 C9.25680023,3.27296319 8.8045296,3.17178172 8.41200881,3.33427565 C8.05874009,3.48052019 7.82219572,3.81205611 7.7929134,4.18584603 L7.79095319,4.31181142 L7.8466058,5.4757459 C7.88083255,6.11490278 7.64202672,6.7385268 7.18964689,7.19134626 C6.78250504,7.59888378 6.23684353,7.83356082 5.66665801,7.85196579 L5.47584425,7.85003115 L4.31099371,7.79095394 C3.88658609,7.77066814 3.49513942,8.01903734 3.33271848,8.41166028 C3.18653963,8.76502093 3.25420303,9.16674112 3.49874195,9.4517733 L3.58675516,9.54223585 L4.45310306,10.3286926 C4.92714721,10.7568754 5.19767957,11.3657889 5.19767957,12.0045833 C5.19767957,12.5794984 4.97854836,13.1302098 4.58909231,13.5467948 L4.45303224,13.680538 L3.58608111,14.4633751 C3.27031685,14.7491826 3.16858431,15.2027768 3.33204048,15.5960643 C3.47915102,15.9500231 3.81241,16.1861889 4.18832347,16.2136643 L4.31501092,16.2149689 L5.48122617,16.1558252 C6.11918251,16.1230092 6.74115906,16.3621083 7.19285873,16.8138079 C7.59938843,17.2203376 7.83371168,17.7647916 7.85258836,18.3346824 L7.85084177,18.5254338 L7.79101117,19.6886171 C7.77156928,20.1127848 8.0201513,20.503612 8.41255704,20.6658279 C8.76572221,20.8118222 9.16714933,20.7444337 9.45187562,20.5008967 L9.54223585,20.4132448 L10.3286154,19.5469825 C10.7566499,19.0729267 11.3654629,18.8023718 12.0041667,18.8023718 C12.579,18.8023718 13.1296219,19.0215213 13.5458639,19.4107483 L13.6794831,19.5467225 L14.4609945,20.4113037 C14.7471653,20.7238958 15.1983618,20.8239835 15.5898687,20.6617187 C15.942225,20.5156804 16.1784265,20.1852397 16.2085259,19.8147653 L16.2108022,19.6899891 L16.1516586,18.5237738 C16.1188425,17.8858175 16.3579416,17.2638409 16.8096413,16.8121413 C17.216171,16.4056116 17.7606249,16.1712883 18.3301915,16.1523951 L18.5208224,16.1541355 L19.6876224,16.213309 C20.1132518,16.2349856 20.5064789,15.9865087 20.6696237,15.5927904 C20.8164541,15.2384441 20.7483284,14.8354472 20.502983,14.5503441 L20.4146893,14.4599047 L19.5460636,13.6763074 C19.0720195,13.2481246 18.8014871,12.6392111 18.8014871,12.0004167 C18.8014871,11.4255016 19.0206183,10.8747902 19.4102359,10.4580594 L19.546356,10.324262 L20.4142622,9.54131431 C20.7302055,9.25577025 20.8324922,8.80241741 20.6697664,8.40887471 C20.5233131,8.05468628 20.1906704,7.81779884 19.8161735,7.78921815 L19.6899891,7.78753115 L18.5221412,7.8467566 C17.8855809,7.87783175 17.2655605,7.63829315 16.8152378,7.18731181 C16.4099474,6.78142861 16.1761264,6.23834069 16.156757,5.66956712 L16.1583022,5.47917759 L16.2174756,4.31237758 C16.2391523,3.88674818 15.9906753,3.49352109 15.5969571,3.33037627 C15.2426107,3.18354593 14.8396139,3.25167164 14.5529561,3.49873164 Z M12,7.62583333 C14.4162458,7.62583333 16.375,9.58458755 16.375,12.0008333 C16.375,14.4170791 14.4162458,16.3758333 12,16.3758333 C9.58375422,16.3758333 7.625,14.4170791 7.625,12.0008333 C7.625,9.58458755 9.58375422,7.62583333 12,7.62583333 Z M12,8.87583333 C10.2741102,8.87583333 8.875,10.2749435 8.875,12.0008333 C8.875,13.7267232 10.2741102,15.1258333 12,15.1258333 C13.7258898,15.1258333 15.125,13.7267232 15.125,12.0008333 C15.125,10.2749435 13.7258898,8.87583333 12,8.87583333 Z" id="Settings"></path>
                </g>
            </g>
        </g>
    </g>
</svg>
