<?xml version="1.0" encoding="UTF-8"?>
<svg width="24px" height="24px" viewBox="0 0 24 24" version="1.1" xmlns="http://www.w3.org/2000/svg" xmlns:xlink="http://www.w3.org/1999/xlink">
    <title>Icon/Essential/Star Filled</title>
    <g id="Icons" stroke="none" stroke-width="1" fill="none" fill-rule="evenodd">
        <g id="Overview" transform="translate(-1461.000000, -450.000000)" fill="currentColor">
            <g id="Icons" transform="translate(368.500000, 100.000000)">
                <g id="Icon/Essential/Star-Filled" transform="translate(1092.500000, 350.000000)">
                    <path d="M11.8542011,2.01167774 C11.42163,2.06012611 11.0374703,2.32202467 10.8361813,2.71515877 L8.205,7.932 L3.18005059,8.43054465 C2.68597217,8.47152368 2.2524302,8.8027149 2.079509,9.27790235 L2.0395543,9.40874113 C1.93025964,9.84842607 2.05853084,10.3178178 2.38504244,10.6414171 L6.545,14.761 L5.0049159,20.3574496 C4.87186628,20.8583931 5.0431623,21.3849567 5.441059,21.708183 L5.55317544,21.7897836 C5.93828036,22.0398792 6.43108165,22.070243 6.84744156,21.860882 L12,19.308 L17.1634887,21.865927 C17.6180543,22.0945124 18.1685443,22.0347426 18.566441,21.7115163 L18.6692828,21.6184984 C18.9929794,21.2928082 19.1236729,20.816684 19.0040652,20.3662602 L17.462,14.764 L21.6191358,10.6447389 C21.978287,10.2887912 22.0975789,9.75642314 21.9246577,9.28123569 L21.8711786,9.15531844 C21.6723289,8.74822267 21.2723822,8.47105003 20.8142588,8.4329802 L15.798,7.936 L13.1654524,2.71837247 C12.9401643,2.2783431 12.4907435,2.00354662 12,2.00354662 L11.8542011,2.01167774 Z" id="Star"></path>
                </g>
            </g>
        </g>
    </g>
</svg>
