<?xml version="1.0" encoding="UTF-8"?>
<svg width="24px" height="24px" viewBox="0 0 24 24" version="1.1" xmlns="http://www.w3.org/2000/svg" xmlns:xlink="http://www.w3.org/1999/xlink">
    <title>Icon/Ecom/Cart Add</title>
    <g id="Icon/Ecom/Cart-Add" stroke="none" stroke-width="1" fill="none" fill-rule="evenodd" fill-opacity="0.84">
        <path d="M7.31266346,17.2858333 C8.52078635,17.2858333 9.50016346,18.2652104 9.50016346,19.4733333 C9.50016346,20.6814562 8.52078635,21.6608333 7.31266346,21.6608333 C6.10454057,21.6608333 5.12516346,20.6814562 5.12516346,19.4733333 C5.12516346,18.2652104 6.10454057,17.2858333 7.31266346,17.2858333 Z M13.5626635,17.2858333 C14.7707863,17.2858333 15.7501635,18.2652104 15.7501635,19.4733333 C15.7501635,20.6814562 14.7707863,21.6608333 13.5626635,21.6608333 C12.3545406,21.6608333 11.3751635,20.6814562 11.3751635,19.4733333 C11.3751635,18.2652104 12.3545406,17.2858333 13.5626635,17.2858333 Z M7.31266346,18.5358333 C6.7948965,18.5358333 6.37516346,18.9555664 6.37516346,19.4733333 C6.37516346,19.9911003 6.7948965,20.4108333 7.31266346,20.4108333 C7.83043041,20.4108333 8.25016346,19.9911003 8.25016346,19.4733333 C8.25016346,18.9555664 7.83043041,18.5358333 7.31266346,18.5358333 Z M13.5626635,18.5358333 C13.0448965,18.5358333 12.6251635,18.9555664 12.6251635,19.4733333 C12.6251635,19.9911003 13.0448965,20.4108333 13.5626635,20.4108333 C14.0804304,20.4108333 14.5001635,19.9911003 14.5001635,19.4733333 C14.5001635,18.9555664 14.0804304,18.5358333 13.5626635,18.5358333 Z M21.3751635,2.33833321 C21.7203414,2.33833321 22.0001635,2.61815524 22.0001635,2.96333321 C22.0001635,3.27713136 21.7689056,3.53691635 21.4675214,3.58155661 L21.3751635,3.58833321 L20.5099388,3.58833317 C19.9872869,3.5881453 19.5248522,3.91247552 19.3421518,4.39269257 L19.3024315,4.51589689 L16.6040046,14.6445813 C16.3981751,15.4153708 15.7299002,15.9655921 14.9472764,16.0295978 L14.7893301,16.0358375 L5.77465176,16.0358375 C4.97816214,16.0362472 4.27472762,15.5345355 4.01294867,14.8084613 L3.96658491,14.6603373 L2.02575158,8.0878373 C1.92799499,7.75679126 2.11711345,7.40917805 2.44815949,7.31142146 C2.74610093,7.22344053 3.05746177,7.36782839 3.18801908,7.63891833 L3.22457533,7.73382937 L5.16983738,14.3220834 C5.2347839,14.5652919 5.43787696,14.7426678 5.68133305,14.7789797 L5.77433012,14.7858373 L14.7909013,14.7858393 C15.0430473,14.7864732 15.2674667,14.636098 15.3655585,14.4104394 L15.3962287,14.3224364 L18.0945641,4.19409519 C18.3708492,3.1570998 19.2751786,2.41901313 20.3325919,2.34453855 L20.5101635,2.33833321 L21.3751635,2.33833321 Z M10.1251635,6.66083333 C10.4389616,6.66083333 10.6987466,6.89209121 10.7433869,7.19347541 L10.7501635,7.28583333 L10.75,9.16033321 L12.6251635,9.16083333 C12.9703414,9.16083333 13.2501635,9.44065536 13.2501635,9.78583333 C13.2501635,10.0996315 13.0189056,10.3594165 12.7175214,10.4040567 L12.6251635,10.4108333 L10.75,10.4103332 L10.7501635,12.2858333 C10.7501635,12.6310113 10.4703414,12.9108333 10.1251635,12.9108333 C9.8113653,12.9108333 9.55158032,12.6795755 9.50694006,12.3781913 L9.50016346,12.2858333 L9.5,10.4103332 L7.62516346,10.4108333 C7.27998549,10.4108333 7.00016346,10.1310113 7.00016346,9.78583333 C7.00016346,9.47203518 7.23142133,9.2122502 7.53280554,9.16760994 L7.62516346,9.16083333 L9.5,9.16033321 L9.50016346,7.28583333 C9.50016346,6.94065536 9.77998549,6.66083333 10.1251635,6.66083333 Z" id="Cart-Add" fill="currentColor" transform="translate(12.000082, 11.999583) scale(-1, 1) translate(-12.000082, -11.999583) "></path>
    </g>
</svg>