<?xml version="1.0" encoding="UTF-8"?>
<svg width="24px" height="24px" viewBox="0 0 24 24" version="1.1" xmlns="http://www.w3.org/2000/svg" xmlns:xlink="http://www.w3.org/1999/xlink">
    <title>Icon/Ecom/Award Star Head</title>
    <g id="Icon/Ecom/Award-Star-Head" stroke="none" stroke-width="1" fill="none" fill-rule="evenodd" fill-opacity="0.84">
        <path d="M13.25,17.625 C13.5637982,17.625 13.8235831,17.8562579 13.8682234,18.1576421 L13.875,18.25 L13.875,20.75 L16.375,20.75 C16.6887982,20.75 16.9485831,20.9812579 16.9932234,21.2826421 L17,21.375 C17,21.6887982 16.7687421,21.9485831 16.4673579,21.9932234 L16.375,22 L13.25,22 C12.9362018,22 12.6764169,21.7687421 12.6317766,21.4673579 L12.625,21.375 L12.625,18.25 C12.625,17.904822 12.904822,17.625 13.25,17.625 Z M10.75,17.625 C11.0637982,17.625 11.3235831,17.8562579 11.3682234,18.1576421 L11.375,18.25 L11.375,21.375 C11.375,21.6887982 11.1437421,21.9485831 10.8423579,21.9932234 L10.75,22 L7.625,22 C7.27982203,22 7,21.720178 7,21.375 C7,21.0612018 7.23125788,20.8014169 7.53264208,20.7567766 L7.625,20.75 L10.125,20.75 L10.125,18.25 C10.125,17.9362018 10.3562579,17.6764169 10.6576421,17.6317766 L10.75,17.625 Z M15.75,14.5 C16.0637982,14.5 16.3235831,14.7312579 16.3682234,15.0326421 L16.375,15.125 L16.375,17.625 L18.875,17.625 C19.1887982,17.625 19.4485831,17.8562579 19.4932234,18.1576421 L19.5,18.25 C19.5,18.5637982 19.2687421,18.8235831 18.9673579,18.8682234 L18.875,18.875 L15.75,18.875 C15.4362018,18.875 15.1764169,18.6437421 15.1317766,18.3423579 L15.125,18.25 L15.125,15.125 C15.125,14.779822 15.404822,14.5 15.75,14.5 Z M8.25,14.5 C8.56379815,14.5 8.82358314,14.7312579 8.8682234,15.0326421 L8.875,15.125 L8.875,18.25 C8.875,18.5637982 8.64374212,18.8235831 8.34235792,18.8682234 L8.25,18.875 L5.125,18.875 C4.77982203,18.875 4.5,18.595178 4.5,18.25 C4.5,17.9362018 4.73125788,17.6764169 5.03264208,17.6317766 L5.125,17.625 L7.625,17.625 L7.625,15.125 C7.625,14.8112018 7.85625788,14.5514169 8.15764208,14.5067766 L8.25,14.5 Z M18.25,12 C18.5637982,12 18.8235831,12.2312579 18.8682234,12.5326421 L18.875,12.625 L18.875,14.2406507 L20.3080583,12.8080583 C20.5521359,12.5639806 20.9478641,12.5639806 21.1919417,12.8080583 C21.4088997,13.0250162 21.4330061,13.3617967 21.2642611,13.6053819 L21.1919417,13.6919417 L19.758,15.1246507 L21.375,15.125 C21.6887982,15.125 21.9485831,15.3562579 21.9932234,15.6576421 L22,15.75 C22,16.0637982 21.7687421,16.3235831 21.4673579,16.3682234 L21.375,16.375 L18.25,16.375 L18.2245928,16.3744866 C18.2075167,16.3737961 18.1904636,16.3724093 18.1734795,16.3703261 L18.25,16.375 C18.205069,16.375 18.1612454,16.3702588 18.1190021,16.3612494 C18.1020828,16.3575912 18.0850249,16.3532032 18.068141,16.3480853 C18.0513063,16.343017 18.0347948,16.3372221 18.0186163,16.3307708 C18.00515,16.3254233 17.9912191,16.3193014 17.9774815,16.3126469 C17.9559141,16.3021126 17.935794,16.2908831 17.9163958,16.2786154 C17.906913,16.2726998 17.8969847,16.2660328 17.8872123,16.2590505 C17.8605663,16.2399646 17.8354709,16.2188926 17.8121616,16.1960076 C17.8105851,16.194458 17.8093196,16.1932031 17.8080583,16.1919417 C17.7954526,16.1791669 17.7865523,16.169545 17.777958,16.1596503 L17.8080583,16.1919417 C17.7116325,16.095516 17.6533009,15.9754216 17.6330634,15.8503597 L17.6317766,15.8423579 L17.625,15.75 L17.625,12.625 C17.625,12.279822 17.904822,12 18.25,12 Z M2.625,16.375 C2.27982203,16.375 2,16.095178 2,15.75 C2,15.4362018 2.23125788,15.1764169 2.53264208,15.1317766 L2.625,15.125 L4.241,15.1246507 L2.80805826,13.6919417 C2.56398058,13.4478641 2.56398058,13.0521359 2.80805826,12.8080583 C3.0250162,12.5911003 3.3617967,12.5669939 3.60538188,12.7357389 L3.69194174,12.8080583 L5.125,14.2416507 L5.125,12.625 C5.125,12.3112018 5.35625788,12.0514169 5.65764208,12.0067766 L5.75,12 C6.06379815,12 6.32358314,12.2312579 6.3682234,12.5326421 L6.375,12.625 L6.375,15.75 L6.37406994,15.7841897 C6.37335525,15.7973156 6.37222865,15.8104232 6.37069015,15.8234915 L6.375,15.75 C6.375,15.7963688 6.36995051,15.8415582 6.36037142,15.8850484 C6.35728311,15.8988475 6.35368515,15.9128854 6.34959284,15.9268089 C6.34396734,15.946058 6.3374553,15.9647671 6.33010414,15.9830485 C6.32442757,15.9972064 6.31806469,16.011512 6.31113839,16.0256108 C6.30213496,16.0438522 6.29220089,16.0617548 6.2814421,16.0790921 C6.2744481,16.0904706 6.26697995,16.1016858 6.25911108,16.1127029 C6.17516676,16.2302415 6.05153787,16.3175216 5.90778339,16.354913 C5.88703923,16.3602593 5.8658037,16.3646179 5.84443206,16.3678667 C5.84372438,16.3680198 5.84304133,16.3681222 5.84235792,16.3682234 L5.80276772,16.3727821 C5.78718122,16.3740949 5.77155487,16.3748249 5.75592406,16.3749721 L2.625,16.375 Z M11.9979167,1.99965066 C12.4515284,1.99965066 12.8665399,2.25491073 13.0596423,2.63806902 L13.0596423,2.63806902 L14.094,4.5 L15.7815727,4.50009553 C16.2240414,4.4923584 16.630292,4.73015334 16.8423591,5.110552 L16.8423591,5.110552 L16.8999958,5.22884679 C17.0888117,5.67752592 16.9855308,6.19595257 16.6610596,6.51529186 L16.6610596,6.51529186 L15.037,8.289 L15.9312949,10.3434416 C16.1105439,10.7746764 16.0215976,11.2661714 15.7136859,11.6063538 L15.7136859,11.6063538 L15.6147926,11.7036576 C15.2284589,12.0422423 14.6692109,12.0967 14.2312924,11.8427145 L14.2312924,11.8427145 L11.998,10.584 L9.77018621,11.835676 C9.36618882,12.0699403 8.86727338,12.0462306 8.48964204,11.7856 L8.48964204,11.7856 L8.38020736,11.7003243 C7.99387362,11.3617397 7.86653122,10.8144665 8.06787234,10.3303188 L8.06787234,10.3303188 L8.957,8.288 L7.3541939,6.5364078 C7.04440476,6.22820465 6.93078755,5.77858067 7.04845599,5.36548919 L7.04845599,5.36548919 L7.0962931,5.22938919 C7.28462505,4.7818601 7.72564666,4.49334574 8.2025,4.5 L8.2025,4.5 L9.9,4.5 L10.9246898,2.65975759 C11.108833,2.29539542 11.4634067,2.05219854 11.863163,2.00720279 L11.863163,2.00720279 Z M11.998,3.3 L10.8154756,5.42859765 C10.705233,5.62697374 10.4961171,5.75 10.2691667,5.75 L10.2691667,5.75 L8.327,5.749 L10.1535596,7.74470814 C10.2964299,7.9008176 10.3490551,8.11647648 10.2990647,8.3174365 L10.2990647,8.3174365 L10.265461,8.41634787 L9.279,10.678 L11.6939598,9.32172227 C11.8526452,9.23260469 12.0405046,9.21790005 12.2088007,9.27756358 L12.2088007,9.27756358 L12.307041,9.32228552 L14.715,10.68 L13.7294129,8.41605835 C13.645011,8.22210769 13.6652005,8.00115304 13.7776087,7.82734184 L13.7776087,7.82734184 L13.8414404,7.74470814 L15.667,5.75 L13.7266667,5.75 C13.5321377,5.75 13.3507117,5.65961336 13.2334217,5.50886372 L13.2334217,5.50886372 L13.1803577,5.42859765 L11.998,3.3 Z" id="Award-Star-Head" fill="currentColor"></path>
    </g>
</svg>