<?xml version="1.0" encoding="UTF-8"?>
<svg width="24px" height="24px" viewBox="0 0 24 24" version="1.1" xmlns="http://www.w3.org/2000/svg" xmlns:xlink="http://www.w3.org/1999/xlink">
    <title>Icon/Ecom/Receipt Slip</title>
    <g id="Icon/Ecom/Receipt-Slip" stroke="none" stroke-width="1" fill="none" fill-rule="evenodd" fill-opacity="0.84">
        <path d="M18.25,2 C19.2855339,2 20.125,2.83946609 20.125,3.875 L20.125,3.875 L20.125,21.375 C20.125,21.9318155 19.4517863,22.2106698 19.0580583,21.8169417 L19.0580583,21.8169417 L17,19.758 L14.9419417,21.8169417 C14.7249838,22.0338997 14.3882033,22.0580061 14.1446181,21.8892611 L14.1446181,21.8892611 L14.0580583,21.8169417 L12,19.758 L9.94194174,21.8169417 C9.7249838,22.0338997 9.3882033,22.0580061 9.14461812,21.8892611 L9.14461812,21.8892611 L9.05805826,21.8169417 L7,19.758 L4.94194174,21.8169417 C4.57137417,22.1875093 3.95323453,21.9622946 3.88179446,21.4702958 L3.88179446,21.4702958 L3.875,21.375 L3.875,3.875 C3.875,2.83946609 4.71446609,2 5.75,2 L5.75,2 Z M18.25,3.25 L5.75,3.25 C5.40482203,3.25 5.125,3.52982203 5.125,3.875 L5.125,3.875 L5.125,19.866 L6.55805826,18.4330583 C6.7750162,18.2161003 7.1117967,18.1919939 7.35538188,18.3607389 L7.35538188,18.3607389 L7.44194174,18.4330583 L9.5,20.492 L11.5580583,18.4330583 C11.7750162,18.2161003 12.1117967,18.1919939 12.3553819,18.3607389 L12.3553819,18.3607389 L12.4419417,18.4330583 L14.5,20.492 L16.5580583,18.4330583 C16.7750162,18.2161003 17.1117967,18.1919939 17.3553819,18.3607389 L17.3553819,18.3607389 L17.4419417,18.4330583 L18.875,19.867 L18.875,3.875 C18.875,3.56120185 18.6437421,3.30141686 18.3423579,3.2567766 L18.3423579,3.2567766 L18.25,3.25 Z M12,13.875 C12.345178,13.875 12.625,14.154822 12.625,14.5 C12.625,14.8137982 12.3937421,15.0735831 12.0923579,15.1182234 L12,15.125 L7,15.125 C6.65482203,15.125 6.375,14.845178 6.375,14.5 C6.375,14.1862018 6.60625788,13.9264169 6.90764208,13.8817766 L7,13.875 L12,13.875 Z M16.6875,13.25 L16.7968323,13.2563072 C17.2630873,13.310462 17.625,13.7067164 17.625,14.1875 C17.625,14.705267 17.205267,15.125 16.6875,15.125 C16.169733,15.125 15.75,14.705267 15.75,14.1875 C15.75,13.7067164 16.1119127,13.310462 16.5781677,13.2563072 L16.6875,13.25 Z M12,10.125 C12.345178,10.125 12.625,10.404822 12.625,10.75 C12.625,11.0637982 12.3937421,11.3235831 12.0923579,11.3682234 L12,11.375 L7,11.375 C6.65482203,11.375 6.375,11.095178 6.375,10.75 C6.375,10.4362018 6.60625788,10.1764169 6.90764208,10.1317766 L7,10.125 L12,10.125 Z M16.6875,9.5 L16.7968323,9.50630725 C17.2630873,9.56046204 17.625,9.9567164 17.625,10.4375 C17.625,10.955267 17.205267,11.375 16.6875,11.375 C16.169733,11.375 15.75,10.955267 15.75,10.4375 C15.75,9.9567164 16.1119127,9.56046204 16.5781677,9.50630725 L16.6875,9.5 Z M12,6.375 C12.345178,6.375 12.625,6.65482203 12.625,7 C12.625,7.31379815 12.3937421,7.57358314 12.0923579,7.6182234 L12,7.625 L7,7.625 C6.65482203,7.625 6.375,7.34517797 6.375,7 C6.375,6.68620185 6.60625788,6.42641686 6.90764208,6.3817766 L7,6.375 L12,6.375 Z M16.6875,5.75 L16.7968323,5.75630725 C17.2630873,5.81046204 17.625,6.2067164 17.625,6.6875 C17.625,7.20526695 17.205267,7.625 16.6875,7.625 C16.169733,7.625 15.75,7.20526695 15.75,6.6875 C15.75,6.2067164 16.1119127,5.81046204 16.5781677,5.75630725 L16.6875,5.75 Z" id="Receipt-Slip" fill="currentColor"></path>
    </g>
</svg>