<?xml version="1.0" encoding="UTF-8"?>
<svg width="24px" height="24px" viewBox="0 0 24 24" version="1.1" xmlns="http://www.w3.org/2000/svg" xmlns:xlink="http://www.w3.org/1999/xlink">
    <title>Icon/SBU/New/ZBM</title>
    <g id="Icon/SBU/New/ZBM" stroke="none" stroke-width="1" fill="none" fill-rule="evenodd" fill-opacity="0.84">
        <path d="M7,13 C8.64397906,13 10,14.3560209 10,16 C10,17.6439791 8.64921466,19 7,19 C5.35602094,19 4,17.6439791 4,16 C4,14.3560209 5.35602094,13 7,13 Z M17,13 C18.6439791,13 20,14.3507853 20,16 C20,17.6492147 18.6492147,19 17,19 C15.3560209,19 14,17.6439791 14,16 C14,14.3560209 15.3560209,13 17,13 Z M7,14.5 C6.17157288,14.5 5.5,15.1715729 5.5,16 C5.5,16.8284271 6.17157288,17.5 7,17.5 C7.82842712,17.5 8.5,16.8284271 8.5,16 C8.5,15.1715729 7.82842712,14.5 7,14.5 Z M17,14.5 C16.1715729,14.5 15.5,15.1715729 15.5,16 C15.5,16.8284271 16.1715729,17.5 17,17.5 C17.8284271,17.5 18.5,16.8284271 18.5,16 C18.5,15.1715729 17.8284271,14.5 17,14.5 Z M20.5,5 C20.7761424,5 21,5.22385763 21,5.5 C21,5.77614237 20.7761424,6 20.5,6 L16.6593962,6 C16.259368,6 15.8978299,6.23839685 15.7402511,6.6060807 L13.6125024,12.678906 C13.5380357,12.8914419 13.5,13.1150285 13.5,13.3402325 L13.5,15.65832 C13.5,16.3993094 12.8993094,17 12.15832,17 C11.3745026,17 10.6959591,16.455347 10.526398,15.6900897 L10.0592674,13.6861688 C9.97471906,13.3045883 9.67561715,13.0072342 9.29354761,12.9249238 L2.78939883,11.485473 C2.32883863,11.3862532 2,10.9790276 2,10.507901 L2,8 C2,7.44771525 2.44771525,7 3,7 L13.9542203,7 L14.7194002,5.53663265 C14.8918862,5.20676217 15.2333221,5 15.6055665,5 L20.5,5 Z M20.5,6.50214002 C20.7761424,6.50214002 21,6.72599765 21,7.00214002 L21,7.5 C21,7.77614237 20.7761424,8 20.5,8 L18.5,8 C18.2238576,8 18,8.22385763 18,8.5 C18,8.77614237 18.2238576,9 18.5,9 L20.5,9 C20.7761424,9 21,9.22385763 21,9.5 L21,10.5857864 C21,10.8510029 21.1053568,11.1053568 21.2928932,11.2928932 L21.7071068,11.7071068 C21.8946432,11.8946432 22,12.1489971 22,12.4142136 L22,15.5 C22,15.7761424 21.7761424,16 21.5,16 L20.5,16 C20.5,14.0763111 18.921792,12.5 17,12.5 C16.1319155,12.5 15.3333743,12.8229166 14.7189262,13.3542 C14.5777751,13.5214563 14.3277615,13.5426186 14.1605053,13.4014675 C14.03484,13.2954158 13.9877253,13.1227749 14.0420976,12.96759 L16.1315166,7.00414326 C16.2368711,6.7034489 16.5207116,6.50214002 16.8393284,6.50214002 L20.5,6.50214002 Z M12.75,10 L6.25,10 C6.11192881,10 6,10.1119288 6,10.25 C6,10.3683467 6.08223341,10.4674868 6.19267729,10.4933973 L6.25,10.5 L12.75,10.5 C12.8880712,10.5 13,10.3880712 13,10.25 C13,10.1119288 12.8880712,10 12.75,10 Z M12.75,8.5 L4.25,8.5 C4.11192881,8.5 4,8.61192881 4,8.75 C4,8.86834673 4.08223341,8.96748682 4.19267729,8.99339732 L4.25,9 L12.75,9 C12.8880712,9 13,8.88807119 13,8.75 C13,8.61192881 12.8880712,8.5 12.75,8.5 Z" id="Dumper-Truck" fill="currentColor"></path>
    </g>
</svg>