<?xml version="1.0" encoding="UTF-8"?>
<svg width="24px" height="24px" viewBox="0 0 24 24" version="1.1" xmlns="http://www.w3.org/2000/svg" xmlns:xlink="http://www.w3.org/1999/xlink">
    <title>Icon/Essential/Configurator</title>
    <g id="Icons" stroke="none" stroke-width="1" fill="none" fill-rule="evenodd" fill-opacity="0.84">
        <g id="Icon/Essential/Configurator" fill="currentColor">
            <path d="M16.3802785,9.50724106 L16.53176,9.51377001 C17.2320763,9.57461337 17.8330206,10.0554776 18.0394631,10.7367811 L18.0394631,10.7367811 L18.4093688,11.9492215 C18.4399648,12.0509901 18.5442832,12.1115534 18.6472826,12.0877909 L18.6472826,12.0877909 L19.8752642,11.8033211 C20.621059,11.6322478 21.3911264,11.9682149 21.7730045,12.6312723 C22.1548825,13.2943297 22.0590317,14.1290095 21.5381281,14.6868062 L21.5381281,14.6868062 L20.6785105,15.613125 C20.6041447,15.6930909 20.6041447,15.8169091 20.679912,15.898387 L20.679912,15.898387 L21.5377197,16.8269208 C22.0574266,17.3858769 22.152432,18.2181789 21.77206,18.8798769 C21.3916881,19.5415749 20.6246536,19.87834 19.8764493,19.7097091 L19.8764493,19.7097091 L18.6503315,19.4256693 C18.5467832,19.4017799 18.4424648,19.4623433 18.4111297,19.5665522 L18.4111297,19.5665522 L18.0428509,20.7736164 C17.8230301,21.5069874 17.148107,22.0092758 16.3825,22.0092758 C15.616893,22.0092758 14.9419699,21.5069874 14.7229221,20.7761754 L14.7229221,20.7761754 L14.3540936,19.5645407 C14.3233136,19.4624254 14.2186057,19.4016876 14.1152174,19.4255424 L14.1152174,19.4255424 L12.8875741,19.7099345 C12.1417934,19.8814406 11.3715002,19.5455638 10.9896758,18.8823795 C10.6078515,18.2191952 10.7041334,17.384393 11.2248091,16.8277878 L11.2248091,16.8277878 L12.0839895,15.9002083 C12.1583553,15.8202424 12.1583553,15.6964242 12.0833329,15.6157512 L12.0833329,15.6157512 L11.2290164,14.6942099 C10.7018047,14.1361584 10.6026258,13.2985354 10.9849339,12.6327921 C11.3672419,11.9670487 12.1406792,11.6305321 12.8877174,11.8044576 L12.8877174,11.8044576 L14.1138494,12.0885006 C14.2177723,12.112479 14.3224803,12.0517413 14.3537555,11.9479912 L14.3537555,11.9479912 L14.7217146,10.739225 C14.9426754,10.0079425 15.6163428,9.50754124 16.3802785,9.50724106 L16.3802785,9.50724106 Z M16.3807695,10.7572409 L16.2913098,10.7655994 C16.1166464,10.7985309 15.971044,10.9261667 15.9179112,11.1020088 L15.9179112,11.1020088 L15.5500731,12.310374 C15.3292931,13.0428307 14.5782399,13.4784927 13.8322826,13.3063758 L13.8322826,13.3063758 L12.6049448,13.0220532 C12.3943829,12.9730303 12.1765759,13.0677965 12.0689144,13.2552759 C11.9612529,13.4427554 11.9891826,13.6786377 12.1416671,13.8400821 L12.1416671,13.8400821 L12.9993438,14.7652083 C13.5199038,15.3249697 13.5199038,16.191697 13.0001909,16.7505456 L13.0001909,16.7505456 L12.1397652,17.6794601 C11.9925489,17.8368383 11.9654351,18.0719262 12.0729603,18.258685 C12.1804856,18.4454438 12.3974072,18.5400298 12.6064493,18.4919576 L12.6064493,18.4919576 L13.8336506,18.2076673 C14.5790733,18.0356739 15.3301264,18.4713359 15.5504112,19.2021579 L15.5504112,19.2021579 L15.9195175,20.4147169 C15.9808137,20.6192146 16.1690134,20.7592758 16.3825,20.7592758 C16.5959866,20.7592758 16.7841863,20.6192146 16.8463703,20.4117811 L16.8463703,20.4117811 L17.2147978,19.2042215 C17.4350382,18.4716557 18.1859583,18.0356996 18.931884,18.2077909 L18.931884,18.2077909 L20.1549072,18.491125 C20.3648385,18.5384363 20.5811062,18.4434843 20.6883532,18.2569165 C20.7956003,18.0703487 20.7688132,17.8356786 20.6209214,17.676613 L20.6209214,17.676613 L19.7631562,16.748125 C19.2425962,16.1883637 19.2425962,15.3216363 19.7627052,14.7623604 L19.7627052,14.7623604 L20.6232086,13.8350912 C20.7704558,13.6774139 20.7974813,13.4420733 20.6898096,13.2551223 C20.5821379,13.0681712 20.365015,12.9734442 20.1560507,13.0213758 L20.1560507,13.0213758 L18.9288351,13.3056693 C18.1834583,13.4776338 17.4325382,13.0416776 17.2130369,12.3115522 L17.2130369,12.3115522 L16.8435235,11.1004116 C16.7817492,10.8965447 16.5937901,10.7572409 16.3807695,10.7572409 L16.3807695,10.7572409 Z M18.88,2.005 C19.8662228,2.005 20.6746062,2.76642049 20.7493588,3.73346985 L20.755,3.88 L20.755,8.88 C20.755,9.22517797 20.475178,9.505 20.13,9.505 C19.8162018,9.505 19.5564169,9.27374212 19.5117766,8.97235792 L19.505,8.88 L19.505,7.005 L3.255,7.005 L3.255,17.63 C3.255,17.9437982 3.48625788,18.2035831 3.78764208,18.2482234 L3.88,18.255 L8.88,18.255 C9.22517797,18.255 9.505,18.534822 9.505,18.88 C9.505,19.1937982 9.27374212,19.4535831 8.97235792,19.4982234 L8.88,19.505 L3.88,19.505 C2.89377723,19.505 2.08539375,18.7435795 2.01064118,17.7765301 L2.005,17.63 L2.005,3.88 C2.005,2.89377723 2.76642049,2.08539375 3.73346985,2.01064118 L3.88,2.005 L18.88,2.005 Z M16.38,13.88 C17.4155339,13.88 18.255,14.7194661 18.255,15.755 C18.255,16.7905339 17.4155339,17.63 16.38,17.63 C15.3444661,17.63 14.505,16.7905339 14.505,15.755 C14.505,14.7194661 15.3444661,13.88 16.38,13.88 Z M16.38,15.13 C16.034822,15.13 15.755,15.409822 15.755,15.755 C15.755,16.100178 16.034822,16.38 16.38,16.38 C16.725178,16.38 17.005,16.100178 17.005,15.755 C17.005,15.409822 16.725178,15.13 16.38,15.13 Z M18.88,3.255 L3.88,3.255 C3.56620185,3.255 3.30641686,3.48625788 3.2617766,3.78764208 L3.255,3.88 L3.255,5.755 L19.505,5.755 L19.505,3.88 C19.505,3.56620185 19.2737421,3.30641686 18.9723579,3.2617766 L18.88,3.255 Z" id="Configurator"></path>
        </g>
    </g>
</svg>
