<?xml version="1.0" encoding="UTF-8"?>
<svg width="24px" height="24px" viewBox="0 0 24 24" version="1.1" xmlns="http://www.w3.org/2000/svg" xmlns:xlink="http://www.w3.org/1999/xlink">
    <title>Icon/SBU/ZPS/Used</title>
    <g id="Icon/SBU/ZPS/Used" stroke="none" stroke-width="1" fill="none" fill-rule="evenodd" fill-opacity="0.84">
        <path d="M13.6395939,6.6903976 C13.5795653,6.95552395 13.5494259,7.22240113 13.5494259,7.49090409 C13.5494259,7.98939165 13.6437208,8.4662439 13.8321857,8.92146084 C14.015523,9.36179569 14.2732709,9.7514814 14.605054,10.0908931 C14.9368371,10.4300548 15.318644,10.6923048 15.7505999,10.877518 C16.1958121,11.0708602 16.6626595,11.1675312 17.1512674,11.1675312 C17.5096882,11.1659055 17.8598551,11.1121298 18.201768,11.0062044 C18.5435559,10.9002789 18.8629581,10.7465806 19.1597246,10.5447344 L19.1597246,16.845237 L17.211296,16.845237 L17.211296,15.6646744 L16.3783991,15.6646744 L16.3783991,16.7351846 C16.3783991,16.8436112 16.3567638,16.9461601 16.3133681,17.0428312 C16.2699724,17.1396273 16.2123199,17.216664 16.1407858,17.2741914 C16.0690016,17.3317189 15.9915897,17.3604826 15.908175,17.3604826 L8.61457413,17.3604826 L7.10147805,15.8147459 L5.80335941,15.8147459 C5.69655852,15.8147459 5.59613566,15.7776032 5.50196578,15.7034429 C5.40767084,15.6292825 5.33313532,15.5288597 5.2781091,15.4020492 C5.21970627,15.2687357 5.19056738,15.124542 5.19056738,14.969343 L5.19056738,13.5686755 L4.72034329,13.5686755 L4.72034329,15.6297828 L4,15.6297828 L4,8.96898349 L4.72271942,8.96898349 L4.72271942,11.0324669 L5.15542563,11.0324669 L5.15542563,10.1846878 C5.15542563,10.0278631 5.18381416,9.88354433 5.24059122,9.75198164 C5.29724322,9.6251712 5.37277922,9.52424811 5.46694909,9.44921235 C5.56099391,9.37417659 5.66154183,9.33665871 5.76834273,9.33665871 L6.92126717,9.33665871 L6.92126717,8.60130827 C6.92126717,8.4928816 6.94390295,8.39083296 6.98879935,8.29491225 C7.03394586,8.1991166 7.09384941,8.12270518 7.16901023,8.06605319 C7.24904837,8.00765035 7.33571468,7.97776111 7.4291342,7.97601028 L9.98785359,7.97601028 L9.98785359,7.42337191 L7.96689047,7.42337191 L7.96689047,6.6903976 L13.6395939,6.6903976 Z M12.4440241,9.63430055 L11.035853,9.63430055 L9.08492328,13.3135539 L11.9738,13.3135539 L10.8882827,16.2600832 L13.7446439,12.062958 L11.1832983,12.062958 L12.4440241,9.63430055 Z M17.5214438,4.93718709 C17.819836,4.98045771 18.1008449,5.07712878 18.3642204,5.2272003 L17.9866655,5.61238386 C17.8049539,5.52909417 17.6238676,5.47406794 17.4439069,5.44730519 C17.1720273,5.40728612 16.9045248,5.42316869 16.6410242,5.4949529 C16.3859027,5.56160966 16.1524164,5.6754139 15.9406905,5.83624054 C15.7288395,5.99719224 15.5546315,6.19278546 15.4179414,6.42289512 C15.2761238,6.66125871 15.1849553,6.91963184 15.1439358,7.19813957 C15.1031664,7.4766473 15.1169229,7.75015264 15.1852054,8.01853054 C15.2519873,8.2786545 15.3645409,8.51714316 15.5229914,8.73387144 C15.6813169,8.95059973 15.8730332,9.12905978 16.0981405,9.26912653 C16.3333776,9.41256989 16.5868734,9.50423857 16.8585029,9.54425764 C17.1171261,9.58265094 17.3713723,9.57089534 17.6214915,9.50924096 C17.8632317,9.44921235 18.0875886,9.34753889 18.2943121,9.20409553 C18.5010356,9.06065217 18.6753687,8.88481838 18.8170613,8.67634403 C18.9621304,8.46124152 19.0646793,8.22700489 19.1245828,7.97350908 L18.8045553,7.98101266 L19.3673235,6.90299892 L20,7.94099359 L19.6524594,7.95349955 C19.5924308,8.29041011 19.473249,8.60218369 19.2947889,8.88894535 C19.1195897,9.1658273 18.9011013,9.40131452 18.6394766,9.59565714 C18.3776018,9.78974964 18.0908402,9.92694002 17.7790666,10.0071032 C17.4539116,10.0903929 17.1245046,10.1070258 16.7909707,10.057002 C16.4509336,10.0071032 16.134908,9.89192333 15.8430189,9.71183751 C15.5612597,9.5385049 15.3215204,9.31627399 15.1239262,9.04526984 C14.9264571,8.77426569 14.7858902,8.47624867 14.7026005,8.15109371 C14.6159342,7.81430821 14.5970502,7.47252033 14.6463236,7.12573006 C14.6954721,6.77881474 14.8084009,6.45616097 14.9852352,6.15764371 C15.1551911,5.87088205 15.3727948,5.62651559 15.6380463,5.42479446 C15.9031726,5.22307333 16.1958121,5.07962997 16.5159646,4.9947145 C16.846122,4.90629737 17.1811566,4.88703819 17.5214438,4.93718709 Z M19.0520482,5.5698636 L19.4122199,5.93766388 L16.8761363,8.52627251 L15.7355927,7.36084211 L16.090762,6.99304183 L16.8761363,7.79592445 L19.0520482,5.5698636 Z" id="Gear-Box" fill="currentColor"></path>
    </g>
</svg>