<?xml version="1.0" encoding="UTF-8"?>
<svg width="24px" height="24px" viewBox="0 0 24 24" version="1.1" xmlns="http://www.w3.org/2000/svg" xmlns:xlink="http://www.w3.org/1999/xlink">
    <title>Icon/SBU/ZPS/Service</title>
    <g id="Icons" stroke="none" stroke-width="1" fill="none" fill-rule="evenodd">
        <g id="Overview" transform="translate(-453.000000, -948.000000)" fill="currentColor">
            <g id="Icons" transform="translate(368.500000, 100.000000)">
                <g id="Icon/SBU/ZPS/Service" transform="translate(84.500000, 848.000000)">
                    <path d="M13.9773829,5.35327678 C13.9407108,5.57734786 13.9148627,5.74422993 13.8998384,5.85408453 C13.8781906,6.04148356 13.8675283,6.20949649 13.8675283,6.35812331 C13.8675283,6.97411684 13.9848142,7.56442379 14.2197092,8.12872104 C14.4458805,8.6758939 14.7667205,9.16054657 15.1825525,9.58267904 C15.5982229,10.0049731 16.0764136,10.3322752 16.6171244,10.5649084 C17.1770598,10.8040038 17.7641357,10.9235514 18.3780291,10.9235514 C18.8239095,10.9235514 19.2626817,10.8568309 19.6946688,10.7232283 C20.1264943,10.5897873 20.5234249,10.3968955 20.8852989,10.1448761 L20.8852989,17.944553 L18.4911147,17.944553 L18.4911147,16.4970571 L17.4313409,16.4970571 L17.4313409,17.8314674 C17.4313409,17.9607081 17.403231,18.0857485 17.3473344,18.2062655 C17.2912763,18.326944 17.2180937,18.4238745 17.1276252,18.4970571 C17.0306947,18.5746015 16.9273021,18.6133737 16.8172859,18.6133737 L7.73828756,18.6133737 L5.84491115,16.661839 L4.28432956,16.661839 C4.13780291,16.661839 4.00533118,16.6166047 3.88675283,16.5261362 C3.76833603,16.4356677 3.67576737,16.3107889 3.60904685,16.1513382 C3.54006462,15.9876871 3.50565428,15.8056193 3.50565428,15.6052962 L3.50565428,13.8767017 L2.8917609,13.8767017 L2.8917609,16.4388987 L2,16.4388987 L2,8.1384141 L2.83667205,8.1384141 L2.83667205,10.7587695 L3.39256866,10.7587695 L3.39256866,9.69899568 C3.39256866,9.50303445 3.43134087,9.3209666 3.5088853,9.15295368 C3.57996769,8.99576466 3.67576737,8.87137048 3.79644588,8.77977112 C3.91712439,8.68833332 4.04297254,8.64245287 4.17447496,8.64245287 L5.67689822,8.64245287 L5.67689822,7.69253364 C5.67689822,7.5653931 5.70484653,7.44164511 5.76090468,7.3209666 C5.81696284,7.20044964 5.89127625,7.10351911 5.98384491,7.030175 C6.08077544,6.95263058 6.18303716,6.91385836 6.2907916,6.91385836 L9.46672052,6.91385836 L9.46672052,6.24503768 L6.95961228,6.24503768 L6.95961228,5.35327678 L13.9773829,5.35327678 Z M12.5297254,9.030175 L10.7463651,9.030175 L8.29725363,13.5988341 L11.9159935,13.5988341 L10.5783522,17.2757324 L14.1452342,12.0382525 L10.9693053,12.0382525 L12.5297254,9.030175 Z M18.5444265,2.79107969 C19.0108239,2.79107969 19.457189,2.88267904 19.8836834,3.0657162 C20.2972536,3.24019116 20.6639742,3.48736402 20.9838449,3.80723478 C21.3037157,4.12710553 21.5508885,4.49382605 21.7253635,4.90739633 C21.9084006,5.33389067 22,5.77977112 22,6.24503768 C22,6.71030424 21.9084006,7.15941571 21.7253635,7.59237209 C21.5508885,8.0124044 21.3030695,8.38558696 20.9822294,8.71191975 C20.6612278,9.03825255 20.2951535,9.29188744 19.8836834,9.47282444 C19.4550889,9.66022347 19.0092084,9.75392298 18.546042,9.75392298 C18.0807754,9.75392298 17.634895,9.66345448 17.2084006,9.48251749 C16.7948304,9.30368066 16.4281099,9.05279213 16.1082391,8.72969035 C15.7883683,8.40658857 15.5411955,8.03502153 15.3667205,7.61498922 C15.1835218,7.17993268 15.092084,6.72322831 15.092084,6.24503768 C15.092084,5.76684705 15.1835218,5.31353526 15.3667205,4.8847792 C15.5411955,4.46910877 15.7877221,4.10335755 16.1066236,3.78784867 C16.4253635,3.47233978 16.7925687,3.22839794 17.2084006,3.05602314 C17.6326333,2.87944802 18.0780291,2.79107969 18.5444265,2.79107969 Z M18.546042,3.35004576 C18.1497577,3.35004576 17.7717286,3.42759019 17.4119548,3.58267904 C17.065105,3.73130586 16.758643,3.94083736 16.4927302,4.211112 C16.2266559,4.48154818 16.020517,4.78897953 15.8739903,5.13356757 C15.7231018,5.49124124 15.6478191,5.86167743 15.6478191,6.24503768 C15.6478191,6.62855949 15.7264943,7.0022267 15.8836834,7.36620085 C16.0323102,7.71515077 16.2423263,8.02855949 16.5137318,8.30642702 C16.7851373,8.58429455 17.092084,8.80077274 17.4345719,8.95586159 C17.7941842,9.11741248 18.1652666,9.19818793 18.547496,9.19818793 C18.9300485,9.19818793 19.3,9.11967419 19.6575121,8.96232363 C20.0021002,8.81159665 20.3096931,8.59931878 20.5799677,8.32581313 C20.8502423,8.05230747 21.0597738,7.74002961 21.2084006,7.38881797 C21.3634895,7.02274366 21.4410339,6.64196822 21.4410339,6.24665319 C21.4410339,5.85149972 21.3634895,5.47282444 21.2084006,5.11095045 C21.0597738,4.7663624 20.8502423,4.46038502 20.5799677,4.1933414 C20.3096931,3.92629778 20.0021002,3.71951264 19.6575121,3.57298599 C19.3,3.42435917 18.9294023,3.35004576 18.546042,3.35004576 Z M19.7705977,4.35166127 L18.9917609,5.13033655 L19.5476575,5.68930263 L20.3295638,4.90739633 C20.4006462,5.05392298 20.4382876,5.211112 20.4426494,5.37912492 C20.4468498,5.54067581 20.4193861,5.69786482 20.3602585,5.85085352 C20.3009693,6.00384221 20.2164782,6.13518308 20.1066236,6.24503768 C19.996769,6.35489229 19.8707593,6.44051426 19.7285945,6.5019036 C19.5864297,6.56329293 19.4415186,6.59608776 19.2940226,6.60044964 C19.1463651,6.60481151 19.0080775,6.57896337 18.8788368,6.52290521 L17.2633279,8.1384141 C17.2352181,8.16652395 17.1982229,8.18041733 17.1518578,8.18041733 C17.1054927,8.18041733 17.068336,8.16652395 17.0403877,8.1384141 L16.6526656,7.75069196 C16.6159935,7.73130586 16.5912763,7.70755788 16.5783522,7.67960957 C16.5654281,7.65166127 16.5654281,7.62355142 16.5783522,7.59560311 C16.5912763,7.56765481 16.6159935,7.54503768 16.6526656,7.52775174 L18.1550889,5.79915723 C18.0731826,5.57944802 18.0570275,5.36248518 18.1066236,5.14810715 C18.1562197,4.93372912 18.2647819,4.74261442 18.4327948,4.5746015 C18.6332795,4.4022267 18.8497577,4.29560311 19.082391,4.25473074 C19.3235864,4.20949649 19.5529887,4.24180667 19.7705977,4.35166127 Z" id="Gear-Box"></path>
                </g>
            </g>
        </g>
    </g>
</svg>
