<?xml version="1.0" encoding="UTF-8"?>
<svg width="24px" height="24px" viewBox="0 0 24 24" version="1.1" xmlns="http://www.w3.org/2000/svg" xmlns:xlink="http://www.w3.org/1999/xlink">
    <title>Icon/SBU/ZRD/Rental</title>
    <g id="Icons" stroke="none" stroke-width="1" fill="none" fill-rule="evenodd">
        <g id="Overview" transform="translate(-621.000000, -1022.000000)" fill="currentColor">
            <g id="Icons" transform="translate(368.500000, 100.000000)">
                <g id="Icon/SBU/ZRD/Rental" transform="translate(252.500000, 922.000000)">
                    <path d="M14.1887943,14.4783081 C14.4643693,14.4783081 14.730474,14.5333965 14.9864413,14.6437065 C15.2336052,14.7522826 15.4532916,14.9034087 15.6453672,15.0972182 C15.8374427,15.2911612 15.9868348,15.5133819 16.0935435,15.7641472 C16.2037201,16.0238494 16.2589419,16.2936889 16.2589419,16.573799 C16.2589419,16.8539092 16.2037201,17.1237487 16.0935435,17.3834508 C15.9868348,17.6324821 15.8374427,17.8543027 15.6453672,18.049046 C15.4532916,18.2437892 15.2336052,18.3945152 14.9864413,18.5012238 C14.730474,18.6132679 14.4639692,18.6692899 14.1874604,18.6692899 C13.9109516,18.6692899 13.6445802,18.6132679 13.3884795,18.5012238 C13.1411822,18.3945152 12.921229,18.2437892 12.7282198,18.049046 C12.5352105,17.8543027 12.3862186,17.6324821 12.2813773,17.3834508 C12.1710673,17.1237487 12.115979,16.8539092 12.115979,16.573799 C12.115979,16.2936889 12.1710673,16.0238494 12.2813773,15.7641472 C12.3862186,15.5133819 12.5352105,15.2911612 12.7282198,15.0972182 C12.921229,14.9034087 13.1411822,14.7522826 13.3884795,14.6437065 C13.6445802,14.5333965 13.9113518,14.4783081 14.1887943,14.4783081 Z M7.92779827,14.4783081 C8.20510734,14.4783081 8.47187894,14.5333965 8.72811306,14.6437065 C8.97514356,14.7522826 9.19496335,14.9034087 9.38690552,15.0972182 C9.57898107,15.2911612 9.72757285,15.5133819 9.83241408,15.7641472 C9.94272414,16.0238494 9.99781247,16.294089 9.99781247,16.5751329 C9.99781247,16.8561768 9.94525847,17.1256161 9.84041723,17.3834508 C9.73731001,17.6342161 9.59138595,17.8565703 9.40291181,18.0503798 C9.21443768,18.2443228 8.99555158,18.3945152 8.74665368,18.5012238 C8.48881894,18.6132679 8.21577821,18.6692899 7.92779827,18.6692899 C7.65022242,18.6692899 7.38345082,18.6132679 7.12748348,18.5012238 C6.88018621,18.3945152 6.66063318,18.2437892 6.46842425,18.049046 C6.2763487,17.8543027 6.12708999,17.6324821 6.02024796,17.3834508 C5.91167192,17.1237487 5.85751729,16.8539092 5.85751729,16.573799 C5.85751729,16.2936889 5.91167192,16.0238494 6.02024796,15.7641472 C6.12708999,15.5133819 6.2763487,15.2911612 6.46842425,15.0972182 C6.66063318,14.9034087 6.88018621,14.7522826 7.12748348,14.6437065 C7.38345082,14.5333965 7.65022242,14.4783081 7.92779827,14.4783081 Z M10.8087981,10.3301432 L17.1046078,12.6189101 L17.1046078,13.5712847 L17.2940156,13.5712847 L20.5886449,16.5244463 L21.3409408,16.4310762 L22,16.9539486 L17.5287747,17.5248398 C17.3919208,17.5408461 17.2629368,17.5231058 17.1419558,17.4714855 C17.0281777,17.4217325 16.9308061,17.3470365 16.8498409,17.2473973 C16.7688758,17.1478915 16.7124536,17.03398 16.680441,16.9059297 L16.680441,16.5724652 C16.680441,16.2790164 16.6270867,15.9918368 16.520378,15.7107929 C16.4190048,15.4440213 16.2749481,15.1987248 16.088208,14.9745033 C15.9049359,14.7557506 15.6951201,14.5743459 15.4586271,14.4302892 L15.4586271,13.4298958 L10.4406533,11.586504 C10.6167226,11.1827452 10.7394375,10.7639138 10.8087981,10.3301432 Z M14.1874604,15.6200906 C14.0176603,15.6200906 13.8597315,15.6637077 13.7139408,15.7508087 C13.5716182,15.8361756 13.4586404,15.9499536 13.3751409,16.0922763 C13.289774,16.2416684 13.2470905,16.4022649 13.2470905,16.573799 C13.2470905,16.7454666 13.289774,16.904996 13.3751409,17.052654 C13.4586404,17.1967107 13.5716182,17.3114225 13.7139408,17.3967894 C13.8597315,17.4821563 14.0180604,17.5248398 14.1887943,17.5248398 C14.3577941,17.5248398 14.5150559,17.4821563 14.66098,17.3967894 C14.8031692,17.3114225 14.916147,17.1967107 14.9997799,17.052654 C15.0851468,16.904996 15.1278303,16.7454666 15.1278303,16.573799 C15.1278303,16.4022649 15.0851468,16.2416684 14.9997799,16.0922763 C14.916147,15.9499536 14.8031692,15.8361756 14.66098,15.7508087 C14.5150559,15.6637077 14.3573939,15.6200906 14.1874604,15.6200906 Z M7.97434991,15.6200906 C7.80454979,15.6200906 7.646621,15.6637077 7.50083033,15.7508087 C7.35850768,15.8361756 7.24552991,15.9499536 7.1620304,16.0922763 C7.07666349,16.2416684 7.03398003,16.4022649 7.03398003,16.573799 C7.03398003,16.7454666 7.07666349,16.904996 7.1620304,17.052654 C7.24552991,17.1967107 7.35850768,17.3114225 7.50083033,17.3967894 C7.646621,17.4821563 7.80494995,17.5248398 7.97568377,17.5248398 C8.14455019,17.5248398 8.30194543,17.4821563 8.4478695,17.3967894 C8.59005876,17.3114225 8.70303653,17.1967107 8.78666942,17.052654 C8.87203633,16.904996 8.91471979,16.7454666 8.91471979,16.573799 C8.91471979,16.4022649 8.87203633,16.2416684 8.78666942,16.0922763 C8.70303653,15.9499536 8.59005876,15.8361756 8.4478695,15.7508087 C8.30194543,15.6637077 8.14428342,15.6200906 7.97434991,15.6200906 Z M10.2379069,12 L15.0824791,13.7633603 L15.0824791,14.2382137 C14.9454919,14.1705871 14.8025023,14.1217679 14.6529768,14.0914893 C14.5142556,14.0630781 14.3595281,14.0488059 14.1887943,14.0488059 C13.852662,14.0488059 13.5300018,14.1154988 13.2204134,14.2488846 C12.9234966,14.3769349 12.6592593,14.5583396 12.4281017,14.7930986 C12.1968107,15.0278576 12.0172735,15.2955629 11.8892231,15.5960811 C11.7575713,15.9091376 11.6918121,16.2345989 11.6918121,16.5724652 C11.6918121,16.6845092 11.6998153,16.8037561 11.7158216,16.9299391 C11.724625,17.0063692 11.7424987,17.1220147 11.7691759,17.2767422 L11.7878499,17.3834508 L10.2805904,17.3834508 C10.3287426,17.2624699 10.3642233,17.1402885 10.387299,17.0166399 C10.4103747,16.8931246 10.4219793,16.7609393 10.4219793,16.6204841 C10.4219793,16.2470038 10.3400804,15.8885962 10.1765494,15.5453945 C10.0182205,15.2163318 9.79946779,14.93222 9.52029131,14.6930593 C9.24098145,14.4538985 8.92979239,14.2862326 8.58659073,14.1901948 L8.53857184,14.1448436 L8.53857184,13.8193823 C8.86056516,13.6131678 9.1504125,13.3792092 9.40824724,13.117773 C9.73010718,12.7905776 10.0066159,12.4180311 10.2379069,12 Z M3.68866421,14.1021602 C4.11910018,14.310242 4.56994418,14.4534984 5.0411962,14.5317958 C5.5071128,14.6098265 5.97489679,14.6214311 6.4444148,14.5663428 C6.22926351,14.7281397 6.04345709,14.9184813 5.88686217,15.137234 C5.72853322,15.3595881 5.608486,15.5996825 5.5268539,15.8575173 L4.30223888,15.5720717 L3.59809525,14.8571238 L3.68866421,14.1021602 Z M5.85218186,5.6188234 C6.35544648,5.6188234 6.84003708,5.71392748 7.30608706,5.90426901 C7.78814334,6.10167999 8.21404419,6.3871256 8.58392301,6.76060584 C8.95380183,7.13408607 9.23657972,7.56452205 9.43225669,8.05178037 C9.61899681,8.52129838 9.71236686,9.01082426 9.71236686,9.52035801 C9.71236686,10.0300251 9.61899681,10.5194176 9.43225669,10.9889356 C9.23657972,11.476194 8.95473553,11.9084973 8.58659073,12.2854456 C8.21671191,12.6589258 7.79161137,12.9443715 7.31142249,13.1417824 C6.84723991,13.332124 6.36344962,13.427228 5.86031839,13.427228 C5.35692039,13.427228 4.8721964,13.332124 4.4062798,13.1417824 C3.92622431,12.9443715 3.50059023,12.6581255 3.12977771,12.2827779 C2.75909858,11.9075636 2.47658746,11.476194 2.28277789,10.9889356 C2.09430376,10.5194176 2,10.0300251 2,9.52035801 C2,9.01082426 2.09430376,8.52129838 2.28277789,8.05178037 C2.47658746,7.56452205 2.75816488,7.13408607 3.12711,6.76060584 C3.4961885,6.3871256 3.9207555,6.10167999 4.40094437,5.90426901 C4.86526034,5.71392748 5.34891724,5.6188234 5.85218186,5.6188234 Z M5.86151886,6.0856737 C5.41961171,6.0856737 4.99397763,6.16930659 4.58501677,6.336439 C4.16351765,6.51077424 3.79003741,6.76233985 3.46470945,7.09140262 C3.13911472,7.4221994 2.89008343,7.80194877 2.7176156,8.23051734 C2.55221721,8.64494701 2.46951801,9.07658346 2.46951801,9.52569344 C2.46951801,9.97467004 2.55221721,10.4047059 2.7176156,10.8155341 C2.89008343,11.2423687 3.13911472,11.6185166 3.46470945,11.943978 C3.79003741,12.2747747 4.16445135,12.5272741 4.58768449,12.7016093 C4.99677873,12.8688751 5.42307974,12.9523746 5.8668543,12.9523746 C6.31049546,12.9523746 6.73612954,12.8688751 7.14335639,12.7016093 C7.56485551,12.5272741 7.93660173,12.2747747 8.25846166,11.943978 C8.58392301,11.6149152 8.8329543,11.2360995 9.00542213,10.807531 C9.17082052,10.3931013 9.25351972,9.96146484 9.25351972,9.51235486 C9.25351972,9.06324488 9.17082052,8.63254213 9.00542213,8.21984647 C8.8329543,7.79301192 8.58392301,7.41686397 8.25846166,7.09140262 C7.9331337,6.76233985 7.55858638,6.51077424 7.13535324,6.336439 C6.72799301,6.16930659 6.30342601,6.0856737 5.86151886,6.0856737 Z M14.7516823,5.33071008 C14.8263784,5.33071008 14.8930713,5.35391921 14.951761,5.40007069 C15.0068494,5.44275415 15.0464649,5.49744233 15.0704744,5.56413523 C15.0944838,5.63082813 15.0984854,5.69618717 15.0824791,5.76021235 L14.7516823,6.71258695 L16.1175529,11.8105922 L15.3172381,11.6185166 L14.7516823,9.52169187 L12.8684082,9.52169187 L13.1990716,10.8555498 L12.729687,10.666142 L12.444108,9.52169187 L11.2222941,9.52169187 L11.363683,10.1912886 L10.8914973,9.99921302 L10.8622858,9.83381463 C10.8905636,9.36082859 10.8560167,8.8939783 10.7581115,8.43326375 C10.6584723,7.96561314 10.4976091,7.52277229 10.2752549,7.1047412 C10.0440973,6.6708372 9.75505032,6.27854956 9.40824724,5.92841184 C9.38877292,5.90867074 9.35849434,5.88025957 9.3175449,5.84291155 L9.25885515,5.78955723 L9.29086774,5.61615569 C9.31394348,5.52545334 9.35756064,5.45435871 9.42158582,5.40273841 C9.48027558,5.35471952 9.54696847,5.33071008 9.62166452,5.33071008 L14.7516823,5.33071008 Z M7.85697041,7.52223875 C7.85925702,7.52452536 7.85331183,7.61892984 7.83930282,7.80545219 L7.83162711,7.90638985 C7.81201939,8.15982286 7.7997479,8.2928085 7.79441247,8.30521338 C7.79142463,8.31236286 7.74250939,8.31609767 7.64746187,8.3163495 L7.5461815,8.31588425 C7.464416,8.31588425 7.41012798,8.31681795 7.38345082,8.31855196 C7.3442354,8.32215338 7.31675792,8.33189054 7.30075163,8.34789684 C7.28474533,8.36390314 7.27500817,8.391514 7.27140675,8.43059603 C7.26780534,8.45553918 7.26620471,8.5088935 7.26620471,8.59065899 L7.26340361,8.83075343 L7.04998633,8.83075343 C6.90766368,8.82901941 6.8285659,8.83262083 6.81255961,8.84142429 C6.79121788,8.85382917 6.77654544,8.8677013 6.76854229,8.88277389 C6.76067253,8.89784649 6.75560387,8.9258575 6.75386986,8.96680694 C6.75213584,8.99881954 6.75026844,9.06377842 6.74853442,9.16155021 L6.74853442,9.41498323 L6.34037388,9.82047605 L6.28420387,9.87567068 L6.28420387,9.87567068 L6.20282603,9.95704852 C6.19270746,9.96738384 6.1843125,9.97610393 6.17764321,9.98320673 C6.13842778,10.0241562 6.11175062,10.0552351 6.09761173,10.0765768 C6.08333945,10.0979185 6.0753363,10.1175262 6.07360228,10.1352665 C6.07360228,10.1459374 6.07707031,10.1655451 6.08427315,10.1939563 C6.08600716,10.2046272 6.08787456,10.2126303 6.08960858,10.2179657 C6.11455172,10.3246744 6.12522259,10.4304493 6.12162117,10.5354239 C6.11628574,10.7416384 6.06039709,10.9338473 5.95355506,11.1116506 C5.85031446,11.2823844 5.71252693,11.4176376 5.54005909,11.5171434 C5.36225582,11.6202506 5.17191429,11.6718709 4.96916787,11.6718709 C4.83925011,11.6718709 4.71653517,11.6523966 4.60102307,11.6131812 C4.48537758,11.5740991 4.37426721,11.5154094 4.26755857,11.4371119 C4.22487512,11.4069667 4.17192096,11.3570805 4.10882947,11.2877198 C4.04573799,11.2183592 3.99985328,11.1615369 3.9714421,11.116986 C3.89314464,10.9889356 3.84032386,10.8528821 3.812713,10.7088255 C3.78510214,10.5647688 3.78376828,10.4211123 3.80871143,10.2779893 C3.83352118,10.1348664 3.88434117,10.0010804 3.96077124,9.87649809 C4.10842932,9.63293562 4.32984974,9.46566983 4.62503251,9.37496749 C4.71746887,9.3448223 4.81537405,9.3278823 4.91848127,9.32428088 C5.02158849,9.32067947 5.1238954,9.3297497 5.22526861,9.35095804 C5.29823064,9.36696434 5.34344842,9.37229977 5.36132212,9.36696434 C5.373727,9.36336292 5.43415077,9.30867475 5.54272681,9.20289981 C5.65116946,9.09712487 5.90553618,8.84595941 6.30569357,8.44927005 L7.22072015,7.5395789 L7.5329763,7.52624032 C7.61820983,7.52277229 7.69290588,7.52050473 7.75693106,7.51957103 C7.82095624,7.51863733 7.85430269,7.51957103 7.85697041,7.52223875 Z M4.59848874,10.4994098 C4.55927331,10.5003435 4.52459301,10.5060791 4.49431443,10.5167499 C4.47644073,10.5220854 4.46043444,10.5302219 4.44629554,10.5407594 C4.43202326,10.5514302 4.41334925,10.5683702 4.39027351,10.591446 C4.36706438,10.6145217 4.35119147,10.6327956 4.34225462,10.6461341 C4.33331777,10.6594727 4.32451431,10.6777466 4.31557746,10.7008223 C4.30317258,10.7364363 4.29783715,10.7749848 4.29957116,10.816868 C4.30130518,10.8586177 4.30944171,10.8955656 4.32358061,10.9275782 C4.33425147,10.9525213 4.35345903,10.980399 4.3809365,11.0116112 C4.40854736,11.0426901 4.43295696,11.0645654 4.45429869,11.0769703 C4.50578561,11.1053815 4.56100733,11.1179197 4.61969708,11.1143183 C4.67838683,11.1107169 4.73254147,11.0929766 4.78242775,11.060964 C4.83578207,11.023616 4.87353026,10.9715955 4.89580568,10.9049026 C4.91808111,10.8382097 4.91754757,10.7728507 4.89447183,10.7088255 C4.88913639,10.6874837 4.88166679,10.6701436 4.87179624,10.656805 C4.86205908,10.6434664 4.84298491,10.6226582 4.81444035,10.5941137 C4.78602917,10.5657025 4.76548776,10.5466283 4.75308288,10.5367578 C4.740678,10.5270206 4.723738,10.5194176 4.70239628,10.5140822 C4.6721177,10.5034113 4.63757078,10.4984761 4.59848874,10.4994098 Z M12.115979,7.66496155 L10.8914973,7.66496155 L11.1742752,8.99881954 L12.3987568,8.99881954 L12.115979,7.66496155 Z M14.3755344,7.66496155 L12.585497,7.66496155 L12.8684082,8.99881954 L14.7036634,8.99881954 L14.3755344,7.66496155 Z M13.9993864,6.18704691 L12.209349,6.18704691 L12.444108,7.23545928 L14.2341454,7.23545928 L14.2341454,7.18744039 L14.1887943,7.04605145 L14.1407754,6.76060584 L14.1407754,6.71258695 L13.9993864,6.18704691 Z M11.7878499,6.18704691 L10.5633683,6.18704691 L10.7981273,7.23545928 L12.0226089,7.23545928 L11.7878499,6.18704691 Z" id="Dozer"></path>
                </g>
            </g>
        </g>
    </g>
</svg>
