<?xml version="1.0" encoding="UTF-8"?>
<svg width="24px" height="24px" viewBox="0 0 24 24" version="1.1" xmlns="http://www.w3.org/2000/svg" xmlns:xlink="http://www.w3.org/1999/xlink">
    <title>Icon/SBU/ZPS/Default</title>
    <g id="Icon/SBU/ZPS/Default" stroke="none" stroke-width="1" fill="none" fill-rule="evenodd" fill-opacity="0.84">
        <path d="M14.8087228,6.77891549 L14.8087228,7.48720712 L12.8634871,7.48720712 L12.8634871,8.06205251 L15.4297611,8.06205251 L17.2006185,9.69933534 L17.5520697,9.69933534 L17.5520697,8.8139708 L19.5,8.8139708 L19.5,16.7360587 L17.5520697,16.7360587 L17.5520697,15.5838017 L16.7128981,15.5838017 L16.7128981,16.6026125 C16.7128981,16.718993 16.6945492,16.8245952 16.6577232,16.9195473 C16.6208972,17.0146278 16.5688018,17.0885365 16.5013088,17.14153 C16.4335592,17.1945236 16.3563143,17.2210845 16.2689327,17.2210845 L9.05783099,17.2210845 L7.55386609,15.7172479 L6.27072908,15.7172479 C6.15614494,15.7172479 6.05002951,15.6770857 5.95263941,15.596633 C5.86025355,15.5213129 5.78711474,15.4191752 5.73322298,15.2899633 C5.67933123,15.1607514 5.65238535,15.0226859 5.65238535,14.87551 L5.65238535,13.5051197 L5.20841995,13.5051197 L5.20841995,15.4965484 L4.5,15.4965484 L4.5,9.03723664 L5.16466497,9.03723664 L5.16466497,11.026099 L5.60606411,11.026099 L5.60606411,10.1869274 C5.60606411,10.0296148 5.63698771,9.88500526 5.69844997,9.75322709 C5.75503631,9.62837786 5.83099802,9.52919137 5.92684836,9.4555393 C6.02269869,9.38201555 6.12278338,9.34518952 6.22710242,9.34518952 L7.37679318,9.34518952 L7.37679318,8.63689789 C7.37679318,8.53424693 7.40001796,8.43506044 7.44608258,8.3392101 C7.49240383,8.24348808 7.55476429,8.16726974 7.63342059,8.11081171 C7.71733775,8.04922114 7.80882542,8.01842585 7.90814022,8.01842585 L10.4306593,8.01842585 L10.4306593,7.48720712 L8.43935894,7.48720712 L8.43935894,6.77891549 L14.8087228,6.77891549 Z M12.8634871,9.61208202 L11.4470321,9.61208202 L9.50179639,13.1946006 L12.375895,13.1946006 L11.3135859,16.0713937 L14.1466241,11.9576565 L11.624105,11.9576565 L12.8634871,9.61208202 Z" id="Gear-Box" fill="currentColor"></path>
    </g>
</svg>