<?xml version="1.0" encoding="UTF-8"?>
<svg width="24px" height="24px" viewBox="0 0 24 24" version="1.1" xmlns="http://www.w3.org/2000/svg" xmlns:xlink="http://www.w3.org/1999/xlink">
    <title>Icon/Communication/Email</title>
    <g id="Icon/Communication/Email" stroke="none" stroke-width="1" fill="none" fill-rule="evenodd" fill-opacity="0.84">
        <path d="M19.5,5.335 C20.0822507,5.335 20.6025149,5.60039615 20.9464212,6.01681715 C20.9527019,6.02261596 20.9578574,6.02905441 20.9629081,6.03562096 C21.2208124,6.35841196 21.375,6.76619975 21.375,7.21 L21.375,7.21 L21.375,17.21 C21.375,18.2455339 20.5355339,19.085 19.5,19.085 L19.5,19.085 L4.5,19.085 C3.46446609,19.085 2.625,18.2455339 2.625,17.21 L2.625,17.21 L2.625,7.21 C2.625,6.76619975 2.77918765,6.35841196 3.03691644,6.03728314 L3.03709192,6.03562096 L3.05357884,6.01681715 C3.39748509,5.60039615 3.91774925,5.335 4.5,5.335 L4.5,5.335 Z M20.125,7.468 L14.0619171,12.1320455 C12.9015936,13.0246561 11.3065542,13.0652294 10.1067441,12.2537906 L9.93812096,12.1320748 L3.875,7.469 L3.875,17.21 C3.875,17.5237982 4.10625788,17.7835831 4.40764208,17.8282234 L4.5,17.835 L19.5,17.835 C19.845178,17.835 20.125,17.555178 20.125,17.21 L20.125,17.21 L20.125,7.468 Z M19.223,6.585 L4.776,6.585 L10.7002504,11.1412878 C11.4186106,11.6939061 12.4012988,11.7284447 13.1527314,11.2448797 L13.2997876,11.1412586 L19.223,6.585 Z" id="Email" fill="currentColor"></path>
    </g>
</svg>