<?xml version="1.0" encoding="UTF-8"?>
<svg width="24px" height="24px" viewBox="0 0 24 24" version="1.1" xmlns="http://www.w3.org/2000/svg" xmlns:xlink="http://www.w3.org/1999/xlink">
    <title>Icon/SBU/ZBM/Default</title>
    <g id="Icon/SBU/ZBM/Default" stroke="none" stroke-width="1" fill="none" fill-rule="evenodd" fill-opacity="0.84">
        <path d="M6.87955207,12.2242205 C7.29477515,12.2242205 7.69388757,12.3051059 8.07705542,12.4667107 C8.44677005,12.6261564 8.77463019,12.848716 9.06030367,13.1343894 C9.34597714,13.4200629 9.56737409,13.747757 9.72466059,14.1176377 C9.88842457,14.4984803 9.97030656,14.8970944 9.97030656,15.3134801 C9.97030656,15.7298658 9.88842457,16.12848 9.72466059,16.5093226 C9.56737409,16.8792033 9.34597714,17.2068974 9.06030367,17.4925708 C8.77463019,17.7782443 8.44677005,18.0008039 8.07705542,18.1602496 C7.69388757,18.3218544 7.29527342,18.4027398 6.88121297,18.4027398 C6.46266811,18.4027398 6.06289133,18.3218544 5.68204872,18.1602496 C5.31200192,18.0029631 4.98447396,17.7815661 4.69880048,17.4958926 C4.41296091,17.2102192 4.19156397,16.8825251 4.03444356,16.5126444 C3.87051349,16.1294765 3.7886315,15.7298658 3.7886315,15.3134801 C3.7886315,14.8970944 3.87051349,14.4974838 4.03444356,14.1143159 C4.19156397,13.7444352 4.41362527,13.4167411 4.70046137,13.1310677 C4.98713138,12.8453942 5.31432717,12.6238311 5.68204872,12.4667107 C6.06521658,12.3051059 6.464329,12.2242205 6.87955207,12.2242205 Z M16.6024156,12.2242205 C17.0176387,12.2242205 17.4167511,12.3051059 17.799919,12.4667107 C18.1696336,12.6261564 18.4974937,12.848716 18.7831672,13.1343894 C19.0688407,13.4200629 19.2902376,13.747757 19.4475241,14.1176377 C19.6112881,14.4984803 19.6931701,14.8970944 19.6931701,15.3134801 C19.6931701,15.7298658 19.6112881,16.12848 19.4475241,16.5093226 C19.2902376,16.8792033 19.0688407,17.2068974 18.7831672,17.4925708 C18.4974937,17.7782443 18.1696336,18.0008039 17.799919,18.1602496 C17.4167511,18.3218544 17.018137,18.4027398 16.6040765,18.4027398 C16.1853656,18.4027398 15.7857549,18.3218544 15.4049123,18.1602496 C15.0348655,18.0008039 14.7073375,17.7782443 14.421664,17.4925708 C14.1358245,17.2068974 13.9144275,16.8792033 13.7573071,16.5093226 C13.593377,16.12848 13.511495,15.7298658 13.511495,15.3134801 C13.511495,14.8970944 13.593377,14.4984803 13.7573071,14.1176377 C13.9144275,13.747757 14.1364888,13.4200629 14.4233249,13.1343894 C14.7099949,12.848716 15.0371907,12.6261564 15.4049123,12.4667107 C15.7880801,12.3051059 16.1871925,12.2242205 16.6024156,12.2242205 Z M13.1361334,13.0114834 L13.5878961,13.4632461 C13.4173224,13.7289889 13.2866102,14.0191468 13.1957594,14.3335537 C13.1049086,14.652445 13.0597323,14.9901044 13.0597323,15.346698 C13.0597323,15.5725793 13.085144,15.836163 13.1361334,16.1372827 L12.3422269,16.1372827 L12.3422269,16.8946496 L10.3855296,16.8946496 L10.3855296,13.9914099 L13.1361334,13.0114834 Z M6.91758651,13.911687 C6.66961529,13.911687 6.43709036,13.9759636 6.22001174,14.1043505 C6.00974277,14.2305784 5.84149438,14.3988268 5.71526657,14.6092618 C5.58687959,14.8284996 5.52260306,15.0615228 5.52260306,15.3084975 C5.52260306,15.5554722 5.58687959,15.7873327 5.71526657,16.0044113 C5.84149438,16.2170056 6.00974277,16.3852539 6.22001174,16.5093226 C6.43709036,16.6400348 6.66961529,16.7053079 6.91758651,16.7053079 C7.16356466,16.7053079 7.39476087,16.6410314 7.61200558,16.5126444 C7.82244063,16.3864166 7.99052294,16.2181682 8.11691684,16.0077331 C8.24746297,15.7906545 8.31290213,15.5581296 8.31290213,15.3101584 C8.31290213,15.0621871 8.2486256,14.8284996 8.12023862,14.6092618 C7.99401081,14.3988268 7.82559633,14.2305784 7.61532736,14.1043505 C7.39824874,13.9759636 7.16572382,13.911687 6.91758651,13.911687 Z M16.6024156,13.911687 C16.3554409,13.911687 16.1234143,13.9759636 15.9065017,14.1043505 C15.6937414,14.2305784 15.5256591,14.3988268 15.4014244,14.6092618 C15.2707122,14.8284996 15.2056052,15.0615228 15.2056052,15.3084975 C15.2056052,15.5554722 15.2707122,15.7873327 15.4014244,16.0044113 C15.5256591,16.2170056 15.6937414,16.3852539 15.9065017,16.5093226 C16.1234143,16.6400348 16.3561053,16.7053079 16.6040765,16.7053079 C16.8610165,16.7053079 17.0976937,16.6410314 17.3149384,16.5126444 C17.5230482,16.3885757 17.6886392,16.2198291 17.8113791,16.0060722 C17.9342852,15.7923154 17.9964025,15.5609531 17.9974147,15.3118193 C17.9985617,15.0626854 17.9347834,14.8284996 17.8065625,14.6092618 C17.6801686,14.3988268 17.5120863,14.2305784 17.3016513,14.1043505 C17.0824135,13.9759636 16.8492242,13.911687 16.6024156,13.911687 Z M8.08369899,7.18175143 L9.28950681,10.3839518 L9.28950681,12.3438047 C8.94620037,12.0735775 8.57299787,11.8687895 8.1698993,11.7292746 C7.75583885,11.5852752 7.32616601,11.5133586 6.88121297,11.5133586 C6.37397646,11.5133586 5.8889959,11.6063685 5.42627131,11.7923885 C4.98098608,11.9717648 4.58021277,12.2275422 4.22378528,12.5597207 C3.87383527,12.8874148 3.59032096,13.2660982 3.37340842,13.695771 L3.37340842,15.7652429 L2.57618012,15.7652429 L2.57618012,10.3474122 L3.06780424,10.3474122 L3.06780424,9.10174293 C3.06780424,9.01537653 3.07876613,8.93449108 3.10102208,8.85925265 C3.12759636,8.77072709 3.16612906,8.70096962 3.21728454,8.64998022 C3.2503363,8.61676238 3.27923583,8.59234726 3.30365094,8.57690096 C3.34783068,8.54816753 3.3953322,8.53371776 3.44648768,8.53371776 L5.8180758,8.53371776 C5.93118257,8.53371776 6.00642099,8.57241655 6.04412324,8.64998022 C6.09943096,8.70312878 6.13929237,8.76840185 6.1635414,8.84596552 C6.18579736,8.91688562 6.19692534,9.00208939 6.19692534,9.10174293 L6.19692534,9.51696601 L6.724923,9.51696601 L6.724923,7.63351413 L4.57589445,7.63351413 L4.65229549,7.18175143 L8.08369899,7.18175143 Z M9.40228139,5.59726017 L10.1598144,7.63019235 L21.4238199,7.63019235 L21.4238199,9.47378281 L11.0201566,13.2107905 L8.49892207,6.50078558 L3.48967088,6.50078558 L3.48967088,5.59726017 L9.40228139,5.59726017 Z M15.1690656,10.5998678 L11.136419,10.5998678 L11.6245553,11.8853984 L15.1690656,10.5998678 Z M5.82156368,8.93897548 L3.52604442,8.93897548 L3.52604442,10.3374468 L4.12413174,10.3374468 L4.27693383,9.46713924 L5.82156368,9.46713924 L5.82156368,8.93897548 Z M20.4041981,8.64333665 L10.3788861,8.64333665 L10.7577356,9.66312453 L17.8794757,9.66312453 L20.4041981,8.75627733 L20.4041981,8.64333665 Z M7.6286145,7.66673198 L7.28979247,7.66673198 L7.28979247,9.51032244 L8.34611998,9.51032244 L7.6286145,7.66673198 Z" id="Dumper-Truck" fill="currentColor" transform="translate(12.000000, 12.000000) scale(-1, 1) translate(-12.000000, -12.000000) "></path>
    </g>
</svg>