<?xml version="1.0" encoding="UTF-8"?>
<svg width="24px" height="24px" viewBox="0 0 24 24" version="1.1" xmlns="http://www.w3.org/2000/svg" xmlns:xlink="http://www.w3.org/1999/xlink">
    <title>Icon/Essential/Cookie</title>
    <g id="Icon/Essential/Cookie" stroke="none" stroke-width="1" fill="none" fill-rule="evenodd" fill-opacity="0.84">
        <path d="M11.5813154,2.00968103 C12.040991,1.99102028 12.3626116,2.45860411 12.1807752,2.88119784 C11.8485577,3.65328217 11.9269873,4.54069147 12.3894715,5.24253977 C12.8519557,5.94438807 13.6364572,6.36652996 14.4755464,6.36583639 C15.0174155,6.36414264 15.543713,6.18442561 15.9734456,5.8543424 C16.3859268,5.53751018 16.9823484,5.83372868 16.9791549,6.35383752 C16.9750714,7.01887779 17.2364917,7.65806297 17.7054395,8.12963824 C18.1743873,8.6012135 18.8121018,8.86620104 19.4747221,8.86583951 C19.8716835,8.86407512 20.262347,8.76646624 20.6134882,8.58131416 C20.9573684,8.39999076 21.3815886,8.57325666 21.5001995,8.94347708 C22.8081286,13.0259168 21.3656627,17.4877279 17.91541,20.0318876 C14.4651572,22.5760474 9.77634604,22.6353393 6.26286293,20.1792389 C2.74937983,17.7231385 1.19455034,13.2992295 2.39882938,9.18502184 C3.60310843,5.07081417 7.29800389,2.18356402 11.5813154,2.00968103 Z M10.766,3.337 L10.5514741,3.36975351 C7.27465056,3.91386992 4.54929552,6.28792341 3.59849165,9.5361777 C2.54489817,13.1355946 3.90517943,17.0059615 6.97903752,19.154742 C10.0528956,21.3035225 14.1550187,21.2516495 17.1735582,19.0258281 C19.9599023,16.9712237 21.2495305,13.4870955 20.531445,10.1540542 L20.531445,10.1540542 L20.488,9.972 C20.2421021,10.0422432 19.9899793,10.0871646 19.7344163,10.1058841 L19.7344163,10.1058841 L19.4778455,10.1158332 C18.4798225,10.1163849 17.5228249,9.7187267 16.8190902,9.011049 C16.3860227,8.57555503 16.0708931,8.04480832 15.893977,7.46838382 L15.893977,7.46838382 L15.859,7.344 L15.670309,7.4161692 C15.3653758,7.52024731 15.0468198,7.58476834 14.7223544,7.60706724 L14.7223544,7.60706724 L14.4780178,7.61583312 C13.2168097,7.61687809 12.0396648,6.98345397 11.345707,5.93033024 C10.868611,5.20630768 10.6638946,4.35068137 10.744524,3.51016013 L10.744524,3.51016013 L10.766,3.337 Z M13.8525,14.4908333 C14.8880339,14.4908333 15.7275,15.3302994 15.7275,16.3658333 C15.7275,17.4013672 14.8880339,18.2408333 13.8525,18.2408333 C12.8169661,18.2408333 11.9775,17.4013672 11.9775,16.3658333 C11.9775,15.3302994 12.8169661,14.4908333 13.8525,14.4908333 Z M13.8525,15.7408333 C13.507322,15.7408333 13.2275,16.0206554 13.2275,16.3658333 C13.2275,16.7110113 13.507322,16.9908333 13.8525,16.9908333 C14.197678,16.9908333 14.4775,16.7110113 14.4775,16.3658333 C14.4775,16.0206554 14.197678,15.7408333 13.8525,15.7408333 Z M7.91666667,15.1158333 L8.02599897,15.1221406 C8.49225399,15.1762954 8.85416667,15.5725497 8.85416667,16.0533333 C8.85416667,16.5711003 8.43443362,16.9908333 7.91666667,16.9908333 C7.39889971,16.9908333 6.97916667,16.5711003 6.97916667,16.0533333 C6.97916667,15.5725497 7.34107934,15.1762954 7.80733436,15.1221406 L7.91666667,15.1158333 Z M17.8892152,11.9912783 C18.2200091,11.9820297 18.5353248,12.1487365 18.7125904,12.4354878 C18.9120141,12.7580831 18.8974286,13.1690536 18.6756372,13.4766997 C18.4538458,13.7843458 18.068545,13.9280564 17.6994605,13.840797 C17.3303761,13.7535375 17.0502234,13.4524994 16.9896813,13.0781036 C16.9070809,12.5672975 17.2539488,12.0861581 17.7646813,12.0031036 L17.8109962,11.9973088 L17.8892152,11.9912783 Z M7.14586706,8.48690909 C7.886229,8.13146627 8.75924751,8.16108651 9.47750002,8.57576979 C10.2510027,9.02235179 10.7275,9.84766935 10.7275,10.7408333 C10.7275,11.6339973 10.2510027,12.4593149 9.47750002,12.9058969 C8.70399732,13.3524789 7.75100268,13.3524789 6.97749998,12.9058969 C6.20399729,12.4593149 5.7275,11.6339973 5.7275,10.7408333 C5.7275,9.84766935 6.20399729,9.02235179 6.97749998,8.57576979 L6.97749998,8.57576979 Z M8.85250001,9.65830154 C8.46574866,9.43501054 7.98925134,9.43501054 7.60249999,9.65830154 C7.21574865,9.88159254 6.9775,10.2942513 6.9775,10.7408333 C6.9775,11.1874153 7.21574865,11.6000741 7.60249999,11.8233651 C7.98925134,12.0466561 8.46574866,12.0466561 8.85250001,11.8233651 C9.23925135,11.6000741 9.4775,11.1874153 9.4775,10.7408333 C9.4775,10.2942513 9.23925135,9.88159254 8.85250001,9.65830154 Z M12.8892152,9.49127829 C13.2200091,9.48202975 13.5353248,9.64873647 13.7125904,9.93548781 C13.9120141,10.2580831 13.8974286,10.6690536 13.6756372,10.9766997 C13.4538458,11.2843458 13.068545,11.4280564 12.6994605,11.340797 C12.3303761,11.2535375 12.0502234,10.9524994 11.9899504,10.5797537 C11.9495213,10.3339123 12.0087011,10.0820936 12.1544006,9.87999425 C12.3001001,9.67789492 12.5203126,9.54216949 12.7663319,9.50283746 L12.8892152,9.49127829 Z" id="Cookie" fill="currentColor"></path>
    </g>
</svg>