<?xml version="1.0" encoding="UTF-8"?>
<svg width="24px" height="24px" viewBox="0 0 24 24" version="1.1" xmlns="http://www.w3.org/2000/svg" xmlns:xlink="http://www.w3.org/1999/xlink">
    <title>Icon/Essential/Expand</title>
    <g id="Icons" stroke="none" stroke-width="1" fill="none" fill-rule="evenodd">
        <g id="Overview" transform="translate(-1125.000000, -396.000000)" fill="currentColor">
            <g id="Icons" transform="translate(368.500000, 100.000000)">
                <g id="Icon/Essential/Expand" transform="translate(756.500000, 296.000000)">
                    <path d="M10.5669417,13.4313916 C10.7838997,13.6483495 10.8080061,13.98513 10.6392611,14.2287152 L10.5669417,14.3152751 L4.132,20.7483333 L8.25,20.7483333 C8.56379815,20.7483333 8.82358314,20.9795912 8.8682234,21.2809754 L8.875,21.3733333 C8.875,21.6871315 8.64374212,21.9469165 8.34235792,21.9915567 L8.25,21.9983333 L2.57154559,21.9960572 L2.4899516,21.9837047 L2.42055943,21.9641241 L2.37001634,21.9441438 L2.32389851,21.921156 L2.26221228,21.8823838 L2.1969361,21.8287405 L2.18305826,21.8152751 C2.11073895,21.7429558 2.05984758,21.6573228 2.03038416,21.5662658 C2.01935277,21.5317998 2.01173663,21.4991784 2.0067766,21.4656913 L2,21.3733333 L2,15.7483333 C2,15.4031554 2.27982203,15.1233333 2.625,15.1233333 C2.93879815,15.1233333 3.19858314,15.3545912 3.2432234,15.6559754 L3.25,15.7483333 L3.25,19.8643333 L9.68305826,13.4313916 C9.92713594,13.1873139 10.3228641,13.1873139 10.5669417,13.4313916 Z M21.375,1.99833333 C21.4213688,1.99833333 21.4665582,2.00338282 21.5100484,2.01296192 L21.5794406,2.03254256 L21.6536964,2.06372146 L21.7177298,2.10053993 L21.8030639,2.1679262 L21.8169417,2.1813916 C21.8628588,2.22730862 21.9001377,2.27859269 21.9287784,2.33322445 C21.960754,2.39437639 21.9828253,2.46077347 21.9932234,2.53097541 L22,2.62333333 L22,8.24833333 C22,8.5935113 21.720178,8.87333333 21.375,8.87333333 C21.0612018,8.87333333 20.8014169,8.64207546 20.7567766,8.34069125 L20.75,8.24833333 L20.75,4.13033333 L14.3169417,10.5652751 C14.0728641,10.8093528 13.6771359,10.8093528 13.4330583,10.5652751 C13.2161003,10.3483171 13.1919939,10.0115366 13.3607389,9.76795145 L13.4330583,9.6813916 L19.866,3.24833333 L15.75,3.24833333 C15.4362018,3.24833333 15.1764169,3.01707546 15.1317766,2.71569125 L15.125,2.62333333 C15.125,2.30953518 15.3562579,2.0497502 15.6576421,2.00510994 L15.75,1.99833333 L21.375,1.99833333 Z" id="Expand"></path>
                </g>
            </g>
        </g>
    </g>
</svg>
