<?xml version="1.0" encoding="UTF-8"?>
<svg width="24px" height="24px" viewBox="0 0 24 24" version="1.1" xmlns="http://www.w3.org/2000/svg" xmlns:xlink="http://www.w3.org/1999/xlink">
    <title>Icon/Location/GPS</title>
    <g id="Icons" stroke="none" stroke-width="1" fill="none" fill-rule="evenodd">
        <g id="Overview" transform="translate(-453.000000, -578.000000)" fill="currentColor">
            <g id="Icons" transform="translate(368.500000, 100.000000)">
                <g id="Icon/Location/GPS" transform="translate(84.500000, 478.000000)">
                    <path d="M12,2 C12.3137982,2 12.5735831,2.23125788 12.6182234,2.53264208 L12.625,2.625 L12.6260983,5.15312594 C15.9237613,5.45082474 18.5497359,8.07710238 18.8469642,11.3749011 L21.375,11.375 C21.720178,11.375 22,11.654822 22,12 C22,12.3137982 21.7687421,12.5735831 21.4673579,12.6182234 L21.375,12.625 L18.8468741,12.6260983 C18.5492053,15.9234282 15.9234282,18.5492053 12.6260983,18.8468741 L12.625,21.375 C12.625,21.720178 12.345178,22 12,22 C11.6862018,22 11.4264169,21.7687421 11.3817766,21.4673579 L11.375,21.375 L11.3749011,18.8469642 C8.07710238,18.5497359 5.45082474,15.9237613 5.15312594,12.6260983 L2.625,12.625 C2.27982203,12.625 2,12.345178 2,12 C2,11.6862018 2.23125788,11.4264169 2.53264208,11.3817766 L2.625,11.375 L5.15303579,11.3749011 C5.45029413,8.07676923 8.07676923,5.45029413 11.3749011,5.15303579 L11.375,2.625 C11.375,2.27982203 11.654822,2 12,2 Z M12,6.375 C8.89339828,6.375 6.375,8.89339828 6.375,12 C6.375,15.1066017 8.89339828,17.625 12,17.625 C15.1066017,17.625 17.625,15.1066017 17.625,12 C17.625,8.89339828 15.1066017,6.375 12,6.375 Z" id="GPS"></path>
                </g>
            </g>
        </g>
    </g>
</svg>
