<?xml version="1.0" encoding="UTF-8"?>
<svg width="24px" height="24px" viewBox="0 0 24 24" version="1.1" xmlns="http://www.w3.org/2000/svg" xmlns:xlink="http://www.w3.org/1999/xlink">
    <title>Icon/SBU/Systems/Default 1</title>
    <g id="Icon/SBU/Systems/Default-1" stroke="none" stroke-width="1" fill="none" fill-rule="evenodd" fill-opacity="0.84">
        <path d="M5.93251661,2.92811647 C6.33650051,2.92811647 6.67754074,3.24261677 6.71816802,3.65379891 L6.71816802,3.65379891 L7.53986898,12.0002844 L10.5010824,9.58892579 C11.1053416,9.09926076 11.9997139,9.53774129 11.9997139,10.323139 L11.9997139,10.323139 L11.9997139,12.0002844 L14.9609273,9.58892579 C15.5651865,9.09926076 16.4595588,9.53774129 16.4595588,10.323139 L16.4595588,10.323139 L16.4595588,12.0002844 L19.4207722,9.58892579 C20.0250314,9.09926076 20.9194037,9.53774129 20.9194037,10.323139 L20.9194037,10.323139 L20.9194037,21.0718835 L3.08059628,21.0718835 L3.08059628,12.0002844 L3.90286946,3.65379891 C3.94349673,3.24261677 4.28396475,2.92811647 4.68852086,2.92811647 L4.68852086,2.92811647 Z M19.1346647,17.4411965 L15.5651865,17.4411965 L15.5651865,19.25654 L19.1346647,19.25654 L19.1346647,17.4411965 Z M13.7850252,17.4411965 L10.215547,17.4411965 L10.215547,19.25654 L13.7850252,19.25654 L13.7850252,17.4411965 Z M8.43481348,17.4411965 L4.86533535,17.4411965 L4.86533535,19.25654 L8.43481348,19.25654 L8.43481348,17.4411965 Z M19.1346647,13.8150592 L15.5651865,13.8150592 L15.5651865,15.6304027 L19.1346647,15.6304027 L19.1346647,13.8150592 Z M13.7850252,13.8150592 L10.215547,13.8150592 L10.215547,15.6304027 L13.7850252,15.6304027 L13.7850252,13.8150592 Z M8.43481348,13.8150592 L4.86533535,13.8150592 L4.86533535,15.6304027 L8.43481348,15.6304027 L8.43481348,13.8150592 Z" id="Factory" fill="currentColor"></path>
    </g>
</svg>