<?xml version="1.0" encoding="UTF-8"?>
<svg width="24px" height="24px" viewBox="0 0 24 24" version="1.1" xmlns="http://www.w3.org/2000/svg" xmlns:xlink="http://www.w3.org/1999/xlink">
    <title>Icon/Essential/Dashboard</title>
    <g id="Icon/Essential/Dashboard" stroke="none" stroke-width="1" fill="none" fill-rule="evenodd" fill-opacity="0.84">
        <path d="M12,2.00583333 C17.5228475,2.00583333 22,6.48298584 22,12.0058333 C22,17.5286808 17.5228475,22.0058333 12,22.0058333 C6.4771525,22.0058333 2,17.5286808 2,12.0058333 C2,6.48298584 6.4771525,2.00583333 12,2.00583333 Z M5.06655202,17.2293049 L5.00877503,17.2683457 C6.605704,19.3865092 9.1429406,20.7558333 12,20.7558333 C14.8570594,20.7558333 17.394296,19.3865092 18.991225,17.2683457 C14.7881685,14.4313711 9.2808785,14.4185644 5.06655202,17.2293049 Z M12,3.25583333 C7.16750844,3.25583333 3.25,7.17334177 3.25,12.0058333 C3.25,13.533083 3.64128016,14.9689443 4.32906335,16.2186402 C5.74260306,15.2682427 7.28884204,14.6078103 8.88717116,14.2369709 C9.00952138,12.7903603 10.1185983,11.6246 11.5390309,11.4145949 L13.2837396,6.18319098 C13.3928945,5.85572641 13.7468444,5.67875141 14.074309,5.78790627 C14.3690271,5.88614564 14.5418487,6.18266907 14.4938919,6.47971303 L14.4695937,6.57847569 L12.8314082,11.4926428 C14.070536,11.8337825 15.0014101,12.9188037 15.1136235,14.2372996 C16.711158,14.6078103 18.2573969,15.2682427 19.6701901,16.2182681 C20.3587198,14.9689443 20.75,13.533083 20.75,12.0058333 C20.75,7.17334177 16.8324916,3.25583333 12,3.25583333 Z M12.0091141,12.630855 C11.998867,12.6310018 11.996221,12.6309839 11.9935735,12.6309489 C11.1397321,12.6308333 10.4147789,13.2101846 10.194023,14.0000046 C11.3923177,13.8412733 12.6066735,13.8412293 13.8046035,13.9994242 C13.5856251,13.2126738 12.8651614,12.6349291 12.0091141,12.630855 Z M17.9391667,10.7558333 L18.048499,10.7621406 C18.514754,10.8162954 18.8766667,11.2125497 18.8766667,11.6933333 C18.8766667,12.2111003 18.4569336,12.6308333 17.9391667,12.6308333 C17.4213997,12.6308333 17.0016667,12.2111003 17.0016667,11.6933333 C17.0016667,11.2125497 17.3635793,10.8162954 17.8298344,10.7621406 L17.9391667,10.7558333 Z M6.06416667,10.7558333 L6.17349897,10.7621406 C6.63975399,10.8162954 7.00166667,11.2125497 7.00166667,11.6933333 C7.00166667,12.2111003 6.58193362,12.6308333 6.06416667,12.6308333 C5.54639971,12.6308333 5.12666667,12.2111003 5.12666667,11.6933333 C5.12666667,11.2125497 5.48857934,10.8162954 5.95483436,10.7621406 L6.06416667,10.7558333 Z M7.31416667,7.63083333 L7.42349897,7.63714058 C7.88975399,7.69129537 8.25166667,8.08754973 8.25166667,8.56833333 C8.25166667,9.08610029 7.83193362,9.50583333 7.31416667,9.50583333 C6.79639971,9.50583333 6.37666667,9.08610029 6.37666667,8.56833333 C6.37666667,8.08754973 6.73857934,7.69129537 7.20483436,7.63714058 L7.31416667,7.63083333 Z M16.6875,7.63083333 L16.7968323,7.63714058 C17.2272216,7.68712966 17.5687037,8.02861233 17.6186928,8.45900815 L17.625,8.56834222 C17.625,8.94797942 17.3960353,9.29013801 17.0451013,9.43494735 C16.6941673,9.57975669 16.2905426,9.49862748 16.0228173,9.22946664 C15.755092,8.9603058 15.6761223,8.556253 15.8228062,8.20609841 C15.9531919,7.89484989 16.2389903,7.68080888 16.5675189,7.63850882 L16.6875,7.63083333 Z M9.81416667,5.13083333 L9.92349897,5.13714058 C10.389754,5.19129537 10.7516667,5.58754973 10.7516667,6.06833333 C10.7516667,6.58610029 10.3319336,7.00583333 9.81416667,7.00583333 C9.29639971,7.00583333 8.87666667,6.58610029 8.87666667,6.06833333 C8.87666667,5.58754973 9.23857934,5.19129537 9.70483436,5.13714058 L9.81416667,5.13083333 Z" id="Dashboard" fill="currentColor"></path>
    </g>
</svg>