<?xml version="1.0" encoding="UTF-8"?>
<svg width="24px" height="24px" viewBox="0 0 24 24" version="1.1" xmlns="http://www.w3.org/2000/svg" xmlns:xlink="http://www.w3.org/1999/xlink">
    <title>Icon/Essential/Alarm Bell</title>
    <g id="Icon/Essential/Alarm-Bell" stroke="none" stroke-width="1" fill="none" fill-rule="evenodd" fill-opacity="0.84">
        <path d="M13.8468773,19.5253055 C14.1780794,19.6225318 14.3677542,19.9698418 14.2705279,20.3010439 C13.9749946,21.3077796 13.0513005,21.9992951 12.0020833,21.9992951 C10.9528662,21.9992951 10.0291721,21.3077796 9.7336388,20.3010439 C9.63641242,19.9698418 9.82608727,19.6225318 10.1572894,19.5253055 C10.4884916,19.4280791 10.8358015,19.6177539 10.9330279,19.9489561 C11.0723046,20.4234029 11.5076162,20.7492951 12.0020833,20.7492951 C12.4553449,20.7492951 12.8588994,20.4754551 13.0302893,20.0643703 L13.0711388,19.9489561 C13.1683652,19.6177539 13.5156751,19.4280791 13.8468773,19.5253055 Z M12,2 C12.3137982,2 12.5735831,2.23125788 12.6182234,2.53264208 L12.625,2.625 L12.6254334,3.90306596 C16.1292889,4.21903772 18.875,7.16387127 18.875,10.75 C18.875,13.0474343 19.0658005,14.7398015 19.3863059,15.9134644 C19.5003007,16.3309036 19.6232048,16.6529528 19.7468293,16.8910465 L19.7468293,16.8910465 L19.8289775,17.0375042 C19.8409523,17.0570874 19.8519475,17.0742433 19.8617811,17.0889504 L19.8617811,17.0889504 L19.9053876,17.1476374 L19.965052,17.2064465 C20.3196895,17.5919216 20.0555674,18.25 19.5,18.25 L19.5,18.25 L4.5,18.25 C3.97898874,18.25 3.6867016,17.649969 4.00787442,17.2397242 C4.01756077,17.2273515 4.02800789,17.212852 4.03915707,17.1961733 L4.03915707,17.1961733 L4.11400739,17.0695364 L4.20288991,16.8881008 C4.21871648,16.8531559 4.23501035,16.8158235 4.25171279,16.7760515 L4.25171279,16.7760515 L4.35636094,16.5077259 C4.41066696,16.358508 4.46759372,16.1863947 4.52555643,15.9899784 C4.89840413,14.7265218 5.125,13.0018251 5.125,10.75 L5.125,10.75 L5.12898654,10.5136476 C5.2465019,7.03516047 7.94811585,4.21194644 11.3747878,3.90304601 L11.375,2.625 C11.375,2.27982203 11.654822,2 12,2 Z M12,5.125 C8.89339828,5.125 6.375,7.64339828 6.375,10.75 C6.375,13.1167165 6.13284587,14.9598323 5.72444357,16.3437716 C5.65456537,16.5805655 5.58365122,16.792587 5.51328594,16.981072 L5.51328594,16.981072 L5.506,17 L18.409,17 L18.3588499,16.8699815 C17.9349176,15.7227877 17.6505621,13.8785919 17.6266369,11.1303791 L17.6266369,11.1303791 L17.625,10.75 C17.625,7.64339828 15.1066017,5.125 12,5.125 Z" id="Alarm-Bell" fill="currentColor"></path>
    </g>
</svg>