<?xml version="1.0" encoding="UTF-8"?>
<svg width="24px" height="24px" viewBox="0 0 24 24" version="1.1" xmlns="http://www.w3.org/2000/svg" xmlns:xlink="http://www.w3.org/1999/xlink">
    <title>Icon/Arrow/Down</title>
    <g id="Icons" stroke="none" stroke-width="1" fill="none" fill-rule="evenodd">
        <g id="Overview" transform="translate(-369.000000, -174.000000)" fill="currentColor">
            <g id="Icons" transform="translate(368.500000, 100.000000)">
                <g id="Icon/Arrow/Down" transform="translate(0.500000, 74.000000)">
                    <path d="M2.18303765,7.50026488 C2.39998547,7.28329682 2.73676484,7.25917467 2.98035789,7.42790837 L3.06692112,7.50022365 L11.999,16.4320003 L20.9330789,7.50022365 C21.1500469,7.28327583 21.4868286,7.2591851 21.7304059,7.42794153 L21.8169624,7.50026488 C22.0339102,7.71723294 22.0580009,8.05401456 21.8892445,8.29759187 L21.8169211,8.38414835 L12.883923,17.3163129 C12.6496079,17.550962 12.3316079,17.6828146 12,17.6828146 C11.7157647,17.6828146 11.441527,17.5859433 11.2216281,17.4107097 L11.1164122,17.3166484 L2.18307888,8.38414835 C1.93898981,8.14008205 1.93897135,7.74435394 2.18303765,7.50026488 Z" id="Down"></path>
                </g>
            </g>
        </g>
    </g>
</svg>
