<?xml version="1.0" encoding="UTF-8"?>
<svg width="24px" height="24px" viewBox="0 0 24 24" version="1.1" xmlns="http://www.w3.org/2000/svg" xmlns:xlink="http://www.w3.org/1999/xlink">
    <title>Icon/Social/LinkedIn</title>
    <g id="Icons" stroke="none" stroke-width="1" fill="none" fill-rule="evenodd">
        <g id="Overview" transform="translate(-621.000000, -1096.000000)" fill="currentColor">
            <g id="Icons" transform="translate(368.500000, 100.000000)">
                <g id="Icon/Social/LinkedIn" transform="translate(252.500000, 996.000000)">
                    <path d="M19.0616114,19.047619 L16.1232227,19.047619 L16.1232227,14.3809524 C16.1232227,13.2380952 16.1232227,11.8095238 14.6066351,11.8095238 C13.0900474,11.8095238 12.8056872,13.047619 12.8056872,14.2857143 L12.8056872,19.047619 L9.86729858,19.047619 L9.86729858,9.52380952 L12.7109005,9.52380952 L12.7109005,10.8571429 C13.2796209,9.9047619 14.3222749,9.23809524 15.4597156,9.33333333 C18.492891,9.33333333 18.9668246,11.3333333 18.9668246,13.9047619 L19.0616114,19.047619 Z M6.4549763,8.19047619 C5.507109,8.19047619 4.74881517,7.42857143 4.74881517,6.47619048 C4.74881517,5.52380952 5.507109,4.76190476 6.4549763,4.76190476 C7.4028436,4.76190476 8.16113744,5.52380952 8.16113744,6.47619048 C8.16113744,7.42857143 7.4028436,8.19047619 6.4549763,8.19047619 L6.4549763,8.19047619 Z M5.03317536,19.047619 L7.97156398,19.047619 L7.97156398,9.52380952 L5.03317536,9.52380952 L5.03317536,19.047619 Z M20.4834123,2 L3.51658768,2 C2.75829384,2 2.09478673,2.66666667 2,3.42857143 L2,20.5714286 C2,21.3333333 2.66350711,22 3.51658768,22 L20.4834123,22 C21.2417062,22 21.9052133,21.3333333 22,20.5714286 L22,3.42857143 C22,2.66666667 21.3364929,2 20.4834123,2 L20.4834123,2 Z" id="LinkedIn"></path>
                </g>
            </g>
        </g>
    </g>
</svg>
