<?xml version="1.0" encoding="UTF-8"?>
<svg width="24px" height="24px" viewBox="0 0 24 24" version="1.1" xmlns="http://www.w3.org/2000/svg" xmlns:xlink="http://www.w3.org/1999/xlink">
    <title>Icon/Flag/IN</title>
    <defs>
        <rect id="path-1" x="2" y="4.5" width="20" height="15" rx="1"></rect>
    </defs>
    <g id="Icon/Flag/IN" stroke="none" stroke-width="1" fill="none" fill-rule="evenodd">
        <mask id="mask-2" fill="white">
            <use xlink:href="#path-1"></use>
        </mask>
        <g id="Mask"></g>
        <g id="India" mask="url(#mask-2)" fill-rule="nonzero">
            <g transform="translate(2.000000, 4.500000)">
                <polygon id="#138808" fill="#138808" points="0 10 20 10 20 15 0 15"></polygon>
                <polygon id="#FFFFFF" fill="#FFFFFF" points="0 5 20 5 20 10 0 10"></polygon>
                <polygon id="#FF9933" fill="#FF9933" points="0 0 20 0 20 5 0 5"></polygon>
                <path d="M10,5.5 C11.1045695,5.5 12,6.3954305 12,7.5 C12,8.6045695 11.1045695,9.5 10,9.5 C8.8954305,9.5 8,8.6045695 8,7.5 C8,6.3954305 8.8954305,5.5 10,5.5 Z M9.92739373,7.84245931 L9.87678222,8.19167722 L9.54706667,9.1903702 L9.57945474,9.19914034 C9.61321498,9.20746827 9.6473611,9.21481632 9.6818612,9.22115259 C9.6901802,9.17245799 9.73447989,9.13942134 9.78267321,9.14576611 C9.8319536,9.15225399 9.86664377,9.19746311 9.86015589,9.2467435 L9.86,9.244 L10,9.25 L9.94,8.2 L9.98072932,7.84947848 C9.96254693,7.84849182 9.94473371,7.84611741 9.92739373,7.84245931 Z M10.0726063,7.84245931 C10.0491823,7.84740092 10.0248947,7.85 10,7.85 L10.017,7.847 L10.06,8.2 L10,9.25 L10,9.25 L10.1382985,9.24480427 C10.1330576,9.19634952 10.1674577,9.1523315 10.2160341,9.1459363 C10.2653144,9.13944841 10.3105236,9.17413859 10.3170114,9.22341898 C10.3519758,9.21495891 10.3864573,9.20754913 10.4205453,9.19914034 L10.4529333,9.1903702 L10.1232178,8.19167722 Z M9.8397674,7.81125038 L9.70196152,8.13621778 L9.12473211,9.01572616 C9.16489043,9.03896598 9.20605795,9.06065567 9.24815284,9.08071339 C9.26818183,9.03516047 9.31934886,9.01489369 9.36412283,9.03343967 C9.41004484,9.05246119 9.431852,9.10510833 9.41283048,9.15103034 C9.4245039,9.15321301 9.43565909,9.15705354 9.44686465,9.16078384 L9.54706667,9.1903702 L9.76087112,8.16061894 L9.89194565,7.83300209 C9.87386338,7.8271388 9.85642604,7.81984365 9.8397674,7.81125038 Z M10.1592101,7.81177569 C10.1428609,7.82014127 10.125767,7.82725864 10.1080543,7.83300209 L10.2391289,8.16061894 L10.4529333,9.1903702 L10.5531354,9.16078384 C10.5640013,9.15716658 10.57482,9.15344567 10.5855901,9.14962227 C10.567889,9.10336644 10.5897346,9.05255257 10.6346725,9.03393865 C10.6805945,9.01491713 10.7332417,9.03672429 10.7522632,9.0826463 C10.7929419,9.06116461 10.8341084,9.0395095 10.8742672,9.01630484 L10.2980385,8.13621778 Z M10.2933859,7.69092706 C10.2833697,7.70628699 10.2721799,7.72081179 10.2599437,7.73437425 L10.5374012,7.95254834 L11.2374369,8.73743687 L10.4525483,8.03740115 L10.2343742,7.75994372 C10.2205299,7.77243419 10.2056828,7.78383437 10.1899683,7.79400893 L10.4019615,8.07621778 L10.8752679,9.01572616 C10.9153296,8.99254224 10.954387,8.96781563 10.9923588,8.94162757 C10.9635532,8.90152793 10.9715492,8.8469553 11.0100591,8.81740562 C11.0494933,8.78714675 11.1059906,8.79458477 11.1362495,8.83401889 C11.2048498,8.77257933 11.2708159,8.70670878 11.3312415,8.63596334 C11.2935285,8.60493839 11.2869133,8.54979744 11.3166119,8.51109358 C11.3468707,8.47165945 11.4033681,8.46422144 11.4428022,8.4944803 C11.466955,8.45574529 11.492139,8.41602639 11.5157262,8.37526789 L10.5762178,7.90196152 Z M9.70661406,7.69092706 L9.42378222,7.90196152 L8.48427384,8.37526789 C8.50745776,8.41532961 8.53218437,8.45438698 8.55837243,8.49235875 C8.59847207,8.46355322 8.6530447,8.47154924 8.68259438,8.51005913 C8.71285325,8.54949325 8.70541523,8.60599059 8.66598111,8.63624945 C8.72742067,8.70484981 8.79329122,8.77081592 8.86403666,8.83124153 C8.89506161,8.79352845 8.95020256,8.78691334 8.98890642,8.81661186 C9.02834055,8.84687073 9.03577856,8.90336806 9.0055197,8.94280219 C9.04425471,8.96695504 9.08397361,8.99213901 9.12473211,9.01572616 L9.59803848,8.07621778 L9.80907294,7.79338594 C9.79371301,7.7833697 9.77918821,7.77217988 9.76562575,7.75994372 L9.54745166,8.03740115 L8.76256313,8.73743687 L9.46259885,7.95254834 L9.74005628,7.73437425 C9.72782012,7.72081179 9.7166303,7.70628699 9.70661406,7.69092706 Z M8.25,7.5 L8.25519573,7.63829845 C8.30365048,7.63305761 8.3476685,7.66745767 8.3540637,7.71603405 C8.36055159,7.76531444 8.32586141,7.81052356 8.27658102,7.81701145 C8.29554324,7.90934786 8.31965102,7.99903619 8.35037773,8.08559008 C8.39663356,8.06788903 8.44744743,8.08973456 8.46606135,8.13467253 C8.48508287,8.18059454 8.46327571,8.23324168 8.4173537,8.2522632 C8.43900175,8.29329158 8.46085043,8.33479234 8.48427384,8.37526789 L9.36378222,7.79803848 L9.68874962,7.6602326 C9.68015635,7.64357396 9.6728612,7.62613662 9.66699791,7.60805435 L9.33938106,7.73912888 L8.3096298,7.95293333 L9.30832278,7.62321778 L9.65754069,7.57260627 C9.65259908,7.54918226 9.65,7.52489465 9.65,7.5 L9.652,7.517 L9.3,7.56 L8.25000028,7.4989933 C8.25000009,7.49932884 8.25,7.49966441 8.25,7.5 Z M11.5163048,6.62573282 L10.6362178,7.20196152 L10.3117757,7.34078987 C10.3201413,7.35713914 10.3272586,7.37423297 10.3330021,7.39194565 L10.6606189,7.26087112 L11.6903702,7.04706667 L10.6916772,7.37678222 L10.3424593,7.42739373 C10.3474009,7.45081774 10.35,7.47510535 10.35,7.5 L10.348,7.481 L10.7,7.44 L11.75,7.5 L10.7,7.56 L10.3495317,7.51826299 C10.3485791,7.53679501 10.346185,7.55494608 10.3424593,7.57260627 L10.6916772,7.62321778 L11.6903702,7.95293333 L10.6606189,7.73912888 L10.3330021,7.60805435 C10.3271388,7.62613662 10.3198436,7.64357396 10.3112504,7.6602326 L10.6362178,7.79803848 L11.5157262,8.37526789 C11.538966,8.33510957 11.5606557,8.29394205 11.5807134,8.25184716 C11.5351605,8.23181817 11.5148937,8.18065114 11.5334397,8.13587717 C11.5524612,8.08995516 11.6051083,8.068148 11.6510303,8.08716952 C11.6800496,8.00004803 11.7042157,7.91035801 11.7211526,7.8181388 C11.672458,7.8098198 11.6394213,7.76552011 11.6457661,7.71732679 C11.652254,7.6680464 11.6974631,7.63335623 11.7467435,7.63984411 C11.7481493,7.59351408 11.75,7.54697317 11.75,7.5 L11.7448043,7.36170155 C11.6963495,7.36694239 11.6523315,7.33254233 11.6459363,7.28396595 C11.6394484,7.23468556 11.6741386,7.18947644 11.723419,7.18298855 C11.7044568,7.09065214 11.680349,7.00096381 11.6496223,6.91440992 C11.6033664,6.93211097 11.5525526,6.91026544 11.5339387,6.86532747 C11.5149171,6.81940546 11.5367243,6.76675832 11.5826463,6.7477368 C11.5611646,6.70705812 11.5395095,6.66589162 11.5163048,6.62573282 Z M8.44533182,6.69577424 L8.42125135,6.74802119 C8.46483953,6.76818183 8.48510631,6.81934886 8.46656033,6.86412283 C8.44753881,6.91004484 8.39489167,6.931852 8.34896966,6.91283048 C8.31995043,6.99995197 8.29578434,7.08964199 8.27884741,7.1818612 C8.32754201,7.1901802 8.36057866,7.23447989 8.35423389,7.28267321 C8.34774601,7.3319536 8.30253689,7.36664377 8.2532565,7.36015589 C8.2518774,7.4061384 8.25002654,7.45235247 8.25000028,7.4989933 L9.3,7.44 L9.6504817,7.48147782 C9.65144327,7.46303575 9.65383241,7.44497158 9.65754069,7.42739373 L9.30832278,7.37678222 L8.3096298,7.04706667 L9.33938106,7.26087112 L9.66699791,7.39194565 C9.67274136,7.37423297 9.67985873,7.35713914 9.68822431,7.34078987 L9.36378222,7.20196152 L8.48369516,6.62573282 C8.47039304,6.64875394 8.45760012,6.67210622 8.44533182,6.69577424 Z M9.07817469,6.01219022 L9.00861967,6.05920432 C9.03644678,6.09847207 9.02845076,6.1530447 8.98994087,6.18259438 C8.95050675,6.21285325 8.89400941,6.20541523 8.86375055,6.16598111 C8.79515019,6.22742067 8.72918408,6.29329122 8.66875847,6.36403666 C8.70647155,6.39506161 8.71308666,6.45020256 8.68338814,6.48890642 C8.65312927,6.52834055 8.59663194,6.53577856 8.55719781,6.5055197 C8.53304496,6.54425471 8.50786099,6.58397361 8.48427384,6.62473211 L9.42378222,7.09803848 L9.70599107,7.31003172 C9.71616563,7.29431718 9.72756581,7.27947008 9.74005628,7.26562575 L9.46259885,7.04745166 L8.76256313,6.26256313 L9.54745166,6.96259885 L9.76562575,7.24005628 C9.77918821,7.22782012 9.79371301,7.2166303 9.80907294,7.20661406 L9.59803848,6.92378222 L9.12473211,5.98427384 C9.1090576,5.99334476 9.09353683,6.00265184 9.07817469,6.01219022 Z M10.8752679,5.98427384 L10.4019615,6.92378222 L10.1899683,7.20599107 C10.2056828,7.21616563 10.2205299,7.22756581 10.2343742,7.24005628 L10.4525483,6.96259885 L11.2374369,6.26256313 L10.5374012,7.04745166 L10.2599437,7.26562575 C10.2724342,7.27947008 10.2838344,7.29431718 10.2940089,7.31003172 L10.5762178,7.09803848 L11.5157262,6.62473211 C11.4925422,6.58467039 11.4678156,6.54561302 11.4416276,6.50764125 C11.4015279,6.53644678 11.3469553,6.52845076 11.3174056,6.48994087 C11.2871468,6.45050675 11.2945848,6.39400941 11.3340189,6.36375055 C11.2725793,6.29515019 11.2067088,6.22918408 11.1359633,6.16875847 C11.1049384,6.20647155 11.0497974,6.21308666 11.0110936,6.18338814 C10.9716595,6.15312927 10.9642214,6.09663194 10.9944803,6.05719781 C10.9557453,6.03304496 10.9160264,6.00786099 10.8752679,5.98427384 Z M9.54706667,5.8096298 L9.44686465,5.83921616 C9.43599865,5.84283342 9.42518002,5.84655433 9.41440992,5.85037773 C9.43211097,5.89663356 9.41026544,5.94744743 9.36532747,5.96606135 C9.31940546,5.98508287 9.26675832,5.96327571 9.2477368,5.9173537 C9.20670842,5.93900175 9.16520766,5.96085043 9.12473211,5.98427384 L9.70196152,6.86378222 L9.8397674,7.18874962 C9.85642604,7.18015635 9.87386338,7.1728612 9.89194565,7.16699791 L9.76087112,6.83938106 L9.54706667,5.8096298 Z M10.4529333,5.8096298 L10.2391289,6.83938106 L10.1080543,7.16699791 C10.125767,7.17274136 10.1428609,7.17985873 10.1592101,7.18822431 L10.2980385,6.86378222 L10.8742672,5.98369516 C10.8344257,5.96067388 10.7935925,5.93917776 10.7518472,5.91928661 C10.7318182,5.96483953 10.6806511,5.98510631 10.6358772,5.96656033 C10.5899552,5.94753881 10.568148,5.89489167 10.5871695,5.84896966 C10.5754961,5.84678699 10.5643409,5.84294646 10.5531354,5.83921616 L10.4529333,5.8096298 Z M9.999,5.75 L9.86170155,5.75519573 C9.86694239,5.80365048 9.83254233,5.8476685 9.78396595,5.8540637 C9.73468556,5.86055159 9.68947644,5.82586141 9.68298855,5.77658102 C9.64802416,5.78504109 9.61354275,5.79245087 9.57945474,5.80085966 L9.54706667,5.8096298 L9.87678222,6.80832278 L9.92739373,7.15754069 C9.95081774,7.15259908 9.97510535,7.15 10,7.15 L9.981,7.151 L9.94,6.8 L9.999,5.75 Z M10,5.75 L9.999,5.75 L10.06,6.8 L10.0174995,7.15042986 C10.0362965,7.15135544 10.0547036,7.15376389 10.0726063,7.15754069 L10.1232178,6.80832278 L10.4529333,5.8096298 L10.4205453,5.80085966 C10.386785,5.79253173 10.3526389,5.78518368 10.3181388,5.77884741 C10.3098198,5.82754201 10.2655201,5.86057866 10.2173268,5.85423389 C10.1680464,5.84774601 10.1333562,5.80253689 10.1398441,5.7532565 C10.0935141,5.75185071 10.0469732,5.75 10,5.75 Z" id="#000080" fill="#000080"></path>
            </g>
        </g>
    </g>
</svg>