<?xml version="1.0" encoding="UTF-8"?>
<svg width="24px" height="24px" viewBox="0 0 24 24" version="1.1" xmlns="http://www.w3.org/2000/svg" xmlns:xlink="http://www.w3.org/1999/xlink">
    <title>Icon/Ecom/Cart</title>
    <g id="Icon/Ecom/Cart" stroke="none" stroke-width="1" fill="none" fill-rule="evenodd" fill-opacity="0.84">
        <path d="M8.5625,19.6875 L8.67183231,19.6938072 C9.13808732,19.747962 9.5,20.1442164 9.5,20.625 C9.5,21.142767 9.08026695,21.5625 8.5625,21.5625 C8.04473305,21.5625 7.625,21.142767 7.625,20.625 C7.625,20.107233 8.04473305,19.6875 8.5625,19.6875 Z M14.8125,19.6875 L14.9218323,19.6938072 C15.3880873,19.747962 15.75,20.1442164 15.75,20.625 C15.75,21.142767 15.330267,21.5625 14.8125,21.5625 C14.294733,21.5625 13.875,21.142767 13.875,20.625 C13.875,20.107233 14.294733,19.6875 14.8125,19.6875 Z M20.75,2.81499997 C21.095178,2.81499997 21.375,3.094822 21.375,3.43999997 C21.375,3.75379812 21.1437421,4.01358311 20.8423579,4.05822337 L20.75,4.06499997 L19.93,4.06499997 C19.659017,4.06499997 19.4232047,4.23855971 19.3382201,4.48794256 L19.3136468,4.58482445 L17.1161877,17.50125 C16.9721622,18.3498245 16.2717438,18.9840581 15.4274003,19.0557375 L15.2675,19.0625 L7,19.0625 C6.65482203,19.0625 6.375,18.782678 6.375,18.4375 C6.375,18.1237018 6.60625788,17.8639169 6.90764208,17.8192766 L7,17.8125 L15.2675,17.8125 C15.5385331,17.8125 15.7743903,17.6387599 15.8593097,17.388912 L15.8838532,17.2918422 L16.22,15.312 L6.90159808,15.3125 C5.53025566,15.3123495 4.32726816,14.4196547 3.9207641,13.124773 L3.8703276,12.9457514 L2.66201478,8.1125001 C2.56857081,7.73893895 2.65251592,7.34315867 2.88955733,7.03969356 C3.09696851,6.77416167 3.40133607,6.60524313 3.73192156,6.56730591 L3.875,6.55916657 L17.709,6.559 L18.0813831,4.37500001 C18.2259139,3.52692516 18.9261938,2.89335795 19.7701709,2.82175515 L19.93,2.81499997 L20.75,2.81499997 Z M17.497,7.809 L3.87465221,7.80916647 L5.08298525,12.6425 C5.27868204,13.4248381 5.94991792,13.9882562 6.74178911,14.0557052 L6.90166667,14.0625 L16.433,14.062 L17.497,7.809 Z" id="Cart" fill="#000000"></path>
    </g>
</svg>