<?xml version="1.0" encoding="UTF-8"?>
<svg width="24px" height="24px" viewBox="0 0 24 24" version="1.1" xmlns="http://www.w3.org/2000/svg" xmlns:xlink="http://www.w3.org/1999/xlink">
    <title>Icon/Social/Youtube</title>
    <g id="Icons" stroke="none" stroke-width="1" fill="none" fill-rule="evenodd">
        <g id="Overview" transform="translate(-957.000000, -1096.000000)" fill="currentColor">
            <g id="Icons" transform="translate(368.500000, 100.000000)">
                <g id="Icon/Social/Youtube" transform="translate(588.500000, 996.000000)">
                    <path d="M12.0917376,4.91681998 C12.1116803,4.91687108 12.1347252,4.91693922 12.1607245,4.91703007 L12.4704951,4.91861427 C13.14882,4.92306593 14.4699622,4.93769281 15.8286134,4.98575256 L16.3386836,5.00538756 C17.7821648,5.06571776 19.1825731,5.16707251 19.8138636,5.33734848 C20.6743182,5.56882576 21.3520455,6.25087121 21.5820455,7.11700758 C21.9442727,8.47747727 21.9925697,11.1190182 21.9990093,11.799243 L21.9998762,11.9199258 C22,11.9475641 22,11.9621212 22,11.9621212 L21.9999845,11.9728542 C21.999969,11.979948 21.9999381,11.9904965 21.9998762,12.0043152 L21.9990093,12.1249942 C21.9925697,12.805198 21.9442727,15.4466667 21.5820455,16.8072348 C21.3520455,17.6733712 20.6743182,18.3554167 19.8138636,18.5870076 C18.4027435,18.9675216 13.1486961,19.0037611 12.1607245,19.0072125 L11.8392755,19.0072125 C10.8513039,19.0037611 5.59725649,18.9675216 4.18613636,18.5870076 C3.32568182,18.3554167 2.64795455,17.6733712 2.41795455,16.8072348 C2.04179545,15.3943371 2.00417955,12.6001133 2.00041795,12.0553975 L2.00041795,11.8688419 C2.00417955,11.3241087 2.04179545,8.52980303 2.41795455,7.11700758 C2.64795455,6.25087121 3.32568182,5.56882576 4.18613636,5.33734848 C4.81742695,5.16707251 6.21783524,5.06571776 7.66131642,5.00538756 L8.17138661,4.98575256 C9.53003783,4.93769281 10.85118,4.92306593 11.5295049,4.91861427 L11.8392755,4.91703007 C11.8652748,4.91693922 11.8883197,4.91687108 11.9082624,4.91681998 Z M9.95454545,8.98837121 L9.95454545,14.9358712 L15.1818182,11.9622348 L9.95454545,8.98837121 Z" id="Youtube"></path>
                </g>
            </g>
        </g>
    </g>
</svg>
