<?xml version="1.0" encoding="UTF-8"?>
<svg width="24px" height="24px" viewBox="0 0 24 24" version="1.1" xmlns="http://www.w3.org/2000/svg" xmlns:xlink="http://www.w3.org/1999/xlink">
    <title>Icon/Essential/Check Small</title>
    <g id="Icons" stroke="none" stroke-width="1" fill="none" fill-rule="evenodd">
        <g id="Overview" transform="translate(-621.000000, -396.000000)" fill="currentColor">
            <g id="Icons" transform="translate(368.500000, 100.000000)">
                <g id="Icon/Essential/Check-Small" transform="translate(252.500000, 296.000000)">
                    <path d="M20.8038603,3.81480978 C21.0236957,3.54868915 21.417641,3.51116763 21.6837616,3.73100312 C21.9232702,3.92885506 21.9776135,4.26773592 21.825827,4.52753551 L21.7675683,4.6109045 L9.33030663,19.6667626 C8.93349283,20.1468315 8.34022815,20.4208862 7.71696433,20.4119207 C7.15077138,20.4033697 6.61588788,20.1617453 6.2358515,19.7484471 L6.12660953,19.6193689 L2.22089525,14.5965117 C2.00900867,14.3240197 2.05813909,13.9313533 2.33063112,13.7194667 C2.57587395,13.5287688 2.91845806,13.5494946 3.13898777,13.7541934 L3.20767618,13.8292026 L7.1132648,18.8518981 C7.26296638,19.0442885 7.49196311,19.1583801 7.73539181,19.1620566 C7.94442815,19.1650635 8.14493091,19.0866668 8.29567989,18.9459736 L8.36671741,18.8705241 L20.8038603,3.81480978 Z" id="Check-Small"></path>
                </g>
            </g>
        </g>
    </g>
</svg>
