<?xml version="1.0" encoding="UTF-8"?>
<svg width="24px" height="24px" viewBox="0 0 24 24" version="1.1" xmlns="http://www.w3.org/2000/svg" xmlns:xlink="http://www.w3.org/1999/xlink">
    <title>Icon/Ecom/Love-it</title>
    <g id="Icon/Ecom/Love-it" stroke="none" stroke-width="1" fill="none" fill-rule="evenodd" fill-opacity="0.84">
        <path d="M12.8622312,4.737578 L11.9982957,5.60000812 L11.1359504,4.73746002 C9.9195208,3.52115785 8.1924302,2.96363364 6.49426789,3.23915276 C4.79610557,3.51467189 3.33388075,4.58964804 2.56433165,6.12830337 L2.45818547,6.3536357 C1.59626362,8.3101112 1.97295014,10.5722978 3.39827808,12.1323283 L11.5480123,20.6329268 C11.7940563,20.8895434 12.2043106,20.8895233 12.4503295,20.6328827 L20.4411628,12.2970494 C22.0606662,10.6772568 22.4642677,8.18876117 21.4339924,6.12835235 L21.3143887,5.90315323 C20.5081492,4.47570585 19.1094443,3.49962367 17.5040317,3.23915276 C15.8058694,2.96363364 14.0787788,3.52115785 12.8622312,4.737578 Z M17.3038426,4.47301837 C18.5343172,4.67265728 19.6064055,5.42081107 20.2184794,6.50418026 L20.3232326,6.70146845 L20.4153587,6.89882342 C21.0494133,8.3581008 20.7714383,10.0698652 19.699114,11.2632223 L11.9982957,19.2970081 L4.46028724,11.4344923 C3.25255335,10.2275054 2.91480989,8.41754978 3.59576763,6.87148722 L3.6889209,6.67380219 C4.27213316,5.50812474 5.39287624,4.68419393 6.69445698,4.47301837 C7.99603771,4.2618428 9.31979095,4.68916519 10.2522312,5.62150777 L11.5573492,6.92579242 C11.8013946,7.16968193 12.196905,7.16968193 12.4409504,6.92579242 L13.7459504,5.62162575 C14.6236523,4.74401581 15.8478798,4.31386391 17.0740059,4.44235295 L17.3038426,4.47301837 Z" id="Love-it-Path" fill="currentColor"></path>
    </g>
</svg>