<?xml version="1.0" encoding="UTF-8"?>
<svg width="24px" height="24px" viewBox="0 0 24 24" version="1.1" xmlns="http://www.w3.org/2000/svg" xmlns:xlink="http://www.w3.org/1999/xlink">
    <title>Icon/SBU/ZRD/Default</title>
    <g id="Icon/SBU/ZRD/Default" stroke="none" stroke-width="1" fill="none" fill-rule="evenodd" fill-opacity="0.84">
        <path d="M7.14498585,14.4702791 C7.42281081,14.4702791 7.6882411,14.5239453 7.9414086,14.6311459 C8.18758761,14.7349182 8.40502157,14.8816762 8.59410604,15.0715519 C8.78319052,15.2614275 8.92942112,15.4785977 9.03319342,15.7229307 C9.14224004,15.9760982 9.19669743,16.2416604 9.19669743,16.5193535 C9.19669743,16.8077271 9.14224004,17.0819919 9.03319342,17.3422797 C8.92942112,17.591887 8.78319052,17.8115626 8.59410604,18.00157 C8.40502157,18.1913138 8.18758761,18.3355665 7.9414086,18.4339327 C7.6882411,18.5358589 7.42281081,18.5816137 7.14498585,18.571065 C6.8671609,18.571065 6.60093945,18.5175307 6.34592595,18.4101982 C6.10159294,18.3065578 5.8844227,18.1596679 5.69454708,17.9697922 C5.50467146,17.7799166 5.35791343,17.5627464 5.25414112,17.3184134 C5.14680865,17.0635317 5.09327428,16.7971784 5.09327428,16.5193535 C5.09327428,16.2416604 5.14680865,15.9760982 5.25414112,15.7229307 C5.35791343,15.4785977 5.50467146,15.2614275 5.69454708,15.0715519 C5.8844227,14.8816762 6.10159294,14.7349182 6.34592595,14.6311459 C6.60093945,14.5239453 6.8671609,14.4702791 7.14498585,14.4702791 Z M13.4240672,14.4702791 C13.7017603,14.4702791 13.9673224,14.5239453 14.2204899,14.6311459 C14.4666689,14.7349182 14.6841029,14.8816762 14.8731874,15.0715519 C15.0622718,15.2614275 15.2085024,15.4785977 15.3122747,15.7229307 C15.4211895,15.9760982 15.4757787,16.2416604 15.4757787,16.5193535 C15.4757787,16.8077271 15.4211895,17.0819919 15.3122747,17.3422797 C15.2085024,17.591887 15.0622718,17.8115626 14.8731874,18.00157 C14.6841029,18.1913138 14.4666689,18.3355665 14.2204899,18.4339327 C13.9673224,18.5358589 13.7017603,18.5816137 13.4240672,18.571065 C13.1462422,18.571065 12.8798889,18.5175307 12.6250073,18.4101982 C12.3806742,18.3065578 12.163504,18.1596679 11.9736284,17.9697922 C11.7837528,17.7799166 11.6369947,17.5627464 11.5332224,17.3184134 C11.4260218,17.0635317 11.3723556,16.7971784 11.3723556,16.5193535 C11.3723556,16.2416604 11.4260218,15.9760982 11.5332224,15.7229307 C11.6369947,15.4785977 11.7837528,15.2614275 11.9736284,15.0715519 C12.163504,14.8816762 12.3806742,14.7349182 12.6250073,14.6311459 C12.8798889,14.5239453 13.1462422,14.4702791 13.4240672,14.4702791 Z M7.77263027,9.61262775 L16.3540853,12.6269032 L16.3540853,13.589599 L16.5624211,13.589599 L19.8270951,16.4771589 L20.5813232,16.3954069 L21.2089676,16.8965994 L16.7310676,17.4819174 C16.5957812,17.4961581 16.4673514,17.4766431 16.346042,17.4240317 C16.2318529,17.3730026 16.1345417,17.2969205 16.0546357,17.1957854 C15.9747297,17.0947821 15.920536,16.9808567 15.8925821,16.854273 L15.8925821,16.5193535 C15.8925821,16.2187171 15.84063,15.9295523 15.7368577,15.6517274 C15.6366456,15.3827369 15.4942389,15.1391951 15.3097694,14.9212337 C15.1285964,14.7051183 14.9184147,14.5265825 14.679356,14.3860218 L14.679356,13.423326 L7.77263027,10.9524376 L7.77263027,9.61262775 Z M7.14366727,15.5989841 C6.97924026,15.5989841 6.82588932,15.6411787 6.68348261,15.7255679 C6.54463606,15.8082429 6.43387528,15.9190037 6.35120027,16.0578502 C6.26694296,16.202103 6.22461652,16.3558495 6.22461652,16.5193535 C6.22461652,16.6988123 6.26694296,16.8621845 6.35120027,17.0098655 C6.43387528,17.1541182 6.54463606,17.264879 6.68348261,17.3422797 C6.82588932,17.4212627 6.97976769,17.4547546 7.14498585,17.44236 C7.30848986,17.44236 7.46236823,17.3992424 7.6064891,17.3131391 C7.74533565,17.2323101 7.85609643,17.1224723 7.93877144,16.9834939 C8.0231606,16.839373 8.06535518,16.6850991 8.06535518,16.5206721 C8.06535518,16.3563769 8.0231606,16.202103 7.93877144,16.0578502 C7.85609643,15.9190037 7.74533565,15.8082429 7.6064891,15.7255679 C7.46236823,15.6411787 7.30809428,15.5989841 7.14366727,15.5989841 Z M13.380554,15.5989841 C13.2162588,15.5989841 13.0629079,15.6411787 12.9205012,15.7255679 C12.7815228,15.8082429 12.670762,15.9190037 12.588087,16.0578502 C12.5036978,16.202103 12.4615032,16.3558495 12.4615032,16.5193535 C12.4615032,16.6988123 12.5036978,16.8621845 12.588087,17.0098655 C12.670762,17.1541182 12.7815228,17.264879 12.9205012,17.3422797 C13.0629079,17.4212627 13.2166544,17.4547546 13.3820044,17.44236 C13.5453766,17.44236 13.699255,17.3992424 13.8435077,17.3131391 C13.9822224,17.2323101 14.0929831,17.1224723 14.1756582,16.9834939 C14.2601792,16.839373 14.3022419,16.6850991 14.3022419,16.5206721 C14.3022419,16.3563769 14.2601792,16.202103 14.1756582,16.0578502 C14.0929831,15.9190037 13.9822224,15.8082429 13.8435077,15.7255679 C13.699255,15.6411787 13.544981,15.5989841 13.380554,15.5989841 Z M7.81482485,11.3294198 L14.3444365,13.6738563 L14.3444365,14.174917 C14.2037439,14.1151853 14.0552717,14.0720677 13.8987562,14.0458279 C13.7580637,14.0211705 13.599834,14.0087758 13.4240672,14.0087758 C13.0847963,14.0087758 12.7595025,14.0747048 12.4483174,14.2065629 C12.147681,14.3349927 11.8814596,14.5151108 11.6492575,14.747181 C11.4171873,14.9793831 11.2378604,15.2456045 11.1112766,15.5462409 C10.9777044,15.8557118 10.9108523,16.1800827 10.9108523,16.5193535 C10.9108523,16.675869 10.9231151,16.8103642 10.9479045,16.9228392 C10.9758584,17.0494229 11.0197671,17.1522722 11.0797625,17.2313871 L9.57117435,17.2313871 C9.65556351,16.9799337 9.69775809,16.7286122 9.69775809,16.4771589 C9.69775809,16.0956935 9.61600609,15.7344024 9.45250208,15.3932856 C9.29598655,15.0662775 9.07802516,14.7850243 8.79848605,14.5493939 C8.5190788,14.3138954 8.20512474,14.1477542 7.85701943,14.0511023 L7.81482485,14.0087758 L7.81482485,11.3294198 Z M5.00901697,8.3995335 L7.26893244,9.19595625 L7.26893244,14.0511023 L7.14498585,14.0511023 C6.77578326,14.0511023 6.42332663,14.1283711 6.08748413,14.2830406 C5.76575044,14.4324358 5.48792548,14.6407715 5.25414112,14.9081797 C5.02022491,15.1753242 4.8551386,15.4759606 4.75835478,15.8099571 L3.50319781,15.5567896 L2.79103237,14.844756 L3.12595187,11.7065339 L4.0463212,10.8283592 L4.29685153,8.3995335 L5.00901697,8.3995335 Z M13.9673224,5.4274526 C14.0358886,5.4274526 14.0982575,5.44815432 14.1545609,5.48942589 C14.2108643,5.53069747 14.2487075,5.58225397 14.2679588,5.64369984 C14.2907703,5.71055188 14.288265,5.77819507 14.2601792,5.84676126 L13.9673224,6.80945703 L15.3070004,11.8726751 L14.5949668,11.5799502 L14.0518434,9.48868116 L12.1687783,9.48868116 L12.4615032,10.8283592 L11.9578054,10.6595808 L11.7072751,9.53087575 L10.4941808,9.53087575 L10.660322,10.2007147 L10.1592613,10.0319364 L10.0326776,9.53087575 L8.77752062,9.53087575 L7.81482485,9.19595625 L8.48466385,5.67811479 C8.50760715,5.61126275 8.54716457,5.55403635 8.60333611,5.50656744 C8.66834214,5.45382421 8.7404685,5.4274526 8.81958334,5.4274526 L13.9673224,5.4274526 Z M5.17634486,9.19595625 C5.0928787,9.19595625 5.0233895,9.22364644 4.96800911,9.27902683 C4.91262872,9.33440722 4.88493853,9.404292 4.88493853,9.48868116 C4.88493853,9.57135617 4.91262872,9.64071352 4.96800911,9.69701692 C5.0233895,9.75332031 5.0928787,9.78140608 5.17634486,9.78140608 C5.25981102,9.78140608 5.3296958,9.75332031 5.38599919,9.69701692 C5.44230259,9.64071352 5.47052022,9.5709606 5.47052022,9.48736258 C5.47052022,9.40389643 5.44230259,9.33440722 5.38599919,9.27902683 C5.3296958,9.22364644 5.25981102,9.19595625 5.17634486,9.19595625 Z M13.5480137,7.77188909 L11.7496015,7.77188909 L12.0421946,9.0693725 L13.8829332,9.0693725 L13.5480137,7.77188909 Z M11.2880983,7.77188909 L10.0748722,7.77188909 L10.3675971,9.0693725 L11.5806913,9.0693725 L11.2880983,7.77188909 Z M9.61336893,7.77188909 L8.73519418,7.77188909 L8.48466385,9.0693725 L9.90609384,9.0693725 L9.61336893,7.77188909 Z M13.1313422,6.30562735 L11.3723556,6.30562735 L11.6230178,7.35258043 L13.3820044,7.31038584 L13.3820044,7.26819126 L13.339678,7.10205009 L13.2554207,6.85151976 L13.2554207,6.80945703 L13.1313422,6.30562735 Z M10.9531788,6.30562735 L9.73995268,6.30562735 L9.99048301,7.35258043 L11.2035773,7.35258043 L10.9531788,6.30562735 Z M9.27844943,6.30562735 L9.0279191,6.30562735 L8.81958334,7.35258043 L9.53161692,7.35258043 L9.27844943,6.30562735 Z" id="Dozer" fill="currentColor"></path>
    </g>
</svg>