<?xml version="1.0" encoding="UTF-8"?>
<svg width="24px" height="24px" viewBox="0 0 24 24" version="1.1" xmlns="http://www.w3.org/2000/svg" xmlns:xlink="http://www.w3.org/1999/xlink">
    <title>Icon/Essential/Low Speed</title>
    <g id="Icon/Essential/Low-Speed" stroke="none" stroke-width="1" fill="none" fill-rule="evenodd" fill-opacity="0.84">
        <path d="M15.3247202,4.87503263 C17.1221071,4.89340114 18.8381119,5.62711374 20.0931698,6.91387976 C21.3482276,8.20064579 22.0389057,9.9344193 22.0124178,11.7123649 C22.0362626,13.1826023 21.4728727,14.6016595 20.447059,15.6551645 C20.2340278,15.8739464 20.0047059,16.0732122 19.7617693,16.2517696 C20.1442772,16.5698274 20.5222043,17.0064697 20.9010805,17.536798 C21.1694866,17.9124969 21.4207911,18.3122139 21.649103,18.7116648 L21.8545016,19.0827654 L21.9423195,19.2520966 C22.1363043,19.6399593 21.8860015,20.0917927 21.473993,20.1503133 L21.3833333,20.1566667 L8.25833333,20.1566667 C4.00966249,20.1566667 2.00833333,17.4275815 2.00833333,13.2816667 C2.00833333,11.9717294 2.51410347,10.9966171 3.31419676,10.4602833 L2.65199427,7.80825143 C2.56827632,7.47337961 2.77187675,7.13404556 3.10674857,7.0503276 C3.4081332,6.97498145 3.71313225,7.13236318 3.8321486,7.40871454 L3.8646724,7.5050819 L4.4928009,10.0200636 C4.70480901,9.99084751 4.92570656,9.98276169 5.15356163,9.99675595 L5.7769845,7.505121 C5.85231122,7.20373151 6.13469385,7.00865848 6.43454259,7.03367242 L6.534879,7.05031783 C6.83626849,7.12564456 7.03134152,7.40802718 7.00632758,7.70787593 L6.98968217,7.80821233 L6.37040094,10.2893237 C6.74017391,10.4511005 7.07577875,10.6737406 7.35973429,10.9456168 C7.61159031,10.06921 8.00949582,9.2285383 8.54657462,8.46115031 C10.0943861,6.24960899 12.6098658,4.91565064 15.3247202,4.87503263 Z M15.327729,6.12492937 C13.0299067,6.15947668 10.8883834,7.29512606 9.57067269,9.17789513 C8.80358245,10.2739277 8.36997298,11.5455594 8.29036152,12.8451526 C8.30083244,12.9490361 8.30525783,13.0545074 8.30413212,13.1615711 C8.30350977,13.2207616 8.29467908,13.2779436 8.27873293,13.3320472 C8.28237805,14.1053851 8.41313991,14.8825886 8.67369797,15.6323303 C8.78701005,15.9583797 8.61455238,16.3145526 8.288503,16.4278646 C7.96245361,16.5411767 7.60628077,16.3687191 7.49296869,16.0426697 C7.1364647,15.0168487 6.98682415,13.9472604 7.03609202,12.8911473 C6.92888253,12.1141557 6.29574139,11.4981338 5.47937596,11.3039959 C5.47647617,11.3050065 5.47413181,11.3044347 5.47178767,11.3038488 C5.3528929,11.274696 5.23702604,11.25668 5.11862211,11.2473321 C4.83210591,11.2247117 4.56847832,11.2546467 4.33529572,11.3367404 L4.28878546,11.3604819 C4.26575618,11.3704 4.24190072,11.3790265 4.21728491,11.3862517 C3.62537301,11.650327 3.25833333,12.2853793 3.25833333,13.2816667 C3.25833333,16.720242 4.72444875,18.803358 8.00860713,18.9029279 L8.25833333,18.9066667 L20.309,18.906 L20.1211953,18.6095395 L19.8839774,18.2634349 C19.4197439,17.6136285 18.9697429,17.1503494 18.6056595,16.9680712 C18.5782241,16.9543357 18.5519868,16.9425962 18.5269995,16.9327718 C17.9005176,17.1833576 17.2264343,17.317829 16.5351847,17.3249745 C14.010199,17.3021532 11.9817,15.2369216 12.0041906,12.7229684 C11.9859147,10.6342317 13.6638572,8.92590301 15.7649045,8.90670121 C17.5035139,8.92498187 18.8988875,10.3477979 18.8833082,12.0864335 C18.8802153,12.4315976 18.5978973,12.7089011 18.2527332,12.7058082 C17.907569,12.7027153 17.6302655,12.4203973 17.6333584,12.0752332 C17.6427587,11.0261675 16.8008119,10.1676624 15.7640812,10.1566402 C14.3654613,10.1695033 13.2419051,11.3134062 13.2541419,12.723067 C13.2377989,14.5577909 14.7117603,16.058443 16.5343231,16.0750339 C17.6719151,16.0631837 18.7578246,15.5982131 19.5514838,14.7831295 C20.3451429,13.9680459 20.7810306,12.8701393 20.7625678,11.7132949 C20.7841442,10.2484704 20.2212276,8.83540975 19.1983299,7.78666926 C18.1754322,6.73792877 16.7768533,6.13993807 15.327729,6.12492937 Z" id="Low-Speed" fill="currentColor" transform="translate(12.010743, 12.515850) scale(-1, 1) translate(-12.010743, -12.515850) "></path>
    </g>
</svg>