<?xml version="1.0" encoding="UTF-8"?>
<svg width="24px" height="24px" viewBox="0 0 24 24" version="1.1" xmlns="http://www.w3.org/2000/svg" xmlns:xlink="http://www.w3.org/1999/xlink">
    <title>Icon/SBU/New/Aviation 2</title>
    <g id="Icons" stroke="none" stroke-width="1" fill="none" fill-rule="evenodd">
        <g id="Overview" transform="translate(-453.000000, -726.000000)" fill="currentColor">
            <g id="Icons" transform="translate(368.500000, 100.000000)">
                <g id="Icon/SBU/New/Aviation-2" transform="translate(84.500000, 626.000000)">
                    <path d="M19.4495022,4.42829949 C19.6271671,4.60596447 19.7489946,4.81916244 19.8099083,5.06281726 C19.870822,5.30647208 19.870822,5.5501269 19.8099083,5.78870558 C19.7489946,6.02728426 19.6271671,6.24048223 19.4495022,6.42829949 L16.1888564,9.67535929 C15.9437578,9.91943662 15.8421998,10.2728458 15.9203272,10.6098075 L17.6642649,18.131371 C17.7422246,18.4676092 17.6412768,18.8202812 17.3972135,19.0643445 L16.9455208,19.5160372 C16.7502587,19.7112994 16.4336762,19.7112994 16.238414,19.5160372 C16.2026762,19.4802994 16.1725634,19.4393496 16.1491023,19.3945839 L12.97799,13.3438544 C12.9138973,13.2215605 12.7628012,13.1743792 12.6405073,13.2384719 C12.6180728,13.2502295 12.5975553,13.2653283 12.5796576,13.283251 L9.35689848,16.5105048 C9.24581735,16.6217409 9.19351779,16.7787416 9.21570173,16.9343705 L9.47503664,18.7537046 C9.49730173,18.9099027 9.44453518,19.0674464 9.33268356,19.1787244 L8.98965608,19.5199928 C8.79389262,19.7147523 8.47731117,19.7139385 8.28255163,19.518175 C8.24998649,19.485442 8.22211233,19.448356 8.19972378,19.4079742 L6.93507199,17.1269458 C6.88976255,17.0452221 6.82245857,16.9778305 6.74079377,16.9324149 L4.45694474,15.6623152 C4.21561097,15.5281041 4.12877092,15.2236648 4.26298204,14.982331 C4.28510913,14.9425429 4.31256674,14.9059632 4.34459366,14.8736061 L4.68786914,14.5267917 C4.79970963,14.4137982 4.95862058,14.3607273 5.11591549,14.3838386 L6.93188773,14.6506591 C7.08828921,14.6736391 7.24634573,14.6213037 7.35812565,14.5095237 L10.5843708,11.2832786 C10.6820019,11.1856475 10.6820019,11.0273563 10.5843708,10.9297252 C10.5664147,10.9117691 10.5458277,10.8966536 10.5233183,10.8848989 L4.45802216,7.71751552 C4.21324621,7.58969006 4.11843911,7.28763694 4.24626456,7.04286099 C4.26962558,6.99812644 4.29962461,6.95718645 4.33524187,6.92143272 L4.78768577,6.46725532 C5.0319026,6.22210279 5.38550434,6.12063022 5.72255534,6.19897718 L13.2436578,7.94724525 C13.5800463,8.02543821 13.9329725,7.92452458 14.1771767,7.68032042 L17.4393499,4.41814721 L17.4393499,4.41814721 C17.6170149,4.23540609 17.8302128,4.11357868 18.0738677,4.05266497 C18.3175225,3.98667513 18.5561012,3.98667513 18.799756,4.05266497 C19.0383347,4.11357868 19.2515326,4.23540609 19.4393499,4.41814721 L19.4495022,4.42829949 Z" id="Plane"></path>
                </g>
            </g>
        </g>
    </g>
</svg>
