<?xml version="1.0" encoding="UTF-8"?>
<svg width="24px" height="24px" viewBox="0 0 24 24" version="1.1" xmlns="http://www.w3.org/2000/svg" xmlns:xlink="http://www.w3.org/1999/xlink">
    <title>Icon/Flag/SG</title>
    <defs>
        <rect id="path-1" x="2" y="4.5" width="20" height="15" rx="1"></rect>
    </defs>
    <g id="Icon/Flag/SG" stroke="none" stroke-width="1" fill="none" fill-rule="evenodd">
        <mask id="mask-2" fill="white">
            <use xlink:href="#path-1"></use>
        </mask>
        <g id="Mask"></g>
        <g id="Singapore" mask="url(#mask-2)" fill-rule="nonzero">
            <g transform="translate(2.000000, 4.500000)">
                <rect id="#FFFFFF" fill="#FFFFFF" x="0" y="7.49780509" width="20" height="7.49780509"></rect>
                <rect id="#EF3340" fill="#EF3340" x="0" y="-4.4408921e-16" width="20" height="7.49780509"></rect>
                <path d="M3.85827231,0.929427919 C4.18456853,0.929427919 4.49792473,0.984862571 4.78943513,1.08682817 C3.36869078,1.14430869 2.2346976,2.31414843 2.2346976,3.74890255 C2.2346976,5.22042177 3.42767337,6.41339754 4.8991926,6.41339754 L4.7904617,6.41062794 C4.49866418,6.51281603 4.18495632,6.56837717 3.85827231,6.56837717 C2.30112815,6.56837717 1.03879769,5.30604671 1.03879769,3.74890255 C1.03879769,2.19175838 2.30112815,0.929427919 3.85827231,0.929427919 Z M4.38634273,4.36237296 L4.5319501,4.83675909 L5.00603632,4.83555944 L4.62192376,5.1277489 L4.76948057,5.60153521 L4.38649268,5.30769622 L4.00357978,5.60168516 L4.15098663,5.12789886 L3.76672411,4.83585935 L4.24088531,4.83683406 L4.38634273,4.36237296 Z M6.26701718,4.36237296 L6.41262455,4.83675909 L6.88671077,4.83555944 L6.50259821,5.1277489 L6.65015502,5.60153521 L6.26716713,5.30769622 L5.88425423,5.60168516 L6.03166108,5.12789886 L5.64739857,4.83585935 L6.12155976,4.83683406 L6.26701718,4.36237296 Z M3.82400735,2.57774539 L3.96961472,3.05213152 L4.44370094,3.05093187 L4.05958838,3.34312133 L4.20714519,3.81690764 L3.8241573,3.52306866 L3.4412444,3.81705759 L3.58865124,3.34327129 L3.20438873,3.05123178 L3.67854993,3.0522065 L3.82400735,2.57774539 Z M6.82935256,2.57774539 L6.97495994,3.05213152 L7.44904615,3.05093187 L7.0649336,3.34312133 L7.2124904,3.81690764 L6.82950252,3.52306866 L6.44658961,3.81705759 L6.59399646,3.34327129 L6.20973395,3.05123178 L6.68389514,3.0522065 L6.82935256,2.57774539 Z M5.32814202,1.46237191 L5.4737494,1.93675803 L5.94791059,1.93555838 L5.56379804,2.22774785 L5.71135484,2.70153415 L5.32836696,2.40769517 L4.94545405,2.70168411 L5.0928609,2.22789781 L4.70859839,1.9358583 L5.18268461,1.93683301 L5.32814202,1.46237191 Z" id="#FFFFFF" fill="#FFFFFF"></path>
            </g>
        </g>
    </g>
</svg>