<?xml version="1.0" encoding="UTF-8"?>
<svg width="24px" height="24px" viewBox="0 0 24 24" version="1.1" xmlns="http://www.w3.org/2000/svg" xmlns:xlink="http://www.w3.org/1999/xlink">
    <title>Icon/SBU/ZBM/Excavator</title>
    <g id="Icon/SBU/ZBM/Excavator" stroke="none" stroke-width="1" fill="none" fill-rule="evenodd" fill-opacity="0.84">
        <path d="M20.4842147,15.3708553 L20.4842147,18.7743733 L17.5208344,18.7743733 L17.5208344,19.2223098 C17.6888106,19.2277091 17.932776,19.2357079 18.2527307,19.2463064 C18.5992817,19.2569049 18.8526458,19.2677034 19.0126231,19.2783019 C19.2791854,19.2917 19.5097527,19.3088976 19.7045251,19.3302945 C19.9230942,19.3302945 20.1270653,19.3876864 20.3162385,19.5022702 C20.503012,19.6088551 20.6509911,19.7556343 20.7603756,19.9422079 C20.8723597,20.131581 20.9283518,20.3355522 20.9283518,20.5541212 L20.9283518,20.77409 C20.9283518,20.9928591 20.8723597,21.19803 20.7603756,21.3900028 C20.6509911,21.5739768 20.503012,21.720556 20.3162385,21.8299405 C20.1270653,21.9419246 19.9230942,21.9979167 19.7045251,21.9979167 L11.1137418,21.9979167 C10.8949728,21.9979167 10.6912017,21.9419246 10.5016285,21.8299405 C10.3176546,21.720556 10.1710754,21.5739768 10.0618908,21.3900028 C9.94710707,21.19803 9.88991517,20.9928591 9.88991517,20.77409 L9.88991517,20.5541212 C9.88991517,20.3355522 9.94710707,20.131581 10.0618908,19.9422079 C10.1710754,19.7556343 10.3176546,19.6088551 10.5016285,19.5022702 C10.6912017,19.3876864 10.8949728,19.3302945 11.1137418,19.3302945 C11.825441,19.2982991 12.7641081,19.2623042 13.9293431,19.2223098 L13.9293431,18.7743733 L11.1897311,18.7743733 C11.0589496,18.7743733 10.9515648,18.7329791 10.8675767,18.6503908 C10.7837886,18.5678025 10.7417945,18.4610177 10.7417945,18.3304361 L10.7417945,17.3705721 L13.9293431,16.9226355 L16.3370021,15.3708553 L20.4842147,15.3708553 Z M13.8091601,19.8262243 C12.7267134,19.842222 11.8282406,19.8742175 11.1137418,19.9222107 L11.041752,19.9222107 C10.9323675,19.9222107 10.8289822,19.9516065 10.7317959,20.0101982 C10.6342098,20.0687899 10.5564208,20.1469789 10.4978291,20.2441651 C10.4390374,20.3415513 10.4096416,20.4447367 10.4096416,20.5541212 L10.4096416,20.77409 C10.4096416,20.8834746 10.4390374,20.9866599 10.4978291,21.0840461 C10.5564208,21.1814324 10.6342098,21.2594213 10.7317959,21.318013 C10.8289822,21.3766047 10.9323675,21.4060005 11.041752,21.4060005 L19.74052,21.4060005 C19.8497046,21.4060005 19.9496904,21.3766047 20.0404775,21.318013 C20.1310647,21.2594213 20.2030545,21.1820323 20.2564469,21.0860459 C20.3096394,20.9900595 20.3364356,20.8860742 20.3364356,20.77409 L20.3364356,20.5541212 C20.3364356,20.4421371 20.3088395,20.3381518 20.2544472,20.2421654 C20.199655,20.146179 20.1256655,20.0701897 20.0324787,20.0141977 C19.9336927,19.9528064 19.8243081,19.9222107 19.7045251,19.9222107 L19.6325353,19.9222107 C18.9178365,19.8742175 18.0193638,19.842222 16.9369171,19.8262243 C15.8942648,19.8076269 14.8518124,19.8076269 13.8091601,19.8262243 Z M21.5562628,15.4068502 C21.6868444,15.4068502 21.7934293,15.4482444 21.8760176,15.5308327 C21.9586059,15.613421 22,15.7202058 22,15.8507873 L22,18.3704305 C22,18.4984124 21.9586059,18.6043973 21.8760176,18.6883854 C21.7934293,18.7723736 21.6868444,18.8143676 21.5562628,18.8143676 L20.9283518,18.8143676 L20.9283518,15.4068502 L21.5562628,15.4068502 Z M7.00632358,2.00474838 C7.08611228,2.01814649 7.14750359,2.06613969 7.19029753,2.14872799 L7.93019273,4.26042891 L7.52225051,4.96432921 L11.1497367,7.81592534 C11.5308828,8.11988229 11.853637,8.43723734 12.1173997,8.76779052 C12.39756,9.11714104 12.6187287,9.49048816 12.7815056,9.88763192 L13.4454116,12.4792649 L14.7412281,12.4792649 L16.0768389,12.739228 C16.1008355,13.0245876 16.1436294,13.4077334 16.2050208,13.8890652 C16.2664121,14.370397 16.3102059,14.7523429 16.3370021,15.0349029 L14.5572541,16.1467454 L14.5572541,13.0751805 L11.7816472,13.0751805 C11.6990589,13.2565548 11.6228697,13.4485276 11.5536795,13.6510989 C11.465692,13.9018634 11.3443092,14.2898084 11.1897311,14.8149341 L11.1897311,14.7389448 C11.0243545,13.7656827 10.8577781,12.9457988 10.6898019,12.2792932 C10.4898302,11.4768068 10.2696614,10.8129009 10.0298953,10.2875753 C9.76033353,9.69845871 9.45517675,9.25712122 9.11402506,8.96376277 L6.59418196,6.48011453 L4.11473312,10.7395113 L4.07853825,10.7395113 L5.78249692,13.2591544 C5.95047312,13.2591544 6.12624823,13.2257591 6.31022217,13.1591686 C6.41960668,13.1191742 6.58478329,13.043185 6.80635191,12.9312008 L6.89034001,12.8872071 L7.07811342,13.1831652 L6.85834454,13.3551408 C6.58378343,13.5685106 6.37441308,13.7256883 6.23043347,13.827074 C5.99286712,13.9924505 5.76889884,14.1244318 5.55852864,14.2230179 C5.24377322,14.3615983 4.92781797,14.4469862 4.61046291,14.4789816 C4.3147048,14.5083775 4.02654561,14.4897801 3.74678524,14.4229896 C3.48002302,14.3589986 3.23345794,14.2564132 3.00689003,14.1150332 C2.78532141,13.9764528 2.5961482,13.8084766 2.43897047,13.6111046 C2.28159276,13.4137325 2.16560918,13.1991629 2.09101975,12.9671958 C2.01363071,12.7298294 1.9854347,12.4886635 2.00703164,12.2432983 C2.02822864,11.9847349 2.10421788,11.7339704 2.23499935,11.4914048 C2.37357973,11.235441 2.56835214,10.9968748 2.81871668,10.7755062 L2.70693251,10.2235843 L4.89062323,3.85248668 L6.63437626,2.11273309 C6.78895437,2.02734518 6.91293681,1.99155025 7.00632358,2.00474838 Z" id="Excavator" fill="currentColor"></path>
    </g>
</svg>