<?xml version="1.0" encoding="UTF-8"?>
<svg width="24px" height="24px" viewBox="0 0 24 24" version="1.1" xmlns="http://www.w3.org/2000/svg" xmlns:xlink="http://www.w3.org/1999/xlink">
    <title>Icon/SBU/ZRD/Infrastructure</title>
    <g id="Icon/SBU/ZRD/Infrastructure" stroke="none" stroke-width="1" fill="none" fill-rule="evenodd" fill-opacity="0.84">
        <path d="M14.7129402,6.64373464 C14.7594185,6.64373464 14.7989353,6.66011466 14.8316953,6.69287469 L18.9758395,10.8001638 C19.0083948,10.8355856 19.0249795,10.8767404 19.0249795,10.9230139 C19.0249795,10.9694922 19.0083948,11.009009 18.9758395,11.041769 C18.9430794,11.0745291 18.9021294,11.0909091 18.8529894,11.0909091 L16.7932023,11.0909091 L20.1633907,21.7788698 C20.1687142,21.7981163 20.1715807,21.8157248 20.1715807,21.8323096 C20.1715807,21.8785831 20.1552007,21.9180999 20.1224406,21.9510647 C20.0896806,21.98362 20.0487305,22 19.9995905,22 L9.42628993,22 C9.40704341,22 9.38943489,21.9973382 9.37305487,21.99181 C9.32923833,21.9780917 9.29668305,21.9502457 9.27457002,21.9080672 C9.2528665,21.8656839 9.2487715,21.8226863 9.26248976,21.7788698 L12.6326781,11.0909091 L10.5728911,11.0909091 C10.523751,11.0909091 10.482801,11.0745291 10.450041,11.041769 C10.4172809,11.009009 10.4006962,10.9694922 10.4006962,10.9230139 C10.4006962,10.8767404 10.4185094,10.8355856 10.454136,10.8001638 L14.5941851,6.69287469 C14.6269451,6.66011466 14.6664619,6.64373464 14.7129402,6.64373464 Z M14.7231777,17.954136 C14.6126126,17.9514742 14.515561,17.9889435 14.4324324,18.0667486 C14.3490991,18.1445536 14.3061016,18.2407862 14.3034398,18.3554464 L14.3034398,20.1900082 C14.3061016,20.2993448 14.3456183,20.3920966 14.4221949,20.4684685 C14.4985667,20.5448403 14.5927518,20.5851761 14.7047502,20.5892711 C14.8167486,20.5933661 14.9133907,20.5565111 14.9954955,20.478706 C15.0773956,20.4009009 15.1195741,20.3046683 15.1224406,20.1900082 L15.1224406,18.3554464 C15.1195741,18.2463145 15.0800573,18.1527437 15.0036855,18.0749386 C14.9273137,17.9971335 14.8337428,17.9570025 14.7231777,17.954136 Z M14.7211302,13.8386568 C14.6091319,13.8359951 14.512285,13.8734644 14.4303849,13.9512695 C14.3484848,14.0290745 14.3061016,14.1240786 14.3034398,14.2358722 L14.3034398,16.0990991 C14.3061016,16.2110975 14.3484848,16.3058968 14.4303849,16.3837019 C14.512285,16.461507 14.6097461,16.499181 14.7231777,16.4963145 C14.8364046,16.4936527 14.9320229,16.4506552 15.009828,16.3673219 C15.0876331,16.2841933 15.1251024,16.1865274 15.1224406,16.0745291 L15.1224406,14.2358722 C15.1195741,14.1267404 15.0800573,14.0339885 15.0036855,13.957412 C14.9273137,13.8810401 14.8329238,13.8415233 14.7211302,13.8386568 Z M9.22153972,2 C9.48361998,2 9.72522523,2.06552007 9.94635545,2.1965602 C10.1619574,2.32207207 10.3339476,2.49283374 10.462326,2.70843571 C10.5933661,2.93222768 10.6588862,3.17403767 10.6588862,3.43325143 L11.494267,3.43325143 C11.5651106,3.43325143 11.6253071,3.45782146 11.6744472,3.50696151 C11.7233825,3.55610156 11.747543,3.61486486 11.7461097,3.68304668 C11.7446765,3.7512285 11.7194922,3.80876331 11.6703522,3.85503686 L10.6588862,4.87059787 L10.6588862,7.73710074 L11.7932023,7.73710074 L9.58599509,9.92792793 C9.45495495,10.0589681 9.3531941,10.2104832 9.28091728,10.3824734 C9.20843571,10.5544636 9.17219492,10.7346437 9.17219492,10.9230139 C9.17219492,11.1769042 9.23648649,11.4117527 9.36486486,11.6273546 C9.48751024,11.8402948 9.6541769,12.00819 9.86445536,12.1310401 C10.0829238,12.2594185 10.3190008,12.3235053 10.5728911,12.3235053 L10.9496314,12.3235053 L9.70884521,16.2506143 C9.55323505,16.3108108 9.38943489,16.3421376 9.21744472,16.3447993 L6.35094185,16.3447993 C6.09152334,16.3447993 5.8499181,16.2792793 5.62612613,16.1482391 C5.41031941,16.0200655 5.23853399,15.8478706 5.11015561,15.6322686 C4.98177723,15.4111384 4.91769042,15.1695332 4.91769042,14.9074529 L4.91769042,13.4782965 L3.9021294,12.4627355 C3.85298935,12.4135954 3.82841933,12.3548321 3.82841933,12.2866503 C3.82841933,12.2184685 3.85298935,12.1605242 3.9021294,12.1126126 C3.9510647,12.0649058 4.01003276,12.04095 4.07821458,12.04095 L4.91769042,12.04095 L4.91769042,9.17444717 L3.9021294,8.15888616 C3.85298935,8.11261261 3.82903358,8.05446355 3.83046683,7.98484848 C3.83169533,7.91523342 3.85647011,7.85667486 3.9041769,7.80876331 C3.9518837,7.76105651 4.01003276,7.73710074 4.07821458,7.73710074 L4.91769042,7.73710074 L4.91769042,4.87059787 L3.90622441,3.85503686 C3.8544226,3.80589681 3.82903358,3.7471335 3.83046683,3.67895168 C3.83169533,3.61076986 3.85687961,3.55282555 3.90622441,3.504914 C3.95536446,3.45720721 4.01392301,3.43325143 4.08230958,3.43325143 L4.92178542,3.43325143 C4.92178542,3.17403767 4.98587224,2.93222768 5.11425061,2.70843571 C5.24242424,2.49283374 5.41441441,2.32207207 5.63022113,2.1965602 C5.8540131,2.06552007 6.09561835,2 6.35503686,2 L9.22153972,2 Z M7.79013104,12.04095 C7.52948403,12.04095 7.28869779,12.1064701 7.06756757,12.2375102 C6.85176085,12.3630221 6.67997543,12.535217 6.55159705,12.7534808 C6.42055692,12.974611 6.35503686,13.215602 6.35503686,13.476249 C6.35503686,13.736896 6.42055692,13.977887 6.55159705,14.1990172 C6.67997543,14.4146192 6.85176085,14.5868141 7.06756757,14.7149877 C7.28869779,14.8460278 7.52948403,14.9115479 7.79013104,14.9115479 C8.0509828,14.9115479 8.29197379,14.8460278 8.51310401,14.7149877 C8.73136773,14.5868141 8.9033579,14.4146192 9.02907453,14.1990172 C9.16011466,13.977887 9.22563473,13.7362817 9.22563473,13.4742015 C9.22563473,13.2149877 9.16011466,12.974611 9.02907453,12.7534808 C8.90069615,12.535217 8.72870598,12.3630221 8.51310401,12.2375102 C8.29197379,12.1064701 8.0509828,12.04095 7.79013104,12.04095 Z M14.7027027,10.0917281 C14.5892711,10.0943898 14.4938575,10.1375921 14.4160524,10.2207207 C14.3382473,10.3040541 14.3005733,10.4015152 14.3034398,10.5135135 L14.3034398,12.3521704 C14.3061016,12.4613022 14.3456183,12.5542588 14.4221949,12.6306306 C14.4985667,12.7072072 14.5927518,12.746724 14.7047502,12.7493857 C14.8167486,12.7522523 14.9133907,12.7145782 14.9954955,12.6367731 C15.0773956,12.5589681 15.1195741,12.4641687 15.1224406,12.3521704 L15.1224406,10.4889435 C15.1195741,10.3771499 15.0773956,10.2821458 14.9954955,10.2043407 C14.9133907,10.1265356 14.8159296,10.0890663 14.7027027,10.0917281 Z M7.79013104,7.73710074 C7.52948403,7.73710074 7.28869779,7.8026208 7.06756757,7.93366093 C6.85176085,8.05917281 6.67997543,8.23136773 6.55159705,8.44963145 C6.42055692,8.67076167 6.35503686,8.91175266 6.35503686,9.17239967 C6.35503686,9.43304668 6.42055692,9.67403767 6.55159705,9.8951679 C6.67997543,10.1136364 6.85176085,10.2856265 7.06756757,10.4111384 C7.24447174,10.5159705 7.43447993,10.5788698 7.63759214,10.5998362 L7.79238329,10.6076986 C8.0518018,10.6076986 8.29197379,10.5421785 8.51310401,10.4111384 C8.73136773,10.2856265 8.9033579,10.1136364 9.02907453,9.8951679 C9.16011466,9.67403767 9.22563473,9.43304668 9.22563473,9.17239967 C9.22563473,8.91175266 9.16011466,8.67076167 9.02907453,8.44963145 C8.9033579,8.23402948 8.73136773,8.06203931 8.51310401,7.93366093 C8.29197379,7.8026208 8.0509828,7.73710074 7.79013104,7.73710074 Z M7.79013104,3.43734644 C7.52948403,3.43734644 7.28869779,3.501638 7.06756757,3.62981163 C6.85176085,3.75819001 6.67997543,3.93018018 6.55159705,4.14578215 C6.42055692,4.36957412 6.35503686,4.61138411 6.35503686,4.87059787 C6.35503686,5.13001638 6.42055692,5.37162162 6.55159705,5.5954136 C6.67997543,5.81101556 6.85176085,5.98177723 7.06756757,6.10728911 C7.24447174,6.21212121 7.43447993,6.27502048 7.63759214,6.2959869 L7.79238329,6.3038493 C8.0518018,6.3038493 8.29197379,6.23832924 8.51310401,6.10728911 C8.73136773,5.98177723 8.9033579,5.81101556 9.02907453,5.5954136 C9.16011466,5.37162162 9.22563473,5.13001638 9.22563473,4.87059787 C9.22563473,4.61138411 9.16011466,4.36957412 9.02907453,4.14578215 C8.9033579,3.93018018 8.73136773,3.75819001 8.51310401,3.62981163 C8.29197379,3.501638 8.0509828,3.43734644 7.79013104,3.43734644 Z" id="Infrastructure" fill="#000000"></path>
    </g>
</svg>