<?xml version="1.0" encoding="UTF-8"?>
<svg width="24px" height="24px" viewBox="0 0 24 24" version="1.1" xmlns="http://www.w3.org/2000/svg" xmlns:xlink="http://www.w3.org/1999/xlink">
    <title>Icon/Essential/Close Mini</title>
    <g id="Icons" stroke="none" stroke-width="1" fill="none" fill-rule="evenodd">
        <g id="Overview" transform="translate(-789.000000, -396.000000)" fill="currentColor">
            <g id="Icons" transform="translate(368.500000, 100.000000)">
                <g id="Icon/Essential/Close-Mini" transform="translate(420.500000, 296.000000)">
                    <path d="M7.98038188,7.11073895 L8.06694174,7.18305826 L12,11.117 L15.9330583,7.18305826 C16.1771359,6.93898058 16.5728641,6.93898058 16.8169417,7.18305826 C17.0338997,7.4000162 17.0580061,7.7367967 16.8892611,7.98038188 L16.8169417,8.06694174 L12.883,12 L16.8169417,15.9330583 C17.0610194,16.1771359 17.0610194,16.5728641 16.8169417,16.8169417 C16.5999838,17.0338997 16.2632033,17.0580061 16.0196181,16.8892611 L15.9330583,16.8169417 L12,12.883 L8.06694174,16.8169417 C7.82286406,17.0610194 7.42713594,17.0610194 7.18305826,16.8169417 C6.96610032,16.5999838 6.94199388,16.2632033 7.11073895,16.0196181 L7.18305826,15.9330583 L11.117,12 L7.18305826,8.06694174 C6.93898058,7.82286406 6.93898058,7.42713594 7.18305826,7.18305826 C7.4000162,6.96610032 7.7367967,6.94199388 7.98038188,7.11073895 Z" id="Close-Mini"></path>
                </g>
            </g>
        </g>
    </g>
</svg>
