<?xml version="1.0" encoding="UTF-8"?>
<svg width="24px" height="24px" viewBox="0 0 24 24" version="1.1" xmlns="http://www.w3.org/2000/svg" xmlns:xlink="http://www.w3.org/1999/xlink">
    <title>Icon/Flag/BR</title>
    <defs>
        <rect id="path-1" x="2" y="4.5" width="20" height="15" rx="1"></rect>
        <circle id="path-3" cx="3.49999992" cy="3.49999992" r="3.49999992"></circle>
    </defs>
    <g id="Icon/Flag/BR" stroke="none" stroke-width="1" fill="none" fill-rule="evenodd">
        <mask id="mask-2" fill="white">
            <use xlink:href="#path-1"></use>
        </mask>
        <g id="Mask"></g>
        <g id="Brazil" mask="url(#mask-2)">
            <g transform="translate(2.000000, 4.500000)">
                <polygon id="#009C3B" fill="#009C3B" fill-rule="evenodd" points="0 0 19.9999997 0 19.9999997 15 1.57898383e-15 15"></polygon>
                <polygon id="#FFDF00" fill="#FFDF00" fill-rule="nonzero" points="1.70000004 7.4999999 9.99999985 12.7999998 18.2999997 7.4999999 9.99999985 2.20000002"></polygon>
                <circle id="#002776" fill="#002776" fill-rule="nonzero" cx="9.99999985" cy="7.4999999" r="3.49999992"></circle>
                <g id="#FFFFFF" stroke-width="1" fill="none" fill-rule="evenodd" transform="translate(6.500000, 4.000000)">
                    <mask id="mask-4" fill="white">
                        <use xlink:href="#path-3"></use>
                    </mask>
                    <g id="Oval"></g>
                    <path d="M-6.99999984,10.5000001 C-6.99999984,5.80557954 -3.19442025,2.00000008 1.50000016,2.00000008 C6.19442018,2.00000008 10.0000002,5.80557954 10.0000002,10.5000001 L9.50000016,10.5000001 C9.50000016,6.08172186 5.91827786,2.50000008 1.50000016,2.50000008 C-2.91827793,2.50000008 -6.49999984,6.08172186 -6.49999984,10.5000001 L-6.99999984,10.5000001 Z" id="Path" fill="#FFFFFF" fill-rule="nonzero" mask="url(#mask-4)"></path>
                </g>
                <path d="M12.8799438,7.64248097 L12.8871154,7.6474893 L12.8871154,7.6474893 L12.9034025,7.65925607 L12.9034025,7.65925607 L12.9077314,7.6626905 L12.9077314,7.6626905 L12.912155,7.66644755 L12.912155,7.66644755 L12.9166287,7.67051495 C12.9181233,7.67192111 12.9196188,7.67337694 12.9211078,7.6748804 L12.9255476,7.6795316 C12.9262818,7.68032993 12.9270125,7.68113966 12.9277388,7.68196052 L12.9320359,7.68701733 L12.9320359,7.68701733 L12.9361821,7.69232917 L12.9361821,7.69232917 L12.9401326,7.69788376 C12.9606009,7.72813371 12.9708156,7.76821655 12.9402779,7.80974275 L12.8811574,7.76757275 C12.9018969,7.73849703 12.8823641,7.70847942 12.8513503,7.68635703 L12.8454114,7.68222663 C12.8180227,7.66371582 12.7951904,7.65643745 12.7764788,7.68266989 C12.7668461,7.69558427 12.7767021,7.71294726 12.7939915,7.73341639 L12.7996843,7.73998201 L12.7996843,7.73998201 L12.805787,7.74674474 L12.805787,7.74674474 L12.8326086,7.77557885 L12.8326086,7.77557885 L12.839495,7.7831862 L12.839495,7.7831862 L12.8462849,7.79093429 L12.8462849,7.79093429 L12.8528942,7.79881372 C12.8842662,7.83719994 12.906349,7.8798595 12.8762769,7.92201893 C12.8379604,7.97573689 12.7829294,7.96779731 12.7357466,7.94452175 L12.7289006,7.94101147 L12.7289006,7.94101147 L12.7221839,7.93731449 L12.7221839,7.93731449 L12.7156134,7.93346308 L12.7156134,7.93346308 L12.7092062,7.9294895 L12.7092062,7.9294895 L12.7029795,7.925426 L12.7029795,7.925426 L12.6969505,7.92130486 L12.6969505,7.92130486 L12.6915181,7.91742407 L12.6915181,7.91742407 L12.6864163,7.91356015 L12.6864163,7.91356015 L12.6812057,7.90937922 L12.6812057,7.90937922 L12.6759272,7.90489537 L12.6759272,7.90489537 L12.6706219,7.90012272 C12.6697377,7.89930399 12.6688542,7.89847382 12.667972,7.8976325 L12.6627034,7.89245309 L12.6627034,7.89245309 L12.6575106,7.88702013 C12.6566537,7.88609429 12.6558017,7.88515848 12.6549554,7.88421298 L12.6499531,7.87842616 L12.6499531,7.87842616 L12.645129,7.87242106 C12.6175887,7.83678207 12.6012428,7.79072165 12.6327335,7.74683894 L12.6937922,7.79039179 C12.6744355,7.81752894 12.6909251,7.84976322 12.7296925,7.8774156 C12.7684598,7.90506798 12.7958226,7.90557608 12.808305,7.88815846 C12.8198233,7.87201027 12.8103627,7.85251773 12.7929543,7.8306124 L12.787208,7.82361581 L12.787208,7.82361581 L12.7810244,7.81646533 L12.7810244,7.81646533 L12.7744949,7.80916749 L12.7744949,7.80916749 L12.7537423,7.78645493 L12.7537423,7.78645493 L12.7467408,7.77863281 C12.7455805,7.77731937 12.7444247,7.77600116 12.7432755,7.7746783 L12.7364731,7.76668646 C12.7041179,7.72780024 12.68041,7.68523486 12.7116855,7.64230275 C12.748946,7.59132997 12.7982964,7.59902788 12.8388384,7.61825594 L12.8453323,7.62146762 L12.8453323,7.62146762 L12.851652,7.62483677 L12.851652,7.62483677 L12.8577776,7.62831871 L12.8577776,7.62831871 L12.8665589,7.63365539 L12.8665589,7.63365539 L12.8721128,7.63722388 L12.8721128,7.63722388 L12.8799438,7.64248097 L12.8799438,7.64248097 Z M12.5240976,7.40257767 L12.5343199,7.40913085 L12.5343199,7.40913085 L12.5386658,7.41200682 L12.5386658,7.41200682 L12.5431684,7.41520996 L12.5431684,7.41520996 L12.5477826,7.41873033 L12.5477826,7.41873033 L12.552463,7.42255799 C12.5532461,7.42322099 12.55403,7.42389638 12.5548139,7.42458396 L12.5595088,7.42885394 C12.5907023,7.45827309 12.6187696,7.50652297 12.5833662,7.56035751 L12.5221199,7.52133894 C12.5413092,7.49121799 12.5202322,7.46226371 12.488103,7.44179514 L12.4819561,7.43798114 L12.4819561,7.43798114 L12.4759664,7.43450323 C12.4503544,7.42023084 12.4292175,7.41679672 12.4131412,7.44203323 C12.4045379,7.454924 12.414159,7.47098181 12.4312259,7.48957493 L12.4371758,7.49586567 C12.4382085,7.49692948 12.4392605,7.49800091 12.4403299,7.49907984 L12.4469408,7.50564253 L12.4469408,7.50564253 L12.4720938,7.5299544 L12.4720938,7.5299544 L12.47949,7.53726276 L12.47949,7.53726276 L12.4868168,7.54472252 C12.5243399,7.5836468 12.5555302,7.6284254 12.5253292,7.67583132 C12.4916058,7.72876643 12.4398601,7.72678051 12.3932898,7.70858063 L12.3861691,7.70565795 L12.3861691,7.70565795 L12.3791489,7.70251075 L12.3791489,7.70251075 L12.3722478,7.69917035 C12.3711086,7.69859926 12.3699752,7.69802142 12.3688479,7.69743749 L12.3621608,7.69386602 L12.3621608,7.69386602 L12.3556399,7.69017965 C12.354568,7.68955742 12.3535038,7.68893171 12.3524476,7.68830317 L12.3431716,7.68258751 L12.3431716,7.68258751 L12.3379529,7.67915584 L12.3379529,7.67915584 L12.332588,7.67540732 C12.331684,7.67475683 12.3307756,7.67409363 12.3298638,7.67341797 L12.3243579,7.66921655 L12.3243579,7.66921655 L12.3188101,7.66472812 C12.3160327,7.66241414 12.3132552,7.65999701 12.3105011,7.65748345 L12.305031,7.65232973 L12.305031,7.65232973 L12.299665,7.64693079 C12.2987817,7.6460112 12.2979044,7.64508188 12.2970341,7.6441431 L12.2919024,7.63839871 C12.2625346,7.60425 12.2438005,7.55910819 12.2729514,7.51363751 L12.3362058,7.55393275 C12.3182958,7.58204608 12.3364496,7.61337275 12.3766113,7.63895846 C12.4167728,7.66454418 12.4441247,7.66361942 12.4556785,7.64557227 C12.465775,7.62972397 12.4569114,7.61186355 12.4401941,7.59220218 L12.4343461,7.58558197 C12.4323099,7.58335319 12.430192,7.58110247 12.4280077,7.5788301 L12.4212703,7.5719483 L12.4212703,7.5719483 L12.3958678,7.54686388 L12.3958678,7.54686388 L12.3884664,7.5394189 L12.3884664,7.5394189 L12.3811689,7.53185355 L12.3811689,7.53185355 L12.3740666,7.52416957 C12.3415204,7.48803686 12.3183379,7.44808555 12.3463242,7.40511037 C12.3808657,7.35225734 12.4305514,7.35736191 12.4720443,7.37444183 L12.4786973,7.37730926 C12.479793,7.37780224 12.4808817,7.37830215 12.4819631,7.37880808 L12.4883593,7.38190872 L12.4883593,7.38190872 L12.4945565,7.38511036 L12.4945565,7.38511036 L12.5005328,7.38836943 L12.5005328,7.38836943 L12.5062658,7.39164237 L12.5062658,7.39164237 L12.5143612,7.39648243 L12.5143612,7.39648243 L12.5240976,7.40257767 L12.5240976,7.40257767 Z M12.0140114,7.10064276 L12.2626845,7.24133514 L12.2322011,7.29521419 L12.0332627,7.18266038 L12.0004344,7.24068419 L12.1662165,7.33447895 L12.138078,7.38421371 L11.9722959,7.29041847 L11.9300882,7.36502038 L12.1414603,7.48460894 L12.1109769,7.53848799 L11.8498702,7.39076133 L12.0140114,7.10064276 Z M11.6255195,6.90283073 L11.7959832,6.98782079 C11.8477627,7.01363708 11.86881,7.07654087 11.8429937,7.12832034 C11.8260231,7.16235819 11.793026,7.18311592 11.7576977,7.18601119 C11.7688864,7.21342283 11.7589415,7.25053518 11.7460938,7.28221464 L11.7421706,7.29154036 L11.7421706,7.29154036 L11.7381826,7.30044931 L11.7381826,7.30044931 L11.7342393,7.30885068 L11.7342393,7.30885068 L11.7286471,7.32030239 L11.7286471,7.32030239 L11.7260901,7.32544013 L11.674951,7.29994312 L11.6798521,7.29002649 L11.6798521,7.29002649 L11.6833751,7.2826466 C11.6839717,7.28136983 11.6845716,7.28007056 11.6851724,7.27875013 L11.6887711,7.27058427 C11.7006846,7.24258961 11.7111745,7.20720081 11.7021246,7.17512952 L11.5831696,7.1158378 L11.527926,7.22663919 L11.4725253,7.19901742 L11.6255195,6.90283073 Z M11.3561378,6.78141091 C11.4163232,6.80758027 11.4488074,6.87277071 11.4414601,6.94070174 L11.3805,6.91564868 C11.3787245,6.88127078 11.3610704,6.85105917 11.3314534,6.8381813 C11.286835,6.8187807 11.231962,6.84606673 11.208891,6.89912636 C11.18582,6.95218599 11.2032876,7.01092661 11.2479059,7.03032721 C11.279295,7.04397556 11.3157592,7.03451803 11.3426557,7.00923599 L11.2925264,6.98741781 L11.3115144,6.94374828 L11.4272387,6.99406661 L11.3607805,7.14690995 L11.317111,7.1279219 L11.3350059,7.08678134 C11.2993262,7.10161444 11.2595195,7.10288044 11.2232215,7.0870976 C11.1472497,7.05406414 11.1154168,6.95885494 11.1521206,6.87444189 C11.1888245,6.79002885 11.2801661,6.74837746 11.3561378,6.78141091 Z M11.6490369,6.98372844 L11.6107913,7.0604371 L11.7258543,7.11780539 C11.7470368,7.1283666 11.7727702,7.11975633 11.7833314,7.09857382 C11.7938926,7.07739131 11.7852824,7.05165794 11.7640998,7.04109673 L11.6490369,6.98372844 Z M10.9475786,6.6163423 C11.0251752,6.64535443 11.0619474,6.73876719 11.0297117,6.82498554 C10.997476,6.9112039 10.9084393,6.95757871 10.8308428,6.92856658 C10.7532463,6.89955445 10.7164741,6.80614168 10.7487098,6.71992333 C10.7809455,6.63370498 10.8699821,6.58733017 10.9475786,6.6163423 Z M10.8066943,6.74160259 C10.7864319,6.79579698 10.8069498,6.85354294 10.8525223,6.87058182 C10.8980949,6.88762068 10.9514647,6.85750019 10.9717271,6.80330581 C10.9919896,6.74911142 10.9714717,6.69136546 10.9258991,6.67432658 C10.8803266,6.65728771 10.8269568,6.68740821 10.8066943,6.74160259 Z M10.3924243,6.42920831 L10.5740847,6.4864856 C10.6292652,6.50388396 10.6598937,6.56272078 10.6424953,6.61790132 C10.6310583,6.65417489 10.6017147,6.67983894 10.5672743,6.68822514 C10.5847499,6.71707624 10.5771021,6.7626547 10.5674571,6.79863977 L10.5647945,6.80819625 L10.5647945,6.80819625 L10.5621371,6.81715838 L10.5621371,6.81715838 L10.5578673,6.83088199 L10.5033692,6.81369881 L10.5067864,6.80271768 L10.5067864,6.80271768 L10.5092002,6.79454266 C10.5180839,6.76345179 10.5266028,6.72069062 10.5106831,6.68617098 L10.3839174,6.6462179 L10.3466871,6.76429714 L10.2876475,6.74568202 L10.3924243,6.42920831 Z M9.96675299,6.31505945 L10.151162,6.36275088 C10.2071708,6.37724318 10.2408294,6.43439235 10.2263441,6.49040288 C10.2122121,6.54504731 10.157476,6.57842366 10.1028013,6.56657471 L10.0987015,6.56560087 L9.96961514,6.53221659 L9.93861571,6.65208277 L9.87868276,6.63658277 L9.96675299,6.31505945 Z M10.4283073,6.50543112 L10.4025325,6.58717828 L10.5251532,6.62584046 C10.5477271,6.63295797 10.5717967,6.62042812 10.5789142,6.59785426 C10.5860317,6.57528041 10.5735019,6.5512108 10.550928,6.54409329 L10.4283073,6.50543112 Z M9.29651872,6.21658612 L9.53704129,6.25791564 L9.52736419,6.31423326 L9.34315905,6.28258088 L9.33428839,6.33420516 L9.48916148,6.36081707 L9.47948439,6.41713468 L9.32461129,6.39052278 L9.31170844,6.46561278 L9.50177996,6.49827278 L9.49210286,6.55459039 L9.24571387,6.51225325 L9.29651872,6.21658612 Z M10.006576,6.38929945 L9.98511485,6.47228373 L10.1095909,6.50447563 C10.1325053,6.51039914 10.1558834,6.49662673 10.1618093,6.47371294 C10.1677352,6.45079916 10.1539653,6.42741963 10.1310521,6.42149135 L10.006576,6.38929945 Z M7.14332269,6.29323061 C7.15453316,6.38453249 7.09705073,6.46674502 7.0148894,6.47691849 C6.93270742,6.48692387 6.85704344,6.42105969 6.84583296,6.32975781 C6.83462249,6.23845593 6.89210491,6.1562434 6.97426625,6.14606993 C7.05644823,6.13606455 7.13211221,6.20192873 7.14332269,6.29323061 Z M8.5841315,6.10228802 L8.66714774,6.10955088 L8.7136394,6.34306278 L8.79997369,6.12117183 L8.88298992,6.12843469 L8.85393802,6.46049944 L8.79701259,6.45551897 L8.81693392,6.22781755 L8.73059959,6.44970897 L8.67841798,6.44514325 L8.63192631,6.21163135 L8.61200502,6.43933325 L8.5550796,6.43435278 L8.5841315,6.10228802 Z M7.56982535,6.19787907 C7.57247846,6.23582032 7.55458257,6.27045306 7.52561212,6.29087819 C7.55000627,6.30945887 7.56014867,6.34851159 7.56495768,6.38326924 L7.5662493,6.39354291 L7.5662493,6.39354291 L7.56727443,6.40341028 L7.56727443,6.40341028 L7.56808657,6.41272274 L7.56808657,6.41272274 L7.56914362,6.42705631 L7.51213996,6.43104239 L7.51121459,6.4185862 L7.51121459,6.4185862 L7.51036912,6.40931618 C7.50712702,6.37734393 7.49916998,6.33551291 7.47220585,6.30970771 L7.33961793,6.31899446 L7.34825444,6.44250239 L7.28650048,6.44682064 L7.26799863,6.11396713 L7.45801082,6.10068018 C7.51572828,6.09664418 7.56578935,6.14016161 7.56982535,6.19787907 Z M8.1438287,6.08322564 L8.42936893,6.0931966 L8.42720849,6.15506374 L8.1987763,6.14708707 L8.19644967,6.21371278 L8.38680982,6.2203604 L8.38481557,6.2774685 L8.19445541,6.27082088 L8.19146403,6.35648278 L8.43417322,6.36495849 L8.43201278,6.42682564 L8.13219554,6.41635564 L8.1438287,6.08322564 Z M7.96198076,6.12456303 C7.98787244,6.14956637 8.00332076,6.18336801 8.00536775,6.21916503 L8.00557916,6.22483278 L8.00641023,6.27244469 C8.00776018,6.3497837 7.94739321,6.41383938 7.87068951,6.41761917 L7.86606805,6.41777325 L7.70894913,6.42051564 L7.70313166,6.08723326 L7.86025058,6.08449041 C7.89813291,6.08382917 7.93472636,6.09824372 7.96198076,6.12456303 Z M6.98181054,6.20751326 C6.93356813,6.21350535 6.90019701,6.2648384 6.9072423,6.32221767 C6.91428759,6.37959693 6.95908604,6.42133196 7.00734506,6.41547516 C7.05558747,6.40948307 7.08895859,6.35815002 7.0819133,6.30077075 C7.07486801,6.24339149 7.03006956,6.20165646 6.98181054,6.20751326 Z M7.85656978,6.14646898 L7.76610738,6.14804802 L7.76976407,6.35753992 L7.86022648,6.35596088 C7.91018749,6.3550888 7.94998193,6.31388045 7.94910986,6.26391945 L7.94861122,6.23535231 C7.94773912,6.18539132 7.90653077,6.1455969 7.85656978,6.14646898 Z M7.45757877,6.1627724 L7.32932054,6.17225502 L7.33529967,6.26266015 L7.4635579,6.25317754 C7.48716959,6.25143184 7.50497217,6.22977879 7.50332108,6.2048141 C7.50166999,6.17984941 7.48119046,6.1610267 7.45757877,6.1627724 Z M13.0183693,7.95011764 C13.075665,7.87808707 13.174663,7.86149119 13.2394979,7.91304798 C13.304318,7.96462332 13.3104173,8.06481727 13.2531217,8.13684784 C13.195826,8.20887841 13.096828,8.22547429 13.0319931,8.1739175 C12.967173,8.12234216 12.9610737,8.02214821 13.0183693,7.95011764 Z M13.0669275,7.98874216 C13.0309563,8.0339641 13.032568,8.0951388 13.0705298,8.12546988 C13.108623,8.15563566 13.1685924,8.14344479 13.2045635,8.09822285 C13.2405347,8.0530009 13.2389229,7.99182621 13.2009612,7.96149512 C13.162868,7.93132935 13.1028986,7.94352021 13.0669275,7.98874216 Z" id="#009C3B" fill="#009C3B" fill-rule="nonzero"></path>
                <path d="M9.9833454,10.249884 L9.95244731,10.2262913 L9.99064612,10.2262706 L10.0024473,10.1880947 L10.0142346,10.2262706 L10.0524473,10.2262913 L10.0215353,10.249884 L10.033349,10.2880947 L10.0024503,10.2644859 L9.97154561,10.2880947 L9.9833454,10.249884 Z M11.7476189,10.0238094 L11.7700596,10.0928893 L11.8427245,10.0929077 L11.7839463,10.1356063 L11.8063974,10.2047111 L11.7476067,10.1620025 L11.6888403,10.2047111 L11.711286,10.1356063 L11.6525132,10.0929077 L11.7251539,10.0928893 L11.7476189,10.0238094 Z M11.047619,9.73214265 L11.0756633,9.81851196 L11.166501,9.81851553 L11.0930218,9.87188932 L11.1210921,9.95826977 L11.0476067,9.90488932 L10.9741458,9.95826977 L11.0021916,9.87190819 L10.9287369,9.81851553 L11.0195501,9.81851196 L11.047619,9.73214265 Z M11.7523809,9.64642837 L11.7804369,9.73279498 L11.8712629,9.73280124 L11.7977765,9.78617234 L11.825854,9.87255549 L11.7523803,9.81917234 L11.6789077,9.87255549 L11.7069652,9.78617234 L11.6334988,9.73280124 L11.7243048,9.73279498 L11.7523809,9.64642837 Z M11.3476189,9.4476189 L11.3700596,9.51670064 L11.4427245,9.5167172 L11.3839463,9.55941762 L11.4063974,9.62852059 L11.3476067,9.58581385 L11.2888403,9.62852059 L11.311286,9.55941762 L11.2525132,9.5167172 L11.3251539,9.51670064 L11.3476189,9.4476189 Z M12.0999998,9.39523795 L12.1224369,9.46432328 L12.1951054,9.46433625 L12.1363237,9.50702139 L12.1587783,9.57613964 L12.1000029,9.53343649 L12.0412213,9.57613964 L12.0636633,9.50702139 L12.0048942,9.46433625 L12.0775501,9.46432328 L12.0999998,9.39523795 Z M10.7714284,9.36190461 L10.7938709,9.43100253 L10.8665341,9.43100291 L10.8077577,9.47370064 L10.8302069,9.54280631 L10.771418,9.50009686 L10.7126499,9.54280631 L10.7350973,9.47370064 L10.6763228,9.43100291 L10.7489652,9.43100253 L10.7714284,9.36190461 Z M11.738095,9.32857128 L11.7605312,9.3976629 L11.8332007,9.39766958 L11.774418,9.44036102 L11.7968736,9.50947298 L11.7380973,9.46675724 L11.6793165,9.50947298 L11.7017577,9.44036102 L11.6429894,9.39766958 L11.7156256,9.3976629 L11.738095,9.32857128 Z M8.59523817,9.20714262 L8.62890861,9.31077611 L8.73789664,9.31079007 L8.64971993,9.37483271 L8.68340595,9.47849516 L8.59522936,9.41443649 L8.50707038,9.47849516 L8.5407388,9.37485158 L8.45257969,9.31079007 L8.56155012,9.31077611 L8.59523817,9.20714262 Z M12.3809523,9.19404743 L12.4090029,9.28041762 L12.4998343,9.2804203 L12.4263614,9.33379498 L12.4544254,9.42017455 L12.3809463,9.36679498 L12.3074791,9.42017455 L12.3355312,9.33379498 L12.2620702,9.2804203 L12.3528897,9.28041762 L12.3809523,9.19404743 Z M10,8.92142834 L10.0336633,9.02505913 L10.1426585,9.02507579 L10.0544746,9.08911573 L10.0881678,9.19278088 L9.99998408,9.12871951 L9.91183225,9.19278088 L9.94549351,9.08911573 L9.85734157,9.02507579 L9.9663237,9.02505913 L10,8.92142834 Z M12.595238,8.91309505 L12.623286,8.99945536 L12.71412,8.99946793 L12.6406445,9.05283271 L12.6687111,9.13922217 L12.5952294,9.08583271 L12.5217648,9.13922217 L12.5498143,9.05285158 L12.4763559,8.99946793 L12.5671728,8.99945536 L12.595238,8.91309505 Z M8.07619037,8.9380951 L8.09862559,9.0071912 L8.17129602,9.0071934 L8.11251238,9.04988932 L8.13496889,9.1189968 L8.07619163,9.07628554 L8.01741185,9.1189968 L8.039852,9.04988932 L7.98108472,9.0071934 L8.05371993,9.0071912 L8.07619037,8.9380951 Z M12.4523809,8.5785712 L12.4860407,8.68221007 L12.5950394,8.68221865 L12.5068709,8.74626668 L12.5405487,8.84992375 L12.4523803,8.78585158 L12.3642131,8.84992375 L12.3978709,8.74626668 L12.3097225,8.68221865 L12.4187011,8.68221007 L12.4523809,8.5785712 Z M12.938095,8.66190463 L12.9605312,8.73100253 L13.0332007,8.73100293 L12.974418,8.77370064 L12.9968735,8.84280633 L12.9380973,8.80009686 L12.8793165,8.84280633 L12.9017577,8.77370064 L12.8429894,8.73100293 L12.9156256,8.73100253 L12.938095,8.66190463 Z M8.18095237,8.56547601 L8.20900295,8.65183271 L8.29983443,8.65184889 L8.22636144,8.70521007 L8.25442552,8.79160313 L8.18094634,8.73821007 L8.10747921,8.79160313 L8.13553125,8.70521007 L8.06207031,8.65184889 L8.15288974,8.65183271 L8.18095237,8.56547601 Z M7.02380954,8.53214268 L7.051852,8.61851196 L7.1426916,8.61851556 L7.06921049,8.67188932 L7.09728269,8.7582698 L7.0237954,8.70488932 L6.95033638,8.7582698 L6.97838031,8.67188932 L6.90492748,8.61851556 L6.9957388,8.61851196 L7.02380954,8.53214268 Z M9.82380947,8.54761844 L9.83983314,8.59696479 L9.89174208,8.59697437 L9.84975766,8.62747422 L9.86579413,8.67683394 L9.8237954,8.64632328 L9.78182481,8.67683394 L9.797852,8.62745536 L9.75587687,8.59697437 L9.80775766,8.59696479 L9.82380947,8.54761844 Z M10.4047618,8.25119031 L10.4328143,8.3375497 L10.5236439,8.33756318 L10.4501728,8.39092705 L10.478235,8.47731743 L10.4047577,8.42392705 L10.3312887,8.47731743 L10.3593426,8.39092705 L10.2858798,8.33756318 L10.3766822,8.3375497 L10.4047618,8.25119031 Z M7.45238105,8.19285693 L7.48604068,8.29649309 L7.59503953,8.29650438 L7.50687087,8.3605497 L7.54054884,8.46420947 L7.45238031,8.40015347 L7.36421327,8.46420947 L7.39787087,8.3605497 L7.30972258,8.29650438 L7.41870106,8.29649309 L7.45238105,8.19285693 Z M9.6476189,8.27619035 L9.67005955,8.34528554 L9.74272455,8.34528865 L9.68394634,8.38798366 L9.70639743,8.45709205 L9.64760672,8.41437988 L9.58884038,8.45709205 L9.61128597,8.38798366 L9.55251326,8.34528865 L9.62515389,8.34528554 L9.6476189,8.27619035 Z M7.79523809,8.05714226 L7.8112671,8.10649309 L7.8631707,8.10649819 L7.82117276,8.13700253 L7.83722275,8.18635776 L7.79522936,8.15583271 L7.75325343,8.18635776 L7.76928597,8.13700253 L7.72730548,8.10649819 L7.77919163,8.10649309 L7.79523809,8.05714226 Z M9.99999994,7.9369046 L10.0280596,8.02326668 L10.118882,8.02327747 L10.0453992,8.07664403 L10.0734731,8.16303172 L9.99998408,8.10964403 L9.92652679,8.16303172 L9.95458785,8.07664403 L9.88111788,8.02327747 L9.97192748,8.02326668 L9.99999994,7.9369046 Z M8.66666664,7.51785699 L8.69471993,7.60422894 L8.7855487,7.60422986 L8.71207842,7.6576063 L8.7401398,7.74398411 L8.66664446,7.69058743 L8.59319349,7.74398411 L8.62124823,7.6576063 L8.54778458,7.60422986 L8.63858785,7.60422894 L8.66666664,7.51785699 Z M10.9523808,7.22380943 L10.9748143,7.29288932 L11.0474864,7.29290773 L10.9887011,7.3356063 L11.0111593,7.40471112 L10.9523803,7.36200253 L10.8936023,7.40471112 L10.9160407,7.3356063 L10.8572751,7.29290773 L10.9299275,7.29288932 L10.9523808,7.22380943 Z M7.14285725,6.72142839 L7.17651238,6.82505913 L7.28551572,6.82507584 L7.19734257,6.88911573 L7.23102504,6.99278093 L7.142852,6.92871951 L7.05468946,6.99278093 L7.08836144,6.8891346 L7.00019878,6.82507584 L7.10917276,6.82505913 L7.14285725,6.72142839 Z M11.0857143,6.26428554 L11.1193803,6.36792705 L11.2283728,6.36793299 L11.1401916,6.43198366 L11.1738821,6.53563809 L11.0857011,6.47156856 L10.9975465,6.53563809 L11.0312105,6.43198366 L10.9430558,6.36793299 L11.0520407,6.36792705 L11.0857143,6.26428554 Z" id="#FFFFFF" fill="#FFFFFF" fill-rule="nonzero"></path>
            </g>
        </g>
    </g>
</svg>