<?xml version="1.0" encoding="UTF-8"?>
<svg width="24px" height="24px" viewBox="0 0 24 24" version="1.1" xmlns="http://www.w3.org/2000/svg" xmlns:xlink="http://www.w3.org/1999/xlink">
    <title>Icon/SBU/Systems/Service</title>
    <g id="Icons" stroke="none" stroke-width="1" fill="none" fill-rule="evenodd">
        <g id="Overview" transform="translate(-789.000000, -800.000000)" fill="currentColor">
            <g id="Icons" transform="translate(368.500000, 100.000000)">
                <g id="Icon/SBU/Systems/Service" transform="translate(420.500000, 700.000000)">
                    <path d="M4.84986351,2.92811647 C4.98325751,2.93048226 5.10828025,2.96396724 5.22474977,3.02820746 C5.34121929,3.09262966 5.43585077,3.17925387 5.50864422,3.28844404 C5.58143767,3.39763421 5.62383985,3.52029117 5.63603276,3.65605096 L6.45859873,12.0018198 L9.41765241,9.58871702 C9.56323931,9.4722475 9.72575068,9.40545951 9.90536852,9.38853503 C10.0727934,9.37161056 10.2347589,9.40127389 10.3912648,9.47770701 C10.5477707,9.55414013 10.6720655,9.66515014 10.7643312,9.81073703 C10.8636943,9.96360328 10.9135578,10.1346679 10.9135578,10.3239308 L10.9135578,12.0018198 L13.8726115,9.58871702 C13.9623294,9.51592357 14.0618744,9.46205641 14.1710646,9.42675159 C14.2802548,9.39162875 14.3930846,9.3788899 14.5095541,9.38853503 C14.3688808,9.68953594 14.2620564,10.0036397 14.189263,10.3312102 C14.1164695,10.6660601 14.0800728,11.0070974 14.0800728,11.3539581 C14.0800728,11.9825296 14.1989081,12.5841674 14.4367607,13.1592357 C14.6673339,13.7150136 14.9930846,14.2061874 15.4140127,14.633303 C15.8351228,15.0604186 16.3171975,15.3916288 16.8607825,15.6269336 C17.4262056,15.8695177 18.0181984,15.9909008 18.6369427,15.9909008 C19.0422202,15.9909008 19.4400364,15.9375796 19.8307552,15.8307552 L19.8307552,21.0718835 L2,21.0718835 L2,12.0018198 L2.82256597,3.65605096 C2.83475887,3.52029117 2.87770701,3.39708826 2.95177434,3.2866242 C3.02584167,3.17616015 3.12029117,3.08898999 3.23566879,3.02456779 C3.35086442,2.96032757 3.47406733,2.92811647 3.60509554,2.92811647 L4.84986351,2.92811647 Z M18.0473157,17.4431301 L14.4767971,17.4431301 L14.4767971,19.255687 L18.0473157,19.255687 L18.0473157,17.4431301 Z M12.6969973,17.4431301 L9.12993631,17.4431301 L9.12993631,19.255687 L12.6969973,19.255687 L12.6969973,17.4431301 Z M7.35031847,17.4431301 L3.78325751,17.4431301 L3.78325751,19.255687 L7.35031847,19.255687 L7.35031847,17.4431301 Z M12.6969973,13.8143767 L9.12993631,13.8143767 L9.12993631,15.6305732 L12.6969973,15.6305732 L12.6969973,13.8143767 Z M7.35031847,13.8143767 L3.78325751,13.8143767 L3.78325751,15.6305732 L7.35031847,15.6305732 L7.35031847,13.8143767 Z M18.6369427,7.93266606 C19.0931756,7.93266606 19.5297543,8.02238399 19.9472247,8.20200182 C20.3499545,8.37434031 20.7060965,8.61819836 21.0154686,8.93357598 C21.3248408,9.24913558 21.5645132,9.61182894 21.7343039,10.021838 C21.911374,10.4465878 22,10.8906278 22,11.3539581 C22,11.8174704 21.911374,12.2615105 21.7343039,12.6860783 C21.5645132,13.0962693 21.3242948,13.4589627 21.0136488,13.7743403 C20.7031847,14.0898999 20.3464968,14.3348499 19.9435851,14.5095541 C19.5286624,14.6866242 19.0931756,14.7752502 18.6369427,14.7752502 C18.1807097,14.7752502 17.743949,14.6866242 17.3266606,14.5095541 C16.9239308,14.3348499 16.5672429,14.0898999 16.2565969,13.7743403 C15.9459509,13.4589627 15.7059145,13.0962693 15.5359418,12.6860783 C15.3586897,12.2615105 15.2702457,11.8174704 15.2702457,11.3539581 C15.2702457,10.8906278 15.3586897,10.4465878 15.5359418,10.021838 C15.7059145,9.61182894 15.9459509,9.24913558 16.2565969,8.93357598 C16.5672429,8.61819836 16.9239308,8.37434031 17.3266606,8.20200182 C17.7415833,8.02238399 18.1783439,7.93266606 18.6369427,7.93266606 Z M18.6369427,8.59144677 C18.2680619,8.59144677 17.9150136,8.66424022 17.577798,8.80982712 C17.2549591,8.95050045 16.9681529,9.14831665 16.7170155,9.40309372 C16.4658781,9.65787079 16.2711556,9.95031847 16.132848,10.2802548 C15.9921747,10.622384 15.921747,10.9803458 15.921747,11.3539581 C15.921747,11.7277525 15.9921747,12.0855323 16.132848,12.4276615 C16.2711556,12.7601456 16.4658781,13.0536852 16.7170155,13.3084622 C16.9681529,13.5632393 17.2549591,13.7597816 17.577798,13.8980892 C17.9150136,14.0436761 18.2675159,14.1164695 18.6351228,14.1164695 C19.0027298,14.1164695 19.35505,14.0436761 19.6924477,13.8980892 C20.0176524,13.7597816 20.3051865,13.5626934 20.55505,13.3066424 C20.8049136,13.0507734 20.9990901,12.7575978 21.1373976,12.4276615 C21.278071,12.0855323 21.3484986,11.7277525 21.3484986,11.3539581 C21.3484986,10.9803458 21.278071,10.622384 21.1373976,10.2802548 C20.9990901,9.95031847 20.8049136,9.65732484 20.55505,9.40127389 C20.3051865,9.14522293 20.0176524,8.94813467 19.6924477,8.80982712 C19.35505,8.66424022 19.0032757,8.59144677 18.6369427,8.59144677 Z M18.9426752,9.79253867 C18.9619654,9.79253867 18.9790719,9.79872611 18.9936306,9.81073703 C19.0081893,9.82292994 19.0167425,9.83858053 19.0191083,9.85805278 L19.077343,10.2693358 C19.1696087,10.3080983 19.255687,10.3592357 19.3357598,10.422202 L19.7142857,10.2620564 C19.733576,10.2573248 19.7525023,10.2578708 19.7707006,10.2638763 C19.788899,10.2698817 19.8027298,10.2802548 19.8125569,10.2948135 L20.1146497,10.8371247 C20.1242948,10.8540491 20.1273885,10.8724295 20.1237489,10.8917197 C20.1201092,10.911192 20.11101,10.9268426 20.0964513,10.9390355 L19.7761601,11.1938126 L19.7761601,11.2192903 C19.7808917,11.277525 19.7834395,11.3212011 19.7834395,11.3503185 C19.7834395,11.3794359 19.7808917,11.4243858 19.7761601,11.4849864 L19.7761601,11.5031847 L20.0964513,11.7616015 C20.11101,11.7737944 20.1201092,11.7896269 20.1237489,11.8089172 C20.1273885,11.8283894 20.1242948,11.8465878 20.1146497,11.8635123 L19.8125569,12.4021838 C19.8027298,12.4192903 19.788899,12.4307552 19.7707006,12.4367607 C19.7525023,12.4427662 19.7348499,12.4422202 19.7179254,12.4349409 L19.3357598,12.2784349 C19.2460419,12.343949 19.1597816,12.3949045 19.077343,12.4313012 L19.022748,12.8425842 C19.0202002,12.8595086 19.011283,12.8742493 18.9954504,12.8862602 C18.9796178,12.8984531 18.9619654,12.9044586 18.9426752,12.9044586 L18.3312102,12.9044586 C18.3117379,12.9044586 18.2948135,12.8984531 18.2802548,12.8862602 C18.2656961,12.8742493 18.2571429,12.8595086 18.2547771,12.8425842 L18.200182,12.4313012 C18.122475,12.399818 18.0363967,12.3488626 17.9417652,12.2784349 L17.5595996,12.4349409 C17.5401274,12.4422202 17.521929,12.4427662 17.5050045,12.4367607 C17.4880801,12.4307552 17.4746133,12.4192903 17.4649682,12.4021838 L17.1592357,11.8635123 C17.1519563,11.8465878 17.1494086,11.8283894 17.1519563,11.8089172 C17.1545041,11.7896269 17.1628753,11.7737944 17.177434,11.7616015 L17.5013649,11.5031847 C17.4940855,11.4376706 17.4904459,11.3867152 17.4904459,11.3503185 C17.4928116,11.2969973 17.4964513,11.244768 17.5013649,11.1938126 L17.177434,10.9390355 C17.1628753,10.9244768 17.1545041,10.9080983 17.1519563,10.8898999 C17.1494086,10.8717015 17.1519563,10.8540491 17.1592357,10.8371247 L17.4649682,10.2948135 C17.4746133,10.2802548 17.488626,10.2698817 17.5068244,10.2638763 C17.5250227,10.2578708 17.5424932,10.2573248 17.5595996,10.2620564 L17.9417652,10.422202 C18.0413103,10.3494086 18.1273885,10.2984531 18.200182,10.2693358 L18.2547771,9.85805278 C18.2571429,9.83858053 18.2656961,9.82292994 18.2802548,9.81073703 C18.2948135,9.79872611 18.3117379,9.79253867 18.3312102,9.79253867 L18.9426752,9.79253867 Z M18.6369427,10.8043676 C18.5399454,10.8043676 18.4500455,10.8285714 18.3676069,10.8771611 C18.2849864,10.9257507 18.2202002,10.9918107 18.1728844,11.0755232 C18.1255687,11.1592357 18.1013649,11.2502275 18.100091,11.3484986 C18.0988171,11.4467698 18.122475,11.5377616 18.1710646,11.6214741 C18.2196542,11.7051865 18.2844404,11.7712466 18.3657871,11.8198362 C18.4471338,11.8684258 18.5373976,11.8926297 18.6369427,11.8926297 L18.6369427,11.8962693 C18.7339399,11.8962693 18.8236579,11.8715196 18.9062784,11.8216561 C18.988899,11.7719745 19.0536852,11.7051865 19.1010009,11.6214741 C19.1483167,11.5377616 19.1719745,11.4467698 19.1719745,11.3484986 C19.1719745,11.2502275 19.1477707,11.1592357 19.0991811,11.0755232 C19.0505914,10.9918107 18.9858053,10.9257507 18.9044586,10.8771611 C18.8231119,10.8285714 18.7339399,10.8043676 18.6369427,10.8043676 Z" id="Factory"></path>
                </g>
            </g>
        </g>
    </g>
</svg>
