<?xml version="1.0" encoding="UTF-8"?>
<svg width="24px" height="24px" viewBox="0 0 24 24" version="1.1" xmlns="http://www.w3.org/2000/svg" xmlns:xlink="http://www.w3.org/1999/xlink">
    <title>Icon/Flag/SA</title>
    <defs>
        <rect id="path-1" x="2" y="4.5" width="20" height="15" rx="1"></rect>
    </defs>
    <g id="Icon/Flag/SA" stroke="none" stroke-width="1" fill="none" fill-rule="evenodd">
        <mask id="mask-2" fill="white">
            <use xlink:href="#path-1"></use>
        </mask>
        <g id="Mask"></g>
        <g id="Saudi-Arabia" mask="url(#mask-2)" fill-rule="nonzero">
            <g transform="translate(2.000000, 4.500000)">
                <rect id="#006C35" fill="#006C35" x="0" y="0" width="20" height="15"></rect>
                <path d="M12.8276072,10.293666 C12.8393609,10.3082836 12.846749,10.3565672 12.8602564,10.3762687 L12.8602564,10.3762687 L12.8644169,10.3807369 L12.8668236,10.3828358 C12.8698087,10.383806 12.870331,10.3846269 12.8705549,10.3847015 C12.9020475,10.3826119 12.9227937,10.3890299 12.936749,10.400597 C12.9901072,10.4465672 12.9465251,10.5735075 12.9218236,10.6048507 C13.1893609,10.6147015 13.3638385,10.6176119 13.6018236,10.6458955 C13.6018236,10.6458955 13.8074206,10.6252239 13.8807042,10.6141791 C14.1904803,10.5846269 14.2044355,11.0563433 14.2044355,11.0563433 C14.2010027,11.3331343 14.09354,11.3479851 13.9571967,11.3772388 C13.8792863,11.3870896 13.8386146,11.3301493 13.7977191,11.2699254 L13.7977191,11.2699254 C13.7362266,11.2916418 13.074734,11.2820896 12.9571967,11.2717164 C12.9327937,11.3100746 12.9009281,11.3625373 12.8284654,11.3454478 L12.8284654,11.3454478 C12.82354,11.3449254 12.8204803,11.343806 12.8182415,11.3426866 C12.8168982,11.3420896 12.8148087,11.3407463 12.81354,11.3399254 C12.7525699,11.2992537 12.6676445,11.0769403 12.7454803,10.938806 L12.7454803,10.938806 L11.9957646,10.9395688 C10.8388008,10.9413568 8.98265214,10.9458266 7.83511744,10.9479498 L7.4172333,10.948662 C7.35499707,10.9487558 7.29674449,10.9488363 7.24289267,10.9489018 L6.97592806,10.9491045 C6.53346537,10.9420896 6.19533104,10.8726119 5.96189821,10.531194 C5.98279373,10.531194 7.07122657,10.5722388 7.41525642,10.5722388 C8.03018179,10.5722388 10.8975699,10.6039552 12.7660027,10.6039552 C12.6524206,10.5233582 12.6468982,10.3397015 12.8238385,10.2942537 C12.824137,10.2941045 12.8245848,10.2934328 12.8248087,10.2932836 L12.8248087,10.2932836 L12.8276072,10.293666 Z M15.1871221,3.66141791 C15.202943,3.65985075 15.2139878,3.68873134 15.2318236,3.72395522 C15.3213758,3.8638806 15.5770475,4.19126866 15.5340624,4.23514925 C15.5048087,4.28313433 15.4225699,4.23723881 15.4063012,4.27895522 C15.3962266,4.29679104 15.4224206,4.43320896 15.4305549,4.49261194 C15.5568236,5.10201493 15.5868236,5.92641791 15.5676445,6.76962687 C15.5648087,6.91343284 15.5002564,7.14843284 15.4454803,7.23514925 C15.2405549,7.54447761 14.9430922,7.56514925 14.691749,7.59432836 C14.5458534,7.58992537 14.546749,7.47 14.7271967,7.36574627 C14.7840624,7.32059701 14.9580176,7.26246269 15.039734,7.20156716 C15.1215251,7.14067164 15.2083161,7.0141791 15.2869728,6.91335821 C15.3225699,6.81776119 15.3258534,6.77738806 15.337346,6.70156716 C15.3168236,5.90246269 15.2177937,5.02940299 15.0845101,4.12783582 C15.062346,3.98447761 15.0813758,3.82208955 15.136749,3.73141791 C15.159734,3.68253731 15.1748087,3.66261194 15.1871221,3.66141791 Z M12.0854803,3.69686567 C12.1013758,3.69529851 12.1124206,3.72328358 12.1302564,3.75843284 C12.2198087,3.89843284 12.3774952,4.26216418 12.3345848,4.30604478 C12.3052564,4.35402985 12.2501072,4.33410448 12.2338385,4.35358209 C12.2237639,4.37141791 12.2182415,4.44156716 12.2263758,4.50097015 C12.3526445,5.11037313 12.4143609,5.76597015 12.3951818,6.6091791 C12.3924206,6.75298507 12.2960773,6.93858209 12.2413012,7.02522388 C12.0363758,7.3969403 11.8154057,7.5380597 11.5640624,7.56723883 C11.4137639,7.56731343 11.2974952,7.40783582 11.3308534,7.37037313 C11.6406296,7.25335821 11.925331,6.99910448 12.1227937,6.79298507 C12.1762266,6.74641791 12.1880176,6.62977612 12.1815997,6.54947761 C12.1032415,5.7191791 12.0664504,4.99261194 11.9465251,4.16231343 C11.9421221,4.01447761 11.979734,3.85656716 12.0351072,3.76589552 L12.0556793,3.72657269 C12.0678684,3.70638474 12.0772713,3.69766169 12.0854803,3.69686567 Z M13.9219728,3.65089552 C13.9371967,3.65328358 13.9504057,3.66544776 13.9621221,3.67679104 C14.0598087,3.85686567 14.1574206,4.03776119 14.2550325,4.21783582 C14.2740624,4.26723881 14.2464504,4.32059701 14.2148833,4.31485075 C14.1954057,4.30619403 14.1911519,4.30477612 14.1598833,4.27850746 C14.1304057,4.27492537 14.1371221,4.2830597 14.1393609,4.31119403 C14.1522713,4.38044776 14.167346,4.67119403 14.167346,4.67776119 C14.167346,4.67858209 14.1783907,4.73440299 14.1813012,4.74962687 C14.2907042,4.90753731 14.4018236,5.07134328 14.4928684,5.20671642 C14.4436893,4.83761194 14.3815251,4.46753731 14.3118982,4.10410448 C14.2851072,3.96149254 14.2594355,3.81164179 14.3296594,3.74589552 C14.405331,3.64604478 14.4665251,3.62477612 14.500331,3.68619403 C14.5944355,3.82320896 14.779734,4.30328358 14.7382415,4.34850746 C14.7105549,4.39738806 14.6542863,4.35380597 14.6393609,4.39604478 C14.6298833,4.4141791 14.6601072,4.60291045 14.6701072,4.6619403 C14.7066743,4.81320896 14.7308534,5.00462687 14.7550325,5.13208955 C14.7705549,5.21380597 14.8045848,5.48059701 14.8296594,5.70671642 C14.9563012,5.88589552 15.1198833,6.11746269 15.2475699,6.33171642 C15.2954057,6.3908209 15.3213012,6.81873134 15.2457042,6.85880597 C15.1237639,6.63970149 14.9946594,6.42328358 14.8613758,6.21044776 C14.8615997,6.31671642 14.8601072,6.43074627 14.8613758,6.55656716 C14.8632415,6.70037313 14.5883161,7.00402985 14.597346,6.92783582 C14.6098833,6.54470149 14.5925699,6.14507463 14.5544355,5.73940299 C14.4674952,5.61037313 14.3800325,5.48276119 14.2913758,5.35791045 C14.3045848,5.82007463 14.3338385,6.65089552 14.2745848,6.80940299 C14.2193609,6.94514925 14.1580922,7.01395522 14.0637639,7.06686567 C13.9257042,7.16119403 13.7856296,7.14246269 13.6682415,7.0388806 C13.5961519,7.00044776 13.5381669,6.95462687 13.489137,6.88402985 C13.43854,6.83029851 13.3346594,6.80947761 13.2932415,6.93067164 C13.2342116,6.99664179 13.2324952,7.33014925 13.1066743,7.46052239 C13.052943,7.525 12.9555549,7.58246269 12.8305549,7.49037313 C12.6932415,7.42052239 12.6361519,7.33014925 12.5656296,7.18902985 C12.5172713,7.10313433 12.4224952,6.70350746 12.6365251,6.46238806 L12.6360536,6.46174492 C12.6233655,6.54191876 12.5892243,6.82082925 12.7172823,7.05988329 L12.7662266,7.13776119 C12.8607788,7.23022388 12.9458534,7.18940299 12.9760773,7.14149254 C13.0932415,6.92671642 13.1712266,6.61485075 13.3436146,6.44843284 C13.4061519,6.39089552 13.464734,6.36791045 13.5525699,6.44843284 C13.5525699,6.44843284 13.7242116,6.71761194 13.7671221,6.73485075 C13.8261519,6.79119403 13.9145101,6.74044776 13.9145101,6.74044776 C13.9724206,6.71552239 14.0334654,6.4519403 14.0386146,6.25350746 C14.0021221,5.78955224 13.9924952,5.365 13.9565251,4.90186567 C13.7855549,4.67477612 13.6155549,4.45716418 13.4490624,4.25261194 C13.4034654,4.1961194 13.3507042,4.10022388 13.3510773,4.04925373 C13.3438385,3.95753731 13.3518236,3.83156716 13.3595101,3.72276119 C13.3788385,3.59895522 13.4144355,3.67164179 13.4733161,3.70970149 C13.5907788,3.80029851 13.6309281,3.84820896 13.7680922,3.9988806 C13.930331,4.20141791 13.5660773,3.98208955 13.8156296,4.24425373 C13.8225699,4.25119403 13.8345848,4.26492537 13.8483161,4.28246269 C13.8452564,4.26529851 13.8420475,4.24828358 13.8389878,4.2311194 C13.830331,4.1030597 13.8074952,3.9719403 13.7988385,3.84395522 C13.7976445,3.77126866 13.8360027,3.71470149 13.8715997,3.68350746 C13.8902564,3.65597015 13.9068236,3.64850746 13.9219728,3.65089552 Z M14.4230176,7.05746269 C14.4451818,7.05679104 14.4662266,7.05843284 14.4966743,7.06395522 C14.5565251,7.08395522 14.5711519,7.10858209 14.5545101,7.14514925 C14.5396594,7.18246269 14.5315997,7.20059701 14.509734,7.23097015 C14.4834654,7.27970149 14.5386146,7.28783582 14.5554057,7.28783582 C14.5907042,7.29216418 14.6431669,7.27619403 14.6664504,7.30276119 C14.669734,7.30276119 14.682943,7.35955224 14.6430922,7.38947761 C14.6430922,7.39283582 14.3968982,7.55283582 14.2904803,7.52291045 C14.232943,7.50738806 14.2446594,7.4580597 14.2634654,7.42589552 L14.2634654,7.42589552 L14.3716743,7.33261194 C14.4137639,7.28164179 14.397943,7.25358209 14.37354,7.22253731 C14.3314504,7.19597015 14.290331,7.19925373 14.2877191,7.13208955 C14.2943609,7.08768657 14.3071221,7.07171642 14.3436893,7.06395522 C14.3775699,7.06119403 14.4008534,7.05813433 14.4230176,7.05746269 Z M6.68299896,3.72405784 L6.6973553,3.72758396 L6.6973553,3.72758396 C6.70339075,3.73044776 6.70540567,3.73156716 6.70674896,3.73246269 C6.70801761,3.73343284 6.71003254,3.73507463 6.71137582,3.73619403 L6.71137582,3.73619403 L6.72257918,3.74691231 L6.72257918,3.74691231 C6.79503254,3.7830597 6.92189821,4.16253731 6.98189821,4.34910448 C6.92645045,4.41835821 6.87085343,4.37440299 6.81025642,4.3761194 L6.81025642,4.3761194 L6.95018179,5.43022388 C7.09562955,5.34537313 7.16824149,5.36955224 7.15264448,5.54962687 C7.16473403,5.62761194 7.2815997,5.61746269 7.34570418,5.56552239 C7.44100269,5.29708955 7.5977191,5.31955224 7.63585343,5.49276119 C7.63839075,5.5338806 7.68779373,5.54268657 7.71607731,5.52723881 C7.72189821,5.52395522 7.72756985,5.51880597 7.73100269,5.51328358 C7.73279373,5.51014925 7.73398776,5.50671642 7.73473403,5.50298507 C7.74167433,5.45791045 7.74831612,5.41276119 7.75525642,5.36768657 C7.7565997,5.35955224 7.76115194,5.35208955 7.76734597,5.34529851 C7.79339075,5.31791045 7.85801761,5.29925373 7.93809224,5.27440299 C7.93286836,5.43708955 7.91085343,5.59402985 7.88488328,5.74641791 C7.83988328,5.90223881 7.62443552,5.9438806 7.50152507,5.85552239 C7.46510716,5.81746269 7.41316687,5.83634328 7.39234597,5.8658209 C7.34383851,5.92470149 7.1227191,6.07291045 6.96510716,5.90313433 C6.96339075,5.90313433 6.96100269,5.90373134 6.95951015,5.90410448 C6.95906239,5.90425373 6.95809224,5.90485075 6.95764448,5.90507463 C6.95719672,5.90522388 6.95615194,5.90574627 6.95577881,5.90597015 C6.95540567,5.90619403 6.95428627,5.90656716 6.95391313,5.90686567 C6.91122657,5.94626866 7.04152507,6.26708955 6.91383851,6.69231343 C6.65577881,7.515 5.06824149,7.94283582 5.0024206,6.94701493 C5.0024206,6.81537313 4.99652507,6.77783582 5.01734597,6.64104478 C5.03174896,6.47097015 5.09891313,6.37298507 5.14891313,6.41059701 C5.17085343,6.42783582 5.18980866,6.47134328 5.19928627,6.54679104 C5.20451015,6.67149254 5.22010716,6.87962687 5.27204746,6.97313433 C5.4815997,7.36970149 6.71525642,7.28328358 6.75339075,6.02253731 C6.7496594,5.99402985 6.7393609,5.97880597 6.72816687,5.97402985 C6.70264448,5.96440299 6.66637582,6.00380597 6.65451015,6.0430597 C6.47085343,7.43544776 4.82689821,7.25850746 5.31868925,5.9908209 C5.48495791,5.87649254 5.41249522,6.37119403 5.48003254,6.5011194 C5.58913702,6.70895522 5.79174896,6.68164179 6.04630119,6.56731343 C6.46055493,6.34738806 6.4815997,6.06276119 6.46234597,6.02910448 C6.46227134,6.02895522 6.4624206,6.02828358 6.46234597,6.02813433 L6.46189821,6.02810634 L6.43796209,6.02735045 C6.40055791,6.04016716 6.33991313,6.10167164 6.26928627,6.13074627 C6.16189821,6.15850746 6.03943552,6.17156716 5.93719672,6.04865672 C5.90428627,5.94298507 5.91294299,5.81156716 5.93719672,5.69044776 C5.95794299,5.53798507 6.12383851,5.37970149 6.26928627,5.37798507 C6.47018179,5.37104478 6.49943552,5.53238806 6.61719672,5.61208955 C6.68652507,5.62074627 6.74018179,5.53626866 6.72637582,5.47216418 C6.63630119,4.92492537 6.57764448,4.50731343 6.48756985,3.96007463 C6.46503254,3.83186567 6.53637582,3.76604478 6.61256985,3.74179104 C6.63570418,3.73649254 6.65540567,3.72634328 6.67316687,3.72410448 C6.67988328,3.72328358 6.68615194,3.7241791 6.6927191,3.72597015 Z M8.71816687,5.0558209 C8.73398776,5.05835821 8.75809224,5.08074627 8.81331612,5.13604478 C8.96816687,5.4008209 9.06704746,5.74455224 9.08197284,6.04835821 C9.07682358,6.10738806 9.1096594,6.14947761 9.13510716,6.15656716 C9.13600269,6.15679104 9.13786836,6.15723881 9.13883851,6.15746269 L9.14588142,6.15704291 L9.14727134,6.15656716 L9.15015381,6.15602612 C9.15115194,6.15537313 9.15174896,6.15477612 9.15189821,6.15462687 C9.15204746,6.15462687 9.15279373,6.15462687 9.15286836,6.15462687 L9.16913866,6.10008918 C9.25245045,5.93187313 9.63414448,5.72977612 9.98682358,5.69753731 C10.0468236,5.68447761 10.0171967,5.56955224 10.0269728,5.51097015 C10.0034654,5.29343284 10.1492116,5.0958209 10.3534654,5.08 C10.6314504,5.12104478 10.7237639,5.26947761 10.7284654,5.49604478 C10.6984654,5.93097015 10.2461519,6.00514925 9.99152507,6.03985075 C9.97577881,6.04589552 9.96316687,6.05246269 9.95794299,6.05947761 C9.95764448,6.06 9.95727134,6.0608209 9.95704746,6.06134328 L9.95704746,6.06134328 L9.95704746,6.07179104 C9.95712209,6.0719403 9.95786836,6.07268657 9.95794299,6.07276119 C9.95809224,6.07313433 9.95876388,6.07432836 9.95891313,6.07462687 L9.95891313,6.07462687 C9.96854,6.08320896 9.97831612,6.08828358 9.99152507,6.09335821 L9.99152507,6.09335821 L11.0577937,6.0980597 L11.1118982,6.12977612 C11.1127937,6.13335821 11.112943,6.13701493 11.1127937,6.13910448 L11.1127937,6.14097015 C11.102943,6.15059701 11.0842116,6.15537313 11.0549579,6.20350746 C11.0128684,6.27283582 10.9499579,6.43253731 10.946749,6.53932836 C10.6289878,6.64149254 10.3004803,6.68641791 9.96637582,6.72679104 C9.85025642,6.78552239 9.79234597,6.86358209 9.81615194,6.95164179 C9.85398776,7.04626866 10.0977191,7.14126866 10.1127937,7.15126866 C10.1616743,7.18186567 10.2192863,7.2538806 10.0988385,7.40029851 C9.57839075,7.37738806 9.17592806,7.155 9.03630119,6.84246269 C8.99428627,6.80985075 8.94876388,6.84313433 8.91973403,6.88537313 C8.71652507,7.14723881 8.51697284,7.38328358 8.17062955,7.50850746 C7.96406239,7.56014925 7.75182358,7.47679104 7.65197284,7.34156716 C7.58831612,7.26813433 7.58645045,7.18671642 7.56525642,7.16335821 C7.5643609,7.16246269 7.56339075,7.16126866 7.5624206,7.16059701 C7.45077881,7.20992537 6.49010716,7.61843284 6.61189821,7.42828358 C6.84570418,7.1780597 7.2515997,6.99432836 7.60906239,6.74731343 C7.63488328,6.66455224 7.68152507,6.38507463 7.8227191,6.29395522 C7.8227191,6.29395522 7.82339075,6.29395522 7.82361463,6.29395522 C7.82383851,6.29507463 7.82443552,6.29567164 7.82458478,6.29589552 C7.82645045,6.32134328 7.80033104,6.46410448 7.80309224,6.52723881 C7.80406239,6.56171642 7.80182358,6.58320896 7.80309224,6.59156716 C7.80331612,6.5919403 7.80391313,6.59313433 7.80406239,6.59343284 L7.80406239,6.59343284 L7.80451015,6.59485075 L7.80733664,6.59487873 C7.80794299,6.5941791 7.80861463,6.59350746 7.80868925,6.59343284 C7.80883851,6.59328358 7.80943552,6.59268657 7.8096594,6.59253731 C7.80995791,6.59223881 7.81212209,6.59097015 7.8124206,6.59067164 C7.84264448,6.57044776 8.26980866,6.23358209 8.30309224,6.12985075 C8.34406239,6.07179104 8.31786836,5.92843284 8.31615194,5.91529851 L8.31615194,5.91529851 C8.23480866,5.70470149 8.12062955,5.68641791 8.07831612,5.58223881 C8.04018179,5.44395522 8.05704746,5.2858209 8.13615194,5.24179104 C8.20637582,5.17798507 8.28980866,5.18604478 8.36652507,5.25574627 C8.45421164,5.33425373 8.53152507,5.48761194 8.55406239,5.60186567 C8.5393609,5.64597015 8.44421164,5.57597015 8.40756985,5.59350746 C8.40749522,5.59365672 8.40682358,5.5941791 8.40667433,5.59440299 C8.46749522,5.65761194 8.49473403,5.73097015 8.51674896,5.82014925 C8.57324149,6.05940299 8.55585343,6.15238806 8.49898776,6.30708955 C8.30645045,6.71201493 8.0604803,6.83343284 7.84510716,6.98343284 C7.84495791,6.98358209 7.8443609,6.98425373 7.84413702,6.98440299 L7.84413702,6.98491604 L7.84272746,7.00253075 C7.84326239,7.03483881 7.85630119,7.10004478 7.91600269,7.14022388 C7.91622657,7.14044776 7.91667433,7.14089552 7.91689821,7.14119403 C7.94697284,7.16955224 8.05928627,7.18373134 8.18928627,7.14208955 C8.44451015,7.00291045 8.70891313,6.74671642 8.84040567,6.4611194 C8.87861463,6.24507463 8.82667433,6.01634328 8.7704803,5.81656716 C8.68719672,5.62432836 8.58883851,5.35089552 8.58577881,5.33798507 C8.58249522,5.21619403 8.59204746,5.1738806 8.6454803,5.11313433 C8.67712209,5.09074627 8.69130119,5.06992537 8.70331612,5.06089552 C8.70398776,5.06037313 8.70533104,5.05947761 8.70607731,5.05902985 C8.70756985,5.05813433 8.70921164,5.05679104 8.71077881,5.05619403 L8.71077881,5.05619403 Z M4.6224206,6.54790874 C4.62988328,6.54768657 4.63025642,6.56947761 4.62055493,6.63186567 C4.6024206,6.75358209 4.58630119,6.90716418 4.59816687,7.07402985 C4.60495791,7.1619403 4.63719672,7.26962687 4.71473403,7.11223881 C4.75145045,7.06335821 4.78055493,7.07246269 4.81734597,7.13 C4.84346537,7.21164179 4.79510716,7.43485075 4.68488328,7.48261194 C4.6224206,7.50097015 4.53764448,7.47514925 4.48622657,7.41634328 C4.38943552,7.29186567 4.40503254,6.87485075 4.58040567,6.59544776 C4.60018179,6.57029851 4.61495791,6.54813433 4.6224206,6.54790874 Z M10.597346,6.91477612 C10.6364504,6.91686567 10.6670475,6.94425373 10.6645101,6.94179104 C10.6739131,6.99820896 10.6280176,7.05119403 10.6421221,7.12649254 C10.6544355,7.15686567 10.6639131,7.19067164 10.7195101,7.17783582 C10.8098833,7.10679104 10.8932415,7.10216418 10.98354,7.09761194 C11.0527937,7.10179104 11.055331,7.21895522 11.0115251,7.21985075 C10.844734,7.2561194 10.7705549,7.30037313 10.6514504,7.3458209 C10.5950325,7.37873134 10.5469728,7.33746269 10.5469728,7.33276119 C10.5469728,7.3280597 10.5136893,7.30014925 10.536749,7.22544776 C10.5407788,7.16552239 10.5166743,7.13283582 10.466749,7.13962687 C10.429137,7.15992537 10.3960027,7.17350746 10.3771967,7.13029851 C10.3698087,7.09835821 10.3671221,7.08238806 10.3912266,7.06402985 C10.4307788,7.00619403 10.55354,6.92320896 10.5563012,6.92320896 C10.5704057,6.9161194 10.5842863,6.91410448 10.597346,6.91477612 Z M10.3995848,3.61455224 C10.4515997,3.60977612 10.5196594,3.64880597 10.5554803,3.67410448 C10.6688385,3.76977612 10.6772713,3.77619403 10.8138385,3.89335821 C10.8505549,3.93768657 10.8762266,3.97335821 10.8968982,4.00343284 C10.8830922,3.92014925 10.8824952,3.83134328 10.9295101,3.72455224 C11.0082415,3.61985075 11.0072713,3.63462687 11.0582415,3.70686567 C11.2164504,3.92910448 11.350331,4.09395522 11.3940624,4.33656716 C11.4127937,4.47776119 11.277943,4.20746269 11.312943,4.45037313 C11.3271221,4.50910448 11.3489131,4.70380597 11.3689131,4.93358209 C11.4777191,5.09462687 11.5695848,5.23432836 11.5965251,5.28432836 C11.6711519,5.42283582 11.9054803,5.78313433 12.0750325,6.14813433 C12.1201818,6.20925373 12.137346,6.64410448 12.0601072,6.6808209 C11.8482415,6.25791045 11.6324206,5.87276119 11.4099579,5.5091791 C11.4148087,5.59679104 11.419137,5.68052239 11.4211519,5.75074627 C11.4239878,5.91985075 11.4663758,6.50440299 11.4351072,6.79089552 C11.3870475,6.99798507 11.2500325,7.13940299 11.1645848,7.13604478 C11.1928684,6.65552239 11.1834654,6.08761194 11.1524952,5.63134328 C11.1383161,5.42328358 11.1163012,5.21432836 11.0862266,5.00074627 C10.8949579,4.71313433 10.6968982,4.43514925 10.4910773,4.15843284 C10.447943,4.1 10.3604057,3.99932836 10.3464504,3.9391791 C10.3282415,3.84895522 10.3218982,3.79007463 10.3342863,3.68171642 C10.3436146,3.63559701 10.3683907,3.61738806 10.3995848,3.61455224 Z M12.5509281,3.67544776 C12.5682415,3.67238806 12.5708534,3.70791045 12.5919728,3.74626866 C12.6482415,3.88962687 12.8278684,4.12977612 12.8998087,4.29477612 C12.9225699,4.42567164 12.7143609,4.23022388 12.7561519,4.45522388 C12.7907788,4.5741791 12.9618982,5.85022388 12.9688385,6.00746269 C12.9757788,6.16470149 13.0143609,6.32753731 12.9912266,6.59514925 C12.9489878,6.78940299 12.8501072,6.98567164 12.7645848,6.98507599 C12.7939878,6.08902985 12.609137,5.23141791 12.4287639,4.29014925 C12.4019728,4.14753731 12.4265997,3.96007463 12.4968236,3.73044776 C12.5251818,3.6930597 12.5405549,3.67723881 12.5509281,3.67544776 Z M13.7574672,5.7975 L13.7754803,5.80067164 C13.8757788,5.85052239 13.9152564,6.14440299 13.9042116,6.2241791 C13.9077191,6.37932836 13.8071221,6.5030597 13.7689131,6.48261194 C13.727346,6.46432836 13.7730176,6.29037313 13.7530176,6.2288806 C13.7308534,6.14238806 13.645331,5.97962687 13.659734,5.93313433 C13.6368236,5.85395522 13.6866743,5.80432836 13.7390624,5.79791045 C13.7511519,5.79634328 13.7639131,5.79746269 13.7754803,5.80067164 Z M5.41473403,3.72223881 C5.44174896,3.71910448 5.46958478,3.73029851 5.49309224,3.76253731 C5.58137582,3.83522388 5.59876388,4.12179104 5.6143609,4.25597015 C5.6143609,4.3641791 5.62488328,4.60425373 5.67682358,4.76529851 C5.71324149,4.84320896 5.76368925,4.85895522 5.78786836,4.79141791 C5.81719672,4.79141791 5.75480866,4.71686567 5.71413702,4.59738806 C5.65786836,4.46738806 5.62130119,4.17738806 5.69921164,4.04231343 C5.7277191,3.99552239 5.78756985,3.99552239 5.83167433,4.04231343 C5.87585343,4.12067164 5.93018179,4.15701493 5.94831612,4.27179104 L5.94831612,4.27179104 L5.9682928,4.32985424 C5.98735063,4.38859142 5.9992303,4.46406716 5.96413702,4.68873134 C5.96413702,4.71813433 6.1404803,4.85014925 6.1404803,4.85014925 C6.19428627,4.90701493 6.25801761,4.92223881 6.32234597,4.88559701 C6.33824149,4.79164179 6.30234597,4.68716418 6.27667433,4.62440299 C6.15585343,4.46365672 6.07622657,4.2669403 6.09570418,4.10104478 C6.1377191,3.95701493 6.2524206,3.94246269 6.33077881,4.01149254 C6.42555493,4.06298507 6.48428627,4.18201493 6.52197284,4.30626866 C6.50816687,4.36343284 6.44794299,4.36865672 6.40816687,4.30626866 C6.39846537,4.33567164 6.45062955,4.41216418 6.44085343,4.44156716 C6.51085343,4.60320896 6.52958478,4.765 6.54249522,4.92664179 C6.53921164,5.09671642 6.40577881,5.2041791 6.18428627,5.26522388 C6.03876388,5.29791045 5.99719672,5.21664179 5.90354,5.15052239 C5.84473403,5.11820896 5.7596594,5.12149254 5.75801761,5.18783582 C5.71122657,5.25544776 5.79077881,5.54679104 5.78040567,5.89402985 C5.77003254,6.48544776 5.55279373,6.42298507 5.55279373,6.42298507 C5.53809224,6.10947761 5.5227191,5.79522388 5.50801761,5.48171642 C5.47115194,5.39029851 5.40883851,5.38776119 5.31488328,5.395 C5.22458478,5.35843284 5.10824149,5.30589552 5.11152507,5.12910448 L5.11152507,5.12910448 L5.11152507,4.58522388 C5.10779373,4.51276119 5.0624206,4.51373134 5.03786836,4.57119403 C4.90809224,4.68738806 5.10607731,5.32768657 4.7477191,5.29320896 C4.45145045,5.23022388 4.48219672,4.61664179 4.50801761,4.26798507 C4.59824149,4.16350746 4.63137582,4.61 4.68525642,4.79126866 C4.74756985,5.04067164 4.83704746,4.945 4.85689821,4.80992537 C4.87167433,4.69044776 4.90540567,4.55619403 4.90540567,4.55619403 C4.94585343,4.29470149 5.09085343,4.13671642 5.14697284,4.14014925 C5.21764448,4.12761194 5.25137582,4.14641791 5.28040567,4.22223881 C5.31704746,4.29813433 5.32816687,4.59738806 5.28689821,4.78753731 C5.27868925,4.93395522 5.45734597,5.10149254 5.44921164,4.80619403 C5.41988328,4.58574627 5.40070418,4.39641791 5.34010716,4.18119403 C5.32510716,4.05850746 5.32585343,3.92537313 5.33167433,3.79223881 C5.3474206,3.75455224 5.38003254,3.72626866 5.41473403,3.72223881 Z M5.28652507,5.5480597 C5.47839075,5.55343284 5.43040567,5.62208955 5.48145045,5.69828358 C5.16525642,5.85283582 4.8596594,5.99664179 4.54861463,6.14604478 C4.56003254,5.93447761 4.99174896,5.55343284 5.28652507,5.5480597 Z M13.849734,5.38544776 C13.8960773,5.39380597 13.884137,5.59492537 13.859137,5.59343284 C13.8700325,5.6388806 13.2972713,6.02701493 13.2565251,6.01134328 C13.2283161,6.03179104 13.2001072,5.85537313 13.2565251,5.80522388 C13.2706296,5.79104478 13.8395101,5.38634328 13.8395101,5.38634328 C13.8430922,5.38507463 13.8466743,5.38492537 13.849734,5.38544776 Z M9.73130119,5.21664179 C9.75339075,5.21276119 9.7765997,5.22380597 9.78913702,5.2530597 C9.79085343,5.26902985 9.79562955,5.32783582 9.79562955,5.34537313 C9.86682358,5.53462687 9.57421164,5.56910448 9.45145045,5.51052239 C9.35995791,5.47253731 9.36339075,5.335 9.36839075,5.32955224 C9.36451015,5.30044776 9.36846537,5.22432836 9.43555493,5.22410448 C9.44786836,5.22731343 9.45958478,5.23104478 9.46637582,5.24 C9.47085343,5.24985075 9.47383851,5.27358209 9.47383851,5.28850746 C9.47383851,5.30291045 9.48383851,5.30619403 9.49152507,5.31462687 C9.50451015,5.32283582 9.50077881,5.3211194 9.51674896,5.3211194 C9.53100269,5.31828358 9.53794299,5.31171642 9.54003254,5.29223881 C9.54003254,5.27559701 9.54540567,5.2611194 9.5493609,5.24649254 C9.55876388,5.23216418 9.5593609,5.22761194 9.57645045,5.2269403 C9.5904803,5.2269403 9.59480866,5.22835821 9.60256985,5.23343284 C9.61033104,5.24455224 9.62309224,5.26365672 9.62309224,5.28104478 C9.62145045,5.33574627 9.66130119,5.34179104 9.6715997,5.33141791 C9.68943552,5.32149254 9.67510716,5.28858209 9.67995791,5.2688806 C9.6877191,5.23873134 9.70913702,5.22052239 9.73130119,5.21664179 Z M13.5352564,4.65410448 C13.5713758,4.65589552 13.6063012,4.67298507 13.6276445,4.70440299 C13.669137,4.75567164 13.6838385,4.86410448 13.6901072,4.93761194 C13.6894355,4.97514925 13.6295101,4.93134328 13.5949579,4.94037313 C13.5604057,4.94947761 13.5519728,4.98925373 13.5492863,5.02529851 C13.5430176,5.12089552 13.531749,5.27455224 13.5296594,5.39007463 C13.4161519,5.38798507 13.1782415,5.16932836 13.1089131,5.04119403 C13.0826445,4.96776119 13.0998087,4.89574627 13.1228684,4.85373134 C13.1648833,4.82634328 13.2294355,4.79537313 13.2777191,4.82477612 C13.2777191,4.82477612 13.3275699,4.89514925 13.3178684,4.90410448 C13.3798087,4.93373134 13.4057788,4.91716418 13.4120475,4.8919403 C13.4163012,4.84783582 13.3946594,4.8211194 13.3943609,4.77253731 C13.4107788,4.69022388 13.4749579,4.65119403 13.5352564,4.65410448 Z M9.53301761,3.56798507 C9.56555493,3.56358209 9.58495791,3.62044776 9.60764448,3.67895522 C9.70794299,3.83402985 9.66794299,4.16537313 9.69995791,4.40186567 C9.74227134,4.71432836 9.82189821,4.73544776 9.87070418,4.7461194 C9.98779373,4.76007463 10.0544355,4.65283582 10.0544355,4.65283582 C10.0921967,4.42753731 9.97756985,4.26791045 9.91451015,4.14350746 C9.8427191,4.05 9.8396594,3.96238806 9.85577881,3.89164179 C9.86816687,3.83007463 9.85876388,3.76507463 9.92197284,3.7069403 C10.0122713,3.63134328 10.1054803,3.64029851 10.172943,3.71440299 C10.2506296,3.8008209 10.3648833,3.97216418 10.3286893,4.03253731 C10.3169728,4.09447761 10.2428684,4.07529851 10.2083907,4.0688806 C10.1400325,4.07865672 10.2139878,4.23126866 10.2139878,4.23865672 C10.2562266,4.34044776 10.2565997,4.48104478 10.3118982,4.5819403 C10.3660773,4.66589552 10.4755549,4.62858209 10.5320475,4.62022388 C10.5763758,4.59313433 10.579137,4.5838806 10.6234654,4.55679104 C10.6574206,4.53753731 10.7106296,4.53044776 10.7055549,4.62395522 C10.7055549,4.62395522 10.6186893,4.87470149 10.5031669,4.92992537 C10.4704803,4.93910448 10.4576445,4.96574627 10.4024206,4.92432836 C10.3707042,4.86223881 10.4174206,4.82820896 10.4248087,4.79373134 C10.4248087,4.7741791 10.3452564,4.74686567 10.2988385,4.80865672 C10.2687639,4.85097015 10.252943,4.88925373 10.1878684,5.0008209 C10.1395101,5.08492537 9.93100269,5.11447761 9.83339075,5.07544776 C9.71734597,5.01649254 9.72428627,4.93164179 9.67010716,4.88238806 C9.6143609,4.8458209 9.56219672,4.84835821 9.5227191,4.88985075 L9.5227191,4.88985075 L9.3454803,5.06708955 C9.33070418,5.08186567 9.14234597,5.23537313 8.91451015,5.05962687 C8.8124206,4.93902985 8.77861463,4.85044776 8.78391313,4.45328358 C8.76331612,4.41022388 8.73264448,4.41985075 8.69249522,4.50365672 C8.63383851,4.80231343 8.54286836,5.07507463 8.39958478,5.01574627 C8.20092806,5.07119403 7.91428627,4.50089552 8.09645045,3.98029851 C8.21018179,3.86686567 8.21674896,4.55716418 8.31100269,4.64544776 C8.3496594,4.71276119 8.40480866,4.76104478 8.45652507,4.59410448 C8.51279373,4.36507463 8.60488328,4.07716418 8.79137582,3.90664179 C8.83018179,3.87343284 8.92100269,3.83395522 8.97607731,3.94395522 C9.01346537,4.015 9.00152507,4.34962687 8.9965997,4.55402985 C9.02391313,4.68223881 9.07100269,4.70298507 9.13092806,4.74335821 C9.19503254,4.77432836 9.27861463,4.79559701 9.35577881,4.71261194 C9.41070418,4.64850746 9.42025642,4.62649254 9.46212209,4.56238806 C9.48958478,4.33701493 9.46473403,4.13462687 9.40428627,4.01014925 C9.33040567,3.81380597 9.43279373,3.71858209 9.45652507,3.65567164 C9.4896594,3.59559701 9.51354,3.57067164 9.53301761,3.56798507 Z M11.8298087,4.58604478 C11.8519728,4.58216418 11.8751072,4.59320896 11.8876445,4.62246269 C11.8893609,4.63843284 11.894137,4.69723881 11.894137,4.71477612 C11.9039131,4.91276119 11.6727191,4.93843284 11.5499579,4.87992537 C11.4584654,4.8419403 11.4618982,4.70440299 11.4668982,4.69895522 C11.4630176,4.66985075 11.4670475,4.59373134 11.5340624,4.59350746 C11.5463758,4.59671642 11.5571221,4.60044776 11.5639131,4.60940299 C11.5684654,4.61925373 11.572346,4.64298507 11.572346,4.65791045 C11.572346,4.67231343 11.5814504,4.67559701 11.589137,4.68402985 C11.6021221,4.69231343 11.5992863,4.69059701 11.6152564,4.69059701 C11.6295848,4.68768657 11.6363758,4.6811194 11.63854,4.66164179 C11.63854,4.64507463 11.6439131,4.63059701 11.6478684,4.61597015 C11.6572713,4.60156716 11.6568982,4.59701493 11.6739878,4.59634328 C11.6880922,4.59634328 11.6933161,4.59776119 11.7010773,4.60283582 C11.7088385,4.6138806 11.7215997,4.63298507 11.7215997,4.65044776 C11.7199579,4.70514925 11.7598087,4.71119403 11.7701072,4.7008209 C11.787943,4.69089552 11.7736146,4.65895522 11.7784654,4.63925373 C11.7862266,4.60910448 11.8076445,4.58992537 11.8298087,4.58604478 Z M7.77951015,3.695 C7.82197284,3.69283582 7.86921164,3.70044776 7.9193609,3.72298507 C7.97995791,3.79052239 8.01674896,3.93902985 7.90070418,4.00656716 C7.87734597,4.02910448 7.87473403,4.05119403 7.90070418,4.07373134 C7.92495791,4.09455224 7.94734597,4.10985075 7.9715997,4.13067164 C7.9715997,4.13067164 7.50316687,4.6661194 7.40443552,4.70246269 C7.4043609,4.70253731 7.40451015,4.70335821 7.40443552,4.70343284 L7.40401575,4.70343284 L7.40308291,4.70391791 C7.37085343,4.71873134 7.08354,4.71910448 7.06025642,4.70343284 C7.06018179,4.70335821 7.0593609,4.70253731 7.05928627,4.70246269 L7.05928627,4.70246269 L7.05790567,4.70204291 C7.05734597,4.70149254 7.05667433,4.70164179 7.05652507,4.70156716 C7.05525642,4.70022388 7.05480866,4.6991791 7.0546594,4.69873134 L7.0546594,4.69873134 C7.05480866,4.69552239 7.05540567,4.69447761 7.05562955,4.69402985 C7.07876388,4.63664179 7.53786836,4.32179104 7.71421164,4.13343284 C7.75585343,4.09880597 7.69361463,4.03604478 7.63122657,4.00656716 C7.56712209,3.92858209 7.58615194,3.80365672 7.66756985,3.72574627 C7.69958478,3.70932836 7.73704746,3.69716418 7.77951015,3.695 Z M6.13205361,3.69274492 L6.15403198,3.69442233 C6.16838245,3.69870647 6.18145045,3.7100995 6.18980866,3.72955224 C6.19152507,3.74552239 6.19540567,3.80440299 6.19540567,3.82186567 C6.20518179,4.01985075 5.97488328,4.04462687 5.85212209,3.98604478 C5.76062955,3.94813433 5.76316687,3.81149254 5.76816687,3.80604478 C5.76428627,3.77701493 5.76913702,3.7 5.83622657,3.69970149 C5.84854,3.70291045 5.85928627,3.70753731 5.86607731,3.71649254 C5.87062955,3.72634328 5.87451015,3.75007463 5.87451015,3.765 C5.87451015,3.77940299 5.88361463,3.78268657 5.89130119,3.7911194 C5.90421164,3.79940299 5.9004803,3.79768657 5.91645045,3.79768657 C5.93077881,3.79477612 5.93861463,3.78820896 5.94070418,3.76873134 C5.94070418,3.75201493 5.94607731,3.73768657 5.95025642,3.7230597 C5.9596594,3.70865672 5.95921164,3.70410448 5.97637582,3.70343284 C5.99040567,3.70343284 5.99562955,3.70485075 6.00339075,3.70992537 C6.01115194,3.72097015 6.02391313,3.73910448 6.02391313,3.75656716 C6.02234597,3.81126866 6.06122657,3.81828358 6.07152507,3.80791045 C6.07747035,3.80457711 6.07994133,3.79870647 6.08077604,3.79163074 L6.08085343,3.74537313 C6.08854,3.71522388 6.10995791,3.6969403 6.13212209,3.69313433 L6.13205361,3.69274492 Z" id="#FFFFFF" fill="#FFFFFF"></path>
            </g>
        </g>
    </g>
</svg>