<?xml version="1.0" encoding="UTF-8"?>
<svg width="24px" height="24px" viewBox="0 0 24 24" version="1.1" xmlns="http://www.w3.org/2000/svg" xmlns:xlink="http://www.w3.org/1999/xlink">
    <title>Icon/Location/Pin</title>
    <g id="Icon/Location/Pin" stroke="none" stroke-width="1" fill="none" fill-rule="evenodd" fill-opacity="0.84">
        <path d="M12,1.99999531 C15.6801849,2.00412855 18.6625334,4.98647705 18.6666667,8.66666198 C18.6666667,11.5949953 14.5,18.6883286 12.71,21.6024953 C12.5595616,21.8504863 12.2900505,22.0013745 12,21.9999953 C11.7104986,21.9999953 11.4416987,21.8499023 11.29,21.6033286 C9.5,18.6874953 5.33333333,11.591662 5.33333333,8.66666198 C5.33746657,4.98647705 8.31981507,2.00412855 12,1.99999531 Z M12,6 C10.6192881,6 9.5,7.11928813 9.5,8.5 C9.5,9.88071187 10.6192881,11 12,11 C13.3807119,11 14.5,9.88071187 14.5,8.5 C14.5,7.11928813 13.3807119,6 12,6 Z" id="Pin" fill="currentColor"></path>
    </g>
</svg>