<?xml version="1.0" encoding="UTF-8"?>
<svg width="24px" height="24px" viewBox="0 0 24 24" version="1.1" xmlns="http://www.w3.org/2000/svg" xmlns:xlink="http://www.w3.org/1999/xlink">
    <title>Icon/Essential/Layout-module Filled</title>
    <g id="Icon/Essential/Layout-module-Filled" stroke="none" stroke-width="1" fill="none" fill-rule="evenodd" fill-opacity="0.84">
        <path d="M6.125,16.3725 C6.95342712,16.3725 7.625,17.0440729 7.625,17.8725 L7.625,20.2891667 C7.625,21.1175938 6.95342712,21.7891667 6.125,21.7891667 L3.70833333,21.7891667 C2.87990621,21.7891667 2.20833333,21.1175938 2.20833333,20.2891667 L2.20833333,17.8725 C2.20833333,17.0440729 2.87990621,16.3725 3.70833333,16.3725 L6.125,16.3725 Z M13.2083333,16.3725 C14.0367605,16.3725 14.7083333,17.0440729 14.7083333,17.8725 L14.7083333,20.2891667 C14.7083333,21.1175938 14.0367605,21.7891667 13.2083333,21.7891667 L10.7916667,21.7891667 C9.96323954,21.7891667 9.29166667,21.1175938 9.29166667,20.2891667 L9.29166667,17.8725 C9.29166667,17.0440729 9.96323954,16.3725 10.7916667,16.3725 L13.2083333,16.3725 Z M20.2916667,16.3725 C21.1200938,16.3725 21.7916667,17.0440729 21.7916667,17.8725 L21.7916667,20.2891667 C21.7916667,21.1175938 21.1200938,21.7891667 20.2916667,21.7891667 L17.875,21.7891667 C17.0465729,21.7891667 16.375,21.1175938 16.375,20.2891667 L16.375,17.8725 C16.375,17.0440729 17.0465729,16.3725 17.875,16.3725 L20.2916667,16.3725 Z M6.125,9.28916667 C6.95342712,9.28916667 7.625,9.96073954 7.625,10.7891667 L7.625,13.2058333 C7.625,14.0342605 6.95342712,14.7058333 6.125,14.7058333 L3.70833333,14.7058333 C2.87990621,14.7058333 2.20833333,14.0342605 2.20833333,13.2058333 L2.20833333,10.7891667 C2.20833333,9.96073954 2.87990621,9.28916667 3.70833333,9.28916667 L6.125,9.28916667 Z M13.2083333,9.28916667 C14.0367605,9.28916667 14.7083333,9.96073954 14.7083333,10.7891667 L14.7083333,13.2058333 C14.7083333,14.0342605 14.0367605,14.7058333 13.2083333,14.7058333 L10.7916667,14.7058333 C9.96323954,14.7058333 9.29166667,14.0342605 9.29166667,13.2058333 L9.29166667,10.7891667 C9.29166667,9.96073954 9.96323954,9.28916667 10.7916667,9.28916667 L13.2083333,9.28916667 Z M20.2916667,9.28916667 C21.1200938,9.28916667 21.7916667,9.96073954 21.7916667,10.7891667 L21.7916667,13.2058333 C21.7916667,14.0342605 21.1200938,14.7058333 20.2916667,14.7058333 L17.875,14.7058333 C17.0465729,14.7058333 16.375,14.0342605 16.375,13.2058333 L16.375,10.7891667 C16.375,9.96073954 17.0465729,9.28916667 17.875,9.28916667 L20.2916667,9.28916667 Z M6.125,2.20583333 C6.95342712,2.20583333 7.625,2.87740621 7.625,3.70583333 L7.625,6.1225 C7.625,6.95092712 6.95342712,7.6225 6.125,7.6225 L3.70833333,7.6225 C2.87990621,7.6225 2.20833333,6.95092712 2.20833333,6.1225 L2.20833333,3.70583333 C2.20833333,2.87740621 2.87990621,2.20583333 3.70833333,2.20583333 L6.125,2.20583333 Z M13.2083333,2.20583333 C14.0367605,2.20583333 14.7083333,2.87740621 14.7083333,3.70583333 L14.7083333,6.1225 C14.7083333,6.95092712 14.0367605,7.6225 13.2083333,7.6225 L10.7916667,7.6225 C9.96323954,7.6225 9.29166667,6.95092712 9.29166667,6.1225 L9.29166667,3.70583333 C9.29166667,2.87740621 9.96323954,2.20583333 10.7916667,2.20583333 L13.2083333,2.20583333 Z M20.2916667,2.20583333 C21.1200938,2.20583333 21.7916667,2.87740621 21.7916667,3.70583333 L21.7916667,6.1225 C21.7916667,6.95092712 21.1200938,7.6225 20.2916667,7.6225 L17.875,7.6225 C17.0465729,7.6225 16.375,6.95092712 16.375,6.1225 L16.375,3.70583333 C16.375,2.87740621 17.0465729,2.20583333 17.875,2.20583333 L20.2916667,2.20583333 Z" id="Layout-module-Filled" fill="currentColor"></path>
    </g>
</svg>