<?xml version="1.0" encoding="UTF-8"?>
<svg width="24px" height="24px" viewBox="0 0 24 24" version="1.1" xmlns="http://www.w3.org/2000/svg" xmlns:xlink="http://www.w3.org/1999/xlink">
    <title>Icon/Essential/World</title>
    <g id="Icon/Essential/World" stroke="none" stroke-width="1" fill="none" fill-rule="evenodd" fill-opacity="0.84">
        <path d="M12,2 C17.5228475,2 22,6.4771525 22,12 C22,17.5228475 17.5228475,22 12,22 C6.4771525,22 2,17.5228475 2,12 C2,6.4771525 6.4771525,2 12,2 Z M15.0665683,17.6262126 L8.93343172,17.6262126 C9.24365772,18.7867469 9.64878791,19.7859542 10.126416,20.5485101 C10.7299559,20.6806162 11.3568752,20.75 12,20.75 C12.6431248,20.75 13.2700441,20.6806162 13.8736808,20.5489257 L13.7427942,20.7487191 C14.2774722,19.9646183 14.7284041,18.8912619 15.0665683,17.6262126 Z M7.64316589,17.626466 L5.29832507,17.6261513 C6.14445988,18.6329839 7.21331075,19.4463997 8.42900628,19.9905272 C8.12188645,19.2875509 7.85762969,18.4915728 7.64316589,17.626466 Z M18.7016749,17.6261513 L16.3568341,17.626466 C16.1423703,18.4915728 15.8781135,19.2875509 15.5699283,19.9913472 C16.7866893,19.4463997 17.8555401,18.6329839 18.7016749,17.6261513 Z M7.00731374,12.6256754 L3.27200967,12.6254552 C3.36802297,13.9848982 3.77458529,15.2585906 4.42118418,16.3760197 L7.37662212,16.3757006 C7.16514784,15.20387 7.03806375,13.9382112 7.00731374,12.6256754 Z M15.7422963,12.6255852 L8.25770366,12.6255852 C8.29040461,13.9507942 8.42631544,15.2202671 8.6482381,16.3761884 L15.3517619,16.3761884 C15.5736846,15.2202671 15.7095954,13.9507942 15.7422963,12.6255852 Z M20.7279903,12.6254552 L16.9926863,12.6256754 C16.9619363,13.9382112 16.8348522,15.20387 16.6233779,16.3757006 L19.5788158,16.3760197 C20.2254147,15.2585906 20.631977,13.9848982 20.7279903,12.6254552 Z M7.37644047,7.6253061 L4.42060549,7.62498049 C3.77418401,8.74244384 3.36779476,10.0161328 3.27193901,11.3755461 L7.00729036,11.3753236 C7.03799048,10.0628068 7.16502143,8.79715216 7.37644047,7.6253061 Z M15.3519542,7.62481337 L8.64804579,7.62481337 C8.42618114,8.78075694 8.29032684,10.0502269 8.25767901,11.3754143 L15.742321,11.3754143 C15.7096732,10.0502269 15.5738189,8.78075694 15.3519542,7.62481337 Z M19.5793945,7.62498049 L16.6235595,7.6253061 C16.8349786,8.79715216 16.9620095,10.0628068 16.9927096,11.3753236 L20.728061,11.3755461 C20.6322052,10.0161328 20.225816,8.74244384 19.5793945,7.62498049 Z M8.43007165,4.00865279 L8.3713937,4.03551098 C7.17913432,4.57957878 6.13036709,5.38348861 5.29749017,6.3748423 L7.64291811,6.37453356 C7.85742614,5.50904039 8.12176775,4.71272016 8.43007165,4.00865279 Z M12,3.25 C11.3568752,3.25 10.7299559,3.31938383 10.1263192,3.45107431 L10.2572058,3.2512809 C9.72238584,4.03558986 9.27135654,5.10930797 8.93316244,6.37479495 L15.0668376,6.37479495 C14.7565767,5.21383139 14.3513503,4.21426649 13.873584,3.4514899 C13.2700441,3.31938383 12.6431248,3.25 12,3.25 Z M15.5709937,4.00947283 L15.5871289,4.04813418 C15.888073,4.74244149 16.1465737,5.52517887 16.3570819,6.37453356 L18.7025098,6.3748423 C17.8562433,5.36755123 16.7870891,4.55377931 15.5709937,4.00947283 Z" id="World" fill="currentColor"></path>
    </g>
</svg>