<?xml version="1.0" encoding="UTF-8"?>
<svg width="24px" height="24px" viewBox="0 0 24 24" version="1.1" xmlns="http://www.w3.org/2000/svg" xmlns:xlink="http://www.w3.org/1999/xlink">
    <title>Icon/Essential/Hide</title>
    <g id="Icon/Essential/Hide" stroke="none" stroke-width="1" fill="none" fill-rule="evenodd" fill-opacity="0.84">
        <path d="M20.3937837,4.06716761 C20.6089258,4.29127392 20.6238997,4.63415759 20.443217,4.87475832 L20.3757491,4.95086708 L4.75074906,19.9508671 C4.50174205,20.1899138 4.10609632,20.1818394 3.86704959,19.9328324 C3.65190753,19.7087261 3.63693359,19.3658424 3.81761634,19.1252417 L3.88508427,19.0491329 L19.5100843,4.04913292 C19.7590913,3.81008619 20.154737,3.8181606 20.3937837,4.06716761 Z M18.8255703,8.89518089 C19.7882343,9.59786655 20.6777411,10.3956448 21.4831357,11.2792048 C22.1721353,12.0441228 22.1721353,13.2058772 21.4813163,13.9728063 C18.8279409,16.8929669 15.2459613,18.9297367 12.0034159,18.8749826 C11.0814248,18.8818658 10.1639111,18.7461729 9.2833808,18.4727113 C8.95373422,18.3703347 8.76949549,18.0201107 8.87187207,17.6904641 C8.97424866,17.3608176 9.32447262,17.1765788 9.6541192,17.2789554 C10.4116131,17.5142063 11.2009228,17.6309388 12.0092668,17.6250885 C14.8479738,17.6728619 18.1218582,15.8112799 20.5543643,13.1342048 C20.8150591,12.8447849 20.8150591,12.4052151 20.5568533,12.1185421 C19.8104427,11.2997058 18.9835243,10.5580616 18.0885963,9.90481911 C17.8097924,9.70130935 17.7487545,9.31031689 17.9522642,9.031513 C18.155774,8.7527091 18.5467664,8.69167114 18.8255703,8.89518089 Z M15.1235835,11.9991667 C15.4687615,11.9990747 15.7486581,12.2788221 15.7487502,12.6240001 C15.7490152,13.6187352 15.3540442,14.5728192 14.650754,15.2762969 C13.9474639,15.9797746 12.9934851,16.375 11.99875,16.375 C11.653572,16.375 11.37375,16.095178 11.37375,15.75 C11.37375,15.404822 11.653572,15.125 11.99875,15.125 C12.6619068,15.125 13.2978926,14.8615164 13.7667527,14.3925313 C14.2356128,13.9235461 14.4989269,13.28749 14.4987501,12.6243332 C14.4986581,12.2791553 14.7784056,11.9992587 15.1235835,11.9991667 Z M11.991741,6.3750393 C12.7225066,6.36684373 13.4513264,6.4520187 14.1605098,6.62849673 C14.4954723,6.71185109 14.699441,7.05096392 14.6160866,7.38592642 C14.5327322,7.72088893 14.1936194,7.92485763 13.8586569,7.84150327 C13.2527628,7.69072842 12.630092,7.61795878 11.9883632,7.62491369 C9.17323031,7.57812284 5.88187494,9.43436822 3.44563571,12.1141286 C3.18494086,12.4035485 3.18494086,12.8431182 3.44270131,13.1293032 C4.08285904,13.8300872 4.78156705,14.4750484 5.53124297,15.0571878 C5.80387589,15.268893 5.8532675,15.6615267 5.64156223,15.9341596 C5.42985696,16.2067926 5.03722328,16.2561842 4.76459036,16.0444789 C3.95882896,15.418788 3.20784852,14.7255753 2.51686429,13.9691286 C1.82786467,13.2042106 1.82786467,12.0424561 2.51879471,11.2754049 C5.17625389,8.35230115 8.7773487,6.32137016 11.991741,6.3750393 Z M11.9989166,8.87499978 C12.3440946,8.87509195 12.623842,9.15498858 12.62375,9.50016654 C12.6236579,9.84534449 12.3437613,10.1250919 11.9985834,10.1249999 C11.3355321,10.1248231 10.6995869,10.3881408 10.2307389,10.8569889 C9.76189084,11.3258369 9.49857307,11.9617821 9.49874987,12.6248334 C9.4988419,12.9700113 9.21909449,13.2499079 8.87391654,13.25 C8.52873858,13.250092 8.24884195,12.9703446 8.24874978,12.6251666 C8.24848469,11.6304793 8.64350521,10.6764556 9.34685538,9.97310538 C10.0502056,9.26975521 11.0042293,8.87473469 11.9989166,8.87499978 Z" id="View-Off" fill="currentColor"></path>
    </g>
</svg>