<?xml version="1.0" encoding="UTF-8"?>
<svg width="24px" height="24px" viewBox="0 0 24 24" version="1.1" xmlns="http://www.w3.org/2000/svg" xmlns:xlink="http://www.w3.org/1999/xlink">
    <title>Icon/SBU/Systems/Aviation</title>
    <g id="Icon/SBU/Systems/Aviation" stroke="none" stroke-width="1" fill="none" fill-rule="evenodd" fill-opacity="0.84">
        <path d="M15.9159975,5.66281071 C16.1130656,5.7137986 16.2833652,5.811058 16.4270236,5.95471638 C16.5705545,6.09837476 16.6679414,6.26867431 16.7189293,6.46586998 C16.76826,6.65618228 16.76826,6.84662205 16.7189293,7.03693435 C16.6679414,7.23234544 16.5701721,7.40239006 16.4258764,7.54681326 L13.5219885,10.4505736 C13.1718292,10.800733 12.9042702,11.2043021 12.7190567,11.661536 C12.5404716,12.1034736 12.4512428,12.5636393 12.4512428,13.0420331 C12.4512428,13.520427 12.5404716,13.9798279 12.7190567,14.4199809 C12.9042702,14.8772148 13.1718292,15.2807839 13.5219885,15.6309433 C13.7259401,15.829796 13.9464627,16.0018802 14.1835564,16.1471957 C14.4206501,16.2925112 14.663225,16.4059592 14.9114085,16.4875398 L15.1026131,17.3160931 L14.0471638,18.3740918 L11.140854,12.8215105 L8.23709369,15.7278203 L8.50478011,17.5735819 L7.71446781,18.3638942 L6.39133206,15.9827597 L4.01019758,14.659624 L4.80050988,13.8693117 L6.64627151,14.1369981 L9.55258126,11.2306883 L4,8.32692798 L5.05799873,7.26892925 L11.9311663,8.85975143 L14.8374761,5.95599108 C14.9802422,5.81156788 15.1493945,5.7137986 15.3448056,5.66281071 C15.5351179,5.61360739 15.7254302,5.61360739 15.9159975,5.66281071 Z M16.4845124,9.17332696 C16.926195,9.21755895 17.3477374,9.33228171 17.7490121,9.51749522 C18.1653282,9.7095921 18.5375398,9.96708094 18.8655194,10.2899618 C19.2360739,10.6605163 19.5198215,11.0879222 19.7170172,11.5723072 C19.9056724,12.0413958 20,12.5296048 20,13.0369344 C20,13.5442639 19.9056724,14.0317081 19.7170172,14.4990121 C19.5198215,14.9833971 19.2360739,15.4116953 18.8655194,15.7839069 C18.5086042,16.1408222 18.0998088,16.4161568 17.6392607,16.6099108 C17.1922243,16.8002231 16.7247929,16.9023263 16.2370937,16.9158381 L16.1784576,16.6787444 C16.6493308,16.6736456 17.098789,16.5827597 17.5270873,16.4059592 C17.9690249,16.2224028 18.3607393,15.9581581 18.7023582,15.6130975 C19.0525175,15.2612811 19.320204,14.8577119 19.5054175,14.4021351 C19.6838751,13.9619822 19.7731039,13.503856 19.7731039,13.0280115 C19.7731039,12.552167 19.6838751,12.0940408 19.5054175,11.6538878 C19.320204,11.2000956 19.0525175,10.7989484 18.7023582,10.4505736 C18.3709369,10.1191523 17.9928617,9.86166348 17.5680051,9.67810707 C17.1565328,9.50143403 16.7256851,9.40366475 16.2753346,9.3849267 L16.4845124,9.17332696 Z M17.0605481,11.5723072 L17.7565328,12.5002868 L18.2205226,12.5002868 C18.3055449,12.5002868 18.3833015,12.5210644 18.4537922,12.562747 C18.5244105,12.6044296 18.5808795,12.6608987 18.623327,12.7322817 C18.6657744,12.8036648 18.6870618,12.8810389 18.6870618,12.9642766 L18.6870618,13.6628107 L18.2205226,13.6628107 C18.2205226,13.7869662 18.1891651,13.9033461 18.126195,14.0120778 C18.0650096,14.1174952 17.9808795,14.2016252 17.873805,14.2644678 C17.7667304,14.3273104 17.6503505,14.3587954 17.5245379,14.3587954 C17.3987253,14.3587954 17.2815806,14.3265456 17.1727215,14.2619184 C17.0690886,14.200733 16.9857234,14.1166029 16.9228808,14.0095284 C16.8600382,13.9024538 16.8285532,13.7869662 16.8285532,13.6628107 L15.4340344,13.6628107 C15.4340344,13.7869662 15.4025494,13.9024538 15.3397068,14.0095284 C15.2768642,14.1166029 15.1936265,14.200733 15.0898662,14.2619184 C14.9811345,14.3265456 14.8638623,14.3587954 14.7380497,14.3587954 C14.6122371,14.3587954 14.4958572,14.3273104 14.3887827,14.2644678 C14.2817081,14.2016252 14.1975781,14.1174952 14.1363926,14.0120778 C14.07355,13.9033461 14.042065,13.7869662 14.042065,13.6628107 L13.5755258,13.6628107 L13.5755258,12.9642766 L14.7380497,11.5723072 L17.0605481,11.5723072 Z M14.7380497,13.3135437 C14.67355,13.3135437 14.6144041,13.32884 14.5608668,13.3594328 C14.5073295,13.3900255 14.4652645,13.4317081 14.4347992,13.4843531 C14.404079,13.5369981 14.3887827,13.596144 14.3887827,13.661536 C14.3887827,13.726928 14.404079,13.7860739 14.4347992,13.8387189 C14.4652645,13.8913639 14.5073295,13.9330465 14.5608668,13.9636393 C14.6144041,13.994232 14.67355,14.0095284 14.7380497,14.0095284 C14.8025494,14.0095284 14.8616953,13.994232 14.9152326,13.9636393 C14.9687699,13.9330465 15.0108349,13.8913639 15.0414277,13.8387189 C15.0721479,13.7860739 15.0874442,13.726928 15.0874442,13.661536 C15.0874442,13.596144 15.0721479,13.5369981 15.0414277,13.4843531 C15.0108349,13.4317081 14.9687699,13.3900255 14.9152326,13.3594328 C14.8616953,13.32884 14.8025494,13.3135437 14.7380497,13.3135437 Z M17.5245379,13.3135437 C17.4599108,13.3135437 17.4008923,13.32884 17.347355,13.3594328 C17.2938177,13.3900255 17.2517527,13.4317081 17.22116,13.4843531 C17.1906947,13.5369981 17.1753983,13.596144 17.1753983,13.661536 C17.1753983,13.726928 17.1906947,13.7860739 17.22116,13.8387189 C17.2517527,13.8913639 17.2938177,13.9330465 17.347355,13.9636393 C17.4008923,13.994232 17.4599108,14.0095284 17.5245379,14.0095284 C17.5891651,14.0095284 17.6481836,13.994232 17.7017208,13.9636393 C17.7552581,13.9330465 17.7973231,13.8913639 17.8280433,13.8387189 C17.8585086,13.7860739 17.873805,13.7274379 17.873805,13.6628107 C17.873805,13.5965264 17.8585086,13.5369981 17.8280433,13.4843531 C17.7973231,13.4317081 17.7552581,13.3900255 17.7017208,13.3594328 C17.6481836,13.32884 17.5891651,13.3135437 17.5245379,13.3135437 Z M16.943276,11.9190249 L16.1325685,11.9190249 L16.1325685,12.5002868 L17.3970682,12.5002868 L16.943276,11.9190249 Z M15.7834289,11.9190249 L14.8527725,11.9190249 L14.3887827,12.5002868 L15.7834289,12.5002868 L15.7834289,11.9190249 Z" id="Aircraft" fill="currentColor"></path>
    </g>
</svg>