<?xml version="1.0" encoding="UTF-8"?>
<svg width="24px" height="24px" viewBox="0 0 24 24" version="1.1" xmlns="http://www.w3.org/2000/svg" xmlns:xlink="http://www.w3.org/1999/xlink">
    <title>Icon/SBU/New/Aviation 1</title>
    <g id="Icon/SBU/New/Aviation-1" stroke="none" stroke-width="1" fill="none" fill-rule="evenodd" fill-opacity="0.84">
        <path d="M18.2321753,6.66794179 C19.0241493,6.6530369 19.7393723,6.91173162 19.9382019,7.49790513 C20.2422942,8.3944058 19.3904705,9.52655708 18.1221213,10.0228262 L15.1935837,11.2025498 C14.9848754,11.2866252 14.8203329,11.4584624 14.7407897,11.6754175 L12.9075134,16.6757016 C12.8052786,16.9545481 12.564975,17.1538202 12.2800738,17.1960066 L10.2411737,17.4979142 C10.1330751,17.5139208 10.032925,17.4360654 10.0174824,17.3240194 C10.0146149,17.3032143 10.014852,17.2820758 10.0181854,17.2613454 L10.7646482,12.6190199 L6.66190375,14.1654059 L6.59688401,14.1836044 L6.53101308,14.1900754 C6.42127333,14.1912773 6.31364538,14.1450374 6.2364215,14.0584665 L4.10509077,11.6691636 C3.95682746,11.5029548 3.96662833,11.2436358 4.12698164,11.0899585 L4.15909317,11.0622958 L5.3193592,10.1657525 C5.3764404,10.1216456 5.44275688,10.0951468 5.51109497,10.0871051 L5.57983975,10.0852471 C5.62576262,10.088152 5.67151529,10.0993857 5.71496038,10.1191998 L7.44936262,10.9102133 C7.49796497,10.9323795 7.54984687,10.9439483 7.60190337,10.944865 L7.67973095,10.9382442 C7.70545839,10.9333697 7.73084136,10.9258254 7.75549174,10.9156043 L9.57834555,10.1597758 L16.9750346,6.91367047 C17.3279843,6.77743634 17.715481,6.69547495 18.0917079,6.67340124 L18.2321753,6.66794179 Z M17.3882345,7.64129162 L17.3370372,7.65606439 L8.24623978,11.6557887 C8.15972286,11.6938539 8.11162262,11.7835995 8.12286801,11.8732005 L8.13690415,11.9265291 C8.17539427,12.0141484 8.2632191,12.0604129 8.34954167,12.0478306 L8.40074824,12.0330797 L17.4915457,8.03335542 C17.595366,7.98767708 17.6438663,7.8675791 17.6008813,7.76261502 C17.6002339,7.76103402 17.599566,7.75946144 17.598878,7.75789766 C17.5620573,7.67420948 17.4745107,7.62860012 17.3882345,7.64129162 Z M8.6001468,6.54929695 L13.0087825,8.20917468 L9.42416931,9.78233876 L9.27430167,9.84457204 L6.67610374,7.15155478 C6.5988904,7.0715219 6.5988904,6.94176296 6.67610374,6.86173008 C6.70370516,6.83312076 6.73885905,6.81361995 6.77713533,6.80568515 L8.17492339,6.51591913 C8.3169393,6.48647877 8.46402789,6.49802445 8.6001468,6.54929695 Z" id="Plane" fill="currentColor"></path>
    </g>
</svg>