<?xml version="1.0" encoding="UTF-8"?>
<svg width="24px" height="24px" viewBox="0 0 24 24" version="1.1" xmlns="http://www.w3.org/2000/svg" xmlns:xlink="http://www.w3.org/1999/xlink">
    <title>Icon/Essential/Stopwatch</title>
    <g id="Icon/Essential/Stopwatch" stroke="none" stroke-width="1" fill="none" fill-rule="evenodd" fill-opacity="0.84">
        <path d="M13.875,2 C14.220178,2 14.5,2.27982203 14.5,2.625 C14.5,2.93879815 14.2687421,3.19858314 13.9673579,3.2432234 L13.875,3.25 L12.625,3.25 L12.6256736,5.77409814 C13.7204658,5.85856149 14.8019802,6.1650544 15.80041,6.69357686 L16.0625001,6.83854344 C16.37012,7.01614792 16.6632861,7.21218379 16.9409293,7.42479968 L17.6972114,6.66698912 C17.5724215,6.43092549 17.6093705,6.13174606 17.8080583,5.93305826 C18.0250162,5.71610032 18.3617967,5.69199388 18.6053819,5.86073895 L18.6919417,5.93305826 L18.9988042,6.23999028 C19.0006922,6.24183194 19.0025714,6.24368793 19.0044417,6.24555826 L19.009,6.251 L19.3169417,6.55805826 C19.5610194,6.80213594 19.5610194,7.19786406 19.3169417,7.44194174 C19.1180636,7.64081985 18.8185013,7.67764913 18.5823327,7.55242958 L17.8727507,8.2599105 C19.2984248,9.75124745 20.125,11.7542774 20.125,13.8749998 C20.125,16.7777829 18.5763838,19.460065 16.0625,20.9114565 C13.5486163,22.362848 10.4513837,22.362848 7.93749997,20.9114565 C5.4236162,19.460065 3.875,16.7777829 3.875,13.8749998 C3.875,10.972217 5.42361622,8.2899349 7.93749994,6.83854344 C9.00772274,6.22065 10.1836726,5.86580916 11.3753283,5.7740209 L11.375,3.25 L10.125,3.25 C9.77982203,3.25 9.5,2.97017797 9.5,2.625 C9.5,2.31120185 9.73125788,2.05141686 10.0326421,2.0067766 L10.125,2 L13.875,2 Z M12.0100335,7.00000712 L12,7 L12,7 C10.8070357,7.00155327 9.62337888,7.30857644 8.56249995,7.92107518 C6.43536758,9.14917566 5.125,11.4187989 5.125,13.8749998 C5.125,16.331201 6.43536755,18.6008243 8.56249997,19.8289247 C10.6896324,21.0570252 13.3103676,21.0570252 15.4375,19.8289247 C17.5646324,18.6008243 18.875,16.331201 18.875,13.8749998 C18.875,11.4187989 17.5646324,9.14917566 15.4375001,7.92107518 C14.3769306,7.30875514 13.193655,7.00173245 12.0100335,7.00000712 Z M9.26474515,10.5521177 L9.33877471,10.6218608 L12.4637747,14.0810274 C12.6951669,14.3371631 12.6751083,14.7323825 12.4189726,14.9637747 C12.1884504,15.1720277 11.8452705,15.1766055 11.6102548,14.9887156 L11.5362253,14.9189726 L8.41122529,11.4598059 C8.17983313,11.2036702 8.19989173,10.8084508 8.45602742,10.5770586 C8.68654955,10.3688057 9.0297295,10.3642278 9.26474515,10.5521177 Z" id="Stopwatch" fill="currentColor"></path>
    </g>
</svg>