<?xml version="1.0" encoding="UTF-8"?>
<svg width="24px" height="24px" viewBox="0 0 24 24" version="1.1" xmlns="http://www.w3.org/2000/svg" xmlns:xlink="http://www.w3.org/1999/xlink">
    <title>Icon/Essential/Delete</title>
    <g id="Icon/Essential/Delete" stroke="none" stroke-width="1" fill="none" fill-rule="evenodd" fill-opacity="0.84">
        <path d="M13.875,3.875 C14.9105339,3.875 15.75,4.71446609 15.75,5.75 L15.75,5.75 L15.75,6.375 L20.125,6.375 C20.470178,6.375 20.75,6.65482203 20.75,7 C20.75,7.31379815 20.5187421,7.57358314 20.2173579,7.6182234 L20.125,7.625 L18.25,7.625 L18.25,18.25 C18.25,19.2362228 17.4885795,20.0446062 16.5215301,20.1193588 L16.375,20.125 L7.625,20.125 C6.58946609,20.125 5.75,19.2855339 5.75,18.25 L5.75,18.25 L5.75,7.625 L3.875,7.625 C3.52982203,7.625 3.25,7.34517797 3.25,7 C3.25,6.68620185 3.48125788,6.42641686 3.78264208,6.3817766 L3.875,6.375 L8.25,6.375 L8.25,5.75 C8.25,4.76377723 9.01142049,3.95539375 9.97846985,3.88064118 L10.125,3.875 Z M17,7.625 L7,7.625 L7,18.25 C7,18.5637982 7.23125788,18.8235831 7.53264208,18.8682234 L7.53264208,18.8682234 L7.625,18.875 L16.375,18.875 C16.720178,18.875 17,18.595178 17,18.25 L17,18.25 L17,7.625 Z M10.125,10.125 C10.4387982,10.125 10.6985831,10.3562579 10.7432234,10.6576421 L10.75,10.75 L10.75,15.75 C10.75,16.095178 10.470178,16.375 10.125,16.375 C9.81120185,16.375 9.55141686,16.1437421 9.5067766,15.8423579 L9.5,15.75 L9.5,10.75 C9.5,10.404822 9.77982203,10.125 10.125,10.125 Z M13.875,10.125 C14.1887982,10.125 14.4485831,10.3562579 14.4932234,10.6576421 L14.5,10.75 L14.5,15.75 C14.5,16.095178 14.220178,16.375 13.875,16.375 C13.5612018,16.375 13.3014169,16.1437421 13.2567766,15.8423579 L13.25,15.75 L13.25,10.75 C13.25,10.404822 13.529822,10.125 13.875,10.125 Z M13.875,5.125 L10.125,5.125 C9.77982203,5.125 9.5,5.40482203 9.5,5.75 L9.5,5.75 L9.5,6.375 L14.5,6.375 L14.5,5.75 C14.5,5.43620185 14.2687421,5.17641686 13.9673579,5.1317766 L13.9673579,5.1317766 L13.875,5.125 Z" id="Delete" fill="currentColor"></path>
    </g>
</svg>