<?xml version="1.0" encoding="UTF-8"?>
<svg width="24px" height="24px" viewBox="0 0 24 24" version="1.1" xmlns="http://www.w3.org/2000/svg" xmlns:xlink="http://www.w3.org/1999/xlink">
    <title>Icon/Essential/Lock-1</title>
    <g id="Icon/Essential/Lock-1" stroke="none" stroke-width="1" fill="none" fill-rule="evenodd" fill-opacity="0.84">
        <path d="M12,2 C14.6887547,2 16.8818181,4.12230671 16.9953805,6.78311038 L17,7 L17,9.5 L17.375,9.5 C18.4975788,9.5 19.41685,10.3704634 19.4946645,11.4732412 L19.5,11.625 L19.5,19.875 C19.5,21.0486051 18.5486051,22 17.375,22 L17.375,22 L6.625,22 C5.45139491,22 4.5,21.0486051 4.5,19.875 L4.5,19.875 L4.5,11.625 C4.5,10.4513949 5.45139491,9.5 6.625,9.5 L6.625,9.5 L7,9.5 L7,7 C7,4.23857625 9.23857625,2 12,2 Z M17.375,10.75 L6.625,10.75 C6.14175084,10.75 5.75,11.1417508 5.75,11.625 L5.75,11.625 L5.75,19.875 C5.75,20.3582492 6.14175084,20.75 6.625,20.75 L6.625,20.75 L17.375,20.75 C17.8582492,20.75 18.25,20.3582492 18.25,19.875 L18.25,19.875 L18.25,11.625 C18.25,11.1417508 17.8582492,10.75 17.375,10.75 L17.375,10.75 Z M12,13.875 C12.3137982,13.875 12.5735831,14.1062579 12.6182234,14.4076421 L12.625,14.5 L12.625,17 C12.625,17.345178 12.345178,17.625 12,17.625 C11.6862018,17.625 11.4264169,17.3937421 11.3817766,17.0923579 L11.375,17 L11.375,14.5 C11.375,14.154822 11.654822,13.875 12,13.875 Z M12,3.25 C9.99574083,3.25 8.35872626,4.82236105 8.25519801,6.80084143 L8.25,7 L8.25,9.5 L15.75,9.5 L15.75,7 C15.75,4.92893219 14.0710678,3.25 12,3.25 Z" id="Lock-1" fill="currentColor"></path>
    </g>
</svg>