<?xml version="1.0" encoding="UTF-8"?>
<svg width="24px" height="24px" viewBox="0 0 24 24" version="1.1" xmlns="http://www.w3.org/2000/svg" xmlns:xlink="http://www.w3.org/1999/xlink">
    <title>Icon/Essential/Print</title>
    <g id="Icons" stroke="none" stroke-width="1" fill="none" fill-rule="evenodd">
        <g id="Overview" transform="translate(-873.000000, -450.000000)" fill="currentColor">
            <g id="Icons" transform="translate(368.500000, 100.000000)">
                <g id="Icon/Essential/Print" transform="translate(504.500000, 350.000000)">
                    <path d="M16.375,2 C17.3612228,2 18.1696062,2.76142049 18.2443588,3.72846985 L18.25,3.875 L18.25,7 L20.125,7 C21.0593163,7 21.8340206,7.68338017 21.9765402,8.57756771 L21.9943588,8.72846985 L22,8.875 L22,15.125 C22,16.1112228 21.2385795,16.9196062 20.2715301,16.9943588 L20.125,17 L18.25,17 L18.25,21.375 C18.25,21.6539317 18.0672777,21.8901863 17.815001,21.970596 L17.7173579,21.9932234 L17.625,22 L6.375,22 C6.06120185,22 5.80141686,21.7687421 5.7567766,21.4673579 L5.75,21.375 L5.75,17 L3.875,17 C2.94068369,17 2.16597938,16.3166198 2.02345984,15.4224323 L2.00564118,15.2715301 L2,15.125 L2,8.875 C2,7.88877723 2.76142049,7.08039375 3.72846985,7.00564118 L3.875,7 L5.75,7 L5.75,3.875 C5.75,2.94068369 6.43338017,2.16597938 7.32756771,2.02345984 L7.47846985,2.00564118 L7.625,2 L16.375,2 Z M17,13.25 L7,13.25 L7,20.75 L17,20.75 L17,13.25 Z M15.125,17.755 C15.470178,17.755 15.75,18.034822 15.75,18.38 C15.75,18.6937982 15.5187421,18.9535831 15.2173579,18.9982234 L15.125,19.005 L8.875,19.005 C8.52982203,19.005 8.25,18.725178 8.25,18.38 C8.25,18.0662018 8.48125788,17.8064169 8.78264208,17.7617766 L8.875,17.755 L15.125,17.755 Z M15.125,15.005 C15.470178,15.005 15.75,15.284822 15.75,15.63 C15.75,15.9437982 15.5187421,16.2035831 15.2173579,16.2482234 L15.125,16.255 L8.875,16.255 C8.52982203,16.255 8.25,15.975178 8.25,15.63 C8.25,15.3162018 8.48125788,15.0564169 8.78264208,15.0117766 L8.875,15.005 L15.125,15.005 Z M20.125,8.25 L3.875,8.25 L3.77262213,8.25834408 C3.50612796,8.3022564 3.29645684,8.51474501 3.2567766,8.78264208 L3.2567766,8.78264208 L3.25,8.875 L3.25,15.125 L3.25834408,15.2273779 C3.3022564,15.493872 3.51474501,15.7035432 3.78264208,15.7432234 L3.78264208,15.7432234 L3.875,15.75 L5.75,15.75 L5.75,12.625 L5.75834408,12.5226221 C5.8022564,12.256128 6.01474501,12.0464568 6.28264208,12.0067766 L6.28264208,12.0067766 L6.375,12 L17.625,12 L17.7273779,12.0083441 C17.993872,12.0522564 18.2035432,12.264745 18.2432234,12.5326421 L18.2432234,12.5326421 L18.25,12.625 L18.25,15.75 L20.125,15.75 L20.2273779,15.7416559 C20.493872,15.6977436 20.7035432,15.485255 20.7432234,15.2173579 L20.7432234,15.2173579 L20.75,15.125 L20.75,8.875 L20.7416559,8.77262213 C20.6977436,8.50612796 20.485255,8.29645684 20.2173579,8.2567766 L20.2173579,8.2567766 L20.125,8.25 Z M6.375,9.5 C6.72017797,9.5 7,9.77982203 7,10.125 C7,10.4387982 6.76874212,10.6985831 6.46735792,10.7432234 L6.375,10.75 L5.125,10.75 C4.77982203,10.75 4.5,10.470178 4.5,10.125 C4.5,9.81120185 4.73125788,9.55141686 5.03264208,9.5067766 L5.125,9.5 L6.375,9.5 Z M16.375,3.25 L7.625,3.25 L7.52262213,3.25834408 C7.25612796,3.3022564 7.04645684,3.51474501 7.0067766,3.78264208 L7.0067766,3.78264208 L7,3.875 L7,7 L17,7 L17,3.875 L16.9916559,3.77262213 C16.9477436,3.50612796 16.735255,3.29645684 16.4673579,3.2567766 L16.4673579,3.2567766 L16.375,3.25 Z" id="Printer"></path>
                </g>
            </g>
        </g>
    </g>
</svg>
