<?xml version="1.0" encoding="UTF-8"?>
<svg width="24px" height="24px" viewBox="0 0 24 24" version="1.1" xmlns="http://www.w3.org/2000/svg" xmlns:xlink="http://www.w3.org/1999/xlink">
    <title>Icon/Essential/Home Filled</title>
    <g id="Icons" stroke="none" stroke-width="1" fill="none" fill-rule="evenodd">
        <g id="Overview" transform="translate(-1545.000000, -396.000000)" fill="currentColor">
            <g id="Icons" transform="translate(368.500000, 100.000000)">
                <g id="Icon/Essential/Home-Filled" transform="translate(1176.500000, 296.000000)">
                    <path d="M2.53220417,12.9882055 C2.24198695,12.9498021 2.06597522,12.740137 2.01656196,12.5033774 C2.00549371,12.4538732 2.00027517,12.4029935 2.00124709,12.3518993 L2.00994918,12.2623792 L2.00994918,12.2623792 L2.01803502,12.2229404 C2.0471142,12.0861662 2.12130656,11.9591505 2.24276151,11.8697642 L10.6763916,3.43722493 C11.3678712,2.74574537 12.4644105,2.70698517 13.2012555,3.32090107 L13.3273975,3.43601435 L21.8069252,11.9133229 C21.9254608,12.0211087 21.9876617,12.1610277 22.0008315,12.3042622 C22.010731,12.4050408 21.9956333,12.506081 21.9591691,12.5986708 C21.8846692,12.7922314 21.718507,12.9505005 21.4827401,12.9870434 L21.3775,12.995 L19.502,12.995 L19.5025,20.495 C19.5025,20.7739317 19.3197777,21.0101863 19.067501,21.090596 L18.9698579,21.1132234 L18.8775,21.12 L13.8775,21.12 C13.5637018,21.12 13.3039169,20.8887421 13.2592766,20.5873579 L13.2525,20.495 L13.2525,15.495 C13.2525,15.1815254 13.020948,14.9214757 12.7197777,14.8767846 L12.6275,14.87 L11.3775,14.87 C11.0640254,14.87 10.8039757,15.101552 10.7592846,15.4027223 L10.7525,15.495 L10.7525,20.495 C10.7525,20.8087982 10.5212421,21.0685831 10.2198579,21.1132234 L10.1275,21.12 L5.1275,21.12 C4.81370185,21.12 4.55391686,20.8887421 4.5092766,20.5873579 L4.5025,20.495 L4.502,12.995 L2.6275,12.995 L2.53220417,12.9882055 Z" id="Home"></path>
                </g>
            </g>
        </g>
    </g>
</svg>
