<?xml version="1.0" encoding="UTF-8"?>
<svg width="24px" height="24px" viewBox="0 0 24 24" version="1.1" xmlns="http://www.w3.org/2000/svg" xmlns:xlink="http://www.w3.org/1999/xlink">
    <title>Icon/Essential/Alert Triangle</title>
    <g id="Icon/Essential/Alert-Triangle" stroke="none" stroke-width="1" fill="none" fill-rule="evenodd" fill-opacity="0.84">
        <path d="M12,2.00019836 C12.8122069,2.00019836 13.5537209,2.46210623 13.9118821,3.19125913 L13.9118821,3.19125913 L21.8058936,19.27261 C22.0943425,19.8593907 22.0594696,20.5535 21.7136604,21.1084148 C21.3678514,21.6633294 20.7600979,22.0004336 20.1066667,22.0000007 L20.1066667,22.0000007 L3.89374768,22.0000007 C3.23990214,22.0004336 2.63214856,21.6633294 2.28633955,21.1084148 C1.94053045,20.5535 1.90565752,19.8593907 2.19395126,19.2729258 L2.19395126,19.2729258 L10.0881894,3.19111364 C10.4462791,2.46210623 11.1877931,2.00019836 12,2.00019836 Z M12,3.25019836 C11.6644403,3.25019836 11.3580871,3.44103353 11.2102154,3.74207421 L11.2102154,3.74207421 L3.31589361,19.8240567 C3.21796578,20.0232676 3.22980507,20.2589163 3.34720658,20.4473088 C3.4646081,20.6357013 3.67093943,20.7500006 3.89333333,20.7500006 L3.89333333,20.7500006 L20.107081,20.7500006 C20.3290606,20.7500006 20.5353919,20.6357013 20.6527934,20.4473088 C20.7701949,20.2589163 20.7820342,20.0232676 20.6839513,19.8237409 L20.6839513,19.8237409 L12.789856,3.74221969 C12.6419129,3.44103353 12.3355597,3.25019836 12,3.25019836 Z M12,17 L12.1093323,17.0063072 C12.5755873,17.060462 12.9375,17.4567164 12.9375,17.9375 C12.9375,18.455267 12.517767,18.875 12,18.875 C11.482233,18.875 11.0625,18.455267 11.0625,17.9375 C11.0625,17.4567164 11.4244127,17.060462 11.8906677,17.0063072 L12,17 Z M12,8.25 C12.3137982,8.25 12.5735831,8.48125788 12.6182234,8.78264208 L12.625,8.875 L12.625,15.125 C12.625,15.470178 12.345178,15.75 12,15.75 C11.6862018,15.75 11.4264169,15.5187421 11.3817766,15.2173579 L11.375,15.125 L11.375,8.875 C11.375,8.52982203 11.654822,8.25 12,8.25 Z" id="Alert-Triangle" fill="currentColor"></path>
    </g>
</svg>