<?xml version="1.0" encoding="UTF-8"?>
<svg width="24px" height="24px" viewBox="0 0 24 24" version="1.1" xmlns="http://www.w3.org/2000/svg" xmlns:xlink="http://www.w3.org/1999/xlink">
    <title>Icon/Essential/Avatar Remove</title>
    <g id="Icon/Essential/Avatar-Remove" stroke="none" stroke-width="1" fill="none" fill-rule="evenodd" fill-opacity="0.84">
        <path d="M16.375,10.7491667 C19.4816017,10.7491667 22,13.2675649 22,16.3741667 C22,19.4807684 19.4816017,21.9991667 16.375,21.9991667 C13.2683983,21.9991667 10.75,19.4807684 10.75,16.3741667 C10.75,13.2675649 13.2683983,10.7491667 16.375,10.7491667 Z M16.375,11.9991667 C13.9587542,11.9991667 12,13.9579209 12,16.3741667 C12,18.7904124 13.9587542,20.7491667 16.375,20.7491667 C18.7912458,20.7491667 20.75,18.7904124 20.75,16.3741667 C20.75,13.9579209 18.7912458,11.9991667 16.375,11.9991667 Z M14.8553819,13.9840723 L14.9419417,14.0563916 L16.3749998,15.4898333 L17.8080583,14.0563916 C18.0521359,13.8123139 18.4478641,13.8123139 18.6919417,14.0563916 C18.9088997,14.2733495 18.9330061,14.61013 18.7642611,14.8537152 L18.6919417,14.9402751 L17.2579998,16.3728333 L18.6919417,17.8063916 C18.9360194,18.0504693 18.9360194,18.4461974 18.6919417,18.6902751 C18.4749838,18.907233 18.1382033,18.9313394 17.8946181,18.7625944 L17.8080583,18.6902751 L16.3749998,17.2568333 L14.9419417,18.6902751 C14.6978641,18.9343528 14.3021359,18.9343528 14.0580583,18.6902751 C13.8411003,18.4733171 13.8169939,18.1365366 13.9857389,17.8929515 L14.0580583,17.8063916 L15.4909998,16.3728333 L14.0580583,14.9402751 C13.8139806,14.6961974 13.8139806,14.3004693 14.0580583,14.0563916 C14.2750162,13.8394337 14.6117967,13.8153272 14.8553819,13.9840723 Z M10.7033172,10.6275149 C11.0208727,10.7628157 11.1686193,11.1299283 11.0333185,11.4474839 C10.8980176,11.7650394 10.530905,11.912786 10.2133495,11.7774851 C8.66863928,11.1193306 6.89677198,11.2800281 5.49567334,12.2053495 C4.0945747,13.1306708 3.25114346,14.6971832 3.24999986,16.376259 C3.24976476,16.7214369 2.9697522,17.0010683 2.62457432,17.0008333 C2.27939643,17.0005981 1.99976505,16.7205855 2,16.3754076 C2.00142951,14.2767726 3.05561319,12.3188278 4.80681144,11.1622918 C6.55800969,10.0057558 8.77262244,9.80490396 10.7033172,10.6275149 Z M8.25,2.00083333 C10.3097052,2.00083333 12.0114,3.53365827 12.2765899,5.52081363 C12.2784442,5.53237823 12.2795156,5.54339262 12.2802912,5.55439745 C12.3017409,5.72072138 12.3125,5.8907709 12.3125,6.06333333 C12.3125,8.30699013 10.4936568,10.1258333 8.25,10.1258333 C6.0063432,10.1258333 4.1875,8.30699013 4.1875,6.06333333 C4.1875,5.32322968 4.3854099,4.62935035 4.73119394,4.03173111 C4.73220177,4.03113408 4.73287125,4.0298437 4.73354551,4.0285552 L4.74215034,4.01291179 C5.44726365,2.80920809 6.7542288,2.00083333 8.25,2.00083333 Z M5.52463677,5.36775084 L5.51727218,5.39548017 C5.46513674,5.60955095 5.4375,5.83321469 5.4375,6.06333333 C5.4375,7.61663419 6.69669914,8.87583333 8.25,8.87583333 C9.66398204,8.87583333 10.8342536,7.83238478 11.0328068,6.47349557 C10.4992244,6.61650416 9.94931421,6.68872176 9.39592822,6.68833627 C7.98644574,6.688549 6.62657201,6.21885844 5.52463677,5.36775084 Z M8.25,3.25083333 C7.44458474,3.25083333 6.7182421,3.58938345 6.20551595,4.13193978 L6.11298229,4.23637328 C7.02635844,5.00908184 8.18843273,5.43851807 9.39626967,5.43833488 C9.91681913,5.4386983 10.4333004,5.35912235 10.9278605,5.2032789 C10.5639078,4.06966109 9.50257763,3.25083333 8.25,3.25083333 Z" id="Avatar-Remove" fill="currentColor"></path>
    </g>
</svg>