<?xml version="1.0" encoding="UTF-8"?>
<svg width="24px" height="24px" viewBox="0 0 24 24" version="1.1" xmlns="http://www.w3.org/2000/svg" xmlns:xlink="http://www.w3.org/1999/xlink">
    <title>Icon/Social/Twitter</title>
    <g id="Icon/Social/Twitter" stroke="none" stroke-width="1" fill="none" fill-rule="evenodd" fill-opacity="0.84">
        <path d="M8.2896,20.1255876 C15.8368,20.1255876 19.9648,13.8727876 19.9648,8.45038761 C19.9648,8.27278761 19.9648,8.09598761 19.9528,7.91998761 C20.7558651,7.3391163 21.4490844,6.61989113 22,5.79598761 C21.2511032,6.12782903 20.4566634,6.34545053 19.6432,6.44158761 C20.4997952,5.92877326 21.1408988,5.1222052 21.4472,4.17198761 C20.641726,4.64995186 19.7605169,4.98679723 18.8416,5.16798761 C17.5696662,3.81550304 15.5485755,3.48447768 13.9116394,4.36053155 C12.2747034,5.23658543 11.42902,7.1018482 11.8488,8.91038761 C8.54951659,8.74498724 5.47558062,7.18664623 3.392,4.62318761 C2.30289821,6.49810339 2.85919031,8.8966752 4.6624,10.1007876 C4.00939296,10.0814337 3.3706235,9.90527815 2.8,9.58718761 C2.8,9.60398761 2.8,9.62158761 2.8,9.63918761 C2.80053451,11.592462 4.17740119,13.2748157 6.092,13.6615876 C5.48789568,13.8263397 4.85406447,13.850423 4.2392,13.7319876 C4.77675834,15.4035259 6.31725965,16.5486147 8.0728,16.5815876 C6.61978803,17.7235332 4.82484761,18.3434498 2.9768,18.3415876 C2.65032286,18.3409609 2.32416325,18.3211936 2,18.2823876 C3.87650876,19.4866089 6.05993072,20.1253612 8.2896,20.1223876" id="Twitter" fill="currentColor"></path>
    </g>
</svg>