<?xml version="1.0" encoding="UTF-8"?>
<svg width="24px" height="24px" viewBox="0 0 24 24" version="1.1" xmlns="http://www.w3.org/2000/svg" xmlns:xlink="http://www.w3.org/1999/xlink">
    <title>Icon/Essential/Login</title>
    <g id="Icon/Essential/Login" stroke="none" stroke-width="1" fill="none" fill-rule="evenodd" fill-opacity="0.84">
        <path d="M4.76083333,2.625 L15.0194481,2.62577498 C15.9712969,2.67322027 16.7166983,3.44297773 16.7506287,4.35491323 L16.75,8.25 C16.75,8.59517797 16.470178,8.875 16.125,8.875 C15.8112018,8.875 15.5514169,8.64374212 15.5067766,8.34235792 L15.5,8.25 L15.5006354,4.47182418 C15.5134213,4.1884946 15.3179646,3.94381051 15.0719824,3.88683514 L14.9883333,3.875 L4.79194952,3.87422495 C4.50895018,3.88833182 4.28415726,4.1059857 4.25302062,4.39951998 L4.25,4.5 L4.24936359,19.5281976 C4.23657383,19.8113941 4.43183915,20.0560135 4.67735139,20.1131154 L4.76083333,20.125 L14.9572186,20.125775 C15.2404848,20.1116555 15.4655468,19.8938924 15.4969067,19.6004438 L15.5,19.5 L15.5,15.75 C15.5,15.404822 15.779822,15.125 16.125,15.125 C16.4387982,15.125 16.6985831,15.3562579 16.7432234,15.6576421 L16.75,15.75 L16.7493646,19.4718242 C16.7923284,20.4238858 16.0966677,21.2388741 15.1412737,21.3614766 L14.9883333,21.375 L4.72928463,21.3742032 C3.77791446,21.3261187 3.03321448,20.5565119 2.99936397,19.6450152 L3.0006561,4.52863021 C2.95469902,3.52643639 3.72771428,2.67572261 4.76083333,2.625 Z M12.8169417,8.4363916 C13.0338997,8.65334953 13.0580061,8.99013004 12.8892611,9.23371521 L12.8169417,9.32027507 L10.758,11.378 L22.375,11.3783333 C22.720178,11.3783333 23,11.6581554 23,12.0033333 C23,12.3171315 22.7687421,12.5769165 22.4673579,12.6215567 L22.375,12.6283333 L10.758,12.628 L12.8169417,14.6863916 C13.0338997,14.9033495 13.0580061,15.24013 12.8892611,15.4837152 L12.8169417,15.5702751 C12.5999838,15.787233 12.2632033,15.8113394 12.0196181,15.6425944 L11.9330583,15.5702751 L8.79919357,12.43623 C8.78110802,12.417401 8.76419075,12.3974414 8.74855834,12.3764677 L8.80805826,12.4452751 C8.77894022,12.416157 8.75329591,12.3848807 8.73112534,12.351961 L8.70552129,12.3104403 L8.67056537,12.2380296 L8.64095637,12.144029 L8.625,12.0033333 L8.62912772,11.9311122 L8.64754462,11.8365742 L8.68147057,11.7433702 L8.73573895,11.6479515 L8.77533081,11.5967274 L11.9330583,8.4363916 C12.1771359,8.19231391 12.5728641,8.19231391 12.8169417,8.4363916 Z" id="Login" fill="currentColor"></path>
    </g>
</svg>