<?xml version="1.0" encoding="UTF-8"?>
<svg width="24px" height="24px" viewBox="0 0 24 24" version="1.1" xmlns="http://www.w3.org/2000/svg" xmlns:xlink="http://www.w3.org/1999/xlink">
    <title>Icon/Communication/Email Send</title>
    <g id="Icon/Communication/Email-Send" stroke="none" stroke-width="1" fill="none" fill-rule="evenodd" fill-opacity="0.84">
        <path d="M13.7908968,11.37991 C15.4877397,10.5023637 17.5219544,10.5441516 19.1866667,11.5052737 C20.9270477,12.5100832 21.9991667,14.3670477 21.9991667,16.3766666 C21.9991667,18.3862856 20.9270477,20.2432501 19.1866667,21.2480596 C17.4462856,22.2528691 15.3020477,22.2528691 13.5616667,21.2480596 C11.8212856,20.2432501 10.7491667,18.3862856 10.7491667,16.3766666 C10.7491667,14.3670477 11.8212856,12.5100832 13.5616667,11.5052737 L13.5616667,11.5052737 Z M18.5616667,12.5878055 C17.208037,11.806287 15.5402964,11.806287 14.1866667,12.5878055 C12.833037,13.3693239 11.9991667,14.8136297 11.9991667,16.3766666 C11.9991667,17.9397037 12.8330369,19.3840094 14.1866667,20.1655279 C15.5402964,20.9470464 17.208037,20.9470464 18.5616667,20.1655279 C19.9152964,19.3840094 20.7491667,17.9397037 20.7491667,16.3766666 C20.7491667,14.8136297 19.9152964,13.3693239 18.5616667,12.5878055 Z M17.3545485,13.9874056 L17.4411084,14.0597249 L19.3161084,15.9347249 L19.3161084,15.9347249 L19.3236286,15.9423744 C19.3393335,15.9586244 19.3541652,15.9757237 19.3680481,15.9935967 L19.3812851,16.0111899 L19.3812851,16.0111899 L19.3851667,16.0166667 C19.3899819,16.0235283 19.3915198,16.0257798 19.3930413,16.028039 C19.4011654,16.0401991 19.4089609,16.0527028 19.4163169,16.0654913 C19.4218235,16.0749605 19.4271419,16.0848156 19.4321764,16.0947774 L19.4378092,16.1062133 C19.4428484,16.116715 19.4475772,16.1273284 19.4519956,16.1380397 C19.4585283,16.1538089 19.4646629,16.1706601 19.47005,16.1876966 C19.4724572,16.1951773 19.4746246,16.202492 19.4766603,16.2098612 C19.479021,16.2186101 19.4812097,16.2272733 19.4832103,16.235971 C19.4889163,16.2604683 19.4931627,16.2858587 19.4958326,16.3117168 C19.4967191,16.3206089 19.4974106,16.3289615 19.4979347,16.3373226 C19.4987389,16.3497732 19.4991667,16.36317 19.4991667,16.3766667 L19.4982269,16.4110348 C19.4975857,16.4227486 19.4966165,16.4344477 19.4953193,16.4461173 C19.4944457,16.45396 19.4934443,16.4616536 19.4922997,16.4693299 L19.4908226,16.4790445 L19.4908226,16.4790445 L19.485416,16.5074018 C19.4828509,16.5194498 19.479927,16.5314367 19.4766442,16.5433454 C19.4742343,16.5520854 19.471645,16.56074 19.4688643,16.5693462 C19.4655793,16.5796131 19.4619801,16.5898104 19.4581278,16.5998825 C19.4561103,16.6051424 19.453873,16.6107694 19.4515507,16.6163694 C19.4483067,16.6241955 19.4448537,16.6320622 19.4412308,16.6398696 C19.4264369,16.6717428 19.4088438,16.7025777 19.3884277,16.7320485 C19.3605418,16.7711276 19.3350376,16.8006071 19.3070329,16.8275024 L17.4411084,18.6936084 C17.1970307,18.9376861 16.8013026,18.9376861 16.5572249,18.6936084 C16.340267,18.4766505 16.3161606,18.13987 16.4849056,17.8962848 L16.5572249,17.8097249 L17.3651667,17.0016667 L13.8741667,17.0016667 C13.5289887,17.0016667 13.2491667,16.7218446 13.2491667,16.3766667 C13.2491667,16.0628685 13.4804245,15.8030835 13.7818087,15.7584433 L13.8741667,15.7516667 L17.3661667,15.7516667 L16.5572249,14.9436084 C16.3131472,14.6995307 16.3131472,14.3038026 16.5572249,14.0597249 C16.7741829,13.842767 17.1109634,13.8186606 17.3545485,13.9874056 Z M18.8741667,2.00166667 C19.4569761,2.00166667 19.9776799,2.26757234 20.3215772,2.68468285 C20.326547,2.68992347 20.3314116,2.69601019 20.3361826,2.7022112 L20.3493886,2.71923576 C20.5715412,3.00198966 20.7141559,3.35019238 20.7435255,3.73013652 L20.7491667,3.87666667 L20.7491667,9.5 C20.7491667,9.84517797 20.4693446,10.125 20.1241667,10.125 C19.8103685,10.125 19.5505835,9.89374212 19.5059433,9.59235792 L19.4991667,9.5 L19.4991667,4.13366667 L13.4352711,8.80036288 C12.2751913,9.69286341 10.6804194,9.73343161 9.48080668,8.92205568 L9.3122112,8.80034929 L3.24916667,4.13566667 L3.24916667,13.8766667 C3.24916667,14.1904648 3.48042454,14.4502498 3.78180875,14.4948901 L3.87416667,14.5016667 L8.87416667,14.5016667 C9.21934464,14.5016667 9.49916667,14.7814887 9.49916667,15.1266667 C9.49916667,15.4404648 9.26790879,15.7002498 8.96652459,15.7448901 L8.87416667,15.7516667 L3.87416667,15.7516667 C2.8879439,15.7516667 2.07956042,14.9902462 2.00480785,14.0231968 L1.99916667,13.8766667 L1.99916667,3.87666667 C1.99916667,3.44074426 2.14792897,3.03956715 2.39745653,2.72113239 C2.40155691,2.71515106 2.40636472,2.70864823 2.41131738,2.7022112 L2.43362767,2.6763967 C2.74827382,2.29917515 3.20830354,2.0474521 3.72763652,2.00730785 L3.87416667,2.00166667 L18.8741667,2.00166667 Z M18.5961667,3.25166667 L4.15016667,3.25166667 L10.0744378,7.80963712 C10.7925433,8.36210733 11.7749243,8.39663672 12.5260497,7.91323648 L12.6730445,7.80965071 L18.5961667,3.25166667 Z" id="Email-Send" fill="currentColor"></path>
    </g>
</svg>