<?xml version="1.0" encoding="UTF-8"?>
<svg width="24px" height="24px" viewBox="0 0 24 24" version="1.1" xmlns="http://www.w3.org/2000/svg" xmlns:xlink="http://www.w3.org/1999/xlink">
    <title>Icon/Ecom/Delivery Truck</title>
    <g id="Icon/Ecom/Delivery-Truck" stroke="none" stroke-width="1" fill="none" fill-rule="evenodd" fill-opacity="0.84">
        <path d="M8.25,13.875 C9.63071187,13.875 10.75,14.9942881 10.75,16.375 C10.75,17.7557119 9.63071187,18.875 8.25,18.875 C6.86928813,18.875 5.75,17.7557119 5.75,16.375 C5.75,14.9942881 6.86928813,13.875 8.25,13.875 Z M18.25,13.875 C19.6307119,13.875 20.75,14.9942881 20.75,16.375 C20.75,17.7557119 19.6307119,18.875 18.25,18.875 C16.8692881,18.875 15.75,17.7557119 15.75,16.375 C15.75,14.9942881 16.8692881,13.875 18.25,13.875 Z M20.125,5.125 C21.1112228,5.125 21.9196062,5.88642049 21.9943588,6.85346985 L22,7 L22,13.25 C22,13.595178 21.720178,13.875 21.375,13.875 C21.0612018,13.875 20.8014169,13.6437421 20.7567766,13.3423579 L20.75,13.25 L20.75,7 C20.75,6.68620185 20.5187421,6.42641686 20.2173579,6.3817766 L20.125,6.375 L10.125,6.375 C9.81120185,6.375 9.55141686,6.60625788 9.5067766,6.90764208 L9.5,7 L9.5,12 C9.5,12.3137982 9.26874212,12.5735831 8.96735792,12.6182234 L8.875,12.625 L8.875,12.625 C8.56120185,12.625 8.30141686,12.3937421 8.2567766,12.0923579 L8.25,12 L8.25,7.625 L7,7.625 L7,10.75 C7,11.7362228 6.23857951,12.5446062 5.27153015,12.6193588 L5.125,12.625 L3.25,12.625 L3.25,15.75 C3.25,16.0637982 3.48125788,16.3235831 3.78264208,16.3682234 L3.875,16.375 L4.5,16.375 C4.84517797,16.375 5.125,16.654822 5.125,17 C5.125,17.3137982 4.89374212,17.5735831 4.59235792,17.6182234 L4.5,17.625 L3.875,17.625 C2.88877723,17.625 2.08039375,16.8635795 2.00564118,15.8965301 L2,15.75 L2,10.75 C2,8.40482027 3.84522781,6.49061659 6.1630273,6.38004508 L6.375,6.375 L8.35654459,6.37541459 C8.59828801,5.69094477 9.22615523,5.18879483 9.97846985,5.13064118 L10.125,5.125 L20.125,5.125 Z M8.25,15.125 C7.55964406,15.125 7,15.6846441 7,16.375 C7,17.0653559 7.55964406,17.625 8.25,17.625 C8.94035594,17.625 9.5,17.0653559 9.5,16.375 C9.5,15.6846441 8.94035594,15.125 8.25,15.125 Z M18.25,15.125 C17.5596441,15.125 17,15.6846441 17,16.375 C17,17.0653559 17.5596441,17.625 18.25,17.625 C18.9403559,17.625 19.5,17.0653559 19.5,16.375 C19.5,15.6846441 18.9403559,15.125 18.25,15.125 Z M14.5,16.375 C14.845178,16.375 15.125,16.654822 15.125,17 C15.125,17.3137982 14.8937421,17.5735831 14.5923579,17.6182234 L14.5,17.625 L12,17.625 C11.654822,17.625 11.375,17.345178 11.375,17 C11.375,16.6862018 11.6062579,16.4264169 11.9076421,16.3817766 L12,16.375 L14.5,16.375 Z M3.25494691,10.5726693 L3.25,10.75 L3.25,11.375 L5.125,11.375 C5.43879815,11.375 5.69858314,11.1437421 5.7432234,10.8423579 L5.75,10.75 L5.7498121,7.68754947 C4.37965409,7.96576487 3.33506686,9.14043698 3.25494691,10.5726693 Z" id="Delivery-Truck" fill="currentColor" transform="translate(12.000000, 12.000000) scale(-1, 1) translate(-12.000000, -12.000000) "></path>
    </g>
</svg>