<?xml version="1.0" encoding="UTF-8"?>
<svg width="24px" height="24px" viewBox="0 0 24 24" version="1.1" xmlns="http://www.w3.org/2000/svg" xmlns:xlink="http://www.w3.org/1999/xlink">
    <title>Icon/Ecom/Accounting Invoice Mail</title>
    <g id="Icon/Ecom/Accounting-Invoice-Mail" stroke="none" stroke-width="1" fill="none" fill-rule="evenodd" fill-opacity="0.84">
        <path d="M17,2 C17.9862228,2 18.7946062,2.76142049 18.8693588,3.72846985 L18.875,3.875 L18.875,11.439 L19.3483331,11.0644504 C19.6863585,10.7964041 20.1355452,10.7235734 20.5366925,10.8635982 L20.6684107,10.9181809 C21.1000846,11.126563 21.3745782,11.5634453 21.375,12.0433333 L21.375,12.0433333 L21.375,20.1266667 C21.375,21.1622006 20.5355339,22.0016667 19.5,22.0016667 L19.5,22.0016667 L4.5,22.0016667 C3.46446609,22.0016667 2.625,21.1622006 2.625,20.1266667 L2.625,20.1266667 L2.625,12.0427837 C2.62542176,11.5634453 2.8999154,11.126563 3.33158931,10.9181809 C3.76326323,10.7097988 4.27608307,10.7666212 4.65172316,11.064495 L4.65172316,11.064495 L5.125,11.44 L5.125,3.875 C5.125,2.88877723 5.88642049,2.08039375 6.85346985,2.00564118 L7,2 L17,2 Z M20.1250002,12.0438829 L13.9302083,16.9573583 C12.797234,17.8471916 11.202766,17.8471916 10.0674435,16.955505 L10.0674435,16.955505 L3.87499976,12.0438829 L3.87499976,20.1266667 C3.87499976,20.4718446 4.15482203,20.7516667 4.5,20.7516667 L4.5,20.7516667 L19.5,20.7516667 C19.845178,20.7516667 20.1250002,20.4718446 20.1250002,20.1266667 L20.1250002,20.1266667 L20.1250002,12.0438829 Z M17,3.25 L7,3.25 C6.68620185,3.25 6.42641686,3.48125788 6.3817766,3.78264208 L6.375,3.875 L6.375,12.432 L10.841875,15.9743083 C11.4763406,16.472615 12.3520136,16.5058354 13.0167311,16.0754765 L13.1557768,15.9761617 L17.625,12.431 L17.625,3.875 C17.625,3.56120185 17.3937421,3.30141686 17.0923579,3.2567766 L17,3.25 Z M15.75,5.125 C16.095178,5.125 16.375,5.40482203 16.375,5.75 C16.375,6.09517797 16.095178,6.375 15.75,6.375 C14.9337512,6.375 14.2393236,6.89657839 13.9818216,7.62463072 L15.75,7.625 C16.095178,7.625 16.375,7.90482203 16.375,8.25 C16.375,8.56379815 16.1437421,8.82358314 15.8423579,8.8682234 L15.75,8.875 L13.981903,8.8755993 C14.2239082,9.55955107 14.8515267,10.0612339 15.6034699,10.1193588 L15.75,10.125 C16.095178,10.125 16.375,10.404822 16.375,10.75 C16.375,11.095178 16.095178,11.375 15.75,11.375 C14.2385698,11.375 12.9777535,10.3019945 12.687752,8.87618456 L12,8.875 C11.654822,8.875 11.375,8.59517797 11.375,8.25 C11.375,7.93620185 11.6062579,7.67641686 11.9076421,7.6317766 L12,7.625 L12.6875495,7.6248121 C12.977166,6.19850552 14.2382177,5.125 15.75,5.125 Z M9.5,10.125 C9.84517797,10.125 10.125,10.404822 10.125,10.75 C10.125,11.0637982 9.89374212,11.3235831 9.59235792,11.3682234 L9.5,11.375 L8.25,11.375 C7.90482203,11.375 7.625,11.095178 7.625,10.75 C7.625,10.4362018 7.85625788,10.1764169 8.15764208,10.1317766 L8.25,10.125 L9.5,10.125 Z M9.5,7.625 C9.84517797,7.625 10.125,7.90482203 10.125,8.25 C10.125,8.56379815 9.89374212,8.82358314 9.59235792,8.8682234 L9.5,8.875 L8.25,8.875 C7.90482203,8.875 7.625,8.59517797 7.625,8.25 C7.625,7.93620185 7.85625788,7.67641686 8.15764208,7.6317766 L8.25,7.625 L9.5,7.625 Z M9.5,5.125 C9.84517797,5.125 10.125,5.40482203 10.125,5.75 C10.125,6.06379815 9.89374212,6.32358314 9.59235792,6.3682234 L9.5,6.375 L8.25,6.375 C7.90482203,6.375 7.625,6.09517797 7.625,5.75 C7.625,5.43620185 7.85625788,5.17641686 8.15764208,5.1317766 L8.25,5.125 L9.5,5.125 Z" id="Combined-Shape" fill="currentColor"></path>
    </g>
</svg>