<?xml version="1.0" encoding="UTF-8"?>
<svg width="24px" height="24px" viewBox="0 0 24 24" version="1.1" xmlns="http://www.w3.org/2000/svg" xmlns:xlink="http://www.w3.org/1999/xlink">
    <title>Icon/Essential/Avatar Check</title>
    <g id="Icon/Essential/Avatar-Check" stroke="none" stroke-width="1" fill="none" fill-rule="evenodd" fill-opacity="0.84">
        <path d="M16.375,10.75 C19.4816017,10.75 22,13.2683983 22,16.375 C22,19.4816017 19.4816017,22 16.375,22 C13.2683983,22 10.75,19.4816017 10.75,16.375 C10.75,13.2683983 13.2683983,10.75 16.375,10.75 Z M16.375,12 C13.9587542,12 12,13.9587542 12,16.375 C12,18.7912458 13.9587542,20.75 16.375,20.75 C18.7912458,20.75 20.75,18.7912458 20.75,16.375 C20.75,13.9587542 18.7912458,12 16.375,12 Z M18.978354,14.4216822 C19.2268744,14.6080885 19.2970445,14.9440492 19.1576042,15.2106789 L19.1033178,15.2966873 L16.6818282,18.5250608 C16.4642147,18.814133 16.1321552,18.994892 15.7712532,19.0207391 C15.4554639,19.0433553 15.1446301,18.9454306 14.8991076,18.748839 L14.7980583,18.6586084 L13.5480583,17.4086084 C13.3039806,17.1645307 13.3039806,16.7688026 13.5480583,16.5247249 C13.7650162,16.307767 14.1017967,16.2836606 14.3453819,16.4524056 L14.4319417,16.5247249 L15.6825155,17.774146 L18.1033488,14.546646 C18.310467,14.2705122 18.7022202,14.214564 18.978354,14.4216822 Z M10.7033172,10.6266815 C11.0208727,10.7619824 11.1686193,11.129095 11.0333185,11.4466505 C10.8980176,11.764206 10.530905,11.9119527 10.2133495,11.7766518 C8.66863928,11.1184973 6.89677198,11.2791948 5.49567334,12.2045161 C4.0945747,13.1298374 3.25114346,14.6963499 3.24999986,16.3754257 C3.24976476,16.7206036 2.9697522,17.000235 2.62457432,17 C2.27939643,16.9997648 1.99976505,16.7197522 2,16.3745743 C2.00142951,14.2759393 3.05561319,12.3179945 4.80681144,11.1614585 C6.55800969,10.0049224 8.77262244,9.80407062 10.7033172,10.6266815 Z M8.25,2 C10.4936568,2 12.3125,3.8188432 12.3125,6.0625 C12.3125,8.3061568 10.4936568,10.125 8.25,10.125 C6.0063432,10.125 4.1875,8.3061568 4.1875,6.0625 C4.1875,5.32239634 4.3854099,4.62851702 4.73119394,4.03089777 C4.73220177,4.03030075 4.73287125,4.02901036 4.73354551,4.02772186 L4.74215034,4.01207846 C5.44726365,2.80837476 6.7542288,2 8.25,2 Z M5.52463671,5.36691746 L5.51727218,5.39464683 C5.46513674,5.60871762 5.4375,5.83238135 5.4375,6.0625 C5.4375,7.61580086 6.69669914,8.875 8.25,8.875 C9.66398204,8.875 10.8342536,7.83155145 11.0328068,6.47266224 C10.5002166,6.61556249 9.94980135,6.68794195 9.39592806,6.68750379 C7.98644554,6.68771578 6.62657187,6.21802504 5.52463671,5.36691746 Z M8.25,3.25 C7.44458474,3.25 6.7182421,3.58855011 6.20551595,4.13110645 L6.11298239,4.23553993 C7.02635931,5.00824847 8.18844012,5.43768483 9.39632901,5.437502 C9.9169806,5.43791492 10.4335611,5.35825196 10.9281605,5.20219801 C10.5639078,4.06882776 9.50257763,3.25 8.25,3.25 Z" id="Avatar-Check" fill="currentColor"></path>
    </g>
</svg>