<?xml version="1.0" encoding="UTF-8"?>
<svg width="24px" height="24px" viewBox="0 0 24 24" version="1.1" xmlns="http://www.w3.org/2000/svg" xmlns:xlink="http://www.w3.org/1999/xlink">
    <title>Icon/Essential/Vertical Menu Filled</title>
    <g id="Icons" stroke="none" stroke-width="1" fill="none" fill-rule="evenodd">
        <g id="Overview" transform="translate(-453.000000, -504.000000)" fill="currentColor">
            <g id="Icons" transform="translate(368.500000, 100.000000)">
                <g id="Icon/Essential/Vertical-Menu-Filled" transform="translate(84.500000, 404.000000)">
                    <path d="M13.3954167,16.7543035 C14.2656072,17.2567082 14.8016667,18.1851905 14.8016667,19.19 C14.8016667,20.7433009 13.5424675,22.0025 11.9891667,22.0025 C10.4358658,22.0025 9.17666667,20.7433009 9.17666667,19.19 C9.17666667,18.1851905 9.71272612,17.2567082 10.5829166,16.7543035 C11.4531072,16.2518987 12.5252262,16.2518987 13.3954167,16.7543035 Z M13.3954167,9.5668035 C14.2656072,10.0692082 14.8016667,10.9976905 14.8016667,12.0025 C14.8016667,13.5558009 13.5424675,14.815 11.9891667,14.815 C10.4358658,14.815 9.17666667,13.5558009 9.17666667,12.0025 C9.17666667,10.9976905 9.71272612,10.0692082 10.5829166,9.5668035 C11.4531072,9.06439875 12.5252262,9.06439875 13.3954167,9.5668035 Z M13.3954167,2.3793035 C14.2656072,2.88170825 14.8016667,3.81019051 14.8016667,4.815 C14.8016667,6.36830086 13.5424675,7.6275 11.9891667,7.6275 C10.4358658,7.6275 9.17666667,6.36830086 9.17666667,4.815 C9.17666667,3.81019051 9.71272612,2.88170825 10.5829166,2.3793035 C11.4531072,1.87689875 12.5252262,1.87689875 13.3954167,2.3793035 Z" id="Vertical-Menu"></path>
                </g>
            </g>
        </g>
    </g>
</svg>
