<?xml version="1.0" encoding="UTF-8"?>
<svg width="24px" height="24px" viewBox="0 0 24 24" version="1.1" xmlns="http://www.w3.org/2000/svg" xmlns:xlink="http://www.w3.org/1999/xlink">
    <title>Icon/SBU/ZBM/Used</title>
    <g id="Icons" stroke="none" stroke-width="1" fill="none" fill-rule="evenodd">
        <g id="Overview" transform="translate(-621.000000, -874.000000)" fill="currentColor">
            <g id="Icons" transform="translate(368.500000, 100.000000)">
                <g id="Icon/SBU/ZBM/Used" transform="translate(252.500000, 774.000000)">
                    <path d="M7.97446578,12.9130863 C8.39101479,12.9130863 8.78994441,12.9950331 9.17108841,13.1590929 C9.54126185,13.3163377 9.86938146,13.5379098 10.1551148,13.8239756 C10.4411806,14.1098751 10.6639163,14.4378285 10.8233219,14.808002 C10.9852208,15.189146 11.0661703,15.5890729 11.0661703,16.0081152 C11.0661703,16.4225034 10.9852208,16.821433 10.8233219,17.2049041 C10.6639163,17.5749113 10.4411806,17.9030309 10.1551148,18.1889305 C9.86938146,18.4746638 9.54126185,18.6964022 9.17108841,18.8538132 C8.78994441,19.0177068 8.39101479,19.0996535 7.97446578,19.0996535 C7.55758433,19.0996535 7.15898716,19.0177068 6.77751071,18.8538132 C6.40733727,18.6964022 6.0795501,18.4746638 5.79348433,18.1889305 C5.50775099,17.9030309 5.28501528,17.5749113 5.12527722,17.2049041 C4.96371072,16.821433 4.88276125,16.4220047 4.88276125,16.006453 C4.88276125,15.5909013 4.96371072,15.1914731 5.12527722,14.808002 C5.28501528,14.4399894 5.50775099,14.1125347 5.79348433,13.8256378 C6.0795501,13.5385747 6.40733727,13.3163377 6.77751071,13.1590929 C7.15898716,12.9950331 7.55758433,12.9130863 7.97446578,12.9130863 Z M17.7016996,12.9130863 C18.1182486,12.9130863 18.5171782,12.9950331 18.8984885,13.1590929 C19.2684957,13.3163377 19.5966153,13.5379098 19.8825148,13.8239756 C20.1682482,14.1098751 20.3899866,14.4378285 20.5473975,14.808002 C20.7114573,15.189146 20.7934041,15.5890729 20.7934041,16.0081152 C20.7934041,16.4225034 20.7114573,16.821433 20.5473975,17.2049041 C20.3899866,17.5749113 20.1679157,17.9030309 19.8806864,18.1889305 C19.5937895,18.4746638 19.2663348,18.6964022 18.8984885,18.8538132 C18.5150174,19.0177068 18.1154229,19.0996535 17.6998712,19.0996535 C17.2843195,19.0996535 16.8850574,19.0177068 16.5014201,18.8538132 C16.1314129,18.6964022 15.8034595,18.4746638 15.5173937,18.1889305 C15.2316604,17.9030309 15.009922,17.5749113 14.852511,17.2049041 C14.6886175,16.821433 14.6065044,16.4220047 14.6065044,16.006453 C14.6065044,15.5909013 14.6886175,15.1914731 14.852511,14.808002 C15.009922,14.4399894 15.2316604,14.1125347 15.5173937,13.8256378 C15.8034595,13.5385747 16.1314129,13.3163377 16.5014201,13.1590929 C16.8850574,12.9950331 17.2849844,12.9130863 17.7016996,12.9130863 Z M11.4449872,13.7009723 L14.1977678,14.6849987 L14.1977678,17.5872116 L12.2363639,17.5872116 L12.2363639,16.8325698 L11.4449872,16.8325698 C11.4961832,16.5310455 11.5214487,16.2662559 11.5214487,16.0378687 C11.5214487,15.6854809 11.4750732,15.3487178 11.3819896,15.027247 C11.2932278,14.7127575 11.1625783,14.42237 10.9895426,14.1564169 L11.4449872,13.7009723 Z M17.6616404,14.6085372 C17.4136392,14.6085372 17.180764,14.6738619 16.9636798,14.8045113 C16.7530782,14.9286782 16.5845305,15.0970597 16.458369,15.3098222 C16.3298804,15.5270726 16.2653868,15.7592829 16.2653868,16.006453 C16.2653868,16.253457 16.3298804,16.4868308 16.458369,16.7062421 C16.5845305,16.9166774 16.7530782,17.085059 16.9636798,17.2115529 C17.180764,17.3400415 17.4136392,17.4043689 17.6616404,17.4043689 C17.9099741,17.4043689 18.142683,17.3400415 18.3599335,17.2115529 C18.5705351,17.085059 18.7387504,16.9166774 18.8652443,16.7062421 C18.9937329,16.4868308 19.0580603,16.2539556 19.0580603,16.0081152 C19.0580603,15.7597816 18.9937329,15.5270726 18.8652443,15.3098222 C18.7387504,15.0970597 18.5705351,14.9286782 18.3599335,14.8045113 C18.142683,14.6738619 17.9099741,14.6085372 17.6616404,14.6085372 Z M7.96931294,14.6085372 C7.72230902,14.6085372 7.48910142,14.6738619 7.26969013,14.8045113 C7.05892231,14.9286782 6.89087321,15.0970597 6.76421306,15.3098222 C6.6358907,15.5270726 6.57139708,15.7597816 6.57139708,16.0081152 C6.57139708,16.2562827 6.63306495,16.4873294 6.75606825,16.7012554 C6.87907154,16.9151815 7.04462734,17.085059 7.25306806,17.2115529 C7.47264557,17.3400415 7.71050735,17.4043689 7.96765074,17.4043689 C8.21598442,17.4020418 8.44885959,17.3367171 8.66594379,17.2080623 C8.87870625,17.0819008 9.04708779,16.9135192 9.17108841,16.7027514 C9.30190408,16.4856672 9.36722881,16.2539556 9.36722881,16.0081152 C9.36722881,15.7597816 9.30190408,15.5270726 9.17108841,15.3098222 C9.04708779,15.0970597 8.87870625,14.9286782 8.66594379,14.8045113 C8.44885959,14.6738619 8.2166493,14.6085372 7.96931294,14.6085372 Z M19.9290566,7.86330223 L20.0053519,8.31525624 L17.8546226,8.31525624 L17.8546226,10.2001987 L18.3832044,10.2001987 L18.3832044,9.784647 C18.3832044,9.68508082 18.3943411,9.59980961 18.4162823,9.52866716 C18.4407167,9.45120833 18.4807759,9.3858836 18.5361274,9.33252677 C18.5738595,9.25506793 18.6491574,9.2161723 18.7620213,9.2161723 L18.7620213,9.2161723 L21.1358187,9.2161723 C21.1866822,9.2161723 21.2343876,9.23063349 21.2787685,9.25955589 C21.3032029,9.27501441 21.3317929,9.29928263 21.3652032,9.33252677 C21.4160668,9.38355651 21.4549624,9.4533692 21.4813915,9.54196482 C21.5036651,9.617429 21.5148019,9.69837847 21.5148019,9.784647 L21.5148019,9.784647 L21.5148019,11.0313021 L22,11.0246532 L22,16.4534204 L21.2089558,16.4534204 L21.2089558,14.3823108 C20.9917054,13.9524642 20.7081329,13.573481 20.357906,13.2455276 C20.0010302,12.9130863 19.5999397,12.6569402 19.1543021,12.4774219 C18.6912113,12.2912548 18.2058469,12.1983374 17.6983752,12.1983374 C17.2527376,12.1983374 16.8228909,12.270311 16.4085028,12.4144243 C16.0050852,12.5538834 15.6315873,12.7589997 15.2881754,13.0294408 L15.2881754,13.0294408 L15.2881754,11.0680368 L16.4947713,7.86330223 L19.9290566,7.86330223 Z M21.0926013,6.27755701 L21.0926013,7.18179747 L16.0792196,7.18179747 L13.556156,13.8969465 L7.40250045,11.6895359 C7.67510235,11.5189935 7.92576313,11.320526 8.15398411,11.0946321 C8.3822051,10.868572 8.58283345,10.6204045 8.75553673,10.3499635 L8.75553673,10.3499635 L13.8121358,10.3499635 L14.1909528,9.33252677 L9.2409011,9.33252677 C9.34744855,9.01571016 9.41493414,8.67545644 9.44385654,8.31209805 L9.44385654,8.31209805 L14.4170129,8.31209805 L15.1749791,6.27755701 L21.0926013,6.27755701 Z M13.4396353,11.2907725 L9.40396358,11.2907725 L12.9511128,12.5738299 L13.4396353,11.2907725 Z M5.52327455,4.93116955 C5.89344799,4.98652104 6.23586258,5.10171196 6.55051832,5.27690855 L6.09174926,5.73567761 C5.87001088,5.63810608 5.65093203,5.57377868 5.43368161,5.54286163 C5.10124026,5.49415897 4.7742842,5.51177836 4.45297964,5.59605225 C4.14480651,5.67799904 3.8617327,5.81479865 3.60325955,6.00661731 C3.34528507,6.19826975 3.13318749,6.43048003 2.96696681,6.70291571 C2.79625818,6.9866544 2.68655254,7.29432887 2.63784988,7.62560667 C2.58914722,7.95688447 2.60560307,8.28317565 2.68754986,8.60464644 C2.76966288,8.91498044 2.90629627,9.19921779 3.09811493,9.45719227 C3.28976736,9.7154992 3.52314119,9.92659945 3.79807018,10.0906593 C4.08147643,10.2635288 4.38865224,10.3730682 4.71876649,10.4197762 C5.03342223,10.466318 5.3427589,10.4530203 5.64627785,10.379717 C5.94115333,10.3090732 6.21358901,10.1875659 6.46408357,10.01586 C6.7144119,9.844154 6.92617704,9.63405107 7.09921276,9.3858836 C7.276404,9.13106731 7.40040462,8.85181658 7.47154707,8.54813141 L7.08259069,8.55793843 L7.77057806,7.27488105 L8.53535938,8.51156286 L8.11299265,8.52818493 C8.04201642,8.92927541 7.89690577,9.29928263 7.6776607,9.63837281 C7.46705911,9.97081415 7.20276824,10.252392 6.88462187,10.4827738 C6.56680794,10.7133219 6.21707965,10.8763844 5.83593564,10.9716288 C5.44348863,11.071195 5.04472523,11.0913077 4.63898057,11.0313021 C4.22475865,10.9716288 3.84128756,10.8341643 3.48873351,10.619241 C3.1453216,10.4129611 2.85343809,10.1488365 2.61275056,9.82620217 C2.37222924,9.50390028 2.20118817,9.1486867 2.0992949,8.76089387 C1.99507454,8.35980339 1.97296719,7.95256273 2.03264041,7.5390057 C2.09247985,7.1257811 2.23011057,6.74181135 2.4450339,6.38726265 C2.65114753,6.04584539 2.91543841,5.75495921 3.23774029,5.51460412 C3.5602084,5.2740828 3.91525576,5.10287551 4.30321481,5.00098223 C4.70447152,4.89676187 5.11104728,4.87349098 5.52327455,4.93116955 Z M21.0560328,9.63172398 L18.7586969,9.63172398 L18.7586969,10.1636301 L20.3047154,10.1636301 L20.4576384,11.0313021 L21.0560328,11.0313021 L21.0560328,9.63172398 Z M17.2894723,8.3486666 L16.9503822,8.3486666 L16.2323088,10.1935499 L17.2894723,10.1935499 L17.2894723,8.3486666 Z M7.38477989,5.69246024 L7.81728608,6.13128281 L4.73538857,9.2130141 L3.34910816,7.82673369 L3.78809695,7.38774489 L4.73538857,8.33869336 L7.38477989,5.69246024 Z" id="Dumper-Truck"></path>
                </g>
            </g>
        </g>
    </g>
</svg>
