<?xml version="1.0" encoding="UTF-8"?>
<svg width="24px" height="24px" viewBox="0 0 24 24" version="1.1" xmlns="http://www.w3.org/2000/svg" xmlns:xlink="http://www.w3.org/1999/xlink">
    <title>Icon/Essential/View</title>
    <g id="Icon/Essential/View" stroke="none" stroke-width="1" fill="none" fill-rule="evenodd" fill-opacity="0.84">
        <path d="M12.005,5.75 L12.3033644,5.75211241 C15.4530617,5.82828388 18.9086464,7.82058861 21.4843857,10.6525381 C22.1733853,11.4174561 22.1733853,12.5792106 21.4825663,13.3461397 C18.9147837,16.1721015 15.4773404,18.1707463 12.3247804,18.2470616 L12.0105168,18.2482448 C8.75258823,18.3030734 5.17090126,16.2659262 2.51811429,13.3441286 C1.82911467,12.5792106 1.82911467,11.4174561 2.51989962,10.6505645 C5.0901744,7.82139902 8.54642139,5.82833086 11.6965894,5.75211436 L12.005,5.75 Z M12.0105418,7.00074442 L11.9894582,7.00074442 C9.17352838,6.95324176 5.88166489,8.8091149 3.44688571,11.4891286 C3.18619086,11.7785485 3.18619086,12.2181182 3.44522937,12.5057065 C5.87729234,15.1843906 9.15069648,17.0461965 12.0105168,16.9984218 C14.8492238,17.0461952 18.1231082,15.1846132 20.5556143,12.5075381 C20.8163091,12.2181182 20.8163091,11.7785485 20.557639,11.4913655 C18.1174166,8.8084228 14.8261323,6.95324749 12.0105418,7.00074442 Z M11.999,8.249 L12.2285987,8.25608508 C13.1400062,8.31151961 14.0029755,8.69817948 14.6522484,9.3476255 C15.3556272,10.0511919 15.7505306,11.0054725 15.7500001,12.0001668 C15.7494476,14.0711043 14.070271,15.7495347 11.9993335,15.7491667 C9.92839588,15.7487985 8.24981609,14.069771 8.25000013,11.9988334 C8.25017822,9.99470021 9.82249449,8.35787979 11.8008538,8.25436394 L11.999,8.249 Z M12.0001667,9.49916644 C10.619375,9.49916644 9.50012281,10.6183194 9.50000012,11.9989445 C9.49987743,13.3795696 10.6189306,14.4989212 11.9995557,14.4991664 C13.3801807,14.4994121 14.4996319,13.3804584 14.5000001,11.9996669 C14.500354,11.3364999 14.2371142,10.7003833 13.7682471,10.2313911 C13.2993798,9.76239889 12.6633336,9.49898964 12.0001667,9.49916644 Z" id="View" fill="currentColor"></path>
    </g>
</svg>