<?xml version="1.0" encoding="UTF-8"?>
<svg width="24px" height="24px" viewBox="0 0 24 24" version="1.1" xmlns="http://www.w3.org/2000/svg" xmlns:xlink="http://www.w3.org/1999/xlink">
    <title>Icon/Flag/AU</title>
    <defs>
        <rect id="path-1" x="2" y="4.5" width="20" height="15" rx="1"></rect>
    </defs>
    <g id="Icon/Flag/AU" stroke="none" stroke-width="1" fill="none" fill-rule="evenodd">
        <mask id="mask-2" fill="white">
            <use xlink:href="#path-1"></use>
        </mask>
        <g id="Mask"></g>
        <g id="Australia" mask="url(#mask-2)">
            <g transform="translate(2.000000, 4.500000)">
                <polygon id="#00008B" fill="#00008B" fill-rule="nonzero" points="0 0 20 0 20 15 0 15"></polygon>
                <path d="M9.36875,12.265625 L8.003125,12.384375 L8.190625,13.740625 L7.25,12.75 L6.309375,13.740625 L6.496875,12.384375 L5.13125,12.265625 L6.309375,11.56875 L5.55,10.428125 L6.83125,10.9125 L7.25,9.609375 L7.671875,10.9125 L8.953125,10.428125 L8.19375,11.56875 M15.20625,13.515625 L14.875,13.021875 L15.43125,13.23125 L15.6125,12.665625 L15.79375,13.23125 L16.35,13.021875 L16.021875,13.515625 L16.534375,13.81875 L15.940625,13.871875 L16.021875,14.4625 L15.615625,14.028125 L15.203125,14.4625 L15.284375,13.871875 L14.690625,13.821875 M15.203125,4.7 L14.875,4.20625 L15.43125,4.415625 L15.6125,3.85 L15.79375,4.415625 L16.35,4.20625 L16.021875,4.7 L16.534375,5.00625 L15.940625,5.05625 L16.021875,5.646875 L15.615625,5.215625 L15.203125,5.64375 L15.284375,5.05625 L14.690625,5.00625 M11.9,8.28125 L11.571875,7.7875 L12.128125,7.996875 L12.309375,7.43125 L12.49375,7.996875 L13.05,7.7875 L12.71875,8.28125 L13.23125,8.584375 L12.6375,8.6375 L12.721875,9.228125 L12.309375,8.79375 L11.903125,9.228125 L11.98125,8.6375 L11.3875,8.5875 M18.146875,7.4 L17.8125,6.90625 L18.36875,7.115625 L18.55,6.55 L18.734375,7.115625 L19.290625,6.90625 L18.9625,7.4 L19.471875,7.703125 L18.878125,7.75625 L18.959375,8.34375 L18.553125,7.9125 L18.140625,8.34375 L18.221875,7.75625 L17.628125,7.703125 M16.9375,10 L16.615625,10.203125 L16.70625,9.83125 L16.415625,9.5875 L16.79375,9.55625 L16.9375,9.20625 L17.084375,9.559375 L17.4625,9.5875 L17.171875,9.83125 L17.2625,10.203125" id="#FFFFFF" fill="#FFFFFF" fill-rule="evenodd"></path>
                <polygon id="00008B" fill="#00008B" fill-rule="nonzero" points="0 0 10 0 10 7.5 0 7.5"></polygon>
                <polygon id="#FFFFFF" fill="#FFFFFF" fill-rule="nonzero" points="1.171875 0 4.984375 2.828125 8.78125 0 10 0 10 0.96875 6.25 3.765625 10 6.546875 10 7.5 8.75 7.5 5 4.703125 1.265625 7.5 0 7.5 0 6.5625 3.734375 3.78125 0 1 0 0"></polygon>
                <path d="M6.625,4.390625 L10,6.875 L10,7.5 L5.765625,4.390625 L6.625,4.390625 Z M3.75,4.703125 L3.84375,5.25 L0.84375,7.5 L0,7.5 L3.75,4.703125 Z M10,0 L10,0.046875 L6.109375,2.984375 L6.140625,2.296875 L9.21875,0 L10,0 Z M0,0 L3.734375,2.75 L2.796875,2.75 L0,0.65625 L0,0 Z" id="#FF0000" fill="#FF0000" fill-rule="nonzero"></path>
                <path d="M3.765625,0 L3.765625,7.5 L6.265625,7.5 L6.265625,0 L3.765625,0 Z M0,2.5 L0,5 L10,5 L10,2.5 L0,2.5 Z" id="#FFFFFF" fill="#FFFFFF" fill-rule="nonzero"></path>
                <path d="M0,3.015625 L0,4.515625 L10,4.515625 L10,3.015625 L0,3.015625 Z M4.265625,0 L4.265625,7.5 L5.765625,7.5 L5.765625,0 L4.265625,0 Z" id="#FF0000" fill="#FF0000" fill-rule="nonzero"></path>
            </g>
        </g>
    </g>
</svg>