<?xml version="1.0" encoding="UTF-8"?>
<svg width="24px" height="24px" viewBox="0 0 24 24" version="1.1" xmlns="http://www.w3.org/2000/svg" xmlns:xlink="http://www.w3.org/1999/xlink">
    <title>Icon/SBU/Systems/Products</title>
    <g id="Icon/SBU/Systems/Products" stroke="none" stroke-width="1" fill="none" fill-rule="evenodd" fill-opacity="0.84">
        <path d="M13.4311725,4.68995043 L13.4311725,5.17467112 C13.7558178,5.26699887 14.0713182,5.38240856 14.3731011,5.52090018 C14.1490502,6.07025029 14.021021,6.67038066 14.021021,7.30282575 C14.021021,7.75061533 14.0850356,8.17993937 14.2039198,8.59079785 C13.4494624,7.99528387 12.5029613,7.63982203 11.4695833,7.63982203 C9.01873993,7.63982203 7.03428838,9.64333419 7.03428838,12.1177179 C7.03428838,14.5921016 9.01873993,16.5956137 11.4695833,16.5956137 C13.9204267,16.5956137 15.9048783,14.5921016 15.9048783,12.1177179 C15.9048783,11.702243 15.8500086,11.3052337 15.7448418,10.9220735 C16.5313065,11.5545186 17.5281048,11.9376788 18.6117799,11.9376788 C18.9409977,11.9376788 19.265643,11.9007477 19.5719984,11.8268855 L19.5719984,11.8268855 L19.5719984,14.3935969 L18.4700334,14.3935969 L17.0068433,17.4265635 L16.3072555,17.4265635 C15.0315367,18.6083587 13.3351507,19.3285151 11.4695833,19.3285151 C10.0155382,19.3285151 8.66208734,18.8899583 7.5326875,18.1374871 L7.5326875,18.1374871 L5.9689031,19.0422991 L6.30726581,19.6378131 L5.47964892,20.1179174 L2.10516679,14.1673939 L2.93278368,13.6872896 L3.39917552,14.5043902 L4.52857536,13.8534796 C4.39140129,13.2948967 4.31824179,12.7132319 4.31824179,12.1131015 L4.31824179,12.1131015 L4.31824179,12.0300065 L2.95107355,12.0300065 L2.95107355,12.7178483 L2,12.7178483 L2,5.85789647 L2.95107355,5.85789647 L2.95107355,6.79963951 L6.62733864,6.79963951 C7.43666565,6.04716835 8.41517402,5.48396908 9.50342164,5.17005473 L9.50342164,5.17005473 L9.50342164,4.68995043 L13.4311725,4.68995043 Z M11.4695833,10.1049729 C12.5715483,10.1049729 13.4631798,11.0051685 13.4631798,12.1177179 C13.4631798,13.2302673 12.5715483,14.1304628 11.4695833,14.1304628 C10.3676183,14.1304628 9.47598683,13.2302673 9.47598683,12.1177179 C9.47598683,11.0051685 10.3676183,10.1049729 11.4695833,10.1049729 Z M18.6117799,3.88208263 C20.4864922,3.88208263 22.0045519,5.41010688 21.9999897,7.30282575 C21.9999897,9.19092822 20.4819197,10.7235689 18.6117799,10.7235689 C16.7416401,10.7235689 15.2235804,9.19092822 15.2235804,7.30282575 C15.2235804,5.41472327 16.7416401,3.88208263 18.6117799,3.88208263 Z M18.6117799,4.54222604 C17.1028651,4.54222604 15.8774434,5.77941788 15.8774434,7.30282575 C15.8774434,8.82623361 17.1028651,10.0634255 18.6117799,10.0634255 C20.1206947,10.0634255 21.3461164,8.82623361 21.3461164,7.30282575 C21.3461164,5.77941788 20.1206947,4.54222604 18.6117799,4.54222604 Z M18.9227078,5.74248678 C18.96386,5.74248678 18.9958673,5.7701851 19.0004398,5.8071162 L19.0004398,5.8071162 L19.0553094,6.21797469 C19.1513312,6.25490579 19.2336357,6.31030244 19.3159401,6.37031548 L19.3159401,6.37031548 L19.7000275,6.2133583 C19.7366073,6.19950914 19.7777595,6.2133583 19.7960494,6.24567301 L19.7960494,6.24567301 L20.1024048,6.78579035 C20.1206947,6.82272145 20.1115497,6.86426894 20.0841149,6.88735087 L20.0841149,6.88735087 L19.7594696,7.14125218 C19.7640421,7.19664883 19.7686146,7.2474291 19.7686146,7.29820936 C19.7686146,7.34898962 19.7640421,7.39976988 19.7594696,7.45055014 L19.7594696,7.45055014 L20.0841149,7.70906784 C20.1115497,7.73214978 20.1206947,7.77831366 20.1024048,7.81062837 L20.1024048,7.81062837 L19.7960494,8.3507457 C19.7777595,8.38306041 19.7320348,8.39690958 19.7000275,8.38306041 L19.7000275,8.38306041 L19.3159401,8.22610324 C19.2336357,8.28611628 19.1513312,8.33689654 19.0553094,8.37844403 L19.0553094,8.37844403 L19.0004398,8.78930251 C18.9958673,8.82623361 18.9592876,8.85393194 18.9227078,8.85393194 L18.9227078,8.85393194 L18.3054245,8.85393194 C18.2642723,8.85393194 18.232265,8.82623361 18.2276925,8.78930251 L18.2276925,8.78930251 L18.1728229,8.37844403 C18.076801,8.34151293 17.9944966,8.28611628 17.9121921,8.22610324 L17.9121921,8.22610324 L17.5281048,8.38306041 C17.491525,8.39690958 17.4503728,8.38306041 17.4320829,8.3507457 L17.4320829,8.3507457 L17.1257275,7.81062837 C17.1074376,7.77369727 17.1165825,7.73214978 17.1440174,7.70906784 L17.1440174,7.70906784 L17.4686627,7.45055014 C17.4640902,7.39976988 17.4595177,7.34898962 17.4595177,7.29820936 C17.4595177,7.2474291 17.4640902,7.19203245 17.4686627,7.14125218 L17.4686627,7.14125218 L17.1440174,6.88735087 C17.1165825,6.86426894 17.1074376,6.81810506 17.1257275,6.78579035 L17.1257275,6.78579035 L17.4320829,6.24567301 C17.4503728,6.2133583 17.4960975,6.19950914 17.5281048,6.2133583 L17.5281048,6.2133583 L17.9121921,6.37031548 C17.9944966,6.31030244 18.076801,6.25490579 18.1728229,6.21797469 L18.1728229,6.21797469 L18.2276925,5.8071162 C18.232265,5.7701851 18.2688447,5.74248678 18.3054245,5.74248678 L18.3054245,5.74248678 Z M18.6117799,6.75347564 C18.3145694,6.75347564 18.0722286,6.99814417 18.0722286,7.29820936 C18.0722286,7.59827454 18.3145694,7.84294308 18.6117799,7.84294308 C18.9089904,7.84294308 19.1513312,7.59827454 19.1513312,7.29820936 C19.1513312,6.99814417 18.9089904,6.75347564 18.6117799,6.75347564 Z" id="Turbocharger" fill="currentColor"></path>
    </g>
</svg>