<?xml version="1.0" encoding="UTF-8"?>
<svg width="24px" height="24px" viewBox="0 0 24 24" version="1.1" xmlns="http://www.w3.org/2000/svg" xmlns:xlink="http://www.w3.org/1999/xlink">
    <title>Icon/Communication/Phone</title>
    <g id="Icons" stroke="none" stroke-width="1" fill="none" fill-rule="evenodd">
        <g id="Overview" transform="translate(-453.000000, -248.000000)" fill="currentColor">
            <g id="Icons" transform="translate(368.500000, 100.000000)">
                <g id="Icon/Communication/Phone" transform="translate(84.500000, 148.000000)">
                    <path d="M4.17916892,2.64111444 C5.02378307,1.79755932 6.39205026,1.79755932 7.23721262,2.64166264 L7.23721262,2.64166264 L9.95333619,5.36111955 C10.3591467,5.76643064 10.5871707,6.31645029 10.5871707,6.89 C10.5871707,7.46354971 10.3591467,8.01356936 9.97557926,8.39548657 L9.97557926,8.39548657 L9.89077156,8.48822609 C9.59716168,8.84861185 9.62237433,9.37724151 9.95365075,9.70893394 L9.95365075,9.70893394 L14.3022138,14.0583305 C14.4730603,14.2293875 14.7049043,14.3255041 14.9466667,14.3255041 C15.188429,14.3255041 15.420273,14.2293875 15.6145134,14.0360874 L15.6145134,14.0360874 L15.7553626,13.9100114 C16.611405,13.2125852 17.8626601,13.272263 18.6493062,14.0579227 L18.6493062,14.0579227 L21.3672189,16.7741689 C22.210774,17.6187831 22.210774,18.9870503 21.3669417,19.8319417 L21.3669417,19.8319417 L20.7219492,20.4769342 C18.9864043,22.2125381 16.2781431,22.5095656 14.2284139,21.2040285 L14.2284139,21.2040285 L14.18336,21.1761592 C9.70963954,18.1525893 5.85716552,14.2992539 2.83246857,9.82168762 L2.83246857,9.82168762 L2.69213476,9.59129619 C1.52275029,7.55024126 1.85652337,4.96415153 3.5338916,3.2863916 L3.5338916,3.2863916 Z M6.35333559,3.52555223 C5.99674965,3.16941339 5.41908369,3.16941339 5.06277507,3.52527507 L5.06277507,3.52527507 L4.41782667,4.17022347 C3.0967897,5.49156894 2.87040183,7.55301611 3.86586477,9.11831238 L3.86586477,9.11831238 L4.25355975,9.68207381 C7.12967918,13.7907136 10.729213,17.3330297 14.8482527,20.1184715 L14.8482527,20.1184715 L15.0629414,20.2472856 C16.6126528,21.1214143 18.5676646,20.863495 19.8380583,19.5930583 L19.8380583,19.5930583 L20.4827811,18.9483356 C20.8389199,18.5917496 20.8389199,18.0140837 20.4831938,17.6579106 L20.4831938,17.6579106 L17.7658356,14.9422189 C17.4339082,14.6107077 16.9052785,14.585495 16.5689476,14.8584707 L16.5689476,14.8584707 L16.3352501,15.0702861 C15.9477189,15.395337 15.4564886,15.5755041 14.9466667,15.5755041 C14.373117,15.5755041 13.8230973,15.3474801 13.4180159,14.9418994 L13.4180159,14.9418994 L9.06944777,10.5924977 C8.28392966,9.80599345 8.22425185,8.5547383 8.94231223,7.67464112 L8.94231223,7.67464112 L9.14918258,7.44418298 C9.27042313,7.28604953 9.33717075,7.09146864 9.33717075,6.89 C9.33717075,6.64823763 9.24105418,6.41639363 9.06945405,6.24500402 L9.06945405,6.24500402 Z" id="Phone"></path>
                </g>
            </g>
        </g>
    </g>
</svg>
