<?xml version="1.0" encoding="UTF-8"?>
<svg width="24px" height="24px" viewBox="0 0 24 24" version="1.1" xmlns="http://www.w3.org/2000/svg" xmlns:xlink="http://www.w3.org/1999/xlink">
    <title>Icon/Essential/Shrink</title>
    <g id="Icon/Essential/Shrink" stroke="none" stroke-width="1" fill="none" fill-rule="evenodd" fill-opacity="0.84">
        <path d="M4.5,13.2483333 L10.125,13.2483333 L10.1915057,13.25183 L10.2926935,13.2711364 L10.3268846,13.2816646 L10.385085,13.3048328 L10.4316868,13.3286672 L10.4930414,13.368078 L10.5669417,13.4313916 C10.597169,13.4616188 10.6236527,13.4941719 10.6463931,13.5284747 L10.6935995,13.6134504 L10.7337771,13.7314838 L10.7432234,13.7809754 L10.75,13.8733333 L10.75,19.4983333 C10.75,19.8435113 10.470178,20.1233333 10.125,20.1233333 C9.81120185,20.1233333 9.55141686,19.8920755 9.5067766,19.5906913 L9.5,19.4983333 L9.5,15.381 L3.06694174,21.8152751 C2.82286406,22.0593528 2.42713594,22.0593528 2.18305826,21.8152751 C1.96610032,21.5983171 1.94199388,21.2615366 2.11073895,21.0179515 L2.18305826,20.9313916 L8.616,14.498 L4.5,14.4983333 C4.18620185,14.4983333 3.92641686,14.2670755 3.8817766,13.9656913 L3.875,13.8733333 C3.875,13.5595352 4.10625788,13.2997502 4.40764208,13.2551099 L4.5,13.2483333 Z M21.8169417,2.1813916 C22.0338997,2.39834953 22.0580061,2.73513004 21.8892611,2.97871521 L21.8169417,3.06527507 L15.383,9.498 L19.5,9.49833333 C19.8137982,9.49833333 20.0735831,9.72959121 20.1182234,10.0309754 L20.125,10.1233333 C20.125,10.4371315 19.8937421,10.6969165 19.5923579,10.7415567 L19.5,10.7483333 L13.825024,10.7463443 L13.7379805,10.7332672 L13.7083212,10.7258109 C13.6645196,10.7137448 13.6226963,10.6970409 13.5833748,10.676265 L13.5069586,10.6285887 L13.4241936,10.55623 C13.406108,10.537401 13.3891908,10.5174414 13.3735583,10.4964677 L13.4330583,10.5652751 C13.4039402,10.536157 13.3782959,10.5048807 13.3561253,10.471961 L13.3305213,10.4304403 L13.2955654,10.3580296 L13.2659564,10.264029 L13.251937,10.1726523 L13.25,4.49833333 C13.25,4.15315536 13.529822,3.87333333 13.875,3.87333333 C14.1887982,3.87333333 14.4485831,4.10459121 14.4932234,4.40597541 L14.5,4.49833333 L14.5,8.614 L20.9330583,2.1813916 C21.1771359,1.93731391 21.5728641,1.93731391 21.8169417,2.1813916 Z" id="Shrink" fill="currentColor"></path>
    </g>
</svg>