<svg width="24" height="24" viewBox="0 0 24 24" xmlns="http://www.w3.org/2000/svg"><title>Icon/SBU/New/Aviation 1</title><path d="M18.23 6.67c.8-.02 1.5.24 1.7.83.31.9-.54 2.03-1.8 2.52l-2.94 1.18a.8.8 0 00-.45.48l-1.83 5a.8.8 0 01-.63.52l-2.04.3a.2.2 0 01-.22-.18v-.06l.74-4.64-4.1 1.55-.06.01-.07.01a.39.39 0 01-.3-.13l-2.12-2.4a.42.42 0 01.02-.57l.03-.03 1.16-.9a.39.39 0 01.2-.07h.06c.05 0 .1 0 .13.03l1.74.79.15.03h.08l.08-.02 1.82-.76 7.4-3.25c.35-.13.74-.21 1.11-.24h.14zm-.84.97l-.05.02-9.1 4a.2.2 0 00-.12.21l.02.06a.2.2 0 00.21.12l.05-.02 9.1-4a.2.2 0 00.1-.27.2.2 0 00-.21-.12zM8.6 6.54L13 8.22 9.43 9.78l-.15.06-2.6-2.69a.21.21 0 010-.29.2.2 0 01.1-.05l1.4-.3a.76.76 0 01.43.04z" fill="currentColor" fill-rule="evenodd" fill-opacity=".84"/></svg>