<svg width="24" height="24" viewBox="0 0 24 24" xmlns="http://www.w3.org/2000/svg"><title>Icon/Essential/Avatar Check</title><path d="M16.38 10.75a5.63 5.63 0 110 11.25 5.63 5.63 0 010-11.25zm0 1.25a4.37 4.37 0 100 8.75 4.37 4.37 0 000-8.75zm2.6 2.42c.25.19.32.52.18.8l-.06.08-2.42 3.23a1.25 1.25 0 01-1.78.22l-.1-.1-1.25-1.24a.62.62 0 01.8-.96l.08.07 1.25 1.25 2.42-3.22c.21-.28.6-.34.88-.13zm-8.28-3.8a.63.63 0 01-.49 1.16 5 5 0 00-6.96 4.6.63.63 0 01-1.25 0 6.25 6.25 0 018.7-5.75zM8.25 2a4.06 4.06 0 11-3.52 2.03L4.74 4A4.06 4.06 0 018.25 2zM5.52 5.37v.02a2.82 2.82 0 105.51 1.08 6.3 6.3 0 01-5.5-1.1zm2.73-2.12c-.8 0-1.53.34-2.04.88l-.1.1a5.08 5.08 0 004.82.97 2.81 2.81 0 00-2.68-1.95z" fill="currentColor" fill-rule="evenodd" fill-opacity=".84"/></svg>