<svg width="24" height="24" viewBox="0 0 24 24" xmlns="http://www.w3.org/2000/svg"><title>Icon/Essential/Configurator</title><path d="M16.38 9.5l.15.01c.7.06 1.3.55 1.5 1.23l.38 1.2c.03.11.13.17.24.15l1.23-.29a1.74 1.74 0 011.66 2.89l-.86.92a.2.2 0 000 .29l.86.93a1.74 1.74 0 01-1.66 2.88l-1.23-.28a.2.2 0 00-.24.14l-.37 1.2a1.73 1.73 0 01-3.32 0l-.37-1.2a.2.2 0 00-.23-.14l-1.23.28a1.74 1.74 0 01-1.67-2.88l.86-.93a.2.2 0 000-.28l-.85-.93a1.74 1.74 0 011.66-2.89l1.22.29c.1.02.21-.04.24-.14l.37-1.21c.22-.73.9-1.23 1.66-1.23zm0 1.26h-.09a.48.48 0 00-.37.34l-.37 1.21a1.45 1.45 0 01-1.72 1l-1.23-.29a.49.49 0 00-.46.82l.86.93c.52.55.52 1.42 0 1.98l-.86.93a.49.49 0 00.47.81l1.22-.28c.75-.17 1.5.26 1.72 1l.37 1.2a.48.48 0 00.93 0l.36-1.2c.23-.74.98-1.17 1.72-1l1.22.28a.5.5 0 00.47-.81l-.86-.93a1.46 1.46 0 010-1.99l.86-.92a.5.5 0 00-.46-.82l-1.23.29c-.75.17-1.5-.27-1.72-1l-.37-1.21a.48.48 0 00-.46-.34zM18.88 2c.99 0 1.8.77 1.87 1.73v5.15a.62.62 0 01-1.24.1V7H3.24v10.63c0 .31.24.57.54.62h5.09a.62.62 0 01.1 1.25h-5.1c-.99 0-1.8-.76-1.87-1.72V3.88c0-.99.76-1.8 1.72-1.87h15.15zm-2.5 11.88a1.88 1.88 0 110 3.75 1.88 1.88 0 010-3.75zm0 1.25a.62.62 0 100 1.25.62.62 0 000-1.25zm2.5-11.88h-15a.63.63 0 00-.62.54v1.97H19.5V3.88a.63.63 0 00-.54-.62h-.09z" fill="currentColor" fill-rule="evenodd" fill-opacity=".84"/></svg>