<svg width="24" height="24" viewBox="0 0 24 24" xmlns="http://www.w3.org/2000/svg"><title>Icon/Social/WhatsApp</title><path d="M12.04 2a9.85 9.85 0 017.01 2.9 9.93 9.93 0 01-6.73 16.92h-.28a9.91 9.91 0 01-4.4-1.02l-.34-.18L2.05 22l1.4-5.14A9.92 9.92 0 0112.04 2zm0 1.67A8.25 8.25 0 004.9 16.01l.17.28.2.32-.83 3.04 3.11-.82.3.18c1.17.69 2.5 1.08 3.86 1.14h.34a8.25 8.25 0 000-16.48zm-3.5 3.66l.47.01c.15.01.35-.06.55.43.21.5.7 1.71.77 1.84.06.12.1.26.02.43-.08.16-.13.27-.25.41-.12.15-.26.33-.37.44-.12.12-.25.25-.1.5.14.25.63 1.06 1.37 1.72.94.84 1.74 1.1 1.99 1.23.25.12.4.1.54-.07.14-.16.62-.72.78-.97.17-.24.33-.2.56-.12.19.07 1.1.5 1.51.72l.18.09c.25.12.41.18.47.28.07.1.07.6-.14 1.18-.2.58-1.2 1.1-1.67 1.18a3.4 3.4 0 01-1.56-.1c-.36-.11-.82-.27-1.41-.52-2.49-1.07-4.1-3.57-4.23-3.74C7.89 12.11 7 10.93 7 9.71s.64-1.82.86-2.07c.23-.24.5-.3.66-.3z" fill="#000" fill-rule="evenodd" fill-opacity=".84"/></svg>