<svg width="24" height="24" viewBox="0 0 24 24" xmlns="http://www.w3.org/2000/svg"><title>Icon/Essential/View</title><path d="M12 5.75h.3c3.15.08 6.6 2.07 9.18 4.9.7.77.7 1.93 0 2.7-2.57 2.82-6 4.82-9.16 4.9h-.3c-3.27.05-6.85-1.98-9.5-4.9a2.01 2.01 0 010-2.7c2.57-2.83 6.03-4.82 9.18-4.9h.3zM12.02 7H12c-2.82-.05-6.1 1.8-8.54 4.49a.76.76 0 000 1.02C5.88 15.18 9.15 17.05 12 17c2.84.05 6.11-1.82 8.55-4.5a.76.76 0 000-1C18.12 8.8 14.83 6.94 12 7zM12 8.25h.23a3.75 3.75 0 11-.43 0h.2zm0 1.25a2.5 2.5 0 100 5 2.5 2.5 0 000-5z" fill="currentColor" fill-rule="evenodd"/></svg>