<svg width="24" height="24" viewBox="0 0 24 24" xmlns="http://www.w3.org/2000/svg"><title>Icon/Essential/Low Speed</title><path d="M8.7 4.88A6.76 6.76 0 002 11.7a5.52 5.52 0 002.26 4.54c-.38.32-.76.76-1.14 1.29-.27.37-.52.77-.75 1.17l-.2.37-.1.17c-.18.39.07.84.48.9H15.76c4.25 0 6.25-2.72 6.25-6.87 0-1.3-.5-2.28-1.3-2.82l.66-2.65a.63.63 0 00-1.18-.4l-.03.1-.63 2.51a3.34 3.34 0 00-.66-.02l-.63-2.5a.63.63 0 00-.65-.47l-.1.02c-.3.08-.5.36-.47.66l.01.1.62 2.48c-.37.16-.7.38-.99.66A8.36 8.36 0 008.7 4.88zm0 1.24a7.16 7.16 0 017.03 6.73l-.01.31a7.1 7.1 0 01-.37 2.47.62.62 0 101.18.41c.36-1.02.5-2.1.46-3.15a1.97 1.97 0 011.56-1.59 2.2 2.2 0 011.14.04l.04.02.07.03c.6.26.96.9.96 1.9 0 3.43-1.46 5.51-4.75 5.61H3.71l.19-.29.24-.35a4.23 4.23 0 011.35-1.33c.63.25 1.3.39 2 .4a4.57 4.57 0 004.53-4.6A3.79 3.79 0 008.26 8.9a3.15 3.15 0 00-3.12 3.18.62.62 0 101.25-.01c-.01-1.05.83-1.91 1.87-1.92a2.54 2.54 0 012.5 2.56 3.32 3.32 0 01-3.27 3.36 4.27 4.27 0 01-4.23-4.37 5.5 5.5 0 015.43-5.59z" fill="currentColor" fill-rule="evenodd" fill-opacity=".84"/></svg>