<svg width="24" height="24" viewBox="0 0 24 24" xmlns="http://www.w3.org/2000/svg"><title>Icon/Essential/Dashboard</title><path d="M12 2a10 10 0 110 20 10 10 0 010-20zM5.07 17.24l-.06.04a8.74 8.74 0 0013.98 0 12.5 12.5 0 00-13.92-.04zM12 3.26a8.75 8.75 0 00-7.67 12.96 13.72 13.72 0 014.56-1.98 3.12 3.12 0 012.65-2.83l1.74-5.23a.62.62 0 011.21.3l-.02.1-1.64 4.91a3.13 3.13 0 012.28 2.75c1.6.37 3.15 1.03 4.56 1.98A8.75 8.75 0 0012 3.26zm0 9.37c-.86 0-1.59.58-1.8 1.37 1.2-.16 2.4-.16 3.6 0a1.87 1.87 0 00-1.8-1.37zm5.94-1.87h.1a.94.94 0 11-.21 0h.1zm-11.88 0h.11a.94.94 0 11-.22 0h.11zm1.25-3.13h.11a.94.94 0 11-.22 0h.11zm9.38 0h.1c.44.06.78.4.83.83v.1a.94.94 0 11-1.05-.92h.12zM9.8 5.13h.11a.94.94 0 11-.22 0h.11z" fill="currentColor" fill-rule="evenodd" fill-opacity=".84"/></svg>