<svg width="24" height="24" viewBox="0 0 24 24" xmlns="http://www.w3.org/2000/svg" xmlns:xlink="http://www.w3.org/1999/xlink"><title>Icon/Flag/CN</title><defs><rect id="a" x="2" y="4.5" width="20" height="15" rx="1"/></defs><g fill="none" fill-rule="evenodd"><mask id="b" fill="#fff"><use xlink:href="#a"/></mask><g mask="url(#b)" fill-rule="nonzero"><path fill="#DE2910" d="M2 4.5h20v15H2z"/><path d="M4.4 10.05L5.75 6l1.35 4.05-3.6-2.47H8l-3.6 2.47zm5.86-3.97l-1.4.3.93-1.07-.09 1.45-.77-1.29 1.33.6zm1.4 1.77l-1.4-.25 1.27-.64-.65 1.3-.2-1.48.98 1.07zm-.2 2.5l-1.18-.8 1.42-.07-1.12.93.41-1.44.46 1.38zm-1.77 1.63l-.78-1.2 1.34.5-1.4.41.94-1.17-.1 1.46z" fill="#FFDE00"/></g></g></svg>