<svg width="24" height="24" viewBox="0 0 24 24" xmlns="http://www.w3.org/2000/svg"><title>Icon/Ecom/Cart</title><path d="M8.56 19.69h.11a.94.94 0 11-.1 0zm6.25 0h.11a.94.94 0 11-.1 0zM20.75 2.8a.62.62 0 01.1 1.25H19.92c-.27 0-.5.18-.6.43l-.02.1-2.2 12.91a1.88 1.88 0 01-1.68 1.56H7a.62.62 0 01-.1-1.24h8.37c.27 0 .5-.18.59-.43l.02-.1.34-1.98H6.9c-1.37 0-2.57-.89-2.98-2.19l-.05-.17-1.2-4.84a1.25 1.25 0 011.06-1.54l.15-.01H17.7l.37-2.18c.15-.85.85-1.49 1.69-1.56h.98zm-3.25 5H3.87l1.21 4.83c.2.78.87 1.35 1.66 1.42h9.69l1.07-6.25z" fill="currentColor" fill-rule="evenodd"/></svg>