<svg width="24" height="24" viewBox="0 0 24 24" xmlns="http://www.w3.org/2000/svg"><title>Icon/Essential/Vertical Menu</title><path d="M13.4 16.75a2.81 2.81 0 11-2.82 4.88 2.81 2.81 0 012.82-4.88zm-2.2 1.09a1.56 1.56 0 101.7.08l-.13-.08a1.56 1.56 0 00-1.56 0zm2.2-8.27a2.81 2.81 0 11-2.82 4.87 2.81 2.81 0 012.82-4.87zm-2.2 1.08a1.56 1.56 0 101.57 2.7 1.56 1.56 0 00-1.56-2.7zm2.2-8.27a2.81 2.81 0 11-2.82 4.87 2.81 2.81 0 012.82-4.87zm-2.2 1.08a1.56 1.56 0 101.7.08l-.13-.08a1.56 1.56 0 00-1.56 0z" fill="#000" fill-rule="evenodd" fill-opacity=".84"/></svg>