<svg width="24" height="24" viewBox="0 0 24 24" xmlns="http://www.w3.org/2000/svg"><title>Icon/Essential/Star Filled</title><path d="M11.85 2.01a1.3 1.3 0 00-1.01.7L8.2 7.94l-5.03.5c-.5.04-.93.37-1.1.85l-.04.13c-.11.44.02.9.35 1.23l4.16 4.12L5 20.36c-.13.5.04 1.02.44 1.35l.11.08c.39.25.88.28 1.3.07L12 19.31l5.16 2.56c.46.22 1 .16 1.4-.16l.1-.1c.33-.32.46-.8.34-1.24l-1.54-5.6 4.16-4.13c.36-.35.48-.88.3-1.36l-.05-.12c-.2-.41-.6-.69-1.06-.73l-5.01-.5-2.63-5.21A1.3 1.3 0 0012 2l-.15.01z" fill="#000" fill-rule="evenodd" fill-opacity=".84"/></svg>