<svg width="24" height="24" viewBox="0 0 24 24" xmlns="http://www.w3.org/2000/svg"><title>Icon/Essential/Question Circle</title><path d="M12 2a10 10 0 110 20 10 10 0 010-20zm0 1.25a8.75 8.75 0 100 17.5 8.75 8.75 0 000-17.5zm0 12.5h.1a.94.94 0 11-.2 0h.1zm3.05-6.95a3.13 3.13 0 01-2 3.65.63.63 0 00-.42.49v.94a.62.62 0 01-1.25.09V13.04c0-.74.43-1.41 1.1-1.71l.14-.06a1.88 1.88 0 10-2.49-1.93v.16a.63.63 0 01-1.26 0 3.13 3.13 0 016.18-.7z" fill="currentColor" fill-rule="evenodd" fill-opacity=".84"/></svg>