<svg width="24" height="24" viewBox="0 0 24 24" xmlns="http://www.w3.org/2000/svg"><title>Icon/SBU/Systems/Service</title><path d="M4.85 2.93a.8.8 0 01.66.36c.07.1.11.23.13.37L6.46 12 9.42 9.6a.9.9 0 01.97-.11.9.9 0 01.37.33c.1.15.15.32.15.51V12l2.96-2.41a.92.92 0 01.64-.2 4.55 4.55 0 00-.43 1.96 4.68 4.68 0 002.78 4.28 4.46 4.46 0 002.97.2v5.24H2V12l.82-8.34a.82.82 0 01.41-.63c.12-.07.24-.1.38-.1h1.24zm13.2 14.51h-3.57v1.82h3.57v-1.82zm-5.35 0H9.13v1.82h3.57v-1.82zm-5.35 0H3.78v1.82h3.57v-1.82zm5.35-3.63H9.13v1.82h3.57v-1.82zm-5.35 0H3.78v1.82h3.57v-1.82zm11.29-5.88a3.28 3.28 0 012.38 1 3.4 3.4 0 01.98 2.42 3.43 3.43 0 01-3.36 3.43 3.32 3.32 0 01-3.1-2.1 3.42 3.42 0 010-2.66 3.38 3.38 0 013.1-2.09zm0 .66a2.64 2.64 0 00-1.92.81 2.76 2.76 0 00-.59 3.03 2.74 2.74 0 002.5 1.69 2.64 2.64 0 001.93-.81 2.8 2.8 0 00-.87-4.5 2.64 2.64 0 00-1.05-.22zm.3 1.2c.02 0 .04 0 .05.02.02.01.03.03.03.05l.06.4.26.16.37-.16a.1.1 0 01.06 0l.04.03.3.55c.01.01.02.03.01.05 0 .02 0 .04-.02.05l-.32.25v.03a1.8 1.8 0 010 .26v.02l.32.26.02.05v.05l-.3.54a.07.07 0 01-.05.04h-.05l-.38-.16a1.4 1.4 0 01-.26.15l-.06.41c0 .02 0 .03-.02.05a.08.08 0 01-.06.01h-.6l-.06-.01a.07.07 0 01-.03-.05l-.05-.4a1.2 1.2 0 01-.26-.16l-.38.15h-.05a.07.07 0 01-.05-.03l-.3-.54v-.05c0-.02 0-.04.02-.05l.32-.26a1.48 1.48 0 010-.3l-.32-.26a.09.09 0 01-.03-.05.1.1 0 010-.05l.31-.55a.08.08 0 01.05-.03h.05l.38.16c.1-.07.19-.12.26-.15l.05-.41c0-.02.02-.04.03-.05a.08.08 0 01.05-.02h.61zm-.3 1.01c-.1 0-.19.03-.27.08a.56.56 0 00-.2.74c.05.09.11.15.2.2.08.05.17.07.27.07s.18-.02.27-.07a.54.54 0 00.26-.47c0-.1-.02-.2-.07-.27a.55.55 0 00-.2-.2.51.51 0 00-.26-.08z" fill="#000" fill-rule="evenodd" fill-opacity=".84"/></svg>