<svg width="24" height="24" viewBox="0 0 24 24" xmlns="http://www.w3.org/2000/svg"><title>Icon/SBU/ZBM/Default</title><path d="M17.12 12.22a3.05 3.05 0 00-2.18.91 3.09 3.09 0 102.18-.9zm-9.72 0a3.05 3.05 0 00-2.18.91 3.09 3.09 0 102.18-.9zm3.46.8l-.45.44a3.3 3.3 0 01.53 1.89c0 .22-.03.49-.08.79h.8v.75h1.95V14l-2.75-.98zm6.22.9c.25 0 .48.06.7.18.21.13.38.3.5.5a1.36 1.36 0 010 1.4 1.42 1.42 0 01-1.2.7c-.24 0-.47-.06-.7-.19-.2-.12-.37-.3-.5-.5a1.36 1.36 0 010-1.4c.13-.21.3-.38.5-.5.22-.13.45-.2.7-.2zm-9.68 0c.24 0 .48.06.7.18a1.41 1.41 0 01.7 1.2c0 .26-.07.49-.2.7-.13.22-.3.39-.5.5a1.37 1.37 0 01-1.9-.5 1.38 1.38 0 010-1.4c.12-.2.29-.37.5-.5.22-.12.45-.19.7-.19zm8.52-6.74l-1.21 3.2v1.96a3.82 3.82 0 012.4-.83 3.86 3.86 0 013.52 2.19v2.07h.8v-5.42h-.5V9.1a.85.85 0 00-.03-.24.49.49 0 00-.2-.28.26.26 0 00-.15-.05h-2.37c-.11 0-.19.04-.22.12a.45.45 0 00-.12.2.86.86 0 00-.04.25v.42h-.52V7.63h2.14l-.07-.45h-3.43zM14.6 5.6l-.76 2.03H2.58v1.84l10.4 3.74 2.52-6.7h5.01V5.6H14.6zm-5.77 5h4.03l-.48 1.29-3.55-1.29zm9.35-1.66h2.3v1.4h-.6l-.16-.87h-1.54v-.53zM3.6 8.64h10.02l-.38 1.02H6.12l-2.52-.9v-.12zm12.77-.97h.34V9.5h-1.06l.72-1.84z" fill="currentColor" fill-rule="evenodd"/></svg>