<svg width="24" height="24" viewBox="0 0 24 24" xmlns="http://www.w3.org/2000/svg"><title>Icon/SBU/New/ZPS</title><path d="M15.5 6a.5.5 0 110 1h-1a.5.5 0 100 1h.09a1 1 0 01.7.3l1.42 1.4a1 1 0 00.7.3h.09a.5.5 0 00.5-.41V9.5c0-.28.22-.5.5-.5h1c.28 0 .5.22.5.5v7a.5.5 0 01-.5.5h-1a.5.5 0 01-.5-.41v-.09a.5.5 0 00-.5-.5h-.3a.5.5 0 00-.35.15L15.3 17.7a1 1 0 01-.7.29H9.4a1 1 0 01-.7-.3l-1.42-1.4a1 1 0 01-.29-.71V14.5a.5.5 0 00-1-.09v.09a.5.5 0 01-.5.5h-1a.5.5 0 01-.5-.5v-4c0-.28.22-.5.5-.5h1a.5.5 0 01.5.41v.09a.5.5 0 101 0v-.09a1 1 0 01.3-.7l1.4-1.42A1 1 0 019.42 8h.09a.5.5 0 000-1h-1a.5.5 0 010-1h7zM13 9.53a.2.2 0 00-.24.01l-.04.05-2.69 3.59a.2.2 0 00.12.3l.05.02h1.84c.1.02.16.1.16.2v.05l-.26 2.5a.2.2 0 00.08.22.2.2 0 00.24-.01l.04-.05 2.67-3.59a.2.2 0 00-.12-.31l-.05-.01h-1.84a.2.2 0 01-.16-.2l.29-2.55a.2.2 0 00-.09-.22z" fill="currentColor" fill-rule="evenodd" fill-opacity=".84"/></svg>