<svg width="24" height="24" viewBox="0 0 24 24" xmlns="http://www.w3.org/2000/svg"><title>Icon/SBU/Systems/Aviation</title><path d="M15.92 5.66a1.1 1.1 0 01.8.8 1.12 1.12 0 01-.3 1.09l-2.9 2.9a3.62 3.62 0 00-1.07 2.6 3.63 3.63 0 002.46 3.44l.2.83-1.06 1.05-2.9-5.55-2.91 2.9.26 1.85-.79.8-1.32-2.39-2.38-1.32.8-.8 1.84.28 2.9-2.9L4 8.32l1.06-1.06 6.87 1.59 2.9-2.9a1.12 1.12 0 011.08-.3zm.56 3.51a3.93 3.93 0 013.24 2.4 3.89 3.89 0 01-3.48 5.35l-.06-.24a3.6 3.6 0 003.33-2.28 3.62 3.62 0 00-.8-3.95 3.62 3.62 0 00-2.43-1.07l.2-.2zm.58 2.4l.7.93h.46c.09 0 .16.02.23.06a.48.48 0 01.24.4v.7h-.47a.69.69 0 01-.35.6.68.68 0 01-.7 0 .7.7 0 01-.34-.6h-1.4a.7.7 0 11-1.4 0h-.45v-.7l1.16-1.39h2.32zm-2.32 1.74a.35.35 0 00-.3.17.35.35 0 00-.05.18.35.35 0 00.17.3.35.35 0 00.48-.12.35.35 0 00.05-.18.35.35 0 00-.17-.3.35.35 0 00-.18-.05zm2.78 0a.35.35 0 00-.3.17.35.35 0 00-.04.18c0 .07.01.13.04.18.03.05.07.1.13.12.05.03.11.05.17.05a.35.35 0 00.3-.17.34.34 0 00.05-.18.34.34 0 00-.17-.3.35.35 0 00-.18-.05zm-.58-1.4h-.8v.59h1.26l-.46-.58zm-1.16 0h-.93l-.46.59h1.4v-.58z" fill="currentColor" fill-rule="evenodd" fill-opacity=".84"/></svg>