<svg width="24" height="24" viewBox="0 0 24 24" xmlns="http://www.w3.org/2000/svg"><title>Icon/Product/Container Mixer</title><path d="M19.63 3c.34 0 .62.28.62.62v2c0 .35-.28.63-.63.63h-1.37v7.25c0 .1-.02.2-.07.28l-.05.09-3.25 4.45v2.05c0 .35-.28.63-.63.63h-4.5a.63.63 0 01-.62-.62v-2-.04l-3.26-4.47a.63.63 0 01-.12-.37V6.25H4.37a.63.63 0 01-.61-.53l-.01-.1v-2c0-.34.28-.62.63-.62zm-6 16h-3.25v.75h3.25V19zM17 6.25H7v7.04l3.25 4.46h3.5L17 13.29V6.25zM14.82 9a.62.62 0 01.1 1.24l-.1.01H9.2a.62.62 0 01-.1-1.24L9.2 9h5.63zM19 4.25H5V5H19v-.75z" fill="currentColor" fill-rule="evenodd" fill-opacity=".84"/></svg>