<svg width="24" height="24" viewBox="0 0 24 24" xmlns="http://www.w3.org/2000/svg"><title>Icon/Social/LinkedIn</title><path d="M19.06 19.05h-2.94v-4.67c0-1.14 0-2.57-1.51-2.57-1.52 0-1.8 1.24-1.8 2.48v4.76H9.87V9.52h2.84v1.34a2.99 2.99 0 012.75-1.53c3.03 0 3.5 2 3.5 4.57l.1 5.15zM6.46 8.19a1.7 1.7 0 01-1.71-1.71 1.7 1.7 0 113.41 0 1.7 1.7 0 01-1.7 1.71zM5.02 19.05h2.94V9.52H5.03v9.53zM20.48 2H3.52C2.76 2 2.09 2.67 2 3.43v17.14c0 .76.66 1.43 1.52 1.43h16.96c.76 0 1.43-.67 1.52-1.43V3.43C22 2.67 21.34 2 20.48 2z" fill="currentColor" fill-rule="evenodd"/></svg>