<svg width="24" height="24" viewBox="0 0 24 24" xmlns="http://www.w3.org/2000/svg"><title>Icon/SBU/Systems/Aviation</title><path d="M16.9 4.08a1.37 1.37 0 011 1 1.4 1.4 0 01-.37 1.35l-3.63 3.63a4.52 4.52 0 00-1.34 3.24 4.54 4.54 0 003.08 4.3l.24 1.05-1.32 1.32-3.63-6.94-3.63 3.63.33 2.3-.99 1L5 16.97 2 15.32l1-.98 2.3.33 3.63-3.63L2 7.4l1.32-1.32 8.6 1.98 3.63-3.63a1.4 1.4 0 011.35-.37zm.7 4.39a4.91 4.91 0 014.05 3 4.86 4.86 0 01-4.35 6.67l-.08-.3A4.5 4.5 0 0021.38 15a4.53 4.53 0 00-1-4.94 4.53 4.53 0 00-3.04-1.33l.27-.26zm.73 3l.87 1.16h.58c.1 0 .2.02.29.07a.6.6 0 01.29.5v.88h-.58a.86.86 0 01-.44.75.85.85 0 01-.43.12.87.87 0 01-.87-.87h-1.75a.87.87 0 01-1.74 0h-.58v-.87l1.45-1.74h2.9zm-2.9 2.17a.44.44 0 00-.39.22.43.43 0 00-.05.22.43.43 0 00.21.37.44.44 0 00.6-.16.43.43 0 00.06-.21.43.43 0 00-.22-.38.44.44 0 00-.22-.06zm3.48 0a.44.44 0 00-.38.22.43.43 0 00-.06.22c0 .08.02.15.06.22.03.06.09.12.15.15.07.04.14.06.23.06a.44.44 0 00.38-.21.43.43 0 00.05-.22.42.42 0 00-.22-.38.44.44 0 00-.21-.06zm-.73-1.74h-1.01v.73h1.58l-.57-.73zm-1.45 0h-1.16l-.58.73h1.74v-.73z" fill="#000" fill-rule="evenodd" fill-opacity=".84"/></svg>