<svg width="24" height="24" viewBox="0 0 24 24" xmlns="http://www.w3.org/2000/svg"><title>Icon/SBU/ZPS/Used</title><path d="M14.05 5.28a4.52 4.52 0 00.24 2.78 4.6 4.6 0 002.4 2.45 4.35 4.35 0 003.06.16c.43-.13.83-.32 1.2-.58v7.88h-2.44v-1.48h-1.04v1.34c0 .14-.02.27-.08.39a.76.76 0 01-.21.29.46.46 0 01-.3.1H7.78l-1.9-1.93H4.26a.6.6 0 01-.37-.14.95.95 0 01-.28-.37c-.08-.17-.11-.35-.11-.55v-1.75H2.9v2.58H2V8.12h.9v2.58h.54V9.64c0-.2.04-.37.11-.54a.99.99 0 01.28-.38.6.6 0 01.38-.14h1.44v-.92a.9.9 0 01.09-.38.75.75 0 01.22-.28c.1-.08.21-.12.33-.12h3.2V6.2H6.95v-.91h7.09zm-1.5 3.68H10.8l-2.43 4.6h3.6l-1.35 3.68 3.57-5.25h-3.2l1.58-3.03zm6.35-5.88c.37.06.73.18 1.06.37l-.48.48a2.51 2.51 0 00-1.68-.15 2.46 2.46 0 00-1.53 1.16 2.62 2.62 0 00.85 3.56 2.51 2.51 0 003.4-.74c.18-.27.31-.56.39-.88h-.4l.7-1.34.79 1.3-.43.01a3.28 3.28 0 01-1.27 2.06 3.08 3.08 0 01-3.5.14 3.14 3.14 0 01-1.42-1.95 3.26 3.26 0 012.26-3.94c.42-.11.84-.14 1.26-.08zm1.92.8l.45.45-3.17 3.24-1.43-1.46.44-.46.99 1 2.72-2.77z" fill="currentColor" fill-rule="evenodd"/></svg>