<svg width="24" height="24" viewBox="0 0 24 24" xmlns="http://www.w3.org/2000/svg"><title>Icon/SBU/ZRD/Infrastructure</title><path d="M14.71 6.64c.05 0 .09.02.12.05l4.15 4.11c.03.04.04.08.04.12 0 .05-.01.09-.04.12a.17.17 0 01-.13.05H16.8l3.37 10.69a.2.2 0 01.01.05c0 .05-.01.09-.05.12A.17.17 0 0120 22H9.37a.16.16 0 01-.1-.1.17.17 0 010-.12l3.36-10.69h-2.06a.17.17 0 01-.12-.05.17.17 0 010-.24l4.14-4.1a.16.16 0 01.12-.06zm.01 11.31a.4.4 0 00-.29.12.4.4 0 00-.13.29v1.83c0 .1.05.2.12.28a.4.4 0 00.28.12c.12 0 .21-.03.3-.11a.4.4 0 00.12-.29v-1.83a.4.4 0 00-.12-.29.4.4 0 00-.28-.12zm0-4.11a.4.4 0 00-.29.11.4.4 0 00-.13.29v1.86c0 .11.05.2.13.28a.4.4 0 00.3.12c.1 0 .2-.05.28-.13a.4.4 0 00.11-.3v-1.83a.4.4 0 00-.12-.28.4.4 0 00-.28-.12zM9.22 2c.26 0 .5.07.73.2a1.43 1.43 0 01.7 1.23h.84c.08 0 .14.03.18.08.05.05.08.1.08.17s-.03.13-.08.18l-1.01 1.01v2.87h1.13L9.6 9.93a1.4 1.4 0 00.27 2.2c.22.13.46.2.71.2h.38l-1.24 3.92c-.16.06-.32.1-.5.1H6.36a1.46 1.46 0 01-1.24-.71c-.13-.23-.2-.47-.2-.73v-1.43l-1-1.02a.24.24 0 01-.08-.17c0-.07.02-.13.07-.18.05-.05.11-.07.18-.07h.84V9.17L3.9 8.16a.22.22 0 01-.07-.18c0-.06.03-.12.07-.17.05-.05.11-.07.18-.07h.84V4.87L3.9 3.86a.23.23 0 01-.08-.18c0-.07.03-.13.08-.18.05-.04.1-.07.17-.07h.84A1.43 1.43 0 016.36 2h2.86zM7.8 12.04c-.26 0-.5.07-.72.2a1.42 1.42 0 00-.71 1.24 1.46 1.46 0 001.44 1.44c.25 0 .5-.07.71-.2a1.42 1.42 0 00.72-1.25c0-.26-.07-.5-.2-.72a1.42 1.42 0 00-1.24-.7zm6.91-1.95a.4.4 0 00-.28.13.4.4 0 00-.12.3v1.83c0 .11.05.2.12.28a.4.4 0 00.28.12.4.4 0 00.3-.11.4.4 0 00.12-.29V10.5a.4.4 0 00-.12-.29.4.4 0 00-.3-.1zM7.8 7.74c-.26 0-.5.06-.72.2a1.42 1.42 0 00-.71 1.23c0 .26.06.5.2.73a1.42 1.42 0 001.08.7h.15c.26 0 .5-.06.72-.19a1.4 1.4 0 00.71-1.24c0-.26-.06-.5-.2-.72a1.42 1.42 0 00-1.23-.71zm0-4.3a1.42 1.42 0 00-1.24.7 1.41 1.41 0 000 1.46 1.43 1.43 0 001.09.7h.15c.26 0 .5-.06.72-.2.22-.12.4-.29.52-.5a1.41 1.41 0 000-1.45 1.42 1.42 0 00-1.24-.71z" fill="#000" fill-rule="evenodd" fill-opacity=".84"/></svg>