<svg width="24" height="24" viewBox="0 0 24 24" xmlns="http://www.w3.org/2000/svg"><title>Icon/Ecom/Award Star Head</title><path d="M13.25 17.63c.31 0 .57.23.62.53v2.59h2.5c.32 0 .58.23.62.53l.01.1c0 .3-.23.57-.53.61l-.1.01h-3.12a.63.63 0 01-.62-.53v-3.22c0-.35.27-.63.62-.63zm-2.5 0c.31 0 .57.23.62.53V21.38c0 .3-.23.57-.53.61l-.09.01H7.62a.62.62 0 01-.09-1.24l.1-.01h2.5v-2.5c0-.31.23-.57.53-.62h.09zm5-3.13c.31 0 .57.23.62.53v2.6h2.5c.32 0 .58.23.62.53l.01.09c0 .31-.23.57-.53.62h-3.22a.63.63 0 01-.62-.53V15.12c0-.34.27-.62.62-.62zm-7.5 0c.31 0 .57.23.62.53v3.22c0 .31-.23.57-.53.62H5.12a.62.62 0 01-.09-1.24h2.6v-2.5c0-.32.23-.58.53-.62l.09-.01zm10-2.5c.31 0 .57.23.62.53V14.24l1.44-1.43a.62.62 0 01.95.8l-.07.08-1.43 1.43h1.61c.32 0 .58.24.62.54l.01.09c0 .31-.23.57-.53.62h-3.3.08a.63.63 0 01-.47-.21l.03.03a.62.62 0 01-.18-.34v-3.23c0-.34.27-.62.62-.62zM2.62 16.38a.62.62 0 01-.09-1.25H4.24l-1.43-1.44a.62.62 0 01.8-.95l.08.07 1.44 1.43v-1.62c0-.3.23-.57.53-.61l.09-.01c.31 0 .57.23.62.53v3.29-.07a.63.63 0 01-.53.62H2.63zM12 2c.45 0 .87.25 1.06.64l1.03 1.86h1.7c.43 0 .84.23 1.05.61l.06.12c.19.45.09.97-.24 1.29l-1.62 1.77.9 2.05c.17.43.08.93-.23 1.27l-.1.1c-.38.33-.94.39-1.38.13L12 10.58l-2.23 1.26c-.4.23-.9.2-1.28-.05l-.11-.09a1.2 1.2 0 01-.31-1.37l.89-2.04-1.6-1.75a1.2 1.2 0 01-.31-1.17l.05-.14c.18-.45.63-.74 1.1-.73h1.7l1.02-1.84c.19-.36.54-.6.94-.65zm0 1.3l-1.18 2.13a.62.62 0 01-.55.32H8.33l1.82 2c.15.15.2.37.15.57l-.03.1-1 2.26 2.42-1.36c.16-.09.35-.1.52-.04l.1.04 2.4 1.36-.98-2.26a.63.63 0 01.05-.6l.06-.08 1.83-1.99h-1.94a.63.63 0 01-.5-.24l-.05-.08L12 3.3z" fill="currentColor" fill-rule="evenodd" fill-opacity=".84"/></svg>