<svg width="24" height="24" viewBox="0 0 24 24" xmlns="http://www.w3.org/2000/svg"><title>Icon/Ecom/Cart</title><path d="M16.67 17.3c-1.24 0-2.21 1-2.21 2.23v.16a2.2 2.2 0 004.41-.19c0-1.26-.94-2.2-2.2-2.2zm-6.25 0c-1.24 0-2.21 1-2.21 2.23v.17c.1 1.17 1.02 2 2.2 2 1.25 0 2.21-1 2.21-2.2 0-1.26-.94-2.2-2.2-2.2zm6.25 1.24a.9.9 0 01.95.96c0 .52-.42.96-.95.96a.95.95 0 01-.96-.85v-.11c0-.52.42-.96.96-.96zm-6.25 0a.9.9 0 01.95.96c0 .52-.42.96-.95.96-.54 0-.92-.34-.96-.83v-.13c0-.52.42-.96.96-.96zM2.67 2.3a.62.62 0 00-.1 1.24l.1.01h.83c.5 0 .98.34 1.18.82l.05.13 2.6 10.2c.24.73.9 1.28 1.68 1.35h9.16c.81 0 1.51-.46 1.8-1.21l.05-.16 1.91-6.58a.62.62 0 00-.6-.8H6.73l-.8-3.14A2.59 2.59 0 003.67 2.3h-1zm4.38 6.25H20.5l-1.68 5.79a.61.61 0 01-.55.46h-9.1a.74.74 0 01-.61-.37l-.04-.07-1.47-5.8z" fill="currentColor" fill-rule="evenodd" fill-opacity=".84"/></svg>