<svg width="24" height="24" viewBox="0 0 24 24" xmlns="http://www.w3.org/2000/svg"><title>Icon/Essential/Filter 1</title><path d="M15.86 12.82a3.93 3.93 0 013.88 3.31h1.64a.62.62 0 01.09 1.24l-.1.01h-1.63a3.93 3.93 0 01-7.76 0H2.62a.63.63 0 01-.09-1.24l.1-.01h9.35a3.93 3.93 0 013.88-3.3zm0 1.25a2.68 2.68 0 100 5.37 2.68 2.68 0 000-5.37zM8.69 3.31a3.93 3.93 0 013.89 3.31h8.8a.62.62 0 01.09 1.24l-.1.01h-8.8a3.93 3.93 0 01-7.76 0H2.63a.62.62 0 01-.1-1.24l.1-.01H4.8a3.93 3.93 0 013.88-3.3zm0 1.25a2.68 2.68 0 100 5.37 2.68 2.68 0 000-5.37z" fill="#000" fill-rule="evenodd" fill-opacity=".84"/></svg>