<svg width="24" height="24" viewBox="0 0 24 24" xmlns="http://www.w3.org/2000/svg" xmlns:xlink="http://www.w3.org/1999/xlink"><title>Icon/SBU/New/Systems</title><defs><path d="M15 17.5h2a.5.5 0 00.5-.5v-1a.5.5 0 00-.5-.5h-2a.5.5 0 00-.5.5v1c0 .28.22.5.5.5zm0-3h2a.5.5 0 00.5-.5v-1a.5.5 0 00-.5-.5h-2a.5.5 0 00-.5.5v1c0 .28.22.5.5.5zm-4 0h2a.5.5 0 00.5-.5v-1a.5.5 0 00-.5-.5h-2a.5.5 0 00-.5.5v1c0 .28.22.5.5.5zm0 3h2a.5.5 0 00.5-.5v-1a.5.5 0 00-.5-.5h-2a.5.5 0 00-.5.5v1c0 .28.22.5.5.5zm-4-3h2a.5.5 0 00.5-.5v-1a.5.5 0 00-.5-.5H7a.5.5 0 00-.5.5v1c0 .28.22.5.5.5zm0 3h2a.5.5 0 00.5-.5v-1a.5.5 0 00-.5-.5H7a.5.5 0 00-.5.5v1c0 .28.22.5.5.5zm8.5-6.86V9.03a.44.44 0 00-.73-.33l-2.4 2.1a.22.22 0 01-.37-.16V9.03a.44.44 0 00-.73-.33l-2.45 2.15a.22.22 0 01-.36-.15l-.53-5.3a.44.44 0 00-.44-.4H6.01a.44.44 0 00-.44.4l-.48 4.86A17.5 17.5 0 005 12v6.56c0 .24.2.44.44.44h13.12c.24 0 .44-.2.44-.44V9.03a.44.44 0 00-.73-.33l-2.4 2.1a.22.22 0 01-.37-.16z" id="a"/></defs><use fill-opacity=".84" fill="#000" xlink:href="#a" fill-rule="evenodd"/></svg>