<svg width="24" height="24" viewBox="0 0 24 24" xmlns="http://www.w3.org/2000/svg"><title>Icon/SBU/ZRD/Rental</title><path d="M14.19 14.48a2 2 0 011.46.62 2.12 2.12 0 01.6 1.47 2.05 2.05 0 01-.6 1.48 2.07 2.07 0 01-1.46.62 2.09 2.09 0 01-1.9-1.29 2.05 2.05 0 010-1.62 2.07 2.07 0 011.1-1.12 2 2 0 01.8-.16zm-6.26 0a2 2 0 011.46.62 2.08 2.08 0 01.6 1.48 2.13 2.13 0 01-.59 1.47 2.01 2.01 0 01-1.47.62 2.07 2.07 0 01-1.9-1.29 2.08 2.08 0 01.44-2.28 2 2 0 011.46-.62zm2.88-4.15l6.3 2.29v.95h.18l3.3 2.95.75-.09.66.52-4.47.57a.75.75 0 01-.68-.27.87.87 0 01-.17-.34v-.34a2.4 2.4 0 00-.6-1.6c-.18-.21-.38-.4-.62-.54v-1l-5.02-1.84c.18-.4.3-.83.37-1.26zm3.38 5.29a.96.96 0 00-.47 1.78.92.92 0 00.94 0 .95.95 0 00.47-.83.95.95 0 00-.47-.82.9.9 0 00-.47-.13zm-6.22 0a.96.96 0 00-.47 1.78.92.92 0 00.95 0 .95.95 0 00.46-.83.95.95 0 00-.46-.82.9.9 0 00-.48-.13zM10.24 12l4.84 1.76v.48a1.75 1.75 0 00-.43-.15 2.42 2.42 0 00-2.22.7 2.57 2.57 0 00-.66 2.49l.02.1h-1.5a1.96 1.96 0 00.13-.76c0-.37-.08-.73-.24-1.07a2.59 2.59 0 00-1.6-1.36l-.04-.05v-.32a5.01 5.01 0 001.7-1.82zm-6.55 2.1a4.96 4.96 0 002.75.47 2.61 2.61 0 00-.91 1.29l-1.23-.29-.7-.71.09-.76zm2.16-8.48a3.8 3.8 0 012.73 1.14 3.86 3.86 0 011.13 2.76 3.94 3.94 0 01-2.4 3.62 3.79 3.79 0 01-4.18-.86A3.85 3.85 0 012 9.52a3.9 3.9 0 013.85-3.9zm.01.47a3.34 3.34 0 00-3.14 2.14 3.46 3.46 0 001.87 4.47 3.35 3.35 0 003.67-.76 3.41 3.41 0 001-2.43 3.44 3.44 0 00-2.12-3.17c-.41-.17-.84-.25-1.28-.25zm8.9-.76c.07 0 .13.02.2.07a.36.36 0 01.12.36l-.33.95 1.37 5.1-.8-.2-.57-2.09h-1.88l.33 1.34-.47-.2-.29-1.14h-1.22l.14.67-.47-.2-.03-.16a5.21 5.21 0 00-1.45-3.9 2.62 2.62 0 00-.1-.09l-.05-.05.03-.17c.02-.1.07-.17.13-.22a.3.3 0 01.2-.07h5.13zm-6.9 2.2l-.02.28v.1a5.2 5.2 0 01-.05.4H7.38l-.08.04c-.02.01-.02.04-.03.08v.4h-.22l-.24.01a.11.11 0 00-.04.04l-.02.09v.44l-.41.41-.06.06-.08.08a1.8 1.8 0 00-.1.12.13.13 0 00-.03.06l.01.05.01.03a1.2 1.2 0 01-.14.9 1.14 1.14 0 01-.98.55 1.14 1.14 0 01-.86-.38l-.14-.17a1.22 1.22 0 01-.16-.84 1.13 1.13 0 01.82-.9c.09-.04.19-.05.29-.06l.3.03.14.02.18-.17.77-.75.91-.91.31-.01a8.75 8.75 0 01.33 0zM4.6 10.5c-.04 0-.08 0-.1.02a.15.15 0 00-.05.02.57.57 0 00-.1.1.29.29 0 00-.05.18c0 .04 0 .08.02.1l.06.1.07.06c.06.03.11.04.17.03.06 0 .11-.02.16-.05a.3.3 0 00.12-.16.3.3 0 000-.2.15.15 0 00-.03-.04.86.86 0 00-.12-.12.13.13 0 00-.05-.03.29.29 0 00-.1-.01zm7.52-2.84h-1.23L11.17 9h1.23l-.28-1.34zm2.26 0h-1.8L12.88 9h1.83l-.32-1.34zM14 6.2h-1.8l.24 1.05h1.8v-.05l-.05-.14-.05-.29v-.05L14 6.2zm-2.21 0h-1.23l.24 1.05h1.22l-.23-1.05z" fill="#000" fill-rule="evenodd" fill-opacity=".84"/></svg>