<svg width="24" height="24" viewBox="0 0 24 24" xmlns="http://www.w3.org/2000/svg"><title>Icon/Social/Youtube</title><path d="M12.1 4.92h.37c.68 0 2 .02 3.36.07l.5.02c1.45.06 2.85.16 3.48.33.86.23 1.54.91 1.77 1.78.36 1.36.41 4 .42 4.68v.32c0 .69-.06 3.33-.42 4.69-.23.86-.9 1.55-1.77 1.78-1.4.38-6.66.41-7.65.42h-.32c-.99 0-6.24-.04-7.65-.42a2.51 2.51 0 01-1.77-1.78C2.04 15.39 2 12.6 2 12.06v-.2c0-.54.04-3.33.42-4.74.23-.87.9-1.55 1.77-1.78.63-.17 2.03-.27 3.47-.33l.51-.02c1.36-.05 2.68-.07 3.36-.07h.38zM9.94 8.99v5.95l5.23-2.98L9.95 9z" fill="currentColor" fill-rule="evenodd"/></svg>