<svg width="24" height="24" viewBox="0 0 24 24" xmlns="http://www.w3.org/2000/svg"><title>Icon/SBU/ZBM/Excavator</title><path d="M20.48 15.37v3.4h-2.96v.45a806.79 806.79 0 011.5.06l.68.05c.22 0 .43.06.62.17.18.1.33.26.44.44.11.2.17.4.17.61v.22a1.2 1.2 0 01-.61 1.06c-.2.11-.4.17-.62.17h-8.59a1.24 1.24 0 01-1.22-1.22v-.23c0-.21.06-.42.17-.6.11-.2.26-.34.44-.45.2-.11.4-.17.61-.17.72-.03 1.65-.07 2.82-.1v-.46h-2.74a.44.44 0 01-.32-.12.43.43 0 01-.13-.32v-.96l3.19-.45 2.4-1.55h4.15zm-6.67 4.46c-1.08.01-1.98.04-2.7.1h-.07a.6.6 0 00-.3.08.68.68 0 00-.24.23c-.06.1-.09.2-.09.31v.22c0 .11.03.22.09.31.06.1.13.18.23.24s.2.09.31.09h8.7c.11 0 .21-.03.3-.1a.65.65 0 00.3-.54v-.22a.62.62 0 00-.3-.54.6.6 0 00-.34-.09h-.07a87.68 87.68 0 00-5.82-.1zm7.75-4.42c.13 0 .23.04.32.12.08.08.12.19.12.32v2.52c0 .13-.04.23-.12.32a.43.43 0 01-.32.12h-.63v-3.4h.63zM7 2c.08 0 .14.06.18.14l.74 2.11-.4.7 3.62 2.86c.38.3.7.62.97.95.28.35.5.72.66 1.12l.67 2.59h1.3l1.33.26c.02.28.06.67.13 1.15l.13 1.14-1.78 1.12v-3.07h-2.78l-.23.57-.36 1.16v-.07c-.17-.97-.33-1.8-.5-2.46-.2-.8-.42-1.47-.66-2a3.81 3.81 0 00-.92-1.32L6.6 6.48l-2.48 4.26h-.03l1.7 2.52c.17 0 .35-.03.53-.1l.5-.23.08-.04.19.3-.22.17-.63.47a3.12 3.12 0 01-1.62.65 2.6 2.6 0 01-1.6-.36 2.23 2.23 0 01-.92-1.15 1.9 1.9 0 01.14-1.48c.14-.25.34-.5.59-.71l-.11-.56 2.18-6.37 1.74-1.74c.16-.08.28-.12.38-.1z" fill="#000" fill-rule="evenodd" fill-opacity=".84"/></svg>