<svg width="24" height="24" viewBox="0 0 24 24" xmlns="http://www.w3.org/2000/svg"><title>Icon/SBU/New/Aviation 2</title><path d="M19.45 4.43c.18.18.3.39.36.63a1.46 1.46 0 01-.36 1.37l-3.26 3.25a1 1 0 00-.27.93l1.74 7.52a1 1 0 01-.26.93l-.45.46a.5.5 0 01-.8-.13l-3.17-6.05a.25.25 0 00-.4-.06l-3.22 3.23a.5.5 0 00-.14.42l.26 1.82a.5.5 0 01-.15.43l-.34.34a.5.5 0 01-.79-.11l-1.26-2.28a.5.5 0 00-.2-.2l-2.28-1.27a.5.5 0 01-.12-.79l.35-.34a.5.5 0 01.43-.15l1.81.27a.5.5 0 00.43-.14l3.22-3.23a.25.25 0 00-.06-.4L4.46 7.72a.5.5 0 01-.12-.8l.45-.45a1 1 0 01.93-.27l7.52 1.75a1 1 0 00.94-.27l3.26-3.26c.18-.18.39-.3.63-.37a1.4 1.4 0 011.37.37h.01z" fill="currentColor" fill-rule="evenodd"/></svg>