<svg width="24" height="24" viewBox="0 0 24 24" xmlns="http://www.w3.org/2000/svg"><title>Icon/SBU/Systems/Default 2</title><path d="M21.74 9.85V22H2.26v-6.15l6.61-6v5.84l6.41-5.84v5.84l6.46-5.84zm-.82 9.07h-1.28v1.95h1.28v-1.95zm-1.95 0H17.7v1.95h1.28v-1.95zm-1.95 0h-1.28v1.95h1.28v-1.95zm-2.4 0h-1.29v1.95h1.29v-1.95zm-1.95 0h-1.29v1.95h1.29v-1.95zm-1.95 0H9.44v1.95h1.28v-1.95zm-2.46 0H6.97v1.95h1.29v-1.95zm-1.95 0H5.02v1.95h1.29v-1.95zm-1.95 0H3.08v1.95h1.28v-1.95zm16.56-2.5h-1.28v1.94h1.28v-1.95zm-1.95 0H17.7v1.94h1.28v-1.95zm-1.95 0h-1.28v1.94h1.28v-1.95zm-2.4 0h-1.29v1.94h1.29v-1.95zm-1.95 0h-1.29v1.94h1.29v-1.95zm-1.95 0H9.44v1.94h1.28v-1.95zm-2.46 0H6.97v1.94h1.29v-1.95zm-1.95 0H5.02v1.94h1.29v-1.95zm-1.95 0H3.08v1.94h1.28v-1.95zM7.02 2l.31 8.56-3.13 2.82L4.62 2h2.4zm6.62 0l.3 8.56-3.12 2.82L11.23 2h2.41zm6.26 0l.3 8.56-3.12 2.82.4-11.38h2.42z" fill="#000" fill-rule="evenodd" fill-opacity=".84"/></svg>