<svg width="24" height="24" viewBox="0 0 24 24" xmlns="http://www.w3.org/2000/svg"><title>Icon/Essential/Expand</title><path d="M10.57 13.43c.21.22.24.56.07.8l-.07.09-6.44 6.43h4.12c.31 0 .57.23.62.53v.1c0 .3-.23.57-.53.61H2.5l-.07-.03-.05-.02-.05-.02-.06-.04-.06-.05-.02-.01a.62.62 0 01-.17-.35l-.01-.1v-5.62a.63.63 0 011.24-.1l.01.1v4.11l6.43-6.43a.62.62 0 01.89 0zM21.37 2l.14.01.07.02.07.03.07.04.08.07.02.01a.62.62 0 01.17.35l.01.1v5.62a.62.62 0 01-1.24.1l-.01-.1V4.13l-6.43 6.44a.62.62 0 01-.96-.8l.07-.09 6.44-6.43h-4.12a.63.63 0 01-.62-.53v-.1c0-.31.23-.57.53-.61l.09-.01h5.63z" fill="currentColor" fill-rule="evenodd"/></svg>