<svg width="24" height="24" viewBox="0 0 24 24" xmlns="http://www.w3.org/2000/svg"><title>Icon/Communication/Phone</title><path d="M4.18 2.64a2.16 2.16 0 013.06 0l2.71 2.72a2.16 2.16 0 01.03 3.04l-.09.09c-.3.36-.27.89.06 1.22l4.35 4.35a.91.91 0 001.31-.02l.15-.13c.85-.7 2.1-.64 2.89.15l2.72 2.71c.84.85.84 2.22 0 3.06l-.65.65a5.23 5.23 0 01-6.5.72l-.04-.02A42.24 42.24 0 012.83 9.82L2.7 9.6a5.24 5.24 0 01.84-6.3zm2.17.89a.91.91 0 00-1.29 0l-.64.64a3.98 3.98 0 00-.55 4.95l.38.56a40.96 40.96 0 0010.6 10.44l.21.13c1.55.87 3.5.61 4.78-.66l.64-.64a.91.91 0 000-1.3l-2.71-2.7a.9.9 0 00-1.2-.1l-.23.22a2.16 2.16 0 01-2.92-.13L9.07 10.6a2.17 2.17 0 01-.13-2.92l.2-.23a.91.91 0 00-.07-1.2z" fill="currentColor" fill-rule="evenodd" fill-opacity=".84"/></svg>