<svg width="24" height="24" viewBox="0 0 24 24" xmlns="http://www.w3.org/2000/svg"><title>Icon/Essential/Filter 2</title><path d="M20.75 2.34A1.25 1.25 0 0122 3.68c-.31 4.29-3.32 7.88-7.44 8.97l-.06.01v5.66c0 .33-.12.64-.35.87l-.1.1-2.5 2.08a1.25 1.25 0 01-2.06-.96v-7.75l-.33-.09a10.03 10.03 0 01-7.13-8.61L2 3.67a1.25 1.25 0 011.25-1.33zM3.25 3.59l.03.26a8.77 8.77 0 006.97 7.7c.29.06.5.32.5.62v8.24l2.5-2.09v-6.15c0-.3.21-.56.5-.62a8.77 8.77 0 007-7.96H3.25z" fill="currentColor" fill-rule="evenodd" fill-opacity=".84"/></svg>