<svg width="24" height="24" viewBox="0 0 24 24" xmlns="http://www.w3.org/2000/svg"><title>Icon/Ecom/Certified Ribbon</title><path d="M12 2a7.5 7.5 0 016.74 10.8l3.12 3.8c.28.34.12.85-.27.99l-.1.02-2.76.56-1.14 3.4a.63.63 0 01-1.06.22l-.06-.08-3.05-4.84a7.54 7.54 0 01-2.84 0L7.53 21.7a.63.63 0 01-1.08-.04l-.04-.1-1.14-3.4-2.77-.56a.63.63 0 01-.41-.93l.05-.08 3.12-3.8A7.5 7.5 0 0112 2zM5.95 13.93l-2.18 2.66 2.1.42c.2.04.35.16.44.33l.03.09.83 2.5 2.16-3.42a7.52 7.52 0 01-3.38-2.58zm12.1 0a7.52 7.52 0 01-3.38 2.58l2.15 3.41.84-2.5c.06-.18.2-.32.38-.38l.09-.03 2.1-.42zM12 3.25a6.25 6.25 0 100 12.5 6.25 6.25 0 000-12.5zm3.63 3.25c.24.19.31.52.17.79l-.05.08-3.75 5c-.2.28-.6.33-.86.14l-.08-.07-2.5-2.5a.63.63 0 01.8-.95l.08.07 2 1.99 3.31-4.43c.2-.27.6-.33.88-.12z" fill="currentColor" fill-rule="evenodd" fill-opacity=".84"/></svg>