<svg width="24" height="24" viewBox="0 0 24 24" xmlns="http://www.w3.org/2000/svg"><title>Icon/Ecom/Cart Add</title><path d="M16.69 17.29a2.19 2.19 0 100 4.37 2.19 2.19 0 000-4.37zm-6.25 0a2.19 2.19 0 100 4.37 2.19 2.19 0 000-4.37zm6.25 1.25a.94.94 0 110 1.87.94.94 0 010-1.87zm-6.25 0a.94.94 0 110 1.87.94.94 0 010-1.87zM2.63 2.34a.63.63 0 00-.1 1.24h.96c.52 0 .99.33 1.17.81l.04.13 2.7 10.12c.2.78.87 1.33 1.65 1.39h9.18c.8 0 1.5-.5 1.76-1.22l.04-.15 1.94-6.57a.62.62 0 00-1.16-.45l-.03.1-1.95 6.58a.63.63 0 01-.51.46H9.2a.63.63 0 01-.58-.37l-.03-.09L5.9 4.2a2.5 2.5 0 00-2.23-1.85H2.63zm11.25 4.32a.63.63 0 00-.62.53l-.01.1v1.87h-1.87a.63.63 0 00-.1 1.24l.1.01h1.87v1.88a.63.63 0 001.24.09l.01-.1v-1.87h1.88a.62.62 0 00.09-1.24h-.1l-1.87-.01V7.29a.63.63 0 00-.62-.63z" fill="currentColor" fill-rule="evenodd" fill-opacity=".84"/></svg>