<svg width="24" height="24" viewBox="0 0 24 24" xmlns="http://www.w3.org/2000/svg"><title>Icon/SBU/Systems/Products</title><path d="M13.43 4.69v.48c.33.1.64.21.94.35a4.7 4.7 0 00-.17 3.07 4.4 4.4 0 00-2.73-.95c-2.45 0-4.44 2-4.44 4.48a4.46 4.46 0 004.44 4.48 4.46 4.46 0 004.27-5.68 4.56 4.56 0 003.83.9v2.57h-1.1l-1.46 3.04h-.7a7.1 7.1 0 01-8.78.7l-1.56.91.34.6-.83.48-3.37-5.95.82-.48.47.81 1.13-.65a7.28 7.28 0 01-.21-1.74v-.08H2.95v.69H2V5.86h.95v.94h3.68A7.11 7.11 0 019.5 5.17v-.48h3.93zm-1.96 5.41a2 2 0 012 2.02 2 2 0 01-2 2.01 2 2 0 01-2-2.01 2 2 0 012-2.02zm7.14-6.22A3.4 3.4 0 0122 7.3a3.4 3.4 0 01-3.39 3.42 3.4 3.4 0 01-3.39-3.42 3.4 3.4 0 013.4-3.42zm0 .66a2.75 2.75 0 00-2.73 2.76 2.75 2.75 0 002.73 2.76c1.51 0 2.74-1.23 2.74-2.76a2.75 2.75 0 00-2.74-2.76zm.31 1.2c.04 0 .08.03.08.07l.06.4c.1.04.17.1.26.16l.38-.16c.04-.01.08 0 .1.04l.3.54c.02.03.01.07-.02.1l-.32.25v.31l.32.26c.03.02.04.07.02.1l-.3.54a.08.08 0 01-.1.03l-.38-.15-.26.15-.06.4c0 .05-.04.07-.08.07h-.61c-.05 0-.08-.02-.08-.06l-.06-.41c-.1-.04-.18-.1-.26-.15l-.38.15a.08.08 0 01-.1-.03l-.3-.54a.08.08 0 01.01-.1l.33-.26-.01-.15v-.16l-.32-.25a.08.08 0 01-.01-.1l.3-.54c.02-.04.07-.05.1-.04l.38.16c.08-.06.17-.12.26-.15l.06-.41c0-.04.04-.07.08-.07zm-.3 1.01c-.3 0-.55.25-.55.55 0 .3.24.54.54.54a.54.54 0 000-1.09z" fill="currentColor" fill-rule="evenodd"/></svg>