<svg width="24" height="24" viewBox="0 0 24 24" xmlns="http://www.w3.org/2000/svg"><title>Icon/Essential/World</title><path d="M12 2a10 10 0 110 20 10 10 0 010-20zm3.07 15.63H8.93c.31 1.16.72 2.16 1.2 2.92a8.75 8.75 0 003.74 0l-.13.2c.54-.79.99-1.86 1.33-3.12zm-7.43 0H5.3c.84 1 1.91 1.82 3.13 2.36-.3-.7-.57-1.5-.79-2.36zm11.06 0h-2.34c-.22.86-.48 1.66-.79 2.36a8.78 8.78 0 003.13-2.36zm-11.7-5H3.28a8.7 8.7 0 001.15 3.75h2.96A24.46 24.46 0 017 12.63zm8.74 0H8.26c.03 1.32.17 2.59.39 3.75h6.7c.22-1.16.36-2.43.4-3.75zm4.99 0h-3.74a24.46 24.46 0 01-.37 3.75h2.96a8.7 8.7 0 001.15-3.75zm-13.35-5H4.42a8.7 8.7 0 00-1.15 3.75h3.74c.03-1.32.16-2.58.37-3.75zm7.97 0h-6.7a23.06 23.06 0 00-.4 3.75h7.5c-.04-1.33-.18-2.6-.4-3.76zm4.23 0h-2.96c.21 1.17.34 2.43.37 3.75h3.74a8.7 8.7 0 00-1.15-3.76zM8.43 4l-.06.03A8.78 8.78 0 005.3 6.37h2.34c.22-.86.48-1.66.79-2.36zM12 3.25c-.64 0-1.27.07-1.87.2l.13-.2a10.4 10.4 0 00-1.33 3.12h6.14a10.88 10.88 0 00-1.2-2.92c-.6-.13-1.23-.2-1.87-.2zm3.57.76l.02.04c.3.7.56 1.48.77 2.32h2.34a8.78 8.78 0 00-3.13-2.36z" fill="#000" fill-rule="evenodd" fill-opacity=".84"/></svg>