<svg width="24" height="24" viewBox="0 0 24 24" xmlns="http://www.w3.org/2000/svg"><title>Icon/Social/Youtube</title><g fill="none" fill-rule="evenodd"><path d="M21.58 7.12a2.51 2.51 0 00-1.77-1.78C18.25 4.92 12 4.92 12 4.92s-6.25 0-7.81.42c-.86.23-1.54.91-1.77 1.78C2 8.69 2 11.96 2 11.96s0 3.28.42 4.85c.23.86.9 1.55 1.77 1.78C5.75 19 12 19 12 19s6.25 0 7.81-.42a2.51 2.51 0 001.77-1.78c.42-1.57.42-4.85.42-4.85s0-3.27-.42-4.84" fill-opacity=".84" fill="#000"/><path fill="#FFF" d="M9.95 14.94V8.99l5.23 2.97-5.23 2.98"/></g></svg>