<svg width="24" height="24" viewBox="0 0 24 24" xmlns="http://www.w3.org/2000/svg" xmlns:xlink="http://www.w3.org/1999/xlink"><title>Icon/Flag/US</title><defs><rect id="a" x="2" y="4.5" width="20" height="15" rx="1"/></defs><g fill="none" fill-rule="evenodd"><mask id="b" fill="#fff"><use xlink:href="#a"/></mask><g mask="url(#b)" fill-rule="nonzero"><path d="M2 5.65h20v1.16H2V5.65zm0 2.31h20v1.15H2V7.96zm0 2.3h20v1.16H2v-1.15zm0 2.32h20v1.15H2v-1.15zm0 2.3h20v1.16H2v-1.15zm0 2.31h20v1.16H2v-1.16z" fill="#FFF"/><path d="M2 4.5h20v1.15H2V4.5zm0 2.3h20v1.16H2V6.81zm0 2.31h20v1.16H2V9.11zm0 2.31h20v1.16H2v-1.16zm0 2.31h20v1.16H2v-1.16zm0 2.3h20v1.16H2v-1.15zm0 2.32h20v1.15H2v-1.15z" fill="#B22234"/><path fill="#3C3B6E" d="M2 4.5h10.3v8.08H2z"/><path d="M2.95 11.3l.1.33h.34l-.27.2.1.31-.27-.2-.27.2.1-.32-.27-.2h.34l.1-.31zm1.68 0l.1.33h.34l-.27.2.1.31-.27-.2-.27.2.1-.32-.27-.2h.33l.11-.31zm1.68 0l.1.33h.34l-.27.2.1.31-.27-.2-.27.2.1-.32-.27-.2h.34l.1-.31zm1.68 0l.1.33h.34l-.27.2.1.31-.27-.2-.27.2.1-.32-.27-.2h.33l.11-.31zm1.68 0l.1.33h.34l-.27.2.1.31-.27-.2-.27.2.1-.32-.27-.2h.34l.1-.31zm1.68 0l.1.33h.34l-.27.2.1.31-.27-.2-.27.2.1-.32-.27-.2h.34l.1-.31zm-5.88-.8l.1.32h.34l-.27.2.1.32-.27-.2-.27.2.1-.32-.27-.2h.34l.1-.32zm1.68 0l.1.32h.34l-.27.2.1.32-.27-.2-.27.2.1-.32-.27-.2h.33l.11-.32zm3.36 0l.1.32h.34l-.27.2.1.32-.27-.2-.27.2.1-.32-.27-.2h.33l.11-.32zm-1.68 0l.1.32h.34l-.27.2.1.32-.27-.2-.27.2.1-.32-.27-.2h.34l.1-.32zm-5.04 0l.1.32h.34l-.27.2.1.32-.27-.2-.27.2.1-.33-.27-.2h.33l.11-.31zm-.84-.8l.1.31h.34l-.27.2.1.32-.27-.2-.27.2.1-.32-.27-.2h.34l.1-.32zm1.68 0l.1.31h.34l-.27.2.1.32-.27-.2-.27.2.1-.32-.27-.2h.33l.1-.32zm1.68 0l.1.31h.34l-.27.2.1.32-.27-.2-.27.2.1-.32-.27-.2h.34l.1-.32zM8 9.7l.1.31h.34l-.27.2.1.32-.27-.2-.27.2.1-.32-.27-.2h.33l.1-.32zm1.68 0l.1.31h.34l-.27.2.1.32-.27-.2-.27.2.1-.32-.27-.2h.33l.1-.32zm1.68 0l.1.31h.34l-.27.2.1.32-.27-.2-.27.2.1-.32-.27-.2h.34l.1-.32zm-2.52-.81l.1.32h.34L9 9.4l.1.31-.27-.2-.27.2.1-.32-.27-.2h.34l.1-.31zm-3.36 0l.1.32h.34l-.27.2.1.31-.27-.2-.27.2.1-.32-.27-.2h.34l.1-.31zm1.68 0l.1.32h.34l-.27.2.1.31-.27-.2-.27.2.1-.32-.27-.2h.33l.1-.31zm-3.36 0l.1.32h.34l-.27.2.1.31-.27-.2-.27.2.1-.32-.27-.2h.33l.1-.31zm6.72 0l.1.32h.34l-.27.2.1.31-.27-.2-.27.2.1-.32-.27-.2h.33l.1-.31zm-2.52-.81l.1.32h.34l-.27.2.1.32-.27-.2-.27.2.1-.33-.27-.2h.33l.1-.31zm3.36 0l.1.32h.34l-.27.2.1.32-.27-.2-.27.2.1-.33-.27-.2h.34l.1-.31zm-8.4 0l.1.32h.34l-.27.2.1.32-.27-.2-.27.2.1-.33-.27-.2h.34l.1-.31zm3.36 0l.1.32h.34l-.27.2.1.32-.27-.2-.27.2.1-.33-.27-.2h.34l.1-.31zm3.36 0l.1.32h.34l-.27.2.1.32-.27-.2-.27.2.1-.33-.27-.2h.33l.1-.31zm-5.04 0l.1.32h.34l-.27.2.1.31-.27-.2-.27.2.1-.32-.27-.2h.33l.1-.31zm-.84-.81l.1.32h.34l-.27.2.1.32-.27-.2-.27.2.1-.33-.27-.2h.33l.1-.31zm3.36 0l.1.32h.34l-.27.2.1.32-.27-.2-.27.2.1-.33-.27-.2h.33l.1-.31zm-1.68 0l.1.32h.34l-.27.2.1.32-.27-.2-.27.2.1-.33-.27-.2h.34l.1-.31zm3.36 0l.1.32h.34l-.27.2.1.32-.27-.2-.27.2.1-.33-.27-.2h.34l.1-.31zm1.68 0l.1.32h.34l-.27.2.1.32-.27-.2-.27.2.1-.33-.27-.2h.33l.1-.31zm-7.56-.81l.1.33h.34l-.27.2.1.31-.27-.2-.27.2.1-.32-.27-.2h.34l.1-.32zm6.72 0l.1.32h.34l-.27.2.1.32-.27-.2-.27.2.1-.32-.27-.2h.33l.1-.32zm1.68 0l.1.32h.34l-.27.2.1.32-.27-.2-.27.2.1-.32-.27-.2h.34l.1-.32zm-5.04 0l.1.32h.34l-.27.2.1.32-.27-.2-.27.2.1-.32-.27-.2h.34l.1-.32zm1.68 0l.1.32h.34l-.27.2.1.32L8 7.1l-.27.2.1-.32-.27-.2h.33l.1-.32zm-3.36 0l.1.32h.34l-.27.2.1.32-.27-.2-.27.2.1-.32-.27-.2h.33l.1-.32zm.84-.8l.1.31h.34l-.27.2.1.32-.27-.2-.27.2.1-.32-.27-.2h.34l.1-.32zm1.68 0l.1.31h.34l-.27.2.1.32-.27-.2-.27.2.1-.32-.27-.2h.33l.1-.32zm3.36 0l.1.31h.34l-.27.2.1.32-.27-.2-.27.2.1-.32-.27-.2h.33l.1-.32zm-1.68 0l.1.31h.34l-.27.2.1.32-.27-.2-.27.2.1-.32-.27-.2h.34l.1-.32zm-5.04 0l.1.31h.34l-.28.2.1.32-.26-.2-.27.2.1-.32-.27-.2h.33l.1-.32zm-.84-.81l.1.32h.34l-.27.2.1.31-.27-.2-.27.2.1-.32-.27-.2h.34l.1-.31zm1.68 0l.1.32h.34l-.27.2.1.31-.27-.2-.27.2.1-.32-.27-.2h.33l.1-.31zm1.68 0l.1.32h.34l-.27.2.1.31-.27-.2-.27.2.1-.32-.27-.2h.34l.1-.31zm1.68 0l.1.32h.34l-.27.2.1.31-.27-.2-.27.2.1-.32-.27-.2h.33l.1-.31zm1.68 0l.1.32h.34l-.27.2.1.31-.27-.2-.27.2.1-.32-.27-.2h.33l.1-.31zm1.68 0l.1.32h.34l-.27.2.1.31-.27-.2-.27.2.1-.32-.27-.2h.34l.1-.31z" fill="#FFF"/></g></g></svg>