<svg width="24" height="24" viewBox="0 0 24 24" xmlns="http://www.w3.org/2000/svg"><title>Icon/Ecom/Offer</title><path d="M16.25 2a.62.62 0 01.1 1.24l-.1.01h-6.1l1.26 8.83c.05.31-.14.6-.44.69l-.09.02a.63.63 0 01-.68-.44v-.02l-.71.88c-.3.36-.71.6-1.18.65l-.18.02h-.36v4.92c1.61 1.2 2.93 1.88 3.72 1.94l.12.01H17.14c.21-.02.27-.07.34-.23l.05-.14c.42-2.08.7-4.19.86-6.26 0-.06-.08-.15-.26-.2h-.02a1.17 1.17 0 00-.26-.04h-5.08a.62.62 0 01-.1-1.25h.17l-.7-6.95a1.04 1.04 0 01.92-1.14h5.87a1.04 1.04 0 011.05 1.06v.13l-1.09 7.18c.47.27.75.71.75 1.26a52.94 52.94 0 01-.9 6.53c-.32.96-.8 1.26-1.72 1.3H11.6c-.97 0-2.27-.6-3.84-1.67v.56A1.03 1.03 0 016.84 22H4.64a.63.63 0 01-.09-1.24H6.52v-7.47H4.64a.63.63 0 01-.62-.53v-.1c0-.34.28-.62.62-.62H6.7a1.03 1.03 0 01.97.59h.44c.12 0 .24-.06.34-.14l.06-.07 1.43-1.78-1.05-7.4A1.08 1.08 0 019.82 2L9.95 2h6.3zm2.45 3.78H13.4l.69 6.84h3.57l1.03-6.84zm-2.78 2.78a.94.94 0 11-.22.03l.13-.03h.1z" fill="#000" fill-rule="evenodd" fill-opacity=".84"/></svg>