<svg width="24" height="24" viewBox="0 0 24 24" xmlns="http://www.w3.org/2000/svg"><title>Icon/Communication/Email</title><path d="M19.5 5.33a1.87 1.87 0 011.88 1.88v10c0 1.04-.84 1.88-1.88 1.88h-15a1.88 1.88 0 01-1.88-1.88v-10c0-.44.16-.85.42-1.17l.01-.02c.35-.42.87-.68 1.45-.68zm.63 2.14l-6.07 4.66c-1.16.9-2.75.94-3.95.12l-.17-.12-6.06-4.66v9.74c0 .31.23.57.53.62H19.5c.35 0 .63-.27.63-.62V7.47zm-.9-.88H4.77l5.92 4.55c.72.55 1.7.59 2.45.1l.15-.1 5.92-4.56z" fill="currentColor" fill-rule="evenodd" fill-opacity=".84"/></svg>