<svg width="24" height="24" viewBox="0 0 24 24" xmlns="http://www.w3.org/2000/svg"><title>Icon/Essential/Print</title><path d="M16.38 2c.98 0 1.79.76 1.86 1.73l.01.15V7h1.88c.93 0 1.7.68 1.85 1.58l.01.15.01.14v6.26c0 .98-.76 1.79-1.73 1.86l-.14.01h-1.88v4.38c0 .27-.18.51-.43.6l-.1.01-.1.01H6.38a.63.63 0 01-.61-.53l-.01-.1V17H3.87c-.93 0-1.7-.68-1.85-1.58l-.01-.15-.01-.14V8.87c0-.98.76-1.79 1.73-1.86L3.88 7h1.87V3.87c0-.93.68-1.7 1.58-1.85l.15-.01.14-.01h8.75zM17 13.25H7v7.5h10v-7.5zm-1.88 4.5a.62.62 0 01.1 1.25H8.88a.62.62 0 01-.1-1.24h6.34zm0-2.74a.62.62 0 01.1 1.24H8.88a.62.62 0 01-.1-1.24h6.34zm5-6.76H3.77a.63.63 0 00-.51.53l-.01.1v6.34c.05.27.26.48.53.52l.1.01h1.87v-3.23a.63.63 0 01.53-.51l.1-.01h11.35c.26.05.47.26.51.53l.01.1v3.12h1.98a.63.63 0 00.51-.53l.01-.1V8.79a.63.63 0 00-.53-.52l-.1-.01zM6.38 9.5a.62.62 0 01.1 1.24l-.1.01H5.13a.62.62 0 01-.09-1.24l.1-.01h1.25zm10-6.25H7.53a.63.63 0 00-.51.53l-.01.1V7h10V3.77a.63.63 0 00-.53-.51l-.1-.01z" fill="#000" fill-rule="evenodd" fill-opacity=".84"/></svg>