<svg width="24" height="24" viewBox="0 0 24 24" xmlns="http://www.w3.org/2000/svg" xmlns:xlink="http://www.w3.org/1999/xlink"><title>Icon/Flag/BR</title><defs><circle id="c" cx="3.5" cy="3.5" r="3.5"/><rect id="a" x="2" y="4.5" width="20" height="15" rx="1"/></defs><g fill="none" fill-rule="evenodd"><mask id="b" fill="#fff"><use xlink:href="#a"/></mask><g mask="url(#b)"><g transform="translate(2 4.5)"><path fill="#009C3B" d="M0 0h20v15H0z"/><path fill="#FFDF00" fill-rule="nonzero" d="M1.7 7.5l8.3 5.3 8.3-5.3L10 2.2z"/><circle fill="#002776" fill-rule="nonzero" cx="10" cy="7.5" r="3.5"/><g transform="translate(6.5 4)"><mask id="d" fill="#fff"><use xlink:href="#c"/></mask><path d="M-7 10.5a8.5 8.5 0 1117 0h-.5a8 8 0 00-16 0H-7z" fill="#FFF" fill-rule="nonzero" mask="url(#d)"/></g><path d="M12.88 7.64l.02.02h.01v.01h.01v.01h.01v.01h.01c.02.04.03.08 0 .12l-.06-.04c.02-.03 0-.06-.03-.08-.03-.03-.05-.03-.07 0l.01.04.01.01.03.04.02.01c.03.05.06.09.03.13-.04.06-.1.05-.14.02h-.02l-.01-.01h-.01v-.01h-.01V7.9h-.01V7.9h-.01l-.01-.01-.01-.01c-.03-.04-.05-.09-.02-.13l.06.04c-.02.03 0 .06.04.09s.07.03.08 0c.01 0 0-.03-.02-.05v-.01l-.02-.01-.02-.02v-.01l-.01-.01c-.04-.04-.06-.08-.03-.13.04-.05.09-.04.13-.02h.01l.02.01.01.01zm-.36-.24h.01v.01h.01l.01.01h.01c.03.04.06.09.02.14l-.06-.04c.02-.03 0-.06-.03-.08h-.01c-.03-.02-.05-.02-.07 0 0 .01 0 .03.02.05h.01v.02l.03.02.02.01c.03.04.07.09.04.14-.04.05-.09.05-.14.03h-.01V7.7h-.01l-.01-.01h-.02v-.01h-.01v-.01h-.01v-.01h-.01l-.01-.01v-.01c-.04-.04-.06-.08-.03-.13l.07.04c-.02.03 0 .06.04.09.04.02.06.02.08 0 0-.01 0-.03-.02-.05l-.01-.01-.03-.03-.01-.01-.02-.02c-.03-.03-.05-.07-.02-.11.03-.06.08-.05.12-.04h.01v.01h.02v.01h.01l.01.01zm-.5-.3l.24.14-.03.06-.2-.12-.03.06.17.1-.03.04-.17-.09-.04.08.21.11-.03.06-.26-.15.16-.29zm-.4-.2l.18.09a.1.1 0 01-.04.2l-.01.1-.01.01-.01.02-.06-.02.01-.01v-.01c.02-.04.03-.07.02-.1l-.12-.06-.05.1-.06-.02.16-.3zm-.26-.12c.06.03.09.1.08.16l-.06-.02c0-.04-.02-.07-.05-.08-.04-.02-.1 0-.12.06-.02.05 0 .11.04.13.03.01.07 0 .1-.02l-.06-.02.02-.05.12.05-.07.16-.04-.02.02-.04a.14.14 0 01-.12 0c-.07-.04-.1-.13-.07-.22.04-.08.13-.12.2-.09zm.29.2l-.04.08.12.06a.04.04 0 10.03-.08l-.11-.06zm-.7-.36c.08.03.11.12.08.2-.03.1-.12.14-.2.1-.08-.02-.11-.11-.08-.2.03-.09.12-.13.2-.1zm-.14.12c-.02.06 0 .11.04.13.05.02.1-.01.12-.07.02-.05 0-.1-.04-.13-.05-.01-.1.02-.12.07zm-.42-.31l.18.06a.1.1 0 010 .2V6.8l-.01.02-.06-.02v-.02c.02-.03.03-.07.01-.1l-.13-.04-.03.11-.06-.01.1-.32zm-.42-.11l.18.04a.1.1 0 01-.05.2l-.13-.03-.03.12-.06-.01.09-.32zm.46.19l-.03.08.13.04a.04.04 0 10.02-.09l-.12-.03zM9.3 6.2l.24.05-.01.05-.19-.03v.05l.15.03-.01.06-.16-.03v.08l.18.03v.05l-.25-.04.05-.3zm.7.18l-.01.08.12.03a.04.04 0 00.02-.08l-.12-.03zm-2.86-.1c.01.1-.04.18-.13.19-.08 0-.15-.06-.16-.15-.02-.1.04-.17.12-.18.09-.01.16.05.17.14zm1.44-.19l.09.01.04.23.09-.22h.08l-.03.34H8.8l.02-.23-.09.22h-.05l-.05-.24-.02.23h-.05l.02-.34zm-1.01.1a.1.1 0 01-.04.1c.02 0 .03.05.03.08v.05h-.05v-.02c0-.03-.01-.07-.04-.1h-.13v.13H7.3l-.02-.33h.19c.06-.01.1.03.11.09zm.57-.12l.29.01v.07l-.23-.01v.06l.19.01v.06h-.2v.08h.24v.07l-.3-.01.01-.34zm-.18.04c.03.03.04.06.05.1v.05c0 .08-.06.14-.14.15H7.7V6.1h.15c.04 0 .07 0 .1.03zm-.98.09c-.05 0-.08.05-.07.11 0 .06.05.1.1.1.05-.01.08-.06.07-.12 0-.06-.05-.1-.1-.1zm.88-.06h-.1l.01.2h.09c.05 0 .09-.04.09-.09v-.02a.09.09 0 00-.1-.1zm-.4.01l-.13.01v.1l.13-.02c.03 0 .04-.02.04-.05a.04.04 0 00-.04-.04zm5.56 1.79c.06-.07.15-.09.22-.04.06.05.07.15.01.23-.05.07-.15.09-.22.03-.06-.05-.07-.15-.01-.22zm.05.04c-.04.04-.04.1 0 .14.04.03.1.01.13-.03.04-.05.04-.1 0-.14-.04-.03-.1-.02-.13.03z" fill="#009C3B" fill-rule="nonzero"/><path d="M9.98 10.25l-.03-.02H10l.01-.04.01.04h.04l-.03.02.01.04-.03-.03-.03.03.01-.04zm1.77-.23l.02.07h.07l-.06.05.03.06-.06-.04-.06.04.02-.06-.06-.05h.08l.02-.07zm-.7-.29l.03.09h.09l-.08.05.03.09-.07-.06-.08.06.03-.09-.07-.05h.09l.03-.09zm.7-.08l.03.08h.1l-.08.06.03.08-.08-.05-.07.05.03-.08-.08-.06h.1l.02-.08zm-.4-.2l.02.07h.07l-.06.04.03.07-.06-.04-.06.04.02-.07-.06-.04h.08l.02-.07zm.75-.05l.02.06h.08l-.06.05.02.07-.06-.05-.06.05.02-.07-.06-.05h.08l.02-.06zm-1.33-.04l.02.07h.08l-.06.04.02.07-.06-.04-.06.04.03-.07-.06-.04h.07l.02-.07zm.97-.03l.02.07h.07l-.06.04.03.07-.06-.04-.06.04.02-.07-.06-.04h.08l.02-.07zM8.6 9.2l.03.1h.1l-.08.06.03.1-.08-.06-.1.07.04-.1-.09-.07h.11l.04-.1zm3.78-.02l.03.09h.09l-.07.05.02.09-.07-.05-.07.05.03-.09-.08-.05h.1l.02-.09zM10 8.92l.03.1h.11l-.09.07.04.1-.09-.06-.09.06.04-.1-.1-.06h.12l.03-.1zm2.6 0l.02.08h.1l-.08.05.03.09-.07-.05-.08.05.03-.09-.07-.05h.09l.03-.09zm-4.52.02L8.1 9h.07l-.06.04.02.07-.05-.04-.06.04.02-.07-.06-.04h.07l.03-.07zm4.37-.36l.04.1h.1l-.08.07.03.1-.09-.06-.09.06.04-.1-.09-.07h.1l.04-.1zm.49.08l.02.07h.07l-.06.04.03.07-.06-.04-.06.04.02-.07-.06-.04h.08l.02-.07zm-4.76-.1l.03.1h.09l-.07.05.02.08-.07-.05-.07.05.03-.08-.08-.06h.1l.02-.08zm-1.16-.03l.03.09h.1l-.08.05.03.09-.08-.06-.07.06.03-.09-.08-.05H7l.02-.09zm2.8.02l.02.05h.05l-.04.03.02.05-.05-.03-.04.03.02-.05-.04-.03h.05l.01-.05zm.58-.3l.03.09h.1l-.08.05.03.09-.08-.06-.07.06.03-.09-.07-.05h.09l.02-.09zM7.45 8.2l.04.1h.1l-.08.07.03.1-.09-.06-.09.06.04-.1-.09-.06h.1l.04-.1zm2.2.09l.02.07h.07l-.06.04.03.07-.06-.05-.06.05.02-.07-.06-.04h.08l.02-.07zM7.8 8.06l.01.05h.05l-.04.03.02.05-.04-.03-.05.03.02-.05-.04-.03h.05l.02-.05zm2.2-.12l.03.08h.09l-.07.06.02.08-.07-.05-.07.05.02-.08-.07-.06h.1l.02-.08zm-1.33-.42l.02.08h.1l-.08.06.03.08-.07-.05-.08.05.03-.08-.07-.06h.09l.03-.08zm2.28-.3l.02.07h.08l-.06.05.02.06-.06-.04-.06.04.03-.06-.06-.05h.07l.02-.07zm-3.8-.5l.03.1h.1l-.08.07.03.1-.09-.06-.09.06.04-.1L7 6.83h.1l.04-.1zm3.94-.46l.03.1h.1l-.08.07.03.1-.08-.06-.1.07.04-.1-.09-.07h.11l.04-.1z" fill="#FFF" fill-rule="nonzero"/></g></g></g></svg>