<svg width="24" height="24" viewBox="0 0 24 24" xmlns="http://www.w3.org/2000/svg"><title>Icon/Essential/Settings</title><path d="M16.08 2.18a2.26 2.26 0 011.39 2.03v.17l-.06 1.16a1 1 0 00.93 1.06h.12l1.17-.06a2.26 2.26 0 011.75 3.8l-.13.13-.87.78a1 1 0 00-.08 1.41l.08.09.87.78a2.26 2.26 0 01-1.46 3.93h-.17l-1.16-.06a1 1 0 00-1.06.94v.12l.06 1.17a2.26 2.26 0 01-3.8 1.75l-.12-.13-.79-.87a1 1 0 00-1.4-.08l-.1.09-.78.86a2.26 2.26 0 01-3.93-1.45v-.17l.06-1.17a1 1 0 00-.93-1.05h-.13l-1.16.05a2.26 2.26 0 01-1.76-3.8l.13-.12.87-.79a1 1 0 00.08-1.4l-.09-.1-.86-.78A2.26 2.26 0 014.2 6.54h.16l1.17.06a1 1 0 001.06-.94v-.12l-.06-1.17a2.26 2.26 0 013.8-1.75l.13.13.78.86a1 1 0 001.41.09l.09-.09.79-.86c.64-.71 1.65-.94 2.54-.57zM14.55 3.5l-.09.09-.78.86a2.26 2.26 0 01-3.22.14l-.13-.14-.79-.86a1 1 0 00-1.75.6v.12l.06 1.17a2.26 2.26 0 01-2.18 2.37h-.2l-1.16-.06a1 1 0 00-.81 1.66l.09.1.86.78a2.26 2.26 0 01.14 3.22l-.14.13-.86.78a1 1 0 00.6 1.75h.13l1.16-.05a2.26 2.26 0 012.37 2.17v.2l-.06 1.16a1 1 0 001.66.81l.1-.09.78-.86a2.26 2.26 0 013.22-.14l.13.14.78.86a1 1 0 001.75-.6v-.12l-.06-1.17a2.26 2.26 0 012.18-2.37h.2l1.16.06a1 1 0 00.81-1.66l-.09-.09-.86-.78a2.26 2.26 0 01-.14-3.22l.14-.14.86-.78a1 1 0 00-.6-1.75h-.12l-1.17.06a2.26 2.26 0 01-2.36-2.18v-.2l.06-1.16a1 1 0 00-1.67-.81zM12 7.63a4.37 4.37 0 110 8.75 4.37 4.37 0 010-8.75zm0 1.25a3.13 3.13 0 100 6.25 3.13 3.13 0 000-6.25z" fill="currentColor" fill-rule="evenodd"/></svg>