<svg width="24" height="24" viewBox="0 0 24 24" xmlns="http://www.w3.org/2000/svg"><title>Icon/Ecom/Receipt Slip</title><path d="M18.25 2c1.04 0 1.88.84 1.88 1.88v17.5c0 .55-.68.83-1.07.44L17 19.76l-2.06 2.06a.63.63 0 01-.8.07l-.08-.07L12 19.76l-2.06 2.06a.63.63 0 01-.8.07l-.08-.07L7 19.76l-2.06 2.06a.63.63 0 01-1.06-.35V3.87C3.88 2.84 4.7 2 5.75 2zm0 1.25H5.75a.62.62 0 00-.63.63v15.99l1.44-1.44a.63.63 0 01.8-.07l.08.07L9.5 20.5l2.06-2.06a.63.63 0 01.8-.07l.08.07 2.06 2.06 2.06-2.06a.63.63 0 01.8-.07l.08.07 1.43 1.44v-16a.63.63 0 00-.53-.61l-.09-.01zM12 13.88a.62.62 0 01.1 1.24H7a.62.62 0 01-.1-1.24H12zm4.69-.63h.1a.94.94 0 11-.21 0h.1zM12 10.12a.62.62 0 01.1 1.25H7a.62.62 0 01-.1-1.24H12zm4.69-.62h.1a.94.94 0 11-.21 0h.1zM12 6.37a.62.62 0 01.1 1.25H7a.62.62 0 01-.1-1.24H12zm4.69-.62h.1a.94.94 0 11-.21 0h.1z" fill="currentColor" fill-rule="evenodd" fill-opacity=".84"/></svg>