<svg width="24" height="24" viewBox="0 0 24 24" xmlns="http://www.w3.org/2000/svg"><title>Icon/SBU/ZRD/Default</title><path d="M7.14 14.47a2.02 2.02 0 011.45.6 2.05 2.05 0 01.44 2.27 2.03 2.03 0 01-1.09 1.1c-.25.1-.52.14-.8.13a2.04 2.04 0 01-2.05-2.05 2.02 2.02 0 01.6-1.45 2.04 2.04 0 011.45-.6zm6.28 0a2.02 2.02 0 011.45.6 2.05 2.05 0 01.44 2.27 2.03 2.03 0 01-1.09 1.1c-.25.1-.52.14-.8.13a2.04 2.04 0 01-2.05-2.05 2.02 2.02 0 01.6-1.45 2.04 2.04 0 011.45-.6zM7.77 9.61l8.58 3.02v.96h.21l3.27 2.89.75-.08.63.5-4.48.58a.75.75 0 01-.68-.28.83.83 0 01-.16-.35v-.33a2.46 2.46 0 00-1.21-2.13v-.97l-6.9-2.47V9.61zm-.63 5.99a.94.94 0 00-.92.92c0 .18.05.34.13.49.08.14.2.25.33.33.15.08.3.11.46.1.17 0 .32-.04.47-.13a.92.92 0 00-.47-1.71zm6.24 0a.94.94 0 00-.92.92c0 .18.04.34.13.49.08.14.2.25.33.33.14.08.3.11.46.1.17 0 .32-.04.46-.13a.92.92 0 00-.46-1.71zm-5.57-4.27l6.53 2.34v.5c-.14-.05-.28-.1-.44-.12a2.76 2.76 0 00-1.45.16 2.52 2.52 0 00-1.5 2.71c.03.13.07.23.13.31h-1.5a2.48 2.48 0 00-.77-2.68c-.3-.24-.6-.4-.95-.5l-.05-.04v-2.68zM5.01 8.4l2.26.8v4.85h-.13a2.5 2.5 0 00-2.38 1.76l-1.26-.25-.7-.72.33-3.13.92-.88.25-2.43H5zm8.96-2.97a.3.3 0 01.18.06.3.3 0 01.11.36l-.3.96 1.35 5.06-.72-.29-.54-2.1h-1.88l.3 1.35-.51-.17-.25-1.13h-1.22l.17.67-.5-.17-.13-.5H8.78L7.8 9.2l.67-3.52a.39.39 0 01.12-.17.34.34 0 01.22-.08h5.15zM5.17 9.2a.28.28 0 00-.29.29.29.29 0 00.3.3c.08 0 .15-.04.2-.1a.28.28 0 00.1-.2.29.29 0 00-.3-.3zm8.38-1.43h-1.8l.3 1.3h1.83l-.33-1.3zm-2.26 0h-1.22l.3 1.3h1.21l-.3-1.3zm-1.68 0h-.87l-.26 1.3h1.43l-.3-1.3zm3.52-1.46h-1.76l.25 1.04 1.76-.04v-.04l-.04-.17-.08-.25v-.04l-.13-.5zm-2.18 0H9.74l.25 1.04h1.21l-.25-1.04zm-1.67 0h-.25l-.21 1.04h.71l-.25-1.04z" fill="#000" fill-rule="evenodd" fill-opacity=".84"/></svg>