<svg width="24" height="24" viewBox="0 0 24 24" xmlns="http://www.w3.org/2000/svg"><title>Icon/Communication/Email Check</title><path d="M16.38 10.75a5.63 5.63 0 110 11.25 5.63 5.63 0 010-11.25zm0 1.25a4.37 4.37 0 100 8.75 4.37 4.37 0 000-8.75zm2.6 2.42c.25.19.32.52.18.8l-.06.08-2.42 3.23a1.25 1.25 0 01-1.78.22l-.1-.1-1.25-1.24a.62.62 0 01.8-.96l.08.07 1.25 1.25 2.42-3.22c.21-.28.6-.34.88-.13zM18.88 2a1.87 1.87 0 011.86 1.73l.01.15V9.5a.62.62 0 01-1.24.1l-.01-.1V4.13L13.44 8.8c-1.16.9-2.76.93-3.96.12l-.17-.12-6.06-4.67v9.75c0 .3.23.57.53.61l.1.01h5a.62.62 0 01.09 1.24l-.1.01h-5c-.98 0-1.79-.76-1.86-1.73L2 13.88v-10c0-.45.15-.85.4-1.17h.01l.01-.02c.32-.39.78-.64 1.3-.68L3.88 2h15zm-.28 1.25H4.15l5.93 4.56c.71.55 1.7.59 2.45.1l.14-.1 5.93-4.56z" fill="currentColor" fill-rule="evenodd" fill-opacity=".84"/></svg>