<svg width="24" height="24" viewBox="0 0 24 24" xmlns="http://www.w3.org/2000/svg"><title>Icon/Essential/Logout</title><path d="M4.76 2.63h10.26c.95.04 1.7.81 1.73 1.72v3.9a.62.62 0 01-1.24.1l-.01-.1V4.47a.58.58 0 00-.43-.58L15 3.87H4.79a.57.57 0 00-.54.53V19.53c-.01.28.18.53.43.58l.08.02h10.2c.28-.02.5-.24.54-.53v-3.85a.62.62 0 011.24-.1l.01.1v3.72c.04.95-.65 1.77-1.6 1.9H4.72A1.82 1.82 0 013 19.65V4.38c.03-.89.7-1.63 1.6-1.74l.16-.02zm14.85 5.73l.08.08 3.13 3.13.05.05-.05-.06.04.04.06.1.04.1.01.01a.62.62 0 01.02.33l-.03.09a.62.62 0 01-.07.13l-.04.05-3.16 3.16a.62.62 0 01-.95-.8l.07-.08 2.05-2.06H9.25a.62.62 0 01-.1-1.24l.1-.01h11.62L18.8 9.32a.63.63 0 01-.07-.8l.07-.08a.63.63 0 01.8-.08z" fill="#000" fill-rule="evenodd" fill-opacity=".84"/></svg>