<svg width="24" height="24" viewBox="0 0 24 24" xmlns="http://www.w3.org/2000/svg"><title>Icon/SBU/ZPS/Default</title><path d="M15.56 5.39v.9h-2.47V7h3.25L18.6 9.1h.44V7.96h2.47V18h-2.47v-1.46h-1.06v1.29c0 .15-.02.28-.07.4a.64.64 0 01-.2.28.46.46 0 01-.3.1H8.28l-1.9-1.9H4.74a.62.62 0 01-.4-.15.97.97 0 01-.28-.4c-.07-.16-.1-.33-.1-.52v-1.73H3.4v2.52h-.9V8.25h.84v2.52h.56V9.7c0-.2.04-.38.12-.55a.97.97 0 01.29-.37c.12-.1.25-.14.38-.14h1.45v-.9c0-.13.03-.26.1-.38a.75.75 0 01.23-.29c.1-.07.22-.11.35-.11h3.2v-.68H7.48v-.9h8.07zm-2.47 3.59H11.3L8.84 13.5h3.64l-1.35 3.65 3.59-5.21h-3.2l1.57-2.97z" fill="#000" fill-rule="evenodd" fill-opacity=".84"/></svg>