<svg width="24" height="24" viewBox="0 0 24 24" xmlns="http://www.w3.org/2000/svg"><title>Icon/Ecom/Delivery Truck</title><path d="M15.75 13.88a2.5 2.5 0 100 5 2.5 2.5 0 000-5zm-10 0a2.5 2.5 0 100 5 2.5 2.5 0 000-5zM3.87 5.12c-.98 0-1.79.77-1.86 1.73L2 7v6.25a.62.62 0 001.24.1l.01-.1V7c0-.31.23-.57.53-.62h10.1c.3 0 .57.23.61.53l.01.09v5c0 .31.23.57.53.62h.1c.3 0 .57-.23.61-.53l.01-.09V7.62H17v3.13c0 .99.76 1.8 1.73 1.87h2.02v3.13c0 .31-.23.57-.53.62h-.72a.62.62 0 00-.1 1.25h.73c.98 0 1.79-.76 1.86-1.72l.01-.15v-5a4.38 4.38 0 00-4.16-4.37h-2.2a1.88 1.88 0 00-1.62-1.25H3.88zm11.88 10a1.25 1.25 0 110 2.5 1.25 1.25 0 010-2.5zm-10 0a1.25 1.25 0 110 2.5 1.25 1.25 0 010-2.5zm3.75 1.26a.62.62 0 00-.1 1.24H12a.62.62 0 00.1-1.24H9.5zm11.25-5.8v.8h-1.88a.63.63 0 01-.61-.54l-.01-.09V7.69a3.13 3.13 0 012.5 2.88z" fill="currentColor" fill-rule="evenodd" fill-opacity=".84"/></svg>