<svg width="24" height="24" viewBox="0 0 24 24" xmlns="http://www.w3.org/2000/svg"><title>Icon/Essential/Layout-module Filled</title><path d="M6.13 16.37c.82 0 1.5.67 1.5 1.5v2.42c0 .83-.68 1.5-1.5 1.5H3.7a1.5 1.5 0 01-1.5-1.5v-2.42c0-.83.67-1.5 1.5-1.5h2.42zm7.08 0c.83 0 1.5.67 1.5 1.5v2.42c0 .83-.67 1.5-1.5 1.5h-2.42a1.5 1.5 0 01-1.5-1.5v-2.42c0-.83.67-1.5 1.5-1.5h2.42zm7.08 0c.83 0 1.5.67 1.5 1.5v2.42c0 .83-.67 1.5-1.5 1.5h-2.41a1.5 1.5 0 01-1.5-1.5v-2.42c0-.83.67-1.5 1.5-1.5h2.41zM6.13 9.3c.82 0 1.5.67 1.5 1.5v2.42c0 .82-.68 1.5-1.5 1.5H3.7a1.5 1.5 0 01-1.5-1.5v-2.42c0-.83.67-1.5 1.5-1.5h2.42zm7.08 0c.83 0 1.5.67 1.5 1.5v2.42c0 .82-.67 1.5-1.5 1.5h-2.42a1.5 1.5 0 01-1.5-1.5v-2.42c0-.83.67-1.5 1.5-1.5h2.42zm7.08 0c.83 0 1.5.67 1.5 1.5v2.42c0 .82-.67 1.5-1.5 1.5h-2.41a1.5 1.5 0 01-1.5-1.5v-2.42c0-.83.67-1.5 1.5-1.5h2.41zM6.13 2.2c.82 0 1.5.67 1.5 1.5v2.41c0 .83-.68 1.5-1.5 1.5H3.7a1.5 1.5 0 01-1.5-1.5V3.71c0-.83.67-1.5 1.5-1.5h2.42zm7.08 0c.83 0 1.5.67 1.5 1.5v2.41c0 .83-.67 1.5-1.5 1.5h-2.42a1.5 1.5 0 01-1.5-1.5V3.71c0-.83.67-1.5 1.5-1.5h2.42zm7.08 0c.83 0 1.5.67 1.5 1.5v2.41c0 .83-.67 1.5-1.5 1.5h-2.41a1.5 1.5 0 01-1.5-1.5V3.71c0-.83.67-1.5 1.5-1.5h2.41z" fill="currentColor" fill-rule="evenodd" fill-opacity=".84"/></svg>