<svg width="24" height="24" viewBox="0 0 24 24" xmlns="http://www.w3.org/2000/svg"><title>Icon/SBU/New/ZRD</title><path d="M7.5 10.1a.5.5 0 01.1.01l4.5.87a1 1 0 00.2.02h2.55c.27 0 .5.22.5.5v.04l-.14.96h-4.96a.25.25 0 00-.24.2l-.01.05c0 .12.08.22.2.24l.05.01h4.89l-.15 1.04a3 3 0 00-3.49 2.78V17.5h-2V17A3 3 0 007 14.04v-3.43c0-.28.22-.5.5-.5zm-1 4.4a2.5 2.5 0 110 5 2.5 2.5 0 010-5zm8 0a2.5 2.5 0 110 5 2.5 2.5 0 010-5zm-8 1a1.5 1.5 0 100 3 1.5 1.5 0 000-3zm8 0a1.5 1.5 0 100 3 1.5 1.5 0 000-3zM6 9.5c.28 0 .5.22.5.5v4a3 3 0 00-3 3v.5a.5.5 0 01-.5-.41V17a.5.5 0 00-.41-.5H2.5A.5.5 0 012 16v-5a.5.5 0 01.41-.5h.09A.5.5 0 003 10c0-.28.22-.5.5-.5H6zm10.5 1c.28 0 .5.22.5.5v1.09c0 .26.1.52.3.7l2.4 2.42a1 1 0 00.71.29h1.09c.28 0 .5.22.5.5v.07a.5.5 0 01-.43.5l-3.93.55-.14.02V17a3 3 0 00-2.02-2.84l.46-3.23a.5.5 0 01.5-.43h.06zm-2.56-6a.35.35 0 01.31.5l-.15.3a.5.5 0 00-.01.41l1.8 3.56a.5.5 0 010 .46l-.25.5a.5.5 0 01-.45.27h-3.1a1 1 0 01-.19-.02L7.5 9.6a.5.5 0 01-.41-.5L7.1 9l.83-4.08a.5.5 0 01.5-.42h5.51zm-.89 1H8.83l-.6 3h6.15l-1.22-2.42a1.5 1.5 0 01-.1-.46V5.5z" fill="currentColor" fill-rule="evenodd"/></svg>