<!-- Generated by IcoMoon.io -->
<svg version="1.1" xmlns="http://www.w3.org/2000/svg" width="24" height="24" viewBox="0 0 24 24">
<title>zepicons-cat-service</title>
<path d="M7.618 9.492l-2.353-1.020-2.589-3.922 1.804-1.883 3.922 2.589 1.020 2.353 5.335 5.335c-0.235 0.314-0.471 0.628-0.628 0.863l-1.177 0.941-5.335-5.256zM6.912 26.751c0.628-0.628 0.628-1.647 0-2.353-0.628-0.628-1.726-0.628-2.353 0-0.628 0.706-0.628 1.726 0 2.353s1.726 0.628 2.353 0zM26.602 15.062c0 0-7.296 0.863-8.943 2.51l-9.885 10.198c0 0-2.275 1.961-4.236 0s0-4.158 0-4.158l11.454-9.1c2.667-2.589 3.452-7.688 4.001-9.335s1.098-1.726 3.609-2.275c2.51-0.549 4.942 0.941 4.942 0.941l-4.315 1.883-0.078 1.177 1.020 2.353 5.178-2.197c0 0-1.098 3.766-3.922 5.099l1.177 2.903zM27.073 25.496l0.471-0.471-5.884-5.726-0.471 0.47 5.884 5.728zM25.74 26.829l0.47-0.47-6.825-6.591-0.47 0.471 6.825 6.589zM21.189 17.259l7.845 7.531c0 0 1.021 1.019-0.785 2.823-1.882 1.805-2.902 0.785-2.902 0.785l-8.709-8.315 1.726-1.727c0.392-0.392 1.491-0.785 2.824-1.098z"></path>
</svg>
