<!-- Generated by IcoMoon.io -->
<svg version="1.1" xmlns="http://www.w3.org/2000/svg" width="32" height="32" viewBox="0 0 32 32">
<title>zepicons-map-marker</title>
<path d="M16 15.333c-1.841 0-3.333-1.492-3.333-3.333 0-0.884 0.351-1.732 0.976-2.357s1.473-0.976 2.357-0.976c1.841 0 3.333 1.492 3.333 3.333 0 0.884-0.351 1.732-0.976 2.357s-1.473 0.976-2.357 0.976v0zM16 2.667c-5.155 0-9.333 4.179-9.333 9.333 0 7 9.333 17.333 9.333 17.333s9.333-10.333 9.333-17.333c0-5.155-4.179-9.333-9.333-9.333z"></path>
</svg>
