<!-- Generated by IcoMoon.io -->
<svg version="1.1" xmlns="http://www.w3.org/2000/svg" width="24" height="24" viewBox="0 0 24 24">
<title>zepicons-clock</title>
<path d="M16 26.667c5.891 0 10.667-4.776 10.667-10.667s-4.776-10.667-10.667-10.667c-5.891 0-10.667 4.776-10.667 10.667s4.776 10.667 10.667 10.667v0zM16 2.667c3.536 0 6.928 1.405 9.428 3.905s3.905 5.892 3.905 9.428c0 7.364-5.97 13.333-13.333 13.333-7.373 0-13.333-6-13.333-13.333 0-7.364 5.97-13.333 13.333-13.333v0zM16.667 9.333v7l6 3.56-1 1.64-7-4.2v-8h2z"></path>
</svg>
