
<svg width="20px" height="24px" viewBox="0 0 20 24" version="1.1" xmlns="http://www.w3.org/2000/svg" xmlns:xlink="http://www.w3.org/1999/xlink">
    <title>zepicons-user2</title>
    <g id="Header-&amp;-Footer" stroke="none" stroke-width="1" fill="none" fill-rule="evenodd" opacity="0.54">
        <g id="Header_Desktop" transform="translate(-1338.000000, -28.000000)" fill="inherit" fill-rule="nonzero">
            <g id="ICON-/-Streamline-3.0-/-single-man@24x24" transform="translate(1336.000000, 28.000000)">
                <path d="M12,13 C17.3852136,13 21.75,17.3647864 21.75,22.75 C21.75,23.1642136 21.4142136,23.5 21,23.5 L21,23.5 L3,23.5 C2.58578644,23.5 2.25,23.1642136 2.25,22.75 C2.25,17.3647864 6.61478644,13 12,13 Z M12,14.5 C7.69636836,14.5 4.16302241,17.7942553 3.78371123,21.9990168 L3.78371123,21.9990168 L20.216,22 C19.8444151,17.8767016 16.4409816,14.6295365 12.2522484,14.5037816 L12.2522484,14.5037816 Z M12,0.5 C15.1612462,0.5 17.7737322,2.84604261 18.1916582,5.89232811 C18.1924764,5.89856578 18.1932809,5.90425663 18.1940186,5.90994801 C18.2309194,6.18427769 18.25,6.46490729 18.25,6.75 C18.25,10.2022136 15.4522136,13 12,13 C8.54778644,13 5.75,10.2022136 5.75,6.75 C5.75,3.29778644 8.54778644,0.5 12,0.5 Z M7.50632786,5.20946468 L7.4791945,5.28786882 C7.33038925,5.74845116 7.25,6.2398193 7.25,6.75 C7.25,9.37378644 9.37621356,11.5 12,11.5 C14.5183604,11.5 16.5783304,9.54121992 16.7398073,7.06376248 C15.7997041,7.35367472 14.8201404,7.50079507 13.8333016,7.50000607 C11.5100897,7.50093771 9.27301275,6.68303911 7.50632786,5.20946468 Z M12,2 C10.466328,2 9.10266212,2.72646537 8.23426746,3.8541311 C9.76494949,5.23189847 11.7584145,6.00083733 13.8336011,6.00000319 C14.774778,6.00075753 15.7075359,5.84312775 16.5928898,5.53507241 C16.0553692,3.49903835 14.2030858,2 12,2 Z" id="Combined-Shape"></path>
            </g>
        </g>
    </g>
</svg>