<!-- Generated by IcoMoon.io -->
<svg version="1.1" xmlns="http://www.w3.org/2000/svg" width="32" height="32" viewBox="0 0 32 32">
<title>zepicons-systems-products</title>
<path d="M15.92 18.308c-1.537 0-2.781-1.256-2.781-2.808s1.244-2.808 2.781-2.808c1.537 0 2.781 1.256 2.781 2.808s-1.244 2.808-2.781 2.808zM25.883 15.25c0.459 0 0.912-0.052 1.339-0.155v3.58h-1.537l-2.041 4.231h-0.976c-1.779 1.648-4.146 2.653-6.748 2.653-2.028 0-3.916-0.612-5.492-1.661l-2.181 1.262 0.472 0.831-1.154 0.67-4.707-8.3 1.154-0.67 0.651 1.14 1.575-0.908c-0.191-0.779-0.293-1.591-0.293-2.428 0-0.039 0-0.077 0-0.116h-1.907v0.959h-1.327v-9.569h1.327v1.314h5.128c1.129-1.050 2.494-1.835 4.012-2.273v-0.67h5.479v0.676c0.453 0.129 0.893 0.29 1.314 0.483-0.313 0.766-0.491 1.603-0.491 2.486 0 0.625 0.089 1.223 0.255 1.797-1.052-0.831-2.373-1.326-3.814-1.326-3.419 0-6.187 2.795-6.187 6.246s2.768 6.246 6.187 6.246c3.419 0 6.187-2.795 6.187-6.246 0-0.58-0.077-1.133-0.223-1.668 1.097 0.882 2.487 1.417 3.999 1.417zM25.883 4.934c-2.105 0-3.814 1.726-3.814 3.851s1.709 3.851 3.814 3.851c2.105 0 3.814-1.726 3.814-3.851s-1.709-3.851-3.814-3.851zM25.883 4.013c2.615 0 4.733 2.131 4.726 4.772 0 2.634-2.118 4.772-4.726 4.772s-4.726-2.138-4.726-4.772c0-2.634 2.118-4.772 4.726-4.772zM25.883 9.538c0.415 0 0.753-0.341 0.753-0.76s-0.338-0.76-0.753-0.76c-0.415 0-0.753 0.341-0.753 0.76s0.338 0.76 0.753 0.76zM27.484 8.991l0.453 0.361c0.038 0.032 0.051 0.097 0.026 0.142l-0.427 0.753c-0.026 0.045-0.089 0.064-0.134 0.045l-0.536-0.219c-0.115 0.084-0.23 0.155-0.364 0.213l-0.077 0.573c-0.006 0.052-0.057 0.090-0.108 0.090h-0.861c-0.057 0-0.102-0.039-0.108-0.090l-0.077-0.573c-0.134-0.052-0.249-0.129-0.364-0.213l-0.536 0.219c-0.051 0.019-0.108 0-0.134-0.045l-0.427-0.753c-0.026-0.052-0.013-0.109 0.026-0.142l0.453-0.361c-0.006-0.071-0.013-0.142-0.013-0.213s0.006-0.148 0.013-0.219l-0.453-0.354c-0.038-0.032-0.051-0.097-0.026-0.142l0.427-0.753c0.026-0.045 0.089-0.064 0.134-0.045l0.536 0.219c0.115-0.084 0.23-0.161 0.364-0.213l0.077-0.573c0.006-0.051 0.057-0.090 0.108-0.090h0.861c0.057 0 0.102 0.039 0.108 0.090l0.077 0.573c0.134 0.051 0.249 0.129 0.364 0.213l0.536-0.219c0.051-0.019 0.108 0 0.134 0.045l0.427 0.753c0.026 0.052 0.013 0.109-0.026 0.142l-0.453 0.354c0.006 0.077 0.013 0.148 0.013 0.219s-0.006 0.142-0.013 0.213z"></path>
</svg>
