<!-- Generated by IcoMoon.io -->
<svg version="1.1" xmlns="http://www.w3.org/2000/svg" width="24" height="24" viewBox="0 0 24 24">
<title>zepicons-global</title>
<path d="M23.867 23.187c-0.347-1.067-1.347-1.853-2.533-1.853h-1.333v-4c0-0.736-0.597-1.333-1.333-1.333h-8v-2.667h2.667c0.736 0 1.333-0.597 1.333-1.333v-2.667h2.667c1.473 0 2.667-1.194 2.667-2.667v-0.547c3.907 1.573 6.667 5.4 6.667 9.88 0 2.773-1.067 5.293-2.8 7.187v0zM14.667 26.573c-5.267-0.653-9.333-5.133-9.333-10.573 0-0.827 0.107-1.627 0.28-2.387l6.387 6.387v1.333c0 1.473 1.194 2.667 2.667 2.667v2.573zM16 2.667c-7.364 0-13.333 5.97-13.333 13.333 0 3.536 1.405 6.928 3.905 9.428s5.892 3.905 9.428 3.905c3.536 0 6.928-1.405 9.428-3.905s3.905-5.892 3.905-9.428c0-3.536-1.405-6.928-3.905-9.428s-5.892-3.905-9.428-3.905z"></path>
</svg>
