<!-- Generated by IcoMoon.io -->
<svg version="1.1" xmlns="http://www.w3.org/2000/svg" width="32" height="32" viewBox="0 0 32 32">
<title>zepicons-sa</title>
<path fill="#199d00" d="M-4 2.667h41.284v27.523h-41.284z"></path>
<path fill="#fff" d="M6.404 10.468c-0.044 0.644-0.105 1.776 0.444 1.892 0.66 0.061 0.294-1.121 0.533-1.332 0.050-0.111 0.133-0.111 0.139 0.028v0.999c-0.006 0.333 0.205 0.422 0.372 0.494 0.178-0.017 0.289-0.011 0.361 0.155l0.078 1.737c0 0 0.405 0.111 0.422-0.977 0.022-0.638-0.128-1.176-0.039-1.298 0-0.122 0.155-0.128 0.266-0.072 0.172 0.122 0.25 0.277 0.516 0.211 0.411-0.111 0.655-0.311 0.666-0.621-0.014-0.306-0.078-0.608-0.189-0.893 0.017-0.056-0.083-0.194-0.061-0.25 0.072 0.111 0.183 0.105 0.211 0-0.072-0.233-0.178-0.449-0.355-0.544-0.144-0.128-0.355-0.1-0.433 0.166-0.009 0.35 0.109 0.691 0.333 0.96 0.070 0.151 0.098 0.317 0.083 0.483-0.117 0.072-0.233 0.039-0.333-0.061 0 0-0.327-0.25-0.327-0.3 0.089-0.555 0.022-0.616-0.028-0.771-0.033-0.211-0.133-0.277-0.216-0.422-0.083-0.089-0.189-0.089-0.244 0-0.144 0.25-0.078 0.782 0.028 1.021 0.078 0.222 0.189 0.361 0.133 0.361-0.044 0.122-0.133 0.094-0.2-0.050-0.082-0.306-0.122-0.621-0.117-0.938-0.028-0.25-0.056-0.777-0.222-0.91-0.1-0.133-0.25-0.067-0.3 0.056-0.014 0.241-0.008 0.482 0.017 0.721 0.111 0.388 0.144 0.744 0.2 1.149 0.017 0.544-0.316 0.239-0.3-0.033 0.078-0.35 0.056-0.904-0.011-1.043-0.056-0.139-0.117-0.172-0.244-0.15-0.111-0.011-0.372 0.277-0.444 0.766 0 0-0.067 0.25-0.094 0.466-0.039 0.25-0.2 0.427-0.316-0.033-0.1-0.333-0.161-1.16-0.327-0.966v0z"></path>
<path fill="#fff" d="M8.202 13.11l-1.72 0.827c0.017-0.388 0.816-1.099 1.359-1.11 0.355 0.011 0.266 0.139 0.361 0.277v0.006z"></path>
<path fill="#fff" d="M7.902 13.648c-0.91 2.336 2.12 2.663 2.458 0.094 0.033-0.105 0.166-0.211 0.183-0.039-0.072 2.331-2.342 2.486-2.73 1.753-0.094-0.166-0.122-0.555-0.133-0.788-0.056-0.455-0.3-0.277-0.333 0.178-0.039 0.25-0.033 0.322-0.033 0.566 0.122 1.831 3.052 1.043 3.529-0.472 0.25-0.838-0.044-1.459 0.094-1.459 0.289 0.316 0.699 0.044 0.788-0.067 0.039-0.056 0.133-0.089 0.2-0.017 0.222 0.166 0.627 0.083 0.71-0.2 0.044-0.283 0.083-0.572 0.094-0.871-0.183 0.056-0.322 0.094-0.333 0.166l-0.039 0.255c-0.017 0.078-0.178 0.083-0.183-0.022-0.072-0.316-0.361-0.361-0.538 0.133-0.117 0.1-0.333 0.111-0.355-0.028 0.028-0.333-0.105-0.377-0.372-0.222l-0.261-1.942c0.111 0 0.216 0.078 0.316-0.050-0.111-0.35-0.35-1.054-0.477-1.11-0.067-0.078-0.117-0.028-0.2-0.011-0.144 0.044-0.277 0.166-0.233 0.405l0.444 2.786c0.022 0.117-0.078 0.277-0.205 0.261-0.216-0.15-0.272-0.444-0.638-0.433-0.272 0-0.577 0.294-0.61 0.577-0.050 0.222-0.067 0.466 0 0.66 0.183 0.222 0.411 0.205 0.61 0.15 0.161-0.067 0.294-0.227 0.355-0.189 0.039 0.050 0.006 0.583-0.771 0.999-0.466 0.211-0.843 0.255-1.043-0.128-0.122-0.239 0.011-1.149-0.294-0.943v0.006z"></path>
<path fill="#fff" d="M11.748 11.268c0.183-0.061 1.043-1.054 1.043-1.054l-0.128-0.1c-0.050-0.044-0.044-0.083 0-0.128 0.211-0.122 0.144-0.4 0.033-0.522-0.147-0.073-0.319-0.073-0.466 0-0.15 0.15-0.183 0.377-0.067 0.522 0.111 0.056 0.233 0.166 0.155 0.233-0.355 0.377-1.321 1.027-1.21 1.054 0.022 0.028 0.621 0.028 0.638 0v-0.006zM6.537 14.763c-0.322 0.516-0.35 1.287-0.166 1.515 0.089 0.111 0.244 0.155 0.361 0.122 0.205-0.089 0.294-0.499 0.244-0.649-0.067-0.111-0.122-0.122-0.189-0.033-0.144 0.289-0.205 0.089-0.216-0.072-0.022-0.305 0.006-0.594 0.039-0.816 0.039-0.227 0-0.161-0.072-0.067v0zM20.36 13.931c-0.311-0.671-0.744-1.337-0.882-1.593-0.418-0.663-0.863-1.309-1.332-1.937-0.333-0.4 0.549 0.166-0.111-0.627-0.25-0.222-0.266-0.227-0.477-0.405-0.105-0.078-0.361-0.211-0.405 0.011-0.022 0.159-0.015 0.321 0.022 0.477 0.022 0.111 0.183 0.294 0.266 0.405 1.054 1.415 1.992 2.852 2.891 4.65 0.144-0.067 0.111-0.866 0.028-0.982v0z"></path>
<path fill="#fff" d="M18.989 16.189c-0.061 0.072 0.15 0.366 0.427 0.366 0.466-0.055 0.871-0.316 1.248-0.999 0.1-0.166 0.277-0.499 0.283-0.771 0.039-1.554-0.078-2.763-0.311-3.884-0.011-0.111 0-0.244 0.017-0.277 0.028-0.033 0.128 0 0.183-0.083 0.078-0.083-0.211-0.755-0.372-1.010-0.061-0.117-0.083-0.194-0.178 0.011-0.105 0.166-0.166 0.461-0.166 0.732 0.222 1.531 0.294 2.874 0.438 4.4 0.011 0.15-0.011 0.366-0.111 0.449-0.406 0.454-0.903 0.817-1.459 1.065v0zM25.248 16.184c-0.333 0.189-0.333 0.411-0.061 0.422 0.461-0.055 1.010-0.094 1.387-0.666 0.1-0.161 0.222-0.594 0.227-0.855 0.033-1.554-0.022-2.719-0.255-3.84-0.011-0.111-0.061-0.361-0.044-0.394 0.033-0.078 0.183 0.006 0.239-0.083 0.078-0.078-0.388-0.683-0.555-0.943-0.061-0.111-0.083-0.189-0.178 0.017-0.105 0.166-0.139 0.466-0.1 0.727 0.25 1.665 0.433 2.913 0.466 4.384-0.017 0.144-0.022 0.222-0.089 0.394-0.144 0.189-0.305 0.422-0.461 0.533-0.15 0.111-0.472 0.222-0.577 0.305v0z"></path>
<path fill="#fff" d="M25.498 14.691v-1.015c-0.004-0.253-0.061-0.502-0.166-0.732-0.1-0.222-0.039-0.394-0.083-0.633-0.044-0.233-0.033-0.588-0.1-0.866-0.022-0.111-0.078-0.455-0.055-0.488 0.022-0.078 0.128 0 0.178-0.089 0.078-0.083-0.266-0.971-0.438-1.221-0.061-0.111-0.172-0.078-0.316 0.111-0.128 0.117-0.078 0.394-0.028 0.655 0.333 1.737 0.577 3.313 0.527 4.961-0.017 0.144 0.488-0.416 0.483-0.683v0zM23.040 12.538c-0.205 0-0.644-0.411-0.777-0.644-0.039-0.114-0.029-0.238 0.028-0.344 0.078-0.056 0.2-0.111 0.289-0.056 0 0 0.089 0.133 0.072 0.15 0.111 0.056 0.166 0.022 0.178-0.028 0.006-0.078-0.039-0.128-0.039-0.222 0.055-0.239 0.333-0.277 0.433-0.122 0.078 0.094 0.105 0.294 0.117 0.433 0 0.067-0.111-0.017-0.178 0-0.061 0.022-0.078 0.094-0.083 0.161-0.011 0.178-0.033 0.461-0.039 0.666v0.006zM19.178 15.124c0.055-0.533-0.017-1.47-0.022-1.781-0.022-0.738-0.144-2.164-0.2-2.397-0.067-0.449 0.183 0.050 0.15-0.211-0.083-0.444-0.333-0.755-0.621-1.165-0.094-0.128-0.089-0.155-0.239 0.033-0.155 0.366-0.017 0.616 0.022 0.899 0.211 0.927 0.333 1.776 0.388 2.619 0.062 0.877 0.070 1.758 0.022 2.636 0.161 0.011 0.416-0.255 0.499-0.633v0z"></path>
<path fill="#fff" d="M26.214 14.275c-0.372-0.616-0.927-1.287-1.076-1.537-0.497-0.697-1.019-1.377-1.565-2.036-0.461-0.483 0.211-0.078-0.089-0.449-0.255-0.277-0.333-0.366-0.544-0.533-0.111-0.072-0.178-0.205-0.211 0.022-0.017 0.2-0.028 0.433-0.017 0.605 0 0.094 0.1 0.266 0.183 0.372 1.11 1.371 2.331 2.774 3.313 4.533 0.139-0.078 0.094-0.866 0-0.977h0.006z"></path>
<path fill="#1ba400" d="M9.473 13.132c-0.028 0.050-0.089 0.111-0.067 0.166 0.044 0.056 0.078 0.072 0.144 0.078 0.056 0 0.144 0.011 0.161-0.022 0.041-0.050 0.051-0.118 0.028-0.178-0.056-0.155-0.233-0.1-0.266-0.044z"></path>
<path fill="#fff" d="M21.925 22.16c0.494 0.017 0.816 0.022 1.254 0.072l0.511-0.055c0.572-0.055 0.599 0.816 0.599 0.816-0.006 0.511-0.205 0.533-0.455 0.588-0.144 0.022-0.222-0.083-0.294-0.194-0.094 0.039-0.222 0.044-0.383 0.022-0.205-0.011-0.411-0.011-0.61-0.028-0.222-0.017-0.338 0.028-0.555 0.006-0.050 0.072-0.111 0.166-0.239 0.139-0.111-0.011-0.244-0.327-0.205-0.56 0.078-0.172 0.055-0.117 0.050-0.194-2.020-0.050-4.051-0.139-6.032-0.111-1.554 0-3.080 0.067-4.606 0.133-0.816-0.011-1.443-0.144-1.87-0.777 0.039 0 2.081 0.122 2.675 0.083 1.11-0.017 2.114-0.105 3.241-0.139 2.22 0.039 4.411 0.039 6.631 0.194-0.211-0.144-0.222-0.488 0.111-0.572 0.022-0.017 0.039 0.166 0.089 0.166 0.255-0.017 0.144 0.333 0.089 0.411v0zM13.024 9.936c-0.333 0.96 0.189 2.009 0.555 1.909 0.266 0.111 0.433-0.394 0.544-0.943 0.072-0.155 0.128-0.172 0.166-0.094-0.011 0.732 0.056 0.893 0.244 1.115 0.224 0.2 0.561 0.207 0.793 0.017l0.327-0.333c0.072-0.072 0.166-0.078 0.272-0.011 0.1 0.094 0.083 0.25 0.3 0.361 0.178 0.072 0.566 0.017 0.655-0.139 0.117-0.205 0.15-0.277 0.205-0.355 0.083-0.111 0.227-0.067 0.227-0.028-0.011 0.061-0.094 0.128-0.039 0.239 0.1 0.078 0.128 0.028 0.189 0.011 0.211-0.1 0.372-0.566 0.372-0.566 0.006-0.166-0.089-0.155-0.15-0.122l-0.166 0.117c-0.111 0.017-0.311 0.083-0.411-0.072-0.1-0.183-0.105-0.444-0.183-0.633 0-0.011-0.133-0.294-0.006-0.311 0.061 0.011 0.2 0.044 0.222-0.067 0.067-0.111-0.144-0.427-0.289-0.588-0.122-0.133-0.3-0.15-0.466-0.011-0.111 0.111-0.1 0.222-0.122 0.338-0.039 0.164 0.002 0.337 0.111 0.466 0.117 0.227 0.333 0.522 0.261 0.943 0 0-0.128 0.194-0.344 0.166-0.089-0.022-0.233-0.056-0.311-0.633-0.056-0.438 0.011-1.049-0.172-1.332-0.067-0.178-0.111-0.344-0.277-0.044-0.044 0.111-0.233 0.289-0.1 0.655 0.127 0.323 0.165 0.673 0.111 1.015-0.078 0.117-0.094 0.161-0.2 0.277-0.139 0.15-0.294 0.111-0.411 0.056-0.111-0.072-0.2-0.111-0.25-0.35 0.011-0.377 0.028-0.993-0.039-1.126-0.1-0.2-0.266-0.128-0.338-0.067-0.322 0.357-0.537 0.797-0.621 1.271-0.094 0.305-0.194 0.222-0.266 0.094-0.172-0.166-0.183-1.437-0.394-1.226v0z"></path>
<path fill="#fff" d="M14.034 12.028c0.155-0.111 0.083-0.183 0.311 0.044 0.293 0.515 0.464 1.090 0.499 1.681-0.017 0.139 0.083 0.222 0.128 0.194 0.022-0.322 0.816-0.777 1.537-0.843 0.111-0.022 0.055-0.233 0.072-0.344-0.044-0.4 0.222-0.766 0.605-0.793 0.511 0.078 0.683 0.35 0.694 0.766-0.055 0.805-0.893 0.943-1.365 0.999-0.072 0.033-0.1 0.067 0 0.105l1.97 0.006 0.1 0.056c0.011 0.056-0.028 0.011-0.111 0.139s-0.189 0.427-0.194 0.621c-0.591 0.172-1.196 0.288-1.809 0.344-0.211 0.111-0.316 0.255-0.277 0.416 0.072 0.183 0.549 0.361 0.549 0.372 0.089 0.056 0.194 0.189-0.028 0.455-0.96-0.039-1.704-0.449-1.959-1.027-0.078-0.056-0.166 0-0.216 0.078-0.334 0.514-0.816 0.914-1.382 1.149-0.383 0.094-0.771-0.055-0.954-0.305-0.122-0.144-0.117-0.3-0.166-0.333-0.205 0.089-1.975 0.843-1.748 0.494 0.427-0.466 1.176-0.805 1.831-1.26 0.056-0.15 0.139-0.666 0.4-0.832 0.011 0-0.044 0.3-0.039 0.427 0 0.105-0.006 0.144 0.017 0.117 0.044-0.028 0.843-0.655 0.904-0.849 0.078-0.111 0.022-0.388 0.022-0.4-0.144-0.388-0.355-0.416-0.433-0.61-0.072-0.255-0.039-0.544 0.105-0.627 0.128-0.117 0.277-0.105 0.422 0.022 0.166 0.144 0.305 0.427 0.35 0.638-0.028 0.083-0.211-0.056-0.277-0.011 0.111 0.111 0.166 0.25 0.205 0.416 0.111 0.444 0.072 0.61-0.028 0.899-0.355 0.744-0.81 0.971-1.21 1.243-0.011 0.006-0.017 0.194 0.133 0.294 0.056 0.056 0.261 0.078 0.499 0 0.519-0.287 0.939-0.724 1.204-1.254 0.072-0.4-0.028-0.821-0.133-1.187-0.121-0.292-0.232-0.588-0.333-0.888-0.011-0.222 0.006-0.3 0.111-0.411h-0.006zM8.885 9.952c0.222 0.105 0.649 0.056 0.633-0.305l-0.011-0.172c-0.044-0.111-0.172-0.083-0.2 0.033-0.011 0.033 0.017 0.094-0.017 0.111-0.022 0.017-0.094 0.006-0.089-0.094 0-0.033-0.022-0.067-0.039-0.089-0.017-0.006-0.022-0.011-0.050-0.011-0.033 0-0.028 0.011-0.050 0.039l-0.017 0.083c0 0.039-0.017 0.050-0.044 0.056-0.028 0-0.022 0-0.044-0.011-0.017-0.017-0.033-0.022-0.033-0.050l-0.011-0.089c-0.015-0.016-0.034-0.028-0.056-0.033-0.128 0-0.133 0.144-0.128 0.2-0.011 0.006-0.017 0.261 0.155 0.333z"></path>
<path fill="#fff" d="M15.521 12.76c0.222 0.111 0.766 0.044 0.633-0.305l-0.011-0.166c-0.044-0.111-0.166-0.083-0.2 0.028-0.006 0.033 0.017 0.094-0.017 0.111-0.017 0.022-0.089 0.011-0.089-0.089 0-0.033-0.022-0.067-0.039-0.089-0.011-0.011-0.022-0.011-0.050-0.011s-0.028 0.006-0.044 0.033l-0.017 0.083c-0.006 0.039-0.022 0.056-0.044 0.056-0.033 0-0.022 0-0.050-0.011-0.011-0.017-0.033-0.022-0.033-0.050s0-0.072-0.011-0.089c-0.011-0.017-0.033-0.022-0.056-0.028-0.122 0-0.133 0.139-0.128 0.194-0.006 0.011-0.011 0.261 0.155 0.333v0zM19.394 11.595c0.222 0.111 0.649 0.061 0.633-0.3l-0.011-0.172c-0.044-0.111-0.172-0.083-0.2 0.028-0.011 0.039 0.017 0.094-0.017 0.111-0.022 0.022-0.094 0.011-0.089-0.089 0-0.033-0.028-0.067-0.039-0.089-0.017-0.006-0.022-0.011-0.055-0.011-0.028 0-0.028 0.011-0.044 0.039l-0.017 0.083c0 0.033-0.017 0.050-0.044 0.056-0.028 0-0.022 0-0.044-0.017-0.017-0.011-0.033-0.022-0.033-0.044 0-0.028-0.006-0.072-0.017-0.094-0.011-0.017-0.028-0.022-0.055-0.028-0.122 0-0.128 0.144-0.122 0.194-0.011 0.011-0.017 0.266 0.155 0.333v0zM21.392 14.519c-0.388 0.444-0.216 1.176-0.128 1.332 0.133 0.266 0.233 0.433 0.488 0.56 0.233 0.166 0.411 0.061 0.511-0.055 0.233-0.239 0.233-0.855 0.344-0.977 0.078-0.222 0.266-0.183 0.361-0.083 0.086 0.121 0.2 0.218 0.333 0.283 0.216 0.189 0.472 0.222 0.727 0.056 0.172-0.1 0.289-0.227 0.388-0.477 0.111-0.305 0.055-1.704 0.028-2.53-0.006-0.067-0.222-1.143-0.222-1.154s-0.033-0.549-0.055-0.677c0-0.050-0.017-0.067 0.039-0.056 0.055 0.044 0.067 0.050 0.1 0.067 0.055 0.011 0.111-0.089 0.078-0.183l-0.544-0.999c-0.039-0.039-0.094-0.083-0.166 0.017-0.085 0.074-0.134 0.181-0.133 0.294 0.017 0.239 0.055 0.477 0.072 0.716l0.222 1.21c0.067 0.866 0.083 1.57 0.15 2.442-0.011 0.361-0.122 0.683-0.233 0.721 0 0-0.161 0.1-0.266 0-0.083-0.039-0.4-0.533-0.4-0.533-0.166-0.15-0.266-0.111-0.388 0-0.311 0.305-0.455 0.882-0.671 1.276-0.055 0.089-0.216 0.166-0.388-0.006-0.444-0.61-0.183-1.465-0.239-1.243h-0.006zM19.494 9.475c0.205 0.083 0.344 0.499 0.3 0.699-0.039 0.244-0.15 0.516-0.222 0.477-0.089-0.028 0.055-0.244-0.028-0.472-0.044-0.144-0.322-0.416-0.294-0.494-0.055-0.166 0.122-0.239 0.244-0.211v0z"></path>
<path fill="#fff" d="M22.052 14.763c0.039-0.499-0.033-0.799-0.044-1.088s-0.333-2.497-0.388-2.719c-0.083-0.416 0.305-0.056 0.261-0.3-0.133-0.305-0.461-0.749-0.566-1.010-0.061-0.111-0.039-0.216-0.178-0.033-0.12 0.33-0.162 0.683-0.122 1.032 0.333 1.737 0.671 3.18 0.616 4.833 0.161 0 0.344-0.361 0.422-0.721v0.006zM25.515 10.174c0.189 0.094 0.294 0.61 0.277 0.755-0.039 0.272-0.139 0.555-0.211 0.522s0.017-0.4-0.022-0.511c-0.039-0.161-0.289-0.449-0.266-0.538-0.050-0.178 0.111-0.255 0.222-0.222v-0.006zM11.77 13.826c0.178 0.072 0.277 0.444 0.261 0.555-0.033 0.2-0.128 0.411-0.194 0.388-0.072-0.028 0.011-0.294-0.022-0.377-0.017-0.205-0.261-0.311-0.255-0.394-0.044-0.166 0.105-0.194 0.211-0.166v-0.006z"></path>
<path fill="#1b9d00" d="M16.048 14.397c0.222 0.011 0.338 0.194 0.128 0.266s-0.416 0.128-0.416 0.433c0.078 0.427-0.111 0.277-0.222 0.222-0.128-0.094-0.494-0.316-0.544-0.805-0.006-0.111 0.083-0.211 0.227-0.211 0.222 0.056 0.544 0.067 0.821 0.094h0.006z"></path>
<path fill="#fff" d="M7.042 9.353c0.261 0.078 0.277 0.461 0.255 0.577-0.033 0.205-0.128 0.422-0.194 0.394-0.072-0.022 0-0.3-0.033-0.388-0.039-0.122-0.261-0.344-0.233-0.411-0.056-0.133 0.1-0.194 0.205-0.166v-0.006zM12.197 11.162c-0.2 0.111-0.277 0.433-0.155 0.621 0.117 0.166 0.3 0.105 0.327 0.105 0.194 0.022 0.311-0.372 0.311-0.372s0.006-0.111-0.222 0.1c-0.1 0.017-0.111-0.017-0.139-0.072-0.024-0.104-0.012-0.214 0.033-0.311 0.033-0.094-0.044-0.139-0.155-0.072v0zM13.696 9.203c-0.094 0.072-0.3 0.277-0.305 0.516 0 0.133-0.028 0.133 0.056 0.222 0.067 0.089 0.133 0.083 0.261 0.017 0.064-0.042 0.108-0.108 0.122-0.183 0.033-0.155-0.161 0.072-0.183-0.1-0.044-0.155 0.078-0.222 0.194-0.377 0-0.105 0-0.178-0.139-0.094h-0.006zM14.911 9.425c-0.048 0.195-0.078 0.393-0.089 0.594-0.033 0.15 0.155 0.211 0.244 0.017 0.128-0.35 0.128-0.499 0.139-0.649-0.039-0.222-0.194-0.222-0.294 0.033v0.006zM22.541 13.304c0.022-0.028 1.076-0.777 1.076-0.777 0.105-0.033 0.083 0.388 0.033 0.388-0.326 0.316-0.7 0.576-1.11 0.771-0.055 0.033-0.105-0.289 0-0.388v0.006zM23.495 13.298c0.183 0.089 0.261 0.633 0.239 0.777 0.006 0.289-0.178 0.516-0.25 0.477-0.078-0.033 0.006-0.355-0.028-0.466-0.039-0.161-0.2-0.461-0.172-0.544-0.055-0.183 0.1-0.277 0.211-0.244v0zM17.258 15.629c0.072-0.111 0.294-0.261 0.3-0.261 0.105-0.056 0.205 0.039 0.2 0.033 0.017 0.105-0.067 0.2-0.039 0.338 0.022 0.056 0.039 0.117 0.144 0.094 0.166-0.128 0.322-0.139 0.488-0.15 0.128 0.011 0.128 0.222 0.050 0.227-0.311 0.067-0.444 0.15-0.666 0.233-0.105 0.061-0.194-0.017-0.194-0.022s-0.055-0.061-0.017-0.2c0.006-0.111-0.039-0.166-0.128-0.155-0.072 0.033-0.133 0.056-0.166-0.022-0.017-0.056-0.017-0.083 0.028-0.117v0zM24.599 15.918c0.044 0.056 0.078 0.111 0 0.205l-0.2 0.166c-0.039 0.067-0.055 0.155 0.050 0.183 0.194 0.055 0.649-0.239 0.649-0.244 0.072-0.055 0.050-0.161 0.039-0.161-0.039-0.050-0.139-0.022-0.2-0.028-0.033 0-0.133-0.017-0.089-0.105 0.044-0.056 0.055-0.089 0.083-0.161 0.033-0.067 0.006-0.111-0.105-0.15-0.111-0.017-0.155-0.006-0.277 0-0.072 0.017-0.094 0.044-0.111 0.128 0.011 0.122 0.083 0.117 0.166 0.166h-0.006z"></path>
<path fill="#259f00" d="M17.297 12.866c-0.028 0.056-0.128 0.050-0.222 0s-0.139-0.139-0.111-0.189c0.028-0.050 0.128-0.050 0.222 0s0.139 0.139 0.111 0.189zM12.508 9.991c-0.056 0.017-0.128-0.033-0.161-0.111s-0.017-0.139 0.039-0.155c0.056-0.017 0.128 0.039 0.161 0.111s0.017 0.144-0.039 0.155z"></path>
<path fill="#209000" d="M21.98 22.826c0.499 0.022 0.977 0.006 1.476 0.033 0.094 0.072 0.028 0.266-0.033 0.25l-0.422-0.011c0-0.161-0.416-0.133-0.4 0.006-0.222 0.028-0.422-0.006-0.644-0.017-0.067-0.083-0.055-0.227 0.022-0.261v0z"></path>
</svg>
