<!-- Generated by IcoMoon.io -->
<svg version="1.1" xmlns="http://www.w3.org/2000/svg" width="24" height="24" viewBox="0 0 24 24">
<title>zepicons-phone</title>
<path d="M8.827 14.387c1.92 3.773 5.013 6.867 8.787 8.787l2.933-2.933c0.373-0.373 0.893-0.48 1.36-0.333 1.493 0.493 3.093 0.76 4.76 0.76 0.736 0 1.333 0.597 1.333 1.333v4.667c0 0.736-0.597 1.333-1.333 1.333-12.518 0-22.667-10.148-22.667-22.667 0-0.354 0.14-0.693 0.391-0.943s0.589-0.391 0.943-0.391h4.667c0.736 0 1.333 0.597 1.333 1.333 0 1.667 0.267 3.267 0.76 4.76 0.147 0.467 0.040 0.987-0.333 1.36l-2.933 2.933z"></path>
</svg>
