<!-- Generated by IcoMoon.io -->
<svg version="1.1" xmlns="http://www.w3.org/2000/svg" width="24" height="24" viewBox="0 0 24 24">
<title>zepicons-attachment</title>
<path d="M20.849 8.727v13.939c0 2.678-2.171 4.849-4.849 4.849s-4.848-2.171-4.848-4.849v-15.152c0-1.674 1.357-3.030 3.030-3.030s3.030 1.357 3.030 3.030v12.727c0 0.669-0.543 1.212-1.212 1.212s-1.212-0.543-1.212-1.212v-11.515h-1.818v11.515c0 1.674 1.357 3.030 3.030 3.030s3.030-1.357 3.030-3.030v-12.727c0-2.678-2.171-4.848-4.848-4.848s-4.848 2.171-4.848 4.848v15.152c0 3.682 2.985 6.667 6.667 6.667s6.667-2.985 6.667-6.667v-13.939h-1.818z"></path>
</svg>
