<!-- Generated by IcoMoon.io -->
<svg version="1.1" xmlns="http://www.w3.org/2000/svg" width="24" height="24" viewBox="0 0 24 24">
<title>zepicons-twitter</title>
<path d="M30.56 8c-1.027 0.467-2.133 0.773-3.28 0.92 1.173-0.707 2.080-1.827 2.507-3.173-1.107 0.667-2.333 1.133-3.627 1.4-1.053-1.147-2.533-1.813-4.213-1.813-3.133 0-5.693 2.56-5.693 5.72 0 0.453 0.053 0.893 0.147 1.307-4.747-0.24-8.973-2.52-11.787-5.973-0.493 0.84-0.773 1.827-0.773 2.867 0 1.987 1 3.747 2.547 4.747-0.947 0-1.827-0.267-2.6-0.667 0 0 0 0 0 0.040 0 2.773 1.973 5.093 4.587 5.613-0.48 0.133-0.987 0.2-1.507 0.2-0.36 0-0.72-0.040-1.067-0.107 0.72 2.253 2.813 3.933 5.333 3.973-1.947 1.547-4.413 2.453-7.107 2.453-0.453 0-0.907-0.027-1.36-0.080 2.533 1.627 5.547 2.573 8.773 2.573 10.507 0 16.28-8.72 16.28-16.28 0-0.253 0-0.493-0.013-0.747 1.12-0.8 2.080-1.813 2.853-2.973z"></path>
</svg>
