<!-- Generated by IcoMoon.io -->
<svg version="1.1" xmlns="http://www.w3.org/2000/svg" width="24" height="24" viewBox="0 0 24 24">
<title>zepicons-link</title>
<path d="M14.12 17.88c0.547 0.52 0.547 1.373 0 1.893-0.52 0.52-1.373 0.52-1.893 0-2.6-2.6-2.6-6.827 0-9.427v0l4.72-4.72c2.6-2.6 6.827-2.6 9.427 0s2.6 6.827 0 9.427l-1.987 1.987c0.013-1.093-0.16-2.187-0.533-3.227l0.627-0.64c1.573-1.56 1.573-4.093 0-5.653-1.56-1.573-4.093-1.573-5.653 0l-4.707 4.707c-1.573 1.56-1.573 4.093 0 5.653v0zM17.88 12.227c0.52-0.52 1.373-0.52 1.893 0 2.6 2.6 2.6 6.827 0 9.427v0l-4.72 4.72c-2.6 2.6-6.827 2.6-9.427 0s-2.6-6.827 0-9.427l1.987-1.987c-0.013 1.093 0.16 2.187 0.533 3.24l-0.627 0.627c-1.573 1.56-1.573 4.093 0 5.653 1.56 1.573 4.093 1.573 5.653 0l4.707-4.707c1.573-1.56 1.573-4.093 0-5.653-0.547-0.52-0.547-1.373 0-1.893z"></path>
</svg>
