<!-- Generated by IcoMoon.io -->
<svg version="1.1" xmlns="http://www.w3.org/2000/svg" width="32" height="32" viewBox="0 0 32 32">
<title>zepicons-contact-mail</title>
<path d="M28 10.667v-1.333l-4 2.667-4-2.667v1.333l4 2.667zM29.333 4h-26.667c-1.473 0-2.667 1.194-2.667 2.667v18.667c0 1.473 1.194 2.667 2.667 2.667h26.667c1.473 0 2.667-1.194 2.667-2.667v-18.667c0-1.473-1.194-2.667-2.667-2.667zM10.667 8c2.209 0 4 1.791 4 4s-1.791 4-4 4c-2.209 0-4-1.791-4-4s1.791-4 4-4zM18.667 24h-16v-1.333c0-2.667 5.333-4.133 8-4.133s8 1.467 8 4.133zM29.333 16h-10.667v-8h10.667z"></path>
</svg>
