<!-- Generated by IcoMoon.io -->
<svg version="1.1" xmlns="http://www.w3.org/2000/svg" width="32" height="32" viewBox="0 0 32 32">
<title>zepicons-cat-new</title>
<path d="M23.331 12.515v-2.755h-0.529l-1.116 2.755h1.645zM17.935 12.74l0.587-1.522h-15.602v0.169l3.928 1.353c0 0 11.087 0 11.087 0zM29.189 13.747v-1.861c0-0.056 0-0.113 0-0.169v-0.056h-3.575v0.056c0 0.056 0 0.113 0 0.169v0.564h2.409l0.235 1.297h0.932zM17.347 14.142h-6.278l5.514 1.917 0.764-1.917zM1.333 12.458v-2.755h17.533l1.175-3.037h9.207v1.353h-7.797l-3.928 10.020-16.19-5.582zM30.658 21.858h-1.234v-3.093c-0.999-1.917-3.047-3.262-5.455-3.262-1.41 0-2.694 0.451-3.752 1.24v-2.924l1.88-4.785h5.338l0.117 0.677h-3.34v2.811h0.823v-0.62c0-0.282 0.059-0.507 0.235-0.677 0.059-0.113 0.176-0.169 0.352-0.169h3.693c0.176 0 0.294 0.113 0.352 0.169 0.176 0.169 0.235 0.451 0.235 0.677v1.861h0.764v8.095h-0.008zM8.837 23.26c1.175 0 2.174-0.959 2.174-2.086s-0.999-2.086-2.174-2.086c-1.175 0-2.174 0.959-2.174 2.086 0.008 1.136 0.948 2.086 2.174 2.086zM23.91 23.26c1.175 0 2.174-0.959 2.174-2.086s-0.999-2.086-2.174-2.086c-1.175 0-2.174 0.959-2.174 2.086 0.008 1.136 1.007 2.086 2.174 2.086zM15.467 23.542v-1.128h-1.234c0.059-0.338 0.117-0.789 0.117-1.184 0-1.071-0.294-2.030-0.822-2.811l0.705-0.677 4.28 1.466 0 4.334c0.008 0-3.047 0-3.047 0zM8.837 25.797c-2.635 0-4.809-2.086-4.809-4.615s2.174-4.615 4.809-4.615c2.635 0 4.809 2.086 4.809 4.615s-2.165 4.615-4.809 4.615zM23.969 25.797c-2.635 0-4.809-2.086-4.809-4.615s2.174-4.615 4.809-4.615c2.635 0 4.809 2.078 4.809 4.615s-2.165 4.615-4.809 4.615z"></path>
</svg>
