<!-- Generated by IcoMoon.io -->
<svg version="1.1" xmlns="http://www.w3.org/2000/svg" width="24" height="24" viewBox="0 0 24 24">
<title>zepicons-googleplus</title>
<path d="M30.667 14.667h-2.667v-2.667h-2.667v2.667h-2.667v2.667h2.667v2.667h2.667v-2.667h2.667v-2.667zM10.667 14.667v3.2h5.333c-0.267 1.333-1.6 4-5.333 4-3.2 0-5.733-2.667-5.733-5.867s2.533-5.867 5.733-5.867c1.867 0 3.067 0.8 3.733 1.467l2.533-2.4c-1.6-1.6-3.733-2.533-6.267-2.533-5.2 0-9.333 4.133-9.333 9.333s4.133 9.333 9.333 9.333c5.333 0 8.933-3.733 8.933-9.067 0-0.667 0-1.067-0.133-1.6h-8.8z"></path>
</svg>
