<!-- Generated by IcoMoon.io -->
<svg version="1.1" xmlns="http://www.w3.org/2000/svg" width="32" height="32" viewBox="0 0 32 32">
<title>zepicons-rental-infrastructure</title>
<path d="M18.765 24.655v2.321c0.008 0.275 0.232 0.495 0.51 0.503 0.291 0.009 0.532-0.216 0.542-0.503v-2.321c-0.008-0.275-0.232-0.495-0.51-0.503-0.29-0.008-0.532 0.217-0.542 0.503zM18.765 19.454v2.352c0.009 0.286 0.251 0.511 0.542 0.503s0.519-0.247 0.51-0.533v-2.322c-0.008-0.274-0.232-0.495-0.51-0.503-0.29-0.008-0.532 0.217-0.542 0.503zM18.765 14.752v2.322c0.008 0.275 0.232 0.495 0.51 0.503 0.291 0.009 0.532-0.217 0.542-0.503v-2.351c-0.009-0.287-0.25-0.511-0.542-0.503-0.29 0.009-0.519 0.248-0.51 0.533zM12.301 28.98l4.324-13.497h-2.645c-0.058 0-0.114-0.023-0.155-0.063-0.085-0.084-0.084-0.22 0.002-0.304l5.31-5.192c0.085-0.082 0.222-0.082 0.307 0l5.311 5.192c0.042 0.040 0.065 0.095 0.065 0.153 0 0.118-0.098 0.214-0.218 0.214h-2.644l4.323 13.497c0.007 0.021 0.011 0.042 0.011 0.065 0 0.119-0.098 0.216-0.22 0.216h-13.562c-0.022 0-0.045-0.003-0.066-0.010-0.117-0.036-0.181-0.158-0.144-0.271zM10.414 9.436v0c1.016 0 1.839-0.811 1.839-1.811s-0.823-1.812-1.839-1.812-1.84 0.811-1.84 1.812c0 1 0.824 1.811 1.84 1.811zM10.414 14.871v0c1.016 0 1.839-0.811 1.839-1.813 0-1-0.823-1.811-1.839-1.811s-1.84 0.81-1.84 1.811c0 1.001 0.824 1.813 1.84 1.813zM12.253 18.494c0-1-0.824-1.811-1.839-1.811s-1.84 0.811-1.84 1.811 0.824 1.812 1.84 1.812c1.016 0 1.839-0.811 1.839-1.812zM15.546 11.248l-2.829 2.765c-0.339 0.332-0.53 0.784-0.531 1.255 0 0.977 0.805 1.769 1.797 1.769h0.482l-1.591 4.963c-0.2 0.075-0.414 0.114-0.629 0.116h-3.678c-1.016 0-1.84-0.811-1.84-1.812v-1.808l-1.3-1.279c-0.062-0.059-0.096-0.141-0.094-0.226 0.002-0.172 0.145-0.309 0.32-0.306h1.076v-3.624l-1.3-1.279c-0.062-0.059-0.095-0.141-0.094-0.226 0.002-0.172 0.145-0.309 0.32-0.306h1.077v-3.623l-1.3-1.28c-0.062-0.059-0.096-0.141-0.095-0.226 0.002-0.172 0.145-0.309 0.32-0.306h1.077c0-1.001 0.824-1.813 1.839-1.813h3.679c1.016 0.001 1.839 0.811 1.839 1.813h1.076c0.086-0.002 0.17 0.032 0.231 0.093 0.122 0.122 0.12 0.319-0.005 0.44l-1.3 1.28v3.623h1.454z"></path>
</svg>
