
<svg width="24px" height="24px" viewBox="0 0 24 24" version="1.1" xmlns="http://www.w3.org/2000/svg">
    <title>zepicons-search2</title>
    <g id="Header-&amp;-Footer" stroke="none" stroke-width="1" fill="none" fill-rule="evenodd" opacity="0.54">
        <g id="Header_Desktop" transform="translate(-1248.000000, -28.000000)" fill="inherit">
            <g id="ICON-/-Streamlien-3.0-/-search@24x24-[Negativ]" transform="translate(1248.000000, 28.000000)">
                <g id="search@24x24">
                    <path d="M5.97464135,0.78075316 C0.987180278,2.90091138 -1.33818325,8.66341938 0.781776088,13.6504126 C2.90191138,18.6378197 8.66441938,20.9631832 13.6514126,18.8432239 C18.6388197,16.7230886 20.9641832,10.9605806 18.8442239,5.9735874 C16.7240236,0.986027264 10.9624521,-1.33909347 5.97464135,0.78075316 Z M17.4637761,6.5604126 C19.2596135,10.7849414 17.2896584,15.6667081 13.0645874,17.4627761 C8.84005863,19.2586135 3.95829186,17z.2886584 2.16222391,13.0635874 C0.366386451,8.83905863 2.33634161,3.95729186 6.5614126,2.16122391 C10.7867334,0.365439624 15.6676301,2.33515815 17.4637761,6.5604126 Z" id="Path" fill-rule="nonzero"></path>
                    <path d="M15.6907076,15.6896322 C15.9569931,15.4233846 16.3736585,15.3992082 16.6672545,15.6170835 L16.7513678,15.6897076 L23.7803678,22.7197076 C24.0732402,23.0126217 24.0732064,23.4874954 23.7802924,23.7803678 C23.5140069,24.0466154 23.0973415,24.0707918 22.8037455,23.8529165 L22.7196322,23.7802924 L15.6906322,16.7502924 C15.3977598,16.4573783 15.3977936,15.9825046 15.6907076,15.6896322 Z" id="Path" fill-rule="nonzero"></path>
                </g>
            </g>
        </g>
    </g>
</svg>