<!-- Generated by IcoMoon.io -->
<svg version="1.1" xmlns="http://www.w3.org/2000/svg" width="24" height="24" viewBox="0 0 24 24">
<title>zepicons-sg</title>
<path fill="#fff" d="M2.667 2.667h40.845v27.232h-40.845z"></path>
<path fill="#df0000" d="M2.667 2.667h40.845v13.613h-40.845z"></path>
<path fill="#fff" d="M12.088 4.949c-2.215 0.475-3.795 2.437-3.785 4.703s1.607 4.214 3.827 4.669c-1.988 0.582-4.127-0.156-5.334-1.841s-1.217-3.947-0.025-5.642c1.191-1.695 3.323-2.453 5.317-1.889v0z"></path>
<path fill="#fff" d="M10.428 8.907l-0.726-0.53 0.903-0.008 0.277-0.857 0.288 0.857h0.899l-0.722 0.538 0.277 0.857-0.734-0.526-0.73 0.53 0.269-0.861zM11.427 11.862l-0.73-0.53 0.903-0.008 0.28-0.857 0.284 0.853h0.903l-0.73 0.538 0.28 0.857-0.73-0.523-0.73 0.53 0.269-0.861zM14.743 11.839l-0.73-0.53 0.899-0.008 0.28-0.857 0.284 0.857h0.907l-0.726 0.538 0.28 0.857-0.734-0.526-0.73 0.53 0.269-0.861zM15.731 8.911l-0.73-0.53 0.903-0.008 0.277-0.857 0.288 0.853h0.899l-0.722 0.538 0.277 0.857-0.734-0.523-0.73 0.53 0.273-0.861zM13.107 6.97l-0.73-0.53 0.903-0.008 0.28-0.857 0.284 0.857h0.903l-0.73 0.538 0.28 0.853-0.73-0.523-0.73 0.53 0.269-0.861z"></path>
</svg>
