<!-- Generated by IcoMoon.io -->
<svg version="1.1" xmlns="http://www.w3.org/2000/svg" width="32" height="32" viewBox="0 0 32 32">
<title>zepicons-ps-used</title>
<path d="M24.678 16.674c1.317 0 2.539-0.419 3.564-1.125v11.415h-3.461v-2.135h-1.474v1.938c0 0.6-0.386 1.133-0.836 1.133h-12.946l-2.688-2.8h-2.302c-0.576 0-1.088-0.665-1.088-1.536v-2.538h-0.836v3.737h-1.277v-12.072h1.285v3.737h0.765v-1.536c0-0.871 0.512-1.536 1.088-1.536h2.050v-1.33c0-0.6 0.386-1.133 0.899-1.133h4.541v-1.002h-3.587v-1.33h10.068c-0.102 0.468-0.158 0.953-0.158 1.454 0 3.679 2.862 6.66 6.394 6.66zM13.562 25.905l5.069-7.605h-4.549l2.239-4.402h-2.499l-3.461 6.669h5.125l-1.924 5.338zM22.794 9.111l1.395 1.454 3.863-4.032 0.639 0.665-4.502 4.689-2.026-2.111 0.631-0.665zM29.732 10.827l-0.615 0.025c-0.434 2.48-2.665 4.18-5.077 3.811-2.46-0.37-4.163-2.751-3.808-5.314s2.641-4.336 5.101-3.967c0.544 0.082 1.049 0.263 1.498 0.526l-0.67 0.698c-0.3-0.14-0.623-0.246-0.962-0.296-1.971-0.296-3.792 1.117-4.084 3.17s1.072 3.958 3.043 4.254c1.861 0.279 3.595-0.977 4.021-2.85l-0.568 0.016 1.001-1.955 1.12 1.881z"></path>
</svg>
