<!-- Generated by IcoMoon.io -->
<svg version="1.1" xmlns="http://www.w3.org/2000/svg" width="24" height="24" viewBox="0 0 24 24">
<title>zepicons-systems-service</title>
<path d="M24.828 21.226c0.55 0 1.082-0.073 1.59-0.213v6.914h-23.752v-11.963l1.094-11.007c0.054-0.542 0.508-0.956 1.046-0.956h1.657c0.538 0 0.992 0.414 1.046 0.956l1.094 11.007 3.943-3.18c0.804-0.646 1.995-0.067 1.995 0.969v2.211l3.943-3.18c0.26-0.207 0.562-0.286 0.847-0.268-0.369 0.786-0.574 1.669-0.574 2.595 0 3.381 2.721 6.116 6.071 6.116zM9.796 25.533v-2.394h-4.753v2.394h4.753zM9.796 20.751v-2.394h-4.753v2.394h4.753zM16.919 25.533v-2.394h-4.753v2.394h4.753zM16.919 20.751v-2.394h-4.753v2.394h4.753zM24.042 25.533v-2.394h-4.753v2.394h4.753zM24.828 11.468c-1.995 0-3.616 1.633-3.616 3.643s1.621 3.643 3.616 3.643c1.995 0 3.616-1.633 3.616-3.643s-1.621-3.643-3.616-3.643zM24.828 10.597c2.479 0 4.481 2.022 4.481 4.514s-2.008 4.514-4.481 4.514c-2.473 0-4.481-2.022-4.481-4.514s2.002-4.514 4.481-4.514zM24.828 15.823c0.399 0 0.714-0.323 0.714-0.719s-0.32-0.719-0.714-0.719c-0.393 0-0.714 0.323-0.714 0.719s0.32 0.719 0.714 0.719zM26.346 15.306l0.429 0.341c0.036 0.030 0.048 0.091 0.024 0.134l-0.405 0.713c-0.024 0.043-0.085 0.061-0.127 0.043l-0.508-0.207c-0.109 0.079-0.218 0.146-0.345 0.201l-0.073 0.542c-0.006 0.049-0.054 0.085-0.103 0.085h-0.816c-0.054 0-0.097-0.037-0.103-0.085l-0.073-0.542c-0.127-0.049-0.236-0.122-0.345-0.201l-0.508 0.207c-0.048 0.018-0.103 0-0.127-0.043l-0.405-0.713c-0.024-0.049-0.012-0.104 0.024-0.134l0.429-0.341c-0.006-0.067-0.012-0.134-0.012-0.201s0.006-0.14 0.012-0.207l-0.429-0.335c-0.036-0.030-0.048-0.091-0.024-0.134l0.405-0.713c0.024-0.043 0.085-0.061 0.127-0.043l0.508 0.207c0.109-0.079 0.218-0.152 0.345-0.201l0.073-0.542c0.006-0.049 0.054-0.085 0.103-0.085h0.816c0.054 0 0.097 0.037 0.103 0.085l0.073 0.542c0.127 0.049 0.236 0.122 0.345 0.201l0.508-0.207c0.048-0.018 0.103 0 0.127 0.043l0.405 0.713c0.024 0.049 0.012 0.104-0.024 0.134l-0.429 0.335c0.006 0.073 0.012 0.14 0.012 0.207s-0.006 0.134-0.012 0.201z"></path>
</svg>
