<!-- Generated by IcoMoon.io -->
<svg version="1.1" xmlns="http://www.w3.org/2000/svg" width="24" height="24" viewBox="0 0 24 24">
<title>zepicons-add-solution</title>
<path d="M14.659 25.432l8.47-5.127 2.189 1.241-10.659 6.454-10.659-6.454 2.189-1.241 8.47 5.127zM22.334 7.147v2.518h2.598v1.258h-2.598v2.519h-1.298v-2.519h-2.599v-1.258h2.599v-2.518h1.298zM21.685 4c3.586 0 6.496 2.818 6.496 6.294s-2.908 6.294-6.496 6.294c-3.586 0-6.494-2.818-6.494-6.294s2.908-6.294 6.494-6.294zM21.685 15.329v-0.001c2.865 0 5.197-2.258 5.197-5.034s-2.331-5.037-5.197-5.037c-2.865 0-5.195 2.262-5.195 5.038s2.331 5.034 5.195 5.034zM13.404 10.294c0 3.268 2.028 6.080 4.925 7.33l-3.671 2.222-10.659-6.451 9.809-5.57c-0.262 0.78-0.405 1.608-0.405 2.469zM21.685 18.319v0.001c1.195-0.001 2.376-0.256 3.46-0.745l-10.487 6.348-10.659-6.45 2.189-1.245 8.47 5.129 5.308-3.213c0.554 0.114 1.129 0.176 1.718 0.176z"></path>
</svg>
