<!-- Generated by IcoMoon.io -->
<svg version="1.1" xmlns="http://www.w3.org/2000/svg" width="24" height="24" viewBox="0 0 24 24">
<title>zepicons-instagram</title>
<path d="M10.4 2.667h11.2c4.267 0 7.733 3.467 7.733 7.733v11.2c0 4.271-3.462 7.733-7.733 7.733h-11.2c-4.267 0-7.733-3.467-7.733-7.733v-11.2c0-4.271 3.462-7.733 7.733-7.733v0zM10.133 5.333c-2.651 0-4.8 2.149-4.8 4.8v11.733c0 2.653 2.147 4.8 4.8 4.8h11.733c2.651 0 4.8-2.149 4.8-4.8v-11.733c0-2.653-2.147-4.8-4.8-4.8h-11.733zM23 7.333c0.92 0 1.667 0.746 1.667 1.667s-0.746 1.667-1.667 1.667c-0.92 0-1.667-0.746-1.667-1.667s0.746-1.667 1.667-1.667v0zM16 9.333c3.682 0 6.667 2.985 6.667 6.667s-2.985 6.667-6.667 6.667c-3.682 0-6.667-2.985-6.667-6.667s2.985-6.667 6.667-6.667v0zM16 12c-2.209 0-4 1.791-4 4s1.791 4 4 4c2.209 0 4-1.791 4-4s-1.791-4-4-4z"></path>
</svg>
