<!-- Generated by IcoMoon.io -->
<svg version="1.1" xmlns="http://www.w3.org/2000/svg" width="32" height="32" viewBox="0 0 32 32">
<title>zepicons-average</title>
<path d="M24.784 12.875c0.349 0.979 0.549 2.028 0.549 3.127 0 5.147-4.188 9.333-9.333 9.333-2.093 0-4.015-0.707-5.569-1.879l17.569-17.569-1.885-1.885-2.645 2.645c-2.051-1.647-4.64-2.647-7.469-2.647-6.617 0-12 5.384-12 12.001 0 1.849 0.433 3.595 1.183 5.16l2.035-2.033c-0.351-0.979-0.551-2.029-0.551-3.127 0-5.147 4.188-9.335 9.333-9.335 2.093 0 4.015 0.708 5.568 1.881l-17.568 17.568 1.885 1.885 2.648-2.648c2.051 1.648 4.639 2.648 7.467 2.648 6.617 0 12-5.384 12-12 0-1.849-0.432-3.595-1.183-5.16l-2.033 2.033z"></path>
</svg>
