<!-- Generated by IcoMoon.io -->
<svg version="1.1" xmlns="http://www.w3.org/2000/svg" width="24" height="24" viewBox="0 0 24 24">
<title>zepicons-kununu</title>
<path d="M20.634 24.446l-0.067 4.213c0 0.37-0.305 0.675-0.687 0.675h-4.116c-0.377 0-0.686-0.304-0.686-0.675v-4.213h-0.016v-1.361c0-1.466-1.218-2.659-2.711-2.659h-1.454c-1.496 0-2.71 1.193-2.71 2.659h-0.029v5.574c0 0.37-0.307 0.675-0.687 0.675h-4.118c-0.379 0-0.685-0.304-0.685-0.675v-25.073c0-0.369 0.307-0.673 0.685-0.673h4.118c0.381 0 0.687 0.304 0.687 0.673v11.834c0.859-0.295 1.779-0.459 2.739-0.459h1.393v-0.016c1.498 0 2.712-1.193 2.712-2.656l0.087-1.363c0.056-0.317 0.335-0.56 0.675-0.56h4.116c0.341 0 0.621 0.242 0.677 0.56h0.018v1.363c0 2.054-0.783 3.931-2.070 5.363 1.321 1.442 2.129 3.346 2.129 5.434v1.361zM25.356 8.575l-1.010 0.991c-0.52 0.511-1.359 0.517-1.88 0.006l-0.166-0.163c-0.519-0.509-0.513-1.334 0.008-1.843l1.004-0.986c0.135-0.133 0.359-0.133 0.494 0l0.128 0.125c0.135 0.133 0.147 0.354 0.011 0.488l-1.008 0.988c-0.171 0.167-0.171 0.439 0 0.605l0.166 0.163c0.169 0.166 0.45 0.17 0.619 0.004l1.008-0.989c0.137-0.132 0.359-0.127 0.496 0.006l0.126 0.127c0.137 0.133 0.141 0.347 0.006 0.479v0zM25.356 4.523l-0.127 0.124c-0.135 0.132-0.363 0.144-0.498 0.010l-1.005-0.99c-0.172-0.166-0.448-0.166-0.619 0l-0.166 0.163c-0.169 0.167-0.172 0.443-0.003 0.61l1.008 0.987c0.136 0.135 0.129 0.352-0.007 0.485l-0.126 0.126c-0.136 0.132-0.354 0.138-0.488 0.004l-1.011-0.989c-0.521-0.509-0.526-1.334-0.006-1.845l0.166-0.163c0.519-0.509 1.358-0.503 1.878 0.008l1.004 0.986c0.135 0.132 0.135 0.35 0 0.484v0zM28.938 9.406l-0.164 0.161c-0.521 0.511-1.362 0.506-1.88-0.006l-1.005-0.986c-0.136-0.132-0.136-0.35 0-0.484l0.127-0.125c0.135-0.132 0.362-0.144 0.497-0.010l1.009 0.989c0.169 0.167 0.447 0.167 0.616 0l0.166-0.162c0.171-0.169 0.174-0.443 0.003-0.61l-1.008-0.989c-0.136-0.132-0.129-0.35 0.007-0.485l0.127-0.125c0.137-0.133 0.352-0.138 0.488-0.006l1.010 0.992c0.521 0.509 0.527 1.334 0.007 1.845v0zM28.941 5.061l-1.006 0.985c-0.136 0.132-0.356 0.132-0.493 0l-0.129-0.127c-0.135-0.132-0.145-0.354-0.009-0.487l1.009-0.989c0.169-0.167 0.169-0.438 0-0.604l-0.166-0.164c-0.169-0.165-0.451-0.169-0.62-0.002l-1.008 0.987c-0.136 0.135-0.359 0.127-0.495-0.006l-0.127-0.125c-0.135-0.135-0.141-0.347-0.005-0.479l1.009-0.993c0.52-0.509 1.36-0.514 1.88-0.006l0.165 0.162c0.521 0.511 0.514 1.336-0.004 1.845v0z"></path>
</svg>
