<!-- Generated by IcoMoon.io -->
<svg version="1.1" xmlns="http://www.w3.org/2000/svg" width="32" height="32" viewBox="0 0 32 32">
<title>zepicons-ps-ps</title>
<path d="M14.725 23.301l1.897-5.12h-5.053l3.413-6.396h2.465l-2.208 4.222h4.486l-4.999 7.293zM29.193 10.313h-3.413v1.599h-0.63l-3.094-2.946h-4.54v-1.024h3.475v-1.276h-11.382v1.276h3.537v0.961h-4.478c-0.505 0-0.886 0.512-0.886 1.087v1.276h-2.021c-0.568 0-1.073 0.638-1.073 1.473v1.473h-0.754v-3.584h-1.267v11.578h1.259v-3.584h0.824v2.434c0 0.835 0.505 1.473 1.073 1.473h2.27l2.651 2.686h12.766c0.443 0 0.824-0.512 0.824-1.087v-1.859h1.454v2.048h3.413v-14.004h-0.008z"></path>
</svg>
