<!-- Generated by IcoMoon.io -->
<svg version="1.1" xmlns="http://www.w3.org/2000/svg" width="32" height="32" viewBox="0 0 32 32">
<title>zepicons-in</title>
<path fill="#f93" d="M2.667 2.667h26.667v8.891h-26.667z"></path>
<path fill="#fff" d="M2.667 11.557h26.667v8.885h-26.667z"></path>
<path fill="#128807" d="M2.667 20.443h26.667v8.891h-26.667z"></path>
<path fill="#008" d="M19.556 16c0 1.964-1.592 3.556-3.556 3.556s-3.556-1.592-3.556-3.556c0-1.964 1.592-3.556 3.556-3.556s3.556 1.592 3.556 3.556z"></path>
<path fill="#fff" d="M19.111 16c0 1.718-1.393 3.111-3.111 3.111s-3.111-1.393-3.111-3.111c0-1.718 1.393-3.111 3.111-3.111s3.111 1.393 3.111 3.111z"></path>
<path fill="#008" d="M17.333 16c0 0.736-0.597 1.333-1.333 1.333s-1.333-0.597-1.333-1.333c0-0.736 0.597-1.333 1.333-1.333s1.333 0.597 1.333 1.333z"></path>
<path fill="#008" d="M20.407 16.581c-0.096 0.73-0.766 1.244-1.496 1.148s-1.244-0.766-1.148-1.496c0.096-0.73 0.766-1.244 1.496-1.148s1.244 0.766 1.148 1.496z"></path>
<path fill="#008" d="M16 19.111l0.107-1.867-0.107-0.889-0.107 0.889z"></path>
<path fill="#008" d="M20.106 17.702c-0.282 0.68-1.062 1.003-1.742 0.722s-1.003-1.062-0.722-1.742c0.282-0.68 1.062-1.003 1.742-0.722s1.003 1.062 0.722 1.742z"></path>
<path fill="#008" d="M15.194 19.005l0.586-1.775 0.127-0.887-0.333 0.831z"></path>
<path fill="#008" d="M19.526 18.706c-0.448 0.584-1.285 0.694-1.869 0.246s-0.694-1.285-0.246-1.869c0.448-0.584 1.285-0.694 1.869-0.246s0.694 1.285 0.246 1.869z"></path>
<path fill="#008" d="M14.444 18.694l1.026-1.563 0.352-0.824-0.537 0.717z"></path>
<path fill="#008" d="M18.705 19.527c-0.584 0.448-1.421 0.338-1.869-0.246s-0.338-1.421 0.246-1.869c0.584-0.448 1.421-0.338 1.869 0.246s0.338 1.421-0.246 1.869z"></path>
<path fill="#008" d="M13.799 18.2l1.395-1.244 0.553-0.704-0.704 0.553z"></path>
<path fill="#008" d="M17.701 20.107c-0.68 0.282-1.46-0.041-1.742-0.722s0.041-1.46 0.722-1.742c0.68-0.282 1.46 0.041 1.742 0.722s-0.041 1.46-0.722 1.742z"></path>
<path fill="#008" d="M13.306 17.555l1.67-0.841 0.717-0.537-0.824 0.352z"></path>
<path fill="#008" d="M16.579 20.407c-0.73 0.096-1.4-0.418-1.496-1.148s0.418-1.4 1.148-1.496c0.73-0.096 1.4 0.418 1.496 1.148s-0.418 1.4-1.148 1.496z"></path>
<path fill="#008" d="M12.995 16.805l1.831-0.38 0.831-0.333-0.887 0.127z"></path>
<path fill="#008" d="M15.419 20.407c-0.73-0.096-1.244-0.766-1.148-1.496s0.766-1.244 1.496-1.148c0.73 0.096 1.244 0.766 1.148 1.496s-0.766 1.244-1.496 1.148z"></path>
<path fill="#008" d="M12.889 16l1.867 0.107 0.889-0.107-0.889-0.107z"></path>
<path fill="#008" d="M14.298 20.106c-0.68-0.282-1.003-1.062-0.722-1.742s1.062-1.003 1.742-0.722c0.68 0.282 1.003 1.062 0.722 1.742s-1.062 1.003-1.742 0.722z"></path>
<path fill="#008" d="M12.995 15.194l1.775 0.586 0.887 0.127-0.831-0.333z"></path>
<path fill="#008" d="M13.292 19.526c-0.584-0.448-0.694-1.285-0.246-1.869s1.285-0.694 1.87-0.246c0.584 0.448 0.694 1.285 0.246 1.869s-1.285 0.694-1.87 0.246z"></path>
<path fill="#008" d="M13.305 14.444l1.563 1.026 0.824 0.352-0.717-0.537z"></path>
<path fill="#008" d="M12.472 18.704c-0.448-0.584-0.338-1.421 0.246-1.869s1.421-0.338 1.87 0.246c0.448 0.584 0.338 1.421-0.246 1.869s-1.421 0.338-1.87-0.246z"></path>
<path fill="#008" d="M13.799 13.799l1.245 1.395 0.704 0.553-0.553-0.704z"></path>
<path fill="#008" d="M11.892 17.7c-0.282-0.68 0.041-1.46 0.722-1.742s1.46 0.041 1.742 0.722c0.282 0.68-0.041 1.46-0.722 1.742s-1.46-0.041-1.742-0.722z"></path>
<path fill="#008" d="M14.444 13.305l0.841 1.67 0.537 0.717-0.352-0.824z"></path>
<path fill="#008" d="M11.592 16.578c-0.096-0.73 0.418-1.4 1.148-1.496s1.4 0.418 1.496 1.148c0.096 0.73-0.418 1.4-1.148 1.496s-1.4-0.418-1.496-1.148z"></path>
<path fill="#008" d="M15.194 12.994l0.38 1.831 0.333 0.831-0.127-0.887z"></path>
<path fill="#008" d="M11.591 15.419c0.096-0.73 0.766-1.244 1.496-1.148s1.244 0.766 1.148 1.496c-0.096 0.73-0.766 1.244-1.496 1.148s-1.244-0.766-1.148-1.496z"></path>
<path fill="#008" d="M15.999 12.889l-0.107 1.867 0.107 0.889 0.107-0.889z"></path>
<path fill="#008" d="M11.893 14.297c0.282-0.68 1.062-1.003 1.742-0.722s1.003 1.062 0.722 1.742c-0.282 0.68-1.062 1.003-1.742 0.722s-1.003-1.062-0.722-1.742z"></path>
<path fill="#008" d="M16.804 12.994l-0.586 1.775-0.127 0.887 0.333-0.831z"></path>
<path fill="#008" d="M12.473 13.293c0.448-0.584 1.285-0.694 1.87-0.246s0.694 1.285 0.246 1.87c-0.448 0.584-1.285 0.694-1.87 0.246s-0.694-1.285-0.246-1.87z"></path>
<path fill="#008" d="M17.554 13.305l-1.026 1.563-0.352 0.824 0.537-0.717z"></path>
<path fill="#008" d="M13.294 12.472c0.584-0.448 1.421-0.338 1.87 0.246s0.338 1.421-0.246 1.87c-0.584 0.448-1.421 0.338-1.87-0.246s-0.338-1.421 0.246-1.87z"></path>
<path fill="#008" d="M18.199 13.8l-1.395 1.245-0.553 0.704 0.704-0.553z"></path>
<path fill="#008" d="M14.298 11.891c0.68-0.282 1.46 0.041 1.742 0.722s-0.041 1.46-0.722 1.742c-0.68 0.282-1.46-0.041-1.742-0.722s0.041-1.46 0.722-1.742z"></path>
<path fill="#008" d="M18.693 14.443l-1.67 0.841-0.717 0.537 0.824-0.352z"></path>
<path fill="#008" d="M15.42 11.591c0.73-0.096 1.4 0.418 1.496 1.148s-0.418 1.4-1.148 1.496c-0.73 0.096-1.4-0.418-1.496-1.148s0.418-1.4 1.148-1.496z"></path>
<path fill="#008" d="M19.005 15.193l-1.831 0.38-0.831 0.333 0.887-0.127z"></path>
<path fill="#008" d="M16.58 11.591c0.73 0.096 1.244 0.766 1.148 1.496s-0.766 1.244-1.496 1.148c-0.73-0.096-1.244-0.766-1.148-1.496s0.766-1.244 1.496-1.148z"></path>
<path fill="#008" d="M19.11 15.998l-1.867-0.107-0.889 0.107 0.889 0.107z"></path>
<path fill="#008" d="M17.701 11.892c0.68 0.282 1.003 1.062 0.722 1.742s-1.062 1.003-1.742 0.722c-0.68-0.282-1.003-1.062-0.722-1.742s1.062-1.003 1.742-0.722z"></path>
<path fill="#008" d="M19.004 16.804l-1.775-0.586-0.887-0.127 0.831 0.333z"></path>
<path fill="#008" d="M18.706 12.472c0.584 0.448 0.694 1.285 0.246 1.87s-1.285 0.694-1.869 0.246c-0.584-0.448-0.694-1.285-0.246-1.87s1.285-0.694 1.869-0.246z"></path>
<path fill="#008" d="M18.693 17.553l-1.563-1.026-0.824-0.352 0.717 0.537z"></path>
<path fill="#008" d="M19.526 13.293c0.448 0.584 0.338 1.421-0.246 1.87s-1.421 0.338-1.869-0.246c-0.448-0.584-0.338-1.421 0.246-1.87s1.421-0.338 1.869 0.246z"></path>
<path fill="#008" d="M18.199 18.198l-1.244-1.395-0.704-0.553 0.553 0.704z"></path>
<path fill="#008" d="M20.106 14.298c0.282 0.68-0.041 1.46-0.722 1.742s-1.46-0.041-1.742-0.722c-0.282-0.68 0.041-1.46 0.722-1.742s1.46 0.041 1.742 0.722z"></path>
<path fill="#008" d="M17.555 18.692l-0.841-1.67-0.537-0.717 0.352 0.824z"></path>
<path fill="#008" d="M20.406 15.419c0.096 0.73-0.418 1.4-1.148 1.496s-1.4-0.418-1.496-1.148c-0.096-0.73 0.418-1.4 1.148-1.496s1.4 0.418 1.496 1.148z"></path>
<path fill="#008" d="M16.804 19.004l-0.38-1.831-0.333-0.831 0.127 0.887z"></path>
</svg>
