<!-- Generated by IcoMoon.io -->
<svg version="1.1" xmlns="http://www.w3.org/2000/svg" width="24" height="24" viewBox="0 0 24 24">
<title>zepicons-systems-systems</title>
<path d="M20.264 25.662v-2.26h4.269v2.26h-4.269zM20.264 21.147v-2.26h4.269v2.26h-4.269zM13.866 21.147v-2.26h4.269v2.26h-4.269zM13.866 25.662v-2.26h4.269v2.26h-4.269zM7.468 21.147v-2.26h4.269v2.26h-4.269zM7.468 25.662v-2.26h4.269v2.26h-4.269zM24.874 13.626l-3.541 3.002v-2.088c0-0.978-1.070-1.524-1.792-0.914l-3.541 3.002v-2.088c0-0.978-1.070-1.524-1.792-0.914l-3.541 3.002-0.983-10.391c-0.049-0.512-0.456-0.903-0.94-0.903h-1.488c-0.484 0-0.891 0.392-0.94 0.903l-0.983 10.391v11.294h21.333v-13.382c0-0.978-1.070-1.524-1.792-0.914v0z"></path>
</svg>
