<!-- Generated by IcoMoon.io -->
<svg version="1.1" xmlns="http://www.w3.org/2000/svg" width="24" height="24" viewBox="0 0 24 24">
<title>zepicons-users</title>
<path d="M21.333 17.333c-0.387 0-0.827 0-1.293 0.067 1.547 1.12 2.627 2.6 2.627 4.6v3.333h8v-3.333c0-3.107-6.227-4.667-9.333-4.667v0zM10.667 17.333c-3.107 0-9.333 1.56-9.333 4.667v3.333h18.667v-3.333c0-3.107-6.227-4.667-9.333-4.667v0zM10.667 14.667c2.209 0 4-1.791 4-4s-1.791-4-4-4c-2.209 0-4 1.791-4 4s1.791 4 4 4v0zM21.333 14.667c2.209 0 4-1.791 4-4s-1.791-4-4-4c-2.209 0-4 1.791-4 4s1.791 4 4 4z"></path>
</svg>
