<!-- Generated by IcoMoon.io -->
<svg version="1.1" xmlns="http://www.w3.org/2000/svg" width="32" height="32" viewBox="0 0 32 32">
<title>zepicons-image</title>
<path d="M17.333 12h7.333l-7.333-7.333v7.333zM8 2.667h10.667l8 8v16c0 1.473-1.194 2.667-2.667 2.667h-16c-1.48 0-2.667-1.2-2.667-2.667v-21.333c0-1.48 1.187-2.667 2.667-2.667v0zM8 26.667h16v-10.667l-5.333 5.333-2.667-2.667-8 8zM10.667 12c-1.473 0-2.667 1.194-2.667 2.667s1.194 2.667 2.667 2.667c1.473 0 2.667-1.194 2.667-2.667s-1.194-2.667-2.667-2.667z"></path>
</svg>
