<!-- Generated by IcoMoon.io -->
<svg version="1.1" xmlns="http://www.w3.org/2000/svg" width="24" height="24" viewBox="0 0 24 24">
<title>zepicons-cart</title>
<path d="M24 24c1.473 0 2.667 1.194 2.667 2.667s-1.194 2.667-2.667 2.667c-1.48 0-2.667-1.2-2.667-2.667 0-1.48 1.187-2.667 2.667-2.667v0zM2.667 2.667h4.36l1.253 2.667h19.72c0.736 0 1.333 0.597 1.333 1.333 0 0.227-0.067 0.453-0.16 0.667l-4.773 8.627c-0.453 0.813-1.333 1.373-2.333 1.373h-9.933l-1.2 2.173-0.040 0.16c0 0.184 0.149 0.333 0.333 0.333h15.44v2.667h-16c-1.48 0-2.667-1.2-2.667-2.667 0-0.467 0.12-0.907 0.32-1.28l1.813-3.267-4.8-10.12h-2.667v-2.667zM10.667 24c1.473 0 2.667 1.194 2.667 2.667s-1.194 2.667-2.667 2.667c-1.48 0-2.667-1.2-2.667-2.667 0-1.48 1.187-2.667 2.667-2.667v0zM22.667 14.667l3.707-6.667h-16.853l3.147 6.667h10z"></path>
</svg>
