<!-- Generated by IcoMoon.io -->
<svg version="1.1" xmlns="http://www.w3.org/2000/svg" width="24" height="24" viewBox="0 0 24 24">
<title>zepicons-linkedin</title>
<path d="M28 28h-5.333v-9c0-1.413-1.587-2.587-3-2.587s-2.333 1.173-2.333 2.587v9h-5.333v-16h5.333v2.667c0.88-1.427 3.147-2.347 4.667-2.347 3.333 0 6 2.72 6 6.013v9.667zM9.333 28h-5.333v-16h5.333v16zM6.667 4c1.473 0 2.667 1.194 2.667 2.667s-1.194 2.667-2.667 2.667c-1.473 0-2.667-1.194-2.667-2.667s1.194-2.667 2.667-2.667z"></path>
</svg>
