<!-- Generated by IcoMoon.io -->
<svg version="1.1" xmlns="http://www.w3.org/2000/svg" width="32" height="32" viewBox="0 0 32 32">
<title>zepicons-bookmark</title>
<path d="M28 24c-1.467-0.467-3.067-0.667-4.667-0.667-1.785 0-4.18 0.541-6 1.323v-15.333c1.82-0.781 4.215-1.323 6-1.323 1.6 0 3.2 0.2 4.667 0.667v15.333zM4 24v-15.333c1.467-0.467 3.067-0.667 4.667-0.667 1.784 0 4.18 0.541 6 1.323v15.333c-1.82-0.781-4.216-1.323-6-1.323-1.6 0-3.2 0.2-4.667 0.667v0zM28 6c-1.48-0.467-3.107-0.667-4.667-0.667-2.6 0-5.4 0.533-7.333 2-1.933-1.467-4.733-2-7.333-2s-5.4 0.533-7.333 2v19.533c0 0.333 0.333 0.667 0.667 0.667 0.133 0 0.2-0.067 0.333-0.067 1.8-0.867 4.4-1.467 6.333-1.467 2.6 0 5.4 0.533 7.333 2 1.8-1.133 5.067-2 7.333-2 2.2 0 4.467 0.4 6.333 1.4 0.133 0.067 0.2 0.067 0.333 0.067 0.333 0 0.667-0.333 0.667-0.667v-19.467c-0.8-0.6-1.667-1-2.667-1.333v0z"></path>
</svg>
