<!-- Generated by IcoMoon.io -->
<svg version="1.1" xmlns="http://www.w3.org/2000/svg" width="32" height="32" viewBox="0 0 32 32">
<title>zepicons-rental-rent</title>
<path d="M3.45 9.194c-1.918 1.927-1.918 5.061 0 6.963 1.919 1.927 5.041 1.927 6.934 0 1.919-1.927 1.919-5.062 0-6.963-1.92-1.927-5.015-1.927-6.934 0zM10.858 16.644c-2.175 2.184-5.706 2.184-7.893 0-2.175-2.196-2.175-5.741 0-7.925s5.706-2.184 7.893 0c2.175 2.184 2.175 5.729 0 7.925zM15.488 7.897h-1.77l0.34 1.504h1.77l-0.34-1.504zM16.373 11.93l-0.409-1.914h-1.769l0.408 1.914h1.77zM18.687 7.897h-2.587l0.34 1.504h2.587v-0.068l-0.067-0.205-0.069-0.41v-0.068l-0.205-0.752zM19.708 11.93l-0.476-1.914h-2.587l0.409 1.914h2.654zM14.151 13.126c0.123-2.015-0.572-4.068-2.102-5.604-0.070-0.070-0.147-0.131-0.219-0.198l0.050-0.247c0.069-0.273 0.273-0.41 0.476-0.41h7.42c0.34 0 0.545 0.342 0.477 0.615l-0.477 1.367 1.973 7.313-1.157-0.273-0.817-3.008h-2.723l0.477 1.914-0.681-0.273-0.409-1.641h-1.769l0.204 0.958-0.681-0.274-0.044-0.239zM18.96 24.164c0.748 0 1.361-0.614 1.361-1.367 0-0.752-0.613-1.367-1.361-1.367-0.749 0-1.362 0.615-1.362 1.367 0 0.753 0.613 1.367 1.362 1.367zM18.96 19.791c1.633 0 2.994 1.367 2.994 3.006 0 1.64-1.361 3.007-2.994 3.007-1.634 0-2.996-1.367-2.996-3.007 0-1.639 1.361-3.006 2.996-3.006zM29.306 22.592l0.952 0.753-6.467 0.82c-0.612 0.069-1.088-0.342-1.225-0.889v-0.478c0-1.298-0.749-2.461-1.77-3.076v-1.435l-7.257-2.644c0.256-0.58 0.434-1.184 0.532-1.802l9.107 3.284v1.367h0.272l4.765 4.238 1.090-0.137zM7.761 19.918c-0.616 0.461-1.089 1.107-1.326 1.854l-1.77-0.41-1.021-1.025 0.131-1.086c1.252 0.601 2.636 0.825 3.985 0.668zM18.96 19.175c-1.975 0-3.608 1.641-3.608 3.623 0 0.411 0.068 0.753 0.136 1.162h-2.178c0.136-0.342 0.204-0.683 0.204-1.093 0-1.641-1.157-3.076-2.655-3.487l-0.068-0.068v-0.466c0.446-0.283 0.869-0.614 1.259-1.005 0.484-0.489 0.879-1.032 1.197-1.606l7.006 2.531v0.683c-0.408-0.205-0.817-0.274-1.293-0.274zM9.974 24.164c0.749 0 1.361-0.614 1.361-1.367 0-0.752-0.612-1.367-1.361-1.367s-1.361 0.615-1.361 1.367c0 0.753 0.613 1.367 1.361 1.367zM9.906 19.791c1.634 0 2.995 1.367 2.995 3.006 0 1.64-1.293 3.007-2.995 3.007-1.634 0-2.995-1.367-2.995-3.007 0-1.639 1.361-3.006 2.995-3.006zM5.353 14.893c0.157-0.104 0.228-0.321 0.165-0.505-0.019-0.061-0.036-0.084-0.115-0.165-0.082-0.083-0.1-0.096-0.164-0.116-0.086-0.028-0.214-0.025-0.3 0.005-0.050 0.018-0.082 0.040-0.148 0.105-0.072 0.071-0.087 0.093-0.111 0.162-0.034 0.098-0.029 0.232 0.013 0.326 0.031 0.072 0.125 0.178 0.186 0.212 0.151 0.081 0.333 0.072 0.474-0.025zM7.245 13.679c0.036 0.15 0.053 0.304 0.046 0.458-0.025 0.904-0.773 1.634-1.671 1.634-0.373-0-0.701-0.11-1.013-0.335-0.12-0.087-0.344-0.331-0.424-0.46-0.341-0.554-0.346-1.238-0.013-1.779 0.216-0.351 0.536-0.592 0.963-0.726 0.267-0.085 0.577-0.097 0.865-0.035 0.097 0.021 0.174 0.030 0.2 0.021 0.035-0.011 0.205-0.175 1.365-1.322l1.325-1.309 0.454-0.020c0.25-0.012 0.459-0.016 0.466-0.009 0.010 0.009-0.079 1.091-0.093 1.128-0.004 0.012-0.126 0.018-0.326 0.016-0.449-0.003-0.436-0.014-0.44 0.429l-0.003 0.311-0.31-0.001c-0.19-0.002-0.323 0.005-0.343 0.017-0.084 0.050-0.087 0.076-0.091 0.461l-0.003 0.363-0.476 0.47c-0.558 0.552-0.522 0.499-0.48 0.685z"></path>
</svg>
