<?xml version="1.0" encoding="UTF-8"?>
<svg width="234px" height="127px" viewBox="0 0 234 127" version="1.1" xmlns="http://www.w3.org/2000/svg" xmlns:xlink="http://www.w3.org/1999/xlink">
    <!-- Generator: sketchtool 61.2 (101010) - https://sketch.com -->
    <title>2762971A-3804-4154-BB06-3B5D3399BFF6@1.50x</title>
    <desc>Created with sketchtool.</desc>
    <g id="Logo-Proof" stroke="none" stroke-width="1" fill="none" fill-rule="evenodd">
        <g id="Partner-Logos" transform="translate(-74.000000, -107.000000)">
            <g id="Logo/Partner/CAT" transform="translate(50.000000, 83.000000)">
                <g id="Logo/Partner/Naked/CAT" transform="translate(24.000000, 24.000000)">
                    <g id="CAT">
                        <polygon id="Triangle" fill="#FFCC00" points="173.828723 126.613403 111.197155 76.2436469 48.549261 126.613403"></polygon>
                        <path d="M40.7774607,0.273482469 C55.4393865,0.273482469 67.3419966,12.1760926 67.3419966,26.9359823 L67.3419966,52.8474257 L41.504026,52.8474257 L41.504026,26.3808537 C41.504026,22.6827176 38.5651099,19.6458377 34.8669739,19.6458377 C31.0953649,19.6458377 28.1319578,22.6827176 28.1319578,26.3808537 L28.1319578,100.637467 C28.1319578,104.319275 31.0953649,107.364319 34.8669739,107.364319 C38.5651099,107.364319 41.504026,104.319275 41.504026,100.637467 L41.504026,74.162731 L67.3419966,74.162731 L67.3419966,95.2902722 C67.4317968,99.3476091 65.6766108,103.306982 62.541767,105.894861 L36.6221599,126.744838 L26.5726996,126.744838 C11.9026101,126.744838 8.75340478e-12,114.752428 8.75340478e-12,100.082338 L8.75340478e-12,26.9359823 C8.75340478e-12,12.1760926 11.9026101,0.273482469 26.5726996,0.273482469 L40.7774607,0.273482469 Z M215.865835,0.271033372 L215.865835,25.1783472 L196.019988,25.1783472 L196.019988,126.742389 L185.692964,126.742389 L167.430866,112.072299 L167.430866,25.1783472 L147.601346,25.1783472 L147.601346,0.271033372 L215.865835,0.271033372 Z M130.995653,0.275931566 L150.825173,98.7051294 L111.15797,66.7852353 L71.4907665,98.7051294 L91.32845,0.275931566 L130.995653,0.275931566 Z M111.15797,25.1750817 L104.700518,57.0949758 L117.615422,57.0949758 L111.15797,25.1750817 Z M225.914479,9.8328878e-13 C230.138349,9.8328878e-13 233.563825,3.44890213 233.563825,7.69832741 C233.563825,11.9477527 230.138349,15.3966548 225.914479,15.3966548 C221.678364,15.3966548 218.25697,11.9518624 218.25697,7.69832741 C218.25697,3.44479239 221.678364,9.8328878e-13 225.914479,9.8328878e-13 Z M225.914479,0.457164724 C221.931549,0.457164724 218.714135,3.69658263 218.714135,7.69832741 C218.714135,11.7000722 221.931549,14.9394901 225.914479,14.9394901 C229.885164,14.9394901 233.10666,11.6959624 233.10666,7.69832741 C233.10666,3.70069237 229.885164,0.457164724 225.914479,0.457164724 Z M226.668801,3.37322257 C227.354548,3.37322257 227.934168,3.47118644 228.383169,3.67527784 C229.240353,4.05896966 229.673026,4.78553502 229.673026,5.83864662 C229.673026,6.3774479 229.558735,6.83461262 229.321989,7.17748617 C229.101571,7.52035971 228.791352,7.79792401 228.383169,8.01834271 C228.726042,8.15712486 229.003607,8.3530526 229.183207,8.58979862 C229.362808,8.82654464 229.460771,9.2020728 229.485262,9.74087409 L229.534244,10.9572588 C229.550572,11.3164597 229.575063,11.569533 229.607717,11.7409698 C229.689354,12.0266977 229.819972,12.2144618 230.0159,12.2960983 L230.0159,12.5083534 L228.49746,12.5083534 C228.456642,12.4185532 228.423987,12.328753 228.399496,12.2062981 C228.375005,12.0756796 228.350514,11.83077 228.334187,11.4797328 L228.260714,9.95312914 C228.236223,9.35718226 228.007641,8.95716313 227.591294,8.75307173 C227.362712,8.64694421 226.995347,8.58979862 226.481037,8.58979862 L223.672739,8.58979862 L223.672739,12.5083534 L222.431864,12.5083534 L222.431864,3.37322257 L226.668801,3.37322257 Z M226.685128,4.43449782 L223.672739,4.43449782 L223.672739,7.55301433 L226.521855,7.55301433 C227.109639,7.55301433 227.566803,7.43872315 227.901513,7.21014079 C228.244387,6.97339477 228.40766,6.55704833 228.40766,5.9529378 C228.40766,5.29984534 228.179077,4.85900792 227.705585,4.62226191 C227.444348,4.49980707 227.109639,4.43449782 226.685128,4.43449782 Z" id="Letters" fill="#000000"></path>
                    </g>
                </g>
            </g>
        </g>
    </g>
</svg>