<?xml version="1.0" encoding="UTF-8"?>
<svg width="128px" height="128px" viewBox="0 0 128 128" version="1.1" xmlns="http://www.w3.org/2000/svg" xmlns:xlink="http://www.w3.org/1999/xlink">
    <!-- Generator: sketchtool 61.2 (101010) - https://sketch.com -->
    <title>8B9C4DF5-C1B4-4C82-BBC2-26FA1E1C6D0B@1.50x</title>
    <desc>Created with sketchtool.</desc>
    <g id="Logo-Proof" stroke="none" stroke-width="1" fill="none" fill-rule="evenodd">
        <g id="Partner-Logos" transform="translate(-74.000000, -333.000000)" fill="#000000">
            <g id="Logo/Partner/EDM" transform="translate(50.000000, 309.000000)">
                <g id="Logo/Partner/Naked/EDM" transform="translate(24.000000, 24.000000)">
                    <path d="M121.599484,2.28865815e-11 C125.13334,2.28865815e-11 127.9998,2.86555707 127.9998,6.40031609 L127.9998,121.599684 C127.9998,125.134443 125.13334,128 121.599484,128 L6.40011609,128 C2.86535707,128 -0.000199999976,125.134443 -0.000199999976,121.599684 L-0.000199999976,6.40031609 C-0.000199999976,2.86555707 2.86535707,2.28865815e-11 6.40011609,2.28865815e-11 L121.599484,2.28865815e-11 Z M119.813201,3.7 L8.1867991,3.7 C6.62664131,3.7 6.06089039,3.86244482 5.49052002,4.16748223 C4.92014965,4.47251964 4.47251964,4.92014965 4.16748223,5.49052002 C3.8803882,6.02733919 3.71960456,6.56006639 3.70168224,7.92159636 L3.7,8.1867991 L3.7,119.813201 C3.7,121.373359 3.86244482,121.93911 4.16748223,122.50948 C4.47251964,123.07985 4.92014965,123.52748 5.49052002,123.832518 C6.02733919,124.119612 6.56006639,124.280395 7.92159636,124.298318 L8.1867991,124.3 L119.813201,124.3 C121.373359,124.3 121.93911,124.137555 122.50948,123.832518 C123.07985,123.52748 123.52748,123.07985 123.832518,122.50948 C124.119612,121.972661 124.280395,121.439934 124.298318,120.078404 L124.3,119.813201 L124.3,8.1867991 C124.3,6.62664131 124.137555,6.06089039 123.832518,5.49052002 C123.52748,4.92014965 123.07985,4.47251964 122.50948,4.16748223 C121.93911,3.86244482 121.373359,3.7 119.813201,3.7 Z M98.4263118,60.9684519 C98.521138,61.9898655 98.5653902,63.0194069 98.5653902,64.0778478 C98.5653902,68.2565218 97.2423391,72.9869939 96.2019604,76.0548468 C96.2019604,76.0548468 93.5233464,85.473345 83.594593,90.1559524 C70.2295193,96.4262211 54.1081643,93.4712565 40.2788938,94.2705058 C39.9113294,94.297599 39.4444233,94.3093394 39.076859,94.3436574 C38.2022906,94.3436574 38.483518,93.8637827 38.5485091,93.7678078 L38.560282,93.7512195 C39.5031253,92.813795 39.9998339,90.8016736 40.2788938,89.0460344 C40.5254419,87.4692104 40.58595,86.0088871 40.5949811,85.4345114 L40.5949811,85.4345114 L45.5458112,85.4345114 C45.5458112,86.558879 45.6523777,90.9001122 46.8652498,90.9127557 C58.0267436,91.0951832 86.8051368,96.2744992 92.4296844,70.394175 C92.6021777,69.5172585 92.7493841,68.6024116 92.8713035,67.690274 L92.8713035,67.690274 Z M14.0459064,44.549975 C14.7196239,44.6005489 15.4041787,44.6402856 16.0896365,44.6737005 L16.0896365,44.6737005 L56.6084148,44.6818285 C56.6084148,44.6818285 56.9452735,48.4333331 56.5199103,49.7157444 C54.5953903,48.0007451 52.024246,47.9881016 49.464842,47.9881016 L23.1428986,47.9881016 L23.1428986,62.1334594 C23.1428986,62.1334594 32.9280581,62.3637516 34.801101,61.9176169 C35.1189945,62.5561133 35.2192394,63.2352494 35.2192394,64.0046962 C35.2192394,64.7858833 35.1189945,65.2004092 34.801101,65.8361962 C32.9280581,65.3963833 23.1428986,65.6293848 23.1428986,65.6293848 L23.1428986,65.6293848 L23.1428986,80.0167752 L49.7601725,80.0166622 C52.2210698,80.013971 54.6694103,79.9473402 56.5199103,78.3017759 C56.9186883,79.5048831 56.6475447,83.0550973 56.612094,83.4941744 L56.6084148,83.5388907 L15.2470381,83.5388907 C14.8794738,83.5596622 14.4026335,83.5632746 14.0368753,83.5930771 C13.0741638,83.5930771 13.5212015,83.0196045 13.5212015,83.0196045 C14.4640447,82.0740519 14.9688813,80.0556088 15.2371039,78.3017759 C15.5649316,76.2670768 15.5739627,74.421127 15.5739627,74.421127 L15.573899,53.6963143 C15.5717305,53.1830464 15.5042121,47.1101475 13.5284264,45.1360911 C13.5284264,45.1360911 13.0741638,44.549975 14.0459064,44.549975 Z M113.94972,44.613373 C114.931397,44.613373 114.478037,45.2012954 114.478037,45.2012954 C113.535194,46.1423324 113.029454,48.15626 112.754007,49.9146085 C112.434307,51.9493075 112.403602,53.8079008 112.403602,53.8079008 L112.40379,74.3431629 C112.40833,75.0838641 112.505576,80.947463 114.438301,82.8725787 C114.438301,82.8725787 114.897079,83.4207644 113.920821,83.4207644 L113.920821,83.4207644 L103.205461,83.4207644 C102.233719,83.4207644 102.687078,82.8725787 102.687078,82.8725787 C104.624876,80.947463 104.728778,75.0727831 104.734147,74.3306674 L104.734421,50.4104139 L86.343559,72.5717455 L68.373545,50.8953822 L68.3737352,74.3306674 C68.3783062,75.0727831 68.476038,80.947463 70.416372,82.8725787 C70.416372,82.8725787 70.8751501,83.4207644 69.9025044,83.4207644 L69.9025044,83.4207644 L63.4127807,83.4207644 C62.4410381,83.4207644 62.8871727,82.8725787 62.8871727,82.8725787 C64.7941495,80.9912156 64.9322557,75.337774 64.9419507,74.3891129 L64.9418058,53.7413719 C64.9362657,53.3927059 64.8956817,51.7232298 64.6139125,49.9146085 C64.3357556,48.15626 63.8291129,46.1423324 62.8871727,45.2012954 C62.8871727,45.2012954 62.4410381,44.613373 63.4127807,44.613373 C63.7803451,44.6395631 64.1388784,44.6522066 64.5154738,44.6738812 L64.5154738,44.6738812 L72.6985222,44.6820091 L88.9128972,64.6560166 L105.383754,44.6820091 L112.741363,44.6820091 C113.117056,44.6567221 113.59209,44.6395631 113.94972,44.613373 Z M45.546353,49.9020553 L45.546353,78.0753671 L40.6153913,78.0753671 L40.6153913,49.9020553 L45.546353,49.9020553 Z M58.989094,62.1328272 L58.989094,65.6287527 L50.5676254,65.6287527 L50.5676254,62.1328272 L58.989094,62.1328272 Z M39.0770396,33.657336 C53.1971104,34.7193893 69.8612324,31.3101621 83.5938705,37.8441379 C93.8134242,42.7046573 96.4143711,52.2486873 96.4143711,52.2486873 L96.4143711,52.2486873 L96.4911351,52.5205224 L92.3946438,57.4451624 C86.64908,31.8159017 57.9853813,36.9103258 46.8654304,37.0746911 C45.4647122,37.0954626 45.5459918,42.8247705 45.5459918,42.8247705 L45.5459918,42.8247705 L40.61503,42.8247705 C40.61503,42.8247705 40.6240611,36.2916978 38.5604627,34.2317117 C38.5604627,34.2317117 38.105297,33.657336 39.0770396,33.657336 Z" id="EDM"></path>
                </g>
            </g>
        </g>
    </g>
</svg>