<?xml version="1.0" encoding="UTF-8"?>
<svg width="137px" height="128px" viewBox="0 0 137 128" version="1.1" xmlns="http://www.w3.org/2000/svg" xmlns:xlink="http://www.w3.org/1999/xlink">
    <!-- Generator: sketchtool 61.2 (101010) - https://sketch.com -->
    <title>EBD11D0A-D175-49BF-A55C-888287023CC9@1.50x</title>
    <desc>Created with sketchtool.</desc>
    <g id="Logo-Proof" stroke="none" stroke-width="1" fill="none" fill-rule="evenodd">
        <g id="Partner-Logos" transform="translate(-74.000000, -786.000000)">
            <g id="Logo/Partner/NAPIER" transform="translate(50.000000, 762.000000)">
                <g id="Logo/Partner/Naked/NAPIER" transform="translate(24.000000, 24.000000)">
                    <g id="NAPIER-Turbochargers">
                        <path d="M58.0232381,118.486019 C58.6982857,118.486019 59.311619,118.716114 59.664,119.160686 C59.9401905,119.49821 60.1089524,119.835352 60.1550476,120.310781 L62.1794286,120.310781 C62.087619,119.452114 61.7653333,118.593448 61.136381,117.949257 C60.3238095,117.121067 59.1889524,116.691733 58.0232381,116.691733 C56.8579048,116.691733 55.7691429,117.09059 54.9409524,117.9184 C53.76,119.098971 53.5912381,120.556114 53.5912381,122.335162 C53.5912381,124.113829 53.76,125.570971 54.9409524,126.751924 C55.7691429,127.580114 56.8579048,127.963352 58.0232381,127.963352 C59.1889524,127.963352 60.3238095,127.503543 61.136381,126.675352 C61.7653333,126.031162 62.087619,125.157257 62.1794286,124.29821 L60.1550476,124.29821 C60.1089524,124.773638 59.9401905,125.157257 59.664,125.494019 C59.311619,125.938971 58.6982857,126.184686 58.0232381,126.184686 C57.3946667,126.184686 56.7813333,125.923733 56.351619,125.463543 C55.6,124.681448 55.6,123.332114 55.6,122.335162 C55.6,121.33821 55.6,119.988495 56.351619,119.206781 C56.7813333,118.74659 57.3946667,118.486019 58.0232381,118.486019 L58.0232381,118.486019 Z M77.9074286,123.899352 L79.456,119.31421 L81.0053333,123.899352 L77.9074286,123.899352 Z M78.4133333,116.890971 L74.5946667,127.763733 L76.5885714,127.763733 L77.2933333,125.6784 L81.6186667,125.6784 L82.3241905,127.763733 L84.3942857,127.763733 L80.576,116.890971 L78.4133333,116.890971 Z M70.7687619,121.138971 L66.3059048,121.138971 L66.3059048,116.890971 L64.3272381,116.890971 L64.3272381,127.763733 L66.3059048,127.763733 L66.3059048,123.025067 L70.7687619,123.025067 L70.7687619,127.763733 L72.7474286,127.763733 L72.7474286,116.890971 L70.7687619,116.890971 L70.7687619,121.138971 Z M48.959619,125.448305 C48.5302857,125.908114 47.8708571,126.169067 47.2419048,126.169067 C46.6133333,126.169067 45.9539048,125.908114 45.5245714,125.448305 C44.7729524,124.66621 44.7424762,123.332114 44.7424762,122.335162 C44.7424762,121.33821 44.7729524,119.988495 45.5245714,119.206781 C45.9539048,118.74659 46.6133333,118.486019 47.2419048,118.486019 C47.8708571,118.486019 48.5302857,118.74659 48.959619,119.206781 C49.7112381,119.988495 49.7417143,121.33821 49.7417143,122.335162 C49.7417143,123.332114 49.7112381,124.66621 48.959619,125.448305 L48.959619,125.448305 Z M47.2419048,116.691733 C46.0765714,116.691733 44.9417143,117.09059 44.1135238,117.9184 C42.9325714,119.098971 42.7333333,120.556495 42.7333333,122.335162 C42.7333333,124.113829 42.9325714,125.555733 44.1135238,126.736305 C44.9417143,127.564876 46.0765714,127.963733 47.2419048,127.963733 C48.407619,127.963733 49.5424762,127.564876 50.3706667,126.736305 C51.551619,125.555733 51.7508571,124.113829 51.7508571,122.335162 C51.7508571,120.556495 51.551619,119.098971 50.3706667,117.9184 C49.5424762,117.09059 48.407619,116.691733 47.2419048,116.691733 L47.2419048,116.691733 Z M37.039619,126.000686 L34.6011429,126.000686 L34.6011429,122.979733 L37.1009524,122.979733 C38.143619,122.979733 38.9565714,123.393448 38.9565714,124.558781 C38.9565714,125.663162 37.959619,126.000686 37.039619,126.000686 L37.039619,126.000686 Z M34.6011429,118.593067 L37.039619,118.593067 C37.9291429,118.593067 38.7264762,118.93059 38.7264762,119.973257 C38.7264762,121.001067 37.9752381,121.322971 37.0857143,121.322971 L34.6011429,121.322971 L34.6011429,118.593067 Z M39.4011429,122.151162 C40.3211429,121.736686 40.735619,120.740495 40.735619,119.850971 C40.735619,118.915352 40.2754286,118.01059 39.4777143,117.489448 C38.7417143,117.013638 37.8369524,116.890971 36.9626667,116.890971 L32.6380952,116.890971 L32.6380952,127.779352 L36.9626667,127.779352 C38.0057143,127.779352 39.0179048,127.687162 39.8613333,127.043352 C40.6434286,126.445257 40.9657143,125.570971 40.9657143,124.604876 C40.9657143,123.592305 40.4289524,122.62621 39.4011429,122.151162 L39.4011429,122.151162 Z M90.8582857,121.874971 L88.2205714,121.874971 L88.2205714,118.623924 L90.8274286,118.623924 C91.9470476,118.623924 92.6217143,119.390781 92.6217143,120.264686 C92.6217143,121.292495 91.9779048,121.874971 90.8582857,121.874971 L90.8582857,121.874971 Z M94.6,120.264686 C94.6,118.516876 93.4194286,116.890971 90.8274286,116.890971 L86.2422857,116.890971 L86.2422857,127.763733 L88.2358095,127.763733 L88.2358095,123.653638 L90.6434286,123.653638 L92.4529524,127.763733 L94.6,127.763733 L92.6064762,123.316495 C93.8022857,122.871924 94.6,121.721829 94.6,120.264686 L94.6,120.264686 Z M26.696,121.874971 L24.0579048,121.874971 L24.0579048,118.623924 L26.6651429,118.623924 C27.7847619,118.623924 28.4594286,119.390781 28.4594286,120.264686 C28.4594286,121.292495 27.815619,121.874971 26.696,121.874971 L26.696,121.874971 Z M30.4373333,120.264686 C30.4373333,118.516876 29.2567619,116.890971 26.6651429,116.890971 L22.079619,116.890971 L22.079619,127.763733 L24.0735238,127.763733 L24.0735238,123.653638 L26.4811429,123.653638 L28.2906667,127.763733 L30.4373333,127.763733 L28.4438095,123.316495 C29.640381,122.871924 30.4373333,121.721829 30.4373333,120.264686 L30.4373333,120.264686 Z M133.543238,121.384305 C132.837714,121.292114 131.871619,121.215543 131.181714,121.108495 C130.537524,121.001067 130.077333,120.633067 130.077333,119.927162 C130.077333,119.528305 130.215238,119.252876 130.445333,119.007162 C130.890286,118.546971 131.59581,118.409448 132.209143,118.409448 C132.791619,118.409448 133.512762,118.623924 133.865524,118.991543 C134.126095,119.268114 134.325333,119.68221 134.340571,120.065448 L136.364952,120.065448 C136.349714,119.160686 135.904762,118.363352 135.261333,117.749638 C134.524571,117.059733 133.389714,116.691352 132.224381,116.691352 C130.951238,116.691352 129.755429,117.135924 129.034286,117.841829 C128.467429,118.409448 128.08381,119.129829 128.08381,119.988876 C128.08381,121.798019 129.341333,122.779733 130.84419,123.025067 C131.564952,123.147733 132.51581,123.17859 133.25181,123.316876 C133.926476,123.439543 134.54019,123.807543 134.54019,124.604876 C134.54019,125.1264 134.356571,125.386971 134.110857,125.647924 C133.696381,126.077257 132.976,126.2304 132.224381,126.2304 C131.59581,126.2304 130.859429,126.107733 130.399238,125.647924 C130.077333,125.325257 129.832381,124.85021 129.832381,124.313829 L127.807619,124.313829 C127.807619,125.340876 128.298286,126.260876 128.942857,126.843733 C129.832381,127.656686 131.043429,127.963733 132.193905,127.963733 C133.528,127.963733 134.801143,127.625829 135.628952,126.797638 C136.166095,126.260876 136.533714,125.540495 136.533714,124.527924 C136.533714,122.672305 135.168762,121.614781 133.543238,121.384305 L133.543238,121.384305 Z M122.521524,121.874971 L119.88381,121.874971 L119.88381,118.623924 L122.490667,118.623924 C123.610667,118.623924 124.284952,119.390781 124.284952,120.264686 C124.284952,121.292495 123.641524,121.874971 122.521524,121.874971 L122.521524,121.874971 Z M126.263238,120.264686 C126.263238,118.516876 125.082667,116.890971 122.490667,116.890971 L117.905524,116.890971 L117.905524,127.763733 L119.899048,127.763733 L119.899048,123.653638 L122.307048,123.653638 L124.116571,127.763733 L126.263238,127.763733 L124.269714,123.316495 C125.465905,122.871924 126.263238,121.721829 126.263238,120.264686 L126.263238,120.264686 Z M17.4377143,123.561829 C17.4377143,125.111162 16.7321905,126.169067 15.1527619,126.169067 C13.5729524,126.169067 12.8674286,125.111162 12.8674286,123.561829 L12.8674286,116.890971 L10.8895238,116.890971 L10.8895238,123.592686 C10.8895238,126.184305 12.3459048,127.963352 15.1527619,127.963352 C17.959619,127.963352 19.416,126.184305 19.416,123.592686 L19.416,116.890971 L17.4377143,116.890971 L17.4377143,123.561829 Z M100.706667,123.454781 L103.298286,123.454781 C103.298286,124.282971 103.175619,124.957638 102.593524,125.570971 C102.225143,125.95421 101.673143,126.199924 100.967238,126.199924 C100.339048,126.199924 99.6327619,125.969829 99.2038095,125.509638 C98.4521905,124.727543 98.3447619,123.332114 98.3447619,122.335162 C98.3447619,121.33821 98.4369524,119.988876 99.1881905,119.206781 C99.6179048,118.74659 100.339048,118.470781 100.967238,118.470781 C101.719238,118.470781 102.316952,118.684876 102.700571,119.129448 C102.930667,119.406019 103.145524,119.697448 103.175619,120.126781 L105.2,120.126781 C105.138667,119.175924 104.73981,118.486019 104.203048,117.934019 C103.467429,117.1824 102.316952,116.691352 100.982476,116.691352 C99.8171429,116.691352 98.5752381,117.136305 97.7466667,117.964495 C96.5660952,119.144686 96.336,120.556114 96.336,122.335162 C96.336,124.113829 96.6121905,125.570971 97.7466667,126.751924 C98.6057143,127.656686 99.7249524,127.97859 100.982476,127.963352 C102.347429,127.948114 103.390476,127.196495 103.712381,126.567924 L103.942857,127.763733 L105.215238,127.763733 L105.215238,121.814019 L100.706667,121.814019 L100.706667,123.454781 Z M107.86819,127.763733 L115.612952,127.763733 L115.612952,125.969829 L109.846857,125.969829 L109.846857,122.99459 L114.922667,122.99459 L114.922667,121.215924 L109.846857,121.215924 L109.846857,118.684876 L115.612952,118.684876 L115.612952,116.890971 L107.86819,116.890971 L107.86819,127.763733 Z M0.72952381,118.731352 L3.95047619,118.731352 L3.95047619,127.763733 L5.92838095,127.763733 L5.92838095,118.731352 L9.14933333,118.731352 L9.14933333,116.890971 L0.72952381,116.890971 L0.72952381,118.731352 Z M64.5340952,88.7115429 L62.9005714,88.7115429 L62.9005714,82.3930667 L64.2617143,82.3930667 C65.5687619,82.3930667 66.0049524,82.5564952 66.440381,83.1008762 C66.7672381,83.6452571 67.0392381,84.6265905 67.0392381,85.4982095 C67.0392381,88.0037333 66.4948571,88.7115429 64.5340952,88.7115429 L64.5340952,88.7115429 Z M76.4624762,91.6536381 C76.6262857,89.910019 76.7904762,87.7862095 76.7904762,86.6966857 L76.7904762,83.9728762 C76.7904762,79.3976381 76.1904762,76.7283048 74.9375238,75.638019 C74.0118095,74.822019 72.2137143,74.4944 68.8921905,74.4944 L53.1478095,74.4944 L53.1478095,110.772876 L62.9005714,110.772876 L62.9005714,96.6102095 L69.6548571,96.6102095 C72.3771429,96.6102095 72.3771429,96.6102095 73.303619,96.3926857 C75.1561905,95.9568762 76.136381,94.4864 76.4624762,91.6536381 L76.4624762,91.6536381 Z M123.037714,88.7115429 L121.676571,88.7115429 L121.676571,82.3930667 L123.037714,82.3930667 C125,82.3930667 125.761905,83.2109714 125.761905,85.3351619 C125.761905,88.222019 125.325714,88.7115429 123.037714,88.7115429 L123.037714,88.7115429 Z M135.457524,104.7264 L135.457524,99.1164952 C135.457524,94.8124952 134.422476,93.4517333 130.119619,92.198019 C133.387429,91.8166857 134.750095,90.5637333 135.294476,87.4593524 C135.457524,86.5328762 135.457524,86.3161143 135.457524,83.8635429 L135.457524,81.5218286 C135.457524,77.5995429 134.368762,75.4204952 132.081143,74.7671619 C131.263619,74.5484952 130.446857,74.4944 127.39581,74.4944 L111.925333,74.4944 L111.925333,110.772876 L121.676571,110.772876 L121.676571,96.6102095 L122.874667,96.6102095 C124.889905,96.6102095 125.706667,97.5366857 125.706667,99.8239238 L125.706667,104.672305 C125.706667,107.45059 125.870476,108.921448 126.469714,110.772876 L136.220952,110.772876 C135.730667,108.975543 135.457524,106.90621 135.457524,104.7264 L135.457524,104.7264 Z M36.703619,85.4978286 C36.703619,83.1568762 37.3028571,82.1214476 38.719619,82.1214476 C40.0270476,82.1214476 40.7900952,83.3191619 40.7900952,85.4978286 L40.7900952,95.0852571 L36.703619,95.0852571 L36.703619,85.4978286 Z M36.703619,103.146971 L40.735619,103.146971 L40.735619,110.773257 L50.4853333,110.773257 L50.4853333,81.9031619 C50.4853333,77.2730667 49.3958095,75.3664 46.5093333,74.8757333 C45.1466667,74.6044952 43.0217143,74.4944 40.680381,74.4944 L36.7584762,74.4944 C35.56,74.4944 33.871619,74.5484952 32.8369524,74.6044952 C30.5485714,74.8224 29.5135238,75.0936381 28.6419048,75.8566857 C27.4975238,76.8364952 26.9535238,78.7439238 26.9535238,81.9031619 L26.9535238,110.773257 L36.703619,110.773257 L36.703619,103.146971 Z M94.0419048,110.119162 C95.0769524,110.665067 95.5135238,110.718019 100.033524,110.773257 L109.784762,110.773257 L109.784762,102.87459 L100.797333,102.87459 L100.797333,96.6102095 L109.784762,96.6102095 L109.784762,88.7119238 L100.797333,88.7119238 L100.797333,82.3930667 L109.784762,82.3930667 L109.784762,74.4944 L98.9992381,74.4944 C97.0388571,74.5488762 95.8944762,74.6585905 95.1855238,74.8224 C93.1702857,75.3664 92.0815238,76.6730667 91.5912381,79.1797333 C91.3188571,80.4319238 91.0468571,84.0281143 91.0468571,86.1519238 L91.0468571,97.7542095 C91.0468571,106.252495 91.7001905,108.921448 94.0419048,110.119162 L94.0419048,110.119162 Z M12.6373333,82.8281143 C13.9988571,82.8281143 14.5980952,83.7557333 14.5980952,85.7161143 L14.5980952,110.772876 L24.3497143,110.772876 L24.3497143,83.6452571 C24.3497143,81.4128762 24.3497143,81.3035429 24.2937143,80.2684952 C24.2937143,78.9614476 24.0777143,78.198019 23.5859048,77.2185905 C22.551619,75.0936381 21.2438095,74.4944 17.5405714,74.4944 C13.1817143,74.4944 11.7660952,75.4753524 10.7847619,79.2879238 C10.567619,77.326781 10.4586667,76.6734476 9.85942857,74.4944 L1.08273179e-14,74.4944 C0.762285714,77.5995429 0.925714286,79.2879238 0.925714286,82.774019 L0.925714286,110.772876 L10.6769524,110.772876 L10.6769524,85.8262095 C10.6769524,83.7557333 11.2758095,82.8281143 12.6373333,82.8281143 L12.6373333,82.8281143 Z M78.8491429,110.772876 L88.6,110.772876 L88.6,74.4944 L78.8491429,74.4944 L78.8491429,110.772876 Z" id="NAPIER" fill="#073D1A"></path>
                        <path d="M104.31139,3.21980952 C111.896533,8.84609524 116.415771,17.792381 116.415771,27.2045714 C116.415771,29.3653333 116.184533,31.5097143 115.725105,33.6041905 C115.428724,33.479619 115.12739,33.3725714 114.823771,33.279619 C115.249295,31.2902857 115.464152,29.2544762 115.464152,27.2045714 C115.464152,16.7950476 109.954057,7.52533333 101.477867,2.432 C102.428724,2.64190476 103.377295,2.90552381 104.31139,3.21980952 L104.31139,3.21980952 Z M113.706057,27.2053333 C113.706057,29.7859048 113.345295,32.2841905 112.67101,34.6499048 L112.67101,34.6529524 C113.484343,34.712 114.287771,34.9062857 115.065676,35.2342857 C115.819962,35.5508571 116.426819,35.8106667 116.91939,36.0278095 L116.920914,36.0247619 C117.736533,33.224 118.174248,30.2651429 118.174248,27.2045714 C118.174248,16.7097143 113.032533,7.39580952 105.136152,1.64571429 C102.341867,0.673142857 99.258819,0.0708571429 96.1331048,0.0708571429 C94.5033905,0.0708571429 92.906819,0.21447619 91.355581,0.490285714 L91.3552,0.491047619 C104.060343,2.75009524 113.706057,13.8502857 113.706057,27.2053333 L113.706057,27.2053333 Z M96.3346286,54.4285714 C93.2839619,55.5253333 89.9971048,56.1241905 86.5734857,56.1241905 C85.4492952,56.1241905 84.3392,56.0590476 83.2481524,55.9340952 L83.1849143,55.9051429 L95.8862476,65.6689524 L103.536533,65.6689524 L96.3449143,54.4422857 L96.3346286,54.4285714 Z M34.1353905,43.6906667 C34.1353905,47.4209524 33.491581,49.6708571 32.1422476,50.8293333 C31.2272,51.6293333 30.1605333,51.9721905 28.0363429,52.2182857 L26.2649143,52.3474286 C25.2550095,52.4441905 24.451581,52.5493333 23.787581,52.6906667 C25.0062476,47.2998095 29.0016762,42.9649524 34.1932952,41.2659048 C34.1517714,41.8369524 34.1292952,42.4495238 34.1292952,43.1135238 L34.1353905,43.6906667 Z M87.6359619,5.73333333 C87.9605333,5.33561905 88.5460571,5.27657143 88.9452952,5.60228571 L91.2584381,7.49409524 C91.6561524,7.81904762 91.7159619,8.40495238 91.3913905,8.80266667 C91.2062476,9.02780952 90.938819,9.144 90.6702476,9.144 C90.4630095,9.144 90.2546286,9.07504762 90.0812952,8.93409524 L87.7662476,7.04114286 C87.3689143,6.71695238 87.3094857,6.13104762 87.6359619,5.73333333 L87.6359619,5.73333333 Z M112.132724,36.3413333 C109.76701,36.3428571 107.841295,37.8110476 106.857676,38.8407619 C105.745295,40.0121905 103.597867,40.0807619 103.192914,40.0773333 L82.2580571,40.0773333 C81.8085333,40.0758095 81.443581,39.712381 81.443581,39.2617143 C81.443581,38.8121905 81.8085333,38.448 82.2580571,38.4460952 L82.2652952,38.4460952 L103.514057,38.4426667 L103.492343,38.3478095 C101.143771,28.4247619 93.3605333,20.6053333 83.4599619,18.2 L83.363581,18.184 C82.9780571,18.1165714 82.6847238,17.7813333 82.6847238,17.3752381 C82.6851048,16.9234286 83.051581,16.5577143 83.5041524,16.5569524 C83.539581,16.5569524 83.5742476,16.5584762 83.6085333,16.5638095 L83.6759619,16.5775238 C87.3986286,17.4601905 90.8458667,19.0678095 93.8584381,21.2426667 L93.9331048,21.2975238 L97.0123429,14.6331429 L96.9209143,14.6064762 L95.5262476,11.143619 L97.7772952,12.9740952 L99.0786286,10.16 L86.5952,0.00228571429 L86.5712,-5.41365894e-15 L86.5586286,-5.41365894e-15 C76.7460571,-5.41365894e-15 72.4656762,7.10552381 69.4736762,10.096381 L69.4066286,10.1649524 C69.1540571,10.3874286 68.8222476,10.5226667 68.4584381,10.5226667 C67.6660571,10.5211429 67.026819,9.88152381 67.0249143,9.08952381 C67.0249143,8.69409524 67.1837714,8.33942857 67.4390095,8.07961905 L67.4942476,8.02514286 L67.3822476,7.9127619 L67.3273905,7.9687619 C62.9270095,12.3695238 62.1182476,17.2205714 62.1190095,21.2571429 C62.1197714,23.5798095 62.3849143,25.6365714 62.3872,27.1832381 L62.3841524,27.192381 L62.3841524,27.2053333 C62.3826286,27.9977143 61.7422476,28.6365714 60.9502476,28.6377143 C60.1586286,28.6365714 59.5186286,27.9977143 59.5174857,27.2053333 L59.5174857,27.1382857 L59.4393905,27.1268571 L59.3510095,27.1142857 L59.3510095,27.2034286 C59.3510095,36.9451429 66.3521524,41.232381 69.3822476,44.224 L69.4512,44.2925714 C69.7167238,44.5527619 69.8809143,44.9165714 69.8809143,45.3188571 C69.8809143,46.1108571 69.2405333,46.7497143 68.4477714,46.7504762 C68.1049143,46.7504762 67.778819,46.6434286 67.530819,46.4388571 C62.1289143,41.8034286 58.4176762,35.1878095 57.5982476,27.5935238 L37.5392,35.1382857 C37.3132952,35.2228571 37.1102476,35.32 36.9159619,35.4251429 L32.7742476,36.9992381 C24.7262476,39.6506667 18.8980571,47.2331429 18.8980571,56.1577143 C18.8980571,57.5718095 19.0481524,58.9504762 19.3273905,60.2830476 C19.3224381,60.504381 19.3197714,60.7314286 19.3197714,60.9641905 L19.3197714,65.6689524 L28.6123429,65.6689524 L28.6123429,65.664381 C28.6443429,65.6651429 28.675581,65.6689524 28.7079619,65.6689524 C30.2710095,65.6689524 31.538819,64.4015238 31.538819,62.8384762 C31.538819,61.3306667 30.3593905,60.1020952 28.8736762,60.015619 C29.1769143,58.3017143 29.7483429,57.1241905 30.6058667,56.3897143 C31.634819,55.4906667 32.8569143,55.168 35.5567238,54.911619 C36.778819,54.8468571 38.771581,54.7820952 40.186819,54.7820952 L44.0729143,54.7820952 L44.0759619,54.7672381 C44.1616762,51.496381 44.8043429,49.4777143 46.058819,48.4022857 C47.0877714,47.5020952 48.3110095,47.1809524 51.0112,46.9238095 C52.2321524,46.8590476 54.2249143,46.7950476 55.6409143,46.7950476 L67.7121524,46.7961905 C72.0153905,50.8819048 76.7117714,51.6449524 80.6363429,51.6445714 C82.9593905,51.6445714 85.0157714,51.3790476 86.5620571,51.3790476 C87.3529143,51.3798095 87.9944381,52.0217143 87.9959619,52.8137143 C87.9944381,53.6045714 87.3529143,54.2453333 86.5620571,54.2464762 L86.3209143,54.2464762 L86.5312,54.3969524 L86.5491048,54.4099048 L86.5712,54.4118095 C86.5731048,54.4118095 86.7616762,54.423619 87.1140571,54.423619 C88.9860571,54.423619 95.4329143,54.0678095 102.135771,49.5615238 C103.669867,48.5329524 105.010819,48.1706667 106.144914,48.1706667 C107.550248,48.1706667 108.645486,48.7287619 109.389486,49.2895238 C110.133105,49.8506667 110.518629,50.408381 110.521295,50.408 L110.529676,50.4190476 L110.55101,50.432381 L110.603962,50.4712381 L110.649676,50.4228571 C113.892724,47.0613333 116.441676,43.024381 118.0592,38.5447619 L118.087771,38.4685714 L117.99101,38.439619 C117.904152,38.3779048 117.399771,38.0685714 114.404724,36.8091429 C113.619581,36.479619 112.856152,36.3413333 112.132724,36.3413333 Z M57.4489143,48.8182857 L56.1106286,48.8182857 C54.7205333,48.8182857 52.7670095,48.8822857 51.6104381,48.9417143 C48.9807238,49.1935238 48.2306286,49.4872381 47.6329143,50.0106667 C46.7620571,50.7573333 46.290819,52.4624762 46.2222476,55.1348571 L57.8672,65.6689524 L65.1243429,65.6689524 L56.0732952,51.9908571 L57.4489143,48.8182857 Z" id="Lion" fill="#B2B2B2"></path>
                    </g>
                </g>
            </g>
        </g>
    </g>
</svg>