<!-- Generated by IcoMoon.io -->
<svg version="1.1" xmlns="http://www.w3.org/2000/svg" width="32" height="32" viewBox="0 0 32 32">
<title>zepicons-rental-logistics</title>
<path d="M12.582 21.493c0.147-0.14 0.347-0.375 0.213-0.521-0.276-0.302-0.593-1.182-0.913-2.361l-0.386-1.574c-0.47-2.042-0.91-4.478-1.202-6.361-0.032-0.2-0.416-0.34-0.614-0.308s-0.627 0.222-0.596 0.423c0.148 0.958 1.482 9.383 2.691 10.687 0.068 0.075 0.163 0.118 0.263 0.117 0.088 0 0.476-0.033 0.543-0.102zM29.406 21.411c0.566 0 1.026 0.468 1.028 1.046v1.914c-0.001 0.578-0.461 1.047-1.028 1.048h-3.51c-0.443 1.221-1.581 2.034-2.855 2.039h-14.318c-1.274-0.006-2.412-0.817-2.855-2.039h-3.507c-0.567-0.002-1.026-0.47-1.028-1.048v-1.914c0.004-0.578 0.463-1.045 1.028-1.046h0.748c0.14-5.004 2.405-9.38 5.78-11.953-0.108-0.587-0.175-1.047-0.185-1.316-0.009-0.255 4.708-1.603 5.916-1.664-0.054 0.106-0.117 0.333-0.18 0.651 0.914-0.124 1.84-0.127 2.756-0.014-0.375 0.934-0.585 1.953-0.585 3.024 0 2.733 1.349 5.145 3.404 6.587-0.021 0.092-0.041 0.187-0.062 0.278l-0.389 1.573c-0.317 1.18-0.634 2.060-0.908 2.359-0.139 0.148 0.066 0.384 0.211 0.526 0.070 0.064 0.388 0.133 0.479 0.133 0.1 0 0.195-0.042 0.263-0.117 0.491-0.531 1.004-2.24 1.449-4.144 1.021 0.502 2.162 0.793 3.371 0.796 1.296-0.004 2.514-0.333 3.591-0.904 0.376 1.322 0.602 2.725 0.643 4.185h0.745zM24.423 4.737c-2.923 0-5.28 2.41-5.28 5.397s2.377 5.417 5.28 5.397c2.923 0 5.299-2.43 5.28-5.397 0-2.987-2.377-5.416-5.28-5.397zM24.423 16.287c-3.322-0.011-6.011-2.759-6.011-6.143 0-3.386 2.689-6.134 6.011-6.144 3.313 0 6.002 2.748 6.011 6.144 0 3.384-2.689 6.133-6.011 6.143zM21.225 9.604v-0.744h-0.916l1.322-1.821 1.322 1.821h-0.919v0.573l1.68 1.717v-3.881h-0.915l1.322-1.821 1.321 1.821h-0.919v4.723l0.88-0.901c0.076-0.077 0.178-0.121 0.286-0.121h1.075v-1.038l1.781 1.352-1.781 1.351v-0.836h-0.908l-1.333 1.363v1.241c0 0.229-0.182 0.414-0.405 0.414s-0.405-0.185-0.405-0.414v-2.082l-2.37-2.423c-0.076-0.078-0.119-0.184-0.119-0.293z"></path>
</svg>
