<?xml version="1.0" encoding="UTF-8"?>
<svg width="24px" height="24px" viewBox="0 0 24 24" version="1.1" xmlns="http://www.w3.org/2000/svg" xmlns:xlink="http://www.w3.org/1999/xlink">
    <title>Icon/Essential/Search</title>
    <g id="Icon/Essential/Search" stroke="none" stroke-width="1" fill="none" fill-rule="evenodd" fill-opacity="0.84">
        <path d="M12.1705738,3.05979832 C15.0704916,3.41457913 17.5608527,5.28949783 18.7035625,7.97829069 C19.9599332,10.9345276 19.3426507,14.2170457 17.3859723,16.5018492 L22.8169732,21.9330897 C23.0610335,22.1771847 23.0610053,22.5729129 22.8169103,22.8169732 C22.5999369,23.0339157 22.2631547,23.0579982 22.0195815,22.8892358 L21.9330268,22.8169103 L16.5024415,17.3858609 C15.8812817,17.9182842 15.1690359,18.3657871 14.3760169,18.7028122 C10.2195033,20.4692883 5.41797147,18.5317802 3.65149535,14.3752666 C2.50878564,11.6864737 2.8873322,8.59229835 4.64454023,6.25828631 C6.40174828,3.92427425 9.27065609,2.70501752 12.1705738,3.05979832 Z M5.64316277,7.01011942 C4.15455884,8.98735799 3.83387632,11.6085625 4.8019132,13.8863507 C6.29836851,17.407506 10.3659456,19.0488497 13.8871009,17.5523944 C17.4082563,16.055939 19.0495999,11.9883619 17.5531446,8.46720661 C16.5851077,6.18941845 14.4754193,4.60109692 12.0187785,4.30054736 C9.56213771,3.9999978 7.13176671,5.03288084 5.64316277,7.01011942 Z" id="Search" fill="#000000"></path>
    </g>
</svg>