<?xml version="1.0" encoding="UTF-8"?>
<svg width="24px" height="24px" viewBox="0 0 24 24" version="1.1" xmlns="http://www.w3.org/2000/svg" xmlns:xlink="http://www.w3.org/1999/xlink">
    <title>Icon/Essential/Mobile Phone</title>
    <g id="Icon/Essential/Mobile-Phone" stroke="none" stroke-width="1" fill="none" fill-rule="evenodd" fill-opacity="0.84">
        <path d="M17.625,2 C17.970178,2 18.25,2.27982203 18.25,2.625 L18.25,2.625 L18.25,21.375 C18.25,21.720178 17.970178,22 17.625,22 L17.625,22 L6.375,22 C6.02982203,22 5.75,21.720178 5.75,21.375 L5.75,21.375 L5.75,2.625 C5.75,2.27982203 6.02982203,2 6.375,2 L6.375,2 Z M17,18.014 L7,18.014 L7,20.75 L17,20.75 L17,18.014 Z M13,18.765 C13.345178,18.765 13.625,19.044822 13.625,19.39 C13.625,19.7037982 13.3937421,19.9635831 13.0923579,20.0082234 L13,20.015 L11,20.015 C10.654822,20.015 10.375,19.735178 10.375,19.39 C10.375,19.0762018 10.6062579,18.8164169 10.9076421,18.7717766 L11,18.765 L13,18.765 Z M17,3.25 L7,3.25 L7,16.764 L17,16.764 L17,3.25 Z" id="Mobile-Phone" fill="#000000"></path>
    </g>
</svg>