<?xml version="1.0" encoding="UTF-8"?>
<svg width="24px" height="24px" viewBox="0 0 24 24" version="1.1" xmlns="http://www.w3.org/2000/svg" xmlns:xlink="http://www.w3.org/1999/xlink">
    <title>Icon/Social/Youtube</title>
    <g id="Icon/Social/Youtube" stroke="none" stroke-width="1" fill="none" fill-rule="evenodd">
        <path d="M21.5820455,7.11700758 C21.3520455,6.25087121 20.6743182,5.56882576 19.8138636,5.33734848 C18.2542045,4.91666667 12,4.91666667 12,4.91666667 C12,4.91666667 5.74579545,4.91666667 4.18613636,5.33734848 C3.32568182,5.56882576 2.64795455,6.25087121 2.41795455,7.11700758 C2,8.6867803 2,11.9621212 2,11.9621212 C2,11.9621212 2,15.2373485 2.41795455,16.8072348 C2.64795455,17.6733712 3.32568182,18.3554167 4.18613636,18.5870076 C5.74579545,19.0075758 12,19.0075758 12,19.0075758 C12,19.0075758 18.2542045,19.0075758 19.8138636,18.5870076 C20.6743182,18.3554167 21.3520455,17.6733712 21.5820455,16.8072348 C22,15.2373485 22,11.9621212 22,11.9621212 C22,11.9621212 22,8.6867803 21.5820455,7.11700758" id="Shape" fill-opacity="0.84" fill="#000000"></path>
        <polyline id="Triangle" fill="#FFFFFF" points="9.95454545 14.9358712 9.95454545 8.98837121 15.1818182 11.9622348 9.95454545 14.9358712"></polyline>
    </g>
</svg>