<?xml version="1.0" encoding="UTF-8"?>
<svg width="24px" height="24px" viewBox="0 0 24 24" version="1.1" xmlns="http://www.w3.org/2000/svg" xmlns:xlink="http://www.w3.org/1999/xlink">
    <title>Icon/SBU/ZRD/Logistics</title>
    <g id="Icon/SBU/ZRD/Logistics" stroke="none" stroke-width="1" fill="none" fill-rule="evenodd" fill-opacity="0.84">
        <path d="M11.1311078,5.64818407 C11.0916503,5.72496166 11.0500556,5.87391347 11.0061592,6.09536832 C11.6309019,6.01201449 12.2622209,6.00872637 12.900116,6.08550396 C12.6326275,6.75184137 12.4989655,7.44464814 12.4989655,8.16359546 C12.4989655,8.77732296 12.5964582,9.37247259 12.7914437,9.94904434 C12.9800173,10.5058874 13.250794,11.018834 13.6037736,11.4878842 C13.9523143,11.9526599 14.3633292,12.3515088 14.8368184,12.6847597 L14.7940729,12.8754707 L14.5277352,13.9539739 C14.2886889,14.8396288 14.0805509,15.3788804 13.9029925,15.5717286 C13.8326267,15.6485062 13.8821129,15.7690158 14.0509579,15.9334218 C14.0728239,15.9531505 14.1254338,15.97403 14.2087876,15.995896 C14.2854008,16.0156248 14.3424497,16.0254891 14.3797698,16.0254891 C14.4498068,16.0254891 14.5101437,15.9980333 14.5606164,15.9432861 C14.8542454,15.6254894 15.1853591,14.6773601 15.5536285,13.0990628 C15.9131843,13.2766212 16.283591,13.4114341 16.6650128,13.5035015 C17.0617245,13.5977061 17.4638615,13.6460415 17.8717527,13.6481841 C18.3102234,13.6460415 18.7408027,13.5911299 19.1639836,13.4837728 C19.5717105,13.3785529 19.9639831,13.2261486 20.340966,13.0267242 C20.6063172,13.9648246 20.7531318,14.9228183 20.7817384,15.9005406 L21.2946851,15.9005406 C21.4217709,15.9005406 21.5391567,15.9322709 21.6465138,15.995896 C21.7538709,16.0595212 21.839362,16.1459987 21.9028227,16.2556575 C21.9664479,16.3653163 21.9981782,16.4858258 21.9981782,16.6173506 L21.9981782,17.9293103 C21.9981782,18.0608351 21.9664479,18.1813446 21.9028227,18.2910034 C21.839362,18.4004978 21.7538709,18.4877974 21.6465138,18.5524089 C21.5391567,18.6170205 21.4217709,18.6494085 21.2946851,18.6494085 L18.8812054,18.6494085 C18.7802601,18.9256105 18.6301574,19.1710686 18.430733,19.3859472 C18.2355831,19.5940852 18.0087029,19.7565183 17.7500923,19.8725889 C17.484741,19.9888239 17.2075526,20.0480101 16.918198,20.0501473 L7.08014458,20.0501473 C6.79062566,20.0480101 6.51343719,19.9876731 6.24825036,19.8693008 C5.98947535,19.7553674 5.76275952,19.5929343 5.56760963,19.3826591 C5.36802077,19.1700822 5.21791812,18.9256105 5.11713726,18.6494085 L2.70694569,18.6494085 C2.57969546,18.6494085 2.46181638,18.6170205 2.35347284,18.5524089 C2.2449649,18.4877974 2.15898058,18.4004978 2.09535546,18.2910034 C2.03173035,18.1813446 2,18.0608351 2,17.9293103 L2,16.6173506 C2,16.4879631 2.03173035,16.3679468 2.09535546,16.2573015 C2.15898058,16.1464919 2.2449649,16.0595212 2.35347284,15.995896 C2.46181638,15.9322709 2.57969546,15.9005406 2.70694569,15.9005406 L3.21989232,15.9005406 C3.25277352,14.7738664 3.43904549,13.6864853 3.77887263,12.6387261 C4.10768458,11.623848 4.56571962,10.6921593 5.15330657,9.84382451 C5.73629015,9.00206593 6.41594445,8.28525588 7.19194064,7.69339438 C7.11286137,7.26807613 7.07028022,6.96787082 7.06370398,6.79244964 C7.06370398,6.75085493 7.23583704,6.66865195 7.57993874,6.54584068 C7.90003717,6.43190734 8.30102334,6.3069588 8.78339047,6.17099506 C9.27216943,6.03289405 9.72592991,5.91665902 10.1446719,5.8224544 C10.6050087,5.71723458 10.9338206,5.65903486 11.1311078,5.64818407 Z M7.73448036,8.31978114 C7.68630941,8.32750822 7.63024697,8.34559288 7.56678626,8.37403511 C7.49444764,8.40477903 7.43624792,8.4397975 7.39251593,8.47925493 C7.3420433,8.52315133 7.3201773,8.56688332 7.32675354,8.61077971 C7.42309544,9.22680889 7.53719319,9.89100903 7.66871797,10.6033801 C7.90102361,11.8704569 8.12790385,12.933506 8.3493587,13.792856 C8.65383856,14.9612893 8.930205,15.6780993 9.1779648,15.9432861 C9.22613575,15.9980333 9.28647275,16.0254891 9.35881138,16.0254891 C9.40698233,16.0254891 9.47060744,16.0198993 9.5495223,16.0090485 C9.65030317,15.9937588 9.71064016,15.9761673 9.73020447,15.9564386 C9.79826854,15.8906762 9.84759033,15.8314901 9.87833425,15.7788802 C9.91992896,15.7021026 9.91992896,15.64193 9.87833425,15.5980336 C9.7007758,15.4028837 9.49132259,14.8626457 9.25013903,13.9769907 L8.98396576,12.8951994 C8.83254785,12.2331365 8.68030792,11.4923232 8.52691715,10.6724306 C8.38881613,9.9424681 8.26600487,9.22894617 8.15864777,8.53186484 C8.15207153,8.48796845 8.12247845,8.44752458 8.06986854,8.41020442 C8.02367046,8.37732323 7.96843006,8.35216912 7.90381851,8.33457768 C7.83904256,8.31698624 7.78265131,8.31205406 7.73448036,8.31978114 Z M17.8668205,3.94986144 C18.4269517,3.94871952 18.9622575,4.05887152 19.4730669,4.28032637 C19.9662848,4.49290329 20.4036047,4.79376622 20.7850265,5.18291516 C21.1664484,5.5720641 21.4623791,6.01859073 21.6728188,6.52282385 C21.8898347,7.04678569 21.9988358,7.59409317 21.9999934,8.16523952 C22.0009731,8.73622147 21.8931228,9.28254252 21.6761069,9.80436708 C21.4678045,10.3062985 21.1730246,10.7518387 20.7916028,11.1409876 C20.4101809,11.5301366 19.9717102,11.831986 19.476355,12.0468646 C18.9655456,12.2683194 18.4295822,12.3801155 17.8683002,12.3822527 C17.3071826,12.3801155 16.7713835,12.2683194 16.2605741,12.0468646 C15.7650545,11.831986 15.3272414,11.5301366 14.9469704,11.1409876 C14.566535,10.7518387 14.2710975,10.3062985 14.0608222,9.80436708 C13.8459436,9.28254252 13.7385865,8.73622147 13.7385865,8.16523952 C13.7385865,7.59409317 13.8459436,7.04777212 14.0608222,6.52611197 C14.2710975,6.02418053 14.566535,5.57864034 14.9469704,5.1894914 C15.3272414,4.80034246 15.7650545,4.4984931 16.2605741,4.28361449 C16.7713835,4.06215964 17.3066894,3.9510212 17.8668205,3.94986144 Z M17.8683002,4.4545967 C17.3750822,4.4545967 16.9038947,4.55110301 16.4545732,4.74395121 C16.0205414,4.93252487 15.6363247,5.19721848 15.3020873,5.53803207 C14.96785,5.87884565 14.7085818,6.27078949 14.5244471,6.71353478 C14.3335717,7.1738715 14.2383807,7.65558101 14.2383807,8.15866328 C14.2383807,8.66174556 14.3335717,9.14345507 14.5244471,9.60379179 C14.710719,10.0488388 14.9716313,10.4422623 15.3070195,10.7842267 C15.6424077,11.1261911 16.0271177,11.3903915 16.4611494,11.5766635 C16.910471,11.7718134 17.380672,11.8681553 17.8717527,11.8660528 C18.3626689,11.8638807 18.8340208,11.7652371 19.2854797,11.5700872 C19.7196758,11.3815136 20.104879,11.1163267 20.4414181,10.7743623 C20.7779571,10.4323979 21.0370609,10.0399608 21.2190583,9.59721555 C21.407632,9.1390161 21.501179,8.65895066 21.5002002,8.15701922 C21.4990417,7.65508779 21.4030286,7.1738715 21.2124821,6.71353478 C21.0283474,6.26848781 20.7679283,5.87506431 20.4315537,5.53309989 C20.0950147,5.19113546 19.7098115,4.92693506 19.2757797,4.74066309 C18.8285955,4.5455132 18.3595452,4.45015774 17.8683002,4.4545967 Z M17.661313,4.94123838 L18.568834,6.1940119 L17.9375151,6.1940119 L17.9375151,9.4360977 L18.5425291,8.81793124 C18.5972762,8.76088237 18.6630386,8.73244013 18.7398162,8.73244013 L19.4796431,8.73244013 L19.4796431,8.01891821 L20.7028235,8.94945602 L19.4796431,9.87670571 L19.4796431,9.3012848 L18.854736,9.3012848 L17.9375151,10.2351107 L17.9375151,11.0867337 C17.9375151,11.1656485 17.9105525,11.233055 17.8569561,11.288953 C17.8031954,11.3448511 17.7379262,11.3728001 17.661313,11.3728001 C17.5845354,11.3728001 17.5187731,11.3448511 17.4638615,11.288953 C17.4091143,11.233055 17.3816585,11.1656485 17.3816585,11.0867337 L17.3816585,9.65968982 L15.7542037,7.99590137 C15.6992922,7.94115418 15.6720008,7.87424095 15.6720008,7.79532608 L15.6720008,7.28566757 L15.0406818,7.28566757 L15.9514909,6.03289405 L16.8590119,7.28566757 L16.2276929,7.28566757 L16.2276929,7.67695378 L17.3816585,8.85738867 L17.3816585,6.1940119 L16.7537921,6.1940119 L17.661313,4.94123838 Z" id="Helmet" fill="#000000"></path>
    </g>
</svg>