<?xml version="1.0" encoding="UTF-8"?>
<svg width="24px" height="24px" viewBox="0 0 24 24" version="1.1" xmlns="http://www.w3.org/2000/svg" xmlns:xlink="http://www.w3.org/1999/xlink">
    <title>Icon/SBU/ZPS/Used</title>
    <g id="Icon/SBU/ZPS/Used" stroke="none" stroke-width="1" fill="none" fill-rule="evenodd" fill-opacity="0.84">
        <path d="M14.0494923,5.27576751 C13.9744566,5.60717544 13.9367824,5.94077192 13.9367824,6.27640062 C13.9367824,6.89951007 14.054651,7.49557538 14.2902321,8.06459656 C14.5194038,8.61501512 14.8415886,9.10212225 15.2563175,9.52638694 C15.6710464,9.95033898 16.1483051,10.2781515 16.6882499,10.509668 C17.2447651,10.7513457 17.8283244,10.8721845 18.4390843,10.8721845 C18.8871103,10.8701523 19.3248189,10.8029328 19.75221,10.6705259 C20.1794449,10.5381191 20.5786977,10.3459963 20.9496557,10.0936885 L20.9496557,17.9693168 L18.51412,17.9693168 L18.51412,16.4936135 L17.4729989,16.4936135 L17.4729989,17.8317512 C17.4729989,17.9672846 17.4459547,18.0954706 17.3917101,18.2163095 C17.3374655,18.3373046 17.2653999,18.4336005 17.1759823,18.5055098 C17.086252,18.5774191 16.9894872,18.6133737 16.8852187,18.6133737 L7.76821767,18.6133737 L5.87684756,16.6812029 L4.25419927,16.6812029 C4.12069815,16.6812029 3.99516957,16.6347745 3.87745723,16.5420741 C3.75958855,16.4493737 3.66641915,16.3238451 3.59763637,16.1653321 C3.52463283,15.9986901 3.48820922,15.818448 3.48820922,15.6244493 L3.48820922,13.8736149 L2.90042911,13.8736149 L2.90042911,16.449999 L2,16.449999 L2,8.12399987 L2.90339928,8.12399987 L2.90339928,10.7033541 L3.44428204,10.7033541 L3.44428204,9.64363032 C3.44428204,9.4475994 3.4797677,9.26720092 3.55073902,9.10274755 C3.62155402,8.94423451 3.71597402,8.81808064 3.83368637,8.72428594 C3.95124239,8.63049124 4.07692729,8.58359389 4.21042841,8.58359389 L5.65158396,8.58359389 L5.65158396,7.66440584 C5.65158396,7.5288725 5.67987869,7.40131171 5.73599919,7.28141082 C5.79243233,7.16166626 5.86731177,7.06615199 5.96126279,6.99533699 C6.06131047,6.92233345 6.16964335,6.88497189 6.28641775,6.88278335 L9.48481698,6.88278335 L9.48481698,6.19198539 L6.95861309,6.19198539 L6.95861309,5.27576751 L14.0494923,5.27576751 Z M12.5550301,8.9556462 L10.7948163,8.9556462 L8.3561541,13.5547129 L11.96725,13.5547129 L10.6103534,17.2378744 L14.1808049,11.991468 L10.9791229,11.991468 L12.5550301,8.9556462 Z M18.9018048,3.08425436 C19.274795,3.13834264 19.6260562,3.25918148 19.9552756,3.44677088 L19.4833319,3.92825033 C19.2561924,3.82413821 19.0298345,3.75535544 18.8048836,3.72190199 C18.4650341,3.67187815 18.130656,3.69173136 17.8012803,3.78146163 C17.4823783,3.86478258 17.1905205,4.00703788 16.9258631,4.20807118 C16.6610494,4.40926081 16.4432894,4.65375233 16.2724267,4.9413894 C16.0951547,5.2393439 15.9811942,5.56231031 15.9299197,5.91044497 C15.8789579,6.25857963 15.8961536,6.60046131 15.9815068,6.93593368 C16.0649841,7.26108864 16.2056761,7.55919945 16.4037393,7.83010981 C16.6016461,8.10102017 16.8412916,8.32409523 17.1226757,8.49917866 C17.416722,8.67848286 17.7335918,8.79306872 18.0731286,8.84309256 C18.3964077,8.89108418 18.7142154,8.87638968 19.0268644,8.7993217 C19.3290396,8.72428594 19.6094858,8.59719412 19.8678902,8.41788992 C20.1262946,8.23858572 20.3442109,8.01879348 20.5213266,7.75820054 C20.702663,7.4893224 20.8308491,7.19652662 20.9057285,6.87965686 L20.5056941,6.88903633 L21.2091544,5.54151915 L22,6.83901249 L21.5655742,6.85464494 C21.4905385,7.27578314 21.3415612,7.66550011 21.1184862,8.02395219 C20.8994755,8.37005463 20.6263766,8.66441366 20.2993458,8.90734193 C19.9720023,9.14995755 19.6135502,9.32144552 19.2238332,9.42164953 C18.8173895,9.52576164 18.4056308,9.5465528 17.9887134,9.484023 C17.5636671,9.42164953 17.1686351,9.27767467 16.8037737,9.05256739 C16.4515746,8.83590163 16.1519005,8.558113 15.9049078,8.21935781 C15.6580714,7.88060262 15.4823627,7.50808134 15.3782506,7.10163765 C15.2699177,6.68065577 15.2463127,6.25342092 15.3079045,5.81993309 C15.3693401,5.38628893 15.5105011,4.98297172 15.7315439,4.60982514 C15.9439889,4.25137307 16.2159936,3.945915 16.5475578,3.69376358 C16.8789658,3.44161217 17.2447651,3.26230797 17.6449558,3.15616363 C18.0576525,3.04564221 18.4764458,3.02156824 18.9018048,3.08425436 Z M20.8150603,3.8751 L21.2652749,4.33485035 L18.0951704,7.57061114 L16.6694909,6.11382314 L17.1134525,5.65407279 L18.0951704,6.65767607 L20.8150603,3.8751 Z" id="Gear-Box" fill="#000000"></path>
    </g>
</svg>