<?xml version="1.0" encoding="UTF-8"?>
<svg width="24px" height="24px" viewBox="0 0 24 24" version="1.1" xmlns="http://www.w3.org/2000/svg" xmlns:xlink="http://www.w3.org/1999/xlink">
    <title>Icon/Social/WhatsApp</title>
    <g id="Icon/Social/WhatsApp" stroke="none" stroke-width="1" fill="none" fill-rule="evenodd" fill-opacity="0.84">
        <path d="M12.0415317,2 C14.6927164,2.00109296 17.1810502,3.03317842 19.0521477,4.90646176 C20.9232451,6.77969758 21.9531446,9.26964712 21.9521474,11.917743 C21.9499978,17.2894914 17.6531083,21.6770696 12.3185105,21.8242579 L12.0416743,21.8280729 C10.5068096,21.8275904 9.00004528,21.4729387 7.63877837,20.7973822 L7.30156078,20.6218269 L2.04785185,22 L3.45382416,16.8644256 C2.58653783,15.3614176 2.1302039,13.6564974 2.1309167,11.9098072 C2.13310261,6.4455374 6.57897266,2 12.0415317,2 Z M12.0449056,3.67384218 C7.50128707,3.67384218 3.80604191,7.36880221 3.8042355,11.9104249 C3.80366247,13.3557166 4.17910564,14.7659346 4.89293692,16.0100448 L5.06365698,16.2941389 L5.25948663,16.6058221 L4.42736506,19.6454823 L7.54495789,18.8276642 L7.84575907,19.0061966 C9.0132142,19.6989934 10.3382983,20.0906229 11.6977836,20.1472227 L12.0383003,20.1543733 C16.5817763,20.1543733 20.2770215,16.4590806 20.2788753,11.9170777 C20.2796826,9.7160969 19.423706,7.64650871 17.8685211,6.08956557 C16.3132887,4.5325274 14.2450786,3.67455498 12.0449056,3.67384218 Z M8.53289733,7.33316226 C8.69793406,7.33316226 8.86320839,7.3346829 9.00747891,7.34185841 C9.15949518,7.34950912 9.3635933,7.28412169 9.56465015,7.76692422 C9.7709817,8.26279474 10.2662345,9.48168107 10.3281529,9.60566057 C10.3900714,9.72959256 10.4313187,9.87414821 10.3487766,10.0394701 C10.2662345,10.2046494 10.2249872,10.3080052 10.1011502,10.4525608 C9.97736078,10.597164 9.84112113,10.7754588 9.7297344,10.8864179 C9.60575489,11.0098746 9.47669075,11.1438809 9.62110383,11.3917448 C9.76556443,11.6397039 10.2625279,12.4506315 10.9987067,13.1072145 C11.9445435,13.9509309 12.7424507,14.2123856 12.9901246,14.3363176 C13.2377035,14.4603446 13.3821641,14.4395784 13.5265772,14.2743516 C13.6710853,14.1090773 14.1456194,13.5512883 14.3107036,13.3033768 C14.4757879,13.0555603 14.6408721,13.0968076 14.8678748,13.1794448 C15.0599541,13.249449 15.9611438,13.6890806 16.3839052,13.8977762 L16.5599172,13.9850977 C16.8075435,14.1090773 16.9726278,14.1710908 17.0344987,14.2743516 C17.0964172,14.3776124 17.0964172,14.8734354 16.8900857,15.4519431 C16.6837066,16.0303557 15.6943891,16.5583022 15.2186195,16.6293445 C14.7919855,16.6931638 14.2521591,16.7197274 13.6589202,16.5312158 C13.2993368,16.4171205 12.8380608,16.2647241 12.2472455,16.0095895 C9.76314091,14.9369696 8.14081035,12.4358053 8.01702092,12.2704835 C7.89318397,12.1052091 7.00584423,10.9277602 7.00584423,9.70882635 C7.00584423,8.49003507 7.64555759,7.89090373 7.87256032,7.64299224 C8.09951552,7.39512826 8.36781307,7.33316226 8.53289733,7.33316226 Z" id="WhatsApp" fill="#000000"></path>
    </g>
</svg>