<?xml version="1.0" encoding="UTF-8"?>
<svg width="24px" height="24px" viewBox="0 0 24 24" version="1.1" xmlns="http://www.w3.org/2000/svg" xmlns:xlink="http://www.w3.org/1999/xlink">
    <title>Icon/Media/Pause Filled</title>
    <g id="Icon/Media/Pause-Filled" stroke="none" stroke-width="1" fill="none" fill-rule="evenodd" fill-opacity="0.84">
        <path d="M10.125,4.5 C10.4387982,4.5 10.6985831,4.73125788 10.7432234,5.03264208 L10.75,5.125 L10.75,18.875 C10.75,19.1887982 10.5187421,19.4485831 10.2173579,19.4932234 L10.125,19.5 L6.375,19.5 C6.06120185,19.5 5.80141686,19.2687421 5.7567766,18.9673579 L5.75,18.875 L5.75,5.125 C5.75,4.81120185 5.98125788,4.55141686 6.28264208,4.5067766 L6.375,4.5 L10.125,4.5 Z M17.625,4.5 C17.9387982,4.5 18.1985831,4.73125788 18.2432234,5.03264208 L18.25,5.125 L18.25,18.875 C18.25,19.1887982 18.0187421,19.4485831 17.7173579,19.4932234 L17.625,19.5 L13.875,19.5 C13.5612018,19.5 13.3014169,19.2687421 13.2567766,18.9673579 L13.25,18.875 L13.25,5.125 C13.25,4.81120185 13.4812579,4.55141686 13.7826421,4.5067766 L13.875,4.5 L17.625,4.5 Z" id="Pause" fill="#000000"></path>
    </g>
</svg>