<?xml version="1.0" encoding="UTF-8"?>
<svg width="24px" height="24px" viewBox="0 0 24 24" version="1.1" xmlns="http://www.w3.org/2000/svg" xmlns:xlink="http://www.w3.org/1999/xlink">
    <title>Icon/SBU/Systems/Aviation</title>
    <g id="Icon/SBU/Systems/Aviation" stroke="none" stroke-width="1" fill="none" fill-rule="evenodd" fill-opacity="0.84">
        <path d="M16.8949968,4.07851338 C17.1413321,4.14224825 17.3542065,4.2638225 17.5337795,4.44339547 C17.7131931,4.62296845 17.8349267,4.83584289 17.8986616,5.08233748 C17.960325,5.32022785 17.960325,5.55827757 17.8986616,5.79616794 C17.8349267,6.0404318 17.7127151,6.25298757 17.5323454,6.43351657 L13.9024857,10.063217 C13.4647865,10.5009162 13.1303378,11.0053776 12.8988209,11.57692 C12.6755895,12.1293419 12.5640535,12.7045491 12.5640535,13.3025414 C12.5640535,13.9005338 12.6755895,14.4747849 12.8988209,15.0249761 C13.1303378,15.5965185 13.4647865,16.1009799 13.9024857,16.5386791 C14.1574251,16.7872451 14.4330784,17.0023502 14.7294455,17.1839946 C15.0258126,17.3656389 15.3290312,17.507449 15.6392607,17.6094248 L15.8782664,18.6451163 L14.5589547,19.9676147 L10.9260676,13.0268881 L7.29636711,16.6597753 L7.63097514,18.9669774 L6.64308477,19.9548678 L4.98916507,16.9784496 L2.01274697,15.32453 L3.00063735,14.3366396 L5.30783939,14.6712476 L8.94072658,11.0383604 L2,7.40865997 L3.32249841,6.08616157 L11.9139579,8.07468929 L15.5468451,4.44498885 C15.7253027,4.26445985 15.9367431,4.14224825 16.181007,4.07851338 C16.4188974,4.01700924 16.6567878,4.01700924 16.8949968,4.07851338 Z M17.6056405,8.4666587 C18.1577438,8.52194869 18.6846718,8.66535214 19.1862651,8.89686902 C19.7066603,9.13699012 20.1719248,9.45885118 20.5818993,9.8624522 C21.0450924,10.3256453 21.3997769,10.8599028 21.6462715,11.465384 C21.8820905,12.0517447 22,12.6620061 22,13.2961679 C22,13.9303298 21.8820905,14.5396351 21.6462715,15.1237651 C21.3997769,15.7292463 21.0450924,16.2646192 20.5818993,16.7298837 C20.1357553,17.1760277 19.624761,17.520196 19.0490758,17.7623885 C18.4902804,18.0002788 17.9059911,18.1279079 17.2963671,18.1447976 L17.223072,17.8484305 C17.8116635,17.842057 18.3734863,17.7284496 18.9088591,17.507449 C19.4612811,17.2780035 19.9509242,16.9476976 20.3779477,16.5163719 C20.8156469,16.0766013 21.1502549,15.5721399 21.3817718,15.0026689 C21.6048438,14.4524777 21.7163799,13.8798199 21.7163799,13.2850143 C21.7163799,12.6902087 21.6048438,12.117551 21.3817718,11.5673598 C21.1502549,11.0001195 20.8156469,10.4986855 20.3779477,10.063217 C19.9636711,9.64894041 19.4910771,9.32707935 18.9600064,9.09763384 C18.445666,8.87679254 17.9071064,8.75458094 17.3441683,8.73115838 L17.6056405,8.4666587 Z M18.3256851,11.465384 L19.195666,12.6253585 L19.7756533,12.6253585 C19.8819312,12.6253585 19.9791268,12.6513305 20.0672403,12.7034337 C20.1555131,12.755537 20.2260994,12.8261233 20.2791587,12.9153521 C20.332218,13.0045809 20.3588273,13.1012986 20.3588273,13.2053458 L20.3588273,14.0785134 L19.7756533,14.0785134 C19.7756533,14.2337078 19.7364563,14.3791826 19.6577438,14.5150972 C19.581262,14.646869 19.4760994,14.7520315 19.3422562,14.8305848 C19.208413,14.909138 19.0629382,14.9484943 18.9056724,14.9484943 C18.7484066,14.9484943 18.6019758,14.908182 18.4659018,14.827398 C18.3363607,14.7509162 18.2321542,14.6457537 18.153601,14.5119105 C18.0750478,14.3780672 18.0356915,14.2337078 18.0356915,14.0785134 L16.292543,14.0785134 C16.292543,14.2337078 16.2531867,14.3780672 16.1746335,14.5119105 C16.0960803,14.6457537 15.9920331,14.7509162 15.8623327,14.827398 C15.7264181,14.908182 15.5798279,14.9484943 15.4225621,14.9484943 C15.2652964,14.9484943 15.1198215,14.909138 14.9859783,14.8305848 C14.8521351,14.7520315 14.7469726,14.646869 14.6704908,14.5150972 C14.5919375,14.3791826 14.5525813,14.2337078 14.5525813,14.0785134 L13.9694073,14.0785134 L13.9694073,13.2053458 L15.4225621,11.465384 L18.3256851,11.465384 Z M15.4225621,13.6419296 C15.3419375,13.6419296 15.2680051,13.66105 15.2010835,13.6992909 C15.1341619,13.7375319 15.0815806,13.7896351 15.043499,13.8554414 C15.0050988,13.9212476 14.9859783,13.9951801 14.9859783,14.07692 C14.9859783,14.15866 15.0050988,14.2325924 15.043499,14.2983987 C15.0815806,14.3642049 15.1341619,14.4163082 15.2010835,14.4545491 C15.2680051,14.49279 15.3419375,14.5119105 15.4225621,14.5119105 C15.5031867,14.5119105 15.5771192,14.49279 15.6440408,14.4545491 C15.7109624,14.4163082 15.7635437,14.3642049 15.8017846,14.2983987 C15.8401848,14.2325924 15.8593053,14.15866 15.8593053,14.07692 C15.8593053,13.9951801 15.8401848,13.9212476 15.8017846,13.8554414 C15.7635437,13.7896351 15.7109624,13.7375319 15.6440408,13.6992909 C15.5771192,13.66105 15.5031867,13.6419296 15.4225621,13.6419296 Z M18.9056724,13.6419296 C18.8248885,13.6419296 18.7511154,13.66105 18.6841938,13.6992909 C18.6172721,13.7375319 18.5646909,13.7896351 18.52645,13.8554414 C18.4883684,13.9212476 18.4692479,13.9951801 18.4692479,14.07692 C18.4692479,14.15866 18.4883684,14.2325924 18.52645,14.2983987 C18.5646909,14.3642049 18.6172721,14.4163082 18.6841938,14.4545491 C18.7511154,14.49279 18.8248885,14.5119105 18.9056724,14.5119105 C18.9864563,14.5119105 19.0602294,14.49279 19.1271511,14.4545491 C19.1940727,14.4163082 19.2466539,14.3642049 19.2850542,14.2983987 C19.3231358,14.2325924 19.3422562,14.1592973 19.3422562,14.0785134 C19.3422562,13.9956581 19.3231358,13.9212476 19.2850542,13.8554414 C19.2466539,13.7896351 19.1940727,13.7375319 19.1271511,13.6992909 C19.0602294,13.66105 18.9864563,13.6419296 18.9056724,13.6419296 Z M18.179095,11.8987811 L17.1657106,11.8987811 L17.1657106,12.6253585 L18.7463352,12.6253585 L18.179095,11.8987811 Z M16.7292862,11.8987811 L15.5659656,11.8987811 L14.9859783,12.6253585 L16.7292862,12.6253585 L16.7292862,11.8987811 Z" id="Aircraft" fill="#000000"></path>
    </g>
</svg>