<?xml version="1.0" encoding="UTF-8"?>
<svg width="24px" height="24px" viewBox="0 0 24 24" version="1.1" xmlns="http://www.w3.org/2000/svg" xmlns:xlink="http://www.w3.org/1999/xlink">
    <title>Icon/Communication/Email</title>
    <g id="Icon/Communication/Email" stroke="none" stroke-width="1" fill="none" fill-rule="evenodd" fill-opacity="0.84">
        <path d="M21.375,5.125 C21.6887982,5.125 21.9485831,5.35625788 21.9932234,5.65764208 L22,5.75 L22,18.25 C22,18.5637982 21.7687421,18.8235831 21.4673579,18.8682234 L21.375,18.875 L2.625,18.875 C2.31120185,18.875 2.05141686,18.6437421 2.0067766,18.3423579 L2,18.25 L2,5.75 C2,5.43620185 2.23125788,5.17641686 2.53264208,5.1317766 L2.625,5.125 L21.375,5.125 Z M20.75,7.155 L16.069,10.383 L18.6742699,12.7910664 C18.9277319,13.0253842 18.9432514,13.4208078 18.7089336,13.6742699 C18.4980476,13.9023857 18.1566658,13.9377681 17.9057245,13.7717457 L17.8257301,13.7089336 L15.015,11.11 L13.4942685,12.1593226 C12.6477678,12.7437689 11.5441013,12.7781481 10.667591,12.2626293 L10.5060255,12.1595254 L8.985,11.11 L6.17426987,13.7089336 C5.92080783,13.9432514 5.52538416,13.9277319 5.29106637,13.6742699 C5.08018037,13.446154 5.07166256,13.1030493 5.25684168,12.8658918 L5.32573013,12.7910664 L7.93,10.383 L3.25,7.155 L3.25,17.625 L20.75,17.625 L20.75,7.155 Z M19.679,6.375 L4.32,6.375 L11.2159352,11.1306774 C11.6485397,11.429359 12.2091463,11.4542491 12.663311,11.2051916 L12.7843588,11.1304746 L19.679,6.375 Z" id="Email" fill="#000000"></path>
    </g>
</svg>