<?xml version="1.0" encoding="UTF-8"?>
<svg width="24px" height="24px" viewBox="0 0 24 24" version="1.1" xmlns="http://www.w3.org/2000/svg" xmlns:xlink="http://www.w3.org/1999/xlink">
    <title>Icon/Essential/Filter 1</title>
    <g id="Icon/Essential/Filter-1" stroke="none" stroke-width="1" fill="none" fill-rule="evenodd" fill-opacity="0.84">
        <path d="M15.8602941,12.8211764 C17.8201054,12.8211764 19.4451882,14.254319 19.7447051,16.1297666 L21.375,16.13 C21.720178,16.13 22,16.409822 22,16.755 C22,17.0687981 21.7687421,17.3285831 21.4673579,17.3732234 L21.375,17.38 L19.7446835,17.3803687 C19.44511,19.2557499 17.8200582,20.6888235 15.8602941,20.6888235 C13.90053,20.6888235 12.2754782,19.2557499 11.9759047,17.3803687 L2.625,17.38 C2.27982203,17.38 2,17.1001779 2,16.755 C2,16.4412018 2.23125788,16.1814168 2.53264208,16.1367766 L2.625,16.13 L11.9758831,16.1297666 C12.2754,14.254319 13.9004829,12.8211764 15.8602941,12.8211764 Z M15.8602941,14.0711764 C14.3780593,14.0711764 13.1764706,15.2727652 13.1764706,16.755 C13.1764706,18.2372348 14.3780593,19.4388235 15.8602941,19.4388235 C17.3425289,19.4388235 18.5441176,18.2372348 18.5441176,16.755 C18.5441176,15.2727652 17.3425289,14.0711764 15.8602941,14.0711764 Z M8.69117647,3.3111765 C10.6509406,3.3111765 12.2759924,4.74425013 12.5755659,6.61963134 L21.375,6.62000003 C21.720178,6.62000003 22,6.89982206 22,7.24500003 C22,7.55879818 21.7687421,7.81858316 21.4673579,7.86322342 L21.375,7.87000003 L12.5755875,7.87023337 C12.2760706,9.74568098 10.6509877,11.1788236 8.69117647,11.1788236 C6.73136523,11.1788236 5.10628238,9.74568098 4.80676546,7.87023337 L2.625,7.87000003 C2.27982203,7.87000003 2,7.590178 2,7.24500003 C2,6.93120188 2.23125788,6.67141689 2.53264208,6.62677663 L2.625,6.62000003 L4.80678707,6.61963134 C5.10636057,4.74425013 6.73141238,3.3111765 8.69117647,3.3111765 Z M8.69117647,4.5611765 C7.20894166,4.5611765 6.00735294,5.76276522 6.00735294,7.24500003 C6.00735294,8.72723484 7.20894166,9.92882356 8.69117647,9.92882356 C10.1734113,9.92882356 11.375,8.72723484 11.375,7.24500003 C11.375,5.76276522 10.1734113,4.5611765 8.69117647,4.5611765 Z" id="Filter" fill="#000000"></path>
    </g>
</svg>