<?xml version="1.0" encoding="UTF-8"?>
<svg width="24px" height="24px" viewBox="0 0 24 24" version="1.1" xmlns="http://www.w3.org/2000/svg" xmlns:xlink="http://www.w3.org/1999/xlink">
    <title>Icon/Essential/Add</title>
    <g id="Icon/Essential/Add" stroke="none" stroke-width="1" fill="none" fill-rule="evenodd" fill-opacity="0.84">
        <path d="M12,2 C12.3137982,2 12.5735831,2.23125788 12.6182234,2.53264208 L12.625,2.625 L12.625,11.374 L21.375,11.375 C21.720178,11.375 22,11.654822 22,12 C22,12.3137982 21.7687421,12.5735831 21.4673579,12.6182234 L21.375,12.625 L12.625,12.624 L12.625,21.375 C12.625,21.720178 12.345178,22 12,22 C11.6862018,22 11.4264169,21.7687421 11.3817766,21.4673579 L11.375,21.375 L11.375,12.624 L2.625,12.625 C2.27982203,12.625 2,12.345178 2,12 C2,11.6862018 2.23125788,11.4264169 2.53264208,11.3817766 L2.625,11.375 L11.375,11.374 L11.375,2.625 C11.375,2.27982203 11.654822,2 12,2 Z" id="Add" fill="#000000"></path>
    </g>
</svg>