<?xml version="1.0" encoding="UTF-8"?>
<svg width="24px" height="24px" viewBox="0 0 24 24" version="1.1" xmlns="http://www.w3.org/2000/svg" xmlns:xlink="http://www.w3.org/1999/xlink">
    <title>Icon/SBU/New/ZPS</title>
    <g id="Icon/SBU/New/ZPS" stroke="none" stroke-width="1" fill="none" fill-rule="evenodd" fill-opacity="0.84">
        <path d="M15.5,6 C15.7761424,6 16,6.22385763 16,6.5 C16,6.77614237 15.7761424,7 15.5,7 L14.5,7 C14.2238576,7 14,7.22385763 14,7.5 C14,7.77614237 14.2238576,8 14.5,8 L14.5857864,8 C14.8510029,8 15.1053568,8.10535684 15.2928932,8.29289322 L16.7071068,9.70710678 C16.8946432,9.89464316 17.1489971,10 17.4142136,10 L17.5,10 C17.7454599,10 17.9496084,9.82312484 17.9919443,9.58987563 L18,9.5 C18,9.22385763 18.2238576,9 18.5,9 L19.5,9 C19.7761424,9 20,9.22385763 20,9.5 L20,16.5 C20,16.7761424 19.7761424,17 19.5,17 L18.5,17 C18.2545401,17 18.0503916,16.8231248 18.0080557,16.5898756 L18,16.5 C18,16.2238576 17.7761424,16 17.5,16 L17.2071068,16 C17.0744985,16 16.9473216,16.0526784 16.8535534,16.1464466 L15.2928932,17.7071068 C15.1053568,17.8946432 14.8510029,18 14.5857864,18 L9.41421356,18 C9.14899707,18 8.89464316,17.8946432 8.70710678,17.7071068 L7.29289322,16.2928932 C7.10535684,16.1053568 7,15.8510029 7,15.5857864 L7,14.5 C7,14.2238576 6.77614237,14 6.5,14 C6.25454011,14 6.05039163,14.1768752 6.00805567,14.4101244 L6,14.5 C6,14.7761424 5.77614237,15 5.5,15 L4.5,15 C4.22385763,15 4,14.7761424 4,14.5 L4,10.5 C4,10.2238576 4.22385763,10 4.5,10 L5.5,10 C5.74545989,10 5.94960837,10.1768752 5.99194433,10.4101244 L6,10.5 C6,10.7761424 6.22385763,11 6.5,11 C6.77614237,11 7,10.7761424 7,10.5 L7,10.4142136 C7,10.1489971 7.10535684,9.89464316 7.29289322,9.70710678 L8.70710678,8.29289322 C8.89464316,8.10535684 9.14899707,8 9.41421356,8 L9.5,8 C9.77614237,8 10,7.77614237 10,7.5 C10,7.22385763 9.77614237,7 9.5,7 L8.5,7 C8.22385763,7 8,6.77614237 8,6.5 C8,6.22385763 8.22385763,6 8.5,6 L15.5,6 Z M13.0008763,9.53464461 C12.9265413,9.48414546 12.8313082,9.49039216 12.7644537,9.54336184 L12.7204037,9.59169304 L10.0339964,13.175249 C10.0118295,13.2090923 10,13.2488631 10,13.289545 C10,13.3843388 10.0628794,13.4641756 10.1484772,13.4881547 L10.2022408,13.495512 L12.0229502,13.496742 L12.0447545,13.500417 C12.1356168,13.5209807 12.1985021,13.6008127 12.2029179,13.6911136 L12.1983072,13.74616 L11.9377083,16.2493303 C11.9195899,16.3323657 11.9534557,16.4182027 12.0229502,16.465386 C12.0972985,16.5158648 12.1925299,16.5095921 12.2593705,16.4566042 L12.3034077,16.408261 L14.9660337,12.820217 C14.9881814,12.7863833 15,12.7466301 15,12.705967 C15,12.6111732 14.9371206,12.5313364 14.8515228,12.5073573 L14.7977592,12.5 L13.0008763,12.5 L12.9570041,12.495095 C12.8661418,12.4745313 12.8032565,12.3946993 12.7988407,12.3043984 L13.0860731,9.75066961 C13.1041872,9.66765398 13.0703419,9.58183568 13.0008763,9.53464461 Z" id="Gear" fill="#000000"></path>
    </g>
</svg>