<?xml version="1.0" encoding="UTF-8"?>
<svg width="24px" height="24px" viewBox="0 0 24 24" version="1.1" xmlns="http://www.w3.org/2000/svg" xmlns:xlink="http://www.w3.org/1999/xlink">
    <title>Icon/Essential/Star</title>
    <g id="Icon/Essential/Star" stroke="none" stroke-width="1" fill="none" fill-rule="evenodd" fill-opacity="0.84">
        <path d="M11.8542011,2.01167774 C11.42163,2.06012611 11.0374703,2.32202467 10.8361813,2.71515877 L8.205,7.932 L3.18005059,8.43054465 C2.68597217,8.47152368 2.2524302,8.8027149 2.079509,9.27790235 L2.0395543,9.40874113 C1.93025964,9.84842607 2.05853084,10.3178178 2.38504244,10.6414171 L6.545,14.761 L5.0049159,20.3574496 C4.87186628,20.8583931 5.0431623,21.3849567 5.441059,21.708183 L5.55317544,21.7897836 C5.93828036,22.0398792 6.43108165,22.070243 6.84744156,21.860882 L12,19.308 L17.1634887,21.865927 C17.6180543,22.0945124 18.1685443,22.0347426 18.566441,21.7115163 L18.6692828,21.6184984 C18.9929794,21.2928082 19.1236729,20.816684 19.0040652,20.3662602 L17.462,14.764 L21.6191358,10.6447389 C21.978287,10.2887912 22.0975789,9.75642314 21.9246577,9.28123569 L21.8711786,9.15531844 C21.6723289,8.74822267 21.2723822,8.47105003 20.8142588,8.4329802 L15.798,7.936 L13.1654524,2.71837247 C12.9401643,2.2783431 12.4907435,2.00354662 12,2.00354662 L11.8542011,2.01167774 Z M12,3.25354662 C12.0215815,3.25354662 12.0413457,3.26563136 12.0511813,3.28484123 L14.8378809,8.8057942 C14.9342236,8.99666563 15.1214509,9.12504361 15.3342173,9.14612202 L20.7008839,9.67778869 C20.7285653,9.68016764 20.7438996,9.6918818 20.7500158,9.70868907 C20.7561319,9.72549635 20.7519126,9.74432608 20.7392091,9.75691628 L16.3225309,14.1344277 C16.1621472,14.2933891 16.0999819,14.5265026 16.1599159,14.744217 L17.7974159,20.6925504 C17.8012379,20.7070439 17.7943335,20.7282682 17.7782954,20.7412965 C17.7622574,20.7543248 17.7400687,20.7567339 17.7216082,20.7474513 L12.2773446,18.051573 C12.1025637,17.9650258 11.8973999,17.9650315 11.7226239,18.0515886 L6.28929056,20.7424219 C6.26743129,20.7534006 6.24524263,20.7509915 6.22920457,20.7379631 C6.21316651,20.7249348 6.20626206,20.7037106 6.21156521,20.6837398 L7.8475841,14.7408837 C7.90754048,14.5230879 7.84530518,14.2898887 7.68480162,14.1309285 L3.26480162,9.75342846 C3.25225405,9.74099275 3.24803472,9.72216301 3.25415091,9.70535574 C3.26026709,9.68854847 3.27560137,9.67683431 3.29342546,9.67535313 L8.66994941,9.14278869 C8.88279502,9.12170243 9.07007665,8.99323781 9.16638676,8.80226073 L11.9505534,3.28142739 C11.9586543,3.26563136 11.9784185,3.25354662 12,3.25354662 Z" id="Star" fill="#000000"></path>
    </g>
</svg>