<svg width="24" height="24" viewBox="0 0 24 24" xmlns="http://www.w3.org/2000/svg"><title>Icon/SBU/Systems/Default 1</title><path d="M5.93 2.93c.4 0 .75.31.79.72L7.54 12l2.96-2.41a.92.92 0 011.5.73V12l2.96-2.41a.92.92 0 011.5.73V12l2.96-2.41a.92.92 0 011.5.73v10.75H3.08V12l.82-8.35a.8.8 0 01.79-.72zm13.2 14.51h-3.56v1.82h3.56v-1.82zm-5.34 0h-3.57v1.82h3.57v-1.82zm-5.36 0H4.87v1.82h3.56v-1.82zm10.7-3.62h-3.56v1.81h3.56v-1.81zm-5.34 0h-3.57v1.81h3.57v-1.81zm-5.36 0H4.87v1.81h3.56v-1.81z" fill="#000" fill-rule="evenodd" fill-opacity=".84"/></svg>