<svg width="24" height="24" viewBox="0 0 24 24" xmlns="http://www.w3.org/2000/svg"><title>Icon/Essential/Hide</title><path d="M20.4 4.07c.2.22.22.56.04.8l-.06.08-15.63 15a.63.63 0 01-.93-.82l.07-.08 15.62-15a.62.62 0 01.88.02zM18.82 8.9c.96.7 1.85 1.5 2.65 2.38.7.76.7 1.93 0 2.7-2.65 2.91-6.23 4.95-9.48 4.9-.92 0-1.84-.13-2.72-.4a.63.63 0 01.37-1.2c.76.23 1.55.35 2.36.35 2.84.04 6.11-1.82 8.54-4.5a.76.76 0 000-1.01A16.51 16.51 0 0018.1 9.9a.63.63 0 01.74-1zm-3.7 3.1c.34 0 .62.28.62.62A3.75 3.75 0 0112 16.38a.62.62 0 110-1.25 2.5 2.5 0 002.5-2.5c0-.35.28-.63.62-.63zm-3.14-5.62c.73-.01 1.46.07 2.17.25a.62.62 0 11-.3 1.21 7.38 7.38 0 00-1.87-.22c-2.82-.04-6.1 1.81-8.54 4.5a.76.76 0 000 1c.63.71 1.33 1.36 2.08 1.94a.62.62 0 11-.77.98c-.8-.62-1.55-1.31-2.24-2.07a2.01 2.01 0 010-2.7c2.66-2.92 6.26-4.95 9.47-4.9zm0 2.5a.63.63 0 010 1.24 2.5 2.5 0 00-2.5 2.5.63.63 0 01-1.24 0A3.75 3.75 0 0112 8.88z" fill="currentColor" fill-rule="evenodd" fill-opacity=".84"/></svg>