<svg width="24" height="24" viewBox="0 0 24 24" xmlns="http://www.w3.org/2000/svg"><title>Icon/Essential/Sort</title><path d="M9.5 10.13c.31 0 .57.23.62.53V19.87l1.44-1.44a.63.63 0 01.8-.07l.08.07c.22.22.24.56.07.8l-.07.09-2.5 2.5a.63.63 0 01-.1.07l-.06.05-.05.01-.09.03-.1.02H9.5c-.05 0-.1 0-.14-.02l-.1-.03-.07-.03-.06-.04-.07-.06-2.5-2.5a.62.62 0 01.8-.96l.08.07 1.43 1.44v-9.12c0-.35.28-.63.63-.63zM14.43 2h.07c.05 0 .1 0 .14.02l.1.03.07.03.06.04.07.06 2.5 2.5a.62.62 0 01-.8.96l-.08-.07-1.43-1.44v9.12a.62.62 0 01-1.25.1V4.12l-1.44 1.44a.63.63 0 01-.8.07l-.08-.07a.63.63 0 01-.07-.8l.07-.09 2.5-2.5a.63.63 0 01.1-.07l.06-.05.05-.01.09-.03.07-.02z" fill="currentColor" fill-rule="evenodd" fill-opacity=".84"/></svg>