<svg width="24" height="24" viewBox="0 0 24 24" xmlns="http://www.w3.org/2000/svg"><title>Icon/SBU/ZBM/Service</title><path d="M15.88 13.19l5.88 5.64.03.04.07.1a.96.96 0 01.12.41c0 .1 0 .2-.02.3-.02.12-.06.24-.12.37s-.15.27-.25.42a3.94 3.94 0 01-1.35 1.14c-.13.06-.25.1-.37.12-.1.02-.21.02-.31.02a.96.96 0 01-.52-.18l-.04-.03-6.53-6.24 1.3-1.29c.14-.14.4-.29.8-.43.35-.14.8-.27 1.31-.4zm2.44-10.83a5.13 5.13 0 011.18.27 5.68 5.68 0 011.07.45l.08.05-3.24 1.41-.06.88.77 1.77L22 5.54l-.04.12a15 15 0 01-.33.83 7.48 7.48 0 01-1.22 1.86c-.2.2-.4.4-.62.57-.23.17-.48.32-.73.44l.88 2.18-.24.03a34.27 34.27 0 00-2.65.45 24.54 24.54 0 00-2.24.59c-.37.12-.68.25-.93.37-.28.15-.5.3-.64.44l-7.4 7.65-.09.06a2.74 2.74 0 01-.54.32 2.45 2.45 0 01-1.44.24 2.02 2.02 0 01-1.12-.62 2.31 2.31 0 01-.42-.56 1.85 1.85 0 01-.22-1.08 3.02 3.02 0 01.59-1.41l.06-.07 8.58-6.82c.37-.36.72-.81 1.04-1.35.27-.46.52-.99.75-1.58.2-.48.37-1.02.54-1.61l.39-1.42c.13-.53.22-.87.28-1.04.1-.3.2-.54.32-.71.12-.18.27-.33.45-.43.17-.1.4-.2.7-.28.2-.05.56-.14 1.09-.25l.14-.04a4.24 4.24 0 011.38-.06zM3.98 18.22c-.22.06-.4.16-.56.32-.16.17-.26.37-.31.58a1.25 1.25 0 00.3 1.18 1.32 1.32 0 001.2.31 1.18 1.18 0 00.87-.86c.07-.2.07-.41.02-.63a1.41 1.41 0 00-.32-.58 1.16 1.16 0 00-.56-.32 1.32 1.32 0 00-.64 0zm10.55-3.15l-.35.35 5.12 4.94.35-.35-5.12-4.94zm1.7-.35l-.35.35 4.42 4.29.35-.35-4.41-4.3zM3.37 2.25L6.3 4.19l.76 1.76 4 4-.47.65-.88.7-4-3.94-1.76-.76-1.94-2.94 1.35-1.41z" fill="currentColor" fill-rule="evenodd"/></svg>