<svg width="24" height="24" viewBox="0 0 24 24" xmlns="http://www.w3.org/2000/svg"><title>Icon/Essential/Shrink</title><path d="M4.5 13.25H10.19l.1.02.04.01.06.02.04.03.06.04.08.06.08.1.04.08.04.12.01.05.01.1v5.62a.62.62 0 01-1.24.1l-.01-.1v-4.12l-6.43 6.44a.62.62 0 01-.96-.8l.07-.09 6.44-6.43H4.5a.63.63 0 01-.62-.53v-.1c0-.31.23-.57.53-.61l.09-.01zM21.82 2.18c.21.22.24.56.07.8l-.07.09-6.44 6.43h4.12c.31 0 .57.23.62.53v.1c0 .3-.23.57-.53.61H13.73l-.02-.01a.62.62 0 01-.13-.05l-.07-.05-.09-.07a.63.63 0 01-.05-.06l.06.07a.63.63 0 01-.07-.1l-.03-.04-.03-.07-.03-.1-.02-.09V4.5a.62.62 0 011.24-.1l.01.1V8.6l6.43-6.43a.62.62 0 01.89 0z" fill="currentColor" fill-rule="evenodd" fill-opacity=".84"/></svg>