<svg width="24" height="24" viewBox="0 0 24 24" xmlns="http://www.w3.org/2000/svg"><title>Icon/SBU/ZPS/Used</title><path d="M13.64 6.69a3.61 3.61 0 00.2 2.23 3.68 3.68 0 001.91 1.96 3.48 3.48 0 002.45.13c.34-.11.66-.26.96-.47v6.3h-1.95v-1.18h-.83v1.08c0 .1-.02.2-.07.3-.04.1-.1.18-.17.23a.36.36 0 01-.23.09H8.6l-1.5-1.55H5.8c-.11 0-.21-.03-.3-.1a.76.76 0 01-.23-.3 1.07 1.07 0 01-.09-.44v-1.4h-.47v2.06H4V8.97h.72v2.06h.44v-.85c0-.15.02-.3.08-.43a.8.8 0 01.23-.3c.1-.08.2-.11.3-.11h1.15V8.6c0-.1.02-.2.07-.3a.6.6 0 01.18-.23.45.45 0 01.26-.1h2.56v-.55H7.97V6.7h5.67zm-1.2 2.94h-1.4l-1.96 3.68h2.9l-1.1 2.95 2.86-4.2h-2.56l1.26-2.43zm5.08-4.7c.3.05.58.15.84.3L18 5.6a2.01 2.01 0 00-1.35-.12 1.97 1.97 0 00-1.22.93 2.1 2.1 0 00.68 2.85 2 2 0 002.72-.6c.14-.2.24-.44.3-.7l-.32.01.57-1.08.63 1.04-.35.01a2.63 2.63 0 01-1.01 1.65 2.46 2.46 0 01-2.8.11 2.51 2.51 0 01-1.14-1.56A2.6 2.6 0 0116.52 5c.33-.08.66-.1 1-.05zm1.53.64l.36.37-2.53 2.59-1.14-1.17.35-.37.79.8 2.17-2.22z" fill="currentColor" fill-rule="evenodd" fill-opacity=".84"/></svg>