<svg width="24" height="24" viewBox="0 0 24 24" xmlns="http://www.w3.org/2000/svg" xmlns:xlink="http://www.w3.org/1999/xlink"><title>Icon/Social/Xing</title><defs><path d="M17.15 2c-.43 0-.62.27-.77.55 0 0-6.22 11.02-6.4 11.38l4.08 7.52c.14.26.36.55.8.55h2.88c.18 0 .31-.07.38-.18.08-.13.08-.29 0-.45l-4.07-7.45 6.4-11.29a.48.48 0 000-.45.46.46 0 00-.39-.18h-2.9zM5.03 5.95c-.17 0-.32.05-.39.18-.08.13-.07.28.02.44l1.94 3.4-3.06 5.4a.58.58 0 000 .45c.07.12.2.18.37.18h2.9c.42 0 .63-.28.78-.55l3.11-5.5L8.72 6.5c-.14-.26-.36-.55-.8-.55H5.02z" id="a"/></defs><use fill-opacity=".84" fill="#000" xlink:href="#a" fill-rule="evenodd"/></svg>