<svg width="24" height="24" viewBox="0 0 24 24" xmlns="http://www.w3.org/2000/svg"><title>Icon/Communication/Email Send</title><path d="M13.8 11.38a5.63 5.63 0 11-.24.13zm4.76 1.2a4.37 4.37 0 10-4.37 7.59 4.37 4.37 0 004.37-7.58zm-1.2 1.4l.08.08 1.88 1.87v.01l.05.05.01.02a.66.66 0 01.05.08v.02a.62.62 0 01.07.27v.03a.63.63 0 010 .06l-.01.04a.62.62 0 01-.18.32l-1.87 1.86a.62.62 0 01-.96-.8l.08-.08.8-.8h-3.49a.63.63 0 01-.09-1.25H17.37l-.81-.82a.62.62 0 01.8-.95zM18.86 2a1.87 1.87 0 011.47.7v.02c.23.28.37.63.4 1.01V9.5a.63.63 0 01-1.23.1l-.01-.1V4.13L13.44 8.8c-1.16.9-2.76.93-3.96.12l-.17-.12-6.06-4.66v9.74c0 .31.23.57.53.61l.1.01h5a.62.62 0 01.09 1.24l-.1.01h-5c-.98 0-1.79-.76-1.87-1.73V3.88A1.87 1.87 0 012.4 2.7l.02-.02c.32-.38.78-.63 1.3-.67h15.14zm-.27 1.25H4.15l5.92 4.56c.72.55 1.7.59 2.46.1l.14-.1 5.93-4.56z" fill="currentColor" fill-rule="evenodd" fill-opacity=".84"/></svg>