<svg width="24" height="24" viewBox="0 0 24 24" xmlns="http://www.w3.org/2000/svg"><title>Icon/SBU/ZPS/Service</title><path d="M13.98 5.35l-.08.5a4.43 4.43 0 00.32 2.28 4.5 4.5 0 006.67 2.01v7.8h-2.4V16.5h-1.06v1.33a.88.88 0 01-.3.67c-.1.07-.2.11-.31.11H7.74l-1.9-1.95H4.28a.64.64 0 01-.4-.13.9.9 0 01-.27-.38 1.4 1.4 0 01-.1-.54v-1.73h-.62v2.56H2v-8.3h.84v2.62h.55V9.7c0-.2.04-.38.12-.55a.95.95 0 01.29-.37c.12-.1.24-.14.37-.14h1.5V7.7a.87.87 0 01.31-.66c.1-.08.2-.12.31-.12h3.18v-.66H6.96v-.9h7.02zm-1.45 3.68h-1.78L8.3 13.6h3.62l-1.34 3.68 3.57-5.24h-3.18l1.56-3.01zm6.01-6.24a3.36 3.36 0 012.44 1.02 3.43 3.43 0 01.75 3.78 3.5 3.5 0 01-3.18 2.16 3.4 3.4 0 01-2.44-1.02 3.45 3.45 0 01-1.02-2.48 3.43 3.43 0 013.45-3.46zm0 .56a2.84 2.84 0 00-2.05.86 2.95 2.95 0 00-.84 2.04 3.04 3.04 0 002.9 2.95 2.95 2.95 0 002.66-1.8 2.9 2.9 0 00-2.66-4.05zm1.23 1l-.78.78.56.56.78-.78a1.2 1.2 0 01-.22 1.34 1.2 1.2 0 01-.82.35.96.96 0 01-.41-.08l-1.62 1.62a.15.15 0 01-.1.04.15.15 0 01-.12-.04l-.39-.39a.16.16 0 01-.07-.07.1.1 0 010-.08.15.15 0 01.07-.07l1.5-1.73a1.11 1.11 0 01.28-1.23c.2-.17.42-.27.65-.32.24-.04.47 0 .7.1z" fill="#000" fill-rule="evenodd" fill-opacity=".84"/></svg>