<svg width="24" height="24" viewBox="0 0 24 24" xmlns="http://www.w3.org/2000/svg"><title>Icon/Essential/Login</title><path d="M4.76 2.63h10.26c.95.04 1.7.81 1.73 1.72v3.9a.62.62 0 01-1.24.1l-.01-.1V4.47a.58.58 0 00-.43-.58L15 3.87H4.79a.57.57 0 00-.54.53V19.53c-.01.28.18.53.43.58l.08.02h10.2c.28-.02.5-.24.54-.53v-3.85a.62.62 0 011.24-.1l.01.1v3.72c.04.95-.65 1.77-1.6 1.9H4.72A1.82 1.82 0 013 19.65V4.53c-.05-1 .73-1.85 1.76-1.9zm8.06 5.8c.21.22.24.56.07.8l-.07.09-2.06 2.06h11.62a.63.63 0 01.09 1.24H10.76l2.06 2.07c.21.21.24.55.07.8l-.07.08a.63.63 0 01-.8.07l-.09-.07-3.13-3.13a.63.63 0 01-.05-.06l.06.07a.63.63 0 01-.08-.1l-.02-.04-.04-.07-.03-.1-.02-.14v-.07l.03-.1.03-.09.06-.1.04-.04 3.15-3.16a.62.62 0 01.89 0z" fill="currentColor" fill-rule="evenodd" fill-opacity=".84"/></svg>