<svg width="24" height="24" viewBox="0 0 24 24" xmlns="http://www.w3.org/2000/svg" xmlns:xlink="http://www.w3.org/1999/xlink"><title>Icon/Flag/SG</title><defs><rect id="a" x="2" y="4.5" width="20" height="15" rx="1"/></defs><g fill="none" fill-rule="evenodd"><mask id="b" fill="#fff"><use xlink:href="#a"/></mask><g mask="url(#b)" fill-rule="nonzero"><path fill="#FFF" d="M2 12h20v7.5H2z"/><path fill="#EF3340" d="M2 4.5h20V12H2z"/><path d="M5.86 5.43c.32 0 .64.05.93.16a2.66 2.66 0 00.1 5.32h-.1a2.82 2.82 0 11-.93-5.48zm.53 3.43l.14.48h.48l-.39.29.15.47-.38-.3-.39.3.15-.47-.38-.3h.47l.15-.47zm1.88 0l.14.48h.48l-.39.29.15.47-.38-.3-.39.3.15-.47-.38-.3h.47l.15-.47zM5.82 7.08l.15.47h.47l-.38.3.15.47-.39-.3-.38.3.15-.48-.39-.29h.48l.14-.47zm3 0l.15.47h.48l-.39.3.15.47-.38-.3-.38.3.14-.48-.38-.29h.47l.15-.47zm-1.5-1.12l.15.48h.48l-.39.29.15.47-.38-.3-.38.3.14-.47-.38-.3h.47l.15-.47z" fill="#FFF"/></g></g></svg>