<svg width="24" height="24" viewBox="0 0 24 24" xmlns="http://www.w3.org/2000/svg"><title>Icon/SBU/ZPS/Service</title><path d="M14.08 6.78l-.06.4A3.55 3.55 0 0014.28 9a3.6 3.6 0 005.33 1.61v6.24h-1.92v-1.16h-.84v1.07a.7.7 0 01-.25.53.4.4 0 01-.25.1H9.1l-1.51-1.57H6.33a.51.51 0 01-.32-.1.71.71 0 01-.22-.3 1.11 1.11 0 01-.09-.44V13.6h-.49v2.05H4.5V9h.67v2.1h.44v-.86c0-.15.04-.3.1-.43a.76.76 0 01.23-.3.5.5 0 01.3-.11h1.2v-.76a.7.7 0 01.25-.53c.07-.06.16-.1.24-.1h2.54V7.5h-2v-.71h5.61zm-1.16 2.94H11.5l-1.96 3.65h2.9l-1.08 2.95 2.86-4.2h-2.54l1.24-2.4zm4.82-5a2.69 2.69 0 011.95.82 2.74 2.74 0 01.59 3.03 2.8 2.8 0 01-2.54 1.73 2.71 2.71 0 01-1.95-.82 2.76 2.76 0 01-.82-1.99 2.74 2.74 0 012.77-2.76zm0 .45a2.27 2.27 0 00-1.65.7 2.36 2.36 0 00-.67 1.62 2.43 2.43 0 002.32 2.36 2.36 2.36 0 002.13-1.45 2.32 2.32 0 00-2.13-3.23zm.98.8l-.63.63.45.45.62-.63a.97.97 0 01-.18 1.07.97.97 0 01-.64.28.77.77 0 01-.34-.06l-1.29 1.3a.12.12 0 01-.09.03.12.12 0 01-.09-.03l-.3-.31a.13.13 0 01-.07-.06.08.08 0 010-.07.12.12 0 01.06-.05l1.2-1.39a.89.89 0 01.23-.98c.16-.13.33-.22.52-.25.19-.04.37-.01.55.08z" fill="currentColor" fill-rule="evenodd" fill-opacity=".84"/></svg>