<svg width="24" height="24" viewBox="0 0 24 24" xmlns="http://www.w3.org/2000/svg" xmlns:xlink="http://www.w3.org/1999/xlink"><title>Icon/Flag/SA</title><defs><rect id="a" x="2" y="4.5" width="20" height="15" rx="1"/></defs><g fill="none" fill-rule="evenodd"><mask id="b" fill="#fff"><use xlink:href="#a"/></mask><g mask="url(#b)" fill-rule="nonzero"><path fill="#006C35" d="M2 4.5h20v15H2z"/><path d="M14.83 14.8l.03.08h.01c.03 0 .05 0 .07.02.05.05 0 .17-.02.2.27.01.44.02.68.05l.28-.04c.31-.03.32.45.32.45 0 .27-.1.29-.24.32-.08 0-.12-.05-.16-.11a7.3 7.3 0 01-.84 0c-.03.04-.06.1-.13.08a.03.03 0 01-.02-.01c-.06-.04-.14-.26-.06-.4H8.98c-.45 0-.78-.07-1.02-.4l1.46.03c.61 0 3.48.03 5.35.03-.12-.08-.12-.26.05-.3zm2.36-6.64l.04.06c.1.14.35.47.3.52-.03.04-.1 0-.12.04a10.86 10.86 0 01.16 2.5c0 .13-.07.37-.12.46-.2.3-.5.33-.76.35-.14 0-.14-.12.04-.22.05-.05.23-.1.31-.17.08-.06.17-.19.25-.29l.05-.2a21.8 21.8 0 00-.26-2.58c-.02-.15 0-.3.06-.4.02-.05.03-.07.05-.07zm-3.1.04l.04.06c.09.14.25.5.2.55-.02.04-.08.02-.1.04a.35.35 0 000 .15c.12.61.18 1.27.17 2.1 0 .15-.1.34-.16.43-.2.37-.42.5-.68.54-.15 0-.26-.16-.23-.2.31-.12.6-.37.8-.58.05-.04.06-.16.05-.24-.08-.83-.11-1.56-.23-2.39 0-.15.03-.3.09-.4l.02-.03c0-.02.02-.03.03-.03zm1.83-.05c.02 0 .03.02.04.03l.3.54c.01.05-.01.1-.05.1l-.05-.04c-.03 0-.02 0-.02.03l.03.37.01.07.31.46c-.05-.37-.1-.74-.18-1.1-.02-.15-.05-.3.02-.36.08-.1.14-.13.17-.06.1.13.28.61.24.66-.03.05-.09 0-.1.05-.01.01.02.2.03.26.04.15.06.34.09.47l.07.58c.13.18.29.4.42.62.05.06.07.49 0 .53l-.39-.65v.35c0 .14-.27.44-.26.37.01-.39 0-.78-.05-1.2l-.26-.37c.01.46.04 1.3-.02 1.45a.46.46 0 01-.2.26c-.14.1-.28.07-.4-.03a.48.48 0 01-.18-.16c-.05-.05-.16-.07-.2.05-.06.07-.06.4-.18.53-.06.07-.15.12-.28.03-.14-.07-.2-.16-.26-.3-.05-.09-.15-.49.07-.73a1 1 0 00.08.6l.05.08c.1.09.18.05.2 0 .12-.21.2-.53.37-.7.07-.05.12-.07.21 0 0 0 .17.28.22.3.06.05.14 0 .14 0 .06-.02.12-.29.13-.49-.04-.46-.05-.88-.08-1.35l-.51-.65c-.05-.05-.1-.15-.1-.2l.01-.33c.02-.12.05-.05.11-.01.12.09.16.14.3.29.16.2-.2-.02.05.24l.03.04-.01-.05-.04-.39c0-.07.04-.13.07-.16l.05-.03zm.5 3.4l.08.01c.06.02.07.05.05.09a.33.33 0 01-.04.08c-.03.05.03.06.05.06.03 0 .08-.01.1.01.01 0 .02.06-.02.09 0 0-.24.16-.35.13-.06-.01-.05-.06-.03-.1l.11-.09c.04-.05.03-.08 0-.1-.04-.03-.08-.03-.08-.1 0-.04.02-.06.05-.07h.08zM8.68 8.23h.02v.01h.01l.01.02c.08.03.2.41.26.6-.05.07-.1.02-.17.03l.14 1.05c.15-.08.22-.06.2.12.01.08.13.07.2.02.1-.27.25-.25.29-.08 0 .04.05.05.08.04l.01-.02.03-.14v-.02c.03-.03.1-.05.18-.08 0 .17-.03.32-.06.48-.04.15-.26.2-.38.1-.03-.03-.09-.01-.1.02-.06.05-.28.2-.43.03h-.01c-.05.05.08.37-.05.8-.25.82-1.84 1.24-1.9.25v-.3c.02-.18.09-.28.14-.24.02.02.04.06.05.14 0 .12.02.33.07.42.21.4 1.45.31 1.48-.95 0-.03-.01-.04-.02-.05-.03 0-.06.03-.08.07-.18 1.4-1.82 1.22-1.33-.05.16-.11.1.38.16.51.1.2.31.18.57.07.41-.22.43-.5.41-.54h-.02c-.04.01-.1.07-.17.1-.1.03-.23.04-.33-.08a.76.76 0 010-.36c.02-.15.18-.31.33-.31.2 0 .23.15.35.23.07.01.12-.07.1-.14L8.5 8.46c-.02-.13.05-.2.12-.22l.06-.02h.02zm2.04 1.34l.1.08c.15.26.25.6.26.9 0 .07.03.1.06.12h.01l.02-.06c.08-.17.46-.37.82-.4.06-.02.03-.13.04-.19-.03-.22.12-.41.32-.43.28.04.37.19.38.42-.03.43-.48.5-.74.54a.08.08 0 00-.03.02v.01a.1.1 0 00.03.02h1.07l.05.04v.01l-.06.06a.86.86 0 00-.1.34c-.32.1-.65.15-.98.19-.12.06-.18.13-.15.22.03.1.28.2.3.2.04.03.1.1-.02.25-.52-.02-.92-.24-1.06-.56-.05-.03-.1 0-.12.05-.2.26-.4.5-.75.62a.5.5 0 01-.52-.17c-.06-.07-.06-.15-.08-.18-.12.05-1.08.46-.96.27.24-.25.64-.44 1-.68.02-.09.07-.36.21-.46l-.02.24v.06h.01c.03-.02.46-.36.5-.46.03-.06 0-.2 0-.21-.08-.22-.19-.23-.23-.34-.04-.14-.02-.3.06-.34.07-.06.15-.05.23.02a.7.7 0 01.18.34c-.01.05-.1-.02-.14 0 .06.06.08.13.1.22.06.24.05.33-.01.49-.2.4-.44.52-.65.67v.02c0 .03 0 .1.07.14.03.03.14.04.27 0 .25-.14.52-.4.65-.68.04-.21-.01-.44-.07-.64l-.18-.48c0-.12 0-.17.06-.23l.05-.05h.01zm-4.1 1.49v.08c-.02.12-.03.28-.02.44 0 .1.04.2.11.04.04-.05.07-.04.1.02.03.08-.01.3-.13.35-.06.02-.14 0-.2-.06-.1-.13-.07-.55.1-.82l.04-.05zm5.98.36c.04 0 .07.03.06.03.01.06-.03.11-.02.19.01.03.02.06.08.05.09-.07.17-.08.26-.08.07 0 .08.12.03.12-.17.04-.24.08-.36.13-.05.03-.1-.01-.1-.02 0 0-.04-.03-.01-.1 0-.06-.02-.1-.07-.09-.04.02-.07.03-.1-.01 0-.03 0-.05.02-.07a.74.74 0 01.17-.14h.04zm-.2-3.3c.05 0 .12.04.16.06l.25.22.09.11a.46.46 0 01.03-.28c.08-.1.08-.09.13-.01.16.22.29.38.33.63.02.14-.11-.13-.08.11.02.06.04.25.06.48l.23.35c.07.14.3.5.48.87.04.06.06.5-.02.53-.21-.42-.43-.8-.65-1.17l.01.24c0 .17.05.75.02 1.04-.05.2-.19.35-.28.35a12.7 12.7 0 00-.07-2.14l-.6-.84c-.04-.06-.13-.16-.14-.22a.7.7 0 01-.02-.26c.01-.04.04-.06.07-.07zm2.15.07c.02 0 .02.03.04.07.06.14.24.38.31.54.02.14-.19-.06-.14.17.03.11.2 1.39.2 1.55.02.15.05.32.03.59-.04.19-.14.39-.23.39.03-.9-.15-1.76-.33-2.7-.03-.14 0-.33.07-.56l.05-.05zm1.2 2.12h.03c.1.05.14.34.12.42 0 .16-.1.28-.13.26-.04-.02 0-.19-.02-.25-.02-.09-.1-.25-.09-.3-.02-.08.03-.13.08-.13a.1.1 0 01.04 0zM7.42 8.22c.03 0 .06.01.08.04.1.08.1.36.12.5 0 .1.01.34.07.5.03.08.08.1.1.03.04 0-.03-.07-.07-.2-.05-.12-.09-.41-.01-.55.03-.04.09-.04.13 0 .05.08.1.12.12.23l.02.06c.02.06.03.13 0 .36 0 .03.17.16.17.16.05.06.12.07.18.04a.51.51 0 00-.04-.27c-.12-.16-.2-.35-.18-.52.04-.14.15-.16.23-.09.1.05.15.17.2.3-.02.05-.08.06-.12 0-.01.03.04.1.03.13.07.16.09.33.1.49 0 .17-.13.27-.36.34-.14.03-.18-.05-.28-.12-.06-.03-.14-.03-.14.04-.05.07.03.36.02.7-.01.6-.23.53-.23.53l-.04-.94c-.04-.09-.1-.1-.2-.09-.09-.03-.2-.08-.2-.26v-.54c0-.08-.05-.08-.07-.02-.13.12.07.76-.3.72-.29-.06-.26-.67-.23-1.02.09-.1.12.34.18.52.06.25.15.15.17.02.01-.12.05-.25.05-.25.04-.27.18-.42.24-.42.07-.01.1 0 .13.08.04.08.05.38 0 .57 0 .14.18.31.17.02-.03-.22-.05-.41-.11-.63a2.4 2.4 0 010-.39c0-.04.04-.06.07-.07zm-.12 1.83c.19 0 .14.07.2.15l-.94.45c.01-.22.44-.6.74-.6zm8.56-.16c.05 0 .03.2 0 .2.02.05-.55.44-.6.42-.02.02-.05-.15 0-.2a52.27 52.27 0 01.6-.42zm-4.12-.17c.02 0 .05 0 .06.03v.1c.08.18-.22.22-.34.16-.09-.04-.09-.17-.08-.18 0-.03 0-.1.07-.1l.03.01v.05l.02.02.03.01c.01 0 .02 0 .02-.03v-.04l.04-.02h.02l.02.05c0 .06.04.06.05.05.02 0 0-.04.01-.06 0-.03.03-.05.05-.05zm3.8-.57c.04 0 .08.02.1.05.04.06.05.16.06.24 0 .04-.06 0-.1 0-.03 0-.04.05-.04.09l-.02.36c-.11 0-.35-.22-.42-.35a.24.24 0 01.01-.19c.04-.02.1-.05.16-.03l.04.08c.06.03.09.02.1 0 0-.05-.03-.08-.03-.13.02-.08.08-.12.15-.12zm-4-1.08c.04 0 .05.05.08.1.1.16.06.5.09.73.04.31.12.34.17.35.12.01.18-.1.18-.1.04-.22-.07-.38-.14-.5a.29.29 0 01-.05-.26c0-.06 0-.12.06-.18.1-.08.19-.07.25 0 .08.1.2.26.16.32-.01.06-.09.05-.12.04-.07 0 0 .16 0 .17.05.1.05.24.1.34.06.09.17.05.22.04l.1-.06c.03-.02.08-.03.08.06 0 0-.1.25-.2.31-.04 0-.05.04-.1 0-.04-.07 0-.1.01-.14 0-.02-.07-.04-.12.02l-.11.2c-.05.07-.26.1-.36.07-.11-.06-.1-.15-.16-.2-.06-.03-.1-.03-.15.01l-.17.18a.33.33 0 01-.44-.01c-.1-.12-.13-.21-.13-.6-.02-.05-.05-.04-.09.04-.06.3-.15.58-.29.52-.2.05-.49-.52-.3-1.04.11-.11.12.58.21.67.04.06.1.11.15-.06.05-.22.14-.51.33-.68.04-.04.13-.08.19.03.03.07.02.41.02.61.02.13.07.15.13.2.07.02.15.05.23-.04l.1-.15c.03-.22 0-.43-.06-.55-.07-.2.03-.3.06-.35.03-.06.05-.09.07-.1zm2.3 1.02c.02 0 .05 0 .06.03v.1c.01.2-.22.22-.34.16-.1-.04-.09-.18-.08-.18 0-.03 0-.1.06-.1h.03l.01.06.02.02.03.01c.01 0 .02 0 .02-.03v-.04l.03-.02h.03l.02.05c0 .06.04.06.05.05.02 0 0-.04 0-.06.02-.03.04-.05.06-.05zm-4.05-.9a.3.3 0 01.14.03c.06.07.1.22-.02.29-.02.02-.03.04 0 .06l.07.06s-.47.54-.57.57c-.03.02-.32.02-.34 0 .02-.06.48-.38.65-.57.05-.03-.02-.1-.08-.12-.06-.08-.04-.2.04-.28a.27.27 0 01.11-.04zm-1.65 0h.02c.02 0 .03.02.04.04v.1c.02.19-.22.21-.34.16-.09-.04-.09-.18-.08-.18 0-.03 0-.11.07-.11 0 0 .02 0 .03.02v.05l.02.02h.03c.01 0 .02 0 .02-.02l.01-.05c.01-.01 0-.02.03-.02l.02.01.02.05c0 .05.04.06.05.05l.01-.02v-.04c0-.03.03-.05.05-.06z" fill="#FFF"/></g></g></svg>