<svg width="24" height="24" viewBox="0 0 24 24" xmlns="http://www.w3.org/2000/svg" xmlns:xlink="http://www.w3.org/1999/xlink"><title>Icon/Flag/GB</title><defs><rect id="a" x="2" y="4.5" width="20" height="15" rx="1"/></defs><g fill="none" fill-rule="evenodd"><mask id="b" fill="#fff"><use xlink:href="#a"/></mask><g mask="url(#b)" fill-rule="nonzero"><path fill="#00247D" d="M2 4.5h20v15H2z"/><path fill="#FFF" d="M4.34 4.5l7.63 5.66 7.6-5.66H22v1.94l-7.5 5.6 7.5 5.55v1.91h-2.5L12 13.9l-7.47 5.6H2v-1.88l7.47-5.56L2 6.5v-2z"/><path d="M15.25 13.28L22 18.25v1.25l-8.47-6.22h1.72zm-5.75.63L9.69 15l-6 4.5H2l7.5-5.6zM22 4.5v.1l-7.78 5.87.06-1.38 6.16-4.59H22zm-20 0L9.47 10H7.59L2 5.81V4.5z" fill="#CF142B"/><path d="M9.53 4.5v15h5v-15h-5zM2 9.5v5h20v-5H2z" fill="#FFF"/><path d="M2 10.53v3h20v-3H2zm8.53-6.03v15h3v-15h-3z" fill="#CF142B"/></g></g></svg>