<svg width="24" height="24" viewBox="0 0 24 24" xmlns="http://www.w3.org/2000/svg"><title>Icon/Ecom/Barcode Tag</title><path d="M11.43 4.3c.46 0 .9.15 1.25.44l.13.11 8.02 8.02c.69.7.73 1.8.11 2.53l-.11.13-5.3 5.3a1.88 1.88 0 01-2.54.1l-.12-.1-7.92-7.92c-.31-.32-.5-.73-.53-1.23v-.19l.45-3.24a.63.63 0 011.24.08v.1l-.45 3.15c0 .13.04.26.11.37l.07.08 7.92 7.91a.63.63 0 00.8.07l.08-.07 5.3-5.3a.63.63 0 00.07-.8l-.07-.08-8.02-8.02a.71.71 0 00-.31-.19h-.06l-3.2.5a.63.63 0 01-.29-1.21l.1-.02 3.27-.52zm-1.3 8.5l.09.07 3.53 3.54a.63.63 0 01-.8.95l-.08-.07-3.53-3.54a.63.63 0 01.8-.95zm7.16.07c.22.22.24.55.07.8l-.07.08-1.77 1.77a.62.62 0 01-.95-.8l.07-.08 1.77-1.77a.62.62 0 01.88 0zm-1.77-1.77c.22.22.24.56.08.8l-.08.09-1.77 1.76a.63.63 0 01-.95-.8l.07-.08 1.77-1.77a.62.62 0 01.88 0zm-1.77-1.76c.22.21.25.55.08.8l-.08.08L12 11.99a.62.62 0 01-.96-.8l.07-.09 1.77-1.76a.62.62 0 01.88 0zM3.61 2.74l.08.07 4.54 4.53a1.88 1.88 0 11-.88.88L2.8 3.7a.63.63 0 01.8-.95zM9.04 8.4a.62.62 0 100 1.25.62.62 0 000-1.25z" fill="currentColor" fill-rule="evenodd" fill-opacity=".84"/></svg>