<svg width="24" height="24" viewBox="0 0 24 24" xmlns="http://www.w3.org/2000/svg"><title>Icon/Essential/Cookie</title><path d="M11.58 2.01c.46-.02.78.45.6.87a2.5 2.5 0 003.8 2.97.63.63 0 011 .5 2.5 2.5 0 003.63 2.23c.35-.18.77 0 .89.36a9.99 9.99 0 11-9.92-6.93zm-.81 1.33l-.22.03a8.74 8.74 0 109.98 6.78l-.04-.18c-.25.07-.5.12-.76.14h-.25a3.75 3.75 0 01-3.59-2.64l-.03-.13-.19.08c-.3.1-.62.16-.95.19h-.24a3.75 3.75 0 01-3.74-4.1l.03-.17zm3.08 11.15a1.88 1.88 0 110 3.75 1.88 1.88 0 010-3.75zm0 1.25a.63.63 0 100 1.25.63.63 0 000-1.25zm-5.93-.62h.1a.94.94 0 11-.21 0h.1zm9.97-3.13a.94.94 0 11-.13.01h.13zM7.15 8.5a2.5 2.5 0 11-.17.09zm1.7 1.17a1.25 1.25 0 10-1.25 2.16 1.25 1.25 0 001.25-2.16zm4.04-.17a.94.94 0 11-.12.01h.12z" fill="currentColor" fill-rule="evenodd" fill-opacity=".84"/></svg>