<svg width="24" height="24" viewBox="0 0 24 24" xmlns="http://www.w3.org/2000/svg"><title>Icon/Media/Pause</title><path d="M10.13 4.5c.3 0 .57.23.61.53l.01.1v13.75c0 .3-.23.57-.53.61l-.1.01H6.38a.63.63 0 01-.62-.53l-.01-.1V5.13c0-.3.23-.57.53-.61l.1-.01h3.75zm7.5 0c.3 0 .57.23.61.53l.01.1v13.75c0 .3-.23.57-.53.61l-.1.01h-3.75a.63.63 0 01-.61-.53l-.01-.1V5.13c0-.3.23-.57.53-.61l.1-.01h3.74zM9.5 5.75H7v12.5h2.5V5.75zm7.5 0h-2.5v12.5H17V5.75z" fill="#000" fill-rule="evenodd" fill-opacity=".84"/></svg>