<svg width="24" height="24" viewBox="0 0 24 24" xmlns="http://www.w3.org/2000/svg"><title>Icon/Essential/Download</title><path d="M21.25 14.38c.31 0 .57.23.62.53v1.34c0 1.67-1.3 3.03-2.94 3.12H5a3.13 3.13 0 01-3.12-2.94V15a.62.62 0 011.24-.1v1.35c0 .99.77 1.8 1.73 1.87h13.9c.99 0 1.8-.76 1.87-1.72V15c0-.35.28-.63.63-.63zm-9.38-10c.32 0 .58.23.62.53l.01.09v8.5l2.68-2.7a.63.63 0 01.8-.06l.09.07c.21.22.24.55.07.8l-.07.08-3.8 3.8-.06.04-.07.03-.08.04a.62.62 0 01-.32.01l-.09-.03-.08-.04-.05-.03-.05-.04-3.79-3.78a.62.62 0 01.8-.95l.09.07 2.68 2.68V5c0-.35.28-.63.63-.63z" fill="#000" fill-rule="evenodd" fill-opacity=".84"/></svg>