<svg width="24" height="24" viewBox="0 0 24 24" xmlns="http://www.w3.org/2000/svg"><title>Icon/Essential/Edit</title><path d="M18.33 2h.22a3.66 3.66 0 012.35 6.26L8.82 20.34a.62.62 0 01-.29.16l-5.75 1.48a.62.62 0 01-.76-.76l1.47-5.75a.62.62 0 01.17-.3L15.74 3.1c.68-.7 1.61-1.1 2.59-1.1zM4.43 16.83l-.94 3.68 3.68-.95-2.74-2.73zm11.4-12.06L4.99 15.62 8.38 19 19.23 8.16l-3.4-3.4zm2.5-1.52h-.19c-.57.06-1.1.31-1.52.73l.1-.1 3.4 3.4c.31-.35.52-.78.6-1.24l.02-.18.01-.2a2.4 2.4 0 00-2.41-2.41z" fill="currentColor" fill-rule="evenodd"/></svg>