<svg width="24" height="24" viewBox="0 0 24 24" xmlns="http://www.w3.org/2000/svg" xmlns:xlink="http://www.w3.org/1999/xlink"><title>Icon/Flag/IN</title><defs><rect id="a" x="2" y="4.5" width="20" height="15" rx="1"/></defs><g fill="none" fill-rule="evenodd"><mask id="b" fill="#fff"><use xlink:href="#a"/></mask><g mask="url(#b)" fill-rule="nonzero"><path fill="#138808" d="M2 14.5h20v5H2z"/><path fill="#FFF" d="M2 9.5h20v5H2z"/><path fill="#F93" d="M2 4.5h20v5H2z"/><path d="M12 10a2 2 0 110 4 2 2 0 010-4zm-.07 2.34l-.05.35-.33 1h.03c.03.02.07.02.1.03.01-.05.05-.08.1-.07.05 0 .09.05.08.1H12l-.06-1.05.04-.35h-.05zm.14 0l-.07.01h.02l.04.35-.06 1.05h.14a.09.09 0 01.18-.03l.1-.02.03-.01-.33-1zm-.23-.03l-.14.33-.58.88.13.06a.09.09 0 01.11-.05c.05.02.07.08.05.12l.04.01.1.03.21-1.03.13-.33a.35.35 0 01-.05-.02zm.32 0a.35.35 0 01-.05.02l.13.33.21 1.03.1-.03.04-.01a.09.09 0 01.16-.07l.12-.06-.57-.88zm.13-.12a.35.35 0 01-.03.04l.28.22.7.79-.79-.7-.22-.28a.35.35 0 01-.04.03l.21.29.48.94.11-.08a.09.09 0 01.15-.1l.2-.2a.09.09 0 01.11-.14l.07-.12-.94-.48zm-.58 0l-.29.21-.94.48.08.11a.09.09 0 01.1.15l.2.2a.09.09 0 01.14.11l.12.07.48-.94.2-.29a.35.35 0 01-.03-.03l-.22.28-.79.7.7-.79.28-.22a.35.35 0 01-.03-.04zM10.25 12v.14a.09.09 0 01.03.18l.07.27a.09.09 0 01.07.16l.06.13.88-.58.33-.14a.35.35 0 01-.02-.05l-.33.13-1.03.21 1-.33.35-.05-.01-.07v.02l-.35.04-1.05-.06zm3.27-.87l-.88.57-.33.14.02.05.33-.13 1.03-.21-1 .33-.35.05.01.07v-.02l.35-.04 1.05.06-1.05.06-.35-.04v.05l.34.05 1 .33-1.03-.21-.33-.13-.02.05.33.14.88.58.06-.13a.09.09 0 01-.05-.11.09.09 0 01.12-.05l.07-.27a.09.09 0 01.03-.18v-.28a.09.09 0 01-.03-.18l-.07-.27a.09.09 0 01-.07-.16l-.06-.12zm-3.07.07l-.03.05a.09.09 0 01-.07.16l-.07.27c.05.01.08.05.07.1 0 .05-.05.09-.1.08V12l1.05-.06.35.04v-.05l-.34-.05-1-.33 1.03.21.33.13.02-.05-.33-.14-.88-.57-.03.07zm.63-.69l-.07.05a.09.09 0 01-.15.1l-.2.2c.05.04.05.09.02.13a.09.09 0 01-.12.02l-.08.11.94.48.29.21a.35.35 0 01.03-.04l-.28-.22-.7-.79.79.7.22.28a.35.35 0 01.04-.03l-.21-.29-.48-.94-.04.03zm1.8-.03l-.48.94-.21.29c.02 0 .03.02.04.03l.22-.28.79-.7-.7.79-.28.22.03.04.29-.21.94-.48a1.75 1.75 0 00-.08-.11.09.09 0 01-.1-.15 2.09 2.09 0 00-.2-.2.09.09 0 01-.14-.11l-.12-.07zm-1.33-.17l-.1.03-.04.01a.09.09 0 01-.16.07l-.13.06.58.88.14.33.05-.02-.13-.33-.21-1.03zm.9 0l-.21 1.03-.13.33.05.02.14-.33.57-.88a1.75 1.75 0 00-.12-.06.09.09 0 01-.11.05.09.09 0 01-.05-.12l-.04-.01-.1-.03zm-.45-.06h-.14a.09.09 0 01-.18.03l-.1.02-.03.01.33 1 .05.35.07-.01h-.02l-.04-.35.06-1.05zm0 0l.06 1.05-.04.35h.05l.05-.34.33-1h-.03c-.03-.02-.07-.02-.1-.03-.01.05-.05.08-.1.07a.09.09 0 01-.08-.1H12z" fill="navy"/></g></g></svg>