<svg width="24" height="24" viewBox="0 0 24 24" xmlns="http://www.w3.org/2000/svg"><title>Icon/SBU/ZPS/Default</title><path d="M14.8 6.78v.7h-1.94v.58h2.57L17.2 9.7h.35V8.8h1.95v7.93h-1.95v-1.16h-.84v1.02c0 .12-.02.22-.05.32a.5.5 0 01-.16.22.37.37 0 01-.23.08H9.06l-1.5-1.5H6.26a.49.49 0 01-.32-.12.77.77 0 01-.22-.31 1.07 1.07 0 01-.08-.41V13.5h-.44v1.99H4.5V9.04h.66v1.99h.45v-.84c0-.16.03-.3.09-.44a.76.76 0 01.23-.3c.1-.07.2-.1.3-.1h1.15v-.71c0-.1.02-.2.07-.3a.6.6 0 01.18-.23c.09-.06.18-.1.28-.1h2.52V7.5h-2v-.71h6.38zM12.87 9.6h-1.41L9.5 13.2h2.88l-1.07 2.88 2.84-4.11h-2.53l1.24-2.35z" fill="currentColor" fill-rule="evenodd" fill-opacity=".84"/></svg>