<svg width="24" height="24" viewBox="0 0 24 24" xmlns="http://www.w3.org/2000/svg" xmlns:xlink="http://www.w3.org/1999/xlink"><title>Icon/Flag/AU</title><defs><rect id="a" x="2" y="4.5" width="20" height="15" rx="1"/></defs><g fill="none" fill-rule="evenodd"><mask id="b" fill="#fff"><use xlink:href="#a"/></mask><g mask="url(#b)"><path fill="#00008B" fill-rule="nonzero" d="M2 4.5h20v15H2z"/><path d="M11.37 16.77l-1.37.11.2 1.36-.95-.99-.94 1 .19-1.37-1.37-.11 1.18-.7-.76-1.14 1.28.48.42-1.3.42 1.3 1.28-.48-.76 1.14m7.02 1.95l-.34-.5.56.21.18-.56.18.56.56-.2-.33.49.51.3-.59.05.08.6-.4-.44-.42.43.08-.59-.59-.05m.51-9.12l-.33-.5.56.22.18-.57.18.57.56-.21-.33.49.51.3-.59.06.08.59-.4-.43-.42.42.08-.58-.59-.05m-2.79 3.27l-.33-.5.56.22.18-.57.18.57.56-.21-.33.5.51.3-.6.05.1.59-.42-.44-.4.44.07-.6-.6-.04m6.77-1.19l-.34-.5.56.22.18-.57.18.57.56-.21-.33.49.51.3-.6.06.09.58-.4-.43-.42.43.08-.58-.6-.06m-.68 2.3l-.32.2.09-.37-.3-.24.38-.03.15-.35.14.35.38.03-.29.24.1.37" fill="#FFF"/><path fill="#00008B" fill-rule="nonzero" d="M2 4.5h10V12H2z"/><path fill="#FFF" fill-rule="nonzero" d="M3.17 4.5l3.81 2.83 3.8-2.83H12v.97l-3.75 2.8L12 11.05V12h-1.25L7 9.2 3.27 12H2v-.94l3.73-2.78L2 5.5v-1z"/><path d="M8.63 8.9L12 11.36V12L7.77 8.9h.86zm-2.88.3l.1.55-3 2.25H2l3.75-2.8zM12 4.5v.05L8.1 7.48l.04-.68 3.08-2.3H12zm-10 0l3.73 2.75H4.8L2 5.15V4.5z" fill="red" fill-rule="nonzero"/><path d="M5.77 4.5V12h2.5V4.5h-2.5zM2 7v2.5h10V7H2z" fill="#FFF" fill-rule="nonzero"/><path d="M2 7.52v1.5h10v-1.5H2zM6.27 4.5V12h1.5V4.5h-1.5z" fill="red" fill-rule="nonzero"/></g></g></svg>