<svg width="24" height="24" viewBox="0 0 24 24" xmlns="http://www.w3.org/2000/svg"><title>Icon/Social/Twitter</title><path d="M8.29 20.13c7.55 0 11.67-6.26 11.67-11.68v-.53c.8-.58 1.49-1.3 2.04-2.12-.75.33-1.54.55-2.36.64a4.12 4.12 0 001.8-2.27c-.8.48-1.68.82-2.6 1a4.1 4.1 0 00-7 3.74A11.65 11.65 0 013.4 4.62a4.1 4.1 0 001.27 5.48c-.65-.02-1.29-.2-1.86-.51v.05a4.1 4.1 0 003.3 4.02 4.1 4.1 0 01-1.86.07 4.1 4.1 0 003.83 2.85A8.23 8.23 0 012 18.28a11.62 11.62 0 006.29 1.84" fill="currentColor" fill-rule="evenodd"/></svg>