<svg width="24" height="24" viewBox="0 0 24 24" xmlns="http://www.w3.org/2000/svg"><title>Icon/Ecom/Accounting Invoice Mail</title><path d="M17 2c.99 0 1.8.76 1.87 1.73v7.71l.48-.38c.34-.26.79-.34 1.19-.2l.13.06c.43.2.7.64.7 1.12v8.09c0 1.03-.83 1.87-1.87 1.87h-15a1.88 1.88 0 01-1.88-1.87v-8.09a1.25 1.25 0 012.03-.98l.47.38V3.88c0-1 .77-1.8 1.73-1.87L7 2h10zm3.13 10.04l-6.2 4.92a3.13 3.13 0 01-3.86 0l-6.2-4.92v8.09c0 .34.28.62.63.62h15c.35 0 .63-.28.63-.62v-8.09zM17 3.25H7a.63.63 0 00-.62.53v8.65l4.46 3.54c.64.5 1.51.54 2.18.1l.14-.1 4.46-3.54V3.88a.63.63 0 00-.53-.62L17 3.25zm-1.25 1.88a.62.62 0 110 1.25c-.82 0-1.51.52-1.77 1.24h1.77a.62.62 0 01.1 1.25h-1.87c.24.69.87 1.2 1.62 1.25h.15a.62.62 0 110 1.26 3.13 3.13 0 01-3.06-2.5H12a.62.62 0 01-.1-1.25H12.7a3.13 3.13 0 013.06-2.5zm-6.25 5a.62.62 0 01.1 1.24H8.24a.62.62 0 01-.1-1.24H9.5zm0-2.5a.62.62 0 01.1 1.24H8.24a.62.62 0 01-.1-1.24H9.5zm0-2.5a.62.62 0 01.1 1.24H8.24a.62.62 0 01-.1-1.24H9.5z" fill="currentColor" fill-rule="evenodd" fill-opacity=".84"/></svg>