<svg width="24" height="24" viewBox="0 0 24 24" xmlns="http://www.w3.org/2000/svg"><title>Icon/Essential/Delete</title><path d="M13.88 3.88c1.03 0 1.87.83 1.87 1.87v.63h4.38a.62.62 0 01.09 1.24H18.25v10.63c0 .99-.76 1.8-1.73 1.87H7.63a1.88 1.88 0 01-1.88-1.87V7.62H3.87a.62.62 0 01-.09-1.24h4.47v-.63c0-.99.76-1.8 1.73-1.87h.14zM17 7.63H7v10.62c0 .31.23.57.53.62h8.85c.34 0 .62-.27.62-.62V7.62zm-6.88 2.5c.32 0 .58.23.62.53l.01.09v5a.62.62 0 01-1.24.1l-.01-.1v-5c0-.35.28-.63.63-.63zm3.76 0c.3 0 .57.23.61.53l.01.09v5a.62.62 0 01-1.24.1l-.01-.1v-5c0-.35.28-.63.63-.63zm0-5h-3.76a.62.62 0 00-.62.62v.63h5v-.63a.63.63 0 00-.53-.62h-.1z" fill="#000" fill-rule="evenodd" fill-opacity=".84"/></svg>