<svg width="24" height="24" viewBox="0 0 24 24" xmlns="http://www.w3.org/2000/svg"><title>Icon/Communication/Email</title><path d="M21.38 5.13c.3 0 .57.23.61.53l.01.09v12.5c0 .31-.23.57-.53.62H2.62a.63.63 0 01-.61-.53L2 18.25V5.75c0-.31.23-.57.53-.62h18.85zm-.63 2.03l-4.68 3.22 2.6 2.41a.63.63 0 01-.76.98l-.08-.06-2.81-2.6-1.53 1.05c-.84.58-1.95.62-2.82.1l-.16-.1-1.53-1.05-2.8 2.6a.63.63 0 01-.92-.84l.07-.08 2.6-2.4-4.68-3.24v10.47h17.5V7.16zm-1.07-.79H4.32l6.9 4.76c.43.3.99.32 1.44.08l.12-.08 6.9-4.76z" fill="currentColor" fill-rule="evenodd"/></svg>