<svg width="24" height="24" viewBox="0 0 24 24" xmlns="http://www.w3.org/2000/svg"><title>Icon/Essential/Alarm Bell</title><path d="M13.85 19.53c.33.1.52.44.42.77a2.36 2.36 0 01-4.54 0 .62.62 0 111.2-.35 1.11 1.11 0 002.1.11l.04-.11c.1-.33.45-.52.78-.42zM12 2c.31 0 .57.23.62.53V3.9a6.88 6.88 0 016.26 6.85c0 2.3.19 3.99.5 5.16.12.42.24.74.37.98l.08.15.03.05.05.06.06.06a.63.63 0 01-.47 1.04h-15a.63.63 0 01-.5-1.01.72.72 0 00.04-.04l.07-.13.1-.18c0-.04.03-.07.04-.11l.1-.27.18-.52c.37-1.26.6-2.99.6-5.24v-.24a6.88 6.88 0 016.24-6.6V2.61c0-.34.28-.62.63-.62zm0 3.13a5.62 5.62 0 00-5.63 5.62c0 2.37-.24 4.21-.65 5.6l-.2.63-.01.02h12.9l-.05-.13c-.43-1.15-.7-3-.73-5.74v-.38c0-3.1-2.52-5.63-5.63-5.63z" fill="currentColor" fill-rule="evenodd" fill-opacity=".84"/></svg>