<svg width="24" height="24" viewBox="0 0 24 24" xmlns="http://www.w3.org/2000/svg"><title>Icon/Location/Pin Red</title><g fill="none" fill-rule="evenodd"><path d="M12 2a6.67 6.67 0 00-6.67 6.67c0 2.92 4.17 10.02 5.96 12.93a.83.83 0 001.42 0c1.79-2.91 5.96-10 5.96-12.93A6.67 6.67 0 0012 2z" fill="#Af0E0E"/><path d="M12 11a2.5 2.5 0 110-5 2.5 2.5 0 010 5z" fill-opacity=".84" fill="#FFF"/><path d="M12 2a6.67 6.67 0 016.67 6.67c0 2.92-4.17 10.02-5.96 12.93a.83.83 0 01-1.42 0l-.45-.74c-1.96-3.24-5.5-9.5-5.5-12.2A6.67 6.67 0 0112 2zm0 1a5.66 5.66 0 00-5.67 5.67c0 2.6 3.5 8.57 5.36 11.67l.31.5c1.8-2.92 5.67-9.43 5.67-12.17A5.66 5.66 0 0012 3z" fill-opacity=".84" fill="#FFF"/></g></svg>