<svg width="24" height="24" viewBox="0 0 24 24" xmlns="http://www.w3.org/2000/svg"><title>Icon/Essential/Home</title><path d="M18.88 13c.31 0 .57.23.62.53v6.97c0 .3-.23.57-.53.61l-.1.01h-5a.63.63 0 01-.61-.53v-5.1a.63.63 0 00-.54-.61l-.1-.01h-1.24a.63.63 0 00-.62.53v5.1c0 .3-.24.57-.54.61l-.1.01h-5a.63.63 0 01-.61-.53v-6.97a.62.62 0 011.24-.1v6.35H9.5v-4.38c0-.98.76-1.79 1.73-1.86l.15-.01h1.25c.98 0 1.8.76 1.87 1.73v4.52h3.75v-6.25c0-.31.23-.57.54-.62h.09zM12 2.88c.44 0 .87.15 1.2.44l.13.1 8.49 8.5a.62.62 0 01-.8.95l-.08-.07-8.5-8.49a.62.62 0 00-.8-.06l-.08.06-8.5 8.5a.62.62 0 01-.95-.8l.08-.1 8.49-8.48c.35-.35.83-.55 1.32-.55z" fill="currentColor" fill-rule="evenodd"/></svg>