<svg width="24" height="24" viewBox="0 0 24 24" xmlns="http://www.w3.org/2000/svg"><title>Icon/Essential/Alert Triangle</title><path d="M12 2c.81 0 1.55.46 1.91 1.2l7.9 16.07A1.9 1.9 0 0120.1 22H3.89a1.9 1.9 0 01-1.7-2.73L10.1 3.2C10.45 2.46 11.19 2 12 2zm0 1.25c-.34 0-.64.2-.79.5l-7.9 16.07a.64.64 0 00.58.93h16.22a.64.64 0 00.57-.93L12.8 3.74a.88.88 0 00-.79-.49zM12 17h.1a.94.94 0 11-.2 0h.1zm0-8.75c.31 0 .57.23.62.53v6.34a.62.62 0 01-1.24.1V8.88c0-.35.27-.63.62-.63z" fill="currentColor" fill-rule="evenodd" fill-opacity=".84"/></svg>