<svg width="24" height="24" viewBox="0 0 24 24" xmlns="http://www.w3.org/2000/svg"><title>Icon/Essential/Lock-1</title><path d="M12 2a5 5 0 015 4.78V9.5h.38c1.12 0 2.04.87 2.11 1.97l.01.15v8.26c0 1.17-.95 2.12-2.13 2.12H6.63a2.12 2.12 0 01-2.12-2.13v-8.25c0-1.17.95-2.12 2.13-2.12H7V7a5 5 0 015-5zm5.38 8.75H6.63c-.49 0-.88.4-.88.88v8.24c0 .49.4.88.88.88h10.75c.48 0 .87-.4.87-.88v-8.25c0-.48-.4-.87-.88-.87zM12 13.88c.31 0 .57.23.62.53V17a.62.62 0 01-1.24.1v-2.6c0-.35.27-.63.62-.63zm0-10.63c-2 0-3.64 1.57-3.74 3.55l-.01.2v2.5h7.5V7A3.75 3.75 0 0012 3.25z" fill="currentColor" fill-rule="evenodd" fill-opacity=".84"/></svg>