<svg width="24" height="24" viewBox="0 0 24 24" xmlns="http://www.w3.org/2000/svg"><title>Icon/SBU/ZRD/Logistics</title><path d="M11.13 5.65c-.04.07-.08.22-.12.45a7.5 7.5 0 011.89-.01 5.53 5.53 0 001.94 6.6l-.05.19-.26 1.07a4.82 4.82 0 01-.63 1.62c-.07.08-.02.2.15.36.02.02.08.04.16.07l.17.03c.07 0 .13-.03.18-.09.3-.31.63-1.26 1-2.84a5.33 5.33 0 003.6.38c.41-.1.8-.25 1.18-.45.27.93.41 1.9.44 2.87h.51a.71.71 0 01.7.72v1.3a.72.72 0 01-.35.62c-.1.08-.22.1-.35.1h-2.4a2.16 2.16 0 01-1.14 1.23c-.27.12-.54.18-.83.18H7.08a2.06 2.06 0 01-1.51-.67c-.2-.21-.35-.45-.45-.73H2.7a.72.72 0 01-.7-.72l-.01-1.31a.71.71 0 01.7-.72h.52c.03-1.13.22-2.21.56-3.26.33-1.02.79-1.95 1.37-2.8A9.44 9.44 0 017.2 7.7a7.22 7.22 0 01-.13-.9c0-.04.18-.12.52-.24a26.13 26.13 0 012.56-.72c.47-.11.8-.17 1-.18zm-3.4 2.67c-.04 0-.1.03-.16.05a.62.62 0 00-.18.1c-.05.05-.07.1-.06.14a74.03 74.03 0 001.02 5.18c.3 1.17.58 1.89.83 2.15.05.06.1.09.18.09l.19-.02c.1-.02.16-.03.18-.05a.87.87 0 00.15-.18c.04-.08.04-.14 0-.18a4.9 4.9 0 01-.63-1.62l-.27-1.08a57.35 57.35 0 01-.82-4.37c0-.04-.04-.08-.09-.12a.52.52 0 00-.34-.09zm10.14-4.37a3.97 3.97 0 012.92 1.23A4.22 4.22 0 0122 8.17a4.2 4.2 0 01-4.13 4.21 4.04 4.04 0 01-2.92-1.24 4.24 4.24 0 012.92-7.19zm0 .5a3.55 3.55 0 00-2.57 1.09 3.68 3.68 0 00-1.06 2.62 3.74 3.74 0 002.22 3.42 3.47 3.47 0 002.83-.01 3.65 3.65 0 001.93-1.97 3.73 3.73 0 000-2.89 3.67 3.67 0 00-3.35-2.26zm-.2.5l.9 1.24h-.63v3.25l.6-.62a.26.26 0 01.2-.09h.74v-.71l1.22.93-1.22.93V9.3h-.63l-.91.94v.85c0 .08-.03.14-.08.2a.26.26 0 01-.2.08.27.27 0 01-.2-.08.28.28 0 01-.08-.2V9.66L15.75 8a.27.27 0 01-.08-.2v-.51h-.63l.91-1.26.9 1.26h-.62v.39l1.15 1.18V6.19h-.63l.91-1.25z" fill="currentColor" fill-rule="evenodd" fill-opacity=".84"/></svg>