<svg width="24" height="24" viewBox="0 0 24 24" xmlns="http://www.w3.org/2000/svg"><title>Icon/SBU/New/ZBM</title><path d="M7 13c1.64 0 3 1.36 3 3s-1.35 3-3 3c-1.64 0-3-1.36-3-3s1.36-3 3-3zm10 0c1.64 0 3 1.35 3 3s-1.35 3-3 3c-1.64 0-3-1.36-3-3s1.36-3 3-3zM7 14.5a1.5 1.5 0 100 3 1.5 1.5 0 000-3zm10 0a1.5 1.5 0 100 3 1.5 1.5 0 000-3zM20.5 5a.5.5 0 110 1h-3.84a1 1 0 00-.92.6l-2.13 6.08a2 2 0 00-.11.66v2.32c0 .74-.6 1.34-1.34 1.34-.79 0-1.46-.54-1.63-1.31l-.47-2a1 1 0 00-.77-.77L2.8 11.5A1 1 0 012 10.5V8a1 1 0 011-1h10.95l.77-1.46A1 1 0 0115.6 5h4.89zm0 1.5c.28 0 .5.23.5.5v.5a.5.5 0 01-.5.5h-2a.5.5 0 100 1h2c.28 0 .5.22.5.5v1.09c0 .26.1.52.3.7l.4.42a1 1 0 01.3.7v3.09a.5.5 0 01-.5.5h-1a3.48 3.48 0 00-5.78-2.65.4.4 0 01-.68-.38L16.14 7c.1-.3.38-.5.7-.5h3.66zM12.75 10h-6.5a.25.25 0 00-.06.5h6.56a.25.25 0 100-.5zm0-1.5h-8.5a.25.25 0 00-.06.5h8.56a.25.25 0 100-.5z" fill="currentColor" fill-rule="evenodd" fill-opacity=".84"/></svg>