<svg width="24" height="24" viewBox="0 0 24 24" xmlns="http://www.w3.org/2000/svg"><title>Icon/Social/Instagram</title><path d="M13.25 2c1.61 0 2 .02 2.87.06 1.07.05 1.8.22 2.43.46.66.26 1.22.6 1.77 1.16.56.55.9 1.11 1.16 1.77.24.64.41 1.36.46 2.43a55 55 0 01.06 3.1v2.05a55 55 0 01-.06 3.1 7.34 7.34 0 01-.46 2.42 4.9 4.9 0 01-1.16 1.77 4.9 4.9 0 01-1.77 1.16c-.64.24-1.36.41-2.43.46a55 55 0 01-3.1.06h-2.05a55 55 0 01-3.1-.06 7.34 7.34 0 01-2.42-.46 4.9 4.9 0 01-1.77-1.16 4.9 4.9 0 01-1.16-1.77 7.34 7.34 0 01-.46-2.43A52.1 52.1 0 012 13.25v-2.5c0-1.61.02-2 .06-2.87.05-1.07.22-1.8.46-2.43a4.9 4.9 0 011.16-1.77 4.9 4.9 0 011.77-1.16 7.34 7.34 0 012.43-.46A52.1 52.1 0 0110.75 2zm-.2 1.8h-2.1c-1.73 0-2.1.02-3 .06-.97.04-1.5.2-1.85.34-.47.19-.8.4-1.15.75A3.1 3.1 0 004.2 6.1c-.13.35-.3.88-.34 1.86-.04.9-.05 1.26-.06 3v2.08c0 1.74.02 2.1.06 3 .04.98.2 1.5.34 1.86.19.46.4.8.75 1.15.35.35.68.56 1.15.75.35.13.88.3 1.86.34.9.04 1.26.05 3 .06h2.08c1.21 0 1.75-.01 2.28-.03h.2l.52-.03c.98-.04 1.5-.2 1.86-.34.46-.19.8-.4 1.15-.75.35-.35.56-.69.75-1.15.13-.35.3-.88.34-1.86l.02-.53.01-.2c.02-.52.03-1.06.03-2.27v-.48V11.7v-.75c0-1.06-.01-1.6-.02-2.08l-.01-.2-.03-.72c-.04-.98-.2-1.5-.34-1.86a3.1 3.1 0 00-.75-1.15 3.1 3.1 0 00-1.15-.75c-.35-.13-.88-.3-1.86-.34-.9-.04-1.26-.05-3-.06zM12 6.86a5.14 5.14 0 110 10.27 5.14 5.14 0 010-10.27zm0 1.8a3.33 3.33 0 100 6.67 3.33 3.33 0 000-6.66zm5.34-3.2a1.2 1.2 0 110 2.4 1.2 1.2 0 010-2.4z" fill="currentColor" fill-rule="evenodd"/></svg>