<svg width="24" height="24" viewBox="0 0 24 24" xmlns="http://www.w3.org/2000/svg"><title>Icon/SBU/ZBM/Used</title><path d="M7.97 12.91a3.08 3.08 0 013.1 3.1 3.05 3.05 0 01-.91 2.18 3.09 3.09 0 11-2.19-5.28zm9.73 0a3.09 3.09 0 11-.01 6.17 3.09 3.09 0 01.01-6.17zm-6.26.8l2.76.97v2.9h-1.96v-.75h-.8a3.62 3.62 0 00-.46-2.68l.46-.45zm6.22.9c-.25 0-.48.06-.7.2a1.41 1.41 0 00-.7 1.2 1.45 1.45 0 00.7 1.2 1.35 1.35 0 001.4 0c.21-.12.38-.3.5-.5a1.36 1.36 0 000-1.4 1.42 1.42 0 00-1.2-.7zm-9.7 0c-.24 0-.47.06-.69.2a1.42 1.42 0 00-.7 1.2 1.4 1.4 0 00.68 1.2 1.39 1.39 0 001.92-.5 1.32 1.32 0 000-1.4c-.12-.21-.3-.38-.5-.5-.22-.14-.45-.2-.7-.2zm11.97-6.75l.08.46h-2.16v1.88h.53v-.42c0-.1.01-.18.04-.25a.46.46 0 01.12-.2c.03-.07.1-.11.22-.11h2.38c.05 0 .1.01.14.04l.09.07c.05.05.08.12.11.21l.03.24v1.25H22v5.42h-.8v-2.07a4.04 4.04 0 00-2.05-1.9 3.87 3.87 0 00-3.86.55v-1.96l1.2-3.2h3.44zm1.16-1.58v.9h-5.01l-2.52 6.72-6.16-2.21a4.33 4.33 0 001.36-1.34h5.05l.38-1.02H9.24c.1-.31.17-.65.2-1.02h4.98l.75-2.03h5.92zm-7.65 5.01H9.4l3.55 1.28.49-1.28zM5.52 4.93a3 3 0 011.03.35l-.46.46a2.51 2.51 0 00-1.64-.14 2.49 2.49 0 00-1.76 3 2.48 2.48 0 002.96 1.78 2.44 2.44 0 001.82-1.83h-.39l.7-1.28.76 1.24-.43.02a3.04 3.04 0 01-3.47 2.5 3.01 3.01 0 01-2.03-1.2A3.07 3.07 0 014.31 5c.4-.1.8-.13 1.21-.07zm15.54 4.7h-2.3v.53h1.54l.16.87h.6v-1.4zm-3.77-1.28h-.34l-.72 1.84h1.06V8.35zm-9.9-2.66l.43.44-3.08 3.08-1.4-1.38.45-.44.95.95 2.64-2.65z" fill="currentColor" fill-rule="evenodd" fill-opacity=".84"/></svg>