<svg width="24" height="24" viewBox="0 0 24 24" xmlns="http://www.w3.org/2000/svg"><title>Icon/Essential/Avatar Remove</title><path d="M16.38 10.75a5.62 5.62 0 110 11.25 5.62 5.62 0 010-11.25zm0 1.25a4.37 4.37 0 100 8.75 4.37 4.37 0 000-8.75zm-1.52 1.98l.08.08 1.43 1.43 1.44-1.43a.62.62 0 01.95.8l-.07.08-1.43 1.43 1.43 1.44a.62.62 0 01-.8.95l-.08-.07-1.44-1.43-1.43 1.43a.62.62 0 01-.95-.8l.07-.08 1.43-1.44-1.43-1.43a.62.62 0 01.8-.96zm-4.16-3.35a.63.63 0 01-.49 1.15 5 5 0 00-6.96 4.6.63.63 0 01-1.25 0 6.25 6.25 0 018.7-5.75zM8.25 2a4.06 4.06 0 11-3.52 2.03L4.74 4a4.06 4.06 0 013.51-2zM5.52 5.37v.03a2.82 2.82 0 105.51 1.07 6.3 6.3 0 01-5.5-1.1zm2.73-2.12c-.8 0-1.53.34-2.04.88l-.1.1a5.08 5.08 0 004.82.97 2.81 2.81 0 00-2.68-1.95z" fill="currentColor" fill-rule="evenodd" fill-opacity=".84"/></svg>