<svg width="24" height="24" viewBox="0 0 24 24" xmlns="http://www.w3.org/2000/svg" xmlns:xlink="http://www.w3.org/1999/xlink"><title>Icon/Social/Kununu</title><defs><path d="M15.48 18.33l-.05 3.16c0 .28-.23.51-.52.51h-3.09a.51.51 0 01-.51-.5v-3.17h-.01v-1.02c0-1.1-.92-1.99-2.04-1.99H8.17c-1.12 0-2.03.9-2.03 2h-.02v4.17c0 .28-.23.51-.52.51H2.51a.51.51 0 01-.51-.5V2.68c0-.28.23-.5.51-.5h3.1c.28 0 .5.22.5.5v8.87a6.32 6.32 0 012.06-.34h1.05v-.01c1.12 0 2.03-.9 2.03-2l.07-1.02a.51.51 0 01.5-.42h3.09c.26 0 .47.19.5.42h.02v1.03a6 6 0 01-1.55 4.02c.99 1.08 1.6 2.5 1.6 4.07v1.02zm3.54-11.9l-.76.75a1 1 0 01-1.41 0l-.13-.12a.96.96 0 01.01-1.38l.7-.7.05-.04c.1-.1.27-.1.37 0l.1.09c.1.1.11.27 0 .37l-.75.74a.32.32 0 000 .45l.13.12c.12.13.33.13.46 0l.76-.74c.1-.1.27-.1.37 0l.1.1c.1.1.1.26 0 .36zm0-3.04l-.1.1c-.1.1-.27.1-.37 0l-.76-.74a.33.33 0 00-.46 0l-.12.12a.32.32 0 000 .46l.75.74c.1.1.1.26 0 .36l-.1.1c-.1.1-.27.1-.37 0l-.76-.74c-.39-.38-.39-1 0-1.38l.12-.13a1 1 0 011.41.01l.71.7.05.04c.1.1.1.26 0 .36zm2.68 3.66l-.12.13a1 1 0 01-1.4 0l-.72-.7-.04-.05a.25.25 0 010-.36l.1-.1c.1-.1.26-.1.36 0l.76.74c.13.12.34.12.46 0l.13-.12a.32.32 0 000-.46l-.76-.74a.25.25 0 01.01-.36l.1-.1c.1-.1.26-.1.36 0l.76.74c.39.38.4 1 0 1.38zm0-3.25l-.7.69-.05.04c-.1.1-.27.1-.37 0l-.1-.1a.26.26 0 010-.36l.75-.74a.32.32 0 000-.45l-.12-.12a.34.34 0 00-.46 0l-.76.74c-.1.1-.27.1-.37 0l-.1-.1a.25.25 0 010-.36l.76-.75a1.01 1.01 0 011.4 0l.13.12c.39.39.39 1 0 1.39z" id="a"/></defs><use fill-opacity=".84" fill="#000" xlink:href="#a" fill-rule="evenodd"/></svg>