<!-- Generated by IcoMoon.io -->
<svg version="1.1" xmlns="http://www.w3.org/2000/svg" width="32" height="32" viewBox="0 0 32 32">
<title>zepicons-zoom-in</title>
<path d="M20.667 18.667l6.667 6.667-2 2-6.667-6.667v-1.053l-0.36-0.373c-1.52 1.307-3.493 2.093-5.64 2.093-4.786 0-8.667-3.88-8.667-8.667s3.88-8.667 8.667-8.667c2.299 0 4.503 0.913 6.128 2.538s2.538 3.83 2.538 6.128c0 2.147-0.787 4.12-2.093 5.64l0.373 0.36h1.053zM12.667 18.667c3.333 0 6-2.667 6-6s-2.667-6-6-6c-3.333 0-6 2.667-6 6s2.667 6 6 6v0zM16 13.333h-2.667v2.667h-1.333v-2.667h-2.667v-1.333h2.667v-2.667h1.333v2.667h2.667v1.333z"></path>
</svg>
