<!-- Generated by IcoMoon.io -->
<svg version="1.1" xmlns="http://www.w3.org/2000/svg" width="32" height="32" viewBox="0 0 32 32">
<title>zepicons-user-edit</title>
<path d="M27.6 17.8l-1.333 1.333-2.733-2.733 1.333-1.333c0.28-0.28 0.747-0.28 1.027 0l1.707 1.707c0.28 0.28 0.28 0.747 0 1.027v0zM14.667 25.253l8.080-8.080 2.733 2.733-8.067 8.093h-2.747v-2.747zM14.667 18.667c-5.893 0-10.667 2.387-10.667 5.333v2.667h8v-2.52l5.333-5.333c-0.88-0.107-1.773-0.147-2.667-0.147v0zM14.667 5.333c-2.946 0-5.333 2.388-5.333 5.333s2.388 5.333 5.333 5.333c2.946 0 5.333-2.388 5.333-5.333s-2.388-5.333-5.333-5.333z"></path>
</svg>
