<!-- Generated by IcoMoon.io -->
<svg version="1.1" xmlns="http://www.w3.org/2000/svg" width="32" height="32" viewBox="0 0 32 32">
<title>zepicons-cat-used</title>
<path d="M28.924 13.227v-0.050h-3.155v0.697h2.125l0.208 1.145h0.822v-1.792zM23.754 13.931v-2.431h-0.467l-0.985 2.431h1.452zM29.554 15.033h0.673v7.144h-1.096v-2.73c-0.881-1.692-2.689-2.878-4.814-2.878-1.245 0-2.378 0.397-3.311 1.094v-2.581l1.659-4.223h4.712l0.104 0.599h-2.948v2.481h0.726v-0.547c0-0.25 0.052-0.449 0.207-0.598 0.052-0.1 0.155-0.15 0.311-0.15h3.26c0.155 0 0.259 0.099 0.311 0.15 0.155 0.149 0.208 0.398 0.208 0.598v1.641zM17.799 17.059l0.674-1.692h-5.541l4.867 1.692zM10.885 12.786c0.159-0.424 0.257-0.871 0.31-1.336h8.619l1.037-2.68h8.127v1.194h-6.882l-3.467 8.844-9.763-3.367c0.505-0.364 0.948-0.806 1.312-1.312h8.814l0.518-1.343h-8.624zM10.962 23.415c1.037 0 1.919-0.846 1.919-1.841 0-0.996-0.882-1.84-1.919-1.84s-1.918 0.844-1.918 1.84c0.007 1.003 0.836 1.841 1.918 1.841zM10.962 17.506c2.325 0 4.245 1.841 4.245 4.073 0 2.233-1.911 4.073-4.245 4.073-2.325 0-4.245-1.84-4.245-4.073 0-2.232 1.919-4.073 4.245-4.073zM15.725 18.545l3.777 1.293v3.825h-2.688v-0.995h-1.090c0.052-0.299 0.104-0.697 0.104-1.046 0-0.944-0.259-1.791-0.726-2.481l0.622-0.597zM24.265 23.415c1.037 0 1.918-0.846 1.918-1.841 0-0.996-0.881-1.84-1.918-1.84s-1.919 0.844-1.919 1.84c0.008 1.003 0.889 1.841 1.919 1.841zM24.317 17.506c2.325 0 4.245 1.835 4.245 4.073s-1.911 4.073-4.245 4.073c-2.327 0-4.245-1.84-4.245-4.073 0-2.232 1.918-4.073 4.245-4.073zM5.023 11.284l3.574-3.552 0.582 0.589-4.156 4.139-1.87-1.864 0.588-0.588 1.282 1.276zM1.377 10.212c0.299-2.062 2.078-3.546 4.112-3.546 0.198 0.001 0.397 0.013 0.598 0.044 0.501 0.072 0.967 0.232 1.382 0.464l-0.619 0.616c-0.277-0.124-0.575-0.217-0.888-0.261-1.818-0.261-3.499 0.986-3.77 2.799-0.269 1.811 0.99 3.493 2.809 3.754 1.718 0.246 3.318-0.862 3.712-2.515l-0.523 0.014 0.924-1.723 1.032 1.658-0.566 0.023c-0.4 2.189-2.46 3.688-4.688 3.362-2.27-0.325-3.844-2.428-3.515-4.688z"></path>
</svg>
