<!-- Generated by IcoMoon.io -->
<svg version="1.1" xmlns="http://www.w3.org/2000/svg" width="32" height="32" viewBox="0 0 32 32">
<title>zepicons-help</title>
<path d="M20.093 15l-1.2 1.227c-0.96 0.96-1.56 1.773-1.56 3.773h-2.667v-0.667c0-1.48 0.6-2.813 1.56-3.773l1.653-1.68c0.493-0.48 0.787-1.147 0.787-1.88 0-1.48-1.2-2.667-2.667-2.667-1.473 0-2.667 1.194-2.667 2.667h-2.667c0-2.946 2.388-5.333 5.333-5.333s5.333 2.388 5.333 5.333c0 1.173-0.48 2.227-1.24 3v0zM17.333 25.333h-2.667v-2.667h2.667v2.667zM16 2.667c-7.364 0-13.333 5.97-13.333 13.333 0 3.536 1.405 6.928 3.905 9.428s5.892 3.905 9.428 3.905c3.536 0 6.928-1.405 9.428-3.905s3.905-5.892 3.905-9.428c0-7.373-6-13.333-13.333-13.333z"></path>
</svg>
