<!-- Generated by IcoMoon.io -->
<svg version="1.1" xmlns="http://www.w3.org/2000/svg" width="32" height="32" viewBox="0 0 32 32">
<title>zepicons-ps-service</title>
<path d="M13.901 25.021l5.211-7.605h-4.676l2.301-4.401h-2.568l-3.557 6.668h5.267l-1.977 5.339zM18.756 9.129c0 3.68 2.941 6.66 6.571 6.66 1.353 0 2.609-0.417 3.663-1.125v11.416h-3.557v-2.135h-1.515v1.937c0 0.6-0.397 1.133-0.86 1.133h-13.304l-2.764-2.8h-2.365c-0.592 0-1.119-0.665-1.119-1.536v-2.537h-0.859v3.737h-1.313v-12.073h1.32v3.737h0.787v-1.536c0-0.871 0.527-1.536 1.119-1.536h2.107v-1.329c0-0.6 0.397-1.135 0.924-1.135h4.668v-1.001h-3.688v-1.331h10.348c-0.105 0.468-0.161 0.953-0.161 1.453zM27.069 8.273l1.139-1.105c0.311 0.617 0.181 1.388-0.336 1.904-0.492 0.488-1.191 0.617-1.785 0.385l-2.356 2.341c-0.104 0.103-0.26 0.103-0.363 0l-0.596-0.593c-0.129-0.103-0.129-0.283-0.025-0.359l2.356-2.341c-0.233-0.592-0.104-1.285 0.388-1.775 0.517-0.515 1.295-0.617 1.916-0.335l-1.113 1.105 0.776 0.772zM25.501 13.309c2.363 0 4.285-1.909 4.285-4.255 0-2.347-1.923-4.256-4.285-4.256s-4.285 1.909-4.285 4.256c0 2.345 1.923 4.255 4.285 4.255zM25.501 4c2.804 0 5.085 2.267 5.085 5.055 0 2.787-2.281 5.055-5.085 5.055s-5.084-2.268-5.084-5.055c0-2.788 2.28-5.055 5.084-5.055z"></path>
</svg>
