<svg width="0" height="0" class="hidden">
<defs>

  <symbol xmlns="http://www.w3.org/2000/svg" viewBox="0 0 24 24" id="zepicons-account">
    <path d="M6 17c0-2 4-3.1 6-3.1s6 1.1 6 3.1v1H6v-1zm9-8a3 3 0 1 1-6 0 3 3 0 0 1 6 0zM3 5v14a2 2 0 0 0 2 2h14a2 2 0 0 0 2-2V5a2 2 0 0 0-2-2H5a2 2 0 0 0-2 2z"></path>
  </symbol>
  <symbol xmlns="http://www.w3.org/2000/svg" viewBox="0 0 24 24" id="zepicons-add-cart">
    <path d="M12 9h2V6h3V4h-3V1h-2v3H9v2h3v3zm-4 9a2 2 0 1 0 0 4 2 2 0 0 0 0-4zm10 0a2 2 0 1 0 0 4 2 2 0 0 0 0-4zm-9.83-3.25l.03-.12.9-1.63h7.45c.75 0 1.41-.41 1.75-1.03l3.86-7.01L20.42 4h-.01l-1.1 2-2.76 5H9.53l-.13-.27L7.16 6l-.95-2-.94-2H2v2h2l3.6 7.59-1.35 2.45c-.16.28-.25.61-.25.96a2 2 0 0 0 2 2h12v-2H8.42c-.13 0-.25-.11-.25-.25z"></path>
  </symbol>
  <symbol xmlns="http://www.w3.org/2000/svg" viewBox="0 0 24 24" id="zepicons-add-solution">
    <path d="M10.994 19.074l6.352-3.845 1.642.93L10.994 21 3 16.16l1.642-.931 6.352 3.845zM16.75 5.36v1.89h1.948v.943H16.75v1.89h-.973v-1.89h-1.95V7.25h1.95V5.36h.973zM16.264 3c2.689 0 4.871 2.113 4.871 4.72 0 2.608-2.181 4.722-4.871 4.722-2.69 0-4.871-2.114-4.871-4.721 0-2.608 2.181-4.721 4.87-4.721zm0 8.497v-.001c2.149 0 3.897-1.694 3.897-3.776s-1.748-3.778-3.897-3.778c-2.15 0-3.897 1.697-3.897 3.779s1.748 3.776 3.897 3.776zM10.053 7.72c0 2.45 1.52 4.56 3.694 5.497l-2.753 1.667L3 10.046l7.357-4.177a5.803 5.803 0 0 0-.304 1.852zm6.21 6.018v.001a6.335 6.335 0 0 0 2.596-.558l-7.865 4.76L3 13.105l1.642-.934 6.352 3.846 3.98-2.41c.417.086.848.132 1.29.132z"></path>
  </symbol>
  <symbol xmlns="http://www.w3.org/2000/svg" viewBox="0 0 24 24" id="zepicons-attachment">
    <path d="M15.636 6.545V17a3.636 3.636 0 1 1-7.272 0V5.636a2.273 2.273 0 1 1 4.545 0v9.546a.91.91 0 0 1-1.818 0V6.545H9.727v8.637a2.273 2.273 0 0 0 4.546 0V5.636a3.636 3.636 0 0 0-7.273 0V17a5 5 0 0 0 10 0V6.545h-1.364z"></path>
  </symbol>
  <symbol xmlns="http://www.w3.org/2000/svg" viewBox="0 0 24 24" id="zepicons-average">
    <path fill-rule="evenodd" d="M18.588 9.656c.262.734.412 1.521.412 2.345 0 3.86-3.141 7-7 7-1.57 0-3.011-.53-4.177-1.409L21 4.415l-1.414-1.414-1.984 1.984A8.915 8.915 0 0 0 12 3c-4.963 0-9 4.038-9 9.001 0 1.387.325 2.696.887 3.87l1.526-1.525A6.936 6.936 0 0 1 5 12.001C5 8.141 8.141 5 12 5c1.57 0 3.011.531 4.176 1.411L3 19.587l1.414 1.414L6.4 19.015a8.907 8.907 0 0 0 5.6 1.986c4.963 0 9-4.038 9-9a8.92 8.92 0 0 0-.887-3.87l-1.525 1.525z"></path>
  </symbol>
  <symbol xmlns="http://www.w3.org/2000/svg" viewBox="0 0 24 24" id="zepicons-bell">
    <path d="M21 19v1H3v-1l2-2v-6c0-3.1 2.03-5.83 5-6.71V4a2 2 0 1 1 4 0v.29c2.97.88 5 3.61 5 6.71v6l2 2m-7 2a2 2 0 1 1-4 0"></path>
  </symbol>
  <symbol xmlns="http://www.w3.org/2000/svg" viewBox="0 0 24 24" id="zepicons-bookmark">
    <path fill-rule="evenodd" d="M21 18c-1.1-.35-2.3-.5-3.5-.5-1.339 0-3.135.406-4.5.992v-11.5C14.365 6.406 16.161 6 17.5 6c1.2 0 2.4.15 3.5.5V18zM3 18V6.5C4.1 6.15 5.3 6 6.5 6c1.338 0 3.135.406 4.5.992v11.5c-1.365-.586-3.162-.992-4.5-.992-1.2 0-2.4.15-3.5.5zM21 4.5c-1.11-.35-2.33-.5-3.5-.5-1.95 0-4.05.4-5.5 1.5C10.55 4.4 8.45 4 6.5 4 4.55 4 2.45 4.4 1 5.5v14.65c0 .25.25.5.5.5.1 0 .15-.05.25-.05 1.35-.65 3.3-1.1 4.75-1.1 1.95 0 4.05.4 5.5 1.5 1.35-.85 3.8-1.5 5.5-1.5 1.65 0 3.35.3 4.75 1.05.1.05.15.05.25.05.25 0 .5-.25.5-.5V5.5c-.6-.45-1.25-.75-2-1z"></path>
  </symbol>
  <symbol xmlns="http://www.w3.org/2000/svg" viewBox="0 0 24 24" id="zepicons-br">
    <g fill="none" fill-rule="evenodd">
      <path fill="#229E45" d="M2 2h20v20H2z"></path>
      <path fill="#F8E509" d="M12.211 17.836l8.977-5.828-9.032-5.844-9.011 5.859 9.062 5.813z"></path>
      <path fill="#2B49A3" d="M16.121 12a3.797 3.797 0 1 1-7.59.236 3.797 3.797 0 0 1 7.59-.236z"></path>
      <path fill="#FFFFEF" d="M11.074 14.273l-.117-.07-.121.063.027-.137-.093-.098.132-.015.063-.125.058.129.133.023-.101.094m2.566.781l-.117-.07-.125.062.027-.137-.094-.097.137-.016.063-.125.054.13.133.023-.097.093m-1.079-.894l-.101-.059-.106.05.024-.116-.078-.086.113-.012.055-.105.047.109.117.02-.086.078m2.586-.25l-.102-.059-.101.05.023-.112-.078-.082.113-.016.051-.102.05.106.114.02-.086.077m-2.601-.652l-.118-.07-.12.062.027-.136-.094-.098.133-.016.062-.12.059.124.133.024-.102.093M9.344 11.57l-.117-.07-.118.063.024-.137-.094-.098.137-.015.062-.126.055.13.133.023-.098.094m.395 1.699l-.118-.067-.12.059.027-.133-.094-.101.133-.016.062-.117.059.12.133.028-.102.09m3.93-2.004l-.102-.058-.11.05.024-.117-.078-.09.117-.011.055-.11.05.114.118.02-.09.081m-.195 1.14l-.094-.05-.082.039.016-.094-.063-.066.094-.012.043-.086.039.09.094.016-.07.062m-4.235 1.504l-.078-.047-.082.04.016-.09-.063-.067.094-.008.039-.078.039.078.09.02-.067.062m5.961.45l-.066-.032-.067.028.016-.067-.05-.05.074-.008.035-.06.027.063.074.012-.054.047"></path>
      <path fill="#FFFFEF" d="M9.168 13.418l-.078-.047-.082.039.019-.09-.066-.066.09-.008.043-.078.039.078.09.02-.067.062"></path>
      <path fill="#FFFFEF" d="M9.168 13.418l-.078-.047-.082.04.02-.09-.067-.067.09-.008.043-.078.039.078.09.02-.067.062m1.258.09l-.078-.047-.078.04.015-.09-.062-.067.09-.008.039-.082.039.082.09.02-.067.062m-.144.508l-.078-.047-.078.04.015-.09-.062-.067.09-.012.039-.078.039.078.09.02-.067.062m2.606-.664l-.079-.047-.082.04.016-.09-.062-.067.09-.008.042-.082.04.082.085.016-.066.062m-.746.094l-.078-.047-.082.04.02-.09-.063-.067.09-.008.039-.082.039.082.09.016-.067.062m-2.05-.171l-.048-.028-.05.024.008-.059-.04-.04.059-.007.027-.05.02.054.059.008-.04.039m4.993 1.355l-.079-.043-.082.04.02-.09-.063-.067.09-.011.04-.079.038.079.09.019-.066.063m-.625.171l-.063-.039-.066.04.016-.079-.055-.054.078-.008.031-.067.032.067.078.015-.059.051m.313.07l-.063-.039-.062.036.011-.07-.047-.052.07-.007.032-.063.027.063.07.011-.05.051m.867-.68l-.059-.035-.062.032.016-.067-.047-.05.066-.008.031-.059.028.063.066.011-.05.047m-1.145 1.242l-.078-.043-.078.04.02-.087-.063-.058.086-.012.043-.074.039.078.082.016-.063.054m.016.426l-.07-.039-.07.035.015-.086-.055-.058.078-.012.04-.074.03.078.079.015-.059.055m-.566-.68l-.059-.035-.063.032.016-.07-.047-.048.067-.007.03-.063.028.063.067.011-.051.047m-.527.07l-.06-.035-.062.032.016-.07-.047-.048.067-.007.03-.063.028.063.067.011-.047.047m-.91-.734l-.059-.035-.063.03.016-.066-.047-.05.067-.008.03-.059.028.063.067.012-.051.043m.113 1.699l-.05-.028-.051.028.011-.059-.039-.039.055-.012.027-.05.024.054.058.008-.043.04m-1.375-2.579l-.117-.066-.121.058.027-.133-.093-.101.132-.016.063-.12.059.124.132.024-.101.093"></path>
      <path fill="#FFF" d="M15.871 13.367a3.71 3.71 0 0 0 .172-.59c-2.016-1.773-4.266-2.683-7.11-2.496a3.71 3.71 0 0 0-.25.621 9.102 9.102 0 0 1 7.188 2.461v.004z"></path>
      <path fill="#309E3A" fill-rule="nonzero" d="M14.965 12.367l.07.04a.102.102 0 0 0-.008.07c.004.015.02.035.04.046a.113.113 0 0 0 .062.024c.016 0 .031-.012.039-.024.004-.007.008-.015.004-.027l-.012-.031-.047-.05a.23.23 0 0 1-.054-.09.11.11 0 0 1 .062-.13.113.113 0 0 1 .066-.008.234.234 0 0 1 .156.129.117.117 0 0 1-.019.102l-.07-.043a.094.094 0 0 0 .008-.055c-.004-.011-.02-.027-.04-.039a.085.085 0 0 0-.054-.02.031.031 0 0 0-.023.012.031.031 0 0 0-.004.028c0 .015.02.039.046.066l.06.078a.117.117 0 0 1-.009.125.121.121 0 0 1-.054.043.117.117 0 0 1-.075.008.234.234 0 0 1-.082-.039.18.18 0 0 1-.078-.098.143.143 0 0 1 .016-.117zm-.344-.222l.078.039a.102.102 0 0 0-.008.062c.004.02.02.04.04.05.023.017.042.02.062.017a.043.043 0 0 0 .039-.024.04.04 0 0 0 .004-.023c0-.012-.004-.02-.016-.032l-.047-.05a.234.234 0 0 1-.058-.086.11.11 0 0 1 .012-.094.11.11 0 0 1 .046-.04.117.117 0 0 1 .067-.007c.023 0 .047.012.078.031.039.028.07.055.078.09a.117.117 0 0 1-.012.102l-.074-.043a.063.063 0 0 0 .008-.051.094.094 0 0 0-.04-.04.094.094 0 0 0-.058-.019.031.031 0 0 0-.023.016.031.031 0 0 0 0 .027c0 .012.02.035.047.067.031.027.05.054.062.07.025.04.023.09-.004.129a.125.125 0 0 1-.125.055.238.238 0 0 1-.086-.036.184.184 0 0 1-.082-.093.16.16 0 0 1 .012-.117zm-.422-.118l.219-.351.262.156-.04.063-.187-.118-.05.078.179.11-.039.062-.176-.109-.058.098.195.117-.035.062-.27-.164v-.004zm-.617-.504l.035-.062.156.086-.074.144a.281.281 0 0 1-.187-.023.227.227 0 0 1-.086-.078.176.176 0 0 1-.031-.102.23.23 0 0 1 .03-.11.238.238 0 0 1 .079-.089.164.164 0 0 1 .105-.035c.028 0 .063.012.098.027.039.018.07.049.09.086a.16.16 0 0 1 .012.106l-.082-.024a.086.086 0 0 0-.008-.058.098.098 0 0 0-.047-.043.113.113 0 0 0-.094-.012.186.186 0 0 0-.098.195.101.101 0 0 0 .063.07l.05.016h.052l.023-.047-.086-.047zm-2.687-.664l.062-.414.125.02.031.293.117-.274.122.02-.059.414-.078-.012.047-.324-.13.313-.077-.012-.035-.34-.047.328-.078-.012zm-.418-.05l.039-.414.304.027-.004.07-.226-.02-.008.09.207.02-.004.07-.207-.02-.012.118.23.02-.007.07-.312-.031z"></path>
      <g fill-rule="nonzero">
        <path fill="#309E3A" d="M9.106 10.803c0-.083.019-.166.046-.225l.09-.116.137-.084a.572.572 0 0 1 .21-.025c.127 0 .249.048.336.134.09.083.118.191.118.333 0 .15-.055.258-.137.333a.48.48 0 0 1-.345.117.477.477 0 0 1-.336-.125.395.395 0 0 1-.119-.333v-.009z"></path>
        <path fill="#F7FFFF" d="M9.306 10.803c0 .1.019.184.073.234a.22.22 0 0 0 .182.083.286.286 0 0 0 .2-.075.378.378 0 0 0 .082-.225c0-.108-.018-.183-.073-.233a.254.254 0 0 0-.182-.084c-.09 0-.154.025-.2.075-.054.05-.082.125-.09.225h.008z"></path>
      </g>
      <g fill-rule="nonzero">
        <path fill="#309E3A" d="M9.578 11.27l.01-.892h.45c.12 0 .2.017.25.034.05.016.1.041.12.083.02.042.05.083.05.142 0 .066-.03.116-.07.166a.45.45 0 0 1-.22.084.37.37 0 0 1 .12.066l.12.15.13.167h-.26l-.15-.192a1.385 1.385 0 0 0-.12-.133.165.165 0 0 0-.06-.033.412.412 0 0 0-.1-.017h-.05v.375h-.22z"></path>
        <path fill="#FFF" d="M9.798 10.753h.16a.97.97 0 0 0 .2 0l.05-.041a.086.086 0 0 0 .03-.067c0-.033-.01-.058-.03-.075a.14.14 0 0 0-.08-.033h-.32v.216h-.01z"></path>
      </g>
      <g fill-rule="nonzero">
        <path fill="#309E3A" d="M10.128 10.377l.39.016c.068.001.135.01.2.025a.413.413 0 0 1 .15.084c.047.046.08.1.1.158.02.058.02.125.02.208a.409.409 0 0 1-.17.342.571.571 0 0 1-.15.067h-.2l-.4-.009.06-.891z"></path>
        <path fill="#FFF" d="M10.328 10.535l-.03.583.16.017h.13l.09-.042c.03-.016.04-.041.06-.083l.03-.167-.01-.15c-.02-.041-.03-.066-.06-.083a.21.21 0 0 0-.1-.05 1.144 1.144 0 0 0-.17-.017h-.1v-.008z"></path>
      </g>
      <g fill-rule="nonzero">
        <path fill="#309E3A" d="M12.123 11.614l.228-.867.3.067c.118.025.19.05.227.066.045.025.09.059.11.109a.254.254 0 0 1 .008.183.257.257 0 0 1-.173.192.292.292 0 0 1-.1.025 1.18 1.18 0 0 1-.2-.034l-.127-.025-.09.325-.183-.041z"></path>
        <path fill="#FFF" d="M12.496 10.939l-.063.25.109.016c.072.017.127.025.154.017a.125.125 0 0 0 .11-.083l-.01-.092a.133.133 0 0 0-.073-.058l-.136-.034-.09-.016z"></path>
      </g>
      <g fill-rule="nonzero">
        <path fill="#309E3A" d="M12.502 11.564l.292-.722.358.107c.065.016.127.04.184.072a.265.265 0 0 1 .075.107c.016.043 0 .079-.017.121a.179.179 0 0 1-.108.115.287.287 0 0 1-.192.021l.067.086.05.143.041.171-.2-.057-.058-.193a.932.932 0 0 0-.05-.136.115.115 0 0 0-.033-.042.304.304 0 0 0-.084-.036l-.033-.007-.125.3-.167-.05z"></path>
        <path fill="#FFF" d="M12.836 11.2l.125.035.158.036c.025 0 .042 0 .058-.014l.042-.05v-.072a.102.102 0 0 0-.05-.043l-.125-.035-.133-.043-.075.185z"></path>
      </g>
      <g fill-rule="nonzero">
        <path fill="#309E3A" d="M13.013 11.431a.567.567 0 0 1 .108-.208c.025-.042.067-.067.109-.092a.35.35 0 0 1 .133-.041c.058 0 .125 0 .192.025a.417.417 0 0 1 .266.208c.05.1.059.225.009.358a.467.467 0 0 1-.209.292.417.417 0 0 1-.333.017.417.417 0 0 1-.267-.209.458.458 0 0 1-.008-.35z"></path>
        <path fill="#FFF" d="M13.188 11.481a.37.37 0 0 0 0 .234.262.262 0 0 0 .15.133.235.235 0 0 0 .183-.025c.059-.033.109-.1.142-.2a.395.395 0 0 0 0-.242.225.225 0 0 0-.15-.125.225.225 0 0 0-.192.025c-.058.034-.1.1-.133.2z"></path>
      </g>
      <g fill-rule="nonzero">
        <path fill="#309E3A" d="M13.812 12.067l.377-.633.307.133c.077.04.131.067.154.094a.21.21 0 0 1 .054.1.13.13 0 0 1-.03.113.2.2 0 0 1-.116.1.324.324 0 0 1-.177-.007.23.23 0 0 1 .046.087l.023.14.016.167-.177-.08-.023-.187-.023-.133a.107.107 0 0 0-.031-.04.275.275 0 0 0-.07-.04l-.03-.014-.154.267-.146-.067z"></path>
        <path fill="#FFF" d="M14.173 11.767l.108.047.139.053c.023 0 .038 0 .053-.013.043-.02.067-.059.062-.1a.091.091 0 0 0-.046-.047 1.676 1.676 0 0 0-.1-.053l-.116-.047-.1.16z"></path>
      </g>
      <g fill-rule="nonzero">
        <path fill="#309E3A" d="M15.39 12.705a.42.42 0 0 1 .182-.167.476.476 0 0 1 .145-.058.416.416 0 0 1 .146 0 .413.413 0 0 1 .2.083c.108.061.184.16.209.275a.47.47 0 0 1-.1.342.507.507 0 0 1-.318.217.487.487 0 0 1-.355-.075.419.419 0 0 1-.209-.275.43.43 0 0 1 .091-.342h.01z"></path>
        <path fill="#FFF" d="M15.554 12.797c-.055.083-.082.166-.073.233a.25.25 0 0 0 .118.167.263.263 0 0 0 .2.033.36.36 0 0 0 .21-.158c.063-.084.09-.159.072-.225 0-.067-.045-.117-.11-.167-.063-.05-.135-.05-.208-.033-.073.016-.137.066-.2.15h-.01z"></path>
      </g>
      <path fill="#309E3A" fill-rule="nonzero" d="M11.625 10.945l.066-.297.219.051-.012.051-.156-.039-.015.066.144.036-.012.05-.144-.039-.02.082.164.039-.011.051-.223-.051z"></path>
    </g>
  </symbol>
  <symbol xmlns="http://www.w3.org/2000/svg" viewBox="0 0 24 24" id="zepicons-briefcase">
    <path d="M10 3h4a2 2 0 0 1 2 2v2h4a2 2 0 0 1 2 2v11a2 2 0 0 1-2 2H4a2 2 0 0 1-2-2V9c0-1.11.89-2 2-2h4V5c0-1.11.89-2 2-2zm4 4V5h-4v2h4z"></path>
  </symbol>
  <symbol xmlns="http://www.w3.org/2000/svg" viewBox="0 0 24 24" id="zepicons-calendar-clock">
    <path d="M14 13h1.5v2.82l2.44 1.41-.75 1.3L14 16.69V13zm4-5H4v11h4.67c-.43-.91-.67-1.93-.67-3a7 7 0 0 1 7-7c1.07 0 2.09.24 3 .67V8zM4 21a2 2 0 0 1-2-2V5c0-1.11.89-2 2-2h1V1h2v2h8V1h2v2h1a2 2 0 0 1 2 2v6.1c1.24 1.26 2 2.99 2 4.9a7 7 0 0 1-7 7c-1.91 0-3.64-.76-4.9-2H4zm11-9.85a4.85 4.85 0 1 0 0 9.7 4.85 4.85 0 0 0 0-9.7z"></path>
  </symbol>
  <symbol xmlns="http://www.w3.org/2000/svg" viewBox="0 0 24 24" id="zepicons-calendar-range">
    <path d="M9 11H7v2h2v-2zm4 0h-2v2h2v-2zm4 0h-2v2h2v-2zm2-7h-1V2h-2v2H8V2H6v2H5a2 2 0 0 0-2 2v14a2 2 0 0 0 2 2h14a2 2 0 0 0 2-2V6a2 2 0 0 0-2-2zm0 16H5V9h14v11z"></path>
  </symbol>
  <symbol xmlns="http://www.w3.org/2000/svg" viewBox="0 0 24 24" id="zepicons-camera">
    <path d="M4 5h3l2-2h6l2 2h3a2 2 0 0 1 2 2v12a2 2 0 0 1-2 2H4a2 2 0 0 1-2-2V7a2 2 0 0 1 2-2zm8 3a5 5 0 1 0 0 10 5 5 0 0 0 0-10zm0 2a3 3 0 1 1 0 6 3 3 0 0 1 0-6z"></path>
  </symbol>
  <symbol xmlns="http://www.w3.org/2000/svg" viewBox="0 0 24 24" id="zepicons-cart">
    <path d="M18 18a2 2 0 1 1-2 2c0-1.11.89-2 2-2zM2 2h3.27l.94 2H21a1 1 0 0 1 1 1c0 .17-.05.34-.12.5l-3.58 6.47c-.34.61-1 1.03-1.75 1.03H9.1l-.9 1.63-.03.12c0 .138.112.25.25.25H20v2H8a2 2 0 0 1-2-2c0-.35.09-.68.24-.96l1.36-2.45L4 4H2V2zm6 16a2 2 0 1 1-2 2c0-1.11.89-2 2-2zm9-7l2.78-5H7.14l2.36 5H17z"></path>
  </symbol>
  <symbol xmlns="http://www.w3.org/2000/svg" viewBox="0 0 24 24" id="zepicons-cat-new">
    <path fill="#131516" d="M17.498 9.386V7.32h-.396l-.837 2.066h1.233zm-4.047.17l.44-1.143H2.19v.127l2.946 1.015h8.315zm8.441.754V8.746h-2.681v.592h1.806l.176.972h.7zm-8.882.296H8.302l4.135 1.438.573-1.438zM1 9.344V7.278h13.15L15.03 5h6.906v1.015h-5.848l-2.946 7.515L1 9.344zm21.994 7.05h-.926v-2.32a4.594 4.594 0 0 0-4.091-2.447 4.66 4.66 0 0 0-2.814.93v-2.192l1.41-3.589h4.004l.088.508h-2.506v2.108h.617v-.465c0-.212.044-.38.177-.508.044-.084.132-.127.264-.127h2.77c.132 0 .22.085.264.127.132.127.176.339.176.508v1.395H23v6.072h-.006zm-16.367 1.05c.882 0 1.63-.718 1.63-1.564 0-.846-.748-1.564-1.63-1.564-.88 0-1.63.718-1.63 1.564.006.852.711 1.565 1.63 1.565zm11.306 0c.881 0 1.63-.718 1.63-1.564 0-.846-.749-1.564-1.63-1.564-.881 0-1.63.718-1.63 1.564.006.852.755 1.565 1.63 1.565zm-6.333.212v-.845h-.925c.044-.254.088-.593.088-.889 0-.803-.22-1.522-.617-2.108l.529-.507 3.21 1.1v3.25H11.6zm-4.973 1.692c-1.976 0-3.606-1.565-3.606-3.462 0-1.897 1.63-3.461 3.606-3.461 1.977 0 3.607 1.564 3.607 3.461 0 1.897-1.624 3.462-3.607 3.462zm11.35 0c-1.977 0-3.607-1.565-3.607-3.462 0-1.897 1.63-3.461 3.607-3.461 1.976 0 3.607 1.558 3.607 3.461 0 1.903-1.624 3.462-3.607 3.462z"></path>
  </symbol>
  <symbol xmlns="http://www.w3.org/2000/svg" viewBox="0 0 24 24" id="zepicons-cat-service">
    <path fill-rule="evenodd" d="M5.713 7.119l-1.765-.765-1.942-2.942L3.36 2l2.942 1.942.764 1.765 4.001 4c-.176.236-.353.471-.47.648l-.883.706-4-3.942zm-.53 12.944c.471-.47.471-1.236 0-1.765-.47-.47-1.294-.47-1.764 0-.471.53-.471 1.294 0 1.765.47.47 1.294.47 1.765 0zm14.769-8.767s-5.472.647-6.708 1.883l-7.413 7.649s-1.706 1.47-3.177 0c-1.471-1.471 0-3.119 0-3.119l8.59-6.825c2-1.941 2.589-5.766 3-7.001.412-1.236.824-1.295 2.707-1.706 1.883-.412 3.707.706 3.707.706l-3.236 1.412-.059.882.765 1.765 3.883-1.647s-.824 2.824-2.942 3.824l.883 2.177zm.353 7.826l.353-.354-4.413-4.294-.353.352 4.413 4.296zm-1 1l.352-.353-5.118-4.943-.353.354 5.119 4.941zm-3.413-7.178l5.884 5.648s.765.765-.589 2.118c-1.411 1.354-2.176.588-2.176.588l-6.532-6.236 1.295-1.295c.294-.294 1.118-.588 2.118-.823z"></path>
  </symbol>
  <symbol xmlns="http://www.w3.org/2000/svg" viewBox="0 0 24 24" id="zepicons-cat-used">
    <path fill-rule="evenodd" d="M21.693 9.92v-.037h-2.366v.523h1.594l.156.858h.616V9.92zm-3.877.528V8.625h-.35l-.74 1.823h1.09zm4.35.827h.505v5.358h-.823v-2.048a4.054 4.054 0 0 0-3.61-2.158 4.11 4.11 0 0 0-2.484.82v-1.935L17 8.144h3.533l.078.45H18.4v1.86h.544v-.41c0-.188.038-.337.155-.449.039-.075.116-.112.233-.112h2.445c.116 0 .194.074.233.112.116.112.156.3.156.449v1.23zm-8.817 1.52l.506-1.27H9.699l3.65 1.27zM8.164 9.59c.119-.318.192-.654.232-1.002h6.464l.778-2.01h6.095v.895H16.57l-2.6 6.633-7.322-2.525c.379-.272.71-.604.984-.984h6.61l.39-1.007H8.163zm.057 7.97c.778 0 1.44-.634 1.44-1.38 0-.747-.662-1.38-1.44-1.38-.777 0-1.438.633-1.438 1.38.005.752.627 1.38 1.438 1.38zm0-4.43c1.744 0 3.184 1.38 3.184 3.055 0 1.675-1.434 3.055-3.184 3.055-1.744 0-3.183-1.38-3.183-3.055 0-1.674 1.44-3.055 3.183-3.055zm3.572.779l2.833.97v2.868h-2.015v-.746h-.818c.04-.224.078-.522.078-.784 0-.708-.194-1.343-.544-1.86l.466-.448zM18.2 17.56c.777 0 1.438-.635 1.438-1.381 0-.747-.66-1.38-1.438-1.38-.778 0-1.44.633-1.44 1.38.007.752.668 1.38 1.44 1.38zm.039-4.431c1.744 0 3.183 1.376 3.183 3.055 0 1.679-1.433 3.055-3.183 3.055-1.745 0-3.184-1.38-3.184-3.055 0-1.674 1.439-3.055 3.184-3.055zM3.768 8.463l2.68-2.664.436.441-3.117 3.104-1.402-1.398.44-.44.962.957zm-2.735-.804A3.114 3.114 0 0 1 5.6 5.381l-.464.461a2.493 2.493 0 0 0-3.493 1.904 2.48 2.48 0 0 0 2.107 2.815 2.497 2.497 0 0 0 2.784-1.885l-.393.01.693-1.293.775 1.244-.425.017a3.113 3.113 0 0 1-3.516 2.521A3.105 3.105 0 0 1 1.033 7.66z"></path>
  </symbol>
  <symbol xmlns="http://www.w3.org/2000/svg" viewBox="0 0 24 24" id="zepicons-chat">
    <path d="M17 12V3a1 1 0 0 0-1-1H3a1 1 0 0 0-1 1v14l4-4h10a1 1 0 0 0 1-1zm4-6h-2v9H6v2a1 1 0 0 0 1 1h11l4 4V7a1 1 0 0 0-1-1z"></path>
  </symbol>
  <symbol xmlns="http://www.w3.org/2000/svg" viewBox="0 0 24 24" id="zepicons-check">
    <path d="M21 7L9 19l-5.5-5.5 1.41-1.41L9 16.17 19.59 5.59z"></path>
  </symbol>
  <symbol xmlns="http://www.w3.org/2000/svg" viewBox="0 0 24 24" id="zepicons-chevron-down">
    <path d="M7.41 8.58L12 13.17l4.59-4.59L18 10l-6 6-6-6z"></path>
  </symbol>
  <symbol xmlns="http://www.w3.org/2000/svg" viewBox="0 0 24 24" id="zepicons-chevron-left">
    <path d="M15.41 16.58L10.83 12l4.58-4.59L14 6l-6 6 6 6z"></path>
  </symbol>
  <symbol xmlns="http://www.w3.org/2000/svg" viewBox="0 0 24 24" id="zepicons-chevron-right">
    <path d="M8.59 16.58L13.17 12 8.59 7.41 10 6l6 6-6 6z"></path>
  </symbol>
  <symbol xmlns="http://www.w3.org/2000/svg" viewBox="0 0 24 24" id="zepicons-chevron-up">
    <path d="M7.41 15.41L12 10.83l4.59 4.58L18 14l-6-6-6 6z"></path>
  </symbol>
  <symbol xmlns="http://www.w3.org/2000/svg" viewBox="0 0 24 24" id="zepicons-clock">
    <path d="M12 20a8 8 0 1 0 0-16 8 8 0 0 0 0 16zm0-18a10 10 0 0 1 10 10c0 5.523-4.477 10-10 10-5.53 0-10-4.5-10-10C2 6.477 6.477 2 12 2zm.5 5v5.25l4.5 2.67-.75 1.23L11 13V7h1.5z"></path>
  </symbol>
  <symbol xmlns="http://www.w3.org/2000/svg" viewBox="0 0 24 24" id="zepicons-close">
    <path d="M19 6.41L17.59 5 12 10.59 6.41 5 5 6.41 10.59 12 5 17.59 6.41 19 12 13.41 17.59 19 19 17.59 13.41 12z"></path>
  </symbol>
  <symbol xmlns="http://www.w3.org/2000/svg" viewBox="0 0 24 24" id="zepicons-compare">
    <path fill="#130D15" fill-rule="evenodd" d="M9.872 5L14 9l-4.128 4-1.18-1.143 2.117-2.052H3v-1.61h7.81L8.692 6.143 9.872 5zM11 15l4.128-4 1.18 1.143-2.117 2.05H22v1.612h-7.809l2.117 2.052L15.128 19 11 15z"></path>
  </symbol>
  <symbol xmlns="http://www.w3.org/2000/svg" viewBox="0 0 24 24" id="zepicons-contact-mail">
    <path d="M21 8V7l-3 2-3-2v1l3 2m4-7H2a2 2 0 0 0-2 2v14a2 2 0 0 0 2 2h20a2 2 0 0 0 2-2V5a2 2 0 0 0-2-2M8 6a3 3 0 1 1 0 6 3 3 0 0 1 0-6m6 12H2v-1c0-2 4-3.1 6-3.1s6 1.1 6 3.1m8-5h-8V6h8"></path>
  </symbol>
  <symbol xmlns="http://www.w3.org/2000/svg" viewBox="0 0 24 24" id="zepicons-contacts">
    <path d="M20 0H4v2h16V0zM4 24h16v-2H4v2zM20 4H4a2 2 0 0 0-2 2v12a2 2 0 0 0 2 2h16a2 2 0 0 0 2-2V6a2 2 0 0 0-2-2zm-8 2.75a2.25 2.25 0 1 1 0 4.5 2.25 2.25 0 0 1 0-4.5zM17 17H7v-1.5c0-1.67 3.33-2.5 5-2.5s5 .83 5 2.5V17z"></path>
  </symbol>
  <symbol xmlns="http://www.w3.org/2000/svg" viewBox="0 0 24 24" id="zepicons-copy">
    <path d="M20 21H9V7h11v14zm0-16H9a2 2 0 0 0-2 2v14a2 2 0 0 0 2 2h11a2 2 0 0 0 2-2V7a2 2 0 0 0-2-2zm-3-4H5a2 2 0 0 0-2 2v14h2V3h12V1z"></path>
  </symbol>
  <symbol xmlns="http://www.w3.org/2000/svg" viewBox="0 0 24 24" id="zepicons-crosshair">
    <path d="M12 8a4 4 0 1 1 0 8 4 4 0 0 1 0-8zm-8.95 5H1v-2h2.05C3.5 6.83 6.83 3.5 11 3.05V1h2v2.05c4.17.45 7.5 3.78 7.95 7.95H23v2h-2.05c-.45 4.17-3.78 7.5-7.95 7.95V23h-2v-2.05C6.83 20.5 3.5 17.17 3.05 13zM12 5a7 7 0 1 0 0 14 7 7 0 0 0 0-14z"></path>
  </symbol>
  <symbol xmlns="http://www.w3.org/2000/svg" viewBox="0 0 24 24" id="zepicons-delete">
    <path d="M19 4h-3.5l-1-1h-5l-1 1H5v2h14V4zM6 19a2 2 0 0 0 2 2h8a2 2 0 0 0 2-2V7H6v12z"></path>
  </symbol>
  <symbol xmlns="http://www.w3.org/2000/svg" viewBox="0 0 24 24" id="zepicons-direction">
    <path d="M14.002 14.502v-2.5h-4v3h-2v-4a1 1 0 0 1 1-1h5v-2.5l3.5 3.5-3.5 3.5zm7.71-3.21l-9-9h-.01a.996.996 0 0 0-1.41 0l-9 9c-.39.39-.39 1.03 0 1.42l9 9c.39.38 1.02.39 1.42 0l9-9c.39-.39.39-1.03 0-1.42z"></path>
  </symbol>
  <symbol xmlns="http://www.w3.org/2000/svg" viewBox="0 0 24 24" id="zepicons-dots-horizontal">
    <path d="M16 12a2 2 0 1 1 4 0 2 2 0 0 1-4 0zm-6 0a2 2 0 1 1 4 0 2 2 0 0 1-4 0zm-6 0a2 2 0 1 1 4 0 2 2 0 0 1-4 0z"></path>
  </symbol>
  <symbol xmlns="http://www.w3.org/2000/svg" viewBox="0 0 24 24" id="zepicons-dots-vertical">
    <path d="M12 16a2 2 0 1 1 0 4 2 2 0 0 1 0-4zm0-6a2 2 0 1 1 0 4 2 2 0 0 1 0-4zm0-6a2 2 0 1 1 0 4 2 2 0 0 1 0-4z"></path>
  </symbol>
  <symbol xmlns="http://www.w3.org/2000/svg" viewBox="0 0 24 24" id="zepicons-download">
    <path d="M5 21h14v-2H5v2zm14-11h-4V4H9v6H5l7 7 7-7z"></path>
  </symbol>
  <symbol xmlns="http://www.w3.org/2000/svg" viewBox="0 0 24 24" id="zepicons-dropdown">
    <path d="M7 14h10l-5 5-5-5zm10-4H7l5-5 5 5z"></path>
  </symbol>
  <symbol xmlns="http://www.w3.org/2000/svg" viewBox="0 0 24 24" id="zepicons-edit">
    <path d="M20.71 7.043c.39-.39.39-1.04 0-1.41l-2.34-2.34c-.37-.39-1.02-.39-1.41 0l-1.84 1.83 3.75 3.75 1.84-1.83zM3 17.253v3.75h3.75l11.06-11.07-3.75-3.75L3 17.253z"></path>
  </symbol>
  <symbol xmlns="http://www.w3.org/2000/svg" viewBox="0 0 24 24" id="zepicons-email">
    <path d="M20 8l-8 5-8-5V6l8 5 8-5v2zm0-4H4c-1.11 0-2 .89-2 2v12a2 2 0 0 0 2 2h16a2 2 0 0 0 2-2V6a2 2 0 0 0-2-2z"></path>
  </symbol>
  <symbol xmlns="http://www.w3.org/2000/svg" viewBox="0 0 24 24" id="zepicons-expand">
    <path d="M10 21v-2H6.41l4.5-4.5-1.41-1.41-4.5 4.5V14H3v7h7zm4.5-10.09l4.5-4.5V10h2V3h-7v2h3.59l-4.5 4.5 1.41 1.41z"></path>
  </symbol>
  <symbol xmlns="http://www.w3.org/2000/svg" viewBox="0 0 24 24" id="zepicons-facebook">
    <path d="M17 2v4h-2c-.69 0-1 .81-1 1.5V10h3v4h-3v8h-4v-8H7v-4h3V6a4 4 0 0 1 4-4h3z"></path>
  </symbol>
  <symbol xmlns="http://www.w3.org/2000/svg" viewBox="0 0 24 24" id="zepicons-file-document">
    <path d="M13 9h5.5L13 3.5V9zM6 2h8l6 6v12a2 2 0 0 1-2 2H6a2 2 0 0 1-2-2V4c0-1.11.89-2 2-2zm9 16v-2H6v2h9zm3-4v-2H6v2h12z"></path>
  </symbol>
  <symbol xmlns="http://www.w3.org/2000/svg" viewBox="0 0 24 24" id="zepicons-file">
    <path d="M13 9V3.5L18.5 9H13zM6 2c-1.11 0-2 .89-2 2v16a2 2 0 0 0 2 2h12a2 2 0 0 0 2-2V8l-6-6H6z"></path>
  </symbol>
  <symbol xmlns="http://www.w3.org/2000/svg" viewBox="0 0 24 24" id="zepicons-filter">
    <path d="M6 13h12v-2H6v2zM3 6v2h18V6H3zm7 12h4v-2h-4v2z"></path>
  </symbol>
  <symbol xmlns="http://www.w3.org/2000/svg" viewBox="0 0 24 24" id="zepicons-flag">
    <path d="M14.4 6L14 4H5v17h2v-7h5.6l.4 2h7V6z"></path>
  </symbol>
  <symbol xmlns="http://www.w3.org/2000/svg" xmlns:xlink="http://www.w3.org/1999/xlink" viewBox="0 0 24 24" id="zepicons-gb">
    <defs>
      <path id="a" d="M2 2h20v20H2z"></path>
      <path id="c" d="M.5 0h40.96v20.48H.5z"></path>
    </defs>
    <g fill="none" fill-rule="evenodd">
      <mask id="b" fill="#fff">
        <use xlink:href="#a"></use>
      </mask>
      <use fill="#D8D8D8" xlink:href="#a"></use>
      <g mask="url(#b)">
        <g transform="translate(-9 2)" fill-rule="nonzero">
          <use fill="#012169" xlink:href="#c"></use>
          <path fill="#FFF" d="M.5 0v2.29l36.38 18.19h4.58v-2.29L5.08.004H.5V0zm40.96 0v2.29L5.08 20.48H.5v-2.29L36.88 0h4.58z"></path>
          <path fill="#FFF" d="M17.568 0v20.48h6.824V0h-6.824zM.5 6.828v6.824h40.96V6.828H.5z"></path>
          <path fill="#C8102E" d="M.5 8.192v4.096h40.96V8.192H.5zM18.932 0v20.48h4.096V0h-4.096zM.5 20.48l13.652-6.828h3.06L3.552 20.48H.5zM.5 0l13.652 6.828H11.1L.5 1.528V0zm24.252 6.828L38.408 0h3.052L27.808 6.828h-3.06.004zM41.464 20.48l-13.66-6.828h3.051l10.605 5.3v1.528h.004z"></path>
        </g>
      </g>
    </g>
  </symbol>
  <symbol xmlns="http://www.w3.org/2000/svg" viewBox="0 0 24 24" id="zepicons-ger">
    <g fill="none">
      <path fill="#FFCE00" d="M2 15.332h20V22H2z"></path>
      <path fill="#000" d="M2 2h20v6.668H2z"></path>
      <path fill="#D00" d="M2 8.668h20v6.664H2z"></path>
    </g>
  </symbol>
  <symbol xmlns="http://www.w3.org/2000/svg" viewBox="0 0 24 24" id="zepicons-global">
    <path d="M17.9 17.39c-.26-.8-1.01-1.39-1.9-1.39h-1v-3a1 1 0 0 0-1-1H8v-2h2a1 1 0 0 0 1-1V7h2a2 2 0 0 0 2-2v-.41a7.984 7.984 0 0 1 2.9 12.8zM11 19.93c-3.95-.49-7-3.85-7-7.93 0-.62.08-1.22.21-1.79L9 15v1a2 2 0 0 0 2 2v1.93zM12 2C6.477 2 2 6.477 2 12A10 10 0 1 0 12 2z"></path>
  </symbol>
  <symbol xmlns="http://www.w3.org/2000/svg" viewBox="0 0 24 24" id="zepicons-googleplus">
    <path d="M23 11h-2V9h-2v2h-2v2h2v2h2v-2h2v-2zM8 11v2.4h4c-.2 1-1.2 3-4 3-2.4 0-4.3-2-4.3-4.4 0-2.4 1.9-4.4 4.3-4.4 1.4 0 2.3.6 2.8 1.1l1.9-1.8C11.5 5.7 9.9 5 8 5c-3.9 0-7 3.1-7 7s3.1 7 7 7c4 0 6.7-2.8 6.7-6.8 0-.5 0-.8-.1-1.2H8z"></path>
  </symbol>
  <symbol xmlns="http://www.w3.org/2000/svg" viewBox="0 0 24 24" id="zepicons-headset">
    <path d="M12 1c-5 0-9 4-9 9v7a3 3 0 0 0 3 3h3v-8H5v-2a7 7 0 1 1 14 0v2h-4v8h4v1h-7v2h6a3 3 0 0 0 3-3V10c0-5-4.03-9-9-9z"></path>
  </symbol>
  <symbol xmlns="http://www.w3.org/2000/svg" viewBox="0 0 24 24" id="zepicons-help">
    <path d="M15.07 11.25l-.9.92C13.45 12.89 13 13.5 13 15h-2v-.5c0-1.11.45-2.11 1.17-2.83l1.24-1.26c.37-.36.59-.86.59-1.41a2 2 0 1 0-4 0H8a4 4 0 1 1 8 0 3.2 3.2 0 0 1-.93 2.25zM13 19h-2v-2h2v2zM12 2C6.477 2 2 6.477 2 12a10 10 0 0 0 20 0c0-5.53-4.5-10-10-10z"></path>
  </symbol>
  <symbol xmlns="http://www.w3.org/2000/svg" viewBox="0 0 24 24" id="zepicons-hide">
    <path d="M11.83 9L15 12.16V12a3 3 0 0 0-3-3h-.17zm-4.3.8l1.55 1.55c-.05.21-.08.42-.08.65a3 3 0 0 0 3 3c.22 0 .44-.03.65-.08l1.55 1.55c-.67.33-1.41.53-2.2.53a5 5 0 0 1-5-5c0-.79.2-1.53.53-2.2zM2 4.27l2.28 2.28.45.45C3.08 8.3 1.78 10 1 12c1.73 4.39 6 7.5 11 7.5 1.55 0 3.03-.3 4.38-.84l.43.42L19.73 22 21 20.73 3.27 3 2 4.27zM12 7a5 5 0 0 1 5 5c0 .64-.13 1.26-.36 1.82l2.93 2.93c1.5-1.25 2.7-2.89 3.43-4.75-1.73-4.39-6-7.5-11-7.5-1.4 0-2.74.25-4 .7l2.17 2.15C10.74 7.13 11.35 7 12 7z"></path>
  </symbol>
  <symbol xmlns="http://www.w3.org/2000/svg" viewBox="0 0 24 24" id="zepicons-home">
    <path d="M10 21v-6h4v6h5v-8h3L12 4 2 13h3v8z"></path>
  </symbol>
  <symbol xmlns="http://www.w3.org/2000/svg" viewBox="0 0 24 24" id="zepicons-image-album">
    <path d="M6 19l3-3.86 2.14 2.58 3-3.86L18 19H6zM6 4h5v8l-2.5-1.5L6 12V4zm12-2H6a2 2 0 0 0-2 2v16a2 2 0 0 0 2 2h12a2 2 0 0 0 2-2V4a2 2 0 0 0-2-2z"></path>
  </symbol>
  <symbol xmlns="http://www.w3.org/2000/svg" viewBox="0 0 24 24" id="zepicons-image">
    <path d="M13 9h5.5L13 3.5V9zM6 2h8l6 6v12a2 2 0 0 1-2 2H6a2 2 0 0 1-2-2V4c0-1.11.89-2 2-2zm0 18h12v-8l-4 4-2-2-6 6zM8 9a2 2 0 1 0 0 4 2 2 0 0 0 0-4z"></path>
  </symbol>
  <symbol xmlns="http://www.w3.org/2000/svg" viewBox="0 0 24 24" id="zepicons-in">
    <g fill="none">
      <path fill="#F93" d="M2 2h20v6.668H2z"></path>
      <path fill="#FFF" d="M2 8.668h20v6.664H2z"></path>
      <path fill="#128807" d="M2 15.332h20V22H2z"></path>
      <g transform="translate(6.933 5.733)">
        <circle cx="5.067" cy="6.267" r="2.667" fill="#008"></circle>
        <circle cx="5.067" cy="6.267" r="2.333" fill="#FFF"></circle>
        <circle cx="5.067" cy="6.267" r="1" fill="#008"></circle>
        <g fill="#008">
          <g transform="translate(4.934 6.4)">
            <circle cx="2.447" cy=".172" r="1" transform="rotate(7.5 2.447 .172)"></circle>
            <path d="M.133 2.2L.213.8.133.133.053.8z"></path>
          </g>
          <g transform="rotate(15 -21.708 21.804)">
            <circle cx="2.447" cy=".172" r="1" transform="rotate(7.5 2.447 .172)"></circle>
            <path d="M.133 2.2L.213.8.133.133.053.8z"></path>
          </g>
          <g transform="rotate(30 -9.343 12.274)">
            <circle cx="2.447" cy=".172" r="1" transform="rotate(7.5 2.447 .172)"></circle>
            <path d="M.133 2.2L.213.8.133.133.053.8z"></path>
          </g>
          <g transform="rotate(45 -5.126 9.022)">
            <circle cx="2.447" cy=".172" r="1" transform="rotate(7.5 2.447 .172)"></circle>
            <path d="M.133 2.2L.213.8.133.133.053.8z"></path>
          </g>
          <g transform="rotate(60 -2.943 7.34)">
            <circle cx="2.447" cy=".172" r="1" transform="rotate(7.5 2.447 .172)"></circle>
            <path d="M.133 2.2L.213.8.133.133.053.8z"></path>
          </g>
          <g transform="rotate(75 -1.57 6.282)">
            <circle cx="2.447" cy=".172" r="1" transform="rotate(7.5 2.447 .172)"></circle>
            <path d="M.133 2.2L.213.8.133.133.053.8z"></path>
          </g>
          <g transform="rotate(90 -.6 5.534)">
            <circle cx="2.447" cy=".172" r="1" transform="rotate(7.5 2.447 .172)"></circle>
            <path d="M.133 2.2L.213.8.133.133.053.8z"></path>
          </g>
          <g transform="rotate(105 .145 4.96)">
            <circle cx="2.447" cy=".172" r="1" transform="rotate(7.5 2.447 .172)"></circle>
            <path d="M.133 2.2L.213.8.133.133.053.8z"></path>
          </g>
        </g>
        <g fill="#008">
          <g transform="rotate(120 .752 4.49)">
            <circle cx="2.447" cy=".172" r="1" transform="rotate(7.5 2.447 .172)"></circle>
            <path d="M.133 2.2L.213.8.133.133.053.8z"></path>
          </g>
          <g transform="rotate(135 1.274 4.088)">
            <circle cx="2.447" cy=".172" r="1" transform="rotate(7.5 2.447 .172)"></circle>
            <path d="M.133 2.2L.213.8.133.133.053.8z"></path>
          </g>
          <g transform="rotate(150 1.742 3.728)">
            <circle cx="2.447" cy=".172" r="1" transform="rotate(7.5 2.447 .172)"></circle>
            <path d="M.133 2.2L.213.8.133.133.053.8z"></path>
          </g>
          <g transform="rotate(165 2.179 3.391)">
            <circle cx="2.447" cy=".172" r="1" transform="rotate(7.5 2.447 .172)"></circle>
            <path d="M.133 2.2L.213.8.133.133.053.8z"></path>
          </g>
          <g transform="rotate(180 2.6 3.067)">
            <circle cx="2.447" cy=".172" r="1" transform="rotate(7.5 2.447 .172)"></circle>
            <path d="M.133 2.2L.213.8.133.133.053.8z"></path>
          </g>
          <g transform="rotate(-165 3.021 2.742)">
            <circle cx="2.447" cy=".172" r="1" transform="rotate(7.5 2.447 .172)"></circle>
            <path d="M.133 2.2L.213.8.133.133.053.8z"></path>
          </g>
          <g transform="rotate(-150 3.457 2.406)">
            <circle cx="2.447" cy=".172" r="1" transform="rotate(7.5 2.447 .172)"></circle>
            <path d="M.133 2.2L.213.8.133.133.053.8z"></path>
          </g>
          <g transform="rotate(-135 3.925 2.045)">
            <circle cx="2.447" cy=".172" r="1" transform="rotate(7.5 2.447 .172)"></circle>
            <path d="M.133 2.2L.213.8.133.133.053.8z"></path>
          </g>
        </g>
        <g fill="#008">
          <g transform="rotate(-120 4.447 1.642)">
            <circle cx="2.447" cy=".172" r="1" transform="rotate(7.5 2.447 .172)"></circle>
            <path d="M.133 2.2L.213.8.133.133.053.8z"></path>
          </g>
          <g transform="rotate(-105 5.055 1.173)">
            <circle cx="2.447" cy=".172" r="1" transform="rotate(7.5 2.447 .172)"></circle>
            <path d="M.133 2.2L.213.8.133.133.053.8z"></path>
          </g>
          <g transform="rotate(-90 5.8 .6)">
            <circle cx="2.447" cy=".172" r="1" transform="rotate(7.5 2.447 .172)"></circle>
            <path d="M.133 2.2L.213.8.133.133.053.8z"></path>
          </g>
          <g transform="rotate(-75 6.77 -.148)">
            <circle cx="2.447" cy=".172" r="1" transform="rotate(7.5 2.447 .172)"></circle>
            <path d="M.133 2.2L.213.8.133.133.053.8z"></path>
          </g>
          <g transform="rotate(-60 8.141 -1.206)">
            <circle cx="2.447" cy=".172" r="1" transform="rotate(7.5 2.447 .172)"></circle>
            <path d="M.133 2.2L.213.8.133.133.053.8z"></path>
          </g>
          <g transform="rotate(-45 10.324 -2.889)">
            <circle cx="2.447" cy=".172" r="1" transform="rotate(7.5 2.447 .172)"></circle>
            <path d="M.133 2.2L.213.8.133.133.053.8z"></path>
          </g>
          <g transform="rotate(-30 14.54 -6.14)">
            <circle cx="2.447" cy=".172" r="1" transform="rotate(7.5 2.447 .172)"></circle>
            <path d="M.133 2.2L.213.8.133.133.053.8z"></path>
          </g>
          <g transform="rotate(-15 26.903 -15.669)">
            <circle cx="2.447" cy=".172" r="1" transform="rotate(7.5 2.447 .172)"></circle>
            <path d="M.133 2.2L.213.8.133.133.053.8z"></path>
          </g>
        </g>
      </g>
    </g>
  </symbol>
  <symbol xmlns="http://www.w3.org/2000/svg" viewBox="0 0 24 24" id="zepicons-info">
    <path fill-rule="evenodd" d="M12 2C6.48 2 2 6.48 2 12s4.48 10 10 10 10-4.48 10-10S17.52 2 12 2zm1 15h-2v-6h2v6zm0-8h-2V7h2v2z"></path>
  </symbol>
  <symbol xmlns="http://www.w3.org/2000/svg" viewBox="0 0 24 24" id="zepicons-instagram">
    <path d="M7.8 2h8.4C19.4 2 22 4.6 22 7.8v8.4a5.8 5.8 0 0 1-5.8 5.8H7.8C4.6 22 2 19.4 2 16.2V7.8A5.8 5.8 0 0 1 7.8 2zm-.2 2A3.6 3.6 0 0 0 4 7.6v8.8C4 18.39 5.61 20 7.6 20h8.8a3.6 3.6 0 0 0 3.6-3.6V7.6C20 5.61 18.39 4 16.4 4H7.6zm9.65 1.5a1.25 1.25 0 1 1 0 2.5 1.25 1.25 0 0 1 0-2.5zM12 7a5 5 0 1 1 0 10 5 5 0 0 1 0-10zm0 2a3 3 0 1 0 0 6 3 3 0 0 0 0-6z"></path>
  </symbol>
  <symbol xmlns="http://www.w3.org/2000/svg" viewBox="0 0 24 24" id="zepicons-it">
    <g fill="none">
      <path fill="#FFF" d="M2 2h20v20H2z"></path>
      <path fill="#009246" d="M2 2h6.668v20H2z"></path>
      <path fill="#CE2B37" d="M15.332 2H22v20h-6.668z"></path>
    </g>
  </symbol>
  <symbol xmlns="http://www.w3.org/2000/svg" viewBox="0 0 24 24" id="zepicons-kununu">
    <path fill-rule="evenodd" d="M15.476 18.334l-.05 3.16a.51.51 0 0 1-.516.506h-3.087a.512.512 0 0 1-.514-.506v-3.16h-.012v-1.02c0-1.1-.914-1.994-2.033-1.994H8.173c-1.122 0-2.033.894-2.033 1.994h-.022v4.18c0 .278-.23.506-.515.506H2.514A.511.511 0 0 1 2 21.494V2.689a.51.51 0 0 1 .514-.505h3.089a.51.51 0 0 1 .515.505v8.875a6.317 6.317 0 0 1 2.055-.344h1.045v-.012c1.123 0 2.034-.895 2.034-1.992l.065-1.023a.511.511 0 0 1 .506-.42h3.087a.51.51 0 0 1 .507.42h.014v1.023a6 6 0 0 1-1.552 4.022 6.016 6.016 0 0 1 1.597 4.076v1.02zm3.54-11.902l-.757.743a1.01 1.01 0 0 1-1.41.005l-.124-.123a.963.963 0 0 1 .005-1.382l.707-.694.047-.045c.101-.1.269-.1.37 0l.095.094c.102.1.11.265.009.366l-.756.74a.315.315 0 0 0 0 .454l.124.123a.334.334 0 0 0 .464.002l.756-.742a.27.27 0 0 1 .372.005l.095.095c.103.1.105.26.004.359zm0-3.04l-.095.094c-.101.099-.272.107-.373.007l-.754-.742a.335.335 0 0 0-.464 0l-.125.122a.322.322 0 0 0-.002.457l.756.74a.254.254 0 0 1-.006.364l-.094.095a.26.26 0 0 1-.366.003l-.758-.742a.964.964 0 0 1-.005-1.384l.125-.122a1.008 1.008 0 0 1 1.408.006l.707.694.047.045a.255.255 0 0 1 0 .363zm2.687 3.663l-.122.12c-.39.383-1.022.38-1.41-.004l-.708-.694-.047-.045a.253.253 0 0 1 0-.363l.096-.094a.27.27 0 0 1 .373-.008l.756.742a.331.331 0 0 0 .462 0l.125-.121a.32.32 0 0 0 .002-.457l-.756-.742a.254.254 0 0 1 .006-.364l.095-.093a.262.262 0 0 1 .366-.005l.757.744c.391.382.395 1 .005 1.384zm.003-3.26l-.708.694-.047.046a.267.267 0 0 1-.37 0l-.096-.096a.257.257 0 0 1-.007-.365l.757-.741a.317.317 0 0 0 0-.453l-.125-.123a.336.336 0 0 0-.465-.002l-.756.74a.266.266 0 0 1-.37-.003l-.096-.094a.25.25 0 0 1-.004-.36l.756-.744a1.012 1.012 0 0 1 1.41-.004l.124.121a.965.965 0 0 1-.003 1.384z"></path>
  </symbol>
  <symbol xmlns="http://www.w3.org/2000/svg" viewBox="0 0 24 24" id="zepicons-link">
    <path d="M10.59 13.41c.41.39.41 1.03 0 1.42-.39.39-1.03.39-1.42 0a5.003 5.003 0 0 1 0-7.07l3.54-3.54a5.003 5.003 0 0 1 7.07 0 5.003 5.003 0 0 1 0 7.07l-1.49 1.49c.01-.82-.12-1.64-.4-2.42l.47-.48a2.982 2.982 0 0 0 0-4.24 2.982 2.982 0 0 0-4.24 0l-3.53 3.53a2.982 2.982 0 0 0 0 4.24zm2.82-4.24c.39-.39 1.03-.39 1.42 0a5.003 5.003 0 0 1 0 7.07l-3.54 3.54a5.003 5.003 0 0 1-7.07 0 5.003 5.003 0 0 1 0-7.07l1.49-1.49c-.01.82.12 1.64.4 2.43l-.47.47a2.982 2.982 0 0 0 0 4.24 2.982 2.982 0 0 0 4.24 0l3.53-3.53a2.982 2.982 0 0 0 0-4.24.973.973 0 0 1 0-1.42z"></path>
  </symbol>
  <symbol xmlns="http://www.w3.org/2000/svg" viewBox="0 0 24 24" id="zepicons-linkedin">
    <path d="M21 21h-4v-6.75c0-1.06-1.19-1.94-2.25-1.94S13 13.19 13 14.25V21H9V9h4v2c.66-1.07 2.36-1.76 3.5-1.76 2.5 0 4.5 2.04 4.5 4.51V21zM7 21H3V9h4v12zM5 3a2 2 0 1 1 0 4 2 2 0 0 1 0-4z"></path>
  </symbol>
  <symbol xmlns="http://www.w3.org/2000/svg" viewBox="0 0 24 24" id="zepicons-list-plus">
    <path d="M2 15h8v-2H2v2zm16-2V9h-2v4h-4v2h4v4h2v-4h4v-2h-4zm-4-8H2v2h12V5zm0 4H2v2h12V9z"></path>
  </symbol>
  <symbol xmlns="http://www.w3.org/2000/svg" viewBox="0 0 24 24" id="zepicons-logout">
    <path d="M14.08 15.59L16.67 13H7v-2h9.67l-2.59-2.59L15.5 7l5 5-5 5-1.42-1.41zM19 3a2 2 0 0 1 2 2v4.67l-2-2V5H5v14h14v-2.67l2-2V19a2 2 0 0 1-2 2H5a2 2 0 0 1-2-2V5c0-1.11.89-2 2-2h14z"></path>
  </symbol>
  <symbol xmlns="http://www.w3.org/2000/svg" viewBox="0 0 24 24" id="zepicons-map-marker">
    <path d="M12 11.5a2.5 2.5 0 1 1 0-5 2.5 2.5 0 0 1 0 5zM12 2a7 7 0 0 0-7 7c0 5.25 7 13 7 13s7-7.75 7-13a7 7 0 0 0-7-7z"></path>
  </symbol>
  <symbol xmlns="http://www.w3.org/2000/svg" viewBox="0 0 24 24" id="zepicons-map">
    <path d="M15 19l-6-2.11V5l6 2.11V19zm5.5-16h-.16L15 5.1 9 3 3.36 4.9c-.21.07-.36.25-.36.48V20.5a.5.5 0 0 0 .5.5c.05 0 .11 0 .16-.03L9 18.9l6 2.1 5.64-1.9c.21-.1.36-.25.36-.48V3.5a.5.5 0 0 0-.5-.5z"></path>
  </symbol>
  <symbol xmlns="http://www.w3.org/2000/svg" viewBox="0 0 24 24" id="zepicons-menu">
    <path d="M3 6h18v2H3V6zm0 5h18v2H3v-2zm0 5h18v2H3v-2z"></path>
  </symbol>
  <symbol xmlns="http://www.w3.org/2000/svg" viewBox="0 0 24 24" id="zepicons-minus">
    <path d="M19 13H5v-2h14z"></path>
  </symbol>
  <symbol xmlns="http://www.w3.org/2000/svg" viewBox="0 0 24 24" id="zepicons-navigation-dropdown">
    <path d="M7 14h10l-5 5-5-5zm10-4H7l5-5 5 5z"></path>
  </symbol>
  <symbol xmlns="http://www.w3.org/2000/svg" viewBox="0 0 24 24" id="zepicons-next-page">
    <path d="M6 16.58L10.58 12 6 7.41 7.41 6l6 6-6 6L6 16.58zM15.41 6h2v12h-2V6z"></path>
  </symbol>
  <symbol xmlns="http://www.w3.org/2000/svg" viewBox="0 0 24 24" id="zepicons-open-in-new">
    <path d="M14 3v2h3.59l-9.83 9.83 1.41 1.41L19 6.41V10h2V3h-7zm5 16H5V5h7V3H5a2 2 0 0 0-2 2v14a2 2 0 0 0 2 2h14a2 2 0 0 0 2-2v-7h-2v7z"></path>
  </symbol>
  <symbol xmlns="http://www.w3.org/2000/svg" viewBox="0 0 24 24" id="zepicons-phone">
    <path d="M6.62 10.79c1.44 2.83 3.76 5.15 6.59 6.59l2.2-2.2c.28-.28.67-.36 1.02-.25 1.12.37 2.32.57 3.57.57a1 1 0 0 1 1 1V20a1 1 0 0 1-1 1C10.611 21 3 13.389 3 4a1 1 0 0 1 1-1h3.5a1 1 0 0 1 1 1c0 1.25.2 2.45.57 3.57.11.35.03.74-.25 1.02l-2.2 2.2z"></path>
  </symbol>
  <symbol xmlns="http://www.w3.org/2000/svg" viewBox="0 0 24 24" id="zepicons-plus">
    <path d="M19 13h-6v6h-2v-6H5v-2h6V5h2v6h6z"></path>
  </symbol>
  <symbol xmlns="http://www.w3.org/2000/svg" viewBox="0 0 24 24" id="zepicons-previous-page">
    <path d="M17.41 16.58L12.83 12l4.58-4.59L16 6l-6 6 6 6 1.41-1.42zM8 6H6v12h2V6z"></path>
  </symbol>
  <symbol xmlns="http://www.w3.org/2000/svg" viewBox="0 0 24 24" id="zepicons-print">
    <path d="M18 3H6v4h12V3zm1 9a1 1 0 1 1 0-2 1 1 0 0 1 0 2zm-3 7H8v-5h8v5zm3-11H5a3 3 0 0 0-3 3v6h4v4h12v-4h4v-6a3 3 0 0 0-3-3z"></path>
  </symbol>
  <symbol xmlns="http://www.w3.org/2000/svg" viewBox="0 0 24 24" id="zepicons-ps-ps">
    <path fill="#131516" d="M11.044 17.476l1.422-3.84h-3.79l2.56-4.796h1.849l-1.656 3.166h3.364l-3.75 5.47zm10.851-9.741h-2.56v1.199h-.472l-2.32-2.21h-3.406v-.767h2.606V5H7.207v.957H9.86v.72H6.501c-.379 0-.664.385-.664.816v.957H4.32c-.426 0-.805.478-.805 1.104v1.105H2.95V7.971H2v8.684h.945v-2.688h.618v1.825c0 .627.379 1.105.804 1.105H6.07l1.988 2.014h9.575c.332 0 .618-.384.618-.815v-1.394h1.09v1.536h2.56V7.735h-.006z"></path>
  </symbol>
  <symbol xmlns="http://www.w3.org/2000/svg" viewBox="0 0 24 24" id="zepicons-ps-service">
    <path fill="#131516" fill-rule="evenodd" d="M10.426 18.766l3.908-5.704h-3.507l1.726-3.3h-1.926l-2.668 5h3.95l-1.483 4.004zm3.641-11.919c0 2.76 2.206 4.995 4.928 4.995a4.905 4.905 0 0 0 2.747-.844v8.562h-2.668v-1.6h-1.136v1.452c0 .45-.298.85-.645.85H7.315l-2.073-2.1H3.468c-.444 0-.839-.499-.839-1.152v-1.903h-.644v2.803H1V8.855h.99v2.803h.59v-1.152c0-.653.395-1.152.839-1.152h1.58v-.997c0-.45.298-.85.693-.85h3.501v-.752H6.427v-.998h7.761a4.954 4.954 0 0 0-.121 1.09zm6.235-.642l.854-.83a1.239 1.239 0 0 1-.252 1.429 1.251 1.251 0 0 1-1.34.289l-1.767 1.756a.189.189 0 0 1-.271 0l-.448-.445c-.096-.077-.096-.212-.018-.27l1.767-1.755a1.232 1.232 0 0 1 .29-1.331 1.29 1.29 0 0 1 1.438-.251l-.835.829.582.579zm-1.176 3.777c1.772 0 3.214-1.432 3.214-3.191 0-1.76-1.442-3.192-3.214-3.192s-3.214 1.432-3.214 3.192c0 1.759 1.442 3.191 3.214 3.191zm0-6.982c2.103 0 3.814 1.7 3.814 3.791 0 2.09-1.711 3.791-3.814 3.791-2.103 0-3.813-1.701-3.813-3.791C15.313 4.7 17.023 3 19.126 3z"></path>
  </symbol>
  <symbol xmlns="http://www.w3.org/2000/svg" viewBox="0 0 24 24" id="zepicons-ps-used">
    <path fill="#131516" d="M18.509 12.506c.987 0 1.904-.314 2.672-.844v8.561h-2.595v-1.601H17.48v1.454c0 .45-.29.85-.627.85h-9.71l-2.016-2.1H3.401c-.432 0-.816-.5-.816-1.153V15.77h-.627v2.803H1V9.518h.964v2.803h.573v-1.152c0-.653.385-1.152.816-1.152h1.538V9.02c0-.45.29-.85.674-.85H8.97v-.751H6.28V6.42h7.55a5.083 5.083 0 0 0-.118 1.09c0 2.76 2.147 4.996 4.796 4.996zm-8.338 6.923l3.802-5.704h-3.412l1.68-3.301h-1.875L7.77 15.425h3.844l-1.443 4.004zm6.924-12.596l1.047 1.09L21.04 4.9l.48.499-3.377 3.517-1.52-1.583.473-.5zM22.3 8.12l-.461.019c-.325 1.86-1.999 3.135-3.808 2.858-1.845-.278-3.122-2.064-2.856-3.985.266-1.922 1.98-3.253 3.825-2.975a3.15 3.15 0 0 1 1.124.394l-.503.523a2.599 2.599 0 0 0-.721-.221c-1.478-.222-2.844.837-3.063 2.377-.219 1.54.804 2.969 2.282 3.19 1.396.21 2.697-.732 3.016-2.137l-.426.013.751-1.466.84 1.41z"></path>
  </symbol>
  <symbol xmlns="http://www.w3.org/2000/svg" viewBox="0 0 24 24" id="zepicons-reload">
    <path d="M19 8l-4 4h3a6 6 0 0 1-6 6c-1 0-1.97-.25-2.8-.7l-1.46 1.46A7.93 7.93 0 0 0 12 20a8 8 0 0 0 8-8h3M6 12a6 6 0 0 1 6-6c1 0 1.97.25 2.8.7l1.46-1.46A7.93 7.93 0 0 0 12 4a8 8 0 0 0-8 8H1l4 4 4-4"></path>
  </symbol>
  <symbol xmlns="http://www.w3.org/2000/svg" viewBox="0 0 24 24" id="zepicons-rental-infrastructure">
    <path fill="#131516" fill-rule="evenodd" d="M14.074 18.49v1.742a.39.39 0 0 0 .383.376.39.39 0 0 0 .406-.376V18.49a.392.392 0 0 0-.383-.378.393.393 0 0 0-.406.378zm0-3.9v1.765a.393.393 0 0 0 .406.377.39.39 0 0 0 .383-.4V14.59a.392.392 0 0 0-.383-.377.393.393 0 0 0-.406.377zm0-3.526v1.741a.39.39 0 0 0 .383.377.392.392 0 0 0 .406-.377v-1.763a.392.392 0 0 0-.406-.378.392.392 0 0 0-.383.4zM9.226 21.735l3.243-10.122h-1.984a.166.166 0 0 1-.116-.048.16.16 0 0 1 .001-.227l3.983-3.894a.166.166 0 0 1 .23 0l3.984 3.894c.031.03.048.071.048.114 0 .089-.073.16-.163.16h-1.983l3.242 10.123a.16.16 0 0 1 .008.049.163.163 0 0 1-.165.161H9.383a.16.16 0 0 1-.157-.21zM7.81 7.077a1.37 1.37 0 0 0 1.38-1.358A1.37 1.37 0 0 0 7.81 4.36a1.37 1.37 0 0 0-1.38 1.359c0 .75.619 1.358 1.38 1.358zm0 4.076a1.37 1.37 0 0 0 1.38-1.36c0-.749-.618-1.357-1.38-1.357a1.37 1.37 0 0 0-1.38 1.358c0 .75.619 1.36 1.38 1.36zm1.38 2.717a1.37 1.37 0 0 0-1.38-1.358 1.37 1.37 0 0 0-1.38 1.358c0 .75.619 1.36 1.38 1.36.762 0 1.38-.61 1.38-1.36zm2.47-5.434L9.536 10.51a1.323 1.323 0 0 0-.398.94c0 .734.604 1.328 1.348 1.328h.362L9.655 16.5c-.15.056-.31.085-.471.087H6.425a1.37 1.37 0 0 1-1.38-1.36v-1.355l-.974-.96a.23.23 0 0 1-.071-.17.234.234 0 0 1 .24-.23h.807V9.796l-.975-.96a.231.231 0 0 1-.07-.17.234.234 0 0 1 .24-.23h.807V5.72l-.975-.96a.233.233 0 0 1-.071-.17.234.234 0 0 1 .24-.23h.807c0-.75.618-1.36 1.379-1.36h2.76c.761 0 1.378.608 1.378 1.36h.807a.24.24 0 0 1 .173.07.23.23 0 0 1-.004.329l-.974.96v2.717h1.09z"></path>
  </symbol>
  <symbol xmlns="http://www.w3.org/2000/svg" viewBox="0 0 24 24" id="zepicons-rental-logistics">
    <path fill="#131516" fill-rule="evenodd" d="M9.437 16.12c.11-.106.26-.282.16-.392-.207-.226-.445-.886-.685-1.77l-.29-1.181a71.963 71.963 0 0 1-.901-4.77c-.024-.15-.312-.256-.46-.231-.148.024-.471.166-.447.317.11.718 1.111 7.037 2.018 8.015a.264.264 0 0 0 .197.088c.066 0 .357-.025.408-.077zm12.617-.062c.425 0 .77.35.771.785v1.435a.78.78 0 0 1-.77.786h-2.633a2.296 2.296 0 0 1-2.141 1.53H6.543a2.298 2.298 0 0 1-2.142-1.53h-2.63A.781.781 0 0 1 1 18.278v-1.435a.781.781 0 0 1 .77-.785h.562c.105-3.753 1.804-7.035 4.334-8.965a8.173 8.173 0 0 1-.139-.986c-.006-.192 3.531-1.203 4.437-1.248-.04.08-.088.25-.135.488a8.051 8.051 0 0 1 2.067-.01 6.065 6.065 0 0 0-.44 2.267 6.02 6.02 0 0 0 2.554 4.94c-.016.07-.03.14-.047.209l-.29 1.18c-.239.884-.476 1.545-.682 1.768-.105.112.05.288.158.395.053.048.291.1.36.1a.267.267 0 0 0 .197-.088c.368-.398.752-1.68 1.086-3.108a5.753 5.753 0 0 0 2.529.597 5.767 5.767 0 0 0 2.693-.677c.282.992.451 2.043.482 3.138h.558zM18.317 3.552c-2.192 0-3.96 1.808-3.96 4.048s1.783 4.063 3.96 4.048c2.192 0 3.975-1.823 3.96-4.048 0-2.24-1.783-4.062-3.96-4.048zm0 8.663c-2.492-.007-4.508-2.069-4.508-4.607 0-2.54 2.016-4.6 4.508-4.608 2.485 0 4.501 2.061 4.508 4.608 0 2.538-2.016 4.6-4.508 4.607zm-2.398-5.012v-.558h-.687l.991-1.366.992 1.366h-.69v.43l1.261 1.288V5.452H17.1l.992-1.366.99 1.366h-.689v3.542l.66-.675a.3.3 0 0 1 .215-.091h.806v-.779l1.336 1.014-1.336 1.013v-.627h-.68L18.392 9.87v.93c0 .172-.136.31-.304.31a.307.307 0 0 1-.303-.31V9.24l-1.778-1.817a.315.315 0 0 1-.09-.22z"></path>
  </symbol>
  <symbol xmlns="http://www.w3.org/2000/svg" viewBox="0 0 24 24" id="zepicons-rental-rent">
    <path fill="#131516" fill-rule="evenodd" d="M2.588 6.895c-1.439 1.446-1.439 3.796 0 5.223 1.439 1.445 3.78 1.445 5.2 0 1.44-1.446 1.44-3.797 0-5.223a3.661 3.661 0 0 0-5.2 0zm5.555 5.588a4.18 4.18 0 0 1-5.92 0 4.222 4.222 0 0 1 0-5.944 4.18 4.18 0 0 1 5.92 0 4.222 4.222 0 0 1 0 5.944zm3.473-6.56h-1.328l.256 1.127h1.327l-.255-1.127zm.664 3.025l-.307-1.436h-1.327l.306 1.436h1.328zm1.735-3.025h-1.94l.255 1.127h1.94V7l-.05-.155-.051-.307v-.051l-.154-.564zm.766 3.025l-.357-1.436h-1.94l.306 1.436h1.99zm-4.167.897a5.46 5.46 0 0 0-1.577-4.203c-.053-.053-.11-.099-.164-.149l.037-.185c.05-.205.205-.308.357-.308h5.565c.256 0 .41.256.358.461l-.358 1.026 1.48 5.485-.867-.205-.613-2.256H12.79l.358 1.435-.51-.204-.308-1.23h-1.326l.153.717-.51-.205-.033-.18zm3.606 8.278a1.026 1.026 0 0 0 0-2.05 1.026 1.026 0 0 0 0 2.05zm0-3.28c1.225 0 2.246 1.026 2.246 2.255 0 1.23-1.021 2.255-2.246 2.255-1.226 0-2.247-1.025-2.247-2.255s1.021-2.255 2.247-2.255zm7.76 2.101l.714.565-4.85.614c-.46.052-.816-.256-.919-.666v-.36c0-.973-.561-1.845-1.327-2.306v-1.076l-5.443-1.984c.192-.435.326-.888.4-1.351l6.83 2.463v1.025h.204l3.573 3.179.818-.103zM5.82 14.94c-.462.346-.816.83-.994 1.39l-1.327-.308-.766-.769.098-.814c.94.45 1.977.619 2.99.5zm8.4-.558c-1.48 0-2.706 1.23-2.706 2.717 0 .308.05.564.102.871H9.982c.102-.256.153-.512.153-.82 0-1.23-.867-2.306-1.99-2.614l-.052-.051v-.35a5.46 5.46 0 0 0 .944-.754 5.47 5.47 0 0 0 .898-1.204l5.255 1.898v.513c-.307-.154-.613-.206-.97-.206zm-6.74 3.742a1.025 1.025 0 0 0 0-2.05 1.026 1.026 0 0 0 0 2.05zm-.05-3.28c1.225 0 2.246 1.026 2.246 2.255 0 1.23-.97 2.255-2.246 2.255-1.226 0-2.247-1.025-2.247-2.255s1.021-2.255 2.247-2.255zM4.015 11.17a.335.335 0 0 0 .124-.379c-.014-.045-.027-.063-.086-.123-.062-.062-.075-.072-.123-.087a.392.392 0 0 0-.225.004.279.279 0 0 0-.111.079c-.055.054-.065.07-.084.122a.358.358 0 0 0 .01.244.424.424 0 0 0 .14.158c.112.061.25.054.355-.018zm1.419-.911c.027.112.04.228.034.344a1.264 1.264 0 0 1-1.253 1.226c-.28 0-.526-.083-.76-.252a1.682 1.682 0 0 1-.317-.344 1.269 1.269 0 0 1-.01-1.334c.162-.263.402-.444.722-.545.2-.063.433-.072.649-.026.073.016.13.022.15.016.026-.008.154-.131 1.024-.991l.994-.982.34-.015c.188-.009.345-.012.35-.006.007.007-.06.818-.07.845-.003.01-.094.014-.244.012-.337-.002-.327-.01-.33.322l-.003.233h-.232a1.232 1.232 0 0 0-.257.012c-.064.037-.066.057-.068.346l-.002.272-.357.353c-.418.414-.392.374-.36.514z"></path>
  </symbol>
  <symbol xmlns="http://www.w3.org/2000/svg" viewBox="0 0 24 24" id="zepicons-ru">
    <g fill="none">
      <path fill="#FFF" d="M2 2h20v20H2z"></path>
      <path fill="#0039A6" d="M2 8.668h20V22H2z"></path>
      <path fill="#D52B1E" d="M2 15.332h20V22H2z"></path>
    </g>
  </symbol>
  <symbol xmlns="http://www.w3.org/2000/svg" xmlns:xlink="http://www.w3.org/1999/xlink" viewBox="0 0 24 24" id="zepicons-sa">
    <defs>
      <path id="a" d="M0 0h20v20H0z"></path>
    </defs>
    <g fill="none" fill-rule="evenodd" transform="translate(2 2)">
      <mask id="b" fill="#fff">
        <use xlink:href="#a"></use>
      </mask>
      <g fill-rule="nonzero" mask="url(#b)">
        <path fill="#199D00" d="M-5 0h30.963v20.642H-5z"></path>
        <path fill="#FFF" d="M2.803 5.851c-.033.483-.079 1.332.333 1.42.495.045.22-.841.4-1 .037-.083.1-.083.104.021v.75c-.004.25.154.316.279.37.133-.013.216-.008.27.117l.058 1.302s.304.083.317-.732c.016-.479-.096-.883-.03-.974 0-.092.117-.096.2-.054.13.091.187.208.387.158.308-.083.491-.233.5-.466a2.122 2.122 0 0 0-.142-.67c.013-.042-.062-.146-.046-.188.054.084.138.08.159 0-.055-.174-.134-.337-.267-.407-.108-.096-.266-.075-.324.124-.007.263.081.519.25.72a.707.707 0 0 1 .062.362c-.088.055-.175.03-.25-.045 0 0-.246-.188-.246-.225.067-.416.017-.462-.02-.578-.025-.159-.1-.209-.163-.317-.062-.066-.141-.066-.183 0-.108.187-.058.587.021.766.058.166.142.27.1.27-.033.092-.1.071-.15-.037a2.547 2.547 0 0 1-.087-.703c-.021-.188-.042-.583-.167-.683-.075-.1-.187-.05-.225.042-.01.18-.006.361.013.54.083.292.108.558.15.862.012.408-.237.18-.225-.025.058-.262.042-.678-.008-.782-.042-.104-.088-.13-.183-.112-.084-.009-.28.208-.333.574 0 0-.05.187-.071.35-.03.187-.15.32-.237-.026-.075-.25-.121-.87-.246-.724z"></path>
        <path fill="#FFF" d="M4.152 7.832l-1.29.62c.012-.29.611-.824 1.02-.832.265.008.199.104.27.208v.004z"></path>
        <path fill="#FFF" d="M3.927 8.236c-.683 1.752 1.59 1.998 1.843.07.025-.078.125-.157.138-.028-.054 1.748-1.756 1.864-2.048 1.315-.07-.125-.091-.416-.1-.591-.041-.342-.224-.208-.25.133-.028.187-.024.241-.024.424.091 1.374 2.289.783 2.647-.353.187-.629-.034-1.095.07-1.095.217.237.525.033.591-.05.03-.041.1-.066.15-.012.167.125.47.062.533-.15.033-.212.062-.429.07-.653-.137.041-.24.07-.25.124l-.028.192c-.013.058-.134.062-.138-.017-.054-.237-.27-.27-.403.1-.088.075-.25.083-.267-.02.021-.25-.079-.284-.279-.167L5.987 6c.083 0 .162.058.237-.037-.083-.262-.262-.791-.358-.833-.05-.058-.087-.02-.15-.008-.108.033-.208.125-.174.304l.333 2.089c.016.087-.059.208-.154.196-.163-.113-.204-.333-.48-.325-.203 0-.432.22-.457.433-.037.166-.05.35 0 .495.137.167.308.154.458.112.12-.05.22-.17.266-.141.03.037.004.437-.578.749-.35.158-.633.191-.783-.096-.091-.179.009-.861-.22-.707v.004z"></path>
        <path fill="#FFF" d="M6.81 6.45c.138-.045.783-.79.783-.79l-.095-.075c-.038-.033-.034-.062 0-.096.158-.091.108-.3.025-.39a.391.391 0 0 0-.35 0c-.112.111-.137.282-.05.39.083.042.175.125.117.175-.267.283-.99.77-.908.79.017.022.466.022.479 0v-.003zM2.904 9.073c-.241.388-.262.966-.125 1.137a.27.27 0 0 0 .27.091c.155-.066.221-.374.184-.487-.05-.083-.092-.091-.142-.025-.108.217-.154.067-.162-.054a2.8 2.8 0 0 1 .03-.612c.028-.17 0-.12-.055-.05zm10.367-.624c-.233-.503-.558-1.003-.662-1.194A22.515 22.515 0 0 0 11.61 5.8c-.25-.3.412.125-.083-.47-.187-.166-.2-.17-.358-.304-.079-.058-.27-.158-.304.009-.016.119-.01.24.017.358.017.083.137.22.2.303a22.456 22.456 0 0 1 2.168 3.488c.108-.05.083-.65.02-.737z"></path>
        <path fill="#FFF" d="M12.242 10.142c-.046.054.112.275.32.275.35-.042.654-.237.937-.75.075-.124.208-.374.212-.578.03-1.165-.058-2.072-.233-2.913a.577.577 0 0 1 .012-.208c.021-.025.096 0 .138-.063.058-.062-.158-.566-.28-.757-.045-.087-.062-.146-.132.008-.08.125-.125.346-.125.55.166 1.148.22 2.155.329 3.3.008.112-.009.275-.084.337-.304.34-.677.613-1.094.799zm4.694-.004c-.25.141-.25.308-.045.316.345-.041.757-.07 1.04-.5.075-.12.166-.445.17-.64.026-1.165-.016-2.04-.19-2.88-.01-.083-.047-.27-.034-.296.025-.058.137.005.179-.062.058-.058-.292-.512-.416-.707-.046-.084-.063-.142-.134.012-.079.125-.104.35-.074.545.187 1.249.324 2.185.35 3.288-.013.108-.018.166-.067.295-.109.142-.23.317-.346.4-.112.083-.354.166-.433.229z"></path>
        <path fill="#FFF" d="M17.124 9.018v-.761a1.373 1.373 0 0 0-.125-.55c-.075-.166-.03-.295-.063-.474-.033-.175-.025-.441-.075-.65-.016-.082-.058-.34-.041-.365.016-.059.095 0 .133-.067.058-.062-.2-.728-.329-.916-.046-.083-.129-.058-.237.084-.096.087-.058.295-.02.49.249 1.303.432 2.485.394 3.721-.012.108.367-.312.363-.512zM15.28 7.404c-.154 0-.483-.308-.583-.483a.325.325 0 0 1 .021-.258c.058-.042.15-.083.217-.042 0 0 .066.1.054.113.083.041.124.016.133-.021.004-.058-.03-.096-.03-.167.042-.179.25-.208.325-.091.059.07.08.22.088.324 0 .05-.084-.012-.134 0-.045.017-.058.071-.062.121-.008.133-.025.346-.03.5v.004zm-2.897 1.939c.042-.4-.012-1.103-.016-1.336-.017-.553-.108-1.623-.15-1.798-.05-.337.137.038.112-.158-.062-.333-.25-.566-.466-.874-.07-.096-.066-.116-.179.025-.116.275-.012.462.017.674.158.695.25 1.332.291 1.965.047.658.052 1.318.017 1.976.12.009.312-.191.374-.474z"></path>
        <path fill="#FFF" d="M17.66 8.706c-.278-.462-.695-.965-.807-1.153a26.602 26.602 0 0 0-1.174-1.527c-.345-.362.159-.058-.066-.337-.192-.208-.25-.275-.408-.4-.083-.054-.133-.153-.158.017-.013.15-.02.325-.013.454 0 .07.075.2.138.279.832 1.028 1.748 2.08 2.484 3.4.104-.059.071-.65 0-.733h.004z"></path>
        <path fill="#1BA400" d="M5.105 7.849c-.021.037-.067.083-.05.125.033.041.058.054.108.058.041 0 .108.008.12-.017a.133.133 0 0 0 .021-.133c-.041-.116-.174-.075-.2-.033z"></path>
        <path fill="#FFF" d="M14.443 14.62c.37.013.612.017.941.054l.383-.041c.429-.042.45.611.45.611-.005.383-.155.4-.342.441-.108.017-.166-.062-.22-.145a.568.568 0 0 1-.288.016c-.154-.008-.308-.008-.457-.02-.167-.013-.254.02-.417.004-.037.054-.083.125-.179.104-.083-.009-.183-.246-.154-.42.059-.13.042-.088.038-.146-1.515-.038-3.038-.104-4.524-.083-1.165 0-2.31.05-3.454.1-.612-.009-1.082-.109-1.403-.583.03 0 1.561.091 2.006.062.833-.012 1.586-.079 2.43-.104 1.665.03 3.31.03 4.974.146-.158-.108-.166-.366.083-.429.017-.012.03.125.067.125.191-.012.108.25.066.308zM7.768 5.452c-.25.72.142 1.506.416 1.431.2.084.325-.295.408-.707.054-.117.096-.13.125-.07-.008.549.042.67.183.836.168.15.42.155.595.012l.246-.25c.054-.054.125-.058.204-.008.075.07.062.187.224.27.134.055.425.013.491-.103.088-.154.113-.208.154-.267.063-.083.171-.05.171-.02-.008.045-.07.095-.03.178.076.059.097.021.142.009.159-.075.28-.425.28-.425.003-.125-.067-.116-.113-.091l-.125.087c-.083.013-.233.063-.308-.054-.075-.137-.079-.333-.137-.474 0-.009-.1-.221-.004-.233.045.008.15.033.166-.05.05-.084-.108-.32-.216-.442-.092-.1-.225-.112-.35-.008-.083.083-.075.167-.091.254a.4.4 0 0 0 .083.35c.087.17.25.39.195.707 0 0-.095.146-.258.125-.066-.017-.174-.042-.233-.475-.041-.328.009-.786-.129-.998-.05-.134-.083-.258-.208-.034-.033.084-.175.217-.075.491.095.242.124.505.083.762-.058.087-.07.12-.15.208-.103.112-.22.083-.307.042-.084-.054-.15-.084-.188-.262.009-.283.021-.745-.029-.845-.075-.15-.2-.096-.254-.05a1.927 1.927 0 0 0-.466.953c-.07.229-.145.166-.2.07-.128-.124-.137-1.077-.295-.92z"></path>
        <path fill="#FFF" d="M8.526 7.02c.116-.082.062-.137.233.034.22.386.347.818.374 1.261-.012.104.063.167.096.146.016-.242.612-.583 1.153-.633.083-.017.041-.175.054-.258-.034-.3.166-.574.453-.595.383.058.512.262.52.574-.041.604-.67.708-1.023.75-.054.024-.075.05 0 .078l1.477.005.075.041c.008.042-.02.009-.083.104-.063.096-.142.32-.146.466a7.2 7.2 0 0 1-1.357.258c-.158.084-.237.192-.208.313.055.137.412.27.412.278.067.042.146.142-.02.342-.72-.03-1.278-.337-1.47-.77-.058-.042-.124 0-.162.058-.25.385-.612.685-1.036.861-.287.071-.579-.041-.716-.228-.091-.109-.087-.225-.125-.25-.154.066-1.481.632-1.31.37.32-.35.882-.603 1.373-.944.041-.113.104-.5.3-.625.008 0-.034.225-.03.32 0 .08-.004.109.013.088.033-.02.632-.49.678-.637.058-.083.017-.29.017-.3-.108-.29-.267-.311-.325-.457-.054-.191-.029-.408.08-.47.095-.088.207-.08.315.016a.97.97 0 0 1 .263.479c-.021.062-.158-.042-.208-.008a.615.615 0 0 1 .154.312c.083.333.054.458-.021.674-.267.558-.608.728-.908.932-.008.004-.012.146.1.22.042.042.196.059.375 0 .39-.214.704-.542.903-.94.054-.3-.02-.616-.1-.89-.09-.22-.174-.442-.25-.666-.008-.167.005-.225.084-.308h-.004zM4.663 5.465c.167.08.487.042.475-.229l-.008-.129c-.034-.083-.13-.062-.15.025-.009.025.012.071-.013.084-.016.012-.07.004-.066-.071 0-.025-.017-.05-.03-.067-.012-.004-.016-.008-.037-.008-.025 0-.02.008-.037.03l-.013.061c0 .03-.012.038-.033.042-.021 0-.017 0-.033-.008-.013-.013-.025-.017-.025-.038l-.009-.066a.083.083 0 0 0-.041-.025c-.096 0-.1.108-.096.15-.008.004-.013.195.116.25z"></path>
        <path fill="#FFF" d="M9.64 7.57c.167.083.575.033.475-.229l-.008-.125c-.033-.083-.125-.062-.15.021-.004.025.013.07-.012.083-.013.017-.067.009-.067-.066 0-.025-.017-.05-.03-.067-.007-.008-.016-.008-.037-.008-.02 0-.02.004-.033.025l-.012.062c-.004.03-.017.042-.034.042-.025 0-.016 0-.037-.008-.008-.013-.025-.017-.025-.038 0-.02 0-.054-.008-.066-.009-.013-.025-.017-.042-.021-.092 0-.1.104-.096.145-.004.009-.008.196.117.25zm2.906-.874c.166.083.487.046.474-.225l-.008-.129c-.033-.083-.13-.062-.15.021-.008.03.012.071-.012.083-.017.017-.071.009-.067-.066 0-.025-.02-.05-.03-.067-.012-.004-.016-.008-.04-.008-.022 0-.022.008-.034.03l-.013.062c0 .024-.012.037-.033.041-.02 0-.017 0-.033-.012-.013-.009-.025-.017-.025-.034a.194.194 0 0 0-.013-.07c-.008-.013-.02-.017-.041-.021-.092 0-.096.108-.092.145-.008.009-.012.2.117.25zm1.498 2.193c-.291.333-.162.883-.096 1 .1.199.175.324.366.42.175.124.308.045.383-.042.175-.18.175-.641.258-.733.059-.166.2-.137.27-.062.065.09.15.163.25.212.163.142.354.167.546.042a.646.646 0 0 0 .291-.358c.083-.229.042-1.278.02-1.898-.003-.05-.166-.857-.166-.865a9 9 0 0 0-.041-.508c0-.038-.013-.05.029-.042.042.034.05.038.075.05.041.009.083-.066.058-.137l-.408-.75c-.029-.028-.07-.062-.125.013a.291.291 0 0 0-.1.22c.013.18.042.359.055.538l.166.907c.05.65.062 1.178.112 1.831-.008.27-.091.512-.174.541 0 0-.121.075-.2 0-.063-.029-.3-.4-.3-.4-.125-.112-.2-.083-.291 0-.233.23-.341.662-.504.958-.041.066-.162.125-.291-.004-.333-.458-.137-1.1-.179-.933h-.004zM12.62 5.106c.154.063.258.375.224.525-.029.183-.112.387-.166.358-.067-.021.041-.183-.02-.354-.034-.108-.242-.312-.222-.37-.041-.125.092-.18.184-.159z"></path>
        <path fill="#FFF" d="M14.54 9.072c.028-.374-.026-.599-.034-.815-.008-.217-.25-1.873-.291-2.04-.063-.312.228-.041.195-.224-.1-.23-.345-.562-.424-.758-.046-.083-.03-.162-.134-.025-.09.248-.12.513-.091.775.25 1.302.503 2.384.462 3.624.12 0 .258-.27.316-.54v.003zm2.596-3.441c.142.07.22.458.208.566-.029.204-.104.416-.158.391-.054-.025.012-.3-.017-.383-.029-.12-.216-.337-.2-.404-.037-.133.084-.191.167-.166V5.63zM6.828 8.369c.133.054.208.333.195.416-.025.15-.096.308-.146.292-.054-.021.009-.22-.016-.283-.013-.154-.196-.233-.192-.296-.033-.125.08-.145.159-.125V8.37z"></path>
        <path fill="#1B9D00" d="M10.036 8.798c.167.008.254.145.096.2-.158.054-.312.095-.312.324.058.32-.083.208-.167.167-.095-.071-.37-.238-.408-.604-.004-.083.063-.158.171-.158.167.042.408.05.616.07h.004z"></path>
        <path fill="#FFF" d="M3.282 5.015c.195.058.208.345.191.433-.025.154-.096.316-.145.295-.055-.017 0-.225-.025-.291-.03-.092-.196-.258-.175-.308-.042-.1.075-.146.154-.125v-.004zm3.866 1.357c-.15.083-.208.324-.117.466.088.125.225.079.246.079.146.016.233-.28.233-.28s.004-.082-.166.076c-.075.012-.084-.013-.104-.054a.362.362 0 0 1 .025-.233c.024-.071-.034-.104-.117-.054zm1.124-1.47c-.071.055-.225.209-.23.388 0 .1-.02.1.042.166.05.067.1.062.196.012a.208.208 0 0 0 .092-.137c.024-.116-.121.054-.138-.075-.033-.116.058-.166.146-.283 0-.079 0-.133-.104-.07h-.004zm.911.167a2.368 2.368 0 0 0-.067.445c-.025.113.117.158.184.013.095-.262.095-.375.104-.487-.03-.167-.146-.167-.22.025v.004zm5.722 2.909c.017-.02.808-.583.808-.583.079-.025.062.292.025.292a3.134 3.134 0 0 1-.833.578c-.041.025-.079-.216 0-.291v.004zm.716-.004c.138.066.196.474.18.582.003.217-.134.387-.188.358-.058-.025.004-.266-.02-.35-.03-.12-.15-.345-.13-.407-.042-.137.075-.208.158-.183zm-4.678 1.748a.94.94 0 0 1 .225-.196c.08-.042.154.03.15.025.012.08-.05.15-.03.254.018.042.03.087.11.07.124-.095.24-.103.365-.112.096.009.096.167.038.171-.233.05-.333.112-.5.175a.118.118 0 0 1-.145-.017c0-.004-.042-.046-.013-.15.004-.083-.029-.125-.096-.116-.054.025-.1.041-.124-.017-.013-.042-.013-.062.02-.087zm5.506.216c.034.042.059.083 0 .154l-.15.125c-.029.05-.041.116.038.137.146.042.487-.179.487-.183.054-.041.037-.12.03-.12-.03-.038-.105-.017-.15-.021-.026 0-.1-.013-.067-.08.033-.041.041-.066.062-.12.025-.05.004-.083-.079-.112-.083-.013-.117-.005-.208 0-.054.012-.07.033-.083.095.008.092.062.088.125.125h-.005z"></path>
        <path fill="#259F00" d="M10.973 7.65c-.021.04-.096.037-.167 0-.07-.038-.104-.105-.083-.142.02-.038.096-.038.166 0 .071.037.104.104.084.141zM7.38 5.492c-.042.013-.096-.025-.12-.083-.026-.058-.013-.104.028-.116.042-.013.096.029.121.083.025.054.013.108-.029.116z"></path>
        <path fill="#209000" d="M14.485 15.12c.375.016.733.004 1.107.024.07.055.02.2-.025.188l-.316-.009c0-.12-.312-.1-.3.005-.166.02-.316-.005-.483-.013-.05-.062-.041-.17.017-.196z"></path>
      </g>
    </g>
  </symbol>
  <symbol xmlns="http://www.w3.org/2000/svg" viewBox="0 0 24 24" id="zepicons-search">
    <path d="M9.5 3A6.5 6.5 0 0 1 16 9.5c0 1.61-.59 3.09-1.56 4.23l.27.27h.79l5 5-1.5 1.5-5-5v-.79l-.27-.27A6.516 6.516 0 0 1 9.5 16a6.5 6.5 0 1 1 0-13zm0 2C7 5 5 7 5 9.5S7 14 9.5 14 14 12 14 9.5 12 5 9.5 5z"></path>
  </symbol>
  <symbol xmlns="http://www.w3.org/2000/svg" viewBox="0 0 24 24" id="zepicons-settings">
    <path d="M11.73 15.5a3.5 3.5 0 1 1 0-7 3.5 3.5 0 0 1 0 7zm7.43-2.53c.04-.32.07-.64.07-.97 0-.33-.03-.66-.07-1l2.11-1.63c.19-.15.24-.42.12-.64l-2-3.46c-.12-.22-.39-.31-.61-.22l-2.49 1c-.52-.39-1.06-.73-1.69-.98l-.37-2.65a.506.506 0 0 0-.5-.42h-4c-.25 0-.46.18-.5.42l-.37 2.65c-.63.25-1.17.59-1.69.98l-2.49-1c-.22-.09-.49 0-.61.22l-2 3.46c-.13.22-.07.49.12.64L4.3 11c-.04.34-.07.67-.07 1 0 .33.03.65.07.97l-2.11 1.66c-.19.15-.25.42-.12.64l2 3.46c.12.22.39.3.61.22l2.49-1.01c.52.4 1.06.74 1.69.99l.37 2.65c.04.24.25.42.5.42h4c.25 0 .46-.18.5-.42l.37-2.65c.63-.26 1.17-.59 1.69-.99l2.49 1.01c.22.08.49 0 .61-.22l2-3.46c.12-.22.07-.49-.12-.64l-2.11-1.66z"></path>
  </symbol>
  <symbol xmlns="http://www.w3.org/2000/svg" xmlns:xlink="http://www.w3.org/1999/xlink" viewBox="0 0 24 24" id="zepicons-sg">
    <defs>
      <path id="a" d="M.02 0h19.96v19.963H.02z"></path>
    </defs>
    <g fill="none" fill-rule="evenodd" transform="translate(2 2)">
      <mask id="b" fill="#fff">
        <use xlink:href="#a"></use>
      </mask>
      <g fill-rule="nonzero" mask="url(#b)">
        <path fill="#FFF" d="M0 0h30.634v20.424H0z"></path>
        <path fill="#DF0000" d="M0 0h30.634v10.21H0z"></path>
        <path fill="#FFF" d="M7.066 1.712a3.59 3.59 0 0 0 .032 7.029 3.657 3.657 0 1 1-.032-7.03z"></path>
        <path fill="#FFF" d="M5.821 4.68l-.544-.398.677-.005.207-.643.217.643h.674l-.542.403.208.643-.55-.395-.548.398.201-.646zm.75 2.216L6.023 6.5l.677-.006.21-.643.214.64H7.8l-.547.403.21.643-.548-.392-.547.398.202-.646zm2.487-.017l-.548-.398.674-.005.21-.643.214.643h.68l-.544.403.21.643-.55-.395-.548.397.202-.645zm.74-2.196l-.547-.398.677-.005.207-.643.217.64h.674l-.542.403.208.643-.55-.392-.548.398.204-.646zM7.83 3.228l-.548-.398.678-.006.21-.642.213.642h.678l-.548.404.21.64-.547-.392-.548.397.202-.645z"></path>
      </g>
    </g>
  </symbol>
  <symbol xmlns="http://www.w3.org/2000/svg" viewBox="0 0 24 24" id="zepicons-share">
    <path d="M18 16.08c-.76 0-1.44.3-1.96.77L8.91 12.7c.05-.23.09-.46.09-.7 0-.24-.04-.47-.09-.7l7.05-4.11c.54.5 1.25.81 2.04.81a3 3 0 1 0-3-3c0 .24.04.47.09.7L8.04 9.81C7.5 9.31 6.79 9 6 9a3 3 0 0 0 0 6c.79 0 1.5-.31 2.04-.81l7.12 4.15c-.05.21-.08.43-.08.66 0 1.61 1.31 2.91 2.92 2.91a2.915 2.915 0 1 0 0-5.83z"></path>
  </symbol>
  <symbol xmlns="http://www.w3.org/2000/svg" viewBox="0 0 24 24" id="zepicons-show">
    <path d="M12 9a3 3 0 1 0 0 6 3 3 0 0 0 0-6zm0 8a5 5 0 1 1 0-10 5 5 0 0 1 0 10zm0-12.5C7 4.5 2.73 7.61 1 12c1.73 4.39 6 7.5 11 7.5s9.27-3.11 11-7.5c-1.73-4.39-6-7.5-11-7.5z"></path>
  </symbol>
  <symbol xmlns="http://www.w3.org/2000/svg" viewBox="0 0 24 24" id="zepicons-solutions">
    <path d="M19.152 10.742L21 11.827l-9 5.621-9-5.621 1.847-1.085L12 15.211l7.152-4.469zM12 3l9 5.274-9 5.622-9-5.622L12 3zm7.152 11.295L21 15.378 12 21l-9-5.622 1.847-1.083L12 18.762l7.152-4.466v-.001z"></path>
  </symbol>
  <symbol xmlns="http://www.w3.org/2000/svg" viewBox="0 0 24 24" id="zepicons-sort">
    <path d="M3 13h12v-2H3v2zm0-7v2h18V6H3zm0 12h6v-2H3v2z"></path>
  </symbol>
  <symbol xmlns="http://www.w3.org/2000/svg" viewBox="0 0 24 24" id="zepicons-star">
    <path d="M12 18.27L18.18 22l-1.64-7.03L22 10.24l-7.19-.62L12 3 9.19 9.62 2 10.24l5.45 4.73L5.82 22z"></path>
  </symbol>
  <symbol xmlns="http://www.w3.org/2000/svg" viewBox="0 0 24 24" id="zepicons-systems-aviation">
    <path d="M13.865 10.055a4.628 4.628 0 0 0 0 6.502 4.52 4.52 0 0 0 1.732 1.076l.237 1.04L14.517 20l-3.619-6.969-3.618 3.646.332 2.319-.985.992L4.978 17l-2.966-1.662.985-.992 2.301.335 3.619-3.646L2 7.389l1.317-1.327 8.566 1.996 3.619-3.646a1.396 1.396 0 0 1 1.981 0c.546.55.546 1.447 0 1.997l-3.618 3.646zm3.69-1.602A4.888 4.888 0 0 1 20.52 9.85a4.91 4.91 0 0 1 0 6.898 4.797 4.797 0 0 1-3.274 1.422l-.071-.299a4.427 4.427 0 0 0 3.144-1.339c1.78-1.793 1.78-4.697 0-6.478a4.51 4.51 0 0 0-3.026-1.34l.261-.262zm1.297 6.506a.874.874 0 0 1-.869-.874h-1.736c0 .481-.39.874-.868.874a.874.874 0 0 1-.868-.874h-.579v-.875l1.447-1.749h2.894l.868 1.166h.579c.318 0 .578.263.578.583v.875h-.578a.874.874 0 0 1-.868.874zm-1.737-3.06v.728h1.577l-.564-.729h-1.013zm-.434.728v-.729h-1.157l-.579.73h1.736zm-1.302 1.895c.246 0 .434-.19.434-.437a.428.428 0 0 0-.434-.437.428.428 0 0 0-.434.437c0 .248.188.437.434.437zm3.907-.437a.428.428 0 0 0-.434-.437.428.428 0 0 0-.434.437c0 .248.188.437.434.437.245 0 .434-.19.434-.437z"></path>
  </symbol>
  <symbol xmlns="http://www.w3.org/2000/svg" viewBox="0 0 24 24" id="zepicons-systems-products">
    <path fill="#131516" d="M11.94 13.731a2.094 2.094 0 0 1-2.085-2.105c0-1.164.932-2.106 2.085-2.106s2.086.942 2.086 2.106a2.094 2.094 0 0 1-2.086 2.105zm7.472-2.294c.345 0 .684-.038 1.005-.116v2.686h-1.153l-1.53 3.173H17a7.418 7.418 0 0 1-5.06 1.99 7.403 7.403 0 0 1-4.12-1.247l-1.635.947.354.623-.866.502-3.53-6.225.865-.502.488.854 1.182-.68a7.618 7.618 0 0 1-.22-1.821v-.087h-1.43v.72h-.996V5.076h.995v.985h3.846a7.443 7.443 0 0 1 3.01-1.705v-.502h4.108v.507c.34.097.67.217.986.362a4.922 4.922 0 0 0-.368 1.864c0 .469.067.918.19 1.348a4.595 4.595 0 0 0-2.86-.995c-2.564 0-4.64 2.096-4.64 4.685 0 2.588 2.076 4.684 4.64 4.684 2.564 0 4.64-2.096 4.64-4.684 0-.435-.057-.85-.167-1.251a4.774 4.774 0 0 0 3 1.062zm0-7.737c-1.578 0-2.86 1.295-2.86 2.888 0 1.594 1.282 2.888 2.86 2.888 1.579 0 2.86-1.294 2.86-2.888 0-1.593-1.281-2.888-2.86-2.888zm0-.69c1.962 0 3.55 1.598 3.545 3.578 0 1.976-1.588 3.579-3.545 3.579-1.956 0-3.544-1.603-3.544-3.579 0-1.975 1.588-3.578 3.544-3.578zm0 4.143a.569.569 0 0 0 .565-.57.568.568 0 0 0-.565-.57.568.568 0 0 0-.564.57c0 .314.253.57.564.57zm1.201-.41l.34.27a.089.089 0 0 1 .019.107l-.32.565c-.02.033-.068.048-.101.033l-.402-.164a1.394 1.394 0 0 1-.273.16l-.057.43c-.005.038-.043.067-.081.067h-.646a.08.08 0 0 1-.082-.068l-.057-.43a1.189 1.189 0 0 1-.273-.159l-.401.164a.082.082 0 0 1-.1-.033l-.321-.565a.087.087 0 0 1 .019-.107l.34-.27c-.005-.053-.01-.106-.01-.16 0-.053.005-.11.01-.164l-.34-.265a.089.089 0 0 1-.02-.107l.321-.565a.084.084 0 0 1 .1-.033l.402.164c.087-.063.173-.121.273-.16l.057-.43c.005-.038.044-.067.082-.067h.646c.043 0 .076.029.08.068l.058.43c.1.038.187.096.273.159l.402-.164a.082.082 0 0 1 .1.033l.32.565c.02.04.01.083-.018.107l-.34.265c.005.058.01.111.01.165 0 .053-.005.106-.01.159z"></path>
  </symbol>
  <symbol xmlns="http://www.w3.org/2000/svg" viewBox="0 0 24 24" id="zepicons-systems-service">
    <path fill="#131516" d="M18.621 15.92c.413 0 .812-.055 1.193-.16v5.185H2v-8.972l.82-8.256A.793.793 0 0 1 3.606 3h1.243c.404 0 .744.31.785.717l.82 8.256L9.41 9.588c.604-.484 1.497-.05 1.497.726v1.659l2.957-2.385a.917.917 0 0 1 .635-.201 4.577 4.577 0 0 0-.431 1.946c0 2.536 2.04 4.587 4.553 4.587zM7.347 19.15v-1.796H3.782v1.796h3.565zm0-3.587v-1.795H3.782v1.795h3.565zm5.342 3.587v-1.796H9.125v1.796h3.564zm0-3.587v-1.795H9.125v1.795h3.564zm5.343 3.587v-1.796h-3.565v1.796h3.565zm.59-10.549a2.724 2.724 0 0 0-2.713 2.732 2.724 2.724 0 0 0 2.712 2.732 2.724 2.724 0 0 0 2.712-2.732 2.724 2.724 0 0 0-2.712-2.732zm0-.653c1.859 0 3.36 1.516 3.36 3.385 0 1.869-1.506 3.385-3.36 3.385-1.856 0-3.361-1.516-3.361-3.385 0-1.869 1.5-3.385 3.36-3.385zm0 3.92a.535.535 0 0 0 .534-.54.538.538 0 0 0-.535-.539.538.538 0 0 0 0 1.079zm1.138-.389l.322.256a.084.084 0 0 1 .018.1l-.304.535a.08.08 0 0 1-.095.032l-.381-.155c-.082.06-.164.11-.259.15l-.054.407c-.005.037-.041.064-.077.064h-.613a.075.075 0 0 1-.077-.064l-.054-.407a1.128 1.128 0 0 1-.259-.15l-.38.155a.078.078 0 0 1-.096-.032l-.304-.534a.083.083 0 0 1 .019-.101l.322-.256c-.005-.05-.01-.1-.01-.15 0-.05.005-.106.01-.156l-.322-.251a.084.084 0 0 1-.019-.1l.304-.535a.08.08 0 0 1 .095-.032l.381.155a1.1 1.1 0 0 1 .259-.15l.054-.407c.005-.037.041-.064.077-.064h.613c.04 0 .072.027.077.064l.054.406c.095.037.177.092.259.151l.38-.155a.078.078 0 0 1 .096.032l.304.534a.083.083 0 0 1-.018.1l-.322.252c.004.055.009.105.009.155s-.005.1-.01.151z"></path>
  </symbol>
  <symbol xmlns="http://www.w3.org/2000/svg" viewBox="0 0 24 24" id="zepicons-systems-systems">
    <path fill="#231F20" fill-rule="evenodd" d="M15.198 19.246h3.201v-1.695h-3.201v1.695zm0-3.386h3.201v-1.695h-3.201v1.695zm-4.799 0h3.202v-1.695h-3.202v1.695zm0 3.386h3.202v-1.695h-3.202v1.695zM5.601 15.86h3.201v-1.695H5.601v1.695zm0 3.386h3.201v-1.695H5.601v1.695zm13.055-9.027L16 12.471v-1.566c0-.733-.802-1.143-1.344-.686L12 12.471v-1.566c0-.733-.802-1.143-1.344-.686L8 12.471l-.737-7.793C7.226 4.294 6.92 4 6.558 4H5.442c-.363 0-.668.294-.704.678L4 12.47v8.47h16V10.905c0-.733-.802-1.143-1.344-.686z"></path>
  </symbol>
  <symbol xmlns="http://www.w3.org/2000/svg" viewBox="0 0 24 24" id="zepicons-timer">
    <path d="M11 17a1 1 0 1 0 2 0 1 1 0 0 0-2 0zm0-14v4h2V5.08c3.39.49 6 3.39 6 6.92a7 7 0 0 1-14 0c0-1.68.59-3.22 1.58-4.42L12 13l1.41-1.41-6.8-6.8v.02C4.42 6.45 3 9.05 3 12a9 9 0 1 0 9-9h-1zm7 9a1 1 0 1 0-2 0 1 1 0 0 0 2 0zM6 12a1 1 0 1 0 2 0 1 1 0 0 0-2 0z"></path>
  </symbol>
  <symbol xmlns="http://www.w3.org/2000/svg" viewBox="0 0 24 24" id="zepicons-twitter">
    <path d="M22.92 6c-.77.35-1.6.58-2.46.69.88-.53 1.56-1.37 1.88-2.38-.83.5-1.75.85-2.72 1.05C18.83 4.5 17.72 4 16.46 4c-2.35 0-4.27 1.92-4.27 4.29 0 .34.04.67.11.98-3.56-.18-6.73-1.89-8.84-4.48-.37.63-.58 1.37-.58 2.15 0 1.49.75 2.81 1.91 3.56-.71 0-1.37-.2-1.95-.5v.03c0 2.08 1.48 3.82 3.44 4.21a4.22 4.22 0 0 1-1.93.07 4.28 4.28 0 0 0 4 2.98 8.521 8.521 0 0 1-5.33 1.84c-.34 0-.68-.02-1.02-.06C3.9 20.29 6.16 21 8.58 21c7.88 0 12.21-6.54 12.21-12.21 0-.19 0-.37-.01-.56.84-.6 1.56-1.36 2.14-2.23z"></path>
  </symbol>
  <symbol xmlns="http://www.w3.org/2000/svg" viewBox="0 0 24 24" id="zepicons-unfold">
    <path d="M12 18.17L8.83 15l-1.41 1.41L12 21l4.59-4.59L15.17 15 12 18.17zm0-12.34L15.17 9l1.41-1.41L12 3 7.41 7.59 8.83 9 12 5.83z"></path>
  </symbol>
  <symbol xmlns="http://www.w3.org/2000/svg" viewBox="0 0 24 24" id="zepicons-upload">
    <path d="M9 17v-6H5l7-7 7 7h-4v6H9zm-4 4v-2h14v2H5z"></path>
  </symbol>
  <symbol xmlns="http://www.w3.org/2000/svg" viewBox="0 0 24 24" id="zepicons-user-edit">
    <path d="M20.7 13.35l-1 1-2.05-2.05 1-1a.55.55 0 0 1 .77 0l1.28 1.28c.21.21.21.56 0 .77zM11 18.94l6.06-6.06 2.05 2.05L13.06 21H11v-2.06zM11 14c-4.42 0-8 1.79-8 4v2h6v-1.89l4-4c-.66-.08-1.33-.11-2-.11zm0-10a4 4 0 1 0 0 8 4 4 0 0 0 0-8z"></path>
  </symbol>
  <symbol xmlns="http://www.w3.org/2000/svg" viewBox="0 0 24 24" id="zepicons-user">
    <path d="M12 4a4 4 0 1 1 0 8 4 4 0 0 1 0-8zm0 10c4.42 0 8 1.79 8 4v2H4v-2c0-2.21 3.58-4 8-4z"></path>
  </symbol>
  <symbol xmlns="http://www.w3.org/2000/svg" viewBox="0 0 24 24" id="zepicons-users">
    <path d="M16 13c-.29 0-.62 0-.97.05C16.19 13.89 17 15 17 16.5V19h6v-2.5c0-2.33-4.67-3.5-7-3.5zm-8 0c-2.33 0-7 1.17-7 3.5V19h14v-2.5c0-2.33-4.67-3.5-7-3.5zm0-2a3 3 0 1 0 0-6 3 3 0 0 0 0 6zm8 0a3 3 0 1 0 0-6 3 3 0 0 0 0 6z"></path>
  </symbol>
  <symbol xmlns="http://www.w3.org/2000/svg" viewBox="0 0 24 24" id="zepicons-view-grid">
    <path fill-rule="evenodd" d="M1 21h22L12 2 1 21zm12-3h-2v-2h2v2zm0-4h-2v-4h2v4z"></path>
  </symbol>
  <symbol xmlns="http://www.w3.org/2000/svg" viewBox="0 0 24 24" id="zepicons-warning">
    <path d="M15.294 6v5.538H20V6h-4.706zm-5.647 5.538h4.706V6H9.647v5.538zM15.294 18H20v-5.538h-4.706V18zm-5.647 0h4.706v-5.538H9.647V18zM4 18h4.706v-5.538H4V18zm0-6.462h4.706V6H4v5.538z"></path>
  </symbol>
  <symbol xmlns="http://www.w3.org/2000/svg" viewBox="0 0 24 24" id="zepicons-xing">
    <path d="M16.655 2c-.43 0-.62.27-.77.55 0 0-6.22 11.02-6.4 11.38l4.08 7.52c.14.26.36.55.8.55h2.88c.18 0 .31-.07.38-.18.08-.13.08-.29 0-.45l-4.07-7.45 6.39-11.29a.48.48 0 0 0 .01-.45.458.458 0 0 0-.39-.18M4.535 5.95c-.17 0-.32.05-.39.18-.08.13-.07.28.02.44l1.94 3.4-3.06 5.4c-.06.16-.06.32 0 .45.07.12.2.18.37.18h2.89c.43 0 .64-.28.79-.55 0 0 2.99-5.29 3.11-5.5L8.225 6.5c-.14-.26-.36-.55-.81-.55"></path>
  </symbol>
  <symbol xmlns="http://www.w3.org/2000/svg" viewBox="0 0 24 24" id="zepicons-youtube">
    <path d="M10 15l5.19-3L10 9v6zm11.56-7.83c.13.47.22 1.1.28 1.9.07.8.1 1.49.1 2.09L22 12c0 2.19-.16 3.8-.44 4.83-.25.9-.83 1.48-1.73 1.73-.47.13-1.33.22-2.65.28-1.3.07-2.49.1-3.59.1L12 19c-4.19 0-6.8-.16-7.83-.44-.9-.25-1.48-.83-1.73-1.73-.13-.47-.22-1.1-.28-1.9-.07-.8-.1-1.49-.1-2.09L2 12c0-2.19.16-3.8.44-4.83.25-.9.83-1.48 1.73-1.73.47-.13 1.33-.22 2.65-.28 1.3-.07 2.49-.1 3.59-.1L12 5c4.19 0 6.8.16 7.83.44.9.25 1.48.83 1.73 1.73z"></path>
  </symbol>
  <symbol xmlns="http://www.w3.org/2000/svg" viewBox="0 0 24 24" id="zepicons-zoom-in">
    <path d="M15.5 14l5 5-1.5 1.5-5-5v-.79l-.27-.28A6.471 6.471 0 0 1 9.5 16 6.5 6.5 0 1 1 16 9.5c0 1.61-.59 3.09-1.57 4.23l.28.27h.79zm-6 0C12 14 14 12 14 9.5S12 5 9.5 5 5 7 5 9.5 7 14 9.5 14zm2.5-4h-2v2H9v-2H7V9h2V7h1v2h2v1z"></path>
  </symbol>
  <symbol xmlns="http://www.w3.org/2000/svg" viewBox="0 0 24 24" id="zepicons-zoom-out">
    <path d="M15.5 14h-.79l-.28-.27A6.471 6.471 0 0 0 16 9.5 6.5 6.5 0 1 0 9.5 16c1.61 0 3.09-.59 4.23-1.57l.27.28v.79l5 5 1.5-1.5-5-5zm-6 0C7 14 5 12 5 9.5S7 5 9.5 5 14 7 14 9.5 12 14 9.5 14zM7 9h5v1H7V9z"></path>
  </symbol>
  </defs>
</svg>