<!-- Generated by IcoMoon.io -->
<svg version="1.1" xmlns="http://www.w3.org/2000/svg" width="32" height="32" viewBox="0 0 32 32">
<title>zepicons-br</title>
<path fill="#229e45" d="M2.667 2.667h26.667v26.667h-26.667z"></path>
<path fill="#f8e509" d="M16.281 23.781l11.969-7.771-12.043-7.792-12.015 7.812 12.083 7.751z"></path>
<path fill="#2b49a3" d="M21.495 16c0.057 1.846-0.896 3.578-2.487 4.517s-3.567 0.937-5.156-0.005c-1.589-0.942-2.538-2.675-2.477-4.522 0.090-2.731 2.332-4.898 5.065-4.895s4.97 2.174 5.055 4.905v0z"></path>
<path fill="#ffffef" d="M14.766 19.031l-0.156-0.094-0.161 0.083 0.036-0.182-0.125-0.13 0.177-0.021 0.083-0.167 0.078 0.172 0.177 0.031-0.135 0.125zM18.161 19.891l-0.156-0.094-0.167 0.083 0.036-0.182-0.125-0.13 0.182-0.021 0.083-0.167 0.073 0.172 0.177 0.031-0.13 0.125zM16.698 18.516l-0.135-0.078-0.141 0.068 0.031-0.156-0.104-0.115 0.151-0.016 0.073-0.141 0.063 0.146 0.156 0.026-0.115 0.104zM20.125 18.021l-0.135-0.078-0.135 0.068 0.031-0.151-0.104-0.109 0.151-0.021 0.068-0.135 0.068 0.141 0.151 0.026-0.115 0.104zM16.635 16.995l-0.156-0.094-0.161 0.083 0.036-0.182-0.125-0.13 0.177-0.021 0.083-0.161 0.078 0.167 0.177 0.031-0.135 0.125zM12.458 15.427l-0.156-0.094-0.156 0.083 0.031-0.182-0.125-0.13 0.182-0.021 0.083-0.167 0.073 0.172 0.177 0.031-0.13 0.125zM12.964 17.51l-0.156-0.089-0.161 0.078 0.036-0.177-0.125-0.135 0.177-0.021 0.083-0.156 0.078 0.161 0.177 0.036-0.135 0.12zM18.177 14.656l-0.135-0.078-0.146 0.068 0.031-0.156-0.104-0.12 0.156-0.016 0.073-0.146 0.068 0.151 0.156 0.026-0.12 0.109zM17.896 16.016l-0.125-0.068-0.109 0.052 0.021-0.125-0.083-0.089 0.125-0.016 0.057-0.115 0.052 0.12 0.125 0.021-0.094 0.083zM12.219 17.885l-0.104-0.063-0.109 0.052 0.021-0.12-0.083-0.089 0.125-0.010 0.052-0.104 0.052 0.104 0.12 0.026-0.089 0.083zM20.151 18.365l-0.089-0.042-0.089 0.036 0.021-0.089-0.068-0.068 0.099-0.010 0.047-0.078 0.036 0.083 0.099 0.016-0.073 0.063z"></path>
<path fill="#ffffef" d="M12.224 17.891l-0.104-0.063-0.109 0.052 0.025-0.12-0.088-0.088 0.12-0.011 0.057-0.104 0.052 0.104 0.12 0.027-0.089 0.083z"></path>
<path fill="#ffffef" d="M12.224 17.891l-0.104-0.063-0.109 0.052 0.026-0.12-0.089-0.089 0.12-0.010 0.057-0.104 0.052 0.104 0.12 0.026-0.089 0.083zM13.885 17.891l-0.104-0.063-0.104 0.052 0.021-0.12-0.083-0.089 0.12-0.010 0.052-0.109 0.052 0.109 0.12 0.026-0.089 0.083zM13.677 18.448l-0.104-0.063-0.104 0.052 0.021-0.12-0.083-0.089 0.12-0.016 0.052-0.104 0.052 0.104 0.12 0.026-0.089 0.083zM17.135 17.438l-0.104-0.063-0.109 0.052 0.021-0.12-0.083-0.089 0.12-0.010 0.057-0.109 0.052 0.109 0.115 0.021-0.089 0.083zM16.12 17.438l-0.104-0.063-0.109 0.052 0.026-0.12-0.083-0.089 0.12-0.010 0.052-0.109 0.052 0.109 0.12 0.021-0.089 0.083zM13.37 17.083l-0.063-0.036-0.068 0.031 0.010-0.078-0.052-0.052 0.078-0.010 0.036-0.068 0.026 0.073 0.078 0.010-0.052 0.052zM20.021 18.813l-0.104-0.057-0.109 0.052 0.026-0.12-0.083-0.089 0.12-0.016 0.052-0.104 0.052 0.104 0.12 0.026-0.089 0.083zM19.172 18.922l-0.083-0.052-0.089 0.052 0.021-0.104-0.073-0.073 0.104-0.010 0.042-0.089 0.042 0.089 0.104 0.021-0.078 0.068zM19.578 18.917l-0.083-0.052-0.083 0.047 0.016-0.094-0.063-0.068 0.094-0.010 0.042-0.083 0.036 0.083 0.094 0.016-0.068 0.068zM20.719 17.917l-0.078-0.047-0.083 0.042 0.021-0.089-0.063-0.068 0.089-0.010 0.042-0.078 0.036 0.083 0.089 0.016-0.068 0.063zM19.177 19.484l-0.104-0.057-0.104 0.052 0.026-0.115-0.083-0.078 0.115-0.016 0.057-0.099 0.052 0.104 0.109 0.021-0.083 0.073zM19.182 19.938l-0.094-0.052-0.094 0.047 0.021-0.115-0.073-0.078 0.104-0.016 0.052-0.099 0.042 0.104 0.104 0.021-0.078 0.073zM18.411 18.917l-0.078-0.047-0.083 0.042 0.021-0.094-0.063-0.063 0.089-0.010 0.042-0.083 0.036 0.083 0.089 0.016-0.068 0.063zM17.693 18.917l-0.078-0.047-0.083 0.042 0.021-0.094-0.063-0.063 0.089-0.010 0.042-0.083 0.036 0.083 0.089 0.016-0.063 0.063zM16.469 17.844l-0.078-0.047-0.083 0.042 0.021-0.089-0.063-0.068 0.089-0.010 0.042-0.078 0.036 0.083 0.089 0.016-0.068 0.057zM16.604 20.016l-0.068-0.036-0.068 0.036 0.016-0.078-0.052-0.052 0.073-0.016 0.036-0.068 0.031 0.073 0.078 0.010-0.057 0.052zM14.76 16.5l-0.156-0.089-0.161 0.078 0.036-0.177-0.125-0.135 0.177-0.021 0.083-0.161 0.078 0.167 0.177 0.031-0.135 0.125z"></path>
<path fill="#fff" d="M21.161 17.823c0.098-0.255 0.175-0.518 0.229-0.786-2.688-2.365-5.688-3.578-9.479-3.328-0.136 0.265-0.247 0.543-0.333 0.828 3.52-0.355 7.020 0.843 9.583 3.281v0.005z"></path>
<path fill="#309e3a" d="M19.953 16.49l0.094 0.052c-0.015 0.029-0.018 0.062-0.010 0.094 0.005 0.021 0.026 0.047 0.052 0.063 0.031 0.021 0.057 0.031 0.083 0.031 0.021 0 0.042-0.016 0.052-0.031 0.005-0.010 0.010-0.021 0.005-0.036l-0.016-0.042-0.063-0.068c-0.033-0.034-0.058-0.075-0.073-0.12-0.019-0.070 0.017-0.143 0.083-0.172 0.028-0.012 0.059-0.016 0.089-0.010 0.038 0.008 0.073 0.024 0.104 0.047 0.045 0.032 0.081 0.075 0.104 0.125 0.013 0.047 0.003 0.097-0.026 0.135l-0.094-0.057c0.010-0.026 0.016-0.052 0.010-0.073-0.005-0.016-0.026-0.036-0.052-0.052-0.026-0.021-0.052-0.026-0.073-0.026-0.012 0-0.024 0.006-0.031 0.016-0.007 0.011-0.009 0.024-0.005 0.036 0 0.021 0.026 0.052 0.063 0.089l0.078 0.104c0.029 0.053 0.025 0.118-0.010 0.167-0.018 0.026-0.044 0.046-0.073 0.057-0.031 0.014-0.066 0.018-0.099 0.010-0.040-0.010-0.077-0.028-0.109-0.052-0.049-0.030-0.086-0.076-0.104-0.13-0.016-0.047-0.010-0.099 0.021-0.156v0zM19.495 16.193l0.104 0.052c-0.012 0.026-0.016 0.055-0.010 0.083 0.005 0.026 0.026 0.052 0.052 0.068 0.031 0.021 0.057 0.026 0.083 0.021 0.021 0 0.042-0.010 0.052-0.031 0.005-0.010 0.007-0.021 0.005-0.031 0-0.016-0.005-0.026-0.021-0.042l-0.063-0.068c-0.034-0.032-0.061-0.071-0.078-0.115-0.014-0.042-0.008-0.088 0.016-0.125 0.015-0.023 0.037-0.041 0.063-0.052 0.028-0.012 0.059-0.016 0.089-0.010 0.031 0 0.063 0.016 0.104 0.042 0.052 0.036 0.094 0.073 0.104 0.12 0.016 0.045 0.010 0.095-0.016 0.135l-0.099-0.057c0.016-0.026 0.016-0.052 0.010-0.068-0.010-0.021-0.026-0.036-0.052-0.052-0.022-0.017-0.050-0.026-0.078-0.026-0.013 0.002-0.025 0.009-0.031 0.021s-0.006 0.025 0 0.036c0 0.016 0.026 0.047 0.063 0.089 0.042 0.036 0.068 0.073 0.083 0.094 0.033 0.053 0.031 0.121-0.005 0.172-0.036 0.055-0.102 0.084-0.167 0.073-0.041-0.008-0.080-0.024-0.115-0.047-0.050-0.028-0.089-0.072-0.109-0.125-0.015-0.052-0.009-0.108 0.016-0.156zM18.932 16.036l0.292-0.469 0.349 0.208-0.052 0.083-0.25-0.156-0.068 0.104 0.24 0.146-0.052 0.083-0.234-0.146-0.078 0.13 0.26 0.156-0.047 0.083-0.359-0.219v-0.005zM18.109 15.365l0.047-0.083 0.208 0.115-0.099 0.193c-0.084 0.019-0.173 0.008-0.25-0.031-0.047-0.024-0.086-0.060-0.115-0.104-0.028-0.040-0.042-0.087-0.042-0.135 0-0.052 0.016-0.099 0.042-0.146 0.024-0.048 0.060-0.089 0.104-0.12 0.036-0.031 0.089-0.047 0.141-0.047 0.036 0 0.083 0.016 0.13 0.036 0.051 0.024 0.093 0.064 0.12 0.115 0.021 0.042 0.026 0.089 0.016 0.141l-0.109-0.031c0.006-0.026 0.002-0.054-0.010-0.078-0.014-0.026-0.036-0.046-0.063-0.057-0.037-0.023-0.083-0.029-0.125-0.016-0.036 0.016-0.073 0.052-0.104 0.104-0.025 0.048-0.035 0.103-0.026 0.156 0.010 0.042 0.036 0.073 0.083 0.094l0.068 0.021h0.068l0.031-0.063-0.115-0.063zM14.526 14.479l0.083-0.552 0.167 0.026 0.042 0.391 0.156-0.365 0.161 0.026-0.078 0.552-0.104-0.016 0.063-0.432-0.172 0.417-0.104-0.016-0.047-0.453-0.063 0.438-0.104-0.016zM13.969 14.411l0.052-0.552 0.406 0.036-0.005 0.094-0.302-0.026-0.010 0.12 0.276 0.026-0.005 0.094-0.276-0.026-0.016 0.156 0.307 0.026-0.010 0.094-0.417-0.042z"></path>
<path fill="#309e3a" d="M12.142 14.404c0-0.111 0.024-0.222 0.061-0.3l0.121-0.156 0.182-0.111c0.090-0.028 0.184-0.040 0.279-0.033 0.17-0.001 0.333 0.063 0.448 0.178 0.121 0.111 0.158 0.256 0.158 0.444 0 0.2-0.073 0.344-0.182 0.444-0.123 0.109-0.29 0.166-0.461 0.156-0.168 0.004-0.331-0.056-0.448-0.167-0.121-0.12-0.179-0.282-0.158-0.444v-0.011z"></path>
<path fill="#f7ffff" d="M12.409 14.404c0 0.133 0.024 0.244 0.097 0.311 0.061 0.078 0.145 0.111 0.242 0.111 0.1 0.002 0.197-0.034 0.267-0.1 0.061-0.067 0.097-0.167 0.109-0.3 0-0.144-0.024-0.244-0.097-0.311-0.059-0.067-0.148-0.108-0.242-0.111-0.121 0-0.206 0.033-0.267 0.1-0.073 0.067-0.109 0.167-0.121 0.3h0.012z"></path>
<path fill="#309e3a" d="M12.771 15.027l0.013-1.189h0.6c0.16 0 0.267 0.022 0.333 0.044s0.133 0.056 0.16 0.111c0.027 0.056 0.067 0.111 0.067 0.189 0 0.089-0.040 0.156-0.093 0.222-0.067 0.056-0.16 0.089-0.293 0.111 0.067 0.022 0.12 0.056 0.16 0.089l0.16 0.2 0.173 0.222h-0.347l-0.2-0.256c-0.049-0.062-0.102-0.121-0.16-0.178-0.022-0.020-0.050-0.035-0.080-0.044-0.043-0.013-0.088-0.020-0.133-0.022h-0.067v0.5h-0.293z"></path>
<path fill="#fff" d="M13.064 14.338h0.213c0.089 0.009 0.178 0.009 0.267 0l0.067-0.056c0.027-0.022 0.040-0.056 0.040-0.089 0-0.044-0.013-0.078-0.040-0.1-0.028-0.025-0.066-0.041-0.107-0.044h-0.427v0.289h-0.013z"></path>
<path fill="#309e3a" d="M13.504 13.836l0.52 0.022c0.090 0.001 0.18 0.012 0.267 0.033 0.076 0.024 0.144 0.062 0.2 0.111 0.062 0.062 0.108 0.134 0.133 0.211 0.027 0.078 0.027 0.167 0.027 0.278 0.008 0.172-0.075 0.339-0.227 0.456-0.053 0.033-0.12 0.067-0.2 0.089h-0.267l-0.533-0.011 0.080-1.189z"></path>
<path fill="#fff" d="M13.771 14.047l-0.040 0.778 0.213 0.022h0.173l0.12-0.056c0.040-0.022 0.053-0.056 0.080-0.111l0.040-0.222-0.013-0.2c-0.027-0.056-0.040-0.089-0.080-0.111-0.036-0.033-0.082-0.056-0.133-0.067-0.075-0.013-0.15-0.020-0.227-0.022h-0.133v-0.011z"></path>
<path fill="#309e3a" d="M16.165 15.485l0.303-1.156 0.4 0.089c0.158 0.033 0.255 0.067 0.303 0.089 0.061 0.033 0.121 0.078 0.145 0.144 0.036 0.078 0.036 0.156 0.012 0.244-0.022 0.117-0.11 0.214-0.23 0.256-0.042 0.019-0.087 0.030-0.133 0.033-0.090-0.007-0.179-0.022-0.267-0.044l-0.17-0.033-0.121 0.433-0.242-0.056z"></path>
<path fill="#fff" d="M16.662 14.585l-0.085 0.333 0.145 0.022c0.097 0.022 0.17 0.033 0.206 0.022 0.069-0.007 0.126-0.050 0.145-0.111l-0.012-0.122c-0.021-0.036-0.055-0.064-0.097-0.078l-0.182-0.044-0.121-0.022z"></path>
<path fill="#309e3a" d="M16.67 15.418l0.389-0.962 0.478 0.143c0.087 0.021 0.169 0.053 0.244 0.095 0.044 0.038 0.078 0.086 0.1 0.143s0 0.105-0.022 0.162c-0.022 0.076-0.078 0.124-0.144 0.152-0.077 0.039-0.169 0.049-0.256 0.029l0.089 0.114 0.067 0.19 0.056 0.229-0.267-0.076-0.078-0.257c-0.017-0.062-0.040-0.122-0.067-0.181-0.010-0.022-0.025-0.041-0.044-0.057-0.034-0.021-0.071-0.037-0.111-0.048l-0.044-0.010-0.167 0.4-0.222-0.067z"></path>
<path fill="#fff" d="M17.114 14.933l0.167 0.048 0.211 0.048c0.033 0 0.056 0 0.078-0.019l0.056-0.067v-0.095c-0.014-0.025-0.038-0.045-0.067-0.057l-0.167-0.048-0.178-0.057-0.1 0.248z"></path>
<path fill="#309e3a" d="M17.351 15.242c0.028-0.102 0.077-0.196 0.144-0.278 0.033-0.056 0.089-0.089 0.144-0.122 0.055-0.030 0.115-0.049 0.178-0.056 0.078 0 0.167 0 0.256 0.033 0.152 0.038 0.282 0.139 0.356 0.278 0.067 0.133 0.078 0.3 0.011 0.478-0.037 0.161-0.137 0.301-0.278 0.389-0.139 0.069-0.3 0.077-0.444 0.022-0.152-0.038-0.282-0.139-0.356-0.278-0.065-0.148-0.069-0.316-0.011-0.467v0z"></path>
<path fill="#fff" d="M17.584 15.308c-0.033 0.122-0.033 0.222 0 0.311 0.044 0.089 0.111 0.144 0.2 0.178 0.089 0.022 0.167 0.011 0.244-0.033s0.144-0.133 0.189-0.267c0.033-0.133 0.033-0.233 0-0.322-0.038-0.083-0.111-0.144-0.2-0.167-0.086-0.028-0.18-0.016-0.256 0.033-0.078 0.044-0.133 0.133-0.178 0.267v0z"></path>
<path fill="#309e3a" d="M18.416 16.090l0.503-0.844 0.41 0.178c0.103 0.053 0.174 0.089 0.205 0.124 0.041 0.044 0.062 0.089 0.072 0.133s0 0.107-0.041 0.151c-0.031 0.062-0.082 0.107-0.154 0.133-0.072 0.018-0.144 0.018-0.236-0.009 0.031 0.036 0.051 0.080 0.062 0.116l0.031 0.187 0.020 0.222-0.236-0.107-0.031-0.249-0.031-0.178c-0.009-0.020-0.023-0.039-0.041-0.053-0.027-0.022-0.059-0.040-0.092-0.053l-0.041-0.018-0.205 0.356-0.195-0.089z"></path>
<path fill="#fff" d="M18.898 15.69l0.144 0.062 0.185 0.071c0.031 0 0.051 0 0.072-0.018 0.057-0.025 0.089-0.078 0.082-0.133-0.011-0.027-0.033-0.049-0.062-0.062-0.043-0.025-0.088-0.049-0.133-0.071l-0.154-0.062-0.133 0.213z"></path>
<path fill="#309e3a" d="M20.52 16.94c0.073-0.111 0.145-0.178 0.242-0.222 0.059-0.036 0.125-0.062 0.194-0.078 0.064-0.011 0.13-0.011 0.194 0 0.085 0.011 0.182 0.044 0.267 0.111 0.145 0.081 0.246 0.214 0.279 0.367 0.018 0.162-0.030 0.324-0.133 0.456-0.093 0.145-0.246 0.249-0.424 0.289-0.166 0.028-0.337-0.008-0.473-0.1-0.145-0.081-0.246-0.214-0.279-0.367-0.027-0.161 0.016-0.325 0.121-0.456h0.012z"></path>
<path fill="#fff" d="M20.738 17.062c-0.073 0.111-0.109 0.222-0.097 0.311 0.017 0.091 0.074 0.171 0.158 0.222 0.078 0.049 0.175 0.066 0.267 0.044 0.097-0.022 0.194-0.089 0.279-0.211 0.085-0.111 0.121-0.211 0.097-0.3 0-0.089-0.061-0.156-0.145-0.222s-0.182-0.067-0.279-0.044c-0.097 0.022-0.182 0.089-0.267 0.2h-0.012z"></path>
<path fill="#309e3a" d="M15.5 14.593l0.088-0.396 0.292 0.068-0.016 0.068-0.208-0.052-0.020 0.088 0.192 0.048-0.016 0.067-0.192-0.052-0.027 0.109 0.219 0.052-0.015 0.068-0.297-0.068z"></path>
</svg>
