<svg xmlns="http://www.w3.org/2000/svg" width="32" height="32" viewBox="0 0 32 32">
<title>zepicons-magnifier</title>
  <g fill-rule="evenodd">
    <path fill-rule="nonzero" d="M7.96618846,1.04100421 C1.31624037,3.86788184 -1.78424433,11.5512258 1.04236812,18.2005501 C3.86921517,24.8504263 11.5525592,27.950911 18.2018835,25.1242985 C24.8517596,22.2974515 27.9522443,14.6141075 25.1256319,7.9647832 C22.2986981,1.31470302 14.6166028,-1.78545796 7.96618846,1.04100421 Z M23.2850348,8.7472168 C25.6794847,14.3799218 23.0528779,20.8889442 17.4194499,23.2837015 C11.7867448,25.6781514 5.27772249,23.0515445 2.88296522,17.4181165 C0.488515268,11.7854115 3.11512215,5.27638915 8.74855013,2.88163188 C14.3823113,0.487252832 20.8901735,3.1135442 23.2850348,8.7472168 Z"/>
    <path fill-rule="nonzero" d="M20.9209435,20.9195096 C21.2759909,20.5645128 21.8315447,20.5322775 22.2230061,20.822778 L22.3351571,20.9196102 L31.7071571,30.2929435 C32.0976536,30.6834956 32.0976086,31.3166606 31.7070565,31.7071571 C31.3520091,32.0621539 30.7964553,32.0943891 30.4049939,31.8038887 L30.2928429,31.7070565 L20.9208429,22.3337232 C20.5303464,21.9431711 20.5303914,21.3100061 20.9209435,20.9195096 Z"/>
  </g>
</svg>
