<!-- Generated by IcoMoon.io -->
<svg version="1.1" xmlns="http://www.w3.org/2000/svg" width="32" height="32" viewBox="0 0 32 32">
<title>zepicons-calendar-clock</title>
<path d="M18.667 17.333h2v3.76l3.253 1.88-1 1.733-4.253-2.453v-4.92zM24 10.667h-18.667v14.667h6.227c-0.573-1.213-0.893-2.573-0.893-4 0-5.155 4.179-9.333 9.333-9.333 1.427 0 2.787 0.32 4 0.893v-2.227zM5.333 28c-1.48 0-2.667-1.2-2.667-2.667v-18.667c0-1.48 1.187-2.667 2.667-2.667h1.333v-2.667h2.667v2.667h10.667v-2.667h2.667v2.667h1.333c1.473 0 2.667 1.194 2.667 2.667v8.133c1.653 1.68 2.667 3.987 2.667 6.533 0 5.155-4.179 9.333-9.333 9.333-2.547 0-4.853-1.013-6.533-2.667h-8.133zM20 14.867c-3.571 0-6.467 2.895-6.467 6.467 0 3.573 2.893 6.467 6.467 6.467 1.715 0 3.36-0.681 4.573-1.894s1.894-2.858 1.894-4.573c0-3.573-2.893-6.467-6.467-6.467z"></path>
</svg>
