<!-- Generated by IcoMoon.io -->
<svg version="1.1" xmlns="http://www.w3.org/2000/svg" width="32" height="32" viewBox="0 0 32 32">
<title>zepicons-systems-aviation</title>
<path d="M18.486 13.406c-2.373 2.391-2.373 6.28 0 8.67 0.68 0.669 1.487 1.163 2.31 1.434l0.316 1.387-1.756 1.769-4.825-9.292-4.825 4.861 0.443 3.092-1.313 1.323-2.199-3.985-3.955-2.215 1.313-1.323 3.069 0.446 4.825-4.861-9.223-4.861 1.756-1.769 11.422 2.662 4.825-4.861c0.728-0.733 1.914-0.733 2.642 0s0.728 1.929 0 2.662l-4.825 4.861zM23.406 11.27c1.44 0.143 2.847 0.765 3.955 1.865 2.515 2.534 2.515 6.662 0 9.196-1.202 1.211-2.768 1.849-4.366 1.897l-0.095-0.398c1.534-0.016 3.037-0.606 4.192-1.785 2.373-2.391 2.373-6.264 0-8.639-1.123-1.132-2.563-1.721-4.034-1.785l0.348-0.351zM25.135 19.946c-0.637 0-1.157-0.525-1.157-1.166h-2.315c0 0.641-0.521 1.166-1.157 1.166s-1.157-0.525-1.157-1.166h-0.772v-1.166l1.929-2.332h3.858l1.157 1.555h0.772c0.425 0 0.772 0.35 0.772 0.777v1.166h-0.772c0 0.641-0.521 1.166-1.157 1.166zM22.82 15.864v0.972h2.103l-0.752-0.972h-1.35zM22.242 16.836v-0.972h-1.543l-0.772 0.972h2.315zM20.505 19.363c0.328 0 0.579-0.253 0.579-0.583s-0.251-0.583-0.579-0.583c-0.328 0-0.579 0.253-0.579 0.583s0.251 0.583 0.579 0.583zM25.714 18.78c0-0.33-0.251-0.583-0.579-0.583s-0.579 0.253-0.579 0.583 0.251 0.583 0.579 0.583c0.328 0 0.579-0.253 0.579-0.583z"></path>
</svg>
