<!-- Generated by IcoMoon.io -->
<svg version="1.1" xmlns="http://www.w3.org/2000/svg" width="32" height="32" viewBox="0 0 32 32">
<title>zepicons-gb</title>
<path fill="#d8d8d8" d="M2.667 2.667h26.667v26.667h-26.667v-26.667z"></path>
<path fill="#012169" d="M-11.333 2.667h54.613v27.307h-54.613z"></path>
<path fill="#fff" d="M-11.333 2.667v3.053l48.508 24.254h6.106v-3.053l-48.508-24.248-6.106-0.005zM43.28 2.667v3.053l-48.508 24.254h-6.106v-3.053l48.508-24.254h6.106z"></path>
<path fill="#fff" d="M11.424 2.667v27.307h9.099v-27.307h-9.099zM-11.333 11.771v9.099h54.613v-9.099h-54.613z"></path>
<path fill="#c8102e" d="M-11.333 13.589v5.461h54.613v-5.461h-54.613zM13.243 2.667v27.307h5.461v-27.307h-5.461zM-11.333 29.973l18.203-9.104h4.080l-18.214 9.104h-4.069zM-11.333 2.667l18.203 9.104h-4.069l-14.134-7.067v-2.037zM21.003 11.771l18.208-9.104h4.069l-18.203 9.104h-4.074zM43.285 29.973l-18.214-9.104h4.069l14.139 7.067v2.037h0.005z"></path>
</svg>
