<svg xmlns="http://www.w3.org/2000/svg" width="32" height="32" viewBox="0 0 32 32">
<title>zepicons-account</title>
  <g fill="none" fill-rule="evenodd">
    <rect width="32" height="32"/>
    <path fill-rule="nonzero" d="M16.6666667,17.3333333 C23.6628416,17.3333333 29.3333333,22.8759193 29.3333333,29.7142857 C29.3333333,30.2402712 28.897098,30.6666667 28.3589744,30.6666667 L28.3589744,30.6666667 L4.97435897,30.6666667 C4.43623537,30.6666667 4,30.2402712 4,29.7142857 C4,22.8759193 9.67049178,17.3333333 16.6666667,17.3333333 Z M16.6666667,19.2380952 C11.0756239,19.2380952 6.48529407,23.4212766 5.99251373,28.7606563 L5.99251373,28.7606563 L27.3404444,28.7619048 C26.8577016,23.5259703 22.436147,19.4025861 16.994374,19.2428973 L16.994374,19.2428973 Z M16,1.33333333 C20.1539573,1.33333333 23.5676617,4.49803903 23.9619883,8.5483254 L23.9229656,8.44143842 C23.9932846,8.60308436 24.0138041,8.77356958 23.9912739,8.9360901 C23.9967396,9.06743351 24,9.2000021 24,9.33333333 C24,13.7521667 20.4188334,17.3333333 16,17.3333333 C11.5811666,17.3333333 8,13.7521667 8,9.33333333 C8,4.91449997 11.5811666,1.33333333 16,1.33333333 Z M10.2036269,7.49457762 L10.1773762,7.57714621 C10.0099687,8.13313433 9.92,8.72270667 9.92,9.33333333 C9.92,12.69178 12.6415534,15.4133333 16,15.4133333 C19.0752374,15.4133333 21.6164677,13.1314299 22.0231902,10.1681238 C20.8879549,10.4994152 19.7085648,10.6676072 18.5207746,10.6666667 C15.4372176,10.6678913 12.4745974,9.53053295 10.2036269,7.49457762 Z M16,3.25333333 C13.9808493,3.25333333 12.1919103,4.2370667 11.0862119,5.75150435 L10.952014,5.61863283 C12.9325563,7.65419928 15.6651717,8.8038701 18.5211504,8.80273318 C19.7008132,8.80366955 20.8699351,8.60821135 21.9797556,8.22621669 C21.4590391,5.39650562 18.9802903,3.25333333 16,3.25333333 Z"/>
  </g>
</svg>
