<?xml version="1.0"?>
<!--Icons from directory ""-->
<svg xmlns="http://www.w3.org/2000/svg" width="24" height="2040" viewBox="0 0 24 2040"><svg width="24" height="24" id="icon-arrow-chevron-down" y="0"><path d="M12 14.743a.962.962 0 01-.585-.199l-.095-.083-4.137-4.137a.625.625 0 01.797-.956l.087.072L12 13.374l3.933-3.934a.625.625 0 01.797-.072l.087.072a.625.625 0 01.072.798l-.072.086-4.136 4.136a.962.962 0 01-.681.283z" fill="#000" fill-rule="evenodd" fill-opacity=".84"/></svg><svg width="24" height="24" id="icon-arrow-chevron-left" y="24"><path d="M9.257 12c0-.213.07-.418.199-.585l.083-.095 4.137-4.137a.625.625 0 01.956.797l-.072.087L10.626 12l3.934 3.933a.625.625 0 01.072.797l-.072.087a.625.625 0 01-.798.072l-.086-.072L9.54 12.68A.962.962 0 019.257 12z" fill="#000" fill-rule="evenodd" fill-opacity=".84"/></svg><svg width="24" height="24" id="icon-arrow-chevron-right" y="48"><path d="M14.743 12c0 .213-.07.418-.199.585l-.083.095-4.137 4.137a.625.625 0 01-.956-.797l.072-.087L13.374 12 9.44 8.067a.625.625 0 01-.072-.797l.072-.087a.625.625 0 01.798-.072l.086.072 4.136 4.136c.181.18.283.426.283.681z" fill="#000" fill-rule="evenodd" fill-opacity=".84"/></svg><svg width="24" height="24" id="icon-arrow-chevron-up" y="72"><path d="M12 9.257c.213 0 .418.07.585.199l.095.083 4.137 4.137a.625.625 0 01-.797.956l-.087-.072L12 10.626 8.067 14.56a.625.625 0 01-.797.072l-.087-.072a.625.625 0 01-.072-.798l.072-.086L11.32 9.54A.962.962 0 0112 9.257z" fill="#000" fill-rule="evenodd" fill-opacity=".84"/></svg><svg width="24" height="24" id="icon-arrow-down" y="96"><path d="M2.183 7.5a.625.625 0 01.797-.072l.087.072 8.932 8.932L20.933 7.5a.625.625 0 01.797-.072l.087.072a.625.625 0 01.072.798l-.072.086-8.933 8.932a1.25 1.25 0 01-1.662.095l-.106-.094-8.933-8.933a.625.625 0 010-.884z" fill="#000" fill-rule="evenodd" fill-opacity=".84"/></svg><svg width="24" height="24" id="icon-arrow-left" y="120"><path d="M15.62 2.183a.625.625 0 01.956.797l-.073.087L7.57 12l8.933 8.933a.625.625 0 01.073.797l-.073.087a.625.625 0 01-.797.072l-.086-.072-8.933-8.933a1.25 1.25 0 01-.095-1.662l.094-.106 8.934-8.933z" fill="#000" fill-rule="evenodd" fill-opacity=".84"/></svg><svg width="24" height="24" id="icon-arrow-right" y="144"><path d="M7.503 2.183a.625.625 0 01.797-.072l.087.072 8.933 8.933a1.25 1.25 0 01.094 1.662l-.094.106-8.933 8.933a.625.625 0 01-.956-.797l.072-.087L16.436 12 7.503 3.067a.625.625 0 01-.072-.797l.072-.087z" fill="#000" fill-rule="evenodd" fill-opacity=".84"/></svg><svg width="24" height="24" id="icon-arrow-up" y="168"><path d="M3.067 16.5a.625.625 0 01-.956-.798l.072-.086 8.933-8.932a1.25 1.25 0 011.662-.095l.106.094 8.933 8.933a.625.625 0 01-.797.956l-.087-.072L12 7.567 3.067 16.5z" fill="#000" fill-rule="evenodd" fill-opacity=".84"/></svg><svg width="24" height="24" id="icon-communication-email" y="192"><path d="M21.375 5.125c.314 0 .574.231.618.533L22 5.75v12.5a.625.625 0 01-.533.618l-.092.007H2.625a.625.625 0 01-.618-.533L2 18.25V5.75c0-.314.231-.574.533-.618l.092-.007h18.75zm-.625 2.03l-4.681 3.228 2.605 2.408a.625.625 0 01-.768.98l-.08-.062-2.811-2.599-1.52 1.05a2.63 2.63 0 01-2.827.103l-.162-.103-1.521-1.05-2.81 2.599a.625.625 0 01-.918-.843l.069-.075 2.604-2.408-4.68-3.228v10.47h17.5V7.155zm-1.071-.78H4.32l6.896 4.756a1.38 1.38 0 001.447.074l.121-.075 6.895-4.755z" fill="#000" fill-rule="evenodd" fill-opacity=".84"/></svg><svg width="24" height="24" id="icon-communication-phone" y="216"><path d="M4.18 2.641a2.163 2.163 0 013.057 0l2.716 2.72a2.16 2.16 0 01.023 3.034l-.085.093a.913.913 0 00.063 1.22l4.348 4.35a.91.91 0 001.313-.022l.14-.126a2.164 2.164 0 012.894.148l2.718 2.716a2.163 2.163 0 010 3.058l-.645.645c-1.736 1.736-4.444 2.033-6.494.727l-.045-.028A42.242 42.242 0 012.833 9.822l-.14-.23a5.238 5.238 0 01.84-6.306zm2.173.885a.913.913 0 00-1.29 0l-.645.644a3.984 3.984 0 00-.552 4.948l.388.564a40.96 40.96 0 0010.594 10.436l.215.13a3.986 3.986 0 004.775-.655l.645-.645a.913.913 0 000-1.29l-2.717-2.716c-.332-.331-.86-.357-1.197-.084l-.234.212a2.16 2.16 0 01-2.917-.128l-4.349-4.35a2.17 2.17 0 01-.127-2.917l.207-.23a.91.91 0 00-.08-1.2z" fill="#000" fill-rule="evenodd" fill-opacity=".84"/></svg><svg width="24" height="24" id="icon-ecom-cart" y="240"><path d="M8.563 19.688l.109.006a.938.938 0 11-.11-.006zm6.25 0l.109.006a.938.938 0 11-.11-.006zM20.75 2.814a.625.625 0 01.092 1.243l-.092.007h-.82a.625.625 0 00-.592.423l-.024.097L17.116 17.5a1.875 1.875 0 01-1.689 1.555l-.16.006H7a.625.625 0 01-.092-1.243L7 17.813h8.268a.625.625 0 00.591-.424l.025-.097.336-1.98H6.902a3.125 3.125 0 01-2.981-2.187l-.05-.18-1.209-4.832a1.25 1.25 0 011.07-1.546l.143-.008h13.834l.372-2.184a1.875 1.875 0 011.69-1.553l.159-.007h.82zm-3.253 4.994H3.875l1.208 4.833a1.875 1.875 0 001.659 1.414l.16.007 9.531-.001 1.064-6.253z" fill="#000" fill-rule="evenodd" fill-opacity=".84"/></svg><svg width="24" height="24" id="icon-ecom-offer" y="264"><path d="M16.25 2a.625.625 0 01.092 1.243l-.092.007-6.099-.001 1.263 8.833c.044.311-.148.6-.44.688l-.09.02a.625.625 0 01-.688-.44l-.005-.022-.704.877c-.29.362-.708.596-1.179.656l-.179.014h-.362l-.001 4.922.01.008c1.608 1.19 2.925 1.874 3.715 1.94l.12.005h5.345l.186-.006c.208-.014.273-.062.339-.221l.052-.14a52.48 52.48 0 00.86-6.262c0-.064-.081-.147-.267-.198h-.016a1.172 1.172 0 00-.262-.043l-.137-.005h-4.943a.625.625 0 01-.093-1.243l.092-.007h.074l-.693-6.941a1.042 1.042 0 01.913-1.145l.125-.007h5.743a1.042 1.042 0 011.053 1.07l-.011.128-1.078 7.184c.463.268.749.706.748 1.254a52.938 52.938 0 01-.902 6.534c-.318.955-.804 1.262-1.723 1.295L16.84 22h-5.227c-.975 0-2.277-.59-3.846-1.666v.557a1.028 1.028 0 01-.924 1.11l-.116.003H4.643a.625.625 0 01-.093-1.243l.093-.007h1.874l.002-7.463H4.642a.625.625 0 01-.618-.532l-.006-.092c0-.346.28-.625.625-.625h2.059a1.028 1.028 0 01.968.583h.438a.542.542 0 00.34-.134l.065-.068 1.431-1.784-1.058-7.407a1.08 1.08 0 01.936-1.224L9.955 2h6.295zm2.448 3.781h-5.284l.684 6.844h3.574l1.026-6.844zm-2.775 2.778a.938.938 0 11-.947.941c0-.444.308-.816.722-.913l.133-.022.092-.006z" fill="#000" fill-rule="evenodd" fill-opacity=".84"/></svg><svg width="24" height="24" id="icon-essential-add" y="288"><path d="M12 2c.314 0 .574.231.618.533l.007.092v8.749l8.75.001a.625.625 0 01.092 1.243l-.092.007-8.75-.001v8.751a.625.625 0 01-1.243.092l-.007-.092v-8.751l-8.75.001a.625.625 0 01-.092-1.243l.092-.007 8.75-.001V2.625c0-.345.28-.625.625-.625z" fill="#000" fill-rule="evenodd" fill-opacity=".84"/></svg><svg width="24" height="24" id="icon-essential-avatar" y="312"><path d="M12 12.625a8.75 8.75 0 018.75 8.75.625.625 0 11-1.25 0 7.5 7.5 0 00-15 0 .625.625 0 11-1.25 0 8.75 8.75 0 018.75-8.75zM12 2a5 5 0 110 10 5 5 0 010-10zM8.439 5.822l-.01.029a3.75 3.75 0 107.31 1.437 7.884 7.884 0 01-7.3-1.466zM12 3.25c-1.2 0-2.27.564-2.956 1.442a6.646 6.646 0 006.575 1.322A3.752 3.752 0 0012 3.25z" fill="#000" fill-rule="evenodd" fill-opacity=".84"/></svg><svg width="24" height="24" id="icon-essential-check-small" y="336"><path d="M20.804 3.815a.625.625 0 011.022.713l-.058.083L9.33 19.667a2.054 2.054 0 01-3.094.081l-.11-.129-3.905-5.022a.625.625 0 01.918-.843l.069.075 3.905 5.023a.804.804 0 001.183.094l.07-.075L20.805 3.815z" fill="#000" fill-rule="evenodd" fill-opacity=".84"/></svg><svg width="24" height="24" id="icon-essential-check" y="360"><path d="M20.863 2.266a.625.625 0 011.075.629l-.051.087L9.311 20.947a2.458 2.458 0 01-3.873.208l-.114-.14-3.199-4.266a.625.625 0 01.933-.826l.067.076 3.2 4.266a1.208 1.208 0 001.871.08l.09-.114L20.863 2.266z" fill="#000" fill-rule="evenodd" fill-opacity=".84"/></svg><svg width="24" height="24" id="icon-essential-close" y="384"><path d="M2.98 2.11l.087.073L12 11.117l8.933-8.934a.625.625 0 01.956.797l-.072.087L12.883 12l8.934 8.933a.625.625 0 01-.797.956l-.087-.072L12 12.883l-8.933 8.934a.625.625 0 01-.956-.797l.072-.087L11.117 12 2.183 3.067a.625.625 0 01.797-.956z" fill="#000" fill-rule="evenodd" fill-opacity=".84"/></svg><svg width="24" height="24" id="icon-essential-delete" y="408"><path d="M13.875 3.875c1.036 0 1.875.84 1.875 1.875v.625h4.375a.625.625 0 01.092 1.243l-.092.007H18.25V18.25c0 .986-.761 1.795-1.728 1.87l-.147.005h-8.75A1.875 1.875 0 015.75 18.25V7.625H3.875a.625.625 0 01-.092-1.243l.092-.007H8.25V5.75c0-.986.761-1.795 1.728-1.87l.147-.005zM17 7.625H7V18.25c0 .314.231.574.533.618l.092.007h8.75c.345 0 .625-.28.625-.625V7.625zm-6.875 2.5c.314 0 .574.231.618.533l.007.092v5a.625.625 0 01-1.243.092L9.5 15.75v-5c0-.345.28-.625.625-.625zm3.75 0c.314 0 .574.231.618.533l.007.092v5a.625.625 0 01-1.243.092l-.007-.092v-5c0-.345.28-.625.625-.625zm0-5h-3.75a.625.625 0 00-.625.625v.625h5V5.75a.625.625 0 00-.533-.618l-.092-.007z" fill="#000" fill-rule="evenodd" fill-opacity=".84"/></svg><svg width="24" height="24" id="icon-essential-download" y="432"><path d="M21.25 14.375c.314 0 .574.231.618.533l.007.092v1.25a3.125 3.125 0 01-2.948 3.12l-.177.005H5a3.125 3.125 0 01-3.12-2.948l-.005-.177V15a.625.625 0 011.243-.092l.007.092v1.25c0 .986.761 1.795 1.728 1.87l.147.005h13.75c.986 0 1.795-.761 1.87-1.728l.005-.147V15c0-.345.28-.625.625-.625zm-9.375-10c.314 0 .574.231.618.533L12.5 5v8.492l2.683-2.684a.625.625 0 01.797-.072l.087.072a.625.625 0 01.072.797l-.072.087-3.793 3.789-.066.048-.064.035-.08.032a.624.624 0 01-.323.015l-.09-.027-.082-.04-.05-.03-.052-.04-3.784-3.782a.625.625 0 01.797-.956l.087.072 2.683 2.684V5c0-.345.28-.625.625-.625z" fill="#000" fill-rule="evenodd" fill-opacity=".84"/></svg><svg width="24" height="24" id="icon-essential-edit" y="456"><path d="M18.327 2l.224.005a3.66 3.66 0 012.383 1.062 3.657 3.657 0 01-.03 5.19L8.821 20.342a.625.625 0 01-.287.164L2.78 21.98a.625.625 0 01-.76-.761l1.474-5.754a.625.625 0 01.164-.287L15.736 3.101A3.658 3.658 0 0118.326 2zM4.432 16.835l-.94 3.672 3.674-.944-2.734-2.728zm11.405-12.07L4.983 15.62l3.4 3.39 10.85-10.848-3.396-3.395zm2.498-1.515l-.191.009c-.572.05-1.11.303-1.519.72l.098-.094 3.392 3.392c.317-.345.526-.774.602-1.232l.024-.19.01-.19a2.405 2.405 0 00-.7-1.714 2.408 2.408 0 00-1.716-.701z" fill="#000" fill-rule="evenodd" fill-opacity=".84"/></svg><svg width="24" height="24" id="icon-essential-expand" y="480"><path d="M10.567 13.431a.625.625 0 01.072.798l-.072.086-6.435 6.433H8.25c.314 0 .574.232.618.533l.007.092a.625.625 0 01-.533.619l-.092.006-5.678-.002-.082-.012-.07-.02-.05-.02-.046-.023-.062-.039-.065-.053-.014-.014a.622.622 0 01-.176-.35L2 21.374v-5.625a.625.625 0 011.243-.092l.007.092v4.116l6.433-6.433a.625.625 0 01.884 0zM21.375 1.998c.046 0 .092.005.135.015l.07.02.074.03.064.038.085.067.014.013a.625.625 0 01.176.35l.007.092v5.625a.625.625 0 01-1.243.093l-.007-.093V4.13l-6.433 6.435a.625.625 0 01-.956-.797l.072-.087 6.433-6.433H15.75a.625.625 0 01-.618-.532l-.007-.093c0-.313.231-.573.533-.618l.092-.007h5.625z" fill="#000" fill-rule="evenodd" fill-opacity=".84"/></svg><svg width="24" height="24" id="icon-essential-filter-1" y="504"><path d="M15.86 12.821a3.935 3.935 0 013.885 3.309h1.63a.625.625 0 01.092 1.243l-.092.007h-1.63a3.935 3.935 0 01-7.77 0h-9.35a.625.625 0 01-.092-1.243l.092-.007h9.35a3.935 3.935 0 013.885-3.309zm0 1.25a2.684 2.684 0 100 5.368 2.684 2.684 0 000-5.368zM8.691 3.311a3.935 3.935 0 013.885 3.309h8.799a.625.625 0 01.092 1.243l-.092.007h-8.8a3.935 3.935 0 01-7.768 0H2.625a.625.625 0 01-.092-1.243l.092-.007h2.182A3.935 3.935 0 018.69 3.31zm0 1.25a2.684 2.684 0 100 5.368 2.684 2.684 0 000-5.368z" fill="#000" fill-rule="evenodd" fill-opacity=".84"/></svg><svg width="24" height="24" id="icon-essential-filter-2" y="528"><path d="M20.75 2.337a1.253 1.253 0 011.247 1.339 10.023 10.023 0 01-7.439 8.973l-.055.013v5.66c0 .327-.126.638-.349.87l-.101.094-2.505 2.087a1.253 1.253 0 01-2.055-.962v-7.749l-.334-.091a10.026 10.026 0 01-7.132-8.613l-.024-.285a1.253 1.253 0 011.25-1.336zM3.251 3.589l.024.263a8.771 8.771 0 006.969 7.7c.292.059.5.315.5.613v8.246l2.507-2.088-.001-6.158c0-.298.21-.554.501-.614a8.77 8.77 0 006.996-7.96L3.252 3.588z" fill="#000" fill-rule="evenodd" fill-opacity=".84"/></svg><svg width="24" height="24" id="icon-essential-hide" y="552"><path d="M20.394 4.067c.215.224.23.567.05.808l-.068.076-15.625 15a.625.625 0 01-.933-.826l.067-.076 15.625-15a.625.625 0 01.884.018zm-1.568 4.828c.962.703 1.852 1.5 2.657 2.384a2.011 2.011 0 01-.002 2.694c-2.653 2.92-6.235 4.957-9.478 4.902a8.946 8.946 0 01-2.72-.402.625.625 0 01.371-1.194 7.726 7.726 0 002.355.346c2.839.048 6.113-1.814 8.545-4.49a.76.76 0 00.003-1.016 16.515 16.515 0 00-2.468-2.214.625.625 0 01.737-1.01zM15.124 12c.345 0 .625.28.625.625a3.75 3.75 0 01-3.75 3.751.625.625 0 110-1.25 2.5 2.5 0 002.5-2.5c0-.346.28-.626.625-.626zm-3.132-5.624c.73-.008 1.46.077 2.169.253a.625.625 0 11-.302 1.214 7.378 7.378 0 00-1.87-.217c-2.816-.047-6.107 1.81-8.543 4.49a.76.76 0 00-.003 1.014c.64.701 1.339 1.346 2.088 1.928a.625.625 0 11-.766.987 17.97 17.97 0 01-2.248-2.075 2.012 2.012 0 01.002-2.694c2.657-2.923 6.258-4.954 9.473-4.9zm.007 2.5a.625.625 0 010 1.25 2.5 2.5 0 00-2.5 2.5.625.625 0 01-1.25 0 3.75 3.75 0 013.75-3.75z" fill="#000" fill-rule="evenodd" fill-opacity=".84"/></svg><svg width="24" height="24" id="icon-essential-home-filled" y="576"><path d="M2.532 12.988a.597.597 0 01-.515-.485.639.639 0 01-.016-.151l.009-.09.008-.04a.584.584 0 01.225-.352l8.433-8.433a1.875 1.875 0 012.525-.116l.126.115 8.48 8.477c.118.108.18.248.194.391.01.101-.005.202-.042.295a.605.605 0 01-.476.388l-.105.008h-1.876v7.5a.625.625 0 01-.434.596l-.098.022-.092.007h-5a.625.625 0 01-.619-.533l-.007-.092v-5a.626.626 0 00-.532-.618l-.093-.007h-1.25a.626.626 0 00-.618.533l-.007.092v5a.625.625 0 01-.532.618l-.093.007h-5a.625.625 0 01-.618-.533l-.006-.092-.001-7.5H2.628l-.096-.007z" fill="#000" fill-rule="evenodd" fill-opacity=".84"/></svg><svg width="24" height="24" id="icon-essential-home" y="600"><path d="M18.878 12.995c.313 0 .573.231.618.533l.007.092v6.875a.625.625 0 01-.533.618l-.092.007h-5a.625.625 0 01-.619-.533l-.007-.092v-5a.625.625 0 00-.532-.618l-.093-.007h-1.25a.625.625 0 00-.618.533l-.007.092v5a.625.625 0 01-.532.618l-.093.007h-5a.625.625 0 01-.618-.533l-.006-.092V13.62a.625.625 0 011.243-.092l.006.092v6.249h3.75v-4.374c0-.986.762-1.795 1.729-1.87l.146-.005h1.25c.987 0 1.795.761 1.87 1.728l.005.147v4.374h3.75V13.62c0-.314.232-.574.533-.618l.093-.007zM12.002 2.888c.443 0 .869.156 1.205.438l.122.111 8.49 8.491a.625.625 0 01-.797.956l-.086-.072-8.491-8.491a.625.625 0 00-.81-.064l-.075.064-8.49 8.49a.625.625 0 01-.957-.796l.073-.087 8.49-8.49c.352-.353.829-.55 1.326-.55z" fill="#000" fill-rule="evenodd" fill-opacity=".84"/></svg><svg width="24" height="24" id="icon-essential-loading-spinner" y="624"><path d="M2.62 11.375c.345 0 .625.28.625.625A8.755 8.755 0 0012 20.755a.625.625 0 110 1.25c-5.526 0-10.005-4.48-10.005-10.005 0-.345.28-.625.625-.625zM12 1.995c5.526 0 10.005 4.48 10.005 10.005a.625.625 0 11-1.25 0A8.755 8.755 0 0012 3.245a.625.625 0 110-1.25z" fill="#000" fill-rule="evenodd" fill-opacity=".84"/></svg><svg width="24" height="24" id="icon-essential-login" y="648"><path d="M4.76 2.625h10.26a1.82 1.82 0 011.73 1.73V8.25a.625.625 0 01-1.243.092L15.5 8.25V4.472a.576.576 0 00-.428-.585l-.084-.012H4.792a.573.573 0 00-.539.525l-.003.1v15.028a.576.576 0 00.427.585l.084.012h10.196a.573.573 0 00.54-.525l.003-.1v-3.75a.625.625 0 011.243-.092l.007.092v3.722a1.825 1.825 0 01-1.609 1.89l-.153.013H4.73A1.82 1.82 0 013 19.644l.002-15.116c-.046-1.003.727-1.853 1.76-1.904zm8.057 5.811a.625.625 0 01.072.798l-.072.086-2.059 2.058h11.617a.625.625 0 01.092 1.244l-.092.006H10.758l2.059 2.058a.625.625 0 01.072.798l-.072.086a.625.625 0 01-.797.073l-.087-.073L8.8 12.436a.628.628 0 01-.05-.06l.06.07a.628.628 0 01-.078-.094l-.025-.042-.035-.072-.03-.094-.016-.14.004-.073.019-.094.033-.094.055-.095.04-.051 3.157-3.16a.625.625 0 01.884 0z" fill="#000" fill-rule="evenodd" fill-opacity=".84"/></svg><svg width="24" height="24" id="icon-essential-logout" y="672"><path d="M4.76 2.625h10.26a1.82 1.82 0 011.73 1.73V8.25a.625.625 0 01-1.243.092L15.5 8.25V4.472a.576.576 0 00-.428-.585l-.084-.012H4.792a.573.573 0 00-.539.525l-.003.1v15.028a.576.576 0 00.427.585l.084.012h10.196a.573.573 0 00.54-.525l.003-.1v-3.75a.625.625 0 011.243-.092l.007.092v3.722a1.825 1.825 0 01-1.609 1.89l-.153.013H4.73A1.82 1.82 0 013 19.644V4.38a1.825 1.825 0 011.609-1.741l.153-.014zm14.845 5.74l.087.071 3.132 3.133c.016.016.031.033.045.051l-.052-.059.04.044.06.087.048.104.006.018a.624.624 0 01.015.323l-.027.089a.62.62 0 01-.07.133l-.04.052-3.157 3.16a.625.625 0 01-.956-.798l.072-.087 2.056-2.058H9.25a.625.625 0 01-.092-1.243l.092-.007h11.616L18.808 9.32a.625.625 0 01-.072-.797l.072-.087a.625.625 0 01.797-.072z" fill="#000" fill-rule="evenodd" fill-opacity=".84"/></svg><svg width="24" height="24" id="icon-essential-menu" y="696"><path d="M20.125 16.378a.625.625 0 01.092 1.243l-.092.007H3.875a.625.625 0 01-.092-1.244l.092-.006h16.25zm0-5a.625.625 0 01.092 1.243l-.092.006H3.875a.625.625 0 01-.092-1.243l.092-.007h16.25zm0-5a.625.625 0 01.092 1.243l-.092.006H3.875a.625.625 0 01-.092-1.243l.092-.006h16.25z" fill="#000" fill-rule="evenodd" fill-opacity=".84"/></svg><svg width="24" height="24" id="icon-essential-mobile-phone" y="720"><path d="M17.625 2c.345 0 .625.28.625.625v18.75c0 .345-.28.625-.625.625H6.375a.625.625 0 01-.625-.625V2.625c0-.345.28-.625.625-.625zM17 18.014H7v2.736h10v-2.736zm-4 .751a.625.625 0 01.092 1.243l-.092.007h-2a.625.625 0 01-.092-1.243l.092-.007h2zM17 3.25H7v13.514h10V3.25z" fill="#000" fill-rule="evenodd" fill-opacity=".84"/></svg><svg width="24" height="24" id="icon-essential-print" y="744"><path d="M16.375 2c.986 0 1.795.761 1.87 1.728l.005.147V7h1.875c.934 0 1.709.683 1.852 1.578l.017.15.006.147v6.25c0 .986-.761 1.795-1.728 1.87l-.147.005H18.25v4.375a.625.625 0 01-.435.596l-.098.022-.092.007H6.375a.625.625 0 01-.618-.533l-.007-.092V17H3.875a1.875 1.875 0 01-1.852-1.578l-.017-.15L2 15.125v-6.25c0-.986.761-1.795 1.728-1.87L3.875 7H5.75V3.875c0-.934.683-1.709 1.578-1.852l.15-.017L7.625 2h8.75zM17 13.25H7v7.5h10v-7.5zm-1.875 4.505a.625.625 0 01.092 1.243l-.092.007h-6.25a.625.625 0 01-.092-1.243l.092-.007h6.25zm0-2.75a.625.625 0 01.092 1.243l-.092.007h-6.25a.625.625 0 01-.092-1.243l.092-.007h6.25zm5-6.755H3.875l-.102.008a.625.625 0 00-.516.525l-.007.092v6.25l.008.102a.625.625 0 00.525.516l.092.007H5.75v-3.125l.008-.102a.625.625 0 01.525-.516L6.375 12h11.25l.102.008a.625.625 0 01.516.525l.007.092v3.125h1.875l.102-.008a.625.625 0 00.516-.525l.007-.092v-6.25l-.008-.102a.625.625 0 00-.525-.516l-.092-.007zM6.375 9.5a.625.625 0 01.092 1.243l-.092.007h-1.25a.625.625 0 01-.092-1.243l.092-.007h1.25zm10-6.25h-8.75l-.102.008a.625.625 0 00-.516.525L7 3.875V7h10V3.875l-.008-.102a.625.625 0 00-.525-.516l-.092-.007z" fill="#000" fill-rule="evenodd" fill-opacity=".84"/></svg><svg width="24" height="24" id="icon-essential-remove" y="768"><path d="M6.105 5.236l.087.072L12 11.117l5.808-5.809a.625.625 0 01.956.797l-.072.087L12.883 12l5.809 5.808a.625.625 0 01-.797.956l-.087-.072L12 12.883l-5.808 5.809a.625.625 0 01-.956-.797l.072-.087L11.117 12 5.308 6.192a.625.625 0 01.797-.956z" fill="#000" fill-rule="evenodd" fill-opacity=".84"/></svg><svg width="24" height="24" id="icon-essential-search" y="792"><path d="M12.17 3.06a8.178 8.178 0 015.216 13.442l5.431 5.431a.625.625 0 01-.797.956l-.087-.072-5.43-5.431A8.178 8.178 0 1112.17 3.06zM5.644 7.01a6.928 6.928 0 1011.069 8.333A6.928 6.928 0 005.643 7.01z" fill="#000" fill-rule="evenodd" fill-opacity=".84"/></svg><svg width="24" height="24" id="icon-essential-settings" y="816"><path d="M16.075 2.176a2.258 2.258 0 011.393 2.032l-.002.168-.06 1.166a1.007 1.007 0 00.933 1.055l.121.001 1.168-.059a2.258 2.258 0 011.751 3.806l-.127.124-.868.783a1.008 1.008 0 00-.085 1.41l.085.086.868.784a2.257 2.257 0 01-1.46 3.932l-.168-.002-1.167-.06a1.007 1.007 0 00-1.056.937l-.001.121.06 1.17a2.258 2.258 0 01-3.799 1.749l-.125-.127-.784-.867a1.007 1.007 0 00-1.41-.085l-.087.086-.788.868a2.258 2.258 0 01-3.926-1.459l.001-.167.06-1.167a1.007 1.007 0 00-.936-1.056h-.121l-1.166.058a2.257 2.257 0 01-1.758-3.802l.127-.125.867-.783a1.008 1.008 0 00.085-1.41l-.086-.088-.867-.787A2.257 2.257 0 014.205 6.54l.167.001 1.168.06a1.007 1.007 0 001.057-.94l.001-.123-.056-1.168a2.257 2.257 0 013.802-1.75l.124.126.785.866a1.006 1.006 0 001.41.084l.087-.086.786-.863a2.258 2.258 0 012.54-.572zm-1.522 1.323l-.091.089-.786.862a2.256 2.256 0 01-3.218.137l-.133-.136-.782-.864a1.007 1.007 0 00-1.75.599l-.002.126.056 1.164a2.257 2.257 0 01-2.18 2.376l-.191-.002-1.165-.059a1.007 1.007 0 00-.812 1.66l.088.091.866.787a2.258 2.258 0 01.136 3.218l-.136.134-.867.782a1.007 1.007 0 00.602 1.75l.127.002 1.166-.06a2.257 2.257 0 012.372 2.18l-.002.19-.06 1.164a1.008 1.008 0 001.66.812l.091-.088.787-.866a2.257 2.257 0 013.217-.136l.133.136.782.864a1.008 1.008 0 001.748-.596l.002-.125-.06-1.166a2.257 2.257 0 012.18-2.372l.19.002 1.167.06a1.007 1.007 0 00.815-1.664l-.088-.09-.869-.784a2.258 2.258 0 01-.136-3.218l.136-.134.868-.783a1.008 1.008 0 00-.598-1.752l-.126-.001-1.168.059a2.257 2.257 0 01-2.365-2.177l.001-.19.06-1.168a1.007 1.007 0 00-1.665-.813zM12 7.626a4.375 4.375 0 110 8.75 4.375 4.375 0 010-8.75zm0 1.25a3.125 3.125 0 100 6.25 3.125 3.125 0 000-6.25z" fill="#000" fill-rule="evenodd" fill-opacity=".84"/></svg><svg width="24" height="24" id="icon-essential-shrink" y="840"><path d="M4.5 13.248h5.625l.067.004.1.02.035.01.058.023.047.024.061.04.074.062c.03.03.057.063.08.097l.047.085.04.118.01.05.006.092v5.625a.625.625 0 01-1.243.093l-.007-.093v-4.117l-6.433 6.434a.625.625 0 01-.956-.797l.072-.087 6.433-6.433H4.5a.625.625 0 01-.618-.532l-.007-.093c0-.313.231-.573.533-.618l.092-.007zM21.817 2.181a.625.625 0 01.072.798l-.072.086-6.434 6.433H19.5c.314 0 .574.232.618.533l.007.092a.625.625 0 01-.533.619l-.092.006-5.675-.002-.087-.013-.03-.007a.62.62 0 01-.125-.05l-.076-.047-.083-.073a.628.628 0 01-.05-.06l.06.07a.628.628 0 01-.078-.094l-.025-.042-.035-.072-.03-.094-.014-.091-.002-5.675a.625.625 0 011.243-.092l.007.092v4.116l6.433-6.433a.625.625 0 01.884 0z" fill="#000" fill-rule="evenodd" fill-opacity=".84"/></svg><svg width="24" height="24" id="icon-essential-sort" y="864"><path d="M9.5 10.125c.314 0 .574.231.618.533l.007.092v9.117l1.433-1.434a.625.625 0 01.797-.072l.087.072a.625.625 0 01.072.797l-.072.087-2.5 2.5a.628.628 0 01-.093.077l-.072.041-.042.02-.094.029-.102.015L9.5 22a.627.627 0 01-.141-.016l-.094-.03-.079-.038-.057-.038-.07-.061-2.5-2.5a.625.625 0 01.796-.956l.087.072 1.433 1.434V10.75c0-.345.28-.625.625-.625zm4.932-8.121L14.5 2c.048 0 .096.006.141.016l.094.03.079.038.057.038.07.061 2.5 2.5a.625.625 0 01-.796.956l-.087-.072-1.433-1.434v9.117a.625.625 0 01-1.243.092l-.007-.092V4.133l-1.433 1.434a.625.625 0 01-.797.072l-.087-.072a.625.625 0 01-.072-.797l.072-.087 2.5-2.5c.03-.03.06-.055.093-.077l.072-.041.042-.02.094-.029.073-.012z" fill="#000" fill-rule="evenodd" fill-opacity=".84"/></svg><svg width="24" height="24" id="icon-essential-star-filled" y="888"><path d="M11.854 2.012c-.432.048-.817.31-1.018.703L8.205 7.932l-5.025.499a1.292 1.292 0 00-1.1.847l-.04.13c-.11.44.019.91.345 1.233l4.16 4.12-1.54 5.596c-.133.501.038 1.028.436 1.351l.112.082c.385.25.878.28 1.294.07L12 19.309l5.163 2.558a1.301 1.301 0 001.403-.154l.103-.094c.324-.325.455-.801.335-1.252l-1.542-5.602 4.157-4.12c.36-.355.479-.888.306-1.363l-.054-.126a1.296 1.296 0 00-1.057-.722l-5.016-.497-2.633-5.218A1.309 1.309 0 0012 2.004l-.146.008z" fill="#000" fill-rule="evenodd" fill-opacity=".84"/></svg><svg width="24" height="24" id="icon-essential-star" y="912"><path d="M11.854 2.012c-.432.048-.817.31-1.018.703L8.205 7.932l-5.025.499a1.292 1.292 0 00-1.1.847l-.04.13c-.11.44.019.91.345 1.233l4.16 4.12-1.54 5.596c-.133.501.038 1.028.436 1.351l.112.082c.385.25.878.28 1.294.07L12 19.309l5.163 2.558a1.301 1.301 0 001.403-.154l.103-.094c.324-.325.455-.801.335-1.252l-1.542-5.602 4.157-4.12c.36-.355.479-.888.306-1.363l-.054-.126a1.296 1.296 0 00-1.057-.722l-5.016-.497-2.633-5.218A1.309 1.309 0 0012 2.004l-.146.008zM12 3.254c.022 0 .041.012.051.03l2.787 5.522c.096.19.283.319.496.34l5.367.532c.028.002.043.014.049.03a.046.046 0 01-.01.049l-4.417 4.377a.625.625 0 00-.163.61l1.637 5.949c.004.014-.003.035-.019.048a.053.053 0 01-.056.006l-5.445-2.695a.625.625 0 00-.554 0l-5.434 2.69c-.022.011-.044.009-.06-.004a.052.052 0 01-.017-.054l1.636-5.943a.625.625 0 00-.163-.61l-4.42-4.378a.046.046 0 01.028-.078l5.377-.532c.213-.021.4-.15.496-.34l2.785-5.522A.056.056 0 0112 3.254z" fill="#000" fill-rule="evenodd" fill-opacity=".84"/></svg><svg width="24" height="24" id="icon-essential-substract" y="936"><path d="M21.375 11.375a.625.625 0 01.092 1.243l-.092.007H2.625a.625.625 0 01-.092-1.243l.092-.007h18.75z" fill="#000" fill-rule="evenodd" fill-opacity=".84"/></svg><svg width="24" height="24" id="icon-essential-vertical-menu-filled" y="960"><path d="M13.395 16.754a2.813 2.813 0 11-2.812 4.872 2.813 2.813 0 012.812-4.872zm0-7.187a2.813 2.813 0 11-2.812 4.871 2.813 2.813 0 012.812-4.871zm0-7.188a2.813 2.813 0 11-2.812 4.872 2.813 2.813 0 012.812-4.872z" fill="#000" fill-rule="evenodd" fill-opacity=".84"/></svg><svg width="24" height="24" id="icon-essential-vertical-menu" y="984"><path d="M13.395 16.754a2.813 2.813 0 11-2.812 4.872 2.813 2.813 0 012.812-4.872zm-2.187 1.083a1.563 1.563 0 101.69.082l-.128-.082a1.563 1.563 0 00-1.562 0zm2.187-8.27a2.813 2.813 0 11-2.812 4.871 2.813 2.813 0 012.812-4.871zm-2.187 1.082a1.563 1.563 0 101.562 2.707 1.563 1.563 0 00-1.562-2.707zm2.187-8.27a2.813 2.813 0 11-2.812 4.872 2.813 2.813 0 012.812-4.872zm-2.187 1.083a1.563 1.563 0 101.69.082l-.128-.082a1.562 1.562 0 00-1.562 0z" fill="#000" fill-rule="evenodd" fill-opacity=".84"/></svg><svg width="24" height="24" id="icon-essential-view" y="1008"><path d="M12.005 5.75l.298.002c3.15.076 6.606 2.069 9.181 4.9a2.011 2.011 0 01-.001 2.694c-2.568 2.826-6.006 4.825-9.158 4.901l-.314.001c-3.258.055-6.84-1.982-9.493-4.904a2.011 2.011 0 01.002-2.693c2.57-2.83 6.026-4.823 9.177-4.899l.308-.002zM12.011 7h-.022c-2.815-.047-6.107 1.81-8.542 4.49a.76.76 0 00-.002 1.016c2.432 2.678 5.706 4.54 8.566 4.492 2.838.048 6.112-1.813 8.545-4.49a.76.76 0 00.002-1.017c-2.44-2.683-5.732-4.538-8.547-4.49zm-.012 1.249l.23.007a3.75 3.75 0 01-.23 7.493 3.75 3.75 0 01-.198-7.495l.198-.005zM12 9.499a2.5 2.5 0 100 5 2.5 2.5 0 000-5z" fill="#000" fill-rule="evenodd" fill-opacity=".84"/></svg><svg width="24" height="24" id="icon-essential-world" y="1032"><path d="M12 2c5.523 0 10 4.477 10 10s-4.477 10-10 10S2 17.523 2 12 6.477 2 12 2zm3.067 15.626H8.933c.31 1.16.716 2.16 1.193 2.923a8.783 8.783 0 003.747 0l-.13.2c.534-.784.985-1.858 1.324-3.123zm-7.424 0H5.298a8.778 8.778 0 003.131 2.365 14.881 14.881 0 01-.786-2.365zm11.059 0h-2.345a14.811 14.811 0 01-.787 2.365 8.784 8.784 0 003.132-2.365zm-11.695-5H3.272a8.697 8.697 0 001.15 3.75h2.955a24.464 24.464 0 01-.37-3.75zm8.735 0H8.258c.032 1.325.168 2.594.39 3.75h6.704c.222-1.156.358-2.425.39-3.75zm4.986 0h-3.735a24.464 24.464 0 01-.37 3.75h2.956a8.697 8.697 0 001.149-3.75zm-13.352-5l-2.955-.001a8.697 8.697 0 00-1.15 3.75h3.736c.031-1.312.158-2.578.37-3.75zm7.976-.001H8.648a23.058 23.058 0 00-.39 3.75h7.484a23.058 23.058 0 00-.39-3.75zm4.227 0h-2.955c.211 1.172.338 2.438.369 3.75h3.735a8.697 8.697 0 00-1.149-3.75zM8.43 4.009l-.059.027a8.779 8.779 0 00-3.074 2.339h2.346c.214-.866.479-1.662.787-2.366zM12 3.25c-.643 0-1.27.07-1.874.201l.131-.2c-.535.785-.986 1.858-1.324 3.124h6.134c-.31-1.161-.716-2.16-1.193-2.924A8.755 8.755 0 0012 3.25zm3.571.76l.016.038c.301.694.56 1.477.77 2.327h2.346a8.778 8.778 0 00-3.132-2.366z" fill="#000" fill-rule="evenodd" fill-opacity=".84"/></svg><svg width="24" height="24" id="icon-location-dot" y="1056"><g fill="none" fill-rule="evenodd"><circle fill="#27166F" cx="12" cy="12" r="9"/><path d="M12 3a9 9 0 110 18 9 9 0 010-18zm0 1a8 8 0 100 16 8 8 0 000-16z" fill-opacity=".84" fill="#FFF"/></g></svg><svg width="24" height="24" id="icon-location-gps-active" y="1080"><path d="M12 2c.314 0 .574.231.618.533l.007.092.001 2.528a6.877 6.877 0 016.221 6.222h2.528a.625.625 0 01.092 1.243l-.092.007-2.528.001a6.877 6.877 0 01-6.22 6.22l-.002 2.529a.625.625 0 01-1.243.092l-.007-.092v-2.528a6.877 6.877 0 01-6.222-6.22l-2.528-.002a.625.625 0 01-.092-1.243l.092-.007h2.528a6.877 6.877 0 016.222-6.222V2.625c0-.345.28-.625.625-.625zm0 4.375a5.625 5.625 0 100 11.25 5.625 5.625 0 000-11.25zm0 2.5a3.125 3.125 0 110 6.25 3.125 3.125 0 010-6.25z" fill="#000" fill-rule="evenodd" fill-opacity=".84"/></svg><svg width="24" height="24" id="icon-location-gps" y="1104"><path d="M12 2c.314 0 .574.231.618.533l.007.092.001 2.528a6.877 6.877 0 016.221 6.222h2.528a.625.625 0 01.092 1.243l-.092.007-2.528.001a6.877 6.877 0 01-6.22 6.22l-.002 2.529a.625.625 0 01-1.243.092l-.007-.092v-2.528a6.877 6.877 0 01-6.222-6.22l-2.528-.002a.625.625 0 01-.092-1.243l.092-.007h2.528a6.877 6.877 0 016.222-6.222V2.625c0-.345.28-.625.625-.625zm0 4.375a5.625 5.625 0 100 11.25 5.625 5.625 0 000-11.25z" fill="#000" fill-rule="evenodd" fill-opacity=".84"/></svg><svg width="24" height="24" id="icon-location-pin" y="1128"><g fill="none" fill-rule="evenodd"><path d="M12 2a6.674 6.674 0 00-6.667 6.667c0 2.925 4.167 10.02 5.957 12.936a.834.834 0 001.42 0c1.79-2.915 5.957-10.008 5.957-12.936A6.674 6.674 0 0012 2z" fill="#27166F"/><path d="M12 11a2.5 2.5 0 110-5 2.5 2.5 0 010 5z" fill-opacity=".84" fill="#FFF"/><path d="M12 2a6.674 6.674 0 016.667 6.667c0 2.928-4.167 10.021-5.957 12.935a.834.834 0 01-1.42 0l-.452-.742c-1.954-3.24-5.505-9.493-5.505-12.193A6.674 6.674 0 0112 2zm-.001 1a5.655 5.655 0 00-4.004 1.662 5.657 5.657 0 00-1.662 4.006c0 2.594 3.49 8.573 5.361 11.676l.306.503c1.79-2.924 5.667-9.436 5.667-12.18a5.656 5.656 0 00-1.662-4.005A5.657 5.657 0 0011.999 3z" fill-opacity=".84" fill="#FFF"/></g></svg><svg width="24" height="24" id="icon-media-pause-filled" y="1152"><path d="M10.125 4.5c.314 0 .574.231.618.533l.007.092v13.75a.625.625 0 01-.533.618l-.092.007h-3.75a.625.625 0 01-.618-.533l-.007-.092V5.125c0-.314.231-.574.533-.618l.092-.007h3.75zm7.5 0c.314 0 .574.231.618.533l.007.092v13.75a.625.625 0 01-.533.618l-.092.007h-3.75a.625.625 0 01-.618-.533l-.007-.092V5.125c0-.314.231-.574.533-.618l.092-.007h3.75z" fill="#000" fill-rule="evenodd" fill-opacity=".84"/></svg><svg width="24" height="24" id="icon-media-pause" y="1176"><path d="M10.125 4.5c.314 0 .574.231.618.533l.007.092v13.75a.625.625 0 01-.533.618l-.092.007h-3.75a.625.625 0 01-.618-.533l-.007-.092V5.125c0-.314.231-.574.533-.618l.092-.007h3.75zm7.5 0c.314 0 .574.231.618.533l.007.092v13.75a.625.625 0 01-.533.618l-.092.007h-3.75a.625.625 0 01-.618-.533l-.007-.092V5.125c0-.314.231-.574.533-.618l.092-.007h3.75zM9.5 5.75H7v12.5h2.5V5.75zm7.5 0h-2.5v12.5H17V5.75z" fill="#000" fill-rule="evenodd" fill-opacity=".84"/></svg><svg width="24" height="24" id="icon-media-play-filled" y="1200"><path d="M4.236 3.103c-.566.34-.912.95-.912 1.61v14.575a1.875 1.875 0 002.76 1.652l13.603-7.287a1.875 1.875 0 000-3.306L6.085 3.06a1.875 1.875 0 00-1.85.043z" fill="#000" fill-rule="evenodd" fill-opacity=".84"/></svg><svg width="24" height="24" id="icon-media-play" y="1224"><path d="M4.236 3.103a1.875 1.875 0 011.849-.043l13.602 7.287a1.875 1.875 0 010 3.306L6.085 20.94a1.875 1.875 0 01-2.761-1.652V4.713c0-.66.346-1.27.912-1.61zm1.258 1.059a.625.625 0 00-.92.55v14.576a.625.625 0 00.92.55l13.603-7.287a.625.625 0 000-1.102z" fill="#000" fill-rule="evenodd" fill-opacity=".84"/></svg><svg width="24" height="24" id="icon-media-stop-filled" y="1248"><path d="M18.875 4.5H5.125a.625.625 0 00-.625.625v13.75c0 .345.28.625.625.625h13.75c.345 0 .625-.28.625-.625V5.125a.625.625 0 00-.625-.625z" fill="#000" fill-rule="evenodd" fill-opacity=".84"/></svg><svg width="24" height="24" id="icon-media-stop" y="1272"><path d="M18.875 4.5c.345 0 .625.28.625.625v13.75c0 .345-.28.625-.625.625H5.125a.625.625 0 01-.625-.625V5.125c0-.345.28-.625.625-.625zm-.625 1.25H5.75v12.5h12.5V5.75z" fill="#000" fill-rule="evenodd" fill-opacity=".84"/></svg><svg width="24" height="24" id="icon-sbu-new-aviation-1" y="1296"><path d="M18.232 6.668c.792-.015 1.507.244 1.706.83.304.896-.548 2.029-1.816 2.525l-2.928 1.18a.806.806 0 00-.453.472l-1.833 5a.797.797 0 01-.628.521l-2.039.302a.199.199 0 01-.224-.174.212.212 0 01.001-.063l.747-4.642-4.103 1.546-.065.019-.066.006a.389.389 0 01-.295-.132l-2.13-2.389a.42.42 0 01.021-.579l.032-.028 1.16-.896a.387.387 0 01.192-.079l.069-.002a.384.384 0 01.135.034l1.734.791c.049.022.1.034.153.035l.078-.007a.385.385 0 00.075-.022l1.823-.756 7.397-3.246c.353-.137.74-.219 1.117-.24l.14-.006zm-.844.973l-.051.015-9.09 4a.21.21 0 00-.124.217l.014.054a.201.201 0 00.213.12l.05-.014 9.092-4a.21.21 0 00.107-.275.199.199 0 00-.21-.117zM8.6 6.55l4.409 1.66-3.585 1.573-.15.063-2.598-2.693a.21.21 0 010-.29.196.196 0 01.101-.056l1.398-.29a.765.765 0 01.425.033z" fill="#000" fill-rule="evenodd" fill-opacity=".84"/></svg><svg width="24" height="24" id="icon-sbu-new-aviation-2" y="1320"><path d="M19.45 4.428c.177.178.299.391.36.635a1.442 1.442 0 01-.36 1.365l-3.261 3.247a1 1 0 00-.269.935l1.744 7.521a1 1 0 01-.267.933l-.451.452a.5.5 0 01-.797-.121l-3.171-6.051a.25.25 0 00-.398-.06L9.357 16.51a.5.5 0 00-.141.423l.259 1.82a.5.5 0 01-.142.425l-.343.341a.5.5 0 01-.79-.112l-1.265-2.281a.5.5 0 00-.194-.195l-2.284-1.27a.5.5 0 01-.112-.788l.343-.347a.5.5 0 01.428-.143l1.816.267a.5.5 0 00.426-.141l3.226-3.227a.25.25 0 00-.06-.398L4.457 7.718a.5.5 0 01-.123-.797l.453-.454a1 1 0 01.935-.268l7.52 1.748a1 1 0 00.934-.267l3.262-3.262c.178-.183.391-.304.635-.365.244-.066.482-.066.726 0 .238.06.452.182.64.365l.01.01z" fill="#000" fill-rule="evenodd" fill-opacity=".84"/></svg><svg xmlns:xlink="http://www.w3.org/1999/xlink" width="24" height="24" id="icon-sbu-new-systems" y="1344"><defs><path d="M15 17.5h2a.5.5 0 00.5-.5v-1a.5.5 0 00-.5-.5h-2a.5.5 0 00-.5.5v1a.5.5 0 00.5.5zm0-3h2a.5.5 0 00.5-.5v-1a.5.5 0 00-.5-.5h-2a.5.5 0 00-.5.5v1a.5.5 0 00.5.5zm-4 0h2a.5.5 0 00.5-.5v-1a.5.5 0 00-.5-.5h-2a.5.5 0 00-.5.5v1a.5.5 0 00.5.5zm0 3h2a.5.5 0 00.5-.5v-1a.5.5 0 00-.5-.5h-2a.5.5 0 00-.5.5v1a.5.5 0 00.5.5zm-4-3h2a.5.5 0 00.5-.5v-1a.5.5 0 00-.5-.5H7a.5.5 0 00-.5.5v1a.5.5 0 00.5.5zm0 3h2a.5.5 0 00.5-.5v-1a.5.5 0 00-.5-.5H7a.5.5 0 00-.5.5v1a.5.5 0 00.5.5zm8.5-6.857V9.027a.437.437 0 00-.726-.33l-2.411 2.11a.219.219 0 01-.363-.164V9.027a.438.438 0 00-.726-.33L8.82 10.845a.219.219 0 01-.362-.142l-.53-5.309A.438.438 0 007.492 5H6.008a.438.438 0 00-.435.394l-.486 4.863A17.5 17.5 0 005 11.997v6.566c0 .241.196.437.438.437h13.125a.437.437 0 00.437-.438V9.027a.437.437 0 00-.726-.33l-2.411 2.11a.219.219 0 01-.363-.164z" id="icon-sbu-new-systems-a"/></defs><use fill-opacity=".84" fill="#000" xlink:href="#icon-sbu-new-systems-a" fill-rule="evenodd"/></svg><svg width="24" height="24" id="icon-sbu-new-zbm" y="1368"><path d="M7 13c1.644 0 3 1.356 3 3s-1.35 3-3 3c-1.644 0-3-1.356-3-3s1.356-3 3-3zm10 0c1.644 0 3 1.35 3 3s-1.35 3-3 3c-1.644 0-3-1.356-3-3s1.356-3 3-3zM7 14.5a1.5 1.5 0 100 3 1.5 1.5 0 000-3zm10 0a1.5 1.5 0 100 3 1.5 1.5 0 000-3zM20.5 5a.5.5 0 110 1h-3.84a1 1 0 00-.92.606l-2.127 6.073a2 2 0 00-.113.661v2.318c0 .741-.6 1.342-1.342 1.342a1.672 1.672 0 01-1.632-1.31l-.467-2.004a1 1 0 00-.765-.761l-6.505-1.44A1 1 0 012 10.508V8a1 1 0 011-1h10.954l.765-1.463A1 1 0 0115.606 5H20.5zm0 1.502a.5.5 0 01.5.5V7.5a.5.5 0 01-.5.5h-2a.5.5 0 100 1h2a.5.5 0 01.5.5v1.086a1 1 0 00.293.707l.414.414a1 1 0 01.293.707V15.5a.5.5 0 01-.5.5h-1c0-1.924-1.578-3.5-3.5-3.5-.868 0-1.667.323-2.281.854a.396.396 0 01-.677-.386l2.09-5.964a.75.75 0 01.707-.502H20.5zM12.75 10h-6.5a.25.25 0 00-.057.493l.057.007h6.5a.25.25 0 100-.5zm0-1.5h-8.5a.25.25 0 00-.057.493L4.25 9h8.5a.25.25 0 100-.5z" fill="#000" fill-rule="evenodd" fill-opacity=".84"/></svg><svg width="24" height="24" id="icon-sbu-new-zps" y="1392"><path d="M15.5 6a.5.5 0 110 1h-1a.5.5 0 100 1h.086a1 1 0 01.707.293l1.414 1.414a1 1 0 00.707.293h.086a.5.5 0 00.492-.41L18 9.5a.5.5 0 01.5-.5h1a.5.5 0 01.5.5v7a.5.5 0 01-.5.5h-1a.5.5 0 01-.492-.41L18 16.5a.5.5 0 00-.5-.5h-.293a.5.5 0 00-.353.146l-1.561 1.561a1 1 0 01-.707.293H9.414a1 1 0 01-.707-.293l-1.414-1.414A1 1 0 017 15.586V14.5a.5.5 0 00-.992-.09L6 14.5a.5.5 0 01-.5.5h-1a.5.5 0 01-.5-.5v-4a.5.5 0 01.5-.5h1a.5.5 0 01.492.41L6 10.5a.5.5 0 101 0v-.086a1 1 0 01.293-.707l1.414-1.414A1 1 0 019.414 8H9.5a.5.5 0 000-1h-1a.5.5 0 010-1h7zM13 9.535a.2.2 0 00-.236.008l-.044.049-2.686 3.583a.209.209 0 00.114.313l.054.008h1.821l.022.004c.09.021.154.1.158.191l-.005.055-.26 2.503a.208.208 0 00.085.216.2.2 0 00.236-.008l.044-.049 2.663-3.588a.209.209 0 00-.114-.313l-.054-.007H13l-.044-.005a.205.205 0 01-.158-.19l.287-2.554a.208.208 0 00-.085-.216z" fill="#000" fill-rule="evenodd" fill-opacity=".84"/></svg><svg width="24" height="24" id="icon-sbu-new-zrd" y="1416"><path d="M7.5 10.105a.5.5 0 01.094.01l4.509.866a1 1 0 00.188.018h2.555a.5.5 0 01.5.501v.035l-.136.964-4.96.001a.25.25 0 00-.243.193L10 12.75a.25.25 0 00.193.243l.057.007h4.889l-.147 1.04a3 3 0 00-3.486 2.784L11.5 17v.5h-2V17A3 3 0 007 14.042v-3.437a.5.5 0 01.5-.5zm-1 4.395a2.5 2.5 0 110 5 2.5 2.5 0 010-5zm8 0a2.5 2.5 0 110 5 2.5 2.5 0 010-5zm-8 1a1.5 1.5 0 100 3 1.5 1.5 0 000-3zm8 0a1.5 1.5 0 100 3 1.5 1.5 0 000-3zM6 9.5a.5.5 0 01.5.5v4a3 3 0 00-3 3v.5a.5.5 0 01-.492-.41L3 17a.5.5 0 00-.41-.492L2.5 16.5A.5.5 0 012 16v-5a.5.5 0 01.41-.492l.09-.008A.5.5 0 003 10a.5.5 0 01.5-.5H6zm10.5 1a.5.5 0 01.5.5v1.086a1 1 0 00.293.707l2.414 2.414a1 1 0 00.707.293H21.5a.5.5 0 01.5.5v.066a.5.5 0 01-.43.495l-3.93.562-.143.014a3.001 3.001 0 00-2.018-2.974l.46-3.234a.5.5 0 01.495-.429h.066zm-2.56-6a.348.348 0 01.312.502l-.149.302a.5.5 0 00-.016.406l1.801 3.565a.5.5 0 010 .45l-.251.5a.5.5 0 01-.447.275H12.1a1 1 0 01-.197-.02l-4.41-.882A.5.5 0 017.09 9.1l.01-.091.83-4.091a.5.5 0 01.494-.418h5.516zm-.888 1h-4.22l-.61 3.001h6.156l-1.22-2.42a1.5 1.5 0 01-.103-.459l-.003-.122z" fill="#000" fill-rule="evenodd" fill-opacity=".84"/></svg><svg width="24" height="24" id="icon-sbu-systems-aviation-badge" y="1440"><path d="M16.712 15.064l1.972 5.372-2.5-.624L14.62 22l-1.812-5.156c.286.09.578.132.876.124a3.083 3.083 0 001.918-.664c.274-.216.51-.473.706-.772l.28-.44.124-.028zm-8.84.404c.23.347.494.635.792.864.326.25.676.421 1.052.512.328.077.654.108.976.092.323-.016.632-.079.928-.188l.344-.124L10.092 22l-1.564-2.188-2.5.628 1.844-4.972zM13.588 2c.344 0 .658.074.942.222.284.148.513.355.686.622l.436.624a.623.623 0 00.376.248l.748.22a1.973 1.973 0 011.244 1.072c.12.259.175.527.164.804l-.032.844a.613.613 0 00.124.408l.532.684c.166.23.276.474.333.734.055.26.055.519 0 .776a1.783 1.783 0 01-.333.71l-.528.688a.56.56 0 00-.1.188.79.79 0 00-.028.22l.096.904c.011.288-.044.561-.164.82-.114.25-.28.469-.498.654-.217.185-.466.32-.746.402l-.752.22a.619.619 0 00-.21.088.561.561 0 00-.162.16l-.44.624c-.186.283-.423.5-.71.65a2 2 0 01-.946.226c-.264 0-.493-.041-.688-.124l-.656-.252a.632.632 0 00-.468 0l-.656.252a1.359 1.359 0 01-.332.096 2.017 2.017 0 01-.356.028 2.062 2.062 0 01-1.656-.876l-.436-.624a.622.622 0 00-.376-.248l-.752-.22a1.965 1.965 0 01-.744-.412 1.91 1.91 0 01-.496-.656 1.75 1.75 0 01-.164-.808l.032-.844a.627.627 0 00-.124-.404l-.532-.688a1.865 1.865 0 01-.354-.732 1.73 1.73 0 010-.784 1.9 1.9 0 01.354-.736l.532-.688a.55.55 0 00.096-.186.794.794 0 00.028-.218l-.096-.844a1.835 1.835 0 01.662-1.474 2.02 2.02 0 01.746-.402l.748-.22a.593.593 0 00.376-.248l.436-.624c.19-.283.428-.5.714-.65.287-.15.602-.226.946-.226.28 0 .52.041.716.124l.656.252a.632.632 0 00.468 0l.66-.252c.104-.045.215-.077.332-.096A2.01 2.01 0 0113.588 2zM12.12 4.108c-.632 0-1.24.12-1.824.362-.584.241-1.1.585-1.548 1.032A4.69 4.69 0 007.714 7.05a4.744 4.744 0 00-.362 1.826c0 .632.121 1.24.362 1.824.242.584.586 1.1 1.034 1.548.448.448.964.793 1.548 1.034.584.241 1.192.36 1.824.358.632 0 1.241-.12 1.826-.362a4.698 4.698 0 001.548-1.032 4.71 4.71 0 001.032-1.546 4.733 4.733 0 00.362-1.824c0-.632-.12-1.24-.362-1.826a4.706 4.706 0 00-1.032-1.548 4.704 4.704 0 00-1.548-1.032 4.748 4.748 0 00-1.826-.362zm2.158 2.188a.485.485 0 01.21.12l.004.004a.441.441 0 01.118.208.48.48 0 01-.118.448l-1.2 1.196.656 2.824-.436.436-1.196-2.284-1.196 1.196.108.76-.324.324-.544-.98-.98-.544.324-.328.76.112 1.196-1.196-2.288-1.196.436-.436 2.824.656 1.2-1.2a.456.456 0 01.446-.12z" fill="#000" fill-rule="evenodd" fill-opacity=".84"/></svg><svg width="24" height="24" id="icon-sbu-systems-aviation" y="1464"><path d="M16.895 4.079c.246.063.46.185.639.364.18.18.3.393.365.64a1.4 1.4 0 01-.367 1.35l-3.63 3.63a4.564 4.564 0 00-1.338 3.24c0 .598.112 1.172.335 1.722a4.52 4.52 0 001.003 1.514c.255.248.531.463.827.645.297.182.6.323.91.425l.24 1.036-1.32 1.323-3.633-6.941-3.63 3.633.335 2.307-.988.988-1.654-2.977-2.976-1.653.988-.988 2.307.334 3.633-3.633L2 7.408l1.322-1.322 8.592 1.989 3.633-3.63a1.404 1.404 0 011.348-.366zm.71 4.388a4.914 4.914 0 011.581.43c.52.24.986.562 1.396.965A4.81 4.81 0 0122 13.296a4.837 4.837 0 01-4.704 4.849l-.073-.297a4.452 4.452 0 003.155-1.332 4.561 4.561 0 001.338-3.231 4.53 4.53 0 00-1.338-3.222 4.53 4.53 0 00-3.034-1.332l.262-.264zm.72 2.998l.87 1.16h.58c.107 0 .204.026.292.078a.595.595 0 01.292.502v.874h-.583a.863.863 0 01-.87.87.872.872 0 01-.87-.87h-1.743a.87.87 0 01-1.307.752.863.863 0 01-.433-.752h-.584v-.874l1.454-1.74h2.903zm-2.902 2.177a.439.439 0 00-.38.213.431.431 0 00-.057.222.431.431 0 00.215.378c.067.038.14.057.222.057a.439.439 0 00.379-.214.431.431 0 00.057-.221.431.431 0 00-.215-.378.439.439 0 00-.221-.057zm3.483 0a.438.438 0 00-.38.213.434.434 0 00-.057.222.42.42 0 00.215.378c.067.038.14.057.222.057a.438.438 0 00.38-.214.431.431 0 00.056-.22.422.422 0 00-.215-.38.438.438 0 00-.221-.056zm-.727-1.743h-1.013v.726h1.58l-.567-.726zm-1.45 0h-1.163l-.58.726h1.743V11.9z" fill="#000" fill-rule="evenodd" fill-opacity=".84"/></svg><svg width="24" height="24" id="icon-sbu-systems-default-1" y="1488"><path d="M5.933 2.928c.404 0 .745.315.785.726L7.54 12 10.5 9.59c.604-.49 1.499-.051 1.499.734V12l2.96-2.411c.605-.49 1.5-.051 1.5.734V12l2.96-2.411c.605-.49 1.5-.051 1.5.734v10.749H3.08V12l.823-8.346a.797.797 0 01.786-.726zm13.202 14.513h-3.57v1.816h3.57V17.44zm-5.35 0h-3.57v1.816h3.57V17.44zm-5.35 0h-3.57v1.816h3.57V17.44zm10.7-3.626h-3.57v1.815h3.57v-1.815zm-5.35 0h-3.57v1.815h3.57v-1.815zm-5.35 0h-3.57v1.815h3.57v-1.815z" fill="#000" fill-rule="evenodd" fill-opacity=".84"/></svg><svg width="24" height="24" id="icon-sbu-systems-default-2" y="1512"><path d="M21.744 9.848V22H2.256v-6.152l6.616-6v5.844l6.408-5.844v5.844l6.464-5.844zm-.82 9.076H19.64v1.948h1.284v-1.948zm-1.952 0h-1.28v1.948h1.28v-1.948zm-1.948 0h-1.28v1.948h1.28v-1.948zm-2.408 0h-1.284v1.948h1.284v-1.948zm-1.948 0h-1.284v1.948h1.284v-1.948zm-1.952 0h-1.28v1.948h1.28v-1.948zm-2.46 0H6.972v1.948h1.284v-1.948zm-1.948 0H5.024v1.948h1.284v-1.948zm-1.948 0H3.076v1.948H4.36v-1.948zm16.564-2.512H19.64v1.948h1.284v-1.948zm-1.952 0h-1.28v1.948h1.28v-1.948zm-1.948 0h-1.28v1.948h1.28v-1.948zm-2.408 0h-1.284v1.948h1.284v-1.948zm-1.948 0h-1.284v1.948h1.284v-1.948zm-1.952 0h-1.28v1.948h1.28v-1.948zm-2.46 0H6.972v1.948h1.284v-1.948zm-1.948 0H5.024v1.948h1.284v-1.948zm-1.948 0H3.076v1.948H4.36v-1.948zM7.024 2l.308 8.564-3.128 2.82L4.616 2h2.408zm6.616 0l.308 8.564-3.128 2.82L11.232 2h2.408zm6.256 0l.308 8.564-3.128 2.82L17.488 2h2.408z" fill="#000" fill-rule="evenodd" fill-opacity=".84"/></svg><svg width="24" height="24" id="icon-sbu-systems-products" y="1536"><path d="M13.431 4.69v.485c.325.092.64.207.942.346a4.705 4.705 0 00-.352 1.782c0 .448.064.877.183 1.288a4.392 4.392 0 00-2.734-.951c-2.451 0-4.436 2.003-4.436 4.478 0 2.474 1.985 4.478 4.436 4.478 2.45 0 4.435-2.004 4.435-4.478a4.49 4.49 0 00-.16-1.196 4.564 4.564 0 002.867 1.016c.329 0 .654-.037.96-.111v2.567H18.47l-1.463 3.033h-.7a7.09 7.09 0 01-4.837 1.902 7.077 7.077 0 01-3.937-1.192l-1.564.905.338.596-.827.48-3.375-5.95.828-.48.466.816 1.13-.65a7.282 7.282 0 01-.21-1.74v-.084H2.95v.688H2v-6.86h.951V6.8h3.676a7.114 7.114 0 012.876-1.63v-.48h3.928zm-1.961 5.415c1.102 0 1.993.9 1.993 2.013a2.002 2.002 0 01-1.993 2.012c-1.102 0-1.994-.9-1.994-2.012 0-1.113.892-2.013 1.994-2.013zm7.142-6.223c1.874 0 3.393 1.528 3.388 3.42 0 1.889-1.518 3.422-3.388 3.422-1.87 0-3.388-1.533-3.388-3.421s1.518-3.42 3.388-3.42zm0 .66c-1.51 0-2.735 1.237-2.735 2.76 0 1.524 1.226 2.761 2.735 2.761s2.734-1.237 2.734-2.76c0-1.524-1.225-2.76-2.734-2.76zm.31 1.2c.042 0 .074.028.078.065l.055.411c.096.037.179.092.26.152l.385-.157a.078.078 0 01.096.033l.306.54a.084.084 0 01-.018.101l-.325.254c.005.056.01.106.01.157 0 .051-.005.102-.01.153l.325.258c.028.023.037.07.018.102l-.306.54a.08.08 0 01-.096.032l-.384-.157c-.082.06-.165.11-.26.152L19 8.79c-.004.037-.04.065-.077.065h-.618c-.04 0-.073-.028-.077-.065l-.055-.41a1.136 1.136 0 01-.26-.153l-.385.157a.078.078 0 01-.096-.032l-.306-.54a.084.084 0 01.018-.102l.325-.258c-.005-.051-.01-.102-.01-.153 0-.05.005-.106.01-.157l-.325-.254a.085.085 0 01-.018-.101l.306-.54c.018-.033.064-.046.096-.033l.384.157c.082-.06.165-.115.26-.152l.056-.41c.004-.038.04-.066.077-.066zm-.31 1.011a.543.543 0 00-.54.545c0 .3.243.545.54.545.297 0 .54-.245.54-.545 0-.3-.243-.545-.54-.545z" fill="#000" fill-rule="evenodd" fill-opacity=".84"/></svg><svg width="24" height="24" id="icon-sbu-systems-service" y="1560"><path d="M4.85 2.928a.803.803 0 01.659.36c.072.11.115.232.127.368l.823 8.346 2.959-2.413a.902.902 0 01.973-.111c.157.076.281.187.373.333.1.153.15.324.15.513v1.678l2.959-2.413a.918.918 0 01.298-.162.862.862 0 01.339-.038 4.551 4.551 0 00-.43 1.965c0 .629.119 1.23.357 1.805.23.556.556 1.047.977 1.474.421.427.903.759 1.447.994a4.506 4.506 0 002.97.204v5.24H2v-9.07l.823-8.345a.777.777 0 01.129-.37.816.816 0 01.284-.261.747.747 0 01.37-.097H4.85zm13.197 14.515h-3.57v1.813h3.57v-1.813zm-5.35 0H9.13v1.813h3.567v-1.813zm-5.347 0H3.783v1.813H7.35v-1.813zm5.347-3.629H9.13v1.817h3.567v-1.817zm-5.347 0H3.783v1.817H7.35v-1.817zm11.287-5.881c.456 0 .893.09 1.31.269a3.396 3.396 0 011.787 1.82c.177.425.266.869.266 1.332 0 .463-.089.908-.266 1.332-.17.41-.41.773-.72 1.088a3.295 3.295 0 01-2.377 1 3.32 3.32 0 01-1.31-.264 3.371 3.371 0 01-1.07-.736 3.38 3.38 0 01-.721-1.088 3.424 3.424 0 01-.266-1.332c0-.463.089-.907.266-1.332a3.383 3.383 0 011.79-1.82c.416-.18.852-.27 1.31-.27zm0 .658c-.369 0-.722.073-1.06.219-.322.14-.609.338-.86.593a2.756 2.756 0 00-.795 1.951 2.744 2.744 0 001.656 2.544c.337.146.69.218 1.057.218.368 0 .72-.072 1.057-.218.326-.138.613-.335.863-.591.25-.256.444-.55.582-.88.141-.341.211-.7.211-1.073 0-.374-.07-.732-.21-1.074a2.795 2.795 0 00-.583-.879 2.636 2.636 0 00-.863-.591 2.637 2.637 0 00-1.055-.219zm.306 1.202c.019 0 .036.006.05.018a.07.07 0 01.026.047l.058.411c.093.04.179.09.259.153l.378-.16a.1.1 0 01.057.002.078.078 0 01.042.03l.302.543c.01.017.012.035.009.055a.078.078 0 01-.028.047l-.32.255v.025c.005.059.007.102.007.131 0 .03-.002.074-.007.135v.018l.32.259a.079.079 0 01.028.047c.003.02 0 .038-.01.055l-.301.538a.073.073 0 01-.042.035.072.072 0 01-.053-.002l-.382-.157c-.09.066-.176.117-.259.153l-.054.412a.066.066 0 01-.028.043.084.084 0 01-.052.018h-.612a.077.077 0 01-.05-.018.068.068 0 01-.026-.043l-.055-.412a1.203 1.203 0 01-.258-.153l-.382.157a.073.073 0 01-.095-.033l-.306-.538c-.007-.017-.01-.036-.007-.055a.072.072 0 01.025-.047l.324-.259a1.479 1.479 0 01-.01-.153c.002-.053.005-.105.01-.156l-.324-.255a.085.085 0 01-.025-.05.097.097 0 01.007-.052l.306-.542a.078.078 0 01.042-.031.089.089 0 01.053-.002l.382.16c.1-.073.185-.124.258-.153l.055-.41a.07.07 0 01.025-.048.078.078 0 01.051-.018h.612zm-.306 1.011a.527.527 0 00-.464.271.56.56 0 00-.002.546c.049.084.113.15.195.199a.518.518 0 00.27.073v.003a.54.54 0 00.464-.275.545.545 0 000-.545.546.546 0 00-.196-.199.512.512 0 00-.267-.073z" fill="#000" fill-rule="evenodd" fill-opacity=".84"/></svg><svg width="24" height="24" id="icon-sbu-zbm-default" y="1584"><path d="M17.12 12.224a3.051 3.051 0 00-2.18.91 3.086 3.086 0 00-.91 2.18 3.086 3.086 0 00.91 2.18c.285.284.613.507.983.666.383.162.782.243 1.196.243a3.084 3.084 0 002.182-.907 3.08 3.08 0 00.665-3.382 3.07 3.07 0 00-.666-.983 3.051 3.051 0 00-2.18-.907zm-9.722 0a3.051 3.051 0 00-2.181.91 3.086 3.086 0 00-.91 2.18 3.086 3.086 0 00.91 2.18c.286.284.613.507.983.666.383.162.782.243 1.196.243.419 0 .818-.081 1.2-.243a3.13 3.13 0 001.647-1.65c.164-.382.246-.78.246-1.197 0-.416-.082-.815-.246-1.195a3.16 3.16 0 00-1.648-1.65 3.051 3.051 0 00-1.197-.244zm3.466.787l-.452.452c.17.266.301.556.392.87.091.32.136.657.136 1.014 0 .226-.025.49-.076.79h.794v.758h1.956V13.99l-2.75-.98zm6.218.9c.248 0 .48.065.698.193.21.127.379.295.505.505a1.362 1.362 0 010 1.395c-.126.213-.295.381-.505.505a1.342 1.342 0 01-1.392.003 1.45 1.45 0 01-.505-.504 1.33 1.33 0 01-.196-.698c0-.248.064-.482.193-.7a1.45 1.45 0 01.505-.506c.217-.128.45-.192.697-.192zm-9.684 0a1.415 1.415 0 011.201.698 1.343 1.343 0 010 1.395c-.125.213-.293.381-.506.505a1.371 1.371 0 01-1.905-.503 1.38 1.38 0 01.005-1.397 1.45 1.45 0 01.505-.505c.22-.128.453-.192.7-.192zm8.518-6.73l-1.206 3.203v1.96a3.82 3.82 0 011.12-.615 3.896 3.896 0 011.289-.216 3.864 3.864 0 012.657 1.047c.35.327.634.706.85 1.136v2.07h.798v-5.419h-.492V9.102a.851.851 0 00-.033-.243.486.486 0 00-.203-.282.257.257 0 00-.142-.043h-2.372c-.113 0-.188.038-.226.116a.455.455 0 00-.12.196.86.86 0 00-.033.256v.415h-.528V7.634h2.15l-.077-.452h-3.432zm-1.318-1.584L13.84 7.63H2.576v1.844L12.98 13.21 15.5 6.5h5.01v-.904h-5.913zM8.83 10.6h4.033l-.489 1.285L8.831 10.6zm9.347-1.661h2.296v1.398h-.598l-.153-.87h-1.545V8.94zM3.596 8.643H13.62l-.379 1.02H6.121l-2.525-.907v-.113zm12.775-.976h.34V9.51h-1.057l.717-1.843z" fill="#000" fill-rule="evenodd" fill-opacity=".84"/></svg><svg width="24" height="24" id="icon-sbu-zbm-excavator" y="1608"><path d="M20.484 15.37v3.404h-2.963v.448l.732.024a23.738 23.738 0 011.452.084c.218 0 .422.058.611.172.187.107.335.254.444.44.112.19.168.394.168.612v.22c0 .219-.056.424-.168.616-.109.184-.257.33-.444.44a1.18 1.18 0 01-.611.168h-8.591c-.219 0-.423-.056-.612-.168a1.24 1.24 0 01-.44-.44 1.18 1.18 0 01-.172-.616v-.22c0-.218.057-.422.172-.612.11-.186.256-.333.44-.44.19-.114.393-.172.612-.172.711-.032 1.65-.068 2.815-.108v-.448h-2.74a.44.44 0 01-.321-.124.43.43 0 01-.126-.32v-.96l3.187-.447 2.408-1.552h4.147zm-6.675 4.456c-1.082.016-1.98.048-2.695.096h-.072a.59.59 0 00-.31.088.675.675 0 00-.234.234.59.59 0 00-.088.31v.22c0 .11.029.213.088.31a.674.674 0 00.234.234.59.59 0 00.31.088h8.699c.109 0 .209-.03.3-.088a.645.645 0 00.295-.544v-.22a.623.623 0 00-.304-.54.61.61 0 00-.327-.092h-.072a53.27 53.27 0 00-2.696-.096 87.68 87.68 0 00-3.128 0zm7.747-4.42c.13 0 .237.042.32.125.083.082.124.19.124.32v2.52a.429.429 0 01-.444.444h-.628v-3.408h.628zM7.006 2.006a.25.25 0 01.184.144l.74 2.111-.408.704 3.628 2.852c.38.304.704.621.967.952.28.35.502.722.665 1.12l.663 2.591h1.296l1.336.26c.024.286.067.669.128 1.15.061.481.105.863.132 1.146l-1.78 1.112v-3.072h-2.775a6.314 6.314 0 00-.228.576c-.088.25-.21.639-.364 1.164v-.076a32.74 32.74 0 00-.5-2.46c-.2-.802-.42-1.466-.66-1.991-.27-.59-.575-1.03-.916-1.324L6.594 6.48l-2.48 4.26H4.08l1.703 2.52c.168 0 .344-.034.528-.1.11-.04.275-.117.496-.229l.084-.044.188.296-.22.172c-.274.214-.484.37-.628.472a4.63 4.63 0 01-.671.396c-.315.139-.631.224-.949.256-.295.03-.583.01-.863-.056a2.48 2.48 0 01-.74-.308 2.232 2.232 0 01-.568-.504 2.017 2.017 0 01-.348-.644 1.802 1.802 0 01-.084-.724 1.9 1.9 0 01.228-.752c.139-.256.333-.494.584-.715l-.112-.552L4.89 3.852l1.743-1.74c.155-.085.279-.12.372-.107z" fill="#000" fill-rule="evenodd" fill-opacity=".84"/></svg><svg width="24" height="24" id="icon-sbu-zbm-service" y="1632"><path d="M15.885 13.187l5.88 5.645.028.037a.858.858 0 01.07.104.961.961 0 01.071.174c.025.075.04.153.042.235.007.097 0 .198-.018.301-.022.12-.061.24-.118.362a2.52 2.52 0 01-.25.424 3.943 3.943 0 01-.912.893 2.495 2.495 0 01-.437.25 1.688 1.688 0 01-.372.117c-.107.02-.21.026-.31.02a.85.85 0 01-.24-.043.961.961 0 01-.174-.07.705.705 0 01-.109-.071L19 21.537l-6.525-6.234 1.294-1.293c.14-.141.406-.285.795-.433.36-.138.8-.268 1.322-.39zm2.432-10.825c.204.022.412.058.625.109.185.04.372.092.56.155.157.05.314.108.47.174.123.05.243.105.363.164l.23.118.085.047-3.237 1.411-.06.885.766 1.764L22 5.542l-.038.123c-.037.106-.078.218-.122.334-.066.163-.136.326-.212.489a7.481 7.481 0 01-.305.593 6.525 6.525 0 01-.908 1.265c-.201.213-.408.403-.621.57a4.07 4.07 0 01-.734.446l.88 2.178-.236.028c-.204.029-.415.06-.635.094a28.465 28.465 0 00-2.018.358c-.41.085-.793.172-1.148.263-.407.104-.773.212-1.096.325a7.066 7.066 0 00-.926.376c-.28.145-.493.29-.64.438l-7.41 7.644-.08.061c-.065.05-.136.099-.21.146a3.376 3.376 0 01-.33.179c-.138.069-.278.124-.419.164a2.234 2.234 0 01-1.02.071 2.02 2.02 0 01-.56-.198 2.5 2.5 0 01-.558-.423 2.31 2.31 0 01-.42-.555 1.848 1.848 0 01-.198-.55 1.852 1.852 0 01-.029-.527c.013-.157.044-.315.094-.475a3.018 3.018 0 01.494-.937l.061-.075 8.586-6.816a6.453 6.453 0 001.034-1.35c.273-.461.526-.99.758-1.586.188-.48.368-1.016.54-1.608.101-.345.228-.819.382-1.421.132-.524.226-.869.282-1.035.104-.307.21-.546.32-.715a1.37 1.37 0 01.452-.428c.166-.1.4-.193.7-.278.195-.053.557-.138 1.087-.254l.146-.033a4.42 4.42 0 011.374-.061zM3.978 18.225c-.22.053-.406.157-.56.31a1.41 1.41 0 00-.312.586 1.247 1.247 0 000 .635 1.197 1.197 0 00.872.858c.217.054.431.054.645 0 .22-.053.406-.158.56-.315.153-.153.258-.335.312-.543.055-.209.055-.42 0-.635a1.41 1.41 0 00-.312-.586 1.163 1.163 0 00-.56-.31 1.317 1.317 0 00-.645 0zm10.556-3.157l-.352.353 5.113 4.94.353-.353-5.114-4.94zm1.703-.353l-.352.353 4.412 4.29.353-.352-4.413-4.29zM3.357 2.25l2.94 1.939.767 1.764 3.999 3.998c-.235.314-.392.53-.47.65l-.88.705-3.999-3.942L3.95 6.6 2.007 3.66l1.35-1.412z" fill="#000" fill-rule="evenodd" fill-opacity=".84"/></svg><svg width="24" height="24" id="icon-sbu-zbm-used" y="1656"><path d="M7.974 12.913c.417 0 .816.082 1.197.246.37.157.698.379.984.665.286.286.509.614.668.984.162.381.243.781.243 1.2a3.047 3.047 0 01-.91 2.18 3.09 3.09 0 01-2.182.912 3.093 3.093 0 01-2.181-.91 3.056 3.056 0 01-.91-2.182c0-.417.08-.817.242-1.2a3.169 3.169 0 011.653-1.649c.381-.164.78-.246 1.196-.246zm9.728 0c.416 0 .815.082 1.196.246.37.157.699.379.985.665a3.091 3.091 0 01.91 2.184c0 .415-.082.813-.246 1.197a3.12 3.12 0 01-1.649 1.649 3.02 3.02 0 01-1.198.246 3.095 3.095 0 01-2.182-.91 3.093 3.093 0 01-.911-2.184c0-.415.082-.815.246-1.198a3.12 3.12 0 01.664-.982 3.075 3.075 0 012.185-.913zm-6.257.788l2.753.984v2.902h-1.962v-.754h-.791c.051-.302.076-.567.076-.795 0-.353-.046-.69-.139-1.01a3.16 3.16 0 00-.392-.872l.455-.455zm6.217.908c-.248 0-.481.065-.698.196a1.414 1.414 0 00-.699 1.201c0 .247.065.48.193.7.127.21.295.38.506.506.217.128.45.192.698.192.248 0 .48-.064.698-.192.21-.127.379-.295.505-.506a1.36 1.36 0 000-1.396 1.417 1.417 0 00-.505-.505 1.332 1.332 0 00-.698-.196zm-9.693 0c-.247 0-.48.065-.7.196a1.417 1.417 0 00-.698 1.203 1.407 1.407 0 00.682 1.203 1.373 1.373 0 001.413-.003c.213-.126.381-.294.505-.505a1.33 1.33 0 000-1.393 1.38 1.38 0 00-.505-.505 1.328 1.328 0 00-.697-.196zm11.96-6.746l.076.452h-2.15V10.2h.528v-.415c0-.1.011-.185.033-.256a.46.46 0 01.12-.196c.038-.078.113-.117.226-.117h2.374c.05 0 .098.015.143.044a.488.488 0 01.203.282.854.854 0 01.033.243v1.246l.485-.006v5.428h-.791v-2.07c-.217-.43-.5-.81-.851-1.137a3.88 3.88 0 00-2.66-1.048c-.445 0-.875.072-1.29.216-.403.14-.776.345-1.12.615v-1.961l1.207-3.205h3.434zm1.164-1.585v.904h-5.014l-2.523 6.715-6.153-2.207a4.33 4.33 0 001.353-1.34h5.056l.379-1.017h-4.95c.106-.317.174-.658.203-1.02h4.973l.758-2.035h5.918zM13.44 11.29H9.404l3.547 1.283.489-1.283zM5.523 4.93c.37.056.713.17 1.028.346l-.46.459a2.51 2.51 0 00-.657-.193 2.436 2.436 0 00-1.83.464 2.45 2.45 0 00-.637.696c-.17.284-.28.591-.33.923a2.47 2.47 0 00.05.979 2.478 2.478 0 001.111 1.486c.283.173.59.282.92.329a2.44 2.44 0 001.745-.404c.251-.172.463-.382.636-.63.177-.255.301-.534.373-.838l-.39.01.689-1.283.764 1.237-.422.016a2.98 2.98 0 01-.435 1.11 3.045 3.045 0 01-1.842 1.334c-.393.1-.791.12-1.197.06a3.012 3.012 0 01-1.15-.413 3.07 3.07 0 01-1.456-3.08 3.04 3.04 0 01.412-1.152c.206-.341.47-.632.793-.872a3.098 3.098 0 012.286-.583zm15.533 4.7h-2.297v.533h1.546l.153.867h.598v-1.4zM17.289 8.35h-.339l-.718 1.845h1.057V8.349zM7.385 5.692l.432.44-3.082 3.081L3.35 7.827l.44-.44.946.952 2.65-2.647z" fill="#000" fill-rule="evenodd" fill-opacity=".84"/></svg><svg width="24" height="24" id="icon-sbu-zps-default" y="1680"><path d="M15.558 5.387v.897h-2.464v.728h3.25l2.243 2.074h.446V7.964H21.5V18h-2.467v-1.46H17.97v1.291c0 .147-.024.281-.07.401a.642.642 0 01-.198.282.464.464 0 01-.295.1H8.273L6.368 16.71H4.743a.62.62 0 01-.403-.153.971.971 0 01-.278-.389 1.35 1.35 0 01-.102-.525v-1.736h-.563v2.523H2.5V8.247h.842v2.52H3.9V9.702c0-.199.04-.382.117-.549a.968.968 0 01.29-.377.617.617 0 01.38-.14h1.456V7.74c0-.13.03-.256.088-.377a.75.75 0 01.237-.29.575.575 0 01.348-.116h3.195v-.673H7.49v-.897h8.068zm-2.464 3.588H11.3l-2.464 4.538h3.64l-1.345 3.644 3.588-5.21h-3.195l1.57-2.972z" fill="#000" fill-rule="evenodd" fill-opacity=".84"/></svg><svg width="24" height="24" id="icon-sbu-zps-service" y="1704"><path d="M13.977 5.353c-.036.224-.062.391-.077.501a4.434 4.434 0 00-.032.504c0 .616.117 1.206.352 1.77.226.548.547 1.033.963 1.455a4.439 4.439 0 003.195 1.34 4.432 4.432 0 002.507-.778v7.8h-2.394v-1.448h-1.06v1.334a.882.882 0 01-.303.666.488.488 0 01-.31.116h-9.08l-1.893-1.951h-1.56a.64.64 0 01-.398-.136.892.892 0 01-.278-.375 1.393 1.393 0 01-.103-.546v-1.728h-.614v2.562H2v-8.3h.837v2.62h.556v-1.06c0-.196.038-.378.116-.546a.947.947 0 01.287-.373.617.617 0 01.378-.138h1.503v-.95a.873.873 0 01.307-.662.484.484 0 01.307-.116h3.176v-.669H6.96v-.892h7.017zM12.53 9.03h-1.784L8.297 13.6h3.619l-1.338 3.677 3.567-5.238H10.97l1.56-3.008zm6.014-6.239c.467 0 .913.092 1.34.275.413.174.78.421 1.1.741.32.32.567.687.741 1.1a3.427 3.427 0 010 2.685c-.174.42-.422.794-.743 1.12-.32.326-.687.58-1.098.76a3.39 3.39 0 01-3.775-.743 3.452 3.452 0 01-.742-1.114 3.495 3.495 0 01-.275-1.37c0-.478.092-.931.275-1.36a3.404 3.404 0 011.842-1.829c.424-.177.869-.265 1.335-.265zm.002.559c-.396 0-.774.078-1.134.233a2.952 2.952 0 00-1.538 1.55 2.801 2.801 0 00.01 2.233c.148.35.358.663.63.94.271.278.578.495.92.65.36.161.731.242 1.113.242.383 0 .753-.078 1.11-.236a2.95 2.95 0 00.923-.636 2.967 2.967 0 00.861-2.08 2.854 2.854 0 00-.861-2.053 2.869 2.869 0 00-2.034-.843zm1.225 1.002l-.78.778.557.56.782-.783c.07.147.108.304.113.472a1.209 1.209 0 01-.336.866 1.206 1.206 0 01-.813.355.959.959 0 01-.415-.077l-1.616 1.615a.15.15 0 01-.111.042.15.15 0 01-.112-.042l-.387-.387a.16.16 0 01-.075-.071.096.096 0 010-.084.145.145 0 01.075-.068l1.502-1.729a1.11 1.11 0 01-.048-.65c.05-.215.158-.406.326-.574.2-.173.417-.28.65-.32.24-.046.47-.013.688.097z" fill="#000" fill-rule="evenodd" fill-opacity=".84"/></svg><svg width="24" height="24" id="icon-sbu-zps-used" y="1728"><path d="M14.05 5.276a4.63 4.63 0 001.207 4.25c.414.424.891.752 1.431.984a4.35 4.35 0 001.751.362 4.482 4.482 0 002.51-.778v7.875h-2.435v-1.475h-1.041v1.338a.928.928 0 01-.081.384.764.764 0 01-.216.29.456.456 0 01-.29.107H7.767l-1.891-1.932H4.254a.598.598 0 01-.377-.139.947.947 0 01-.28-.377 1.333 1.333 0 01-.109-.54v-1.751H2.9v2.576H2V8.124h.903v2.58h.541v-1.06c0-.196.036-.377.107-.541a.988.988 0 01.283-.379.594.594 0 01.376-.14h1.442v-.92c0-.135.028-.263.084-.383a.75.75 0 01.225-.286c.1-.073.209-.11.325-.112h3.199v-.691H6.959v-.916h7.09zm-1.495 3.68h-1.76l-2.439 4.599h3.611l-1.357 3.683 3.57-5.247h-3.2l1.575-3.035zm6.347-5.872c.373.054.724.175 1.053.363l-.472.481a2.43 2.43 0 00-1.682-.147 2.543 2.543 0 00-1.529 1.16c-.177.298-.29.621-.342.97a2.595 2.595 0 001.193 2.588 2.51 2.51 0 003.398-.74c.182-.27.31-.562.385-.88l-.4.01.703-1.347L22 6.839l-.434.016c-.075.42-.224.81-.448 1.169-.219.346-.492.64-.819.883a3.078 3.078 0 01-2.31.577 3.14 3.14 0 01-2.084-1.265 3.251 3.251 0 01-.527-1.117 3.256 3.256 0 01-.07-1.282 3.243 3.243 0 011.24-2.126 3.115 3.115 0 011.097-.538c.413-.11.831-.134 1.257-.072zm1.913.791l.45.46-3.17 3.236-1.426-1.457.444-.46.982 1.004 2.72-2.783z" fill="#000" fill-rule="evenodd" fill-opacity=".84"/></svg><svg width="24" height="24" id="icon-sbu-zrd-default" y="1752"><path d="M7.145 14.47c.278 0 .543.054.796.161a2.052 2.052 0 011.255 1.888 2.108 2.108 0 01-.602 1.483c-.189.19-.406.334-.653.432a1.914 1.914 0 01-.796.137 2.039 2.039 0 01-1.45-.601 2.043 2.043 0 010-2.898 2.043 2.043 0 011.45-.602zm6.28 0c.277 0 .542.054.795.161a2.052 2.052 0 011.255 1.888 2.11 2.11 0 01-.602 1.483c-.189.19-.406.334-.653.432a1.914 1.914 0 01-.796.137 2.038 2.038 0 01-1.45-.601 2.043 2.043 0 010-2.898 2.043 2.043 0 011.45-.602zM7.772 9.613l8.581 3.014v.963h.208l3.265 2.887.754-.082.628.502-4.478.585a.754.754 0 01-.676-.286.833.833 0 01-.162-.342v-.335a2.46 2.46 0 00-.583-1.598 2.416 2.416 0 00-.63-.535v-.963l-6.907-2.47v-1.34zm-.63 5.986a.887.887 0 00-.46.127.941.941 0 00-.332.332.9.9 0 00-.126.461c0 .18.042.343.126.49a.863.863 0 00.332.333.807.807 0 00.462.1.885.885 0 00.461-.129.918.918 0 00.46-.792.902.902 0 00-.127-.463.941.941 0 00-.333-.332.9.9 0 00-.462-.127zm6.238 0a.887.887 0 00-.46.127.94.94 0 00-.333.332.899.899 0 00-.126.461c0 .18.042.343.126.49a.862.862 0 00.333.333.807.807 0 00.461.1.886.886 0 00.462-.129.92.92 0 00.458-.792.9.9 0 00-.126-.463.942.942 0 00-.332-.332.902.902 0 00-.463-.127zm-5.566-4.27l6.53 2.345v.5c-.141-.059-.29-.102-.446-.128a2.764 2.764 0 00-.475-.037c-.34 0-.664.066-.976.198a2.522 2.522 0 00-1.337 1.34 2.43 2.43 0 00-.163 1.376c.028.126.072.23.132.308H9.57c.085-.251.127-.502.127-.754a2.509 2.509 0 00-.9-1.928 2.471 2.471 0 00-.941-.498l-.042-.042v-2.68zM5.009 8.4l2.26.797v4.855h-.124a2.499 2.499 0 00-1.89.857 2.345 2.345 0 00-.497.902l-1.255-.253-.712-.712.335-3.138.92-.879.25-2.428h.713zm8.958-2.972c.069 0 .131.021.188.062a.3.3 0 01.105.358l-.293.962 1.34 5.064-.712-.293-.543-2.091h-1.883l.293 1.34-.504-.17-.25-1.128h-1.214l.166.67-.5-.17-.127-.5H8.778l-.963-.335.67-3.518a.385.385 0 01.118-.171.335.335 0 01.217-.08h5.147zm-8.79 3.769a.283.283 0 00-.292.293.285.285 0 00.291.292.285.285 0 00.21-.084.285.285 0 00.085-.21.287.287 0 00-.294-.291zm8.371-1.424H11.75l.292 1.297h1.84l-.334-1.297zm-2.26 0h-1.213l.293 1.297h1.213l-.293-1.297zm-1.675 0h-.878l-.25 1.297h1.421l-.293-1.297zm3.518-1.466h-1.759l.251 1.047 1.759-.043v-.042l-.042-.166-.085-.25v-.043l-.124-.503zm-2.178 0H9.74l.25 1.047h1.214l-.25-1.047zm-1.675 0h-.25L8.82 7.353h.712l-.254-1.047z" fill="#000" fill-rule="evenodd" fill-opacity=".84"/></svg><svg width="24" height="24" id="icon-sbu-zrd-infrastructure" y="1776"><path d="M14.713 6.644c.046 0 .086.016.119.049l4.144 4.107c.032.036.049.077.049.123a.167.167 0 01-.172.168h-2.06l3.37 10.688a.162.162 0 01-.041.172A.167.167 0 0120 22H9.426a.165.165 0 01-.053-.008.163.163 0 01-.098-.084.165.165 0 01-.013-.13l3.37-10.687h-2.06a.167.167 0 01-.122-.05.169.169 0 01.004-.242l4.14-4.106a.162.162 0 01.119-.05zm.01 11.31a.397.397 0 00-.29.113.392.392 0 00-.13.288v1.835c.003.11.043.202.12.278.076.077.17.117.282.121a.386.386 0 00.29-.11.397.397 0 00.127-.289v-1.835a.402.402 0 00-.118-.28.393.393 0 00-.28-.12zm-.002-4.115a.393.393 0 00-.29.112.392.392 0 00-.128.285v1.863a.391.391 0 00.127.285c.082.078.18.115.293.112a.39.39 0 00.287-.129.4.4 0 00.112-.292v-1.84a.395.395 0 00-.118-.278.4.4 0 00-.283-.118zM9.221 2c.263 0 .504.066.725.197a1.428 1.428 0 01.713 1.236h.835c.071 0 .131.025.18.074.05.05.074.108.072.176a.234.234 0 01-.076.172L10.66 4.871v2.866h1.134l-2.207 2.19a1.408 1.408 0 00-.414.996c0 .254.064.489.193.704.123.213.29.381.5.504.218.128.454.193.708.193h.377L9.709 16.25c-.156.06-.32.091-.492.094H6.351a1.41 1.41 0 01-.725-.197 1.418 1.418 0 01-.708-1.24v-1.43l-1.016-1.015a.24.24 0 01-.074-.176c0-.069.025-.126.074-.174a.244.244 0 01.176-.072h.84V9.174L3.902 8.16a.223.223 0 01-.072-.174.247.247 0 01.074-.176.237.237 0 01.174-.072h.84V4.871L3.906 3.855a.228.228 0 01-.076-.176.24.24 0 01.076-.174.244.244 0 01.176-.072h.84c0-.259.064-.5.192-.725.128-.215.3-.386.516-.511A1.41 1.41 0 016.355 2h2.867zm-1.43 10.041c-.262 0-.502.065-.723.197a1.417 1.417 0 00-.516.515 1.392 1.392 0 00-.197.723c0 .26.066.502.197.723.128.216.3.388.516.516.22.131.461.197.722.197.261 0 .502-.066.723-.197.218-.128.39-.3.516-.516.131-.221.197-.463.197-.725 0-.259-.066-.5-.197-.72-.128-.219-.3-.391-.516-.516a1.393 1.393 0 00-.723-.197zm6.912-1.95a.39.39 0 00-.287.13.4.4 0 00-.113.293v1.838c.003.11.043.202.12.279.076.076.17.116.282.118a.393.393 0 00.29-.112.392.392 0 00.127-.285V10.49a.392.392 0 00-.127-.285.396.396 0 00-.292-.112zM7.79 7.738c-.26 0-.501.066-.722.197a1.417 1.417 0 00-.516.516 1.392 1.392 0 00-.197.722c0 .261.066.502.197.723.128.219.3.39.516.516.176.105.366.168.57.189l.154.008c.26 0 .5-.066.721-.197.218-.125.39-.297.516-.516.131-.221.197-.462.197-.723 0-.26-.066-.501-.197-.722a1.42 1.42 0 00-.516-.516 1.393 1.393 0 00-.723-.197zm0-4.3a1.416 1.416 0 00-1.238.709 1.41 1.41 0 00-.197.725 1.426 1.426 0 00.713 1.237c.176.104.366.167.57.188l.154.008c.26 0 .5-.066.721-.197.218-.125.39-.296.516-.512a1.41 1.41 0 00.197-.724c0-.26-.066-.501-.197-.725a1.42 1.42 0 00-1.239-.709z" fill="#000" fill-rule="evenodd" fill-opacity=".84"/></svg><svg width="24" height="24" id="icon-sbu-zrd-logistics" y="1800"><path d="M11.131 5.648c-.04.077-.08.226-.125.447a7.494 7.494 0 011.894-.01 5.528 5.528 0 00-.401 2.079 5.536 5.536 0 001.105 3.324c.348.465.76.864 1.233 1.197l-.043.19-.266 1.079c-.24.886-.447 1.425-.625 1.618-.07.077-.02.197.148.361a.44.44 0 00.158.063c.076.02.133.03.17.03.07 0 .131-.028.182-.083.293-.318.624-1.266.993-2.844.36.178.73.312 1.111.405.397.094.799.142 1.207.144a5.34 5.34 0 001.292-.164 5.39 5.39 0 001.177-.457c.265.938.412 1.896.44 2.874h.514c.127 0 .244.031.352.095a.71.71 0 01.351.621v1.312a.724.724 0 01-.352.623.67.67 0 01-.351.097H18.88c-.1.277-.25.522-.45.737-.195.208-.422.37-.68.487a2.09 2.09 0 01-.833.177H7.08a2.057 2.057 0 01-.832-.18 2.044 2.044 0 01-.68-.487c-.2-.213-.35-.457-.45-.734H2.706a.678.678 0 01-.354-.097A.72.72 0 012 17.93v-1.312a.71.71 0 01.353-.621.686.686 0 01.354-.095h.513c.033-1.127.219-2.215.559-3.262a10.634 10.634 0 011.374-2.795 9.438 9.438 0 012.039-2.15 7.217 7.217 0 01-.128-.902c0-.041.172-.123.516-.246a26.126 26.126 0 012.565-.723c.46-.106.789-.164.986-.175zM7.734 8.32a.688.688 0 00-.167.054.622.622 0 00-.174.105c-.051.044-.073.088-.066.132.096.616.21 1.28.342 1.992.232 1.267.459 2.33.68 3.19.305 1.168.581 1.885.829 2.15a.231.231 0 00.18.082c.049 0 .113-.005.192-.016.1-.015.16-.033.18-.053a.874.874 0 00.148-.177c.042-.077.042-.137 0-.181-.177-.195-.387-.735-.628-1.621l-.266-1.082a57.35 57.35 0 01-.457-2.223c-.138-.73-.261-1.443-.368-2.14-.007-.044-.037-.084-.09-.122a.518.518 0 00-.335-.09zm10.133-4.37a3.975 3.975 0 011.606.33 4.217 4.217 0 012.2 2.242c.217.525.326 1.072.327 1.643a4.207 4.207 0 01-.324 1.64 4.183 4.183 0 01-.884 1.336c-.382.39-.82.691-1.316.906a4.04 4.04 0 01-1.608.335 4.102 4.102 0 01-2.921-1.241 4.238 4.238 0 01-.886-1.337 4.263 4.263 0 01-.322-1.639c0-.57.107-1.117.322-1.639.21-.502.506-.947.886-1.337.38-.389.818-.69 1.314-.905a4.017 4.017 0 011.606-.334zm.001.505c-.493 0-.964.096-1.413.289a3.684 3.684 0 00-1.93 1.97c-.191.46-.287.942-.287 1.445a3.736 3.736 0 001.069 2.625 3.582 3.582 0 002.565 1.082c.49-.002.962-.1 1.413-.296.435-.188.82-.454 1.156-.796a3.63 3.63 0 00.778-1.177c.189-.458.282-.938.281-1.44a3.761 3.761 0 00-1.068-2.624 3.6 3.6 0 00-1.156-.792 3.403 3.403 0 00-1.408-.286zm-.207.486l.908 1.253h-.631v3.242l.605-.618a.264.264 0 01.197-.086h.74V8.02l1.223.93-1.223.928V9.3h-.625l-.917.934v.852a.282.282 0 01-.081.202.261.261 0 01-.196.084.267.267 0 01-.197-.084.279.279 0 01-.082-.202V9.66l-1.628-1.664a.272.272 0 01-.082-.2v-.51h-.631l.91-1.253.908 1.253h-.631v.391l1.154 1.18V6.194h-.628l.907-1.253z" fill="#000" fill-rule="evenodd" fill-opacity=".84"/></svg><svg width="24" height="24" id="icon-sbu-zrd-rental" y="1824"><path d="M14.189 14.478c.275 0 .541.055.797.166.248.108.467.26.66.453a2.118 2.118 0 01.613 1.477c0 .28-.055.55-.165.81a2.141 2.141 0 01-1.108 1.117 1.973 1.973 0 01-1.598 0 2.086 2.086 0 01-.66-.452 2.09 2.09 0 010-2.952c.193-.194.413-.345.66-.453.257-.11.523-.166.8-.166zm-6.261 0c.277 0 .544.055.8.166a2.12 2.12 0 011.112 2.74c-.103.25-.249.473-.437.666a2.011 2.011 0 01-.656.451 2.033 2.033 0 01-1.62 0 2.143 2.143 0 01-1.107-1.118 2.079 2.079 0 01-.162-.81 2.079 2.079 0 01.61-1.476c.193-.194.412-.345.66-.453.255-.11.522-.166.8-.166zm2.88-4.148l6.297 2.289v.952h.189l3.295 2.953.752-.093.659.523-4.471.57a.748.748 0 01-.68-.277.867.867 0 01-.169-.341v-.334c0-.293-.053-.58-.16-.861a2.571 2.571 0 00-1.061-1.28V13.43l-5.018-1.843c.176-.404.298-.823.368-1.257zm3.38 5.29a.907.907 0 00-.474.13.957.957 0 000 1.647.923.923 0 00.475.128.919.919 0 00.472-.128.953.953 0 00.467-.823.955.955 0 00-.467-.823.907.907 0 00-.474-.13zm-6.214 0a.907.907 0 00-.473.13.957.957 0 000 1.647.923.923 0 00.475.128.92.92 0 00.472-.128.953.953 0 00.467-.823.955.955 0 00-.467-.823.907.907 0 00-.474-.13zM10.238 12l4.844 1.763v.475a1.75 1.75 0 00-.429-.147 2.32 2.32 0 00-.464-.042c-.336 0-.659.066-.969.2a2.57 2.57 0 00-1.331 1.347 2.494 2.494 0 00-.173 1.334c.009.076.026.192.053.347l.019.106H10.28a1.964 1.964 0 00.141-.763 2.47 2.47 0 00-.245-1.075 2.59 2.59 0 00-.657-.852c-.279-.24-.59-.407-.933-.503l-.048-.045v-.326c.322-.206.611-.44.87-.701.321-.327.598-.7.829-1.118zm-6.55 2.102c.431.208.882.351 1.353.43.466.078.934.09 1.403.034a2.614 2.614 0 00-.917 1.292l-1.225-.286-.704-.715.09-.755zM5.853 5.62A3.818 3.818 0 018.584 6.76c.37.373.653.804.848 1.29.187.47.28.96.28 1.47a3.938 3.938 0 01-1.125 2.764 3.826 3.826 0 01-5.457-.002 3.847 3.847 0 01-.847-1.294A3.906 3.906 0 012 9.52c0-.51.094-.999.283-1.468.194-.487.475-.918.844-1.291a3.813 3.813 0 012.725-1.142zm.01.467A3.343 3.343 0 003.465 7.09a3.44 3.44 0 00-.995 2.435c0 .449.082.879.248 1.29.172.426.421.803.747 1.128a3.35 3.35 0 002.402 1.008 3.302 3.302 0 002.392-1.008c.325-.33.574-.708.746-1.136.166-.415.249-.847.249-1.296 0-.449-.083-.88-.249-1.292a3.36 3.36 0 00-.747-1.129 3.37 3.37 0 00-2.396-1.005zm8.89-.755c.074 0 .141.023.2.07a.356.356 0 01.13.36l-.33.952 1.366 5.098-.8-.192-.566-2.097h-1.884l.331 1.334-.47-.19-.285-1.144h-1.222l.142.67-.473-.193-.029-.165a5.211 5.211 0 00-.104-1.4 5.06 5.06 0 00-1.35-2.506l-.09-.085-.06-.053.033-.174a.387.387 0 01.13-.213.307.307 0 01.2-.072h5.13zM7.857 7.522c.002.003-.004.097-.018.283l-.007.101c-.02.254-.032.387-.038.4-.003.006-.051.01-.147.01h-.1c-.083 0-.137 0-.164.003-.039.003-.066.013-.082.029s-.026.044-.03.083a1.46 1.46 0 00-.005.16l-.003.24H7.05a.984.984 0 00-.237.01.11.11 0 00-.044.042.223.223 0 00-.015.084 6.575 6.575 0 00-.005.195v.253l-.409.405-.056.056-.081.081a1.791 1.791 0 00-.105.12.132.132 0 00-.024.058c0 .01.003.03.01.059a1.207 1.207 0 01-.13.918c-.104.17-.241.306-.414.405a1.12 1.12 0 01-.57.155 1.137 1.137 0 01-.861-.384 1.37 1.37 0 01-.138-.171 1.215 1.215 0 01-.162-.839 1.134 1.134 0 01.816-.903c.092-.03.19-.047.293-.05.104-.004.206.005.307.026.073.016.118.021.136.016.013-.004.073-.058.182-.164.108-.106.363-.357.763-.754l.915-.91.312-.013.224-.006c.064-.001.097 0 .1.002zM4.598 10.5a.337.337 0 00-.104.018.153.153 0 00-.048.024.566.566 0 00-.104.105.287.287 0 00-.042.17c.001.043.01.08.024.112.01.025.03.052.057.084a.326.326 0 00.073.065c.052.028.107.04.166.037a.334.334 0 00.162-.053.3.3 0 00.114-.156.291.291 0 00-.002-.196.147.147 0 00-.022-.052.858.858 0 00-.119-.12.135.135 0 00-.05-.023.29.29 0 00-.105-.015zm7.518-2.834h-1.225l.283 1.334H12.4l-.283-1.334zm2.26 0h-1.79l.282 1.334h1.836l-.328-1.334zm-.377-1.478h-1.79l.235 1.048h1.79v-.048l-.045-.14-.048-.286v-.048l-.142-.526zm-2.211 0h-1.225l.235 1.048h1.225l-.235-1.048z" fill="#000" fill-rule="evenodd" fill-opacity=".84"/></svg><svg width="24" height="24" id="icon-social-facebook" y="1848"><path d="M22 12c0-5.523-4.477-10-10-10S2 6.477 2 12c0 4.991 3.657 9.128 8.438 9.879V14.89h-2.54V12h2.54V9.797c0-2.506 1.492-3.89 3.777-3.89 1.094 0 2.238.195 2.238.195v2.46h-1.26c-1.243 0-1.63.771-1.63 1.562V12h2.773l-.443 2.89h-2.33v6.989C18.343 21.129 22 16.99 22 12" fill="#000" fill-rule="evenodd" fill-opacity=".84"/></svg><svg width="24" height="24" id="icon-social-instagram" y="1872"><path d="M13.245 2c1.615.005 2.002.02 2.878.06 1.064.048 1.791.217 2.427.464a4.902 4.902 0 011.772 1.154 4.902 4.902 0 011.153 1.771c.247.636.416 1.363.465 2.428.042.914.056 1.295.06 3.095v2.055c-.004 1.8-.018 2.182-.06 3.096-.049 1.064-.218 1.791-.465 2.427a4.902 4.902 0 01-1.153 1.772 4.902 4.902 0 01-1.772 1.153c-.636.247-1.363.416-2.427.465-.914.042-1.295.056-3.096.06H10.972c-1.8-.004-2.181-.018-3.095-.06-1.065-.049-1.792-.218-2.428-.465a4.902 4.902 0 01-1.771-1.153 4.902 4.902 0 01-1.154-1.772c-.247-.636-.416-1.363-.464-2.427-.04-.876-.055-1.263-.06-2.878v-2.49c.005-1.616.02-2.002.06-2.878.048-1.065.217-1.792.464-2.428a4.902 4.902 0 011.154-1.771 4.902 4.902 0 011.771-1.154c.636-.247 1.363-.416 2.428-.464.876-.04 1.262-.055 2.877-.06zm-.204 1.802h-2.083c-1.738.003-2.101.017-3 .057-.974.045-1.504.208-1.856.345-.467.181-.8.398-1.15.748-.35.35-.567.683-.748 1.15-.137.352-.3.882-.345 1.857-.04.898-.054 1.26-.057 2.999v2.083c.003 1.739.017 2.101.057 3 .045.975.208 1.504.345 1.857.181.466.398.8.748 1.15.35.35.683.566 1.15.748.352.136.882.3 1.857.344.898.04 1.26.054 2.999.057l.486.001h1.598c1.209-.003 1.752-.01 2.274-.028l.195-.007.53-.023c.975-.045 1.504-.208 1.857-.345.466-.18.8-.398 1.15-.748.35-.35.566-.683.748-1.15.136-.352.3-.881.344-1.856l.023-.53.007-.196c.018-.52.025-1.064.027-2.274l.001-.485v-.843-.755a78.324 78.324 0 00-.022-2.076l-.006-.198a64.448 64.448 0 00-.03-.725c-.045-.975-.208-1.505-.345-1.857a3.098 3.098 0 00-.748-1.15 3.098 3.098 0 00-1.15-.748c-.352-.137-.881-.3-1.856-.345-.899-.04-1.261-.054-3-.057zM12 6.864a5.135 5.135 0 110 10.27 5.135 5.135 0 010-10.27zm0 1.802a3.333 3.333 0 100 6.667 3.333 3.333 0 000-6.667zm5.338-3.205a1.2 1.2 0 110 2.4 1.2 1.2 0 010-2.4z" fill="#000" fill-rule="evenodd" fill-opacity=".84"/></svg><svg xmlns:xlink="http://www.w3.org/1999/xlink" width="24" height="24" id="icon-social-kununu" y="1896"><defs><path d="M15.476 18.334l-.05 3.16a.51.51 0 01-.516.506h-3.087a.512.512 0 01-.514-.506v-3.16h-.012v-1.02c0-1.1-.914-1.994-2.033-1.994H8.173c-1.122 0-2.033.894-2.033 1.994h-.022v4.18c0 .278-.23.506-.515.506H2.514A.511.511 0 012 21.494V2.689c0-.277.23-.505.514-.505h3.089c.285 0 .515.228.515.505v8.875a6.317 6.317 0 012.055-.344h1.045v-.012c1.123 0 2.034-.895 2.034-1.992l.065-1.023a.511.511 0 01.506-.42h3.087c.256 0 .466.182.507.42h.014v1.023a6 6 0 01-1.552 4.022 6.016 6.016 0 011.597 4.076v1.02zm3.54-11.902l-.757.743c-.39.383-1.02.387-1.41.005l-.124-.123a.963.963 0 01.005-1.382l.707-.694.047-.045c.101-.1.269-.1.37 0l.095.094c.102.1.11.265.009.366l-.756.74a.315.315 0 000 .454l.124.123a.334.334 0 00.464.002l.756-.742c.102-.099.27-.095.372.005l.095.095c.103.1.105.26.004.359zm0-3.04l-.095.094c-.101.099-.272.107-.373.007l-.754-.742a.335.335 0 00-.464 0l-.125.122a.322.322 0 00-.002.457l.756.74a.254.254 0 01-.006.364l-.094.095a.26.26 0 01-.366.003l-.758-.742a.964.964 0 01-.005-1.384l.125-.122a1.008 1.008 0 011.408.006l.707.694.047.045a.255.255 0 010 .363zm2.687 3.663l-.122.12c-.39.383-1.022.38-1.41-.004l-.708-.694-.047-.045a.253.253 0 010-.363l.096-.094c.101-.1.271-.108.373-.008l.756.742a.331.331 0 00.462 0l.125-.121a.32.32 0 00.002-.457l-.756-.742a.254.254 0 01.006-.364l.095-.093a.262.262 0 01.366-.005l.757.744c.391.382.395 1 .005 1.384zm.003-3.26l-.708.694-.047.046a.267.267 0 01-.37 0l-.096-.096a.257.257 0 01-.007-.365l.757-.741a.317.317 0 000-.453l-.125-.123a.336.336 0 00-.465-.002l-.756.74a.266.266 0 01-.37-.003l-.096-.094a.25.25 0 01-.004-.36l.756-.744a1.012 1.012 0 011.41-.004l.124.121a.965.965 0 01-.003 1.384z" id="icon-social-kununu-a"/></defs><use fill-opacity=".84" fill="#000" xlink:href="#icon-social-kununu-a" fill-rule="evenodd"/></svg><svg width="24" height="24" id="icon-social-linkedin" y="1920"><path d="M19.062 19.048h-2.939V14.38c0-1.143 0-2.571-1.516-2.571-1.517 0-1.801 1.238-1.801 2.476v4.762H9.867V9.524h2.844v1.333c.569-.952 1.611-1.619 2.749-1.524 3.033 0 3.507 2 3.507 4.572l.095 5.143zM6.455 8.19a1.703 1.703 0 01-1.706-1.714c0-.952.758-1.714 1.706-1.714s1.706.762 1.706 1.714c0 .953-.758 1.714-1.706 1.714zM5.033 19.048h2.939V9.524H5.033v9.524zM20.483 2H3.517C2.758 2 2.095 2.667 2 3.429V20.57C2 21.333 2.664 22 3.517 22h16.966c.759 0 1.422-.667 1.517-1.429V3.43C22 2.667 21.336 2 20.483 2z" fill="#000" fill-rule="evenodd" fill-opacity=".84"/></svg><svg width="24" height="24" id="icon-social-twitter" y="1944"><path d="M8.29 20.126c7.547 0 11.675-6.253 11.675-11.676 0-.177 0-.354-.012-.53A8.349 8.349 0 0022 5.796a8.19 8.19 0 01-2.357.646 4.118 4.118 0 001.804-2.27 8.223 8.223 0 01-2.605.996 4.107 4.107 0 00-6.993 3.742 11.65 11.65 0 01-8.457-4.287 4.106 4.106 0 001.27 5.478A4.073 4.073 0 012.8 9.587v.052a4.105 4.105 0 003.292 4.023 4.097 4.097 0 01-1.853.07 4.108 4.108 0 003.834 2.85A8.234 8.234 0 012 18.282a11.617 11.617 0 006.29 1.84" fill="#000" fill-rule="evenodd" fill-opacity=".84"/></svg><svg width="24" height="24" id="icon-social-whatsapp" y="1968"><path d="M12.042 2a9.846 9.846 0 017.01 2.906 9.85 9.85 0 012.9 7.012c-.002 5.371-4.299 9.76-9.633 9.906l-.277.004a9.911 9.911 0 01-4.403-1.03l-.337-.176L2.048 22l1.406-5.136A9.893 9.893 0 012.13 11.91C2.133 6.446 6.579 2 12.04 2zm.003 1.674c-4.544 0-8.239 3.695-8.24 8.236a8.22 8.22 0 001.088 4.1l.17.284.196.312-.832 3.04 3.118-.818.3.178a8.22 8.22 0 003.853 1.141l.34.007c4.544 0 8.239-3.695 8.24-8.237.002-2.2-.854-4.27-2.41-5.827a8.181 8.181 0 00-5.823-2.416zm-3.512 3.66c.165 0 .33 0 .474.008.152.008.357-.058.558.425.206.496.701 1.715.763 1.839.062.124.103.268.02.433-.082.166-.123.269-.247.414-.124.144-.26.322-.371.433-.124.124-.253.258-.109.506.145.248.642 1.059 1.378 1.715.946.844 1.743 1.105 1.991 1.23.248.123.392.103.537-.063.144-.165.619-.723.784-.97.165-.248.33-.207.557-.125.192.07 1.093.51 1.516.719l.176.087c.248.124.413.186.474.29.062.103.062.598-.144 1.177-.206.578-1.196 1.106-1.671 1.177-.427.064-.967.09-1.56-.098-.36-.114-.82-.266-1.412-.521-2.484-1.073-4.106-3.574-4.23-3.74-.124-.165-1.011-1.342-1.011-2.561 0-1.219.64-1.818.867-2.066a.91.91 0 01.66-.31z" fill="#000" fill-rule="evenodd" fill-opacity=".84"/></svg><svg xmlns:xlink="http://www.w3.org/1999/xlink" width="24" height="24" id="icon-social-xing" y="1992"><defs><path d="M17.152 2c-.43 0-.62.27-.77.55 0 0-6.22 11.02-6.4 11.38l4.08 7.52c.14.26.36.55.8.55h2.88c.18 0 .31-.07.38-.18.08-.13.08-.29 0-.45l-4.07-7.45 6.39-11.29a.48.48 0 00.01-.45.458.458 0 00-.39-.18h-2.91zM5.032 5.95c-.17 0-.32.05-.39.18-.08.13-.07.28.02.44l1.94 3.4-3.06 5.4c-.06.16-.06.32 0 .45.07.12.2.18.37.18h2.89c.43 0 .64-.28.79-.55 0 0 2.99-5.29 3.11-5.5L8.722 6.5c-.14-.26-.36-.55-.81-.55h-2.88z" id="icon-social-xing-a"/></defs><use fill-opacity=".84" fill="#000" xlink:href="#icon-social-xing-a" fill-rule="evenodd"/></svg><svg width="24" height="24" id="icon-social-youtube" y="2016"><g fill="none" fill-rule="evenodd"><path d="M21.582 7.117a2.513 2.513 0 00-1.768-1.78c-1.56-.42-7.814-.42-7.814-.42s-6.254 0-7.814.42a2.513 2.513 0 00-1.768 1.78C2 8.687 2 11.962 2 11.962s0 3.275.418 4.845c.23.866.908 1.548 1.768 1.78 1.56.42 7.814.42 7.814.42s6.254 0 7.814-.42a2.513 2.513 0 001.768-1.78c.418-1.57.418-4.845.418-4.845s0-3.275-.418-4.845" fill-opacity=".84" fill="#000"/><path fill="#FFF" d="M9.955 14.936V8.988l5.227 2.974-5.227 2.974"/></g></svg></svg>
